<?xml version="1.0" encoding="UTF-8"?><svg id="depth_site_dark" xmlns="http://www.w3.org/2000/svg" xmlns:xlink="http://www.w3.org/1999/xlink" viewBox="0 0 195.23 207.06"><defs><style>.cls-1{fill:#fff;}.cls-2{fill:#2c2d2b;}.cls-3{fill:#d3a9ff;}.cls-4{clip-path:url(#clippath-1);}.cls-5{clip-path:url(#clippath);}.cls-6{fill:none;}</style><clipPath id="clippath"><path class="cls-6" d="M164.26,49.42c2.03,7.84,1.12,15.27-1.94,20.36-2.06,3.45-5.12,5.82-8.92,6.5s-7.76-.43-11.35-2.86c-5.31-3.59-9.82-10.05-11.85-17.89-1.12-4.31-1.34-8.5-.8-12.25,2.13-7.76,23.7-12.49,29.53-5.3,2.35,3.23,4.22,7.12,5.33,11.44Z"/></clipPath><clipPath id="clippath-1"><path class="cls-6" d="M101.96,60.79c2.03,7.84,6.54,14.3,11.85,17.89,3.59,2.44,7.55,3.55,11.35,2.86s6.86-3.05,8.92-6.5c3.06-5.09,3.97-12.52,1.94-20.36-1.12-4.31-2.99-8.21-5.33-11.44-5.45-6.63-27.37-3.55-29.53,5.3-.54,3.75-.31,7.94,.8,12.25Z"/></clipPath></defs><path class="cls-3" d="M107.08,66.12l-42.13,49.89c-6.93,8.21-13.88,16.44-21.25,23.71-15.38,15.19-33.34,27.31-43.13,50.6-.25,.6-.5,1.22-.56,1.9-.11,1.45,.68,2.55,1.4,3.42,3.17,3.8,6,7.6,9.17,11.41,7.16-10.07,12.77-22.7,19.5-33.41,5.16-8.21,11.11-15.2,17.04-22.15,16.4-19.24,33.71-45.05,50.11-64.28,4.03-4.72,3.99-6.81,6.87-13.11,1.14-2.49,2.35-4.96,3.12-7.71"/><path class="cls-3" d="M117.42,127.26c-10.22-35.05-51.38-53.95-62.14-88.84-1.39-4.51-2.2-9.49-.48-13.88,1.78-4.55,5.96-7.68,10.13-10.24,7.87-4.82,16.74-8.55,25.96-8.51,9.23,.04,18.81,4.48,23.12,12.64,1.07,2.04,3.42,4.65,5.03,3.01,.77-.78,.6-2.05,.52-3.14-.48-6.48,4.12-12.54,9.93-15.44C135.31-.05,142.08-.31,148.55,.22c4.01,.33,8.03,.95,11.78,2.38,12.32,4.68,19.8,17.02,25.54,28.88,2.08,4.3,4.07,8.7,5.02,13.38,1.1,5.44,.74,11.05,.28,16.58-1.18,14.32-3.02,28.84-8.9,41.94-5.4,12.03-13.97,22.33-22.89,32.04-10.92,11.89-23.02,23.47-38.17,29.06,.07-12.02-1.35-24.05-4.22-35.73"/><g><g><path class="cls-1" d="M164.27,49.42c2.03,7.84,1.12,15.28-1.94,20.35-2.06,3.45-5.13,5.83-8.93,6.51s-7.76-.44-11.35-2.88c-1.96-1.31-3.81-3.04-5.47-5.06-.49,2.51-1.35,4.79-2.51,6.7-2.06,3.45-5.12,5.81-8.92,6.49-3.8,.68-7.75-.42-11.36-2.85-5.31-3.59-9.81-10.06-11.84-17.9-1.11-4.3-1.34-8.49-.81-12.25,1.28-5.06,6.74-10.64,12.43-11.66,5.32-.95,11.57,1.27,16.16,5.47,2.06-5.51,6.68-9.77,12.08-10.74,5.7-1.02,13.43,2.19,17.11,6.39,2.35,3.22,4.22,7.12,5.34,11.44Z"/><g class="cls-5"><ellipse class="cls-2" cx="169.62" cy="54.27" rx="24.47" ry="26.53" transform="translate(14.87 142.41) rotate(-47.41)"/></g><path class="cls-3" d="M158.93,37.98c-5.1-6.3-25.06-2.9-29.04,4.2-.05,.07-.09,.16-.13,.27-.07-.07-.13-.12-.19-.15-7.26-4.97-26.89-1.2-28.42,6.23,1.07-7.67,5.34-13.48,11.67-14.61,5.87-1.05,12.12,2.16,16.82,7.94,1.38-6.97,5.49-12.13,11.43-13.19,6.33-1.14,13.1,2.69,17.87,9.31Z"/></g><g class="cls-4"><ellipse class="cls-2" cx="139.95" cy="57.21" rx="24.47" ry="26.53" transform="translate(3.12 121.52) rotate(-47.41)"/></g></g><path class="cls-2" d="M123.43,86.02c-.47,.82-.05,1.81,.6,2.48,2.21,2.32,4.67,4.42,7.5,5.71,2.83,1.29,6.09,1.72,9.01,.69,1.61-.57,3.06-1.55,4.48-2.55,.65-.46,1.32-.94,1.76-1.65,.84-1.35,.61-3.15,.27-4.73-.09-.41-.19-.84-.45-1.15-.52-.63-1.49-.56-2.17-.13s-1.17,1.12-1.75,1.69c-2.63,2.58-6.75,2.34-10.11,1.06-1.26-.48-2.48-1.08-3.77-1.45,0,0-4.57-1.34-5.37,.04Z"/></svg>