<?xml version="1.0" encoding="UTF-8" standalone="no"?>
<svg
   id="depth_site_dark"
   viewBox="0 0 190.88968 268.99477"
   version="1.1"
   sodipodi:docname="charities2.svg"
   inkscape:version="1.2.2 (732a01da63, 2022-12-09)"
   xmlns:inkscape="http://www.inkscape.org/namespaces/inkscape"
   xmlns:sodipodi="http://sodipodi.sourceforge.net/DTD/sodipodi-0.dtd"
   xmlns="http://www.w3.org/2000/svg"
   xmlns:svg="http://www.w3.org/2000/svg">
  <sodipodi:namedview
     id="namedview414"
     pagecolor="#ffffff"
     bordercolor="#000000"
     borderopacity="0.25"
     inkscape:showpageshadow="2"
     inkscape:pageopacity="0.0"
     inkscape:pagecheckerboard="0"
     inkscape:deskcolor="#d1d1d1"
     showgrid="false"
     inkscape:zoom="1.5558777"
     inkscape:cx="16.710825"
     inkscape:cy="96.408606"
     inkscape:window-width="1536"
     inkscape:window-height="801"
     inkscape:window-x="-8"
     inkscape:window-y="-8"
     inkscape:window-maximized="1"
     inkscape:current-layer="depth_site_dark" />
  <defs
     id="defs363">
    <style
       id="style361">.cls-1{fill:#fff;}.cls-2{fill:#f59e1c;}.cls-3{fill:#ffce00;}.cls-4{fill:#cb811f;}.cls-5{fill:#914b2c;}.cls-6{fill:#1d1d1b;}</style>
    <clipPath
       clipPathUnits="userSpaceOnUse"
       id="clipPath418">
      <rect
         style="fill:#92aa87"
         id="rect420"
         width="232.02338"
         height="314.93478"
         x="-41.134338"
         y="-35.992546" />
    </clipPath>
  </defs>
  <path
     class="cls-4"
     d="m 123.17,176.84 c -1.97,-4.15 -8.57,-1.33 -6.58,2.86 5.72,12.05 10.47,25.13 11.67,38.43 0.3,3.33 -2.3,15.06 -0.46,22.79 5.63,23.64 45.22,30 71.79,27.58 -3.01,-2.26 6.22,-9.28 1.52,-8.29 -19.6,4.12 -60.3,1.82 -66.42,-20.9 -1.17,-4.35 1.06,-21.47 0.63,-24.76 -1.74,-13.14 -6.69,-26.22 -12.14,-37.7 z"
     id="path365"
     clip-path="url(#clipPath418)"
     transform="translate(6.4472892e-4,0.0147843)" />
  <path
     class="cls-2"
     d="m 129.96064,143.59478 c 22.5,37.02 -39.569995,74.45 -51.639995,26.57 -16.26,27.82 -56.56,15.62 -42.87,-17.38 -14.26,5.98 -27.2700003,-11.72 -20.29,-24.4 0.3,-1.04 3.05,-2.72 1,-3.54 -13.9300003,-3.1 -14.1600003,-19.4 -8.5800003,-29.269996 -4.69,-4.5 -8.55999997,-10.6 -7.35999997,-17.33 0.58,-9.15 7.66999997,-14.64 15.66000027,-15.8 0.54,-0.17 0.83,-0.79 0.59,-1.3 -2.2,-4.4 -1.97,-9.11 -0.78,-13.73 2.07,-11.58 15.02,-19.71 26.05,-14.35 0.6,0.29 1.3,-0.11 1.34,-0.77 -0.44,-6.67 0.5,-13.56 3.78,-19.47 9.18,-17.6199997 33.83,-17.4299997 39.55,2.72 17.369995,-32.4 62.609995,-5.16 44.589995,25.69 29.23,-10.22 51.72,36.01 21.92,49.48 -0.94,0.56 -0.4,1.66 0.47,1.94 7.79,4.03 11.86,10.589996 12.71,19.179996 1.22,17.7 -15.86,32.59 -33.16,30.6 -1.05,-0.13 -3.76,-0.86 -2.98,1.15 z"
     id="path367" />
  <path
     class="cls-5"
     d="m 131.68064,252.31478 c -0.16,0.02 -0.3,0.06 -0.43,0.11 l 0.03,-0.27 z"
     id="path369" />
  <path
     class="cls-3"
     d="m 155.68064,132.63478 c 0.63,-0.59 1.23,-1.22 1.81,-1.87 -0.58,0.65 -1.18,1.27 -1.81,1.87 z m -32.11,-57.019996 v 0 c -0.17,-0.6 -0.33,-1.2 -0.49,-1.79 0.16,0.6 0.32,1.19 0.48,1.79 z M 80.740645,163.76478 c 0,0 0.03,0.1 0.04,0.15 0.01,0.09 0.03,0.18 0.04,0.27 0,-0.09 -0.02,-0.18 -0.03,-0.27 0,-0.06 -0.02,-0.1 -0.05,-0.15 z m -35.5,-124.849996 c 0.04,0.08 0.08,0.16 0.12,0.24 0.03,0.07 0.07,0.14 0.11,0.22 -0.03,-0.08 -0.07,-0.15 -0.1,-0.22 z m -26.62,25.35 c 0.15,-0.01 0.3,-0.03 0.45,-0.06 0.04,0 0.08,-0.01 0.12,-0.03 -0.05,0.01 -0.08,0.01 -0.13,0.02 -0.15,0.03 -0.3,0.05 -0.45,0.07 z m -5.45,30.9 c 0,0 0.03,-0.03 0.04,-0.05 0.07,-0.09 0.13,-0.19 0.18,-0.29 -0.06,0.1 -0.12,0.2 -0.19,0.29 l -0.04,0.05 z m -0.46,-1.73 c 0.07,0.01 0.14,0.03 0.22,0.05 -0.05,-0.03 -0.1,-0.04 -0.16,-0.05 -0.02,0 -0.04,0 -0.06,0 z"
     id="path371" />
  <path
     class="cls-4"
     d="m 176.04064,229.74478 c -2.02,3.75 -4.6,6.12 -7.56,7.56 -4.59,1.64 -9.33,1.8 -14.13,1.38 -4.8,-0.42 -9.64,-1.43 -14.42,-2.15 2.99,-2.38 6.8,-3.92 10.41,-5.78 3.61,-1.86 7,-4.02 9.18,-7.69 0.94,-2.83 0.56,-5.46 -0.94,-6.6 -3.67,-2.17 -6.45,-2.79 -10.62,-2.53 -4.17,0.26 -8.41,1.19 -12.36,1.75 2.45,-1.69 13.76,-7.33 23.06,-4.63 4.41,1.28 8.19,4.56 10.9,9.96 4.08,0.22 7.6,4.92 6.48,8.72 z"
     id="path373" />
  <path
     class="cls-4"
     d="m 127.57064,217.18478 c -2.59,1.94 -5.37,3.26 -8.23,3.97 -3.66,1.07 -6.97,0.95 -9.98,0 -9.749995,-3.06 -15.209995,-13.05 -21.609995,-20.22 0.23,4 -0.82,6.68 -2.69,8.47 -10.14,5.46 -22.19,-3.6 -30.85,-7.75 7.73,-2.44 16.77,-5.07 24.85,-6.24 4.64,-1.65 9.73,-1.36 13.59,2.13 6.59,8.49 13.359995,18.29 25.729995,18.74 2.92,-0.42 5.92,-0.16 8.74,0.76 0.18,0.06 0.33,0.11 0.44,0.13 z"
     id="path375" />
  <path
     class="cls-3"
     d="m 48.420645,138.02478 c 3.86,4.59 8.37,8.4 13.74,11.06 -5.37,-2.66 -9.88,-6.46 -13.74,-11.06 z"
     id="path377" />
  <path
     class="cls-3"
     d="m 123.42064,92.574784 c 0,-0.81 -0.02,-1.63 -0.05,-2.44 0.01,0.26 0.02,0.51 0.02,0.77 0.02,0.56 0.03,1.11 0.03,1.68 z"
     id="path379" />
  <path
     class="cls-3"
     d="m 123.35064,96.504784 c 0.05,-1.32 0.08,-2.62 0.07,-3.93 0,1.31 -0.01,2.62 -0.07,3.93 z"
     id="path381" />
  <path
     class="cls-3"
     d="m 76.190645,36.644784 c -0.12,0 -0.23,0.02 -0.35,0.03 0.3,-0.02 0.61,-0.04 0.91,-0.05 -0.18,0 -0.37,0.01 -0.56,0.02 z m -0.35,0.03 c 0.3,-0.02 0.61,-0.04 0.91,-0.05 -0.18,0 -0.37,0.01 -0.56,0.02 -0.12,0 -0.23,0.02 -0.35,0.03 z m -33.2,88.279996 c -0.7,0.03 -1.37,0.34 -2.04,0.51 -0.68,0.17 -1.36,0.34 -2.05,0.5 0.14,0.49 0.29,0.98 0.34,1.18 -0.03,-0.27 0.08,-0.65 0.28,-0.82 0.19,-0.18 0.79,-0.28 0.86,-0.18 0.9,1.32 2.47,-1.53 3.29,0.57 -0.14,-0.37 -0.28,-0.75 -0.42,-1.12 -0.08,-0.22 -0.17,-0.44 -0.25,-0.64 z"
     id="path383" />
  <path
     class="cls-3"
     d="m 42.890645,125.58478 c 0.14,0.37 0.28,0.75 0.42,1.12 -0.82,-2.1 -2.39,0.75 -3.29,-0.57 -0.07,-0.1 -0.67,0 -0.86,0.18 -0.2,0.17 -0.31,0.55 -0.28,0.82 -0.05,-0.2 -0.2,-0.69 -0.34,-1.18 0.69,-0.15 1.37,-0.33 2.05,-0.5 0.67,-0.16 1.34,-0.48 2.04,-0.51 0.09,0.2 0.17,0.42 0.25,0.64 z"
     id="path385" />
  <path
     class="cls-3"
     d="m 48.420645,138.02478 c 3.86,4.59 8.37,8.4 13.74,11.06 -5.37,-2.66 -9.88,-6.46 -13.74,-11.06 z"
     id="path387" />
  <path
     class="cls-3"
     d="m 121.73064,88.634784 c -0.11,-1.42 -0.25,-2.83 -0.44,-4.26 -0.05,-0.36 -0.14,-0.72 -0.21,-1.08 0.04,0.25 0.09,0.5 0.14,0.75 0.02,0.11 0.04,0.21 0.06,0.33 v 0 c 0.19,1.43 0.33,2.85 0.45,4.26 z m 1.36,-14.81 c 0.16,0.6 0.32,1.19 0.48,1.79 v 0 c -0.17,-0.6 -0.33,-1.2 -0.49,-1.79 z m 0.32,18.75 c 0,1.31 -0.02,2.61 -0.07,3.93 0.06,-1.31 0.08,-2.62 0.07,-3.93 z"
     id="path389" />
  <path
     class="cls-6"
     d="m 44.670645,108.48478 c -7.14,-6.96 -14.26,-13.909996 -21.42,-20.849996 -0.56,-0.54 -1.19,-1 -2.31,-1.94 -0.41,1.62 -0.8,2.6 -0.86,3.58 -0.45,7.7 1.11,14.989996 4.85,21.739996 1.34,2.43 3.02,4.62 5.22,6.35 1.81,1.43 3.83,2.43 6.18,2.52 4.22,0.16 6.97,-2.16 9.04,-5.52 1.78,-2.87 1.68,-3.57 -0.69,-5.88 z m 0,0 c -7.14,-6.96 -14.26,-13.909996 -21.42,-20.849996 -0.56,-0.54 -1.19,-1 -2.31,-1.94 -0.41,1.62 -0.8,2.6 -0.86,3.58 -0.45,7.7 1.11,14.989996 4.85,21.739996 1.34,2.43 3.02,4.62 5.22,6.35 1.81,1.43 3.83,2.43 6.18,2.52 4.22,0.16 6.97,-2.16 9.04,-5.52 1.78,-2.87 1.68,-3.57 -0.69,-5.88 z"
     id="path391" />
  <path
     class="cls-6"
     d="m 95.620645,120.27478 c -8.66,-9.53 -17.32,-19.06 -25.98,-28.569996 -0.45,-0.49 -1.05,-0.84 -2.11,-1.66 -0.51,1.77 -1.12,2.88 -1.12,4 0.04,4.89 0.76,9.669996 2.39,14.299996 1.74,4.97 4.3,9.44 8.4,12.86 5.04,4.18 10.76,5.38 17.06,3.63 2.82,-0.79 3.3,-2.42 1.38,-4.55 z m 0,0 c -8.66,-9.53 -17.32,-19.06 -25.98,-28.569996 -0.45,-0.49 -1.05,-0.84 -2.11,-1.66 -0.51,1.77 -1.12,2.88 -1.12,4 0.04,4.89 0.76,9.669996 2.39,14.299996 1.74,4.97 4.3,9.44 8.4,12.86 5.04,4.18 10.76,5.38 17.06,3.63 2.82,-0.79 3.3,-2.42 1.38,-4.55 z"
     id="path393" />
  <ellipse
     class="cls-4"
     cx="-80.271782"
     cy="91.617271"
     rx="60.080002"
     ry="47.91"
     transform="rotate(-80.88)"
     id="ellipse395" />
  <path
     class="cls-6"
     d="m 128.40064,82.894784 c -0.05,-0.87 -0.13,-1.73 -0.23,-2.59 -0.11,-0.92 -0.18,-1.93 -0.77,-2.69 0,0 -0.01,-0.01 -0.02,-0.02 -0.2,-0.41 -0.49,-0.68 -0.92,-0.84 -0.06,0 -0.12,-0.01 -0.18,-0.02 -0.9,-0.4 -1.96,-0.28 -2.97,0.02 -0.28,0.05 -0.56,0.1 -0.82,0.19 -0.65,0.21 -1.28,0.58 -1.88,0.94 -1.25,0.62 -2.46,1.31 -3.67,1.99 -0.88,0.49 -1.65,1.14 -2.46,1.73 -0.42,0.26 -0.84,0.53 -1.28,0.8 h -0.01 l -0.11,-0.31 c -0.04,-0.11 -0.07,-0.2 -0.11,-0.3 -0.22,-0.6 -0.43,-1.14 -0.61,-1.69 -0.24,-0.73 -0.5,-1.46 -0.78,-2.17 -0.12,-0.33 -0.25,-0.65 -0.39,-0.97 -0.27,-0.69 -0.58,-1.36 -0.9,-2.02 -0.19,-0.39 -0.38,-0.79 -0.59,-1.18 l -0.13,-0.24 c 0,0 -0.04,-0.07 -0.06,-0.11 -0.14,-0.26 -0.28,-0.52 -0.43,-0.77 -0.05,-0.09 -0.1,-0.18 -0.16,-0.27 0,-0.01 -0.01,-0.02 -0.01,-0.03 -0.14,-0.23 -0.28,-0.45 -0.43,-0.69 0,-0.01 -0.01,-0.03 -0.02,-0.04 l -0.02,-0.03 c -0.14,-0.23 -0.29,-0.46 -0.44,-0.68 -0.15,-0.24 -0.32,-0.47 -0.48,-0.7 -0.41,-0.59 -0.86,-1.18 -1.34,-1.75 -0.24,-0.28 -0.48,-0.56 -0.73,-0.83 -0.25,-0.28 -0.5,-0.55 -0.76,-0.81 -0.26,-0.27 -0.52,-0.53 -0.8,-0.79 -0.28,-0.26 -0.55,-0.52 -0.84,-0.76 -0.25,-0.22 -0.52,-0.43 -0.79,-0.63 -0.04,-0.03 -0.07,-0.06 -0.11,-0.08 -0.27,-0.21 -0.54,-0.41 -0.83,-0.6 -0.39,-0.28 -0.8,-0.55 -1.21,-0.8 -0.619995,-0.4 -1.229995,-0.79 -1.829995,-1.18 -0.03,-0.02 -0.06,-0.04 -0.09,-0.05 -0.07,-0.05 -0.17,-0.1 -0.31,-0.18 v 0 c -0.17,-0.11 -0.34,-0.2 -0.52,-0.28 -0.45,-0.21 -0.91,-0.4 -1.36,-0.56 -0.13,-0.05 -0.27,-0.1 -0.4,-0.14 -0.17,-0.06 -0.35,-0.12 -0.53,-0.18 -0.17,-0.05 -0.35,-0.11 -0.53,-0.16 -0.5,-0.13 -1,-0.25 -1.51,-0.33 -0.12,-0.03 -0.24,-0.08 -0.37,-0.1 -0.31,-0.05 -0.63,-0.1 -0.93,-0.13 -0.62,-0.08 -1.23,-0.13 -1.85,-0.14 -0.31,-0.01 -0.61,-0.02 -0.91,0 -0.57,0 -1.14,0.03 -1.69,0.09 -0.07,0 -0.14,0 -0.2,0.02 -0.22,0.03 -0.43,0.05 -0.65,0.09 -0.13,0 -0.25,0.02 -0.37,0.05 -0.2,0.03 -0.38,0.07 -0.58,0.11 -0.31,0.05 -0.62,0.12 -0.93,0.2 -0.02,0 -0.04,0 -0.05,0.01 -0.26,0.07 -0.5,0.13 -0.75,0.21 -0.06,0 -0.11,0.03 -0.16,0.05 -0.26,0.07 -0.51,0.15 -0.76,0.24 -0.29,0.09 -0.57,0.2 -0.85,0.31 -0.28,0.11 -0.56,0.23 -0.84,0.35 -0.28,0.13 -0.56,0.26 -0.83,0.39 -0.24,0.12 -0.47,0.24 -0.7,0.37 -0.15,0.08 -0.29,0.14 -0.43,0.23 -0.17,0.09 -0.34,0.19 -0.51,0.29 -0.3,0.19 -0.6,0.38 -0.9,0.57 -0.03,0.01 -0.06,0.04 -0.09,0.06 -0.12,0.08 -0.24,0.16 -0.37,0.24 -0.24,0.16 -0.48,0.33 -0.71,0.5 -0.14,0.1 -0.29,0.21 -0.42,0.31 l -0.07,0.05 c -0.25,0.18 -0.49,0.37 -0.72,0.56 -0.31,0.25 -0.61,0.5 -0.9,0.76 -0.23,0.21 -0.47,0.42 -0.69,0.64 -0.2,0.19 -0.39,0.36 -0.58,0.56 -0.23,0.23 -0.45,0.45 -0.67,0.69 -0.27,0.29 -0.54,0.59 -0.8,0.9 -0.03,0.03 -0.06,0.06 -0.09,0.09 -0.27,0.31 -0.53,0.63 -0.78,0.96 -0.26,0.33 -0.52,0.67 -0.77,1.02 0,0 0,0.02 -0.01,0.03 -0.25,0.34 -0.48,0.69 -0.71,1.04 -0.72,1.07 -1.37,2.18 -1.95,3.34 -0.01,0.02 -0.02,0.03 -0.03,0.05 -0.18,0.36 -0.35,0.72 -0.53,1.08 -0.04,0.06 -0.06,0.12 -0.09,0.18 -0.36,0.76 -0.69,1.53 -1.01,2.33 -0.08,0.19 -0.15,0.38 -0.21,0.58 -0.01,0.03 -0.02,0.06 -0.03,0.09 -0.1,0.26 -0.2,0.51 -0.29,0.78 -0.1,0.27 -0.19,0.53 -0.28,0.81 -0.13,0.39 -0.26,0.77 -0.38,1.16 -0.61,1.93 -1.15,3.9 -1.78,5.9 -0.67,0.02 -1.45,0.05 -2.22,0.06 -0.12,-1 -0.22,-1.99 -0.31,-2.96 -0.05,-0.56 -0.11,-1.12 -0.19,-1.67 -0.05,-0.45 -0.11,-0.91 -0.18,-1.35 -0.04,-0.28 -0.08,-0.55 -0.13,-0.82 -0.05,-0.32 -0.12,-0.64 -0.18,-0.95 v 0 c -0.16,-0.75 -0.33,-1.51 -0.51,-2.25 -0.18,-0.75 -0.37,-1.49 -0.58,-2.24 -0.1,-0.37 -0.22,-0.74 -0.33,-1.11 -0.23,-0.74 -0.47,-1.46 -0.74,-2.16 -0.14,-0.36 -0.29,-0.71 -0.44,-1.06 -0.33,-0.75 -0.68,-1.48 -1.06,-2.19 -0.19,-0.36 -0.38,-0.71 -0.58,-1.05 -0.18,-0.33 -0.37,-0.65 -0.57,-0.96 -0.02,-0.04 -0.05,-0.08 -0.07,-0.12 -0.19,-0.31 -0.39,-0.62 -0.6,-0.92 v 0 c -0.21,-0.31 -0.41,-0.6 -0.63,-0.89 l -0.07,-0.1 c -0.16,-0.21 -0.31,-0.41 -0.48,-0.6 -0.02,-0.03 -0.05,-0.06 -0.08,-0.09 -0.07,-0.09 -0.14,-0.18 -0.2,-0.25 -0.07,-0.08 -0.14,-0.16 -0.21,-0.24 -0.02,-0.02 -0.04,-0.04 -0.06,-0.07 -0.12,-0.13 -0.22,-0.25 -0.34,-0.37 -0.12,-0.13 -0.22,-0.25 -0.35,-0.37 -0.19,-0.2 -0.38,-0.39 -0.58,-0.58 -0.06,-0.06 -0.13,-0.13 -0.2,-0.2 -0.19,-0.18 -0.39,-0.35 -0.59,-0.52 -0.03,-0.03 -0.05,-0.05 -0.09,-0.08 -0.11,-0.1 -0.23,-0.19 -0.35,-0.29 -0.19,-0.15 -0.38,-0.3 -0.57,-0.45 -0.25,-0.19 -0.5,-0.37 -0.77,-0.55 v 0 c -0.28,-0.19 -0.56,-0.37 -0.86,-0.55 -0.03,-0.01 -0.05,-0.04 -0.08,-0.05 -0.18,-0.11 -0.37,-0.21 -0.57,-0.32 -0.25,-0.14 -0.5,-0.27 -0.76,-0.4 -0.21,-0.11 -0.43,-0.21 -0.65,-0.3 -0.11,-0.05 -0.22,-0.1 -0.33,-0.14 -0.2,-0.09 -0.42,-0.18 -0.63,-0.26 -0.21,-0.08 -0.43,-0.16 -0.65,-0.24 -0.83,-0.22 -1.66,-0.44 -2.51,-0.54 l -0.04,0.06 c -5.85,-0.4 -10.58,1.99 -14.52,6.06 -1.69,1.74 -3.25,3.66 -4.43,5.74 -7,12.36 -8.28,25.38 -4.18,38.919996 1.31,4.31 3.52,8.18 6.74,11.4 3.86,3.86 8.53,5.55 13.24,4.98 0.71,-0.15 1.41,-0.33 2.11,-0.51 0.37,-0.1 0.72,-0.25 1.08,-0.34 0.24,-0.06 0.5,-0.12 0.76,-0.15 1.29,-0.49 2.56,-1.18 3.79,-2.02 2.85,-1.97 5.16,-4.44 7.05,-7.31 4.13,-6.2 6.23,-13.11 7.06,-20.459996 0.09,-0.72 0.13,-1.48 0.4,-2.11 0.14,-0.33 0.79,-0.66 1.16,-0.6 0.3,0.05 0.62,0.61 0.78,1 0.11,0.28 -0.07,0.64 -0.05,0.95 0.13,3.32 0,6.669996 0.46,9.929996 1.08,7.88 3.94,15.04 9.62,20.82 8.36,8.52 19.94,9.07 29.079995,1.39 5.11,-4.29 8.36,-9.82 10.46,-16.08 2.32,-6.86 2.97,-13.899996 2.11,-21.089996 -0.07,-0.7 -0.24,-1.7 0.13,-2.09 0.26,-0.27 0.53,-0.54 0.8,-0.8 0.98,-0.56 1.85,-1.25 2.78,-1.94 0.12,-0.08 0.24,-0.16 0.36,-0.24 0.02,0 0.03,-0.02 0.05,-0.03 v 0 c 1.05,-0.71 2.2,-1.27 3.31,-1.86 0.62,-0.33 1.26,-0.64 1.91,-0.91 0.33,-0.14 0.66,-0.28 1,-0.38 -0.02,0 -0.01,0 0.01,0 0.04,0.28 0.07,0.56 0.11,0.84 0.09,0.78 0.15,1.57 0.2,2.36 0.06,0.97 1.05,1.69 1.98,1.59 1,-0.11 1.64,-1.01 1.59,-1.98 z M 56.980645,100.47478 c -1.07,4.45 -2.75,8.63 -5.22,12.48 -1.8,2.82 -3.98,5.29 -6.76,7.2 -6.23,4.32 -13.16,3.71 -18.52,-1.63 -2.94,-2.92 -4.86,-6.46 -6.19,-10.33 -2.4,-7.12 -2.86,-14.409996 -1.58,-22.189996 0.92,-6.38 3.22,-12.63 7.34,-18.13 1.92,-2.54 4.15,-4.75 7.01,-6.27 2.62,-1.38 5.29,-1.9 8.37,-1.53 3.73,0.42 6.47,2.18 9.01,4.67 2.56,2.53 4.12,5.67 5.32,8.97 3.19,8.78 3.39,17.71 1.21,26.759996 z m 50.059995,15.26 c -2.15,3.87 -4.98,7.17 -8.659995,9.68 -7.23,4.92 -15.76,4.57 -22.53,-0.95 -3.86,-3.14 -6.51,-7.18 -8.37,-11.76 -3.29,-8.11 -3.88,-16.459996 -2.29,-25.029996 1.24,-6.65 3.78,-12.72 8.19,-17.9 3.75,-4.37 8.33,-7.48 14.23,-7.97 1.75,-0.15 3.2,0.01 5.33,0.36 2.13,0.34 3.67,1.03 4.63,1.68 0.95,0.62 3.499995,2.25 4.959995,3.66 5.09,4.89 7.82,11.08 9.11,17.9 2.01,10.62 0.68,20.789996 -4.6,30.319996 z"
     id="path397" />
  <path
     class="cls-6"
     d="m 111.65064,85.414784 c -1.29,-6.83 -4.02,-13.01 -9.11,-17.9 -1.46,-1.41 -4.009995,-3.04 -4.959995,-3.66 -0.96,-0.64 -2.5,-1.34 -4.63,-1.68 -2.12,-0.34 -3.58,-0.5 -5.33,-0.36 -5.91,0.49 -10.48,3.59 -14.23,7.97 -4.41,5.18 -6.95,11.25 -8.19,17.9 -1.58,8.57 -1,16.929996 2.29,25.029996 1.86,4.57 4.51,8.61 8.37,11.76 6.77,5.52 15.3,5.87 22.53,0.95 3.679995,-2.51 6.519995,-5.81 8.659995,-9.68 5.28,-9.53 6.61,-19.699996 4.6,-30.319996 z M 94.250645,124.83478 c -6.3,1.76 -12.02,0.55 -17.06,-3.63 -4.1,-3.42 -6.65,-7.89 -8.4,-12.86 -1.63,-4.63 -2.35,-9.409996 -2.39,-14.299996 0,-1.12 0.61,-2.23 1.12,-4 1.06,0.81 1.66,1.17 2.11,1.66 8.67,9.519996 17.33,19.039996 25.98,28.569996 1.93,2.13 1.45,3.76 -1.38,4.55 z"
     id="path399" />
  <path
     class="cls-1"
     d="m 107.18064,95.674784 -28.309995,-26.25 c 0.92,-0.63 1.9,-1.18 2.88,-1.65 5.84,-2.76 11.33,-1.84 16.26,2.29 3.249995,2.73 5.349995,6.26 6.789995,10.19 1.88,5.08 2.59,10.23 2.37,15.42 z"
     id="path401" />
  <path
     class="cls-1"
     d="m 94.250645,124.82478 c -6.3,1.76 -12.02,0.55 -17.06,-3.63 -4.1,-3.42 -6.65,-7.89 -8.4,-12.86 -1.63,-4.63 -2.35,-9.409996 -2.39,-14.299996 0,-1.12 0.61,-2.23 1.12,-4 1.06,0.81 1.67,1.17 2.11,1.66 8.67,9.519996 17.33,19.039996 25.98,28.569996 1.93,2.13 1.45,3.76 -1.38,4.55 z"
     id="path403" />
  <path
     class="cls-6"
     d="m 55.770645,73.714784 c -1.2,-3.3 -2.76,-6.44 -5.32,-8.97 -2.54,-2.49 -5.28,-4.25 -9.01,-4.67 -3.08,-0.37 -5.75,0.16 -8.37,1.53 -2.86,1.51 -5.09,3.72 -7.01,6.27 -4.12,5.5 -6.42,11.75 -7.34,18.13 -1.28,7.77 -0.82,15.069996 1.58,22.189996 1.32,3.87 3.25,7.41 6.19,10.33 5.36,5.34 12.29,5.95 18.52,1.63 2.78,-1.91 4.95,-4.39 6.76,-7.2 2.47,-3.85 4.15,-8.03 5.22,-12.48 2.18,-9.049996 1.99,-17.979996 -1.21,-26.759996 z m -10.42,40.639996 c -2.06,3.36 -4.82,5.68 -9.04,5.52 -2.35,-0.09 -4.37,-1.08 -6.18,-2.52 -2.2,-1.73 -3.87,-3.92 -5.22,-6.35 -3.74,-6.75 -5.3,-14.039996 -4.85,-21.739996 0.06,-0.99 0.45,-1.96 0.86,-3.58 1.12,0.94 1.75,1.4 2.31,1.94 7.16,6.94 14.29,13.889996 21.42,20.849996 2.37,2.31 2.47,3.01 0.69,5.88 z"
     id="path405" />
  <path
     class="cls-1"
     d="m 54.340645,84.344784 -20.6,-19.1 c 4.55,-2.05 9.43,-1.23 13.4,2.4 2.44,2.23 4.09,4.99 5.26,8.05 1.07,2.82 1.69,5.69 1.94,8.64 z"
     id="path407" />
  <path
     class="cls-1"
     d="m 45.360645,114.36478 c -2.06,3.36 -4.82,5.68 -9.04,5.52 -2.35,-0.09 -4.37,-1.08 -6.18,-2.52 -2.2,-1.73 -3.87,-3.92 -5.22,-6.35 -3.74,-6.75 -5.3,-14.039996 -4.85,-21.739996 0.06,-0.99 0.45,-1.96 0.86,-3.58 1.12,0.94 1.75,1.4 2.31,1.94 7.16,6.94 14.29,13.889996 21.42,20.849996 2.37,2.31 2.47,3.01 0.69,5.88 z"
     id="path409" />
  <path
     class="cls-6"
     d="m 72.860645,137.85478 c -2.46,4.55 -6.36,5.6 -10.83,5.3 -4.58,-0.33 -7.93,-2.78 -10.2,-6.62 -1.25,-2.1 -0.02,-4.42 2.08,-3.99 6,1.2 11.92,2.73 17.85,4.19 0.34,0.06 0.55,0.55 1.09,1.12 z"
     id="path411" />
</svg>
