<?xml version="1.0" encoding="UTF-8" standalone="no"?>
<!-- Created with Inkscape (http://www.inkscape.org/) -->

<svg
   viewBox="0 0 89.138695 45.87809"
   version="1.1"
   id="svg5"
   sodipodi:docname="ComingSoonText.svg"
   inkscape:version="1.2.2 (732a01da63, 2022-12-09)"
   xmlns:inkscape="http://www.inkscape.org/namespaces/inkscape"
   xmlns:sodipodi="http://sodipodi.sourceforge.net/DTD/sodipodi-0.dtd"
   xmlns="http://www.w3.org/2000/svg"
   xmlns:svg="http://www.w3.org/2000/svg">
  <sodipodi:namedview
     id="namedview7"
     pagecolor="#000000"
     bordercolor="#000000"
     borderopacity="0.25"
     inkscape:showpageshadow="2"
     inkscape:pageopacity="0"
     inkscape:pagecheckerboard="0"
     inkscape:deskcolor="#d1d1d1"
     inkscape:document-units="mm"
     showgrid="false"
     inkscape:zoom="0.72515432"
     inkscape:cx="170.99808"
     inkscape:cy="91.704618"
     inkscape:window-width="1920"
     inkscape:window-height="1001"
     inkscape:window-x="-9"
     inkscape:window-y="-9"
     inkscape:window-maximized="1"
     inkscape:current-layer="layer1" />
  <defs
     id="defs2" />
  <g
     inkscape:label="Layer 1"
     inkscape:groupmode="layer"
     id="layer1"
     transform="translate(-59.717892,-124.26517)">
    <g
       aria-label=" 
Coming
Soon!"
       id="text3694"
       style="font-weight:600;font-size:22.5778px;font-family:Montserrat;-inkscape-font-specification:'Montserrat Semi-Bold';text-align:center;text-anchor:middle;fill:#ffffff;stroke-width:8.89">
      <path
         d="m 68.161989,141.92101 q -1.806224,0 -3.364092,-0.58703 -1.535291,-0.6096 -2.686758,-1.69333 -1.12889,-1.10631 -1.761069,-2.59645 -0.632178,-1.49013 -0.632178,-3.2512 0,-1.76107 0.632178,-3.25121 0.632179,-1.49013 1.783646,-2.57387 1.151468,-1.10631 2.686759,-1.69333 1.53529,-0.6096 3.364092,-0.6096 1.941691,0 3.544715,0.67733 1.603024,0.65476 2.709336,1.96427 l -1.896535,1.78365 q -0.857957,-0.92569 -1.919114,-1.37725 -1.061156,-0.47413 -2.302935,-0.47413 -1.241779,0 -2.280358,0.4064 -1.016001,0.4064 -1.783646,1.15147 -0.745068,0.74506 -1.174046,1.76107 -0.4064,1.016 -0.4064,2.2352 0,1.2192 0.4064,2.2352 0.428978,1.016 1.174046,1.76107 0.767645,0.74507 1.783646,1.15147 1.038579,0.4064 2.280358,0.4064 1.241779,0 2.302935,-0.45156 1.061157,-0.47413 1.919114,-1.4224 l 1.896535,1.80622 q -1.106312,1.28694 -2.709336,1.96427 -1.603024,0.67734 -3.567293,0.67734 z"
         id="path5365" />
      <path
         d="m 81.951961,141.85327 q -1.85138,0 -3.296359,-0.79022 -1.444979,-0.8128 -2.280358,-2.21263 -0.835379,-1.39982 -0.835379,-3.18347 0,-1.80622 0.835379,-3.18347 0.835379,-1.39982 2.280358,-2.19004 1.444979,-0.79022 3.296359,-0.79022 1.873957,0 3.318936,0.79022 1.467557,0.79022 2.280358,2.16747 0.835379,1.37724 0.835379,3.20604 0,1.78365 -0.835379,3.18347 -0.812801,1.39983 -2.280358,2.21263 -1.444979,0.79022 -3.318936,0.79022 z m 0,-2.41582 q 1.038579,0 1.851379,-0.45156 0.812801,-0.45155 1.264357,-1.30951 0.474134,-0.85796 0.474134,-2.00943 0,-1.17404 -0.474134,-2.00942 -0.451556,-0.85796 -1.264357,-1.30951 -0.8128,-0.45156 -1.828801,-0.45156 -1.038579,0 -1.85138,0.45156 -0.790223,0.45155 -1.264357,1.30951 -0.474134,0.83538 -0.474134,2.00942 0,1.15147 0.474134,2.00943 0.474134,0.85796 1.264357,1.30951 0.812801,0.45156 1.828802,0.45156 z"
         id="path5367" />
      <path
         d="m 106.31342,129.50322 q 1.44498,0 2.55129,0.56444 1.12889,0.56445 1.76107,1.73849 0.63218,1.15147 0.63218,2.98027 v 6.90881 h -2.82223 v -6.54756 q 0,-1.60303 -0.69991,-2.39325 -0.69991,-0.79022 -2.00942,-0.79022 -0.92569,0 -1.64818,0.4064 -0.69992,0.4064 -1.10632,1.19662 -0.38382,0.79022 -0.38382,2.00942 v 6.11859 h -2.822224 v -6.54756 q 0,-1.60303 -0.699912,-2.39325 -0.699912,-0.79022 -2.009424,-0.79022 -0.92569,0 -1.64818,0.4064 -0.699912,0.4064 -1.106312,1.19662 -0.383823,0.79022 -0.383823,2.00942 v 6.11859 H 91.09598 v -12.05655 h 2.686758 v 3.20605 l -0.474133,-0.94827 q 0.6096,-1.17404 1.761068,-1.78364 1.174046,-0.6096 2.664181,-0.6096 1.693335,0 2.935116,0.83537 1.26435,0.83538 1.67075,2.52872 l -1.10631,-0.38383 q 0.58703,-1.35466 1.94169,-2.16746 1.35467,-0.8128 3.13832,-0.8128 z"
         id="path5369" />
      <path
         d="m 114.87039,141.69523 v -12.05655 h 2.82223 v 12.05655 z m 1.4224,-14.04339 q -0.79022,0 -1.30951,-0.49672 -0.49671,-0.49671 -0.49671,-1.19662 0,-0.72249 0.49671,-1.19662 0.51929,-0.49671 1.30951,-0.49671 0.79023,0 1.28694,0.47413 0.51929,0.45156 0.51929,1.15147 0,0.74506 -0.49671,1.26435 -0.49672,0.49672 -1.30952,0.49672 z"
         id="path5371" />
      <path
         d="m 128.23644,129.50322 q 1.44498,0 2.57387,0.56444 1.15147,0.56445 1.80622,1.73849 0.65476,1.15147 0.65476,2.98027 v 6.90881 h -2.82222 v -6.54756 q 0,-1.60303 -0.76765,-2.39325 -0.74507,-0.79022 -2.09974,-0.79022 -0.99342,0 -1.76106,0.4064 -0.76765,0.4064 -1.19663,1.2192 -0.4064,0.79022 -0.4064,2.00942 v 6.09601 h -2.82222 v -12.05655 h 2.68676 v 3.25121 l -0.47414,-0.99343 q 0.63218,-1.15147 1.8288,-1.76107 1.2192,-0.63217 2.79965,-0.63217 z"
         id="path5373" />
      <path
         d="m 142.35417,146.23337 q -1.67075,0 -3.27378,-0.45156 -1.58044,-0.42898 -2.59644,-1.26436 l 1.26435,-2.12231 q 0.79023,0.65476 1.98685,1.03858 1.2192,0.4064 2.46098,0.4064 1.98685,0 2.91254,-0.92569 0.92569,-0.90311 0.92569,-2.73192 v -2.14489 l 0.22577,-2.73191 -0.0903,-2.73191 v -2.93512 h 2.68676 v 10.22775 q 0,3.27378 -1.67076,4.80907 -1.67075,1.55787 -4.83165,1.55787 z m -0.36124,-5.08001 q -1.71591,0 -3.11574,-0.72249 -1.37724,-0.74507 -2.19004,-2.05458 -0.79023,-1.30951 -0.79023,-3.07058 0,-1.73849 0.79023,-3.048 0.8128,-1.30952 2.19004,-2.03201 1.39983,-0.72248 3.11574,-0.72248 1.53529,0 2.75449,0.6096 1.2192,0.6096 1.94169,1.89653 0.74507,1.28694 0.74507,3.29636 0,2.00942 -0.74507,3.31894 -0.72249,1.28693 -1.94169,1.91911 -1.2192,0.6096 -2.75449,0.6096 z m 0.42898,-2.39325 q 1.06115,0 1.89653,-0.42897 0.83538,-0.45156 1.28694,-1.21921 0.47413,-0.79022 0.47413,-1.80622 0,-1.016 -0.47413,-1.78365 -0.45156,-0.79022 -1.28694,-1.19662 -0.83538,-0.42898 -1.89653,-0.42898 -1.06116,0 -1.91911,0.42898 -0.83538,0.4064 -1.30952,1.19662 -0.45155,0.76765 -0.45155,1.78365 0,1.016 0.45155,1.80622 0.47414,0.76765 1.30952,1.21921 0.85795,0.42897 1.91911,0.42897 z"
         id="path5375" />
      <path
         d="m 79.203303,170.14326 q -1.85138,0 -3.544715,-0.51929 -1.693335,-0.54187 -2.686758,-1.37725 l 1.016001,-2.28036 q 0.948267,0.74507 2.348091,1.24178 1.399823,0.49671 2.867381,0.49671 1.241779,0 2.009424,-0.27093 0.767645,-0.27093 1.12889,-0.72249 0.361245,-0.47413 0.361245,-1.06116 0,-0.72249 -0.51929,-1.15146 -0.519289,-0.45156 -1.354668,-0.69992 -0.812801,-0.27093 -1.828802,-0.49671 -0.993423,-0.22578 -2.009424,-0.51929 -0.993423,-0.31609 -1.828802,-0.79022 -0.812801,-0.49671 -1.33209,-1.30951 -0.519289,-0.8128 -0.519289,-2.07716 0,-1.28693 0.677334,-2.34809 0.699911,-1.08374 2.099735,-1.71591 1.422401,-0.65476 3.58987,-0.65476 1.422402,0 2.822225,0.36124 1.399824,0.36125 2.438403,1.03858 l -0.92569,2.28036 q -1.061157,-0.63218 -2.190047,-0.92569 -1.12889,-0.31609 -2.167468,-0.31609 -1.219202,0 -1.986847,0.29351 -0.745067,0.29352 -1.106312,0.76765 -0.338667,0.47413 -0.338667,1.08373 0,0.72249 0.496711,1.17405 0.51929,0.42898 1.332091,0.67733 0.835378,0.24836 1.851379,0.49671 1.016001,0.22578 2.009425,0.51929 1.016001,0.29352 1.828801,0.76765 0.835379,0.47413 1.332091,1.28693 0.519289,0.8128 0.519289,2.05458 0,1.26436 -0.699912,2.3481 -0.677334,1.06115 -2.099735,1.71591 -1.422402,0.63218 -3.58987,0.63218 z"
         id="path5377" />
      <path
         d="m 93.653089,170.07552 q -1.85138,0 -3.296359,-0.79022 -1.444979,-0.8128 -2.280358,-2.21262 -0.835379,-1.39983 -0.835379,-3.18347 0,-1.80623 0.835379,-3.18347 0.835379,-1.39983 2.280358,-2.19005 1.444979,-0.79022 3.296359,-0.79022 1.873957,0 3.318936,0.79022 1.467557,0.79022 2.280358,2.16747 0.835377,1.37724 0.835377,3.20605 0,1.78364 -0.835377,3.18347 -0.812801,1.39982 -2.280358,2.21262 -1.444979,0.79022 -3.318936,0.79022 z m 0,-2.41582 q 1.038579,0 1.851379,-0.45156 0.812801,-0.45155 1.264357,-1.30951 0.474134,-0.85796 0.474134,-2.00942 0,-1.17405 -0.474134,-2.00943 -0.451556,-0.85795 -1.264357,-1.30951 -0.8128,-0.45156 -1.828802,-0.45156 -1.038578,0 -1.851379,0.45156 -0.790223,0.45156 -1.264357,1.30951 -0.474134,0.83538 -0.474134,2.00943 0,1.15146 0.474134,2.00942 0.474134,0.85796 1.264357,1.30951 0.812801,0.45156 1.828802,0.45156 z"
         id="path5379" />
      <path
         d="m 108.21578,170.07552 q -1.85138,0 -3.29636,-0.79022 -1.44498,-0.8128 -2.28036,-2.21262 -0.83538,-1.39983 -0.83538,-3.18347 0,-1.80623 0.83538,-3.18347 0.83538,-1.39983 2.28036,-2.19005 1.44498,-0.79022 3.29636,-0.79022 1.87396,0 3.31894,0.79022 1.46755,0.79022 2.28035,2.16747 0.83538,1.37724 0.83538,3.20605 0,1.78364 -0.83538,3.18347 -0.8128,1.39982 -2.28035,2.21262 -1.44498,0.79022 -3.31894,0.79022 z m 0,-2.41582 q 1.03858,0 1.85138,-0.45156 0.8128,-0.45155 1.26436,-1.30951 0.47413,-0.85796 0.47413,-2.00942 0,-1.17405 -0.47413,-2.00943 -0.45156,-0.85795 -1.26436,-1.30951 -0.8128,-0.45156 -1.8288,-0.45156 -1.03858,0 -1.85138,0.45156 -0.79022,0.45156 -1.26436,1.30951 -0.47413,0.83538 -0.47413,2.00943 0,1.15146 0.47413,2.00942 0.47414,0.85796 1.26436,1.30951 0.8128,0.45156 1.8288,0.45156 z"
         id="path5381" />
      <path
         d="m 124.20087,157.72547 q 1.44498,0 2.57387,0.56444 1.15147,0.56445 1.80623,1.73849 0.65475,1.15147 0.65475,2.98027 v 6.90881 h -2.82222 v -6.54756 q 0,-1.60303 -0.76765,-2.39325 -0.74507,-0.79022 -2.09973,-0.79022 -0.99343,0 -1.76107,0.4064 -0.76765,0.4064 -1.19663,1.2192 -0.4064,0.79022 -0.4064,2.00942 v 6.09601 h -2.82222 v -12.05655 h 2.68676 v 3.25121 l -0.47414,-0.99343 q 0.63218,-1.15146 1.82881,-1.76107 1.2192,-0.63217 2.79964,-0.63217 z"
         id="path5383" />
      <path
         d="m 133.0062,164.67943 -0.54186,-10.56641 h 3.34151 l -0.56444,10.56641 z m 1.12889,5.39609 q -0.79022,0 -1.30951,-0.51929 -0.51929,-0.51929 -0.51929,-1.24178 0,-0.72248 0.51929,-1.2192 0.51929,-0.51929 1.30951,-0.51929 0.79023,0 1.28694,0.51929 0.49671,0.49672 0.49671,1.2192 0,0.72249 -0.49671,1.24178 -0.49671,0.51929 -1.28694,0.51929 z"
         id="path5385" />
    </g>
  </g>
</svg>
