<?xml version="1.0" encoding="UTF-8"?><svg id="depth_site_dark" xmlns="http://www.w3.org/2000/svg" viewBox="0 0 227.34 207.1"><defs><style>.cls-1{fill:#9b70c1;}.cls-2{fill:#fff;}.cls-3{fill:#924b2c;}.cls-4{fill:#1d1d1b;}</style></defs><path class="cls-3" d="M160.53,133.69c-.55,.71-.6,1.68-.12,2.44,2.92,4.65,13.14,20.8,17.23,26.29,6.92,9.3,6.12,17.37-1.88,24.52,0,0-.03,0-.03,0-2.03-4.46-3.5-8.95-5.98-12.79-2.77-4.29-6.3-8.12-9.85-11.82-.18-.18-.42-.3-.71-.38-2.31-.62-4.6,1.5-4.15,3.85,.04,.23,.11,.45,.22,.64,2.03,3.84,4.6,7.39,6.79,11.14,2.08,3.57,4.4,7.1,5.81,10.94,1.93,5.27-6.79,17.93-12.32,18.52-.41,.04-.87,.11-1.23-.04-7.84-3.25-15.85-6.16-23.43-9.92-4.81-2.39-3.81-7.44-2.99-11.74,1.24-6.53,3.15-12.96,4.05-19.53,.55-4.02,2.29-10-3.46-11.15-5.87-1.18-7.34,4.82-8.07,9.1-1.77,10.4-2.79,20.93-4.13,31.55,0,0,0,.02-.02,.02-13.34,.54-17.36-9.41-17.59-18.52-.25-9.77,13.14-37.19,16.39-41.66,3.25-4.46-2.66-11.36-9.04-5.69-6.37,5.67-16.94,29.67-23.8,44.06,0,.01-.02,.01-.03,0-4.38-4.43-9.46-8.65-13.37-13.77-4.18-5.48-3.28-12.18-.25-17.83,3.82-7.11,8.54-13.75,13.16-20.39,4.39-6.31,9.33-12.25,13.67-18.6l.06-.08c2.35-3.46-1.94-7.53-5.29-5.03-12.97,9.71-30.94,32.7-35.69,46.94,0,.01-.02,.02-.03,0-14.24-8.91-17.4-25.19-8.68-38.65,0,0,0-.01,0-.02-2.78-8.85-6.2-16.53-7.49-24.55-2.29-14.29,4.04-23.2,18.15-26.73,10.6-2.65,21.38-4.55,32.18-6.8,.01,0,.02-.02,0-.03-9.17-9.16-19.74-4.66-29.97-1.67-.01,0-.02,0-.02-.01-2.97-11.03,3.64-22.03,15.91-27.24,16.92-7.18,32.61,.41,37.46,18.12,.22,.8,.3,1.74,.78,2.36,.2,.26,.4,.51,.61,.77,1.87,2.29,5.58,.74,5.22-2.2h0c-2.68-20.87,3.39-30.08,23.67-35.64,11.38-3.12,22.53-4.66,32.59,3.68,.59,.49,1.11,1.08,1.59,1.55,0,0,0,.03,0,.03-6.98,2.24-13.8,4.25-20.47,6.68-2.26,.82-4.58,2.35-6.05,4.21-1.34,1.69-1.57,4.25-2.28,6.44,0,.01,0,.02,.01,.02,2.32,.25,5.24,1.5,6.83,.54,5.29-3.2,10.21-7.05,15.05-10.93,7.74-6.21,16.14-8.88,25.51-4.51,10.56,4.93,17.94,12.88,21.62,24.17,0,0,0,.02-.01,.02-.97,.38-1.45,.75-1.67,.63-16.99-9.06-32.72-4.15-47.95,4.55-2.14,1.23-3.33,4.14-4.95,6.27,0,0,0,.02,0,.03,2.47,1.23,4.93,3.46,7.4,3.47,5.35,.03,10.69-1.32,16.06-1.66,7.4-.47,15.13-1.96,22.18-.47,19.58,4.13,25.92,25.19,12.56,41.22,0,0-.02,0-.03,0-7.42-11.5-19.87-12.22-31.48-14.82-5.48-1.23-10.92-2.66-16.41-3.87-2.09-.46-4.26-.54-6.39-.8,0,0-.02,0-.02,.01-.34,.71-.68,1.42-1.02,2.13,0,0,0,.02,0,.02,3.23,2.11,6.22,4.88,9.74,6.21,8.95,3.39,18.11,6.25,27.25,9.12,25.29,7.92,31.6,23.73,18.54,46.86-1.59,2.82-3.51,5.46-5.89,9.11,0,.01-.03,.01-.03,0-8.41-20.6-26-32.12-30.39-33.11-.63-.14-1.31-.05-2.02,.16-2.88,.87-4.26,4.31-2.56,6.78,.24,.35,.52,.65,.85,.86,5.88,3.87,7.46,5.57,13.91,10.06,12.96,9.02,14.63,18.03,6.72,31.48-1.14,1.94-2.33,3.85-3.23,5.34,0,0-.02,.01-.03,0-10.18-8.84-28.46-25.46-34.1-30.6-.92-.84-2.36-.71-3.13,.28l-.02,.03Zm-111.99-30.23c11.64-10.77,26.62-16.29,34.33-30.84,0-.01,0-.03-.01-.03-17.18-3.08-33.56,11.72-34.34,30.86,0,.02,.02,.03,.03,.01Z"/><g><path class="cls-4" d="M176.61,82c-.27,4.35-1.49,8.49-3.81,12.24-2.77,4.49-6.79,7.12-11.36,7.64-.7,.01-1.4,0-2.1-.01-.37,0-.73-.08-1.1-.08-.24,0-.5,0-.75,.02-1.32-.18-2.67-.54-4.03-1.06-3.12-1.22-5.85-3.03-8.26-5.32-5.27-4.92-8.79-10.96-11.2-17.69-.24-.66-.45-1.36-.85-1.9-.21-.28-.89-.45-1.22-.31-.28,.11-.45,.71-.52,1.11-.04,.29,.2,.59,.26,.89,.61,3.15,1.48,6.29,1.78,9.46,.74,7.66-.36,15.04-4.42,21.74-5.98,9.89-16.76,12.98-27.07,7.78-5.77-2.9-10.05-7.38-13.43-12.81-3.71-5.95-5.89-12.43-6.68-19.38-.09-.68-.16-1.66-.58-1.94-.3-.2-.61-.39-.93-.57-1.05-.31-2.02-.77-3.05-1.2-.13-.05-.26-.1-.39-.15-.02,0-.04,0-.06-.01h0c-1.14-.44-2.36-.7-3.53-1.01-.66-.17-1.32-.32-2-.43-.34-.05-.69-.12-1.03-.14,0,0,0,0-.01,0,.03,.27,.06,.54,.09,.81,.09,.75,.2,1.51,.34,2.26,.16,.92-.61,1.82-1.51,1.93-.97,.12-1.77-.58-1.93-1.51-.14-.83-.26-1.66-.36-2.49-.11-.89-.27-1.86,.13-2.71,0-.01,.01-.02,.02-.03,.09-.42,.31-.75,.68-1l.17-.06c.76-.57,1.78-.7,2.79-.65,.27-.02,.55-.03,.82,0,.65,.05,1.33,.26,1.98,.47,1.31,.3,2.61,.69,3.9,1.05,.93,.27,1.81,.71,2.7,1.09,.45,.15,.91,.31,1.39,.47h.01l.03-.32c.02-.11,.02-.21,.04-.3,.07-.61,.15-1.17,.2-1.72,.06-.74,.15-1.49,.25-2.21,.04-.33,.09-.66,.15-1,.1-.71,.24-1.41,.4-2.11,.09-.41,.19-.83,.3-1.24,.02-.09,.04-.17,.06-.25,.01-.04,.03-.08,.04-.12,.08-.27,.15-.55,.23-.82,.03-.09,.06-.19,.09-.29,0-.01,0-.02,0-.03,.08-.25,.17-.49,.25-.74,0-.01,0-.03,.01-.04v-.03c.09-.25,.18-.49,.28-.74,.09-.26,.19-.51,.29-.77,.26-.65,.55-1.31,.87-1.95,.16-.32,.33-.63,.5-.95,.17-.32,.35-.63,.54-.93,.18-.31,.38-.62,.58-.92s.41-.61,.62-.9c.19-.27,.4-.52,.6-.78,.03-.04,.05-.07,.09-.1,.2-.25,.42-.5,.65-.75,.31-.35,.63-.69,.95-1.02,.49-.51,.98-1.01,1.47-1.52,.03-.03,.05-.05,.08-.07,.06-.06,.14-.13,.25-.23h0c.14-.14,.28-.27,.43-.39,.37-.3,.76-.58,1.16-.83,.11-.08,.23-.15,.35-.22,.14-.1,.3-.19,.46-.28,.15-.09,.3-.18,.46-.26,.44-.24,.89-.46,1.35-.65,.11-.05,.21-.12,.33-.17,.28-.12,.57-.24,.85-.33,.57-.22,1.13-.39,1.71-.54,.28-.08,.57-.15,.85-.21,.54-.12,1.08-.22,1.62-.29,.07-.02,.13-.03,.2-.03,.22-.02,.42-.05,.63-.06,.12-.02,.24-.03,.36-.04,.19-.01,.38-.02,.57-.03,.3-.02,.61-.02,.92-.02,.02,0,.03,0,.05,0,.26,0,.5,0,.75,.03,.05,0,.11,0,.17,.01,.26,0,.51,.03,.76,.06,.29,.02,.58,.06,.87,.1,.29,.04,.58,.09,.87,.14,.3,.06,.58,.12,.87,.18,.25,.06,.5,.12,.75,.19,.16,.04,.3,.07,.45,.13,.18,.05,.36,.1,.54,.16,.33,.11,.66,.22,.98,.34,.03,0,.06,.02,.1,.03,.13,.05,.27,.1,.4,.14,.27,.1,.53,.21,.78,.32,.16,.06,.32,.13,.47,.2,.02,.01,.06,.03,.08,.04,.27,.11,.54,.24,.8,.37,.35,.16,.68,.34,1.02,.52,.27,.14,.54,.29,.8,.45,.23,.13,.45,.26,.67,.4,.26,.16,.53,.32,.79,.5,.32,.21,.64,.44,.95,.67,.04,.02,.07,.04,.11,.07,.32,.23,.63,.48,.94,.73,.32,.25,.64,.52,.96,.79,0,0,0,.02,.02,.02,.31,.26,.61,.54,.9,.82,.91,.84,1.77,1.74,2.58,2.7,.02,.02,.03,.03,.04,.04,.25,.3,.49,.59,.74,.9,.05,.05,.08,.09,.13,.15,.51,.63,.99,1.29,1.47,1.96,.11,.16,.23,.33,.33,.5,.02,.03,.03,.05,.05,.08,.16,.22,.3,.44,.44,.67,.15,.23,.29,.46,.44,.7,.21,.33,.42,.66,.61,1,1,1.68,1.95,3.42,2.99,5.16,.64-.13,1.38-.28,2.1-.44-.11-.97-.24-1.92-.36-2.86-.07-.54-.14-1.08-.2-1.62-.05-.44-.1-.88-.13-1.32-.03-.27-.05-.53-.06-.8-.02-.31-.03-.63-.04-.93h0c-.01-.75-.02-1.49-.02-2.23,0-.74,.02-1.49,.05-2.23,.02-.37,.04-.75,.07-1.12,.05-.74,.12-1.48,.22-2.2,.05-.37,.11-.73,.18-1.1,.15-.78,.31-1.54,.51-2.3,.1-.38,.19-.76,.3-1.12,.1-.35,.2-.69,.32-1.03,0-.05,.03-.09,.04-.13,.11-.34,.23-.67,.36-1h0c.13-.34,.26-.66,.39-.98,.01-.03,.04-.08,.05-.11,.1-.23,.2-.46,.32-.68,.01-.03,.04-.07,.05-.1,.04-.1,.09-.19,.14-.28,.04-.09,.09-.18,.14-.27,.02-.03,.03-.05,.04-.08,.08-.14,.15-.29,.24-.43,.08-.15,.15-.29,.24-.43,.13-.23,.27-.45,.41-.68,.05-.07,.1-.15,.15-.23,.14-.21,.29-.42,.44-.62,.03-.04,.04-.07,.07-.1,.08-.12,.18-.23,.27-.35,.14-.18,.29-.36,.44-.54,.2-.23,.39-.46,.61-.69h0c.22-.24,.44-.48,.68-.71,.02-.02,.04-.04,.07-.07,.14-.14,.29-.28,.46-.42,.2-.19,.41-.37,.63-.54,.17-.15,.36-.29,.54-.43,.09-.07,.19-.14,.28-.21,.17-.13,.35-.26,.54-.38,.18-.13,.37-.25,.57-.37,.73-.39,1.46-.78,2.24-1.07,.02,.02,.03,.03,.05,.05,5.41-1.68,10.4-.48,15.02,2.48,1.97,1.26,3.87,2.72,5.45,4.42,9.34,10.08,13.45,22.06,12.59,35.72Z"/><path class="cls-2" d="M90.07,89.66l20.82-31.01c-1.01-.39-2.05-.69-3.08-.92-6.12-1.3-11.08,.79-14.8,5.78-2.45,3.29-3.65,7.08-4.13,11.1-.64,5.2-.16,10.21,1.2,15.05Z"/><path class="cls-2" d="M108.74,114.23c6.32,.25,11.44-2.16,15.25-7.21,3.1-4.13,4.46-8.91,5.04-13.98,1.51-13.16-2.18-17.62-3.05-18.64,0,0-13.52,24.94-19.55,35.84-1.34,2.44-.53,3.87,2.31,3.98Z"/><path class="cls-2" d="M137.31,67.24l15.15-22.57c-4.74-.92-9.15,.94-12.09,5.25-1.8,2.65-2.74,5.61-3.16,8.75-.38,2.9-.33,5.74,.1,8.57Z"/><path class="cls-2" d="M152.44,93.5c2.69,2.71,5.8,4.28,9.74,3.19,2.19-.6,3.87-1.99,5.26-3.74,1.69-2.12,2.78-4.55,3.5-7.14,2.02-7.19,1.87-14.4-.27-21.55-.28-.92-.86-1.75-1.6-3.18-.84,1.14-1.34,1.71-1.75,2.34-5.2,8.13-10.36,16.25-15.53,24.4-1.72,2.7-1.65,3.38,.66,5.69Z"/></g><path class="cls-2" d="M132.52,114.19c6.18-.07,12.34-.82,18.36-2.21,.42-.1,.91-.19,1.25,.08,.29,.22,.34,.62,.42,.98,1.64,7.75-9.99,22.96-20.18,.99"/><path class="cls-1" d="M0,82.23c.53-.26,1.08-.5,1.63-.71-.55,.23-1.09,.46-1.63,.71Z"/></svg>