<?xml version="1.0" encoding="UTF-8" standalone="no"?>
<svg
   id="depth_site_dark"
   viewBox="0 0 229.38845 346.31237"
   version="1.1"
   sodipodi:docname="faq2.svg"
   inkscape:version="1.2.2 (732a01da63, 2022-12-09)"
   xmlns:inkscape="http://www.inkscape.org/namespaces/inkscape"
   xmlns:sodipodi="http://sodipodi.sourceforge.net/DTD/sodipodi-0.dtd"
   xmlns="http://www.w3.org/2000/svg"
   xmlns:svg="http://www.w3.org/2000/svg">
  <sodipodi:namedview
     id="namedview49"
     pagecolor="#ffffff"
     bordercolor="#000000"
     borderopacity="0.25"
     inkscape:showpageshadow="2"
     inkscape:pageopacity="0.0"
     inkscape:pagecheckerboard="0"
     inkscape:deskcolor="#d1d1d1"
     showgrid="false"
     inkscape:zoom="0.85448193"
     inkscape:cx="-71.388286"
     inkscape:cy="131.07357"
     inkscape:window-width="1536"
     inkscape:window-height="801"
     inkscape:window-x="-8"
     inkscape:window-y="-8"
     inkscape:window-maximized="1"
     inkscape:current-layer="depth_site_dark" />
  <defs
     id="defs10">
    <style
       id="style2">.cls-1{fill:#9b70c1;}.cls-2{fill:#fff;}.cls-3{fill:#2c2d2b;}.cls-4{clip-path:url(#clippath-1);}.cls-5{fill:#ea7572;}.cls-6{clip-path:url(#clippath);}.cls-7{fill:none;}</style>
    <clipPath
       id="clippath">
      <path
         class="cls-7"
         d="m 64.26,120.13 c -2.98,13.84 -1.65,26.97 2.85,35.96 3.03,6.09 7.53,10.28 13.11,11.48 5.58,1.2 11.4,-0.76 16.68,-5.06 7.8,-6.33 14.43,-17.75 17.41,-31.59 1.64,-7.62 1.98,-15.02 1.18,-21.64 -3.13,-13.7 -34.82,-22.07 -43.39,-9.36 -3.45,5.7 -6.2,12.58 -7.84,20.2 z"
         id="path4" />
    </clipPath>
    <clipPath
       id="clippath-1">
      <path
         class="cls-7"
         d="m 155.82,140.22 c -2.98,13.84 -9.61,25.26 -17.41,31.59 -5.27,4.3 -11.1,6.26 -16.68,5.06 -5.58,-1.2 -10.08,-5.39 -13.11,-11.48 -4.49,-8.98 -5.83,-22.12 -2.85,-35.96 1.64,-7.62 4.39,-14.5 7.84,-20.2 8.01,-11.71 40.21,-6.27 43.39,9.36 0.79,6.62 0.46,14.02 -1.18,21.64 z"
         id="path7" />
    </clipPath>
    <clipPath
       clipPathUnits="userSpaceOnUse"
       id="clipPath211">
      <rect
         style="fill:#92aa87"
         id="rect213"
         width="243.42235"
         height="381.51773"
         x="-14.043597"
         y="-5.8514986" />
    </clipPath>
  </defs>
  <g
     id="g32"
     transform="translate(0.00970083,-0.0072968)">
    <path
       class="cls-5"
       d="m 5.82,209.67 c 6.8,14.24 0.72,8.14 4.35,24.34 1.36,10.35 5.99,20.32 13.08,28.02 0.83,0.92 1.7,0.92 2.39,-0.12 8.47,-12.03 14.18,-26.43 26.03,-35.68 11.32,-4.42 6.82,12.44 0.73,15.58 -7.55,5.62 -16.85,9.64 -20.77,18.86 -9.61,20.55 15.68,35.56 25.18,51.2 2.52,3.29 4.57,6.98 4.31,11.36 -0.03,0.56 0.36,1.1 0.94,1.12 6.42,-6.99 13.35,-14.87 22.55,-19.14 4.06,-3.07 9.94,-1.84 13.48,-5.36 14.13,-18.46 -2.7,-39.23 -4.38,-58.73 3.95,-22.56 20.41,11.63 20.79,19.77 2.23,11.47 3.21,24.35 -1.37,35.28 -0.62,4.03 7.85,-1.14 9.93,-1.23 22.79,-8.33 29.56,-22.03 18.6,-44.28 -2.37,-7.63 -27.57,-40.77 -11.73,-42.66 16.13,10.19 21.14,35.36 22.92,53.29 1.46,14.1 22,-24.97 21.05,-9.75 1.99,22.89 73.26,78.19 77.63,94.36 0.41,0.12 0.82,0.24 1.22,0.36 2.33,0.72 4.08,-5.33 6.39,-4.54 -7.49,-25.46 -72.58,-75.93 -79.68,-103.26 7.03,-15.01 15.98,-30.53 17.98,-47.64 2.17,-19.6 1.67,-42.58 -13.87,-56.93 -8.12,-7.5 -18.29,-9.58 -28.99,-8.98 -1.93,-0.34 -1.02,-3.67 -1.37,-5.07 -0.14,-6.55 -2.49,-12.34 -6.34,-17.46 -9.15,-12.53 -27.25,-3.69 -33.47,7.31 -0.24,-0.14 -0.5,-0.29 -0.75,-0.45 -0.87,-25.15 -21.94,-35.17 -36.39,-11.68 -1.44,1.18 -3.52,-0.88 -5.14,-1.08 -4.88,-1.74 -9.77,-1.41 -14.7,-0.15 -19.36,5.59 -33.97,21.35 -44.31,37.98 -2.14,4.57 -9.93,14.79 -6.8,19.29 1.48,0.3 2.26,-0.77 3,-1.58 2.55,-2.74 5.47,-4.98 8.64,-6.92 7.69,-6.54 11.77,0.56 5.71,5.54 -9.96,5.2 -20.29,12.04 -21.76,24.14 -2.32,11.68 -0.03,24.15 4.91,34.9 z"
       id="path12"
       clip-path="url(#clipPath211)" />
    <path
       class="cls-1"
       d="m 16.29,215.53 c -0.27,0.36 -0.53,0.72 -0.79,1.08 0.15,-0.23 0.31,-0.45 0.48,-0.69 0.1,-0.13 0.2,-0.26 0.3,-0.39 z"
       id="path14" />
    <g
       id="g30">
      <g
         id="g24">
        <path
           class="cls-2"
           d="m 64.25,120.14 c -2.98,13.84 -1.64,26.98 2.85,35.94 3.03,6.1 7.53,10.3 13.12,11.51 5.56,1.2 11.4,-0.77 16.67,-5.08 2.88,-2.32 5.6,-5.36 8.04,-8.94 0.72,4.44 1.99,8.45 3.68,11.83 3.03,6.1 7.52,10.26 13.11,11.47 5.59,1.2 11.39,-0.74 16.69,-5.04 7.8,-6.34 14.41,-17.77 17.39,-31.61 1.64,-7.6 1.97,-15 1.19,-21.63 -1.88,-8.94 -9.9,-18.8 -18.27,-20.6 -7.81,-1.68 -17.01,2.25 -23.75,9.66 -3.02,-9.73 -9.82,-17.26 -17.75,-18.97 -8.37,-1.8 -19.74,3.88 -25.14,11.28 -3.46,5.68 -6.2,12.57 -7.85,20.2 z"
           id="path16" />
        <g
           class="cls-6"
           clip-path="url(#clippath)"
           id="g20">
          <ellipse
             class="cls-3"
             cx="69.620003"
             cy="160.5"
             rx="45.25"
             ry="37.240002"
             transform="rotate(-77.83,69.626148,160.50518)"
             id="ellipse18" />
        </g>
        <path
           class="cls-5"
           d="m 72.1,99.94 c 7.49,-11.13 36.82,-5.13 42.68,7.42 0.07,0.12 0.13,0.28 0.19,0.48 0.1,-0.12 0.19,-0.21 0.28,-0.27 10.67,-8.77 39.52,-2.12 41.76,11 -1.57,-13.55 -7.85,-23.8 -17.15,-25.81 -8.63,-1.86 -17.81,3.82 -24.72,14.02 -2.03,-12.31 -8.07,-21.42 -16.79,-23.3 -9.3,-2 -19.25,4.74 -26.26,16.45 z"
           id="path22" />
      </g>
      <g
         class="cls-4"
         clip-path="url(#clippath-1)"
         id="g28">
        <ellipse
           class="cls-3"
           cx="114.69"
           cy="172.75"
           rx="45.25"
           ry="37.240002"
           transform="rotate(-77.83,114.69128,172.7553)"
           id="ellipse26" />
      </g>
    </g>
  </g>
  <path
     class="cls-3"
     d="m 98.919701,192.6027 c -9.14,3.7 -13.14,-16.35 -3.38,-15.71 6.029999,1.66 9.969999,12.59 3.38,15.71 z"
     id="path34" />
  <g
     id="g40"
     transform="translate(0.00970083,-0.0072968)">
    <path
       class="cls-5"
       d="m 83.1,25.65 c 5.97,-6.19 17.52,-9.44 22.9,-0.55 6.2,10.24 -10.13,13.75 -15.58,18.87 -1.5,1.41 -1.4,3.77 -0.51,5.43 l 5.96,11.04 c 2.75,5.1 10.38,0.32 7.64,-4.76 l -5.96,-11.04 -0.51,5.43 c 5.84,-5.5 14.5,-5.89 18.01,-14.03 2.58,-5.98 1.07,-12.89 -2.97,-17.82 C 102.49,6.53 86,9.69 76.48,19.57 c -4.02,4.17 2.6,10.27 6.62,6.1 v 0 z"
       id="path36" />
    <path
       class="cls-5"
       d="m 107.99,79.02 c 5.79,0 5.8,-9 0,-9 -5.8,0 -5.8,9 0,9 z"
       id="path38" />
  </g>
  <g
     id="g46"
     transform="translate(0.00970083,-0.0072968)">
    <path
       class="cls-5"
       d="m 156.66,8.95 c 8.4,1.87 17.18,10.04 12.4,19.26 -5.51,10.63 -17.01,-1.49 -24.22,-3.47 -1.98,-0.54 -3.95,0.77 -4.9,2.4 l -6.32,10.84 c -2.92,5.01 5.14,9.02 8.04,4.04 l 6.32,-10.84 -4.9,2.4 c 7.74,2.12 12.58,9.31 21.36,8.06 6.45,-0.92 11.56,-5.8 13.66,-11.82 4.99,-14.27 -6.3,-26.7 -19.69,-29.69 -5.65,-1.26 -7.42,7.57 -1.75,8.83 v 0 z"
       id="path42" />
    <path
       class="cls-5"
       d="m 127.9,60.16 c 5.79,0 5.8,-9 0,-9 -5.8,0 -5.8,9 0,9 z"
       id="path44" />
  </g>
</svg>
