<?xml version="1.0" encoding="UTF-8"?><svg id="Menu" xmlns="http://www.w3.org/2000/svg" viewBox="0 0 231.65 264.03"><defs><style>.cls-1{fill:#5f7857;}.cls-2{fill:#cb811f;}</style></defs><path class="cls-2" d="M229.51,150.1c-20.7,22.66-40.15,44.86-54.51,71.49-.49,.91-1.82,.85-2.2-.1-2.07-5.13-7.33-9.48-2.18-15.97,16.29-20.56,27.47-43.96,36.87-68.23,3.16-8.14,6.89-19.33,8.36-24.86,1.48-5.53,2.52-13.61-4.29-2.26-6.81,11.35-35.99,56.99-44.79,92.5-.27,1.1-1.78,1.25-2.27,.22-3.09-6.38-7.42-10.54-3.18-17.59,12.43-20.69,21.35-42.93,25.06-66.83,1.64-10.62,2.5-25.22,2.59-32.22,.09-6.99-3.29-8.16-5.45-1.28-2.17,6.88-21.4,64.01-25.93,99-.14,1.11-1.56,1.46-2.21,.55-7.29-10.33-6.92-11.12-2.86-22.5,8.17-22.93,14-46.39,15.26-70.78,.85-16.45,.22-32.77-5.22-48.58-.39-1.13-2.03-1.08-2.34,.09-10.53,40.36-12.96,81.64-13.26,124.61,0,1.16-1.48,1.66-2.19,.75-6.02-7.66-9.54-14.25-7.07-24.19,8.25-33.21,8.22-66.99,3.87-100.8-.73-5.66-1.83-11.28-2.9-16.9-.26-1.3-2.12-1.32-2.4-.03-8.59,39.55-6.83,79.12-3.92,119.09,.1,1.28-1.58,1.82-2.25,.73-3.62-5.8-7.02-11.81-7.15-17.89-.38-18.55,2.83-37.19,2.22-55.72-.66-20.55-5.16-40.63-13.1-59.79-.49-1.18-2.23-.92-2.35,.35-3.43,35.44-.73,70.49,5.97,105.43,.25,1.26-1.36,2-2.15,1-5.08-6.36-8.94-12.82-9.22-22.43-.65-22.3-3.54-44.63-7.12-66.69-1.4-8.64-5.61-17.56-8.44-25.23-2.84-7.68-5.14-5.89-4.71,.95,.43,6.83,5.38,54.63,11.59,81.59,.33,1.42-1.65,2.12-2.29,.81-1.54-3.17-2.88-6.39-4.25-9.59-7.93-18.44-15.35-37.12-24.14-55.14-2.9-5.93-8.21-10.67-12.88-15.73-1.21-1.31-3.18-1.56-4.67-.6-.06,.03-.1,.07-.16,.1-.53,.34-.7,1.04-.41,1.59,9.18,17.44,18.37,34.87,27.32,51.88,.63,1.2-.86,2.38-1.88,1.49-12.83-11.22-33.32-29.75-38.77-33.91-5.45-4.15-10.49-1.43-4.45,4.23,6.04,5.65,27.42,28.3,42.26,41.39,1.16,1.03-.27,2.81-1.53,1.9-16.4-11.92-33.57-22.54-52.5-30.46-1.11-.46-2.17,.77-1.52,1.79,1.23,1.9,2.62,3.63,4.11,5.26,18.37,19.87,40.32,34.79,65.85,43.31,10.54,3.52,15.23,10.64,20.55,20.15,.6,1.07-.57,2.26-1.65,1.67C71.78,99.92,39.89,84.85,4.48,75.61c-1.21-.32-2.08,1.22-1.16,2.07,.07,.07,.15,.13,.22,.18,30.02,20.3,62.31,35.78,97.89,43.11,9.43,1.95,13.84,6.86,17.66,14.7,.49,1-.5,2.09-1.55,1.67C79.23,122.03,41.49,109.1,1.35,105.22c-1.26-.12-1.86,1.48-.83,2.22,2.05,1.46,4.16,2.7,6.33,3.85,34.54,18.4,71.48,28.21,110.44,30.78,2.72,.18,6.48,.56,7.83,2.32,4,5.2,7.39,10.88,10.89,16.47,.61,.96-.33,2.15-1.42,1.79-41.92-13.69-84.49-19.21-127.79-20.77-1.28-.05-1.75,1.68-.62,2.3,9.17,4.98,18.47,9.45,28.17,12.64,31.97,10.49,64.93,13.58,98.45,11.69,3.13-.18,7.86,.17,9.26,2.13,2.8,3.92,5.07,8.19,7.3,12.52,.93,1.83-.69,3.87-2.7,3.44-.02,0-.04,0-.06,0-23.37-4.87-46.74-9.68-70.2-14.04-15.57-2.9-31.24-5.26-46.88-7.77-1.09-.18-2.15,.42-2.59,1.42-.16,.37-.28,.65-.43,1-.45,1.01-.14,2.2,.75,2.87,2.22,1.71,4.48,3.36,6.9,4.73,20.2,11.52,42.43,16.07,65.29,16.83,17.59,.59,35.22-.24,52.86-.63,.81-.02,1.58,.37,2.03,1.04,2.15,3.12,4.4,6.37,7.22,10.45,.59,.86-.1,2.02-1.15,1.91-44.85-5.06-86.65-.06-127.47,12.96-1.24,.4-1.08,2.22,.22,2.38,43.65,5.67,86.86,5.66,129.39-12.85,.69-.3,1.49,.09,1.68,.81,1.04,3.95,2.04,7.7,3.01,11.33,.47,1.79,.94,3.55,1.41,5.3,.36,1.37-.65,2.69-2.07,2.74-.64,.02-1.28,.07-1.91,.17-37.81,5.55-72.76,19.98-108.61,34.34-1,.4-1.03,1.81-.05,2.25,.29,.13,.53,.2,.77,.18,31.8-2.03,63.29-6.05,92.48-19.7,6.73-3.14,12.7-7.89,18.75-12.49,1.15-.87,2.83-.42,3.35,.93,3.03,7.84,3.79,15.95,3.9,24.15,.02,1.57,2.37,1.63,2.43,.06,.08-1.84,.09-3.68,.02-5.52-.29-7.24-1.75-14.43-2.74-21.6-.06-.46,.15-.93,.55-1.18,30.27-19.65,52.33-56.55,56.11-77.54,.22-1.2-1.28-1.95-2.11-1.04Zm-71.93,40.81h.19s.03,.08,.04,.1c-.08-.03-.15-.06-.23-.1Z"/><path class="cls-1" d="M157.81,191.01c-.08-.03-.15-.06-.23-.1h.19s.03,.08,.04,.1Z"/><path class="cls-1" d="M157.81,191.01c-.08-.03-.15-.06-.23-.1h.19s.03,.08,.04,.1Z"/></svg>