<?xml version="1.0" encoding="UTF-8"?><svg id="Menu" xmlns="http://www.w3.org/2000/svg" viewBox="0 0 200.79 247.74"><defs><style>.cls-1{fill:#ef98f9;}</style></defs><path class="cls-1" d="M50.54,198.84c3.54-5.17,7.43-9.65,8.47-15.46,.65-3.63,.9-7.55,.28-11.16-1.34-7.81-3.31-15.52-5.13-23.25-2.2-9.32-4.6-18.59-6.74-27.92-1.7-7.42-2.5-14.98-2.21-22.6,.05-1.25,.71-2.64,1.5-3.65,1.62-2.05,4.4-1.8,6.45,.92,1.9,2.52,3.77,5.29,4.73,8.25,1.98,6.13,3.72,12.38,4.87,18.71,1.64,9.02,2.8,18.13,3.9,27.24,.67,5.57,.84,11.2,1.24,16.81,.04,.49,.1,1,.28,1.45,.11,.27,.46,.59,.71,.6,.24,0,.55-.33,.71-.59,4.17-6.85,8.16-13.85,9.91-21.73,.7-3.12,.22-6.6-.23-9.85-1.05-7.66-4.19-14.72-6.86-21.91-2.37-6.37-4.72-12.77-6.66-19.28-3.31-11.11-4.65-22.52-3.83-34.1,.15-2.13,1-4.3,1.95-6.25,1.17-2.39,4.49-2.36,5.62,.08,1.76,3.79,3.65,7.62,4.67,11.63,2.9,11.45,5.63,22.96,7.93,34.55,1.6,8.08,2.41,16.32,3.52,24.49,.31,2.25,.4,4.53,.67,6.78,.08,.65,.44,1.26,.67,1.9,.58-.34,1.39-.53,1.72-1.03,2.57-3.91,4.95-7.94,7.57-11.81,4.68-6.89,2-13.8,.21-20.7-2.19-8.47-4.36-16.95-4.75-25.73-.37-8.29-.99-16.6-.61-24.87,.42-9.04,2.42-17.9,6.62-26.08,.29-.57,.62-1.12,.99-1.63,.85-1.16,1.88-1.94,3.45-1.57,1.62,.38,2.56,1.4,2.97,2.99,2.34,9.23,3.42,18.6,2.89,28.12-.8,14.31-1.7,28.62-2.46,42.94-.19,3.55-.05,7.12,.09,10.67,.04,.88,.7,1.73,1.07,2.59,.77-.55,1.86-.93,2.26-1.68,2.03-3.81,4.43-7.55,5.67-11.63,2.37-7.82,4.47-15.77,5.92-23.8,3.06-16.92,8.52-33,16.17-48.31,3.2-6.4,7.44-12.28,11.32-18.32,.82-1.28,2.04-2.39,3.27-3.32,3.01-2.29,5.37-1.73,6.73,2.42,.82,2.49,.63,5.51,.19,8.18-1.24,7.58-3.32,14.97-6.62,21.95-3.91,8.26-7.54,16.67-11.85,24.73-6.4,11.96-13.27,23.68-19.97,35.48-1.65,2.91-3.43,5.75-5.12,8.64-.31,.52-.49,1.12-.36,2.07,1.09-.67,2.22-1.29,3.26-2.03,7.1-5.07,13.95-10.53,21.32-15.17,12.81-8.05,25.83-15.77,40.08-21.16,5.9-2.24,11.82-4.11,18.16-4.24,1.1-.02,2.78,.5,3.19,1.29,.54,1.05,.59,2.89,0,3.9-3.02,5.16-7.77,8.48-13.13,10.78-9.73,4.16-19.58,8.06-29.39,12.06-11.83,4.82-23.94,9.04-34.93,15.73-4.97,3.02-10.29,5.59-14.04,10.26-1.46,1.81-2.83,3.7-4.24,5.55l.34,.72c1.29-.26,2.64-.33,3.85-.81,11.66-4.61,23.18-9.59,34.97-13.83,6.24-2.24,12.89-3.39,19.43-4.7,3.74-.75,7.61-.84,11.42-1.22,.42-.04,.92-.15,1.27,.01,1.16,.53,2.64,.93,3.26,1.86,.35,.53-.47,2.34-1.24,3.01-1.82,1.56-3.9,2.83-5.92,4.14-7.36,4.76-15.81,6.66-24.12,8.78-10.25,2.63-20.61,4.83-30.92,7.22-4.01,.93-8.05,1.79-12.04,2.79-4.12,1.04-7.05,3.6-9.19,7.25-1.79,3.06-3.81,5.99-5.7,8.99-.39,.62-.64,1.34-.96,2.01l.41,.55c.86-.3,1.76-.51,2.57-.9,7.66-3.72,15.11-7.94,22.99-11.1,8.43-3.37,17.24-5.82,26.42-6.35,1.2-.07,2.41,.03,3.61,.12,2.56,.2,4.02,2.16,2.88,4.42-.96,1.89-2.44,3.66-4.05,5.06-4.24,3.68-9.66,5.03-14.8,6.84-13.21,4.67-27.09,6.4-40.72,9.27-.55,.12-1.13,.2-1.7,.18-1.97-.09-3.34,.73-4.38,2.43-3.63,5.92-7.35,11.79-11.02,17.68-.21,.34-.26,.79-.56,1.76,1.15-.24,2.04-.24,2.73-.61,3.82-2.03,7.56-4.23,11.39-6.24,5.98-3.13,11.97-6.25,18.05-9.19,4.47-2.17,8.97-4.36,13.66-5.96,4.81-1.64,9.84-2.64,14.81-3.74,.81-.18,2.33,.32,2.62,.93,.36,.76,.09,2.2-.46,2.93-2.69,3.6-6.43,5.97-10.29,8.12-6.14,3.43-12.1,7.25-18.48,10.14-5.97,2.7-12.45,4.22-18.6,6.57-6.48,2.47-12.88,5.19-19.2,8.07-1.58,.72-2.7,2.44-4.03,3.71l.26,.7c.92-.2,1.88-.3,2.76-.61,5.81-2.08,11.54-4.43,17.43-6.24,6.52-2,13.2-3.48,20.09-3.41,.98,.01,2.74,.64,2.76,1.06,.07,1.12-.28,2.65-1.06,3.37-4.19,3.92-8.94,7.18-14.43,8.84-7.26,2.19-14.67,3.92-22.04,5.72-2.26,.55-4.62,.86-6.95,.99-4.35,.23-6.45,3.49-8.9,6.3-.4,.46-.67,1.03-1.26,1.95,3.55-.84,6.74-1.47,9.84-2.37,4.44-1.3,8.92-.92,13.27-.08,4.01,.78,5.67,4.35,2.26,7.94-3.19,3.35-7.29,4.67-11.6,5.31-3.5,.52-7.07,.68-10.61,.7-3.46,.02-6.93-.33-10.87-.54-.97,1.87-2.3,4.03-3.25,6.36-2.18,5.38-4.11,10.87-6.3,16.25-.46,1.12-1.64,2.83-2.4,2.78-2.03-.13-4.03-.99-5.95-1.79-.26-.11-.17-1.62,.11-2.35,1.95-5.2,3.88-10.41,6.07-15.5,.93-2.15,.71-3.31-1.24-4.76-8.06-6-14.57-13.31-19.65-22.11-3.94-6.81-7.38-13.72-9.47-21.29-1.56-5.61-2.18-11.32-1.63-17.14,.29-3.05,1.79-4.07,4.6-2.93,.95,.39,2.01,.98,2.58,1.78,4.54,6.34,9.5,12.46,13.32,19.22,5.47,9.69,10.08,19.87,15.06,29.84,.8,1.59,1.62,3.17,2.5,4.72,.72,1.28,1.75,1.3,2.45,.09,1.27-2.22,2.44-4.5,3.42-6.86,.25-.61-.2-1.67-.59-2.37-4.38-7.76-7.91-15.88-11.07-24.2-2.82-7.42-6.18-14.64-9.08-22.04-3.88-9.91-6.06-20.14-5.02-30.87,.05-.49,.15-.98,.26-1.47,.69-2.9,2.83-3.77,5.17-1.85,1.4,1.14,2.63,2.61,3.57,4.16,5.54,9.18,9.13,19.18,12.73,29.24,3.71,10.38,6.02,21.02,8.13,31.76,.38,1.94,.65,3.91,1.09,5.84,.14,.61,.67,1.12,1.21,1.99Z"/></svg>