<?xml version="1.0" encoding="UTF-8" standalone="no"?>
<svg
   id="Tickets_background"
   viewBox="0 0 360.50742 497.95999"
   version="1.1"
   sodipodi:docname="grass3Deco1.svg"
   inkscape:version="1.2.2 (732a01da63, 2022-12-09)"
   xmlns:inkscape="http://www.inkscape.org/namespaces/inkscape"
   xmlns:sodipodi="http://sodipodi.sourceforge.net/DTD/sodipodi-0.dtd"
   xmlns="http://www.w3.org/2000/svg"
   xmlns:svg="http://www.w3.org/2000/svg">
  <sodipodi:namedview
     id="namedview9"
     pagecolor="#ffffff"
     bordercolor="#000000"
     borderopacity="0.25"
     inkscape:showpageshadow="2"
     inkscape:pageopacity="0.0"
     inkscape:pagecheckerboard="0"
     inkscape:deskcolor="#d1d1d1"
     showgrid="false"
     inkscape:zoom="0.84041207"
     inkscape:cx="8.3292473"
     inkscape:cy="171.34452"
     inkscape:window-width="1536"
     inkscape:window-height="801"
     inkscape:window-x="-8"
     inkscape:window-y="-8"
     inkscape:window-maximized="1"
     inkscape:current-layer="Tickets_background" />
  <defs
     id="defs4">
    <style
       id="style2">.cls-1{fill:#53684b;}</style>
    <clipPath
       clipPathUnits="userSpaceOnUse"
       id="clipPath169">
      <rect
         style="fill:#92aa87"
         id="rect171"
         width="447.39957"
         height="592.56647"
         x="-86.862152"
         y="-84.482368" />
    </clipPath>
  </defs>
  <path
     class="cls-1"
     d="m 240.18,51.58 c 4.21,20.36 2.85,39.8 -5.37,58.68 -6.89,15.84 -12.47,32.46 -21.16,47.24 -8.31,14.14 -1.07,21.16 8.82,30.39 4.56,-57.86 46.21,-95.94 69.37,-143.25 -4.4,42.26 -26.57,76.7 -48.03,111.47 -4.76,7.71 -8.85,15.84 -13.64,23.54 -6.17,9.91 -4.69,17.76 6.91,24.92 11.65,-50.3 43.95,-88.83 71.78,-129.92 -12.13,45.22 -22.58,91.23 -59.68,124.84 -11.83,10.72 -11.55,12.08 5.9,30 21.08,-44.39 60.83,-72.6 93,-111.37 -10.63,56.43 -54.24,82.72 -92.26,114.75 4.89,7.38 9.5,14.34 16.71,25.23 12.8,-55.95 63.69,-75.29 94,-114.89 -2.03,26.52 -56.69,94.16 -92.45,115.57 1.74,3.39 3.38,6.94 5.33,10.32 1.8,3.11 3.92,6.04 7.43,11.35 21.67,-39.91 57.03,-63.72 91.84,-88.28 -20.19,39.29 -51.13,68.73 -87.92,95.24 4.27,7.83 9.14,16.75 14.14,25.92 46.13,-41.21 56.67,-47.7 100.36,-61.77 -25.68,32.82 -64.16,45.85 -97.77,66.73 3.57,7.19 6.98,14.06 10.91,21.97 35.55,-21.31 71.44,-40.12 117.45,-17.68 -39.37,8.12 -75.82,15.64 -114.03,23.52 20.26,48.62 40.78,98.12 47.14,151.86 -14.09,-44.06 -28.18,-88.13 -43.14,-134.92 -3.11,20.99 -4.32,38.37 -8.52,54.99 -4.26,16.86 -11.14,33.24 -30.86,38.83 12.04,-14.98 14.44,-32.5 16.96,-50.68 2.08,-15 9.29,-29.23 12.84,-44.13 1.48,-6.21 -0.65,-13.28 -3.91,-20.94 -17.89,44.12 -53.36,66.31 -93.97,82.74 32.85,-26.45 46.97,-72.18 92.59,-86.44 -4.34,-8.45 -7.94,-15.46 -12.65,-24.62 -28.34,44.66 -69.89,71.47 -109.84,100.12 31.78,-38.23 58.9,-81.36 108.34,-102.86 -3.26,-5.69 -6.45,-11.26 -10.72,-18.71 -9.24,7.4 -17.15,13.99 -25.32,20.23 -24.21,18.5 -48.05,37.55 -73.01,54.99 -12.89,9 -27.75,15.39 -44.93,12.36 24.47,-8.1 39.93,-27.2 56.82,-44.67 23.04,-23.82 50.76,-39.47 84.91,-45.38 -5.37,-7.68 -9.92,-14.19 -14.61,-20.89 -55.49,26.37 -115.11,47.55 -165.41,86.42 41.21,-53.25 91.54,-90.73 163.13,-91.1 -9.8,-21.48 -10.13,-21.97 -29.44,-14.81 -42.69,15.8 -85.14,32.26 -127.86,47.98 -10.01,3.68 -20.71,5.5 -31.32,7.26 50,-38.52 96.74,-55.48 174.1,-63.62 -5.64,-8.55 -10.65,-16.13 -14.27,-21.62 -69.08,12.5 -136.27,24.65 -203.46,36.81 -0.27,-1.11 -0.53,-2.21 -0.8,-3.32 61.51,-29.49 127.63,-39.27 195.8,-40.96 -9.91,-21.38 -12.09,-23.53 -32.13,-17.89 -56.32,15.84 -113.33,26.27 -172.03,25.86 -2.15,-0.01 -4.31,0.22 -6.69,-1.25 62.26,-17.69 125.35,-30.45 190.45,-33.14 -5.57,-13.83 -15.08,-17.71 -28.57,-13.83 -13.56,3.9 -27.32,7.09 -40.86,11.03 -28.79,8.38 -57.73,11.35 -87.67,6.54 -13.57,-2.18 -27.74,-0.68 -42.67,-3.65 11.26,-3.55 22.35,-9.39 33.81,-10.25 45.3,-3.4 90.71,-5.25 136.08,-7.62 4.48,-0.23 8.97,-0.07 14.23,-0.09 -5.4,-12.17 -12.8,-16.4 -25.93,-13.15 -52.43,12.99 -105.53,10.1 -158.63,5.1 -2.09,-0.2 -4.12,-0.91 -9.77,-2.22 60.34,-5.06 116.98,-9.81 173.54,-14.55 -2.27,-1.32 -6.15,-5.54 -9.86,-5.4 -15.83,0.61 -31.97,0.9 -47.35,4.27 -38.62,8.48 -75.87,-4.95 -113.95,-6.08 52.27,-9.48 104.99,-3.94 157.91,-4.39 -5.61,-9.99 -12.84,-13.18 -24.61,-10.96 -35.49,6.67 -71.22,10.85 -106.55,-1.47 -7.71,-2.69 -15.29,-5.77 -22.93,-8.67 l 0.21,-4.11 c 44.59,2.7 89.19,5.4 134.49,8.15 C 127.27,93.01 119.15,89.09 97.36,91.61 60.28,95.89 58.29,95.7 24.21,84.58 q 10.44,-9 85.56,-3.45 C 83.65,58.64 65.11,34.17 59.81,0 c 25.8,22.71 41.8,50.39 55.58,80.23 -7.8,-22.84 -16.54,-45.05 -9.56,-73.1 13.76,24.59 18.19,48.1 19.37,72.7 0.27,5.57 3.45,11.01 5.29,16.51 1.47,-0.43 2.94,-0.86 4.41,-1.29 -0.59,-25.05 -1.17,-50.1 -1.76,-75.14 l 1.97,-1.2 c 3.19,7.5 8.72,14.88 9.12,22.53 0.99,18.81 -0.64,37.75 -0.59,56.64 0.01,4.4 2.49,8.8 3.84,13.2 l 4.36,-0.81 c 1.02,-30.78 2.05,-61.55 2.99,-89.96 14.92,13.3 17.48,63.42 1.78,97.26 4.19,4.08 8.65,8.44 16.58,16.16 -10.36,-44.46 5.92,-82.41 10.34,-121.81 9.03,23.37 5.76,47.21 2.7,70.77 -1.81,13.93 -5.91,27.6 -9.41,41.27 -2.47,9.65 -0.39,16.84 10.1,21.78 1.94,-35.55 5.4,-70.15 31.76,-101.08 -0.46,35.12 -10.08,64.6 -22.67,93.07 -5.01,11.33 -5.56,19.46 8.08,26.83 0.02,-41.72 18.88,-76.75 36.11,-112.98 z"
     id="path6"
     clip-path="url(#clipPath169)"
     transform="translate(-0.03)" />
</svg>
