<?xml version="1.0" encoding="UTF-8" standalone="no"?>
<svg
   viewBox="0 0 387.03261 466.33"
   version="1.1"
   id="svg18"
   sodipodi:docname="grass3Deco2.svg"
   inkscape:version="1.2.2 (732a01da63, 2022-12-09)"
   xmlns:inkscape="http://www.inkscape.org/namespaces/inkscape"
   xmlns:sodipodi="http://sodipodi.sourceforge.net/DTD/sodipodi-0.dtd"
   xmlns="http://www.w3.org/2000/svg"
   xmlns:svg="http://www.w3.org/2000/svg">
  <sodipodi:namedview
     id="namedview20"
     pagecolor="#ffffff"
     bordercolor="#000000"
     borderopacity="0.25"
     inkscape:showpageshadow="2"
     inkscape:pageopacity="0.0"
     inkscape:pagecheckerboard="0"
     inkscape:deskcolor="#d1d1d1"
     showgrid="false"
     inkscape:zoom="0.89743317"
     inkscape:cx="18.942915"
     inkscape:cy="197.22917"
     inkscape:window-width="1536"
     inkscape:window-height="801"
     inkscape:window-x="-8"
     inkscape:window-y="-8"
     inkscape:window-maximized="1"
     inkscape:current-layer="svg18" />
  <defs
     id="defs4">
    <style
       id="style2">.cls-1{fill:#5f7857;}.cls-2{fill:#53684b;}</style>
    <clipPath
       clipPathUnits="userSpaceOnUse"
       id="clipPath180">
      <rect
         style="fill:#92aa87"
         id="rect182"
         width="441.25848"
         height="520.37299"
         x="74.657372"
         y="-35.657249" />
    </clipPath>
  </defs>
  <g
     id="Stars"
     transform="translate(-74.657372,0.01)">
    <g
       id="g12">
      <path
         class="cls-1"
         d="m 77.04,177.44 c 0.23,-3.28 0.36,-6.66 0.39,-10.13 -0.38,3.58 -0.5,6.95 -0.39,10.13 z m 0,0 c -0.05,0.93 -0.12,1.86 -0.21,2.78 0.12,-0.06 0.23,-0.12 0.35,-0.18 -0.07,-0.85 -0.11,-1.72 -0.14,-2.6 z"
         id="path6" />
      <path
         class="cls-1"
         d="m 77.43,167.31 c -0.03,3.47 -0.16,6.85 -0.39,10.13 -0.11,-3.18 0,-6.55 0.39,-10.13 z"
         id="path8" />
      <path
         class="cls-1"
         d="m 307.82,108.47 c -0.96,-3.21 -1.82,-6.6 -2.57,-10.16 1.22,3.28 2.07,6.69 2.57,10.16 z"
         id="path10" />
    </g>
  </g>
  <g
     id="Tickets_background"
     transform="translate(-74.657372,0.01)">
    <path
       class="cls-2"
       d="m 430.41,227.51 c -19.88,7.37 -39.7,8.97 -60,3.57 -17.03,-4.53 -34.64,-7.6 -50.88,-14.1 -15.53,-6.21 -21.5,2.17 -29.3,13.55 59.04,-4.27 103.82,31.9 155.08,48 -43.29,2.04 -81.41,-15.04 -119.76,-31.35 -8.51,-3.62 -17.33,-6.5 -25.82,-10.15 -10.94,-4.71 -18.63,-2.01 -24.07,10.78 52.51,4.05 96.3,30.71 142.01,52.48 -47.46,-5.3 -95.46,-8.79 -135.03,-41.05 -12.62,-10.29 -13.95,-9.79 -29.35,10.55 47.99,14.46 82.52,50.22 126.55,76.72 -58.53,-2.08 -91.72,-42.03 -129.84,-75.46 -6.7,6.06 -13.01,11.77 -22.89,20.71 58.38,4.34 85.68,52.69 130.25,77.18 -27.05,2.01 -103.63,-42.74 -130.7,-75.52 -3.15,2.27 -6.48,4.47 -9.59,6.96 -2.86,2.29 -5.48,4.88 -10.31,9.23 43.56,15.74 72.99,47.75 103.08,79.09 -42.71,-14.34 -77.14,-41.03 -109.51,-74.07 -7.24,5.5 -15.49,11.78 -23.97,18.23 48.63,40.2 56.78,49.84 77.67,91.74 -37.03,-20.87 -56.06,-57.67 -82.27,-88.37 -6.71,4.7 -13.11,9.19 -20.48,14.36 26.94,32.58 51.41,65.89 35.82,115.73 -14.22,-38.46 -27.39,-74.06 -41.19,-111.38 -45.93,27.87 -92.7,56.15 -145.91,70.8 42.27,-20.96 84.55,-41.92 129.44,-64.17 -21.64,0.08 -39.35,1.52 -56.76,-0.17 -17.65,-1.71 -35.23,-6.14 -43.89,-25.17 16.95,9.85 34.99,9.58 53.7,9.33 15.45,-0.2 30.9,4.89 46.46,6.19 6.49,0.54 13.3,-2.69 20.52,-7.15 -47.23,-11.28 -75.04,-43.65 -97.83,-82.08 31.7,29.08 79.98,36.31 101.35,80.13 7.85,-5.67 14.37,-10.37 22.89,-16.53 C 126.51,304.38 93.1,266.6 58.09,230.7 c 43.42,26.19 91.07,46.93 120.31,93.49 5.24,-4.16 10.36,-8.23 17.22,-13.67 -8.88,-8.18 -16.73,-15.15 -24.28,-22.43 -22.36,-21.58 -45.23,-42.7 -66.63,-65.2 -11.05,-11.61 -19.77,-25.62 -19.35,-43.42 11.91,23.43 33.55,36.1 53.74,50.45 27.55,19.58 47.58,45.14 58.77,78.67 6.92,-6.59 12.79,-12.17 18.83,-17.93 -35.09,-51.92 -65.58,-108.79 -112.48,-153.56 60.01,33.4 105.51,78.41 116.86,150.54 20.16,-13.17 20.6,-13.58 10.43,-31.96 -22.48,-40.63 -45.57,-80.91 -67.97,-121.59 -5.25,-9.53 -8.71,-20.04 -12.12,-30.47 46.5,44.52 70.76,89.06 90.82,165.81 7.76,-7 14.64,-13.21 19.61,-17.7 -23.18,-67.74 -45.73,-133.64 -68.28,-199.53 1.07,-0.44 2.15,-0.88 3.22,-1.31 39.16,57.51 59.15,122.69 71.3,191.16 20.04,-13.27 21.88,-15.79 13.12,-35.14 -24.6,-54.37 -43.85,-110.25 -52.43,-169.51 -0.31,-2.17 -0.88,-4.31 0.24,-6.94 27.37,60.07 49.91,121.73 62.6,186.97 13.09,-7.74 15.55,-17.92 9.57,-30.93 -6.01,-13.07 -11.33,-26.46 -17.38,-39.51 C 270.95,119.24 263.52,90.52 263.78,59.58 263.9,45.56 260.22,31.51 260.93,16 c 5.3,10.81 12.89,21.1 15.51,32.53 10.36,45.15 19.19,90.66 28.53,136.05 0.92,4.48 1.44,9.04 2.27,14.34 11.44,-7.31 14.58,-15.42 9.29,-28.16 C 295.4,119.88 290.17,65.89 287.09,11.58 c -0.12,-2.13 0.29,-4.3 0.74,-10.19 14.35,60.07 27.81,116.46 41.26,172.76 0.99,-2.49 4.65,-7.05 3.94,-10.77 -3.04,-15.87 -5.8,-32.1 -11.56,-47.09 -14.46,-37.64 -6.64,-77.27 -11.33,-115.83 17.56,51.25 20.06,105.27 28.62,158.56 9.21,-7.19 11.32,-14.97 7.29,-26.5 -12.16,-34.77 -21.86,-70.16 -14.84,-107.67 1.53,-8.19 3.48,-16.3 5.23,-24.45 l 4.17,-0.41 c 4.11,45.38 8.22,90.76 12.39,136.86 18.32,-16.87 21.02,-25.66 15.15,-47.25 -10,-36.73 -10.11,-38.78 -4.12,-74.84 q 10.67,9.14 16.59,85.75 c 18.66,-29.77 40.5,-52.22 74.14,-62.8 -18.95,29.49 -44.41,49.87 -72.39,68.34 21.83,-11.36 42.89,-23.58 72.24,-20.84 -22.69,17.64 -45.71,25.71 -70.34,30.67 -5.58,1.12 -10.57,5.17 -15.84,7.87 0.66,1.41 1.32,2.83 1.98,4.24 25.17,-4.43 50.34,-8.86 75.5,-13.29 l 1.51,1.8 c -7.07,4.37 -13.67,11.07 -21.32,12.65 -18.82,3.88 -38.17,5.14 -57.2,8.08 -4.44,0.68 -8.49,3.86 -12.72,5.89 l 1.48,4.27 c 31.19,-3.68 62.38,-7.37 91.17,-10.77 -11.12,17.09 -61.27,27.34 -97.8,16.7 -3.48,4.85 -7.18,10.02 -13.75,19.19 43.25,-17.25 84.01,-6.65 124.41,-8.24 -22.18,12.69 -46.72,13.04 -70.95,13.56 -14.33,0.31 -28.73,-1.73 -43.06,-3.17 -10.11,-1.02 -17.04,2.18 -20.42,13.52 36.15,-3.49 71.57,-5.3 106.79,16.54 -35.48,4.92 -66.68,-0.27 -97.32,-8.6 -12.19,-3.32 -20.48,-2.63 -25.82,12.26 42.07,-6.37 80.29,7.28 119.46,19.1 z"
       id="path15"
       clip-path="url(#clipPath180)" />
  </g>
</svg>
