<?xml version="1.0" encoding="UTF-8"?><svg id="Team" xmlns="http://www.w3.org/2000/svg" viewBox="0 0 311.13 259.77"><defs><style>.cls-1{fill:#92aa87;}</style></defs><path class="cls-1" d="M99.23,259.58c-23.59-3.67-21.42-35.04-41.62-47.87-6.36,21.16,34.49,54.14-12.6,27.58-3.55-1.4-1.4-5.81-1.11-9.09-.35-8.51-11.75-15.79-2.42-22.84,1.48-5.16-4.29-10.75,1.36-15.32,1.61-3.49-2.48-7.97,.26-10.92,4.63-2.35,8.08-5.53,4.65-10.26-5.05-5.27-1.03-12.57-10.03-14.99-4.88-4.96-.27-13.42-4-19.4-5.31-11.96-3.3-23.65,2.19-34.01-5.61-.14-4.37,10.54-10.7,8.9,3.31,1.84,3.83,5.79,3.05,9.06-2.06,9.8-4.29,18.97-4.7,28.47-1.55,6.12-9.1,4.81-8.86,11.73-10.45,.86-18.11-29.43-6.4-30.85-22.35-7.12,5.93-44.38,21.18-39.43,.86-11.59,15.59-8.57,19.44,2.04,.15-8.61,8.52-5.68,12.1-3.38,1.56-4.57,8.95-6.89,13.7-4.3,1.77-4.14,14.35-14.92,24.35-1.92,4.82,6.27-.87,7.5,2.2,2.84,7.8-11.84,23.71-3.18,27.97,6.95,1.58-5.75,12.15-7.75,16.51-3.12,2.51-4.66,9.68-7.12,15.36-5.26-1.91-3.81,3.68-8.45,8.19-6.8-2.32-3.11-2.6-9.48,3.2-9.29-5.41-5.81,1.41-14.77,9.98-13.06-12.34-.64-10.73-17.83,2.17-15.57-5-5.86,1.72-14.51,10.16-13-10.75-6.36,.27-20.67,11.62-15-.44-3.87,2.63-7.82,7.03-9.04,16.87-.03,4.26,5.74,20.8-2.41,8.75,1.26,7.38,6.79,16.27,3.1,0,5.94,6.28-3.08,9.26,3.17,.44-1.5,2.29-2.62,4.12-2.49,10.15,.99,16.15,6.99,4.24,16.85,11.32,1.23,14.84,20.44,21.05,25.91,22.7,19.99,31.38,25.24,8.48,36.62-9.84,4.9-11.8-4.82-22.51-5.24-2.3-1.37-4.73-5.66-1.91-5.77-10.57,2.67-2.43-8.49-10.75-3.1-2.31,.38-7.12-3.21-6.33-5.07,1.06,4.55-1.27,10.81-6.11,9.3,3.38,1.48,.73,4.46,.9,8.04,1.41,30.79,5.55,47.56-3.65,66.25-1.36,2.76,5.7,1.1,6.33,8.87,5.48-2.64,13.08,6.93,6.36,11.54,5.5,6.88-2.19,10.26,6.42,17.32-5.12,13.3-.92,59.04-32.71,39.9-2.7-5.83,2.29-19.41,10.76-16.87-3.58-1.52-4.4-5.55-3.83-8.88,3.03-8.74,1.25-26.03-10.88-24.04,2.98,9.88-2.58,19.51-8.19,29.56,2.61,2.75-.3,9.14-4.36,10.04,3.66,4.41,4.58,10.33,2.38,15.37,4.38,9.55,7.58,15.57,12.97,26.24-9.24,4.05-17.75,3.94-19.6-5.43-4.47-2.23-9.18-1.08-11.66-4.73-.3-4.65-.45-8.98-3.48-13.13-.6-5.64,4.42-9.89,1.84-16.14,.13-4.55-8.4-3.27-6.15-8.58,4.53-10.93,4.63-19.64,4.48-31.16-4.13-2.74-3.98-8.85,.27-11.45-25.34,3.58-50.37,8.21-74.53,5.08-4.6-5.52-17.47,1.84-17.1-7.36-5.94,.58-5.03,11.06-13.88,8.58-2.51,7.56-9.58,12.22-14.78,17.89,6.75,4.21,2.08,13.49,2.01,19.57,6.54,8.07,18.34,17.98,16.25,28.16,2.89,.74,4.89,3.39,4.45,5.9,3.19-1.2,7.05,.72,8.6,3.35,4.45,7.83-.53,12.63-10.31,12.61"/></svg>