<?xml version="1.0" encoding="UTF-8" standalone="no"?>
<svg
   id="depth_site_dark"
   viewBox="0 0 1357.818 360.79361"
   version="1.1"
   sodipodi:docname="horseHill.svg"
   inkscape:version="1.2.2 (732a01da63, 2022-12-09)"
   xmlns:inkscape="http://www.inkscape.org/namespaces/inkscape"
   xmlns:sodipodi="http://sodipodi.sourceforge.net/DTD/sodipodi-0.dtd"
   xmlns="http://www.w3.org/2000/svg"
   xmlns:svg="http://www.w3.org/2000/svg">
  <sodipodi:namedview
     id="namedview459"
     pagecolor="#ffffff"
     bordercolor="#000000"
     borderopacity="0.25"
     inkscape:showpageshadow="2"
     inkscape:pageopacity="0.0"
     inkscape:pagecheckerboard="0"
     inkscape:deskcolor="#d1d1d1"
     showgrid="false"
     inkscape:zoom="0.70710678"
     inkscape:cx="719.8347"
     inkscape:cy="278.60007"
     inkscape:window-width="1536"
     inkscape:window-height="801"
     inkscape:window-x="-8"
     inkscape:window-y="-8"
     inkscape:window-maximized="1"
     inkscape:current-layer="depth_site_dark" />
  <defs
     id="defs454">
    <linearGradient
       id="linearGradient1863"
       inkscape:swatch="solid">
      <stop
         style="stop-color:#690080;stop-opacity:1;"
         offset="0"
         id="stop1861" />
    </linearGradient>
    <style
       id="style452">.cls-1{fill:#92aa87;}</style>
    <clipPath
       clipPathUnits="userSpaceOnUse"
       id="clipPath1549">
      <rect
         style="fill:#ffffff;fill-opacity:0"
         id="rect1551"
         width="1558.4923"
         height="179.43832"
         x="88.711075"
         y="-82.662598" />
    </clipPath>
    <clipPath
       clipPathUnits="userSpaceOnUse"
       id="clipPath5786">
      <rect
         style="fill:#92aa87;stroke:#000080;stroke-width:1.18188"
         id="rect5788"
         width="1357.818"
         height="410.80081"
         x="99.162025"
         y="-50.252197" />
    </clipPath>
    <clipPath
       clipPathUnits="userSpaceOnUse"
       id="clipPath5790">
      <rect
         style="fill:#92aa87;stroke:#000080;stroke-width:1.18188"
         id="rect5792"
         width="1357.818"
         height="410.80081"
         x="99.162025"
         y="-50.252197" />
    </clipPath>
    <clipPath
       clipPathUnits="userSpaceOnUse"
       id="clipPath5794">
      <rect
         style="fill:#92aa87;stroke:#000080;stroke-width:1.18188"
         id="rect5796"
         width="1357.818"
         height="410.80081"
         x="99.162025"
         y="-50.252197" />
    </clipPath>
    <clipPath
       clipPathUnits="userSpaceOnUse"
       id="clipPath5798">
      <rect
         style="fill:#92aa87;stroke:#000080;stroke-width:1.18188"
         id="rect5800"
         width="1357.818"
         height="410.80081"
         x="99.162025"
         y="-50.252197" />
    </clipPath>
    <clipPath
       clipPathUnits="userSpaceOnUse"
       id="clipPath5802">
      <rect
         style="fill:#92aa87;stroke:#000080;stroke-width:1.18188"
         id="rect5804"
         width="1357.818"
         height="410.80081"
         x="99.162025"
         y="-50.252197" />
    </clipPath>
    <clipPath
       clipPathUnits="userSpaceOnUse"
       id="clipPath5806">
      <rect
         style="fill:#92aa87;stroke:#000080;stroke-width:1.18188"
         id="rect5808"
         width="1357.818"
         height="410.80081"
         x="99.162025"
         y="-50.252197" />
    </clipPath>
    <clipPath
       clipPathUnits="userSpaceOnUse"
       id="clipPath5810">
      <rect
         style="fill:#92aa87;stroke:#000080;stroke-width:1.10948"
         id="rect5812"
         width="1197.3909"
         height="410.51602"
         x="235.85823"
         y="-307.48053" />
    </clipPath>
  </defs>
  <path
     id="path456"
     clip-path="url(#clipPath5810)"
     class="cls-1"
     transform="matrix(1.1339806,0,0,1.0006937,-267.45866,257.68664)"
     d="m 834.00014,0 c -285.2772,0 -536.85093,38.606914 -687.22657,97.416016 -0.0493,0.153964 -0.27634,0.298098 -0.43164,0.449218 0.0531,5.858586 -0.29919,11.709086 -0.64453,17.554686 -0.36515,5.77698 -0.18408,2.96854 -0.54101,8.42774 -0.11418,1.74625 -1.87785,1.63103 -1.76367,-0.11524 0.35652,-5.45294 0.17638,-2.64757 0.54101,-8.41601 0.32908,-5.56849 0.66162,-11.14235 0.64258,-16.72266 -1.06701,0.350858 -2.13167,0.720663 -3.25,0.875 -1.35879,0.54439 -2.48973,1.13087 -3.77149,1.68945 -0.10241,3.60804 -0.24754,7.21532 -0.36914,10.82227 -0.23926,8.14924 -0.56099,16.2992 -0.52148,24.45312 0.008,1.7495 -1.75928,1.75759 -1.76758,0.008 -0.0388,-8.17664 0.28059,-16.34762 0.52149,-24.51953 0.11191,-3.31986 0.24464,-6.63996 0.3457,-9.96094 -3.06892,1.37628 -6.1964,2.74129 -9.21484,4.12695 0.43714,5.22626 0.6639,10.47373 0.94921,15.70703 0.17476,2.79241 0.31989,6.17341 0.72461,8.98828 0.13166,0.91571 0.36821,1.81222 0.55274,2.71875 0.34907,1.71484 -1.38832,2.06737 -1.73242,0.35157 -0.19311,-0.96291 -0.44071,-1.91848 -0.58008,-2.89063 -0.40751,-2.84251 -0.55384,-6.24736 -0.73047,-9.07031 -0.27314,-5.01002 -0.49191,-10.034 -0.89453,-15.03906 -3.44612,1.59467 -7.16268,3.14036 -10.58008,4.74023 0.63372,5.42979 1.3197,10.85592 2.13477,16.26172 0.20991,1.39222 0.45033,2.77817 0.67578,4.16797 0.28021,1.72742 -1.46408,2.01064 -1.74414,0.2832 -0.22723,-1.40154 -0.46998,-2.80112 -0.68164,-4.20508 -0.78949,-5.23669 -1.45874,-10.49054 -2.07618,-15.75 -3.20316,1.51112 -6.86184,2.93967 -9.97265,4.4668 0.18072,0.53174 0.35661,1.06506 0.53515,1.59766 1.18593,3.47499 2.4965,6.90675 3.87696,10.30859 0.54427,1.34123 1.35006,3.32548 1.99609,4.67383 0.25088,0.52362 0.53908,1.0287 0.80859,1.54297 0.81234,1.54998 -0.75705,2.3699 -1.5664,0.81836 -0.28556,-0.54744 -0.5889,-1.08564 -0.85547,-1.64258 -0.65321,-1.36468 -1.4736,-3.37624 -2.02539,-4.73633 -1.3928,-3.43307 -2.71356,-6.8955 -3.91016,-10.40234 -0.15033,-0.44865 -0.30284,-0.89581 -0.45508,-1.34375 C 36.868991,149.42544 1.375e-4,185.78054 1.375e-4,224.5 c 0,0.17 -2.3434e-4,0.33 0.00976563,0.5 H 1.375e-4 V 965 H 1668.0001 V 225 h -0.01 c 0.01,-0.17 0.01,-0.33 0.01,-0.5 C 1668.0001,100.51072 1294.6072,0 834.00014,0 Z" />
  <rect
     style="fill:#000000;fill-opacity:0"
     id="rect810"
     width="76.614113"
     height="342.74734"
     x="391.29834"
     y="485.33856"
     clip-path="url(#clipPath5806)"
     transform="translate(-99.162018,0.245)" />
  <rect
     style="fill:#000000;fill-opacity:0"
     id="rect812"
     width="82.662598"
     height="167.34135"
     x="389.28217"
     y="501.46783"
     clip-path="url(#clipPath5802)"
     transform="translate(-99.162018,0.245)" />
  <rect
     style="fill:#ffffff;fill-opacity:0"
     id="rect814"
     width="485.89478"
     height="459.68469"
     x="133.22974"
     y="565.98499"
     clip-path="url(#clipPath5798)"
     transform="translate(-99.162018,0.245)" />
  <rect
     style="fill:#ffffff;fill-opacity:0"
     id="rect1545"
     width="294.3595"
     height="219.76154"
     x="84.841881"
     y="386.54669"
     clip-path="url(#clipPath5794)"
     transform="translate(-99.162018,0.245)" />
  <rect
     style="fill:#ffffff;fill-opacity:0;stroke-width:1.0009"
     id="rect1553"
     width="563.51697"
     height="146.17166"
     x="57.623711"
     y="225.25381"
     clip-path="url(#clipPath5790)"
     transform="translate(-99.162018,0.245)" />
  <path
     class="cls-1"
     d="m 719.09649,259.49506 c -23.66553,-3.67254 -21.4886,-35.0643 -41.75323,-47.90321 -6.38037,21.17468 34.6004,54.17757 -12.64038,27.59913 -3.56135,-1.40095 -1.40447,-5.81402 -1.11354,-9.0963 -0.35111,-8.51589 -11.78763,-15.80094 -2.42773,-22.85583 1.48475,-5.1636 -4.30373,-10.75747 1.36433,-15.33062 1.61515,-3.49244 -2.48792,-7.97555 0.26084,-10.9276 4.64485,-2.35162 8.10586,-5.53383 4.66491,-10.2671 -5.0662,-5.27367 -1.03333,-12.57872 -10.06212,-15.00041 -4.89565,-4.96343 -0.27088,-13.42931 -4.01283,-19.41347 -5.32699,-11.96829 -3.31055,-23.6664 2.19704,-34.0336 -5.62795,-0.14007 -4.38398,10.54733 -10.73427,8.90621 3.32062,1.84126 3.84227,5.79401 3.05975,9.06626 -2.06658,9.80681 -4.30369,18.98318 -4.71502,28.48976 -1.55496,6.12423 -9.12915,4.81334 -8.88838,11.73814 -10.48345,0.8606 -18.16796,-29.45043 -6.42049,-30.87141 -22.42155,-7.12492 5.94901,-44.410786 21.24781,-39.457352 0.86276,-11.598041 15.63991,-8.575946 19.50224,2.041414 0.15047,-8.615972 8.54729,-5.683939 12.13872,-3.382343 1.565,-4.573171 8.97867,-6.894781 13.74389,-4.302985 1.77564,-4.142872 14.39592,-14.93035 24.42794,-1.921329 4.83543,6.274348 -0.87276,7.505201 2.20705,2.841968 7.82497,-11.848214 23.78591,-3.182206 28.05954,6.954823 1.58505,-5.753991 12.1889,-7.755378 16.56287,-3.122165 2.51803,-4.663233 9.71098,-7.124939 15.40916,-5.26365 -1.91612,-3.812644 3.69179,-8.45586 8.21621,-6.804717 -2.32743,-3.112156 -2.60832,-9.486577 3.21025,-9.296445 -5.42732,-5.81403 1.41453,-14.780246 10.01195,-13.069061 -12.3795,-0.64044 -10.76435,-17.84237 2.17696,-15.580802 -5.01601,-5.864064 1.72546,-14.520064 10.1925,-13.009017 -10.78441,-6.364413 0.2709,-20.6843393 11.65722,-15.010405 -0.4414,-3.8726855 2.63842,-7.8254257 7.05249,-9.0462721 16.92404,-0.030021 4.27366,5.743982 20.86659,-2.4116719 8.77804,1.2608741 7.40363,6.7947106 16.32209,3.1021507 0,5.9441205 6.30013,-3.08213686 9.28965,3.1721989 0.44142,-1.5010406 2.29734,-2.6218175 4.13316,-2.4917273 10.18254,0.9906867 16.20176,6.9948497 4.25361,16.8616907 11.35625,1.23085 14.88752,20.454179 21.11738,25.927973 22.77268,20.003867 31.48048,25.257509 8.50718,36.645404 -9.87152,4.903402 -11.83779,-4.823343 -22.58209,-5.243634 -2.30737,-1.370951 -4.74514,-5.663927 -1.9161,-5.774005 -10.60384,2.671856 -2.43776,-8.495889 -10.78443,-3.102149 -2.31741,0.380264 -7.14278,-3.212227 -6.35025,-5.073517 1.06339,4.553156 -1.27409,10.8175 -6.12958,9.30645 3.39083,1.481028 0.73234,4.463096 0.90287,8.04558 1.41452,30.811365 5.56777,47.592985 -3.66167,66.295955 -1.36434,2.76193 5.71827,1.10075 6.35028,8.87614 5.49752,-2.64182 13.12183,6.93482 6.38034,11.54803 5.51763,6.88477 -2.197,10.26712 6.44059,17.33201 -5.1364,13.30922 -0.92296,59.08096 -32.81474,39.92769 -2.70862,-5.83405 2.29733,-19.42348 10.79443,-16.88172 -3.59144,-1.52103 -4.41407,-5.55384 -3.84226,-8.88615 3.03973,-8.74608 1.254,-26.04806 -10.91482,-24.05667 2.98956,9.88684 -2.58827,19.52351 -8.21623,29.58048 2.61837,2.75193 -0.30096,9.14636 -4.37394,10.04697 3.67169,4.41307 4.59465,10.33719 2.38762,15.38067 4.39404,9.55663 7.60426,15.5808 13.0115,26.25821 -9.26956,4.0528 -17.8068,3.94273 -19.66274,-5.43378 -4.48428,-2.23155 -9.20939,-1.08074 -11.69733,-4.73327 -0.30094,-4.65323 -0.45144,-8.98624 -3.49114,-13.13911 -0.60189,-5.64391 4.43417,-9.89685 1.84588,-16.15122 0.13043,-4.55312 -8.42688,-3.27224 -6.16965,-8.58593 4.54447,-10.93757 4.64479,-19.65361 4.4943,-31.18163 -4.14317,-2.74188 -3.99271,-8.85614 0.27089,-11.45793 -25.42112,3.5825 -50.53127,8.2157 -74.7686,5.0835 -4.61473,-5.52381 -17.52594,1.84131 -17.15475,-7.36508 -5.95904,0.58042 -5.04611,11.06765 -13.92445,8.58594 -2.51801,7.56527 -9.61065,12.22848 -14.82732,17.90242 6.77165,4.2129 2.08667,13.49936 2.01646,19.58357 6.56092,8.0756 18.3987,17.99248 16.30203,28.17955 2.89924,0.74051 4.90565,3.39234 4.46422,5.90409 3.2002,-1.20085 7.07257,0.72049 8.62754,3.35232 4.46423,7.83544 -0.5317,12.63877 -10.343,12.61875"
     id="path3303"
     style="fill:#92aa87;stroke-width:1.00198"
     clip-path="url(#clipPath5786)"
     transform="translate(-99.162018,0.245)" />
</svg>
