<?xml version="1.0" encoding="UTF-8"?><svg id="depth_site_dark" xmlns="http://www.w3.org/2000/svg" xmlns:xlink="http://www.w3.org/1999/xlink" viewBox="0 0 166.44 319.89"><defs><style>.cls-1{fill:#fff;}.cls-2{clip-path:url(#clippath-1);}.cls-3{clip-path:url(#clippath);}.cls-4{fill:none;}.cls-5{fill:#5463aa;}.cls-6{fill:#1d1d1b;}</style><clipPath id="clippath"><path class="cls-4" d="M40.54,63.44c-1.2,9.31,.56,17.94,4.24,23.65,2.49,3.88,5.87,6.41,9.81,6.92,3.95,.51,7.86-1.09,11.25-4.21,5.01-4.6,8.88-12.5,10.08-21.81,.66-5.13,.42-10.04-.54-14.38-3.55-4.23-8.65-7.18-14.57-7.94-5.92-.76-11.6,.81-16.1,4-2.03,3.95-3.5,8.65-4.16,13.78Z"/></clipPath><clipPath id="clippath-1"><path class="cls-4" d="M64.95,66.58c-1.2,9.31,.56,17.94,4.24,23.65,2.49,3.88,5.87,6.41,9.81,6.92s7.86-1.09,11.25-4.21c5.01-4.6,8.88-12.5,10.08-21.81,.66-5.13,.42-10.04-.54-14.38-3.55-4.23-8.65-7.18-14.57-7.94-5.92-.76-11.6,.81-16.1,4-2.03,3.95-3.5,8.65-4.16,13.78Z"/></clipPath></defs><path class="cls-5" d="M0,99.52c.32,14.08,9.1,24.78,19.73,33.13,9.85,7.6,7.93,19.86,6.72,30.64-4.39,34.67-17.82,121.93-22.27,156.59,25-1,41-3,77-3,2.52-19.54,6.82-62.87,9.45-82.38,1.2-7.9,7.14-17.32,16-16.84,17.08-.25,34.25-8.76,42.8-23.85,6.91-9.64,9.07-21.99,10.54-33.81,2.06-15.83,4.06-31.62,5.94-47.44,3-12.16-7.33-23.87-18.79-23.42-10.58-.64-19.27,8.29-20.85,18.38-2.36,17.77-4.72,35.54-6.94,53.32-.59,4.59-2.92,7.83-6.71,10.16-3.64,1.87-13.7,.86-13.31-4.9,5.09-39.91,10.18-79.83,15.3-119.72,1.13-16.01,.35-24.47-9.47-35.41C87.61-8.53,51.87-.94,45.16,25c-4.95,23.18-6.5,47.04-9.99,70.49,.17,10.75-11.27,11.85-10.53,.69,1.75-13.37,3.48-26.71,5.14-40.09,1.59-11.49-14-17.01-20.93-8.59C2.94,54.13,2.39,90.7,0,99.52Zm30.75,52.83c.04,.14,.09,.28,.14,.42-.17,.85-.33,1.72-.51,2.57,.13-1,.26-1.99,.37-2.99Z"/><path class="cls-6" d="M59.1,106.21c2.46,2.37,5.72,2.01,8.67,1.17,2.59-.76,4.22-2.57,5.02-5.23,.2-.68-.24-1.4-.95-1.54h-.02c-.36-.08-.74,.02-1.02,.26-1.63,1.39-2.93,2.75-4.51,3.59-1.06,.56-2.69,.47-3.95,.17-2.07-.51-3.02-2.95-2.7-6.49,.06-.6-.35-1.15-.94-1.28-.18-.04-.35-.08-.53-.12-.62-.14-1.25,.23-1.44,.83-1.05,3.42-.07,6.32,2.37,8.63Z"/><g><path class="cls-5" d="M44.7,49.67c4.51-3.19,10.19-4.76,16.1-4,5.92,.76,11.01,3.71,14.57,7.94-1.94-8.89-6.94-15.35-13.51-16.2-6.57-.84-13.04,4.14-17.16,12.26Z"/><path class="cls-1" d="M40.54,63.44c-1.2,9.31,.56,17.94,4.24,23.65,2.49,3.88,5.87,6.41,9.81,6.92,3.95,.51,7.86-1.09,11.25-4.21,5.01-4.6,8.88-12.5,10.08-21.81,.66-5.13,.42-10.04-.54-14.38-3.55-4.23-8.65-7.18-14.57-7.94-5.92-.76-11.6,.81-16.1,4-2.03,3.95-3.5,8.65-4.16,13.78Z"/><g class="cls-3"><circle class="cls-6" cx="42.04" cy="57.41" r="22.87"/></g></g><g><path class="cls-5" d="M69.11,52.8c4.51-3.19,10.19-4.76,16.1-4,5.92,.76,11.01,3.71,14.57,7.94-1.94-8.89-6.94-15.35-13.51-16.2-6.57-.84-13.04,4.14-17.16,12.26Z"/><path class="cls-1" d="M64.95,66.58c-1.2,9.31,.56,17.94,4.24,23.65,2.49,3.88,5.87,6.41,9.81,6.92s7.86-1.09,11.25-4.21c5.01-4.6,8.88-12.5,10.08-21.81,.66-5.13,.42-10.04-.54-14.38-3.55-4.23-8.65-7.18-14.57-7.94-5.92-.76-11.6,.81-16.1,4-2.03,3.95-3.5,8.65-4.16,13.78Z"/><g class="cls-2"><circle class="cls-6" cx="66.79" cy="61.1" r="22.87"/></g></g></svg>