<?xml version="1.0" encoding="UTF-8"?><svg id="depth_site_dark" xmlns="http://www.w3.org/2000/svg" viewBox="0 0 244.71 316.86"><defs><style>.cls-1{fill:#2c2d2b;}.cls-2{fill:#8496d8;}</style></defs><path class="cls-2" d="M5.18,90.89c3.58,3.78,8.64,5.8,13.75,7.28,5.98,1.74,12.2,2.85,18.56,3.32-5.79,10.07-8.01,21.38-4.85,31.58,2.9,9.38,9.75,17.03,17.13,23.81,10.36,9.51,22.08,17.81,34.81,24.69-9.31,6.41-15.15,16.4-18.28,26.08-11.6,35.86,2.81,76.13,36.53,102.13l25.89,7.08c18.43-17.7,33.31-37.65,43.92-58.91,5.11-10.23,9.27-21.07,8.91-31.99,12.52-1.5,24.7-4.56,36.17-9.13,7.67-3.05,15.22-6.91,20.35-13.24,10.74-13.21,7.84-35.19-4.16-49.65-2.26-2.73-4.85-5.27-7.89-7.02-8.98-5.16-19.77-2.4-28.05,2.27-16.84,9.49-28.59,26.59-32.39,45.96-12.45-11.12-30.76-18.72-49.75-20.24-.77-.06-1.55-.12-2.33-.15,13.86-28.96,10.49-62.82-8.66-86.04-.31-.37-.63-.75-.95-1.13,11.99-3.39,21.99-11.58,26.95-22.64,2.5-5.56,3.58-12.68-.36-18.29-1.34-1.91-3.17-3.48-5.1-4.85-4.13-2.91-8.96-4.82-13.77-5.54,4.86-8.21,5.98-18.07,2.7-26.71-1.61-4.21-4.75-8.5-9.77-9.37-1.7-.3-3.47-.16-5.2,.13-9.11,1.57-17.22,8.64-17.43,16.69-.1,3.86,1.49,7.56,3.38,11,2.37,4.3,5.25,8.38,8.59,12.15-.38,.3-.74,.62-1.1,.95-3.77,3.59-5.8,8.65-7.28,13.75-1.8,6.2-2.92,12.65-3.37,19.24-2.73-.47-5.58-.54-8.52-.08-4.36,.67-8.54,2.43-12.45,4.55-2.99,1.62-5.83,3.48-8.48,5.56-2.5-13.88-11.28-25.75-23.64-31.29-5.56-2.5-12.68-3.58-18.3,.36-1.91,1.34-3.48,3.18-4.85,5.1-7.2,10.21-8.2,24.71-.7,32.6Z"/><path class="cls-1" d="M100.72,102.33c1.7,.15,3.31,.88,4.64,1.95,.44,.35,.87,.71,1.31,1.05,1.46,1.16,3.03,2.46,4.09,3.99,.48,.69,1,1.66,1.09,2.37,0,.06,0,.2,0,.24,0,.25,0,.5,0,.75,0,.38,.01,.76,0,1.14-.04,.04-.08,.08-.13,.12-.02,.02-.27,.2-.34,.26-.26,.17-.53,.32-.8,.46-2.89,.83-4.63-.46-6.3-3.08-2.44-3.84-8.39-4.14-11.23-.79-1.32,1.55-2.05,3.78-2.5,5.85-.49,2.33-2.22,2.85-3.76,2.45-.94-.23-2.02-2.14-2.04-3.35-.31-9.94,7.9-14.23,15.94-13.41h.02Z"/><path class="cls-1" d="M55.67,121.07c-.86,3.64,4.64,5.26,5.83,1.71l.02-.05c1.11-3.71,4.07-5.28,7.21-6.64,3.01-1.33,5.5-.6,7.53,1.92,.69,.83,1.31,1.84,2.2,2.35,.6,.4,1.8,.39,2.39,.03,.62-.37,1.1-1.4,1.12-2.12,.03-3.42-3.69-7.98-7.07-8.47-9.39-1.37-15.34,2.77-18.36,8.97-.4,.8-.7,1.56-.87,2.29Z"/><path class="cls-1" d="M83.86,135.37c3.54,1.14,6.57-.26,9-2.76,1.31-1.37,2.4-3.14,3.1-4.94,.36-.94,.04-2.79-.71-3.31-1.77-1.21-2.48-.85-3.47-.12-.6,.44-1.33,1.1-1.8,1.82-1.87,2.83-4.17,3.26-7.29,1.96-1.51-.63-4.29-2.02-5.4-.42-2.7,4.69,3.22,6.69,6.58,7.77Z"/></svg>