<?xml version="1.0" encoding="UTF-8" standalone="no"?>
<!-- Created with Inkscape (http://www.inkscape.org/) -->

<svg
   viewBox="0 0 186.53346 101.22446"
   version="1.1"
   id="svg5"
   inkscape:version="1.2.2 (732a01da63, 2022-12-09)"
   sodipodi:docname="TandCButton2.svg"
   inkscape:export-filename="TandCButton2.svg"
   inkscape:export-xdpi="96"
   inkscape:export-ydpi="96"
   xmlns:inkscape="http://www.inkscape.org/namespaces/inkscape"
   xmlns:sodipodi="http://sodipodi.sourceforge.net/DTD/sodipodi-0.dtd"
   xmlns="http://www.w3.org/2000/svg"
   xmlns:svg="http://www.w3.org/2000/svg">
  <sodipodi:namedview
     id="namedview7"
     pagecolor="#ffffff"
     bordercolor="#000000"
     borderopacity="0.25"
     inkscape:showpageshadow="2"
     inkscape:pageopacity="0.0"
     inkscape:pagecheckerboard="0"
     inkscape:deskcolor="#d1d1d1"
     inkscape:document-units="mm"
     showgrid="false"
     inkscape:zoom="4.2179992"
     inkscape:cx="77.880527"
     inkscape:cy="58.677109"
     inkscape:window-width="1920"
     inkscape:window-height="1001"
     inkscape:window-x="-9"
     inkscape:window-y="-9"
     inkscape:window-maximized="1"
     inkscape:current-layer="text12122" />
  <defs
     id="defs2">
    <rect
       x="69.73838"
       y="292.36475"
       id="rect167" />
  </defs>
  <g
     inkscape:label="Layer 1"
     inkscape:groupmode="layer"
     id="layer1"
     transform="translate(-17.133161,-82.871276)">
    <text
       xml:space="preserve"
       style="font-size:3.175px;fill:#fcee21;stroke-width:0.264583"
       x="30.870968"
       y="109.99999"
       id="text113"><tspan
         sodipodi:role="line"
         id="tspan111"
         style="stroke-width:0.264583"
         x="30.870968"
         y="109.99999" /></text>
    <text
       xml:space="preserve"
       transform="scale(0.26458333)"
       id="text165"
       style="font-style:normal;font-variant:normal;font-weight:600;font-stretch:normal;font-family:Montserrat;-inkscape-font-specification:'Montserrat Semi-Bold';white-space:pre;shape-inside:url(#rect167);display:inline;fill:#fcee21" />
    <text
       xml:space="preserve"
       style="font-style:normal;font-variant:normal;font-weight:600;font-stretch:normal;font-size:3.175px;font-family:Montserrat;-inkscape-font-specification:'Montserrat Semi-Bold';fill:#fcee21;stroke-width:0.264583"
       x="52.516129"
       y="131.29031"
       id="text173"><tspan
         sodipodi:role="line"
         id="tspan171"
         style="stroke-width:0.264583"
         x="52.516129"
         y="131.29031">test</tspan></text>
    <rect
       style="fill:#495b41;fill-opacity:1;stroke-width:0.264583"
       id="rect1220"
       width="176.13802"
       height="91.832642"
       x="23.083614"
       y="87.8181"
       ry="23.585432" />
    <rect
       style="fill:#000000;fill-opacity:0;stroke:#3b4a35;stroke-width:8.89;stroke-dasharray:none;stroke-opacity:1"
       id="rect1222"
       width="177.64346"
       height="92.334457"
       x="21.578161"
       y="87.316277"
       ry="23.585432" />
    <g
       aria-label="Terms and Conditions"
       transform="translate(8.7403211,83.269498)"
       id="text12122"
       style="font-weight:600;font-size:26.6667px;line-height:1.1;font-family:Montserrat;-inkscape-font-specification:'Montserrat Semi-Bold';text-align:center;text-anchor:middle;white-space:pre;inline-size:170.239;display:inline;fill:#ffffff;stroke-width:8.89">
      <path
         d="M 35.340003,45.163593 V 29.43024 h -6.186674 v -2.933337 h 15.84002 v 2.933337 h -6.186675 v 15.733353 z"
         id="path2653" />
      <path
         d="m 52.513331,45.35026 q -2.373337,0 -4.160006,-0.933334 -1.760002,-0.960002 -2.74667,-2.613337 -0.960001,-1.653335 -0.960001,-3.760005 0,-2.133336 0.933334,-3.760004 0.960002,-1.653336 2.613337,-2.58667 1.680002,-0.933335 3.813338,-0.933335 2.080003,0 3.706672,0.906668 1.626668,0.906668 2.560003,2.560003 0.933334,1.653336 0.933334,3.893338 0,0.213334 -0.02667,0.480001 0,0.266667 -0.02667,0.506667 H 47.286657 v -2.213336 h 10.10668 l -1.306669,0.693334 q 0.02667,-1.226668 -0.506667,-2.160002 -0.533334,-0.933335 -1.466668,-1.466669 -0.906668,-0.533334 -2.10667,-0.533334 -1.226668,0 -2.160002,0.533334 -0.906668,0.533334 -1.440002,1.493335 -0.506668,0.933335 -0.506668,2.213336 v 0.533334 q 0,1.280002 0.586668,2.26667 0.586667,0.986668 1.653335,1.520002 1.066668,0.533334 2.453337,0.533334 1.200001,0 2.160002,-0.373334 0.960002,-0.373334 1.706669,-1.173335 l 1.786669,2.053336 Q 57.28667,44.150259 55.820001,44.763593 54.38,45.35026 52.513331,45.35026 Z"
         id="path2655" />
      <path
         d="M 62.406671,45.163593 V 30.923575 h 3.173337 v 3.920005 l -0.373333,-1.146668 q 0.64,-1.440002 2.000002,-2.186669 1.386669,-0.746668 3.440004,-0.746668 v 3.173337 q -0.213333,-0.05333 -0.4,-0.05333 -0.186667,-0.02667 -0.373334,-0.02667 -1.893336,0 -3.013337,1.120002 -1.120001,1.093334 -1.120001,3.280004 v 6.906675 z"
         id="path2657" />
      <path
         d="m 91.44073,30.763575 q 1.706669,0 3.013338,0.666668 1.333335,0.666667 2.080002,2.053336 0.746668,1.360001 0.746668,3.520004 v 8.16001 H 93.9474 V 37.43025 q 0,-1.893336 -0.826667,-2.82667 -0.826668,-0.933335 -2.373337,-0.933335 -1.093335,0 -1.946669,0.480001 -0.826668,0.480001 -1.306668,1.413335 -0.453334,0.933335 -0.453334,2.373336 v 7.226676 H 83.707387 V 37.43025 q 0,-1.893336 -0.826667,-2.82667 -0.826668,-0.933335 -2.373337,-0.933335 -1.093334,0 -1.946669,0.480001 -0.826668,0.480001 -1.306668,1.413335 -0.453334,0.933335 -0.453334,2.373336 v 7.226676 H 73.467374 V 30.923575 h 3.173338 v 3.786672 l -0.560001,-1.120002 q 0.720001,-1.386668 2.080003,-2.106669 1.386668,-0.720001 3.14667,-0.720001 2.000003,0 3.466671,0.986668 1.493336,0.986668 1.973336,2.98667 L 85.440723,34.28358 q 0.693334,-1.600002 2.293336,-2.560004 1.600002,-0.960001 3.706671,-0.960001 z"
         id="path2659" />
      <path
         d="m 105.9474,45.35026 q -1.78667,0 -3.44,-0.453334 -1.62667,-0.48 -2.586673,-1.146668 l 1.280003,-2.533336 q 0.96,0.613334 2.29333,1.013334 1.33334,0.400001 2.66667,0.400001 1.57334,0 2.26667,-0.426667 0.72,-0.426668 0.72,-1.146669 0,-0.586667 -0.48,-0.880001 -0.48,-0.32 -1.25333,-0.48 -0.77333,-0.16 -1.73334,-0.293334 -0.93333,-0.133333 -1.89333,-0.346667 -0.93334,-0.24 -1.70667,-0.666668 -0.77334,-0.453334 -1.25334,-1.200001 -0.48,-0.746668 -0.48,-1.973336 0,-1.360002 0.77334,-2.34667 0.77333,-1.013334 2.16,-1.546668 1.41334,-0.560001 3.33334,-0.560001 1.44,0 2.90667,0.320001 1.46667,0.32 2.42667,0.906667 l -1.28,2.533337 q -1.01334,-0.613334 -2.05334,-0.826668 -1.01333,-0.24 -2.02667,-0.24 -1.52,0 -2.26667,0.453334 -0.72,0.453334 -0.72,1.146668 0,0.640001 0.48,0.960001 0.48,0.32 1.25334,0.506667 0.77333,0.186667 1.70667,0.320001 0.96,0.106667 1.89333,0.346667 0.93334,0.24 1.70667,0.666667 0.8,0.400001 1.28,1.146669 0.48,0.746667 0.48,1.946669 0,1.333335 -0.8,2.320003 -0.77333,0.986667 -2.21333,1.546668 -1.44001,0.533334 -3.44001,0.533334 z"
         id="path2661" />
      <path
         d="M 131.41406,45.163593 V 42.28359 l -0.18666,-0.613334 v -5.040007 q 0,-1.466668 -0.88001,-2.266669 -0.88,-0.826668 -2.66667,-0.826668 -1.2,0 -2.37333,0.373334 -1.14667,0.373334 -1.94667,1.040001 l -1.30667,-2.42667 q 1.14667,-0.880001 2.72,-1.306668 1.60001,-0.453334 3.30667,-0.453334 3.09334,0 4.77334,1.493335 1.70667,1.466669 1.70667,4.560006 v 8.346677 z m -4.48,0.186667 q -1.60001,0 -2.80001,-0.533334 -1.2,-0.560001 -1.86667,-1.520002 -0.64,-0.986668 -0.64,-2.213336 0,-1.200001 0.56,-2.160003 0.58667,-0.960001 1.89334,-1.520002 1.30667,-0.56 3.46667,-0.56 h 4.13334 v 2.213336 h -3.89334 q -1.70667,0 -2.29334,0.560001 -0.58666,0.533334 -0.58666,1.333335 0,0.906667 0.72,1.440001 0.72,0.533334 2,0.533334 1.22667,0 2.18667,-0.56 0.98667,-0.560001 1.41334,-1.653336 l 0.56,2.000003 q -0.48,1.253335 -1.73334,1.946669 -1.22667,0.693334 -3.12,0.693334 z"
         id="path2663" />
      <path
         d="m 146.90742,30.763575 q 1.70667,0 3.04,0.666668 1.36001,0.666667 2.13334,2.053336 0.77333,1.360001 0.77333,3.520004 v 8.16001 h -3.33333 V 37.43025 q 0,-1.893336 -0.90667,-2.82667 -0.88,-0.933335 -2.48,-0.933335 -1.17334,0 -2.08001,0.480001 -0.90667,0.480001 -1.41333,1.440002 -0.48,0.933334 -0.48,2.373336 v 7.200009 h -3.33334 V 30.923575 h 3.17334 v 3.840005 l -0.56,-1.173335 q 0.74666,-1.360001 2.16,-2.080002 1.44,-0.746668 3.30667,-0.746668 z"
         id="path2665" />
      <path
         d="m 163.15525,45.35026 q -2.05334,0 -3.70668,-0.906668 -1.62666,-0.933334 -2.56,-2.560003 -0.93333,-1.626669 -0.93333,-3.840005 0,-2.213336 0.93333,-3.840005 0.93334,-1.626668 2.56,-2.533336 1.65334,-0.906668 3.70668,-0.906668 1.78667,0 3.2,0.800001 1.41334,0.773334 2.24,2.373336 0.82667,1.600002 0.82667,4.106672 0,2.480003 -0.8,4.106672 -0.8,1.600002 -2.21334,2.400003 -1.41333,0.800001 -3.25333,0.800001 z m 0.4,-2.853337 q 1.2,0 2.13333,-0.533334 0.96,-0.533334 1.52,-1.546668 0.58667,-1.013335 0.58667,-2.373337 0,-1.386668 -0.58667,-2.373336 -0.56,-1.013335 -1.52,-1.546669 -0.93333,-0.533334 -2.13333,-0.533334 -1.2,0 -2.16001,0.533334 -0.93333,0.533334 -1.52,1.546669 -0.56,0.986668 -0.56,2.373336 0,1.360002 0.56,2.373337 0.58667,1.013334 1.52,1.546668 0.96001,0.533334 2.16001,0.533334 z m 4.32,2.66667 v -3.360004 l 0.13334,-3.786671 -0.26667,-3.786672 v -8.853344 h 3.30667 v 19.786691 z"
         id="path2667" />
      <path
         d="m 38.006654,74.76363 q -2.133336,0 -3.973339,-0.693334 -1.813335,-0.720001 -3.173337,-2.000003 -1.333335,-1.306668 -2.080003,-3.06667 -0.746667,-1.760002 -0.746667,-3.840005 0,-2.080003 0.746667,-3.840005 0.746668,-1.760002 2.10667,-3.040004 1.360001,-1.306668 3.173337,-2.000002 1.813336,-0.720001 3.973338,-0.720001 2.293337,0 4.186672,0.800001 1.893336,0.773334 3.200004,2.320003 l -2.240003,2.106669 q -1.013334,-1.093335 -2.266669,-1.626669 -1.253335,-0.56 -2.720003,-0.56 -1.466669,0 -2.693337,0.48 -1.200002,0.480001 -2.10667,1.360002 -0.880001,0.880001 -1.386668,2.080003 -0.480001,1.200001 -0.480001,2.640003 0,1.440002 0.480001,2.640003 0.506667,1.200002 1.386668,2.080003 0.906668,0.880001 2.10667,1.360002 1.226668,0.48 2.693337,0.48 1.466668,0 2.720003,-0.533334 1.253335,-0.56 2.266669,-1.680002 l 2.240003,2.133336 q -1.306668,1.520002 -3.200004,2.320003 -1.893335,0.800001 -4.213338,0.800001 z"
         id="path2669" />
      <path
         d="m 54.294024,74.68363 q -2.186669,0 -3.893338,-0.933334 -1.706669,-0.960002 -2.693337,-2.613337 -0.986668,-1.653335 -0.986668,-3.760005 0,-2.133336 0.986668,-3.760005 0.986668,-1.653335 2.693337,-2.58667 1.706669,-0.933334 3.893338,-0.933334 2.213336,0 3.920005,0.933334 1.733336,0.933335 2.693337,2.560004 0.986668,1.626668 0.986668,3.786671 0,2.10667 -0.986668,3.760005 -0.960001,1.653335 -2.693337,2.613337 -1.706669,0.933334 -3.920005,0.933334 z m 0,-2.853337 q 1.226669,0 2.18667,-0.533334 0.960001,-0.533334 1.493335,-1.546668 0.560001,-1.013335 0.560001,-2.373337 0,-1.386668 -0.560001,-2.373336 -0.533334,-1.013335 -1.493335,-1.546669 -0.960001,-0.533334 -2.160003,-0.533334 -1.226668,0 -2.186669,0.533334 -0.933335,0.533334 -1.493336,1.546669 -0.56,0.986668 -0.56,2.373336 0,1.360002 0.56,2.373337 0.560001,1.013334 1.493336,1.546668 0.960001,0.533334 2.160002,0.533334 z"
         id="path2671" />
      <path
         d="m 73.174062,60.096945 q 1.706668,0 3.040003,0.666667 1.360002,0.666668 2.133336,2.053336 0.773335,1.360002 0.773335,3.520005 v 8.16001 H 75.787398 V 66.76362 q 0,-1.893336 -0.906668,-2.82667 -0.880001,-0.933335 -2.480003,-0.933335 -1.173335,0 -2.080002,0.480001 -0.906668,0.480001 -1.413336,1.440002 -0.48,0.933334 -0.48,2.373336 v 7.200009 H 65.094051 V 60.256945 h 3.173338 v 3.840005 l -0.560001,-1.173335 q 0.746668,-1.360002 2.160003,-2.080002 1.440002,-0.746668 3.306671,-0.746668 z"
         id="path2673" />
      <path
         d="m 89.421885,74.68363 q -2.053336,0 -3.706672,-0.906668 -1.626669,-0.933334 -2.560003,-2.560003 -0.933335,-1.626669 -0.933335,-3.840005 0,-2.213336 0.933335,-3.840005 0.933334,-1.626668 2.560003,-2.533336 1.653336,-0.906668 3.706672,-0.906668 1.786668,0 3.200004,0.800001 1.413335,0.773334 2.240002,2.373336 0.826668,1.600002 0.826668,4.106672 0,2.480003 -0.800001,4.106672 -0.800001,1.600002 -2.213336,2.400003 -1.413335,0.800001 -3.253337,0.800001 z m 0.4,-2.853337 q 1.200002,0 2.133336,-0.533334 0.960001,-0.533334 1.520002,-1.546668 0.586667,-1.013335 0.586667,-2.373337 0,-1.386668 -0.586667,-2.373336 -0.560001,-1.013335 -1.520002,-1.546669 -0.933334,-0.533334 -2.133336,-0.533334 -1.200001,0 -2.160003,0.533334 -0.933334,0.533334 -1.520002,1.546669 -0.56,0.986668 -0.56,2.373336 0,1.360002 0.56,2.373337 0.586668,1.013334 1.520002,1.546668 0.960002,0.533334 2.160003,0.533334 z m 4.320005,2.66667 v -3.360004 l 0.133334,-3.786672 -0.266667,-3.786671 v -8.853344 h 3.306671 v 19.786691 z"
         id="path2675" />
      <path
         d="M 101.71524,74.496963 V 60.256945 h 3.33333 v 14.240018 z m 1.68,-16.586687 q -0.93334,0 -1.54667,-0.586668 -0.58667,-0.586667 -0.58667,-1.413335 0,-0.853334 0.58667,-1.413335 0.61333,-0.586668 1.54667,-0.586668 0.93333,0 1.52,0.560001 0.61333,0.533334 0.61333,1.360002 0,0.880001 -0.58666,1.493335 -0.58667,0.586668 -1.54667,0.586668 z"
         id="path2677" />
      <path
         d="m 114.78191,74.68363 q -2.34667,0 -3.62667,-1.200001 -1.28,-1.226669 -1.28,-3.600005 V 57.110275 h 3.33333 v 12.693349 q 0,1.013335 0.50667,1.573335 0.53333,0.560001 1.46667,0.560001 1.12,0 1.86667,-0.586667 l 0.93333,2.373336 q -0.58666,0.48 -1.44,0.720001 -0.85333,0.24 -1.76,0.24 z m -7.25334,-11.653348 v -2.66667 h 9.49334 v 2.66667 z"
         id="path2679" />
      <path
         d="M 120.72858,74.496963 V 60.256945 h 3.33334 v 14.240018 z m 1.68,-16.586687 q -0.93333,0 -1.54667,-0.586668 -0.58666,-0.586667 -0.58666,-1.413335 0,-0.853334 0.58666,-1.413335 0.61334,-0.586668 1.54667,-0.586668 0.93334,0 1.52,0.560001 0.61334,0.533334 0.61334,1.360002 0,0.880001 -0.58667,1.493335 -0.58667,0.586668 -1.54667,0.586668 z"
         id="path2681" />
      <path
         d="m 134.83525,74.68363 q -2.18667,0 -3.89333,-0.933334 -1.70667,-0.960002 -2.69334,-2.613337 -0.98667,-1.653335 -0.98667,-3.760005 0,-2.133336 0.98667,-3.760005 0.98667,-1.653335 2.69334,-2.58667 1.70666,-0.933334 3.89333,-0.933334 2.21334,0 3.92001,0.933334 1.73333,0.933335 2.69334,2.560004 0.98666,1.626668 0.98666,3.786671 0,2.10667 -0.98666,3.760005 -0.96001,1.653335 -2.69334,2.613337 -1.70667,0.933334 -3.92001,0.933334 z m 0,-2.853337 q 1.22667,0 2.18667,-0.533334 0.96,-0.533334 1.49334,-1.546668 0.56,-1.013335 0.56,-2.373337 0,-1.386668 -0.56,-2.373336 -0.53334,-1.013335 -1.49334,-1.546669 -0.96,-0.533334 -2.16,-0.533334 -1.22667,0 -2.18667,0.533334 -0.93333,0.533334 -1.49333,1.546669 -0.56001,0.986668 -0.56001,2.373336 0,1.360002 0.56001,2.373337 0.56,1.013334 1.49333,1.546668 0.96,0.533334 2.16,0.533334 z"
         id="path2683" />
      <path
         d="m 153.71529,60.096945 q 1.70667,0 3.04,0.666667 1.36001,0.666668 2.13334,2.053336 0.77333,1.360002 0.77333,3.520005 v 8.16001 h -3.33333 V 66.76362 q 0,-1.893336 -0.90667,-2.82667 -0.88,-0.933335 -2.48,-0.933335 -1.17334,0 -2.08001,0.480001 -0.90666,0.480001 -1.41333,1.440002 -0.48,0.933334 -0.48,2.373336 v 7.200009 h -3.33334 V 60.256945 h 3.17334 v 3.840005 l -0.56,-1.173335 q 0.74666,-1.360002 2.16,-2.080002 1.44,-0.746668 3.30667,-0.746668 z"
         id="path2685" />
      <path
         d="m 168.30196,74.68363 q -1.78666,0 -3.44,-0.453334 -1.62667,-0.48 -2.58667,-1.146668 l 1.28,-2.533336 q 0.96,0.613334 2.29334,1.013334 1.33333,0.400001 2.66667,0.400001 1.57333,0 2.26667,-0.426668 0.72,-0.426667 0.72,-1.146668 0,-0.586667 -0.48,-0.880001 -0.48,-0.32 -1.25334,-0.48 -0.77333,-0.160001 -1.73333,-0.293334 -0.93334,-0.133334 -1.89334,-0.346667 -0.93333,-0.240001 -1.70667,-0.666668 -0.77333,-0.453334 -1.25333,-1.200001 -0.48,-0.746668 -0.48,-1.973336 0,-1.360002 0.77333,-2.34667 0.77334,-1.013334 2.16,-1.546668 1.41334,-0.560001 3.33334,-0.560001 1.44,0 2.90667,0.32 1.46667,0.320001 2.42667,0.906668 l -1.28,2.533337 q -1.01333,-0.613334 -2.05334,-0.826668 -1.01333,-0.24 -2.02667,-0.24 -1.52,0 -2.26666,0.453334 -0.72001,0.453334 -0.72001,1.146668 0,0.640001 0.48,0.960001 0.48001,0.32 1.25334,0.506667 0.77333,0.186667 1.70667,0.320001 0.96,0.106666 1.89333,0.346667 0.93334,0.24 1.70667,0.666667 0.8,0.400001 1.28,1.146668 0.48001,0.746668 0.48001,1.94667 0,1.333335 -0.80001,2.320002 -0.77333,0.986668 -2.21333,1.546669 -1.44,0.533334 -3.44001,0.533334 z"
         id="path2687" />
    </g>
  </g>
</svg>
