<?xml version="1.0" encoding="UTF-8"?><svg id="Team" xmlns="http://www.w3.org/2000/svg" viewBox="0 0 183.92 300.32"><defs><style>.cls-1{fill:#485b41;}.cls-2{fill:#2c2d2b;}.cls-3{fill:#ea7572;}.cls-4{fill:#924b2c;}.cls-5{fill:#31442b;}</style></defs><path class="cls-5" d="M171.61,18.49c-1.29,69.28-6.78,125.98-8.07,195.26-.05,2.42-.11,4.97-.59,6.99-.75,3.13-2.24,4.01-3.57,4.63-17.15,7.95-30.1-10.3-47.24-2.35-32.33,15-65.36,30.23-98.14,28.18-.36-75.11-4.88-155.51-5.24-230.62,43.15,3.68,84.91,5.24,129.98-3.14,12.62-2.35,22.17,1.32,32.6,1.05h.28Z"/><g><path class="cls-3" d="M57.1,169.09c1.13-21.3-.13-23.11,13.55-20.17,7.18,1.57,18.59,2.05,25.52,4.3,11-2.38,27.77-8.24,28.18,1.17,.63,14.45,5.35,39.33-7.55,51.54-7.04,6.66,4.26,5.48-24.87,5.64-29.13,.16-36.98-2.09-34.83-42.47Z"/><path class="cls-2" d="M112.03,163.67c1.4,.42,2.62,1.3,3.55,2.42,.31,.37,.61,.74,.91,1.1,1.03,1.22,2.12,2.58,2.75,4.04,.28,.66,.55,1.56,.51,2.17-.01,.05-.03,.17-.04,.2-.04,.21-.09,.42-.13,.62-.06,.32-.12,.64-.19,.96-.04,.03-.08,.05-.13,.08-.02,.01-.26,.12-.33,.16-.24,.1-.5,.18-.75,.25-2.56,.2-3.8-1.17-4.75-3.65-1.39-3.63-6.32-4.89-9.27-2.57-1.37,1.08-2.36,2.82-3.09,4.48-.81,1.87-2.34,2.01-3.57,1.41-.75-.35-1.33-2.14-1.14-3.15,1.43-8.38,9.04-10.57,15.63-8.52h.02Z"/><path class="cls-4" d="M49.84,150.66c8.8,2.98,17.78,5.75,23.3,6.1,24.8,.91,80.79,3.07,78.23-27.7,0-13.18-6.75-22.55-17.12-29.73-25.63-15.64-62.87-16.14-87.34,2.02-16.46,12.21-19.75,39.86,2.93,49.32Z"/><path class="cls-2" d="M71.11,171.7c-1.34,2.91,2.99,5.19,4.59,2.42l.02-.04c1.56-2.92,4.31-3.73,7.17-4.33,2.75-.61,4.71,.43,5.98,2.89,.43,.81,.78,1.76,1.44,2.34,.43,.43,1.44,.64,1.99,.43,.58-.2,1.16-.98,1.3-1.59,.61-2.86-1.73-7.31-4.48-8.29-7.63-2.74-13.32-.29-16.9,4.39-.47,.6-.85,1.19-1.12,1.77Z"/><path class="cls-2" d="M92.28,188.47c2.77,1.56,5.55,.9,8-.78,1.33-.92,2.54-2.23,3.44-3.61,.46-.72,.51-2.33-.03-2.89-1.28-1.32-1.93-1.14-2.89-.69-.58,.27-1.3,.69-1.82,1.21-2.05,2.05-4.05,2.02-6.44,.4-1.16-.78-3.25-2.42-4.45-1.27-3.06,3.47,1.56,6.15,4.19,7.63Z"/></g><path class="cls-1" d="M172.57,286.88c.39,4.17,.8,8.34,1.2,12.52-47.52-.2-89.58-.04-139.23,.76-11.41,.18-19.69,.15-31.18,.16l.02-12.94c.11-.02,2.57-.11,6.83-.22-.31-23.62-.63-47.23-.94-70.84-1.88-.07-3.85-.1-5.91-.1l.02-12.72c.78-.16,118.84-.55,162.34-.49h1.31c2.03,0,3.88,.01,5.53,.01,.39,4.09,.8,8.2,1.2,12.3-2.41-.01-4.81-.02-7.19-.02l-2.67,70.96c3.39,.18,6.3,.39,8.66,.64Z"/><path class="cls-1" d="M183.92,13.37c-.44-4.45-.86-8.89-1.3-13.35C143.66-.1,.92,.36,.03,.55l-.03,13.79H6.39c-.06,17.21-1.07,34.42-3.01,51.49,37.87,3.96,72.13-.54,110.18-.88,18.09-.16,48.66-3.12,62.98-4.68,.99-16.27,1.03-33.92,.94-46.93,2.13,0,4.27,.01,6.43,.02ZM4.96,11.27l1.45-.87v.74c-.48,.04-.96,.09-1.45,.13Z"/><g><path class="cls-5" d="M19.77,26.27l19.32,.31c1.93,.03,1.93-2.97,0-3l-19.32-.31c-1.93-.03-1.93,2.97,0,3h0Z"/><path class="cls-5" d="M27.77,25.51c-.35,10.36-.64,20.72-.87,31.08-.04,1.93,2.96,1.93,3,0,.22-10.36,.51-20.72,.87-31.08,.07-1.93-2.93-1.93-3,0h0Z"/><path class="cls-5" d="M49.52,26.61c1.45-.12,2.91-.16,4.37-.12,.7,.02,1.4,.06,2.1,.11,.35,.03,.7,.06,1.04,.1,.2,.02,.41,.04,.61,.07,.09,.01,.17,.02,.26,.03,.19,.02,.23,.03,.12,.02,.77,.11,1.65-.19,1.85-1.05,.16-.71-.22-1.73-1.05-1.85-3.09-.43-6.19-.56-9.3-.31-.78,.06-1.54,.65-1.5,1.5,.03,.76,.66,1.57,1.5,1.5h0Z"/><path class="cls-5" d="M53.01,25.73c-.15,9.85-.72,19.69-1.73,29.5l1.9-1.45c-1.35-.23-2.69-.32-4.06-.23-1.91,.13-1.95,3,0,3,2.95,0,5.89-.09,8.83-.29,1.92-.13,1.93-3.13,0-3-2.94,.2-5.88,.29-8.83,.29v3c1.1-.08,2.17-.06,3.26,.12s1.79-.41,1.9-1.45c1.01-9.8,1.58-19.64,1.73-29.5,.03-1.93-2.97-1.93-3,0h0Z"/><path class="cls-5" d="M75.27,23.8c-7.26,2.56-6.59,12.34-6.58,18.54,0,1.94,.05,3.88,.16,5.81,.09,1.74,.14,3.55,1.18,5.03,1.71,2.43,4.85,2.98,7.59,3.33,1.91,.24,1.89-2.76,0-3-1.82-.23-4.61-.61-5.41-2.55-.52-1.27-.38-2.92-.43-4.26-.06-1.61-.09-3.23-.09-4.85,0-2.97-.01-6.04,.43-8.98,.37-2.45,1.39-5.28,3.95-6.18,1.81-.64,1.03-3.54-.8-2.89h0Z"/><path class="cls-5" d="M83.79,24.17c-1.26,10.53,1.22,21.04,.5,31.58-.13,1.93,2.87,1.92,3,0,.72-10.54-1.76-21.05-.5-31.58,.23-1.91-2.77-1.9-3,0h0Z"/><path class="cls-5" d="M86.36,37.39c2.16-1.64,3.96-3.69,5.77-5.7,.95-1.06,1.9-2.11,2.89-3.14,.45-.46,.9-.92,1.37-1.36,.21-.2,.43-.4,.65-.59,.1-.08,.19-.17,.29-.25,.05-.04,.48-.37,.17-.14,.64-.49,.98-1.29,.54-2.05-.37-.64-1.4-1.03-2.05-.54-2.16,1.64-3.96,3.69-5.77,5.7-.95,1.06-1.9,2.11-2.89,3.14-.45,.46-.9,.92-1.37,1.36-.21,.2-.43,.4-.65,.59-.1,.08-.19,.17-.29,.25-.05,.04-.48,.37-.17,.14-.64,.49-.98,1.29-.54,2.05,.37,.64,1.4,1.03,2.05,.54h0Z"/><path class="cls-5" d="M84.25,37.83c2.83,2.55,4.97,5.77,7.23,8.81l7.4,9.95c.48,.65,1.3,.98,2.05,.54,.64-.37,1.02-1.4,.54-2.05l-7.62-10.25c-2.33-3.14-4.55-6.48-7.48-9.12-1.43-1.29-3.56,.83-2.12,2.12h0Z"/><path class="cls-5" d="M105.88,24.41c-.68,7.14,.02,14.29,.86,21.39,.2,1.73,.41,3.46,.62,5.19l.28,2.33c.08,.7,.06,1.54,.47,2.15,.84,1.25,2.42,.88,3.69,.77l5.44-.46c1.91-.16,1.93-3.16,0-3l-4.49,.38c-.51,.04-1.94-.07-2.36,.2-.34-.02-.32,.05,.04,.22,.33,.34,.4,.25,.22-.27,.02-.29-.08-.64-.11-.93-.37-3.09-.75-6.17-1.1-9.26-.69-6.22-1.14-12.48-.55-18.72,.18-1.92-2.82-1.91-3,0h0Z"/><path class="cls-5" d="M108.14,40.33h4c.78,0,1.54-.69,1.5-1.5s-.66-1.5-1.5-1.5h-4c-.78,0-1.54,.69-1.5,1.5s.66,1.5,1.5,1.5h0Z"/><path class="cls-5" d="M107.7,25.95l6.44-.3c.78-.04,1.54-.66,1.5-1.5-.04-.78-.66-1.54-1.5-1.5l-6.44,.3c-.78,.04-1.54,.66-1.5,1.5,.04,.78,.66,1.54,1.5,1.5h0Z"/><path class="cls-5" d="M126.35,24.95c4.51,.18,9.03,.23,13.54,.14,1.93-.04,1.93-3.04,0-3-4.52,.09-9.03,.04-13.54-.14-1.93-.08-1.93,2.92,0,3h0Z"/><path class="cls-5" d="M131.52,24.84c.74,9.53,1.24,19.09,1.5,28.65,.05,1.93,3.05,1.93,3,0-.25-9.56-.75-19.11-1.5-28.65-.15-1.91-3.15-1.93-3,0h0Z"/><path class="cls-5" d="M156.99,22.63c-3.5-1.48-7.04,.32-8.08,3.96-.47,1.64-.63,3.72,.24,5.26s2.53,1.98,4.07,2.68c6.36,2.85,3.62,16.59-4.03,14.38-1.86-.54-2.65,2.36-.8,2.89,3.37,.97,6.98-.47,9.07-3.22,2.15-2.83,2.64-6.67,1.93-10.09-.33-1.62-1.01-3.18-2.05-4.47-1.07-1.34-2.42-2.02-3.99-2.63-.75-.29-1.48-.55-1.73-1.37-.24-.78-.05-1.86,.18-2.62,.46-1.57,1.94-2.9,3.67-2.17,.75,.32,1.6,.22,2.05-.54,.37-.63,.21-1.74-.54-2.05h0Z"/></g><path class="cls-1" d="M167.04,202.98h-1.31c.44,.01,.87,0,1.31,0Z"/><path class="cls-5" d="M148.76,77.97h1.91c.39,0,.77-.34,.75-.75s-.33-.75-.75-.75h-1.91c-.39,0-.77,.34-.75,.75s.33,.75,.75,.75h0Z"/></svg>