<?xml version="1.0" encoding="UTF-8" standalone="no"?>
<!-- Created with Inkscape (http://www.inkscape.org/) -->

<svg
   viewBox="0 0 186.53346 101.22446"
   version="1.1"
   id="svg5"
   inkscape:version="1.2.2 (732a01da63, 2022-12-09)"
   sodipodi:docname="ticketsButton3.svg"
   xmlns:inkscape="http://www.inkscape.org/namespaces/inkscape"
   xmlns:sodipodi="http://sodipodi.sourceforge.net/DTD/sodipodi-0.dtd"
   xmlns="http://www.w3.org/2000/svg"
   xmlns:svg="http://www.w3.org/2000/svg">
  <sodipodi:namedview
     id="namedview7"
     pagecolor="#ffffff"
     bordercolor="#000000"
     borderopacity="0.25"
     inkscape:showpageshadow="2"
     inkscape:pageopacity="0.0"
     inkscape:pagecheckerboard="0"
     inkscape:deskcolor="#d1d1d1"
     inkscape:document-units="mm"
     showgrid="false"
     inkscape:zoom="2.9825758"
     inkscape:cx="113.66014"
     inkscape:cy="92.369822"
     inkscape:window-width="1920"
     inkscape:window-height="1001"
     inkscape:window-x="-9"
     inkscape:window-y="-9"
     inkscape:window-maximized="1"
     inkscape:current-layer="text12122" />
  <defs
     id="defs2">
    <rect
       x="69.73838"
       y="292.36475"
       width="109.97206"
       height="166.29921"
       id="rect167" />
  </defs>
  <g
     inkscape:label="Layer 1"
     inkscape:groupmode="layer"
     id="layer1"
     transform="translate(-17.133161,-82.871276)">
    <text
       xml:space="preserve"
       style="font-size:3.175px;fill:#fcee21;stroke-width:0.264583"
       x="30.870968"
       y="109.99999"
       id="text113"><tspan
         sodipodi:role="line"
         id="tspan111"
         style="stroke-width:0.264583"
         x="30.870968"
         y="109.99999" /></text>
    <text
       xml:space="preserve"
       transform="scale(0.26458333)"
       id="text165"
       style="font-style:normal;font-variant:normal;font-weight:600;font-stretch:normal;font-family:Montserrat;-inkscape-font-specification:'Montserrat Semi-Bold';white-space:pre;shape-inside:url(#rect167);display:inline;fill:#fcee21" />
    <text
       xml:space="preserve"
       style="font-style:normal;font-variant:normal;font-weight:600;font-stretch:normal;font-size:3.175px;font-family:Montserrat;-inkscape-font-specification:'Montserrat Semi-Bold';fill:#fcee21;stroke-width:0.264583"
       x="52.516129"
       y="131.29031"
       id="text173"><tspan
         sodipodi:role="line"
         id="tspan171"
         style="stroke-width:0.264583"
         x="52.516129"
         y="131.29031">test</tspan></text>
    <rect
       style="fill:#495b41;fill-opacity:1;stroke-width:0.264583"
       id="rect1220"
       width="176.13802"
       height="91.832642"
       x="23.083614"
       y="87.8181"
       ry="23.585432" />
    <rect
       style="fill:#000000;fill-opacity:0;stroke:#3b4a35;stroke-width:8.89;stroke-dasharray:none;stroke-opacity:1"
       id="rect1222"
       width="177.64346"
       height="92.334457"
       x="21.578161"
       y="87.316277"
       ry="23.585432" />
    <g
       aria-label="View 
tickets here"
       transform="translate(9.3702061,82.973079)"
       id="text12122"
       style="font-weight:600;font-size:26.6667px;line-height:1.1;font-family:Montserrat;-inkscape-font-specification:'Montserrat Semi-Bold';text-align:center;text-anchor:middle;white-space:pre;inline-size:180.297;display:inline;fill:#ffffff;stroke-width:8.89">
      <path
         d="m 71.644966,45.163593 -8.16001,-18.66669 h 3.760005 l 7.280009,16.880021 h -2.160003 l 7.36001,-16.880021 h 3.466671 l -8.133344,18.66669 z"
         id="path4695" />
      <path
         d="M 84.983603,45.163593 V 30.923575 h 3.333338 v 14.240018 z m 1.680002,-16.586687 q -0.933334,0 -1.546668,-0.586668 -0.586668,-0.586667 -0.586668,-1.413335 0,-0.853334 0.586668,-1.413335 0.613334,-0.586667 1.546668,-0.586667 0.933335,0 1.520002,0.56 0.613334,0.533334 0.613334,1.360002 0,0.880001 -0.586667,1.493335 -0.586667,0.586668 -1.546669,0.586668 z"
         id="path4697" />
      <path
         d="m 99.38361,45.35026 q -2.373336,0 -4.160005,-0.933334 -1.760002,-0.960002 -2.74667,-2.613337 -0.960002,-1.653335 -0.960002,-3.760005 0,-2.133336 0.933335,-3.760004 0.960001,-1.653336 2.613337,-2.58667 1.680002,-0.933335 3.813338,-0.933335 2.080007,0 3.706667,0.906668 1.62667,0.906668 2.56001,2.560003 0.93333,1.653336 0.93333,3.893338 0,0.213334 -0.0267,0.480001 0,0.266667 -0.0267,0.506667 H 94.156937 v -2.213336 h 10.106683 l -1.30667,0.693334 q 0.0267,-1.226668 -0.50667,-2.160002 -0.53333,-0.933335 -1.46667,-1.466669 -0.90667,-0.533334 -2.106667,-0.533334 -1.226669,0 -2.160003,0.533334 -0.906668,0.533334 -1.440002,1.493335 -0.506667,0.933335 -0.506667,2.213336 v 0.533334 q 0,1.280002 0.586667,2.26667 0.586668,0.986668 1.653336,1.520002 1.066668,0.533334 2.453336,0.533334 1.2,0 2.16,-0.373334 0.96,-0.373334 1.70667,-1.173335 l 1.78667,2.053336 q -0.96,1.120002 -2.42667,1.733336 -1.44,0.586667 -3.30667,0.586667 z"
         id="path4699" />
      <path
         d="m 112.15694,45.163593 -5.22667,-14.240018 h 3.14667 l 4.48001,12.560016 h -1.49334 l 4.69334,-12.560016 h 2.8 l 4.56001,12.560016 h -1.46667 l 4.61334,-12.560016 h 2.96001 l -5.25334,14.240018 h -3.20001 l -4.16,-11.120014 h 0.98666 l -4.24,11.120014 z"
         id="path4701" />
      <path
         d="m 27.641504,74.68363 q -2.34667,0 -3.626671,-1.200001 -1.280002,-1.226669 -1.280002,-3.600005 V 57.110275 h 3.333337 v 12.693349 q 0,1.013335 0.506668,1.573335 0.533334,0.560001 1.466668,0.560001 1.120002,0 1.866669,-0.586667 l 0.933335,2.373336 q -0.586668,0.48 -1.440002,0.720001 -0.853334,0.24 -1.760002,0.24 z M 20.388161,63.030282 v -2.66667 h 9.493346 v 2.66667 z"
         id="path4703" />
      <path
         d="M 33.588172,74.496963 V 60.256945 h 3.333338 v 14.240018 z m 1.680002,-16.586687 q -0.933334,0 -1.546669,-0.586668 -0.586667,-0.586667 -0.586667,-1.413335 0,-0.853334 0.586667,-1.413335 0.613335,-0.586668 1.546669,-0.586668 0.933335,0 1.520002,0.560001 0.613334,0.533334 0.613334,1.360002 0,0.880001 -0.586667,1.493335 -0.586668,0.586668 -1.546669,0.586668 z"
         id="path4705" />
      <path
         d="m 47.828179,74.68363 q -2.240003,0 -4.000005,-0.933334 -1.733336,-0.960002 -2.720004,-2.613337 -0.986668,-1.653335 -0.986668,-3.760005 0,-2.133336 0.986668,-3.760005 0.986668,-1.653335 2.720004,-2.58667 1.760002,-0.933334 4.000005,-0.933334 2.080002,0 3.653338,0.853334 1.600002,0.826668 2.426669,2.453337 l -2.560003,1.493335 q -0.640001,-1.013335 -1.573335,-1.493335 -0.906668,-0.480001 -1.973336,-0.480001 -1.226668,0 -2.213336,0.533334 -0.986668,0.533334 -1.546669,1.546669 -0.560001,0.986668 -0.560001,2.373336 0,1.386669 0.560001,2.400003 0.560001,0.986668 1.546669,1.520002 0.986668,0.533334 2.213336,0.533334 1.066668,0 1.973336,-0.48 0.933334,-0.480001 1.573335,-1.493336 l 2.560003,1.493336 q -0.826667,1.600002 -2.426669,2.480003 -1.573336,0.853334 -3.653338,0.853334 z"
         id="path4707" />
      <path
         d="m 59.368863,71.323626 0.08,-4.186672 7.440009,-6.880009 h 4.000005 L 64.56887,66.60362 62.808868,68.070288 Z M 56.64886,74.496963 V 54.710272 h 3.333338 v 19.786691 z m 10.74668,0 -5.200006,-6.426675 2.106669,-2.66667 7.146676,9.093345 z"
         id="path4709" />
      <path
         d="m 79.705189,74.68363 q -2.373336,0 -4.160005,-0.933334 -1.760002,-0.960002 -2.74667,-2.613337 -0.960001,-1.653335 -0.960001,-3.760005 0,-2.133336 0.933334,-3.760005 0.960001,-1.653335 2.613337,-2.58667 1.680002,-0.933334 3.813338,-0.933334 2.080003,0 3.706671,0.906668 1.626669,0.906668 2.560004,2.560003 0.933334,1.653335 0.933334,3.893338 0,0.213334 -0.02667,0.480001 0,0.266667 -0.02667,0.506667 H 74.478516 v -2.213336 h 10.106679 l -1.306668,0.693334 q 0.02667,-1.226668 -0.506667,-2.160002 -0.533334,-0.933335 -1.466669,-1.466669 -0.906667,-0.533334 -2.106669,-0.533334 -1.226668,0 -2.160003,0.533334 -0.906668,0.533334 -1.440002,1.493335 -0.506667,0.933335 -0.506667,2.213336 v 0.533334 q 0,1.280002 0.586668,2.26667 0.586667,0.986668 1.653335,1.520002 1.066668,0.533334 2.453336,0.533334 1.200002,0 2.160003,-0.373334 0.960001,-0.373334 1.706669,-1.173335 l 1.786669,2.053336 q -0.960001,1.120002 -2.42667,1.733336 -1.440002,0.586667 -3.306671,0.586667 z"
         id="path4711" />
      <path
         d="m 94.958536,74.68363 q -2.34667,0 -3.626672,-1.200001 -1.280001,-1.226669 -1.280001,-3.600005 V 57.110275 H 93.3852 v 12.693349 q 0,1.013335 0.506668,1.573335 0.533334,0.560001 1.466668,0.560001 1.120002,0 1.866669,-0.586667 l 0.933335,2.373336 q -0.586668,0.48 -1.440002,0.720001 -0.853335,0.24 -1.760002,0.24 z M 87.705193,63.030282 v -2.66667 h 9.493345 v 2.66667 z"
         id="path4713" />
      <path
         d="m 105.30521,74.68363 q -1.78667,0 -3.44001,-0.453334 -1.62667,-0.48 -2.586669,-1.146668 l 1.279999,-2.533336 q 0.96,0.613334 2.29334,1.013334 1.33333,0.400001 2.66667,0.400001 1.57333,0 2.26667,-0.426668 0.72,-0.426667 0.72,-1.146668 0,-0.586667 -0.48,-0.880001 -0.48,-0.32 -1.25334,-0.48 -0.77333,-0.160001 -1.73333,-0.293334 -0.93334,-0.133334 -1.89334,-0.346667 -0.93333,-0.240001 -1.70667,-0.666668 -0.77333,-0.453334 -1.25333,-1.200001 -0.480001,-0.746668 -0.480001,-1.973336 0,-1.360002 0.773331,-2.34667 0.77334,-1.013334 2.16001,-1.546668 1.41333,-0.560001 3.33333,-0.560001 1.44,0 2.90667,0.32 1.46667,0.320001 2.42667,0.906668 l -1.28,2.533337 q -1.01333,-0.613334 -2.05333,-0.826668 -1.01334,-0.24 -2.02667,-0.24 -1.52001,0 -2.26667,0.453334 -0.72,0.453334 -0.72,1.146668 0,0.640001 0.48,0.960001 0.48,0.32 1.25333,0.506667 0.77334,0.186667 1.70667,0.320001 0.96,0.106666 1.89334,0.346667 0.93333,0.24 1.70666,0.666667 0.80001,0.400001 1.28001,1.146668 0.48,0.746668 0.48,1.94667 0,1.333335 -0.8,2.320002 -0.77334,0.986668 -2.21334,1.546669 -1.44,0.533334 -3.44,0.533334 z"
         id="path4715" />
      <path
         d="m 130.07853,60.096945 q 1.70667,0 3.04001,0.666667 1.36,0.666668 2.13333,2.053336 0.77334,1.360002 0.77334,3.520005 v 8.16001 h -3.33334 V 66.76362 q 0,-1.893336 -0.90667,-2.82667 -0.88,-0.933335 -2.48,-0.933335 -1.17334,0 -2.08,0.480001 -0.90667,0.480001 -1.41334,1.440002 -0.48,0.933334 -0.48,2.373336 v 7.200009 h -3.33334 V 54.710272 h 3.33334 v 9.386678 l -0.72,-1.173335 q 0.74667,-1.360002 2.16,-2.080002 1.44,-0.746668 3.30667,-0.746668 z"
         id="path4717" />
      <path
         d="m 146.99303,74.68363 q -2.37334,0 -4.16001,-0.933334 -1.76,-0.960002 -2.74667,-2.613337 -0.96,-1.653335 -0.96,-3.760005 0,-2.133336 0.93334,-3.760005 0.96,-1.653335 2.61333,-2.58667 1.68,-0.933334 3.81334,-0.933334 2.08,0 3.70667,0.906668 1.62667,0.906668 2.56,2.560003 0.93334,1.653335 0.93334,3.893338 0,0.213334 -0.0267,0.480001 0,0.266667 -0.0267,0.506667 h -11.86669 v -2.213336 h 10.10668 l -1.30666,0.693334 q 0.0267,-1.226668 -0.50667,-2.160002 -0.53334,-0.933335 -1.46667,-1.466669 -0.90667,-0.533334 -2.10667,-0.533334 -1.22667,0 -2.16,0.533334 -0.90667,0.533334 -1.44,1.493335 -0.50667,0.933335 -0.50667,2.213336 v 0.533334 q 0,1.280002 0.58667,2.26667 0.58666,0.986668 1.65333,1.520002 1.06667,0.533334 2.45334,0.533334 1.2,0 2.16,-0.373334 0.96,-0.373334 1.70667,-1.173335 l 1.78667,2.053336 q -0.96,1.120002 -2.42667,1.733336 -1.44,0.586667 -3.30667,0.586667 z"
         id="path4719" />
      <path
         d="M 156.88637,74.496963 V 60.256945 h 3.17334 v 3.920005 l -0.37334,-1.146668 q 0.64001,-1.440002 2.00001,-2.186669 1.38667,-0.746668 3.44,-0.746668 v 3.173337 q -0.21333,-0.05333 -0.4,-0.05333 -0.18667,-0.02667 -0.37333,-0.02667 -1.89334,0 -3.01334,1.120002 -1.12,1.093334 -1.12,3.280004 v 6.906675 z"
         id="path4721" />
      <path
         d="m 174.5071,74.68363 q -2.37334,0 -4.16001,-0.933334 -1.76,-0.960002 -2.74667,-2.613337 -0.96,-1.653335 -0.96,-3.760005 0,-2.133336 0.93333,-3.760005 0.96001,-1.653335 2.61334,-2.58667 1.68,-0.933334 3.81334,-0.933334 2.08,0 3.70667,0.906668 1.62667,0.906668 2.56,2.560003 0.93334,1.653335 0.93334,3.893338 0,0.213334 -0.0267,0.480001 0,0.266667 -0.0267,0.506667 h -11.86668 v -2.213336 h 10.10668 l -1.30667,0.693334 q 0.0267,-1.226668 -0.50666,-2.160002 -0.53334,-0.933335 -1.46667,-1.466669 -0.90667,-0.533334 -2.10667,-0.533334 -1.22667,0 -2.16,0.533334 -0.90667,0.533334 -1.44001,1.493335 -0.50666,0.933335 -0.50666,2.213336 v 0.533334 q 0,1.280002 0.58666,2.26667 0.58667,0.986668 1.65334,1.520002 1.06667,0.533334 2.45334,0.533334 1.2,0 2.16,-0.373334 0.96,-0.373334 1.70667,-1.173335 l 1.78667,2.053336 q -0.96,1.120002 -2.42667,1.733336 -1.44001,0.586667 -3.30667,0.586667 z"
         id="path4723" />
    </g>
  </g>
</svg>
