<?xml version="1.0" encoding="UTF-8" standalone="no"?>
<!-- Created with Inkscape (http://www.inkscape.org/) -->

<svg
   viewBox="0 0 186.53346 101.22446"
   version="1.1"
   id="svg5"
   inkscape:version="1.2.2 (732a01da63, 2022-12-09)"
   sodipodi:docname="ticketsButton2.svg"
   xmlns:inkscape="http://www.inkscape.org/namespaces/inkscape"
   xmlns:sodipodi="http://sodipodi.sourceforge.net/DTD/sodipodi-0.dtd"
   xmlns="http://www.w3.org/2000/svg"
   xmlns:svg="http://www.w3.org/2000/svg">
  <sodipodi:namedview
     id="namedview7"
     pagecolor="#ffffff"
     bordercolor="#000000"
     borderopacity="0.25"
     inkscape:showpageshadow="2"
     inkscape:pageopacity="0.0"
     inkscape:pagecheckerboard="0"
     inkscape:deskcolor="#d1d1d1"
     inkscape:document-units="mm"
     showgrid="false"
     inkscape:zoom="4.2179992"
     inkscape:cx="110.59746"
     inkscape:cy="68.278818"
     inkscape:window-width="1536"
     inkscape:window-height="801"
     inkscape:window-x="-8"
     inkscape:window-y="-8"
     inkscape:window-maximized="1"
     inkscape:current-layer="layer1" />
  <defs
     id="defs2">
    <rect
       x="69.73838"
       y="292.36475"
       width="109.97206"
       height="166.29921"
       id="rect167" />
  </defs>
  <g
     inkscape:label="Layer 1"
     inkscape:groupmode="layer"
     id="layer1"
     transform="translate(-17.133161,-82.871276)">
    <text
       xml:space="preserve"
       style="font-size:3.175px;fill:#fcee21;stroke-width:0.264583"
       x="30.870968"
       y="109.99999"
       id="text113"><tspan
         sodipodi:role="line"
         id="tspan111"
         style="stroke-width:0.264583"
         x="30.870968"
         y="109.99999" /></text>
    <text
       xml:space="preserve"
       transform="scale(0.26458333)"
       id="text165"
       style="font-style:normal;font-variant:normal;font-weight:600;font-stretch:normal;font-family:Montserrat;-inkscape-font-specification:'Montserrat Semi-Bold';white-space:pre;shape-inside:url(#rect167);fill:#fcee21" />
    <text
       xml:space="preserve"
       style="font-style:normal;font-variant:normal;font-weight:600;font-stretch:normal;font-size:3.175px;font-family:Montserrat;-inkscape-font-specification:'Montserrat Semi-Bold';fill:#fcee21;stroke-width:0.264583"
       x="52.516129"
       y="131.29031"
       id="text173"><tspan
         sodipodi:role="line"
         id="tspan171"
         style="stroke-width:0.264583"
         x="52.516129"
         y="131.29031">test</tspan></text>
    <rect
       style="fill:#495b41;fill-opacity:1;stroke-width:0.264583"
       id="rect1220"
       width="176.13802"
       height="91.832642"
       x="23.083614"
       y="87.8181"
       ry="23.585432" />
    <rect
       style="fill:#000000;fill-opacity:0;stroke:#3b4a35;stroke-width:8.89;stroke-dasharray:none;stroke-opacity:1"
       id="rect1222"
       width="177.64346"
       height="92.334457"
       x="21.578161"
       y="87.316277"
       ry="23.585432" />
    <g
       aria-label="Purchase tickets here!"
       transform="matrix(0.82350398,0,0,0.82350398,27.557719,90.03482)"
       id="text12122"
       style="font-weight:600;font-size:29.9861px;font-family:Montserrat;-inkscape-font-specification:'Montserrat Semi-Bold';text-align:center;text-anchor:middle;white-space:pre;inline-size:209.802;fill:#ffffff;stroke-width:8.89">
      <path
         d="M 31.68227,45.163593 V 24.173324 h 8.635996 q 2.788708,0 4.76779,0.899583 2.009069,0.899583 3.088568,2.578804 1.0795,1.679222 1.0795,3.988152 0,2.308929 -1.0795,3.988151 -1.079499,1.679221 -3.088568,2.578804 -1.979082,0.899583 -4.76779,0.899583 h -6.476997 l 1.739194,-1.829152 v 7.886344 z m 3.898193,-7.466538 -1.739194,-1.889125 h 6.297081 q 2.578804,0 3.868206,-1.079499 1.319389,-1.109486 1.319389,-3.088568 0,-2.009069 -1.319389,-3.088569 -1.289402,-1.079499 -3.868206,-1.079499 h -6.297081 l 1.739194,-1.919111 z"
         id="path4133" />
      <path
         d="m 59.869198,45.373496 q -2.039055,0 -3.598332,-0.749652 -1.559277,-0.779639 -2.428874,-2.338916 -0.869597,-1.589263 -0.869597,-3.988151 v -9.145761 h 3.748263 v 8.635997 q 0,2.158999 0.959555,3.238499 0.989541,1.049513 2.788707,1.049513 1.319388,0 2.278944,-0.53975 0.989541,-0.53975 1.529291,-1.619249 0.569736,-1.0795 0.569736,-2.668763 v -8.096247 h 3.748262 v 16.012577 h -3.568346 v -4.317998 l 0.629708,1.319388 q -0.809624,1.559278 -2.368902,2.398888 -1.559277,0.809625 -3.418415,0.809625 z"
         id="path4135" />
      <path
         d="M 73.512866,45.163593 V 29.151016 h 3.568346 v 4.407957 l -0.419805,-1.289402 q 0.719666,-1.61925 2.248957,-2.458861 1.559277,-0.83961 3.868207,-0.83961 v 3.568346 q -0.239889,-0.05997 -0.449792,-0.05997 -0.209902,-0.02999 -0.419805,-0.02999 -2.129013,0 -3.388429,1.259416 -1.259416,1.22943 -1.259416,3.688291 v 7.766399 z"
         id="path4137" />
      <path
         d="m 93.147066,45.373496 q -2.518833,0 -4.497915,-1.049513 -1.949097,-1.0795 -3.058582,-2.938638 -1.109486,-1.859138 -1.109486,-4.22804 0,-2.398888 1.109486,-4.22804 1.109485,-1.859138 3.058582,-2.908652 1.979082,-1.049513 4.497915,-1.049513 2.338916,0 4.108095,0.959555 1.799166,0.929569 2.728735,2.758721 l -2.878665,1.679222 q -0.719666,-1.139472 -1.76918,-1.679222 -1.019527,-0.53975 -2.218971,-0.53975 -1.379361,0 -2.488847,0.599722 -1.109485,0.599722 -1.739193,1.739194 -0.629708,1.109486 -0.629708,2.668763 0,1.559277 0.629708,2.698749 0.629708,1.109485 1.739193,1.709207 1.109486,0.599722 2.488847,0.599722 1.199444,0 2.218971,-0.539749 1.049514,-0.53975 1.76918,-1.679222 l 2.878665,1.679222 q -0.929569,1.799166 -2.728735,2.788707 -1.769179,0.959555 -4.108095,0.959555 z"
         id="path4139" />
      <path
         d="m 112.15151,28.9711 q 1.91911,0 3.41842,0.749652 1.52929,0.749653 2.39888,2.30893 0.8696,1.529291 0.8696,3.958165 v 9.175746 h -3.74826 v -8.695968 q 0,-2.129014 -1.01953,-3.178527 -0.98954,-1.049513 -2.78871,-1.049513 -1.31938,0 -2.33891,0.539749 -1.01953,0.53975 -1.58927,1.61925 -0.53974,1.049513 -0.53974,2.668762 v 8.096247 h -3.74827 V 22.913908 h 3.74827 v 10.555107 l -0.80963,-1.319389 q 0.83961,-1.529291 2.42887,-2.338916 1.61925,-0.83961 3.71828,-0.83961 z"
         id="path4141" />
      <path
         d="m 133.47161,45.163593 v -3.238498 l -0.2099,-0.689681 v -5.667372 q 0,-1.649236 -0.98955,-2.548819 -0.98954,-0.929569 -2.99861,-0.929569 -1.34937,0 -2.66876,0.419805 -1.2894,0.419806 -2.18898,1.169458 l -1.46932,-2.728735 q 1.2894,-0.989541 3.05858,-1.469319 1.79917,-0.509763 3.71828,-0.509763 3.47838,0 5.36751,1.679221 1.91911,1.649236 1.91911,5.127623 v 9.385649 z m -5.03767,0.209903 q -1.79916,0 -3.14854,-0.599722 -1.34937,-0.629708 -2.09902,-1.709208 -0.71967,-1.109485 -0.71967,-2.488846 0,-1.349374 0.62971,-2.428874 0.65969,-1.0795 2.12901,-1.709208 1.46932,-0.629708 3.89819,-0.629708 h 4.64785 v 2.488847 h -4.37797 q -1.91911,0 -2.57881,0.629708 -0.65969,0.599722 -0.65969,1.499305 0,1.019527 0.80962,1.619249 0.80963,0.599722 2.24896,0.599722 1.37936,0 2.45886,-0.629708 1.10949,-0.629708 1.58927,-1.859138 l 0.6297,2.248957 q -0.53975,1.409347 -1.94909,2.188985 -1.37936,0.779639 -3.50838,0.779639 z"
         id="path4143" />
      <path
         d="m 146.75546,45.373496 q -2.00906,0 -3.8682,-0.509764 -1.82915,-0.539749 -2.90865,-1.289402 l 1.43933,-2.848679 q 1.0795,0.68968 2.5788,1.139471 1.49931,0.449792 2.99861,0.449792 1.76918,0 2.54882,-0.479778 0.80963,-0.479777 0.80963,-1.289402 0,-0.659694 -0.53975,-0.989541 -0.53975,-0.359833 -1.40935,-0.53975 -0.8696,-0.179917 -1.9491,-0.329847 -1.04951,-0.149931 -2.12901,-0.389819 -1.04951,-0.269875 -1.91911,-0.749653 -0.8696,-0.509764 -1.40935,-1.349374 -0.53975,-0.839611 -0.53975,-2.218972 0,-1.529291 0.8696,-2.638776 0.8696,-1.139472 2.42887,-1.739194 1.58927,-0.629708 3.74827,-0.629708 1.61925,0 3.26848,0.359833 1.64924,0.359833 2.72874,1.019527 l -1.43934,2.84868 q -1.13947,-0.689681 -2.30893,-0.929569 -1.13947,-0.269875 -2.27894,-0.269875 -1.70921,0 -2.54882,0.509763 -0.80962,0.509764 -0.80962,1.289403 0,0.719666 0.53975,1.079499 0.53975,0.359833 1.40934,0.569736 0.8696,0.209903 1.91911,0.359833 1.0795,0.119945 2.12902,0.38982 1.04951,0.269875 1.91911,0.749652 0.89958,0.449792 1.43933,1.289402 0.53975,0.839611 0.53975,2.188986 0,1.499305 -0.89958,2.60879 -0.8696,1.109486 -2.48885,1.739194 -1.61925,0.599722 -3.86821,0.599722 z"
         id="path4145" />
      <path
         d="m 164.77709,45.373496 q -2.66876,0 -4.67783,-1.049513 -1.97908,-1.0795 -3.08857,-2.938638 -1.0795,-1.859138 -1.0795,-4.22804 0,-2.398888 1.04952,-4.22804 1.0795,-1.859138 2.93864,-2.908652 1.88912,-1.049513 4.28801,-1.049513 2.33891,0 4.16807,1.019527 1.82915,1.019527 2.87866,2.878666 1.04951,1.859138 1.04951,4.37797 0,0.239889 -0.03,0.53975 0,0.299861 -0.03,0.569736 h -13.34381 v -2.488846 h 11.36473 l -1.46932,0.779638 q 0.03,-1.37936 -0.56973,-2.428874 -0.59973,-1.049513 -1.64924,-1.649235 -1.01953,-0.599722 -2.3689,-0.599722 -1.37936,0 -2.42888,0.599722 -1.01952,0.599722 -1.61925,1.679221 -0.56973,1.049514 -0.56973,2.488846 v 0.599722 q 0,1.439333 0.65969,2.548819 0.6597,1.109485 1.85914,1.709207 1.19944,0.599722 2.75872,0.599722 1.34938,0 2.42888,-0.419805 1.0795,-0.419805 1.91911,-1.319388 l 2.00907,2.308929 q -1.0795,1.259417 -2.72874,1.949097 -1.61925,0.659694 -3.71828,0.659694 z"
         id="path4147" />
      <path
         d="m 14.321787,82.856121 q -2.638777,0 -4.078109,-1.349374 Q 8.8043449,80.127386 8.8043449,77.458624 V 63.095282 h 3.7482621 v 14.273383 q 0,1.139472 0.569736,1.76918 0.599722,0.629708 1.649236,0.629708 1.259416,0 2.099027,-0.659694 l 1.049513,2.668763 q -0.659694,0.53975 -1.619249,0.809625 -0.959555,0.269874 -1.979083,0.269874 z M 6.1655682,69.752196 v -2.99861 H 16.84062 v 2.99861 z"
         id="path4149" />
      <path
         d="M 21.008681,82.646219 V 66.633642 h 3.748263 v 16.012577 z m 1.889124,-18.651354 q -1.049513,0 -1.739193,-0.659694 -0.659695,-0.659694 -0.659695,-1.589263 0,-0.959556 0.659695,-1.589264 0.68968,-0.659694 1.739193,-0.659694 1.049514,0 1.709208,0.629708 0.68968,0.599722 0.68968,1.529291 0,0.989542 -0.659694,1.679222 -0.659694,0.659694 -1.739194,0.659694 z"
         id="path4151" />
      <path
         d="m 37.021245,82.856121 q -2.518832,0 -4.497915,-1.049513 -1.949096,-1.0795 -3.058582,-2.938638 -1.109485,-1.859138 -1.109485,-4.22804 0,-2.398888 1.109485,-4.22804 1.109486,-1.859138 3.058582,-2.908651 1.979083,-1.049514 4.497915,-1.049514 2.338916,0 4.108096,0.959555 1.799166,0.929569 2.728735,2.758721 l -2.878666,1.679222 q -0.719666,-1.139472 -1.769179,-1.679222 -1.019528,-0.539749 -2.218972,-0.539749 -1.37936,0 -2.488846,0.599722 -1.109486,0.599722 -1.739194,1.739193 -0.629708,1.109486 -0.629708,2.668763 0,1.559277 0.629708,2.698749 0.629708,1.109486 1.739194,1.709208 1.109486,0.599722 2.488846,0.599722 1.199444,0 2.218972,-0.53975 1.049513,-0.53975 1.769179,-1.679222 l 2.878666,1.679222 q -0.929569,1.799166 -2.728735,2.788707 -1.76918,0.959555 -4.108096,0.959555 z"
         id="path4153" />
      <path
         d="m 49.998484,79.077873 0.08996,-4.707818 8.366121,-7.736413 h 4.497915 l -7.106705,7.136691 -1.979083,1.649236 z m -3.058582,3.568346 V 60.396533 h 3.748263 v 22.249686 z m 12.084398,0 -5.847289,-7.22665 2.368902,-2.99861 8.036274,10.22526 z"
         id="path4155" />
      <path
         d="m 72.86622,82.856121 q -2.668763,0 -4.677831,-1.049513 -1.979083,-1.0795 -3.088569,-2.938638 -1.079499,-1.859138 -1.079499,-4.22804 0,-2.398888 1.049513,-4.22804 1.0795,-1.859138 2.938638,-2.908651 1.889124,-1.049514 4.288012,-1.049514 2.338916,0 4.168068,1.019528 1.829152,1.019527 2.878665,2.878665 1.049514,1.859138 1.049514,4.377971 0,0.239888 -0.02999,0.539749 0,0.299861 -0.02999,0.569736 H 66.988945 v -2.488846 h 11.364731 l -1.469319,0.779639 q 0.02999,-1.379361 -0.569736,-2.428874 -0.599722,-1.049514 -1.649235,-1.649236 -1.019527,-0.599722 -2.368902,-0.599722 -1.37936,0 -2.428874,0.599722 -1.019527,0.599722 -1.619249,1.679222 -0.569736,1.049513 -0.569736,2.488846 v 0.599722 q 0,1.439333 0.659694,2.548818 0.659694,1.109486 1.859138,1.709208 1.199444,0.599722 2.758721,0.599722 1.349375,0 2.428874,-0.419805 1.0795,-0.419806 1.919111,-1.319389 l 2.009068,2.30893 q -1.079499,1.259416 -2.728735,1.949096 -1.619249,0.659694 -3.718276,0.659694 z"
         id="path4157" />
      <path
         d="m 90.018259,82.856121 q -2.638776,0 -4.078109,-1.349374 -1.439333,-1.379361 -1.439333,-4.048123 V 63.095282 h 3.748263 v 14.273383 q 0,1.139472 0.569735,1.76918 0.599722,0.629708 1.649236,0.629708 1.259416,0 2.099027,-0.659694 l 1.049513,2.668763 q -0.659694,0.53975 -1.619249,0.809625 -0.959555,0.269874 -1.979083,0.269874 z M 81.86204,69.752196 v -2.99861 h 10.675052 v 2.99861 z"
         id="path4159" />
      <path
         d="m 101.65286,82.856121 q -2.009065,0 -3.868203,-0.509763 -1.829152,-0.53975 -2.908652,-1.289403 l 1.439333,-2.848679 q 1.079499,0.68968 2.578804,1.139472 1.499308,0.449791 2.998608,0.449791 1.76918,0 2.54882,-0.479777 0.80963,-0.479778 0.80963,-1.289403 0,-0.659694 -0.53975,-0.989541 -0.53975,-0.359833 -1.40935,-0.53975 -0.8696,-0.179916 -1.9491,-0.329847 -1.04951,-0.14993 -2.129011,-0.389819 -1.049513,-0.269875 -1.91911,-0.749652 -0.869597,-0.509764 -1.409347,-1.349375 -0.539749,-0.839611 -0.539749,-2.218971 0,-1.529291 0.869597,-2.638777 0.869596,-1.139472 2.428874,-1.739194 1.589266,-0.629708 3.748266,-0.629708 1.61925,0 3.26848,0.359833 1.64924,0.359834 2.72874,1.019528 l -1.43934,2.848679 q -1.13947,-0.68968 -2.30893,-0.929569 -1.13947,-0.269875 -2.27894,-0.269875 -1.70921,0 -2.548819,0.509764 -0.809624,0.509764 -0.809624,1.289402 0,0.719667 0.53975,1.0795 0.539753,0.359833 1.409343,0.569736 0.8696,0.209902 1.91911,0.359833 1.0795,0.119944 2.12902,0.389819 1.04951,0.269875 1.91911,0.749653 0.89958,0.449791 1.43933,1.289402 0.53975,0.839611 0.53975,2.188985 0,1.499305 -0.89958,2.608791 -0.8696,1.109485 -2.48885,1.739193 -1.61925,0.599722 -3.86821,0.599722 z"
         id="path4161" />
      <path
         d="m 129.5099,66.453725 q 1.91911,0 3.41842,0.749653 1.52929,0.749652 2.39888,2.308929 0.8696,1.529291 0.8696,3.958165 v 9.175747 h -3.74826 V 73.95025 q 0,-2.129013 -1.01953,-3.178527 -0.98954,-1.049513 -2.78871,-1.049513 -1.31938,0 -2.33891,0.53975 -1.01953,0.53975 -1.58926,1.619249 -0.53975,1.049514 -0.53975,2.668763 v 8.096247 h -3.74827 V 60.396533 h 3.74827 V 70.95164 l -0.80963,-1.319388 q 0.83961,-1.529291 2.42887,-2.338916 1.61925,-0.839611 3.71828,-0.839611 z"
         id="path4163" />
      <path
         d="m 148.52986,82.856121 q -2.66876,0 -4.67783,-1.049513 -1.97908,-1.0795 -3.08857,-2.938638 -1.0795,-1.859138 -1.0795,-4.22804 0,-2.398888 1.04952,-4.22804 1.0795,-1.859138 2.93863,-2.908651 1.88913,-1.049514 4.28802,-1.049514 2.33891,0 4.16806,1.019528 1.82916,1.019527 2.87867,2.878665 1.04951,1.859138 1.04951,4.377971 0,0.239888 -0.03,0.539749 0,0.299861 -0.03,0.569736 h -13.34381 v -2.488846 h 11.36473 l -1.46932,0.779639 q 0.03,-1.379361 -0.56974,-2.428874 -0.59972,-1.049514 -1.64923,-1.649236 -1.01953,-0.599722 -2.3689,-0.599722 -1.37936,0 -2.42888,0.599722 -1.01952,0.599722 -1.61925,1.679222 -0.56973,1.049513 -0.56973,2.488846 v 0.599722 q 0,1.439333 0.65969,2.548818 0.6597,1.109486 1.85914,1.709208 1.19944,0.599722 2.75872,0.599722 1.34938,0 2.42888,-0.419805 1.07949,-0.419806 1.91911,-1.319389 l 2.00906,2.30893 q -1.0795,1.259416 -2.72873,1.949096 -1.61925,0.659694 -3.71828,0.659694 z"
         id="path4165" />
      <path
         d="M 159.6547,82.646219 V 66.633642 h 3.56835 v 4.407956 l -0.41981,-1.289402 q 0.71967,-1.619249 2.24896,-2.45886 1.55928,-0.839611 3.86821,-0.839611 v 3.568346 q -0.23989,-0.05997 -0.44979,-0.05997 -0.20991,-0.02999 -0.41981,-0.02999 -2.12901,0 -3.38843,1.259416 -1.25941,1.22943 -1.25941,3.68829 v 7.7664 z"
         id="path4167" />
      <path
         d="m 179.46881,82.856121 q -2.66876,0 -4.67783,-1.049513 -1.97908,-1.0795 -3.08857,-2.938638 -1.0795,-1.859138 -1.0795,-4.22804 0,-2.398888 1.04952,-4.22804 1.0795,-1.859138 2.93863,-2.908651 1.88913,-1.049514 4.28802,-1.049514 2.33891,0 4.16806,1.019528 1.82916,1.019527 2.87867,2.878665 1.04951,1.859138 1.04951,4.377971 0,0.239888 -0.03,0.539749 0,0.299861 -0.03,0.569736 h -13.34381 v -2.488846 h 11.36473 l -1.46932,0.779639 q 0.03,-1.379361 -0.56974,-2.428874 -0.59972,-1.049514 -1.64923,-1.649236 -1.01953,-0.599722 -2.3689,-0.599722 -1.37936,0 -2.42888,0.599722 -1.01952,0.599722 -1.61925,1.679222 -0.56973,1.049513 -0.56973,2.488846 v 0.599722 q 0,1.439333 0.65969,2.548818 0.6597,1.109486 1.85914,1.709208 1.19944,0.599722 2.75872,0.599722 1.34938,0 2.42887,-0.419805 1.0795,-0.419806 1.91912,-1.319389 l 2.00906,2.30893 q -1.0795,1.259416 -2.72873,1.949096 -1.61925,0.659694 -3.71828,0.659694 z"
         id="path4169" />
      <path
         d="m 190.83354,75.689444 -0.71966,-14.033495 h 4.43794 l -0.74965,14.033495 z m 1.49931,7.166677 q -1.04952,0 -1.7392,-0.68968 -0.68968,-0.68968 -0.68968,-1.649235 0,-0.959555 0.68968,-1.61925 0.68968,-0.68968 1.7392,-0.68968 1.04951,0 1.7092,0.68968 0.6597,0.659695 0.6597,1.61925 0,0.959555 -0.6597,1.649235 -0.65969,0.68968 -1.7092,0.68968 z"
         id="path4171" />
    </g>
  </g>
</svg>
