<?xml version="1.0" encoding="UTF-8"?><svg id="Team" xmlns="http://www.w3.org/2000/svg" xmlns:xlink="http://www.w3.org/1999/xlink" viewBox="0 0 286.72 84.33"><defs><style>.cls-1{fill:#fff;}.cls-2{fill:#f59e1c;}.cls-3{fill:#ffcf08;}.cls-4{clip-path:url(#clippath-1);}.cls-5{clip-path:url(#clippath);}.cls-6{fill:#ffce00;}.cls-7{fill:none;}.cls-8{fill:#cb811f;}.cls-9{fill:#1d1d1b;}</style><clipPath id="clippath"><path class="cls-7" d="M174.84,45c0-2.9,1.26-5.47,3.19-7.07,1.31-1.09,2.93-1.73,4.69-1.73s3.38,.64,4.69,1.73c1.94,1.6,3.19,4.17,3.19,7.07,0,1.59-.38,3.09-1.05,4.38-1.83,2.61-11.92,2.91-13.67,0-.67-1.29-1.05-2.78-1.05-4.38Z"/></clipPath><clipPath id="clippath-1"><path class="cls-7" d="M203.72,44.93c0-2.9-1.26-5.47-3.19-7.07-1.31-1.09-2.93-1.73-4.69-1.73-1.76,0-3.38,.64-4.69,1.73-1.94,1.6-3.19,4.17-3.19,7.07,0,1.59,.38,3.09,1.05,4.38,1.65,2.69,10.27,.65,14.16-2.25,.67-1.29,.57-.54,.57-2.13Z"/></clipPath></defs><g><path class="cls-2" d="M95.82,57.85c.44,.02,1.62-.11,1.16,.67-11.81,13.87,11.47,33.54,19.67,14.47,4.89,12.63,22.44,10.25,18.95-4.36,5.52,3.43,12.1-3.05,10.05-8.78-.06-.46-1.09-1.33-.18-1.54,5.99-.36,7.17-7.1,5.51-11.57,2.25-1.56,4.26-3.83,4.21-6.71,.37-3.83-2.21-6.58-5.45-7.6-.21-.11-.29-.38-.16-.58,1.21-1.68,1.42-3.66,1.24-5.64-.09-4.95-4.92-9.18-9.85-7.69-.27,.08-.54-.14-.5-.41,.63-2.74,.69-5.66-.28-8.34-2.64-7.92-12.88-9.48-16.6-1.5-5.05-14.61-25.65-6.31-20.22,7.69-11.46-6.19-23.87,11.5-12.4,19.08,.36,.29,.06,.71-.32,.77-3.5,1.15-5.63,3.6-6.55,7.11-1.69,7.26,4.41,14.59,11.72,14.91Zm6.9-26.79c-.1,.41-.28,1.11,.31,1.23-.19,.23-.23,.57,0,.77-.16,.5-.37,.91-.89,1.14-.51-.85-.05-2.51,.58-3.14Zm1.76-1.04c-.11,.24-.21,.47-.32,.71h0c.11-.24,.22-.47,.32-.71Zm.2,4.07c-.26,.71-.44,1.45-.63,2.17,.14-.58,.29-1.16,.47-1.74,.05-.15,.11-.29,.16-.43Zm25.04,28.72c.38-.28,.75-.56,1.11-.86-.36,.3-.73,.59-1.11,.86Zm-6.55,3.49c.39-.08,.76-.18,1.14-.29-.33,.11-.67,.19-1.01,.27-.04,.01-.09,.02-.13,.03Zm-1.2,.2c.3-.04,.61-.09,.9-.14-.27,.06-.55,.1-.83,.14-.03,0-.05,0-.08,0Zm-1.3,.11c.31-.01,.62-.03,.92-.06-.28,.03-.57,.06-.86,.06h-.07Zm-16.37-13.11c.17,.47,.34,.93,.53,1.39-.19-.46-.37-.92-.53-1.39Zm1.13-19.04s-.02-.02-.03-.03c.32-.75,.61-1.51,.86-2.29h.02c3.99-11.82,19.1-19.48,28.38-8.46h0c.18-.27,.36-.51,.54-.78,.87,1.15,1.64,2.37,2.28,3.66,.55,.81,.48,3.39,2.03,2.39,.11,0,.23-.01,.33-.07,12.41,2.49,9.8,30.18-3.58,28.01h0c-.52-.15-1.03-.37-1.52-.66-.09,.1-.18,.23-.27,.38,.56,.18,1.07,.5,1.63,.69-.09,.2-.18,.39-.22,.47,.12-.26-.21-.55-.41-.49-.46,.49-.92-.8-1.4,.02-8.74,12.51-24.97,9.39-28.91-5.24-1.74-5.88-1.52-11.76,.28-17.59Zm-2.58,4.97c.06-.55,.14-1.09,.23-1.64-.09,.54-.17,1.09-.23,1.64Z"/><path class="cls-6" d="M86.41,51.37c.2,.31,.4,.61,.63,.9-.22-.29-.43-.59-.63-.9Zm18.07-21.34c-.11,.24-.21,.47-.32,.71h0c.11-.24,.21-.47,.32-.71Zm11.56,40.21s-.02,.07-.03,.11c.01-.04,.02-.07,.03-.11,0-.02,.02-.04,.03-.06-.02,.02-.02,.04-.03,.06Zm23.01-49.43s-.04,.05-.06,.08c.02-.03,.04-.06,.06-.08,.02-.03,.04-.06,.06-.09l-.07,.09Zm9.25,12.15s-.03-.01-.05-.02c.02,.01,.03,.02,.05,.02,.06,.02,.12,.04,.18,.06-.06-.02-.12-.04-.18-.06Zm.37,13.23s-.04-.09-.06-.13c.02,.05,.03,.09,.06,.13,0,0,.01,.02,.02,.02v-.02Zm.28-.67s-.05,0-.07,.01c.03,0,.06,0,.09,0,0,0-.02,0-.03,0Z"/><path class="cls-6" d="M131.2,61.65c-1.91,1.65-4.03,2.93-6.44,3.67,2.41-.75,4.53-2.02,6.44-3.67Z"/><path class="cls-6" d="M103.1,37.79c.06-.34,.12-.67,.18-1.01-.02,.11-.04,.21-.06,.32-.05,.23-.09,.46-.12,.69Z"/><path class="cls-6" d="M102.86,39.43c.07-.55,.14-1.09,.23-1.64-.09,.54-.17,1.09-.23,1.64Z"/><path class="cls-6" d="M129.83,20.93c.13,.12,.26,.25,.39,.38h0c-.13-.13-.25-.25-.39-.38Z"/><path class="cls-6" d="M110.77,21.15c-.33,.29-.66,.58-.97,.89,.31-.31,.64-.61,.97-.89Z"/><path class="cls-6" d="M107.95,24.13c.05-.07,.1-.13,.15-.2-.06,.07-.11,.14-.17,.22,0,0,.01-.01,.02-.02Z"/><path class="cls-6" d="M107.72,24.43c-.08,.11-.17,.22-.24,.33,.07-.1,.14-.2,.22-.3l.02-.03Z"/><path class="cls-6" d="M86.41,51.37c.2,.31,.4,.61,.63,.9-.22-.29-.43-.59-.63-.9Zm29.63,18.87s-.02,.07-.03,.11c.01-.04,.02-.07,.03-.11,0-.02,.02-.04,.03-.06-.02,.02-.02,.04-.03,.06Zm23.01-49.43s-.04,.05-.06,.08c.02-.03,.04-.06,.06-.08,.02-.03,.04-.06,.06-.09l-.07,.09Zm9.25,12.15s-.03-.01-.05-.02c.02,.01,.03,.02,.05,.02,.06,.02,.12,.04,.18,.06-.06-.02-.12-.04-.18-.06Z"/><path class="cls-6" d="M126.19,17.67c.12,.02,.25,.05,.37,.08-.05-.01-.09-.02-.14-.03-.08-.02-.15-.03-.23-.05Zm.23,.05c-.08-.02-.15-.03-.23-.05,.12,.02,.25,.05,.37,.08-.05-.01-.09-.02-.14-.03Zm7.9,39.14c-.08,.14-.17,.29-.25,.44,.48-.82,.94,.47,1.4-.02,.04-.04,.28,.05,.35,.13,.07,.08,.09,.25,.06,.36,.03-.08,.13-.27,.22-.47-.28-.11-.55-.23-.82-.34-.27-.11-.52-.29-.81-.35-.05,.08-.1,.16-.15,.25Z"/><path class="cls-6" d="M134.32,56.85c-.08,.14-.17,.29-.25,.44,.48-.82,.94,.47,1.4-.02,.04-.04,.28,.05,.35,.13,.07,.08,.09,.25,.06,.36,.03-.08,.13-.27,.22-.47-.28-.11-.55-.23-.82-.34-.27-.11-.52-.29-.81-.35-.05,.08-.1,.16-.15,.25Z"/><path class="cls-6" d="M131.2,61.65c-1.91,1.65-4.03,2.93-6.44,3.67,2.41-.75,4.53-2.02,6.44-3.67Z"/><path class="cls-6" d="M129.83,20.93c.13,.12,.26,.25,.39,.38h0c-.13-.13-.25-.25-.39-.38Z"/><path class="cls-6" d="M110.77,21.15c-.33,.29-.66,.58-.97,.89,.31-.31,.64-.61,.97-.89Z"/><path class="cls-6" d="M104.53,34.53h0s.03-.09,.05-.14c.04-.1,.08-.2,.11-.3-.05,.14-.11,.29-.16,.43-.17,.58-.33,1.16-.47,1.74,.14-.58,.3-1.16,.47-1.73Zm-.37-3.79h0c.11-.24,.21-.47,.32-.71-.11,.24-.21,.47-.32,.71Zm-1.29,8.69c.07-.55,.14-1.09,.23-1.64-.09,.54-.17,1.09-.23,1.64Z"/><path class="cls-9" d="M134.04,52.03c.63,1.53,1.62,2.68,3.38,2.89,.98,.12,1.88-.16,2.73-.63,1.03-.57,1.87-1.37,2.59-2.29,2-2.55,3.14-5.48,3.46-8.7,.04-.41-.06-.84-.12-1.55-.53,.32-.82,.46-1.09,.65-3.43,2.4-6.85,4.81-10.28,7.23-1.14,.8-1.22,1.09-.68,2.39Zm0,0c.63,1.53,1.62,2.68,3.38,2.89,.98,.12,1.88-.16,2.73-.63,1.03-.57,1.87-1.37,2.59-2.29,2-2.55,3.14-5.48,3.46-8.7,.04-.41-.06-.84-.12-1.55-.53,.32-.82,.46-1.09,.65-3.43,2.4-6.85,4.81-10.28,7.23-1.14,.8-1.22,1.09-.68,2.39Z"/><path class="cls-9" d="M113.06,53.12c2.5,1.15,4.95,1.03,7.32-.37,1.93-1.15,3.29-2.83,4.34-4.78,.98-1.81,1.6-3.75,1.94-5.78,.07-.46-.11-.96-.2-1.73-.49,.27-.77,.37-.99,.55-4.23,3.37-8.46,6.75-12.69,10.13-.94,.76-.85,1.47,.27,1.98Zm0,0c2.5,1.15,4.95,1.03,7.32-.37,1.93-1.15,3.29-2.83,4.34-4.78,.98-1.81,1.6-3.75,1.94-5.78,.07-.46-.11-.96-.2-1.73-.49,.27-.77,.37-.99,.55-4.23,3.37-8.46,6.75-12.69,10.13-.94,.76-.85,1.47,.27,1.98Z"/><ellipse class="cls-8" cx="121.98" cy="41.33" rx="20.14" ry="25.26"/><path class="cls-9" d="M102.2,34.36c.38,.1,.84-.13,.93-.53,.07-.32,.15-.65,.24-.97,.03-.11,.07-.23,.1-.34,.01,0,.01,0,0,0,.13,.07,.26,.15,.39,.23,.25,.16,.49,.33,.73,.5,.42,.32,.86,.62,1.25,.98h0l.02,.02s.09,.08,.13,.12c.34,.35,.66,.69,1.03,.99,.1,.13,.19,.25,.28,.38,.12,.18-.01,.59-.09,.87-.83,2.92-1.03,5.89-.53,8.89,.46,2.74,1.44,5.25,3.27,7.37,3.28,3.8,8.12,4.34,12.16,1.36,2.74-2.02,4.41-4.8,5.38-8,.4-1.32,.58-2.72,.85-4.09,.03-.13-.02-.29,.04-.4,.09-.15,.26-.36,.39-.36,.16,0,.4,.18,.44,.33,.07,.28,.04,.6,.03,.9-.15,3.11,.27,6.11,1.57,8.96,.59,1.32,1.39,2.5,2.44,3.5,.46,.43,.94,.8,1.44,1.09,.1,.03,.21,.07,.3,.11,.15,.06,.28,.15,.43,.21,.28,.12,.56,.24,.84,.35,1.92,.55,3.97,.16,5.83-1.19,1.55-1.12,2.73-2.58,3.56-4.28,2.61-5.35,2.94-10.84,.86-16.43-.35-.95-.87-1.85-1.46-2.68-1.36-1.95-3.17-3.26-5.62-3.48v-.03c-.37-.02-.73,.02-1.09,.06-.1,.02-.19,.03-.29,.05-.09,.02-.19,.04-.28,.06-.05,.01-.1,.02-.15,.04-.1,.03-.2,.05-.29,.08-.12,.03-.23,.07-.34,.11-.09,.03-.17,.06-.26,.09-.02,0-.03,.01-.04,.01-.14,.05-.26,.11-.39,.17h0c-.12,.06-.24,.12-.36,.18-.09,.05-.18,.1-.27,.15-.06,.03-.11,.06-.17,.1-.02,0-.03,.02-.04,.03-.09,.06-.19,.12-.28,.18-.03,.02-.07,.05-.1,.07-.09,.07-.19,.13-.28,.2-.06,.04-.11,.09-.17,.13-.06,.04-.11,.09-.17,.13-.01,.01-.02,.02-.03,.03-.03,.03-.07,.06-.1,.09-.03,.03-.07,.06-.1,.09-.01,.01-.03,.02-.04,.03-.08,.07-.16,.14-.24,.22l-.04,.04c-.11,.11-.21,.21-.32,.32h0c-.11,.12-.21,.23-.31,.35-.01,.01-.03,.03-.04,.05-.11,.12-.2,.24-.3,.36-.11,.13-.21,.26-.31,.4-.2,.27-.4,.55-.58,.84-.09,.14-.17,.27-.25,.41-.16,.28-.31,.56-.45,.85-.07,.14-.14,.29-.21,.44-.14,.29-.26,.59-.39,.89-.12,.3-.24,.6-.36,.9h0c-.05,.13-.1,.26-.14,.38-.04,.11-.08,.22-.11,.33-.06,.18-.11,.37-.17,.55-.07,.23-.13,.45-.19,.68-.11,.4-.21,.8-.33,1.21-.32-.06-.64-.12-.92-.17-.13-.87-.22-1.73-.35-2.57-.02-.17-.05-.34-.08-.5-.02-.12-.04-.24-.06-.35-.02-.12-.04-.23-.07-.34,0-.02,0-.03,0-.04-.01-.09-.03-.17-.05-.26-.08-.35-.17-.69-.26-1.03,0-.03-.02-.06-.03-.08-.05-.16-.1-.32-.15-.48,0,0,0-.02,0-.02-.17-.52-.36-1.02-.59-1.51-.07-.16-.15-.32-.23-.48h0c-.08-.17-.17-.33-.25-.49-.08-.15-.17-.3-.26-.45,0-.02-.02-.03-.03-.05-.09-.14-.18-.29-.27-.43-.08-.11-.15-.22-.23-.33-.06-.09-.13-.18-.2-.27-.08-.11-.16-.21-.24-.31-.11-.13-.21-.25-.32-.38-.08-.09-.17-.19-.26-.28l-.03-.03c-.05-.05-.1-.11-.15-.16-.08-.09-.17-.17-.26-.26l-.14-.12s-.02-.02-.03-.03c-.11-.1-.22-.2-.34-.3-.06-.05-.13-.11-.19-.15-.05-.05-.11-.08-.16-.12-.09-.07-.18-.14-.27-.2-.11-.08-.21-.15-.32-.22-.11-.07-.21-.14-.32-.2-.11-.06-.22-.13-.33-.18-.1-.05-.2-.11-.3-.15-.02-.01-.04-.02-.06-.03-.1-.05-.2-.09-.3-.14,0,0-.01,0-.02,0-.12-.05-.25-.1-.37-.14-.08-.03-.15-.06-.23-.08-.05-.02-.1-.03-.15-.05-.09-.03-.17-.05-.26-.08-.03-.01-.05-.02-.08-.02-.23-.06-.46-.11-.7-.15-.12-.02-.25-.04-.38-.06-.26-.03-.51-.06-.78-.06-.13,0-.26,0-.4,0-.05,0-.11,.01-.16,.02-.21,0-.43,.02-.65,.04-.08,0-.15,.02-.23,.03-.08,.01-.16,.02-.23,.04-.06,0-.12,.02-.18,.03-.2,.04-.4,.09-.6,.14-.08,.02-.15,.05-.23,.08h0c-.06,.02-.11,.04-.14,.05-.02,0-.03,0-.04,.02-.28,.12-.56,.24-.84,.37-.18,.08-.37,.16-.55,.25-.13,.06-.26,.12-.38,.19-.02,0-.03,.02-.05,.03-.12,.07-.25,.14-.37,.21-.14,.08-.27,.17-.4,.26-.13,.09-.26,.18-.38,.28-.12,.09-.25,.19-.37,.29-.12,.1-.24,.2-.36,.3-.23,.2-.46,.42-.67,.64-.08,.09-.17,.17-.24,.26-.08,.08-.15,.17-.23,.25h-.01v.03c-.09,.09-.16,.17-.23,.26h0s-.06,.08-.08,.11c-.08,.09-.15,.19-.23,.29-.01,.02-.02,.03-.03,.04l-.07,.09c-.11,.15-.22,.3-.32,.45-.18,.25-.35,.51-.51,.78-.08,.12-.15,.25-.23,.38-.16,.28-.32,.56-.47,.85-.11,.21-.23,.43-.37,.66-.02,.04-.04,.08-.06,.12l-.07,.12h0c-.16-.15-.32-.29-.48-.42-.3-.3-.57-.62-.91-.88-.46-.36-.92-.73-1.39-1.07-.23-.19-.46-.39-.72-.52-.1-.05-.22-.09-.33-.13-.4-.19-.83-.31-1.23-.2-.03,0-.05,0-.08,0-.19,.04-.33,.13-.44,.29h-.01c-.3,.28-.39,.7-.5,1.07-.1,.35-.19,.7-.27,1.06-.09,.4,.12,.81,.53,.93Zm30.23,.1c.72-1.29,1.58-2.49,2.81-3.37,1.22-.86,2.48-1.41,4.05-1.34,1.3,.05,2.38,.45,3.37,1.19,1.09,.82,1.87,1.88,2.49,3.07,1.34,2.56,1.88,5.31,1.84,8.02,.02,3.31-.66,6.31-2.13,9.1-.81,1.52-1.84,2.86-3.26,3.88-2.58,1.86-5.5,1.65-7.8-.56-1.02-.98-1.76-2.15-2.33-3.44-.77-1.76-1.19-3.61-1.33-5.53-.3-3.9,.37-7.59,2.28-11.03Zm-23.97,1.13c.99-2.75,2.54-5.13,4.97-6.82,.7-.49,1.87-.99,2.3-1.19,.44-.2,1.13-.39,2.03-.39s1.52,.03,2.23,.21c2.42,.6,4.11,2.19,5.38,4.25,1.48,2.44,2.14,5.13,2.21,7.97,.09,3.66-.71,7.09-2.62,10.24-1.08,1.77-2.45,3.27-4.26,4.32-3.18,1.84-6.74,1.42-9.41-1.11-1.36-1.28-2.32-2.85-2.95-4.59-1.56-4.31-1.43-8.62,.11-12.89Z"/><path class="cls-9" d="M108.35,48.49c.63,1.75,1.59,3.31,2.95,4.59,2.67,2.52,6.24,2.95,9.41,1.11,1.81-1.05,3.18-2.55,4.26-4.32,1.91-3.15,2.71-6.58,2.62-10.24-.07-2.84-.72-5.53-2.21-7.97-1.27-2.07-2.96-3.66-5.38-4.25-.72-.18-1.33-.21-2.23-.21s-1.59,.18-2.03,.39c-.44,.2-1.6,.7-2.3,1.19-2.44,1.69-3.98,4.08-4.97,6.82-1.54,4.27-1.67,8.58-.11,12.89Zm4.44,2.65c4.23-3.38,8.46-6.76,12.69-10.13,.22-.17,.49-.28,.99-.55,.09,.77,.27,1.27,.2,1.73-.34,2.03-.96,3.96-1.94,5.78-1.06,1.95-2.41,3.63-4.34,4.78-2.37,1.4-4.82,1.52-7.32,.37-1.12-.52-1.21-1.22-.27-1.98Z"/><path class="cls-1" d="M109.63,40.16l13.5-9.01c-.34-.32-.71-.62-1.09-.88-2.24-1.53-4.58-1.52-6.9-.13-1.53,.92-2.64,2.24-3.5,3.78-1.12,1.98-1.76,4.07-2.01,6.24Z"/><path class="cls-1" d="M113.05,53.12c2.5,1.15,4.95,1.03,7.32-.37,1.93-1.15,3.27-2.84,4.34-4.78,2.78-5.04,2.04-7.44,1.86-7.99,0,0-9.56,7.78-13.79,11.16-.94,.76-.85,1.47,.27,1.98Z"/><path class="cls-9" d="M130.14,45.49c.15,1.92,.57,3.76,1.33,5.53,.56,1.29,1.3,2.46,2.33,3.44,2.3,2.21,5.22,2.42,7.8,.56,1.41-1.02,2.45-2.36,3.26-3.88,1.47-2.8,2.15-5.79,2.13-9.1,.04-2.71-.5-5.46-1.84-8.02-.63-1.18-1.41-2.25-2.49-3.07-.99-.75-2.07-1.14-3.37-1.19-1.58-.08-2.83,.47-4.05,1.34-1.23,.88-2.09,2.08-2.81,3.37-1.91,3.43-2.59,7.13-2.28,11.03Zm4.58,4.15c3.43-2.42,6.85-4.82,10.28-7.23,.27-.19,.56-.34,1.09-.65,.06,.7,.16,1.13,.12,1.55-.32,3.23-1.46,6.15-3.46,8.7-.72,.92-1.56,1.71-2.59,2.29-.85,.47-1.75,.75-2.73,.63-1.76-.21-2.75-1.36-3.38-2.89-.55-1.31-.46-1.59,.68-2.39Z"/><path class="cls-1" d="M132.31,38.97l9.82-6.56c-1.75-1.15-3.83-1.14-5.72,.11-1.16,.76-2.03,1.8-2.72,2.99-.63,1.1-1.08,2.25-1.38,3.46Z"/><path class="cls-1" d="M134.04,52.03c.63,1.53,1.62,2.68,3.38,2.89,.98,.12,1.88-.16,2.73-.63,1.03-.57,1.87-1.37,2.59-2.29,2-2.55,3.14-5.48,3.46-8.7,.04-.41-.06-.84-.12-1.55-.53,.32-.82,.46-1.09,.65-3.43,2.4-6.85,4.81-10.28,7.23-1.14,.8-1.22,1.09-.68,2.39Z"/><path class="cls-9" d="M120.38,58.98c1.14,.86,2.53,1.33,3.95,1.47,.72,.07,1.44,.04,2.15-.07s1.39-.32,2.05-.6c.82-.35,1.57-.85,2.24-1.43,.12-.1,.19-.3,.19-.46s-.07-.35-.19-.46-.29-.2-.46-.19-.32,.07-.46,.19c-.12,.11-.25,.21-.38,.31l.13-.1c-.55,.42-1.15,.78-1.79,1.05l.15-.07c-.63,.26-1.29,.44-1.97,.53l.17-.02c-.69,.09-1.39,.09-2.08,0l.17,.02c-.66-.09-1.3-.26-1.91-.52l.15,.07c-.52-.22-1.02-.5-1.47-.84-.13-.09-.35-.1-.5-.07s-.31,.16-.39,.3c-.08,.15-.12,.33-.07,.5l.07,.15c.06,.1,.13,.17,.23,.23h0Z"/></g><g><path class="cls-1" d="M0,67.74V15.99H24.32c6.16,0,10.87,1.22,14.12,3.66,3.25,2.44,4.88,5.7,4.88,9.79,0,2.76-.64,5.11-1.92,7.06-1.28,1.95-2.99,3.45-5.14,4.51-2.14,1.06-4.47,1.59-6.98,1.59l1.33-2.66c2.91,0,5.52,.53,7.84,1.59s4.14,2.6,5.47,4.62c1.33,2.02,2,4.53,2,7.54,0,4.44-1.69,7.88-5.06,10.35-3.38,2.46-8.39,3.7-15.04,3.7H0Zm9.61-7.54h15.6c3.55,0,6.28-.59,8.21-1.77,1.92-1.18,2.88-3.08,2.88-5.69s-.96-4.45-2.88-5.65c-1.92-1.21-4.66-1.81-8.21-1.81H8.87v-7.47h14.34c3.3,0,5.86-.59,7.69-1.77,1.82-1.18,2.74-2.96,2.74-5.32s-.91-4.21-2.74-5.4c-1.82-1.18-4.39-1.77-7.69-1.77H9.61V60.2Z"/><path class="cls-1" d="M56.25,67.74V15.99h9.61V59.61h27.05v8.13H56.25Z"/><path class="cls-1" d="M230.02,67.74V15.99h7.91l22.62,37.77h-4.14l22.25-37.77h7.91l.15,51.74h-9.24V30.26h1.85l-18.78,31.64h-4.36l-19.22-31.64h2.22v37.48h-9.17Z"/></g><path class="cls-3" d="M166.46,49.17c-.02-.06-.04-.13-.06-.2h0c.03,.06,.04,.13,.06,.2Z"/><path class="cls-3" d="M166.46,49.17c-.02-.06-.04-.13-.06-.2h0c.03,.06,.04,.13,.06,.2Z"/><g><path class="cls-2" d="M227.13,40.79c-.92-2.98-2.7-5.19-5.51-6.56-.76-.36-1.52-.76-2.35-1.18,3.97-3.95,4.44-7.71,2.81-11.3-2.01-4.42-5.71-6.13-10.55-5.67,.25-.78,.52-1.44,.68-2.14,.21-.86,.54-1.77,.44-2.62-.41-3.71-2.01-5.61-5.47-6.82-3.59-1.27-6.96-.41-10.14,1.41-.49,.28-.96,.57-1.56,.92-.21-.54-.35-.86-.45-1.18C193.57,1.45,190.05-.14,186.54,0c-5.33,.23-9.83,4.68-9.92,10.08,0,.19-.17,.38-.29,.67-.31-.21-.5-.33-.69-.47-3.43-2.73-8.33-1.99-10.92,.78-1.87,1.99-2.68,4.36-2.72,7.12-.05,2.68,.73,4.96,2.59,7.08-2.07,.35-4.05,.68-5.65,2.05-1.65,1.42-3.01,3.22-3.31,5.21-.78,5.2-.15,10.02,5.78,12.22-.55,1.06-1.1,1.91-1.46,2.84-.64,1.59-.48,3.29-.41,4.95,.13,3.48,1.61,6.13,4.89,7.61,.54,.25,1.11,.47,1.68,.7,.43-.03,.94-.08,1.26,.24,.49,.49,.25,1.33,.04,1.89-.29,.78-.43,1.59-.5,2.42-.07,.81-.05,1.63,.19,2.41,.02,.07,.02,.13,0,.19,1.81,5.92,4.6,7.3,10.19,5.14,0,.98-.03,1.9,.01,2.82,.17,3.83,2.73,7,6.19,7.46,.58,.07,1.18,.04,1.81-.02,.65-.17,1.28-.44,1.89-.72,.92-.43,1.93-.96,2.68-1.71,.1-.12,.21-.24,.32-.36,.05-.05,.09-.11,.13-.16,.2-.29,.4-.69,.78-.78,.41-.09,.71,.23,.92,.53,.34,.47,.7,.87,1.1,1.29,.05,.05,.1,.11,.15,.16,3.53,2.9,7.11,3.72,10.89,1.11,3.77-2.58,4.52-6.44,3.87-10.83-.05-.09-.07-.19-.05-.29l-.02-.14s.04,.02,.06,.03c.07-.15,.23-.26,.44-.19,.68,.23,1.37,.29,2.07,.27,.17,.03,.35,.05,.55,.05,.53,0,.98-.11,1.38-.29,.48-.09,.96-.2,1.44-.31,0,0-.01,0-.02,0,3.39-1.53,5.6-3.7,6.31-7.32,.72-3.7-.95-6.45-3.39-9.16,.71-.14,1.16-.27,1.62-.31,6.33-.52,10.55-7.52,8.71-13.48Z"/><ellipse class="cls-8" cx="189.47" cy="44.06" rx="19.13" ry="22.52"/><path class="cls-9" d="M216.56,35.01c-.92-2.1-1.95-1.55-2.57-3.81-.57-2.08-3.64-2.96-4.45-4.92-8.05-15.71-32.93-13.69-40.15,1.86-.68,1.21-1.15,2.45-2.63,3.14-1.12,.52-1.44,1.77-1.72,2.92-.11,.45-.15,1.01-.46,1.32-1.9,1.94-2.06,4.37-2.08,6.84,.11,1.24,.77,2.4,.97,3.61,1.44,3.31,4.82,5.01,7.73,1.57-.01-.03-.02-.05-.04-.08,.16-.24,.38-.79,.78-.81,2,1.18,2.72-1.51,.57-1.98,.22-.75,.25-1.61,.62-2.3,2.52,.56,2.67-2.39,.1-2-.02-.72-.35-1.72,.07-2.35,3.09,.06,2.18-2.8-.54-1.97,.13-1.86-1.34-4.98-.56-6.82,5.3-12.48,28.81-15.68,33.85-1.28,.36,.68,.77,1.71,.22,2.25-.7,.65-1.46,2.78-1.92,3.98-.44-.08-.87-.16-1.31-.21h0c-1.27-.39-1.89,1.61-.56,1.94,.49,.12,1.03,.07,1.45,.36,.6,.22,.22,2.44,.32,2.89-2.85-.16-2.47,2.89,.24,1.98,.55,.76,.75,1.84,1.03,2.79-.87,.47-2.71,1.33-1.68,2.51,0,.02,0,.04,0,.06,.03,0,.06,0,.09,.01,.82,.68,1.54-.28,2.25-.62,2.05,1.77,2.67,2.84,5.73,2.95,6.04-1.11,7.02-9.11,4.64-13.81Z"/><path class="cls-9" d="M193.14,55.95c0,1.57-.9,2.41-2.15,2.97-1.27,.57-2.52,.39-3.68-.32-.64-.38-.64-1.18-.01-1.37,1.78-.54,3.59-.97,5.39-1.43,.1-.03,.23,.07,.45,.14Z"/><g><g><path class="cls-1" d="M174.84,45c0-2.9,1.26-5.47,3.19-7.07,1.31-1.09,2.94-1.74,4.7-1.74s3.38,.65,4.69,1.74c.72,.59,1.34,1.31,1.84,2.14,.5-.86,1.15-1.61,1.88-2.21,1.31-1.09,2.93-1.73,4.69-1.73s3.38,.64,4.7,1.73c1.94,1.61,3.19,4.18,3.19,7.07,0,1.59-.38,3.09-1.04,4.38-1.15,1.71-4.2,3.33-6.84,3.33-2.46,0-4.98-1.18-6.52-2.96-1.54,1.82-4.08,3.03-6.58,3.03-2.64,0-5.69-1.63-6.84-3.34-.67-1.29-1.05-2.78-1.05-4.38Z"/><g class="cls-5"><path class="cls-9" d="M162.53,44.67c0-5.45,5.14-9.87,11.47-9.87s10.18,3.74,10.18,9.19-3.84,10.55-10.18,10.55-11.47-4.42-11.47-9.87Z"/></g><path class="cls-2" d="M175.89,49.38c1.53,2.55,10.26,.71,12.84-1.55,.03-.02,.06-.05,.09-.09,.02,.03,.54,1.96,.56,1.97,2.64,2.22,12.68-.68,14.2-3.21-.43,4.5-4.82,7.23-7.75,7.23-2.72,0-5.11-1.53-6.53-3.87-1.41,2.38-3.82,3.94-6.57,3.94-2.93,0-5.49-1.78-6.84-4.42Z"/></g><g class="cls-4"><ellipse class="cls-9" cx="185.59" cy="44.44" rx="11.47" ry="9.87"/></g></g></g></svg>