<?xml version="1.0" standalone="no"?>
<!DOCTYPE svg PUBLIC "-//W3C//DTD SVG 1.1//EN" "http://www.w3.org/Graphics/SVG/1.1/DTD/svg11.dtd" >
<svg xmlns="http://www.w3.org/2000/svg" xmlns:xlink="http://www.w3.org/1999/xlink" version="1.1">
<metadata>
Created by FontForge 20200427 at Sun Nov 27 18:40:48 2011
 By www
(URW)++,Copyright 2004 by (URW)++ Design &#38; Development
</metadata>
<defs>
<font id="URWCasablancaW01-Light" horiz-adv-x="477" >
  <font-face 
    font-family="URWCasablancaW01-Light"
    font-weight="300"
    font-stretch="normal"
    units-per-em="1000"
    panose-1="4 0 4 0 0 0 0 0 0 0"
    ascent="749"
    descent="-251"
    x-height="368"
    cap-height="667"
    bbox="-28 -236 862 887"
    underline-thickness="53"
    underline-position="-158"
    unicode-range="U+000D-2122"
  />
<missing-glyph horiz-adv-x="0" 
 />
    <glyph glyph-name=".notdef" horiz-adv-x="0" 
 />
    <glyph glyph-name=".null" horiz-adv-x="0" 
 />
    <glyph glyph-name="uni000D" unicode="&#xd;" horiz-adv-x="0" 
 />
    <glyph glyph-name="space" unicode=" " horiz-adv-x="233" 
 />
    <glyph glyph-name="exclam" unicode="!" horiz-adv-x="292" 
d="M177 81v-81h-66v81h66zM190 667l-20 -504h-48l-20 504h88z" />
    <glyph glyph-name="quotedbl" unicode="&#x22;" horiz-adv-x="288" 
d="M241 680l-12 -191h-42l-13 191h67zM115 680l-13 -191h-42l-12 191h67z" />
    <glyph glyph-name="numbersign" unicode="#" horiz-adv-x="583" 
d="M232 416l-23 -152h154l22 152h-153zM509 225h-113l-34 -225h-40l34 225h-153l-34 -225h-40l34 225h-115l2 39h119l23 152h-115l2 39h119l32 212h40l-32 -212h153l32 212h40l-32 -212h108l-2 -39h-112l-23 -152h109z" />
    <glyph glyph-name="dollar" unicode="$" 
d="M253 45q24 2 52 19q66 40 66 111q0 45 -30.5 78t-87.5 49v-257zM213 617q-21 -2 -40 -11.5t-34 -25.5t-23.5 -35.5t-8.5 -40.5q0 -76 106 -112v225zM253 734v-56q24 -2 44 -4.5t38.5 -6.5t36 -10t37.5 -15l-23 -58q-15 6 -33.5 12t-37 11t-35.5 8t-28 3v-242l58 -22
q63 -23 97 -68t34 -105q0 -38 -14 -71.5t-38.5 -59.5t-59 -43.5t-76.5 -23.5l1 -80h-41v77q-23 0 -48 3.5t-48.5 9.5t-44.5 14.5t-35 18.5l15 60q31 -18 74.5 -30.5t87.5 -14.5v276l-35 13q-140 51 -140 169q0 35 13 66t36.5 55t55 39t68.5 18v57h41z" />
    <glyph glyph-name="percent" unicode="%" horiz-adv-x="637" 
d="M448 191q-34 0 -56.5 -22.5t-22.5 -56.5q0 -35 21.5 -58.5t55.5 -23.5t56.5 22t22.5 57t-22.5 58.5t-54.5 23.5zM446 231q54 0 88.5 -34t34.5 -87q0 -26 -9.5 -47.5t-26 -38t-39 -25.5t-48.5 -9t-48 9.5t-38.5 26t-26 39t-9.5 48.5q0 25 9.5 46.5t26 37.5t38.5 25t48 9z
M165 0h-46l343 671h46zM191 641q-34 0 -56.5 -22.5t-22.5 -56.5q0 -35 21.5 -58.5t55.5 -23.5t56.5 22t22.5 57t-22.5 58.5t-54.5 23.5zM189 681q54 0 88.5 -34t34.5 -87q0 -26 -9.5 -47.5t-26 -38t-39 -25.5t-48.5 -9t-48 9.5t-38.5 26t-26 39t-9.5 48.5q0 25 9.5 46.5
t26 37.5t38.5 25t48 9z" />
    <glyph glyph-name="ampersand" unicode="&#x26;" horiz-adv-x="571" 
d="M232 328q-113 -73 -113 -164q0 -24 8 -44.5t21.5 -35.5t32.5 -23.5t40 -8.5q80 0 142 98zM254 410q2 2 5 3q45 25 71 58t26 66q0 32 -21.5 53t-55.5 21q-36 0 -59 -22t-23 -57q0 -13 2.5 -25t9 -26t17.5 -31t28 -40zM517 335q-14 -48 -35.5 -96.5t-43.5 -82.5l112 -156
h-78l-72 99q-42 -55 -83.5 -80t-92.5 -25q-36 0 -68 13.5t-55 37t-36.5 55.5t-13.5 68q0 60 35.5 110t110.5 97q-21 32 -34 54t-20 39t-9.5 31t-2.5 31q0 29 11.5 54t31.5 43.5t47 29t58 10.5q30 0 56 -10t45 -27.5t30 -42t11 -52.5q0 -24 -6.5 -44.5t-21.5 -40.5t-40.5 -41
t-63.5 -47l110 -151q8 14 17 31t16.5 34.5t13.5 32.5t9 26h62z" />
    <glyph glyph-name="quotesingle" unicode="'" horiz-adv-x="162" 
d="M115 680l-13 -191h-42l-12 191h67z" />
    <glyph glyph-name="parenleft" unicode="(" horiz-adv-x="320" 
d="M248 -197q-96 93 -146 216t-50 269t50 269t146 216l46 -40q-85 -83 -129 -197t-44 -248t44 -248.5t129 -196.5z" />
    <glyph glyph-name="parenright" unicode=")" horiz-adv-x="320" 
d="M26 -157q85 83 129 197t44 248t-44 248t-129 197l46 40q96 -93 146 -216t50 -269t-50 -269t-146 -216z" />
    <glyph glyph-name="asterisk" unicode="*" horiz-adv-x="446" 
d="M242 779v-77l70 39l20 -35l-67 -41l67 -37l-20 -35l-69 36v-78h-44v77l-66 -38l-20 36l66 40l-64 36l20 34l65 -34v77h42z" />
    <glyph glyph-name="plus" unicode="+" horiz-adv-x="500" 
d="M219 373v176h63v-176h188v-63h-188v-176h-63v176h-189v63h189z" />
    <glyph glyph-name="comma" unicode="," horiz-adv-x="222" 
d="M153 82v-73l-56 -117h-29l34 108h-15v82h66z" />
    <glyph glyph-name="hyphen" unicode="-" horiz-adv-x="338" 
d="M304 334v-59h-270v59h270z" />
    <glyph glyph-name="period" unicode="." horiz-adv-x="203" 
d="M135 81v-81h-67v81h67z" />
    <glyph glyph-name="slash" unicode="/" horiz-adv-x="465" 
d="M438 812l-349 -812h-63l348 812h64z" />
    <glyph glyph-name="zero" unicode="0" 
d="M237 610q-42 0 -69 -29q-36 -38 -56 -104.5t-20 -147.5q0 -62 10.5 -112.5t29.5 -86.5t45.5 -55.5t59.5 -19.5q32 0 58.5 20.5t46 57t30 87.5t10.5 112q0 81 -19 146t-54 102q-13 14 -32.5 22t-39.5 8zM241 671q46 0 84 -25t65.5 -69.5t43 -106.5t15.5 -137t-15.5 -137
t-43.5 -106.5t-68 -68.5t-88 -24q-47 0 -85.5 24t-65.5 68.5t-41.5 107t-14.5 140.5q0 73 16 134.5t44.5 105.5t67.5 69t86 25z" />
    <glyph glyph-name="one" unicode="1" 
d="M288 667v-667h-67v606h-73l13 61h127z" />
    <glyph glyph-name="two" unicode="2" 
d="M53 618q27 26 67.5 41.5t83.5 15.5q40 0 74.5 -13t59.5 -36.5t39 -55.5t14 -70q0 -36 -11.5 -77.5t-37.5 -94t-67.5 -118t-100.5 -149.5h236v-61h-356q77 108 128.5 185.5t82 134.5t43.5 99t13 78q0 51 -31.5 83.5t-81.5 32.5q-69 0 -131 -53z" />
    <glyph glyph-name="three" unicode="3" 
d="M59 627q38 23 71 33.5t69 10.5q39 0 73 -13t58.5 -36t39 -53.5t14.5 -66.5q0 -94 -93 -145q52 -21 82 -67.5t30 -104.5q0 -42 -15.5 -77t-42.5 -60.5t-65 -39.5t-83 -14q-32 0 -66 6t-61 17l1 64q66 -27 125 -27q31 0 56.5 10t44.5 27.5t29.5 41.5t10.5 53q0 46 -27 81
t-70 45q-15 4 -37.5 6.5t-36.5 2.5h-24v58q23 1 37 1.5t24 2t17 3.5t15 6q36 15 57.5 46t21.5 66q0 46 -32.5 75.5t-83.5 29.5q-58 0 -122 -43z" />
    <glyph glyph-name="four" unicode="4" 
d="M108 259h198v257zM372 259h74v-60h-74v-199h-66v199h-287v39l329 427h24v-406z" />
    <glyph glyph-name="five" unicode="5" 
d="M392 666v-62h-234l-3 -195q11 1 19.5 1h13.5q48 0 84 -10t65 -32q39 -28 60.5 -70.5t21.5 -93.5q0 -44 -16.5 -82t-46 -65.5t-70 -43t-88.5 -15.5q-30 0 -62 6.5t-78 21.5l2 64q35 -15 72.5 -24t68.5 -9q32 0 59.5 11t47.5 30.5t31.5 46t11.5 57.5q0 35 -15 66t-41 51
q-22 17 -51 24.5t-72 7.5q-15 0 -36.5 -1t-45.5 -3l2 317z" />
    <glyph glyph-name="six" unicode="6" 
d="M100 246q0 -89 38.5 -139.5t106.5 -50.5q29 0 53.5 10.5t42.5 29.5t28 45t10 56q0 56 -32 90t-85 34q-35 0 -72 -14t-90 -48v-13zM316 632q-35 -33 -67.5 -71t-59.5 -77t-47.5 -78t-31.5 -73q74 50 154 50q40 0 73.5 -14t58 -38.5t38 -58t13.5 -73.5q0 -42 -16 -79.5
t-43.5 -65.5t-64.5 -44t-79 -16q-46 0 -85 18.5t-67.5 51t-45 77t-16.5 96.5q0 110 63.5 224t183.5 220z" />
    <glyph glyph-name="seven" unicode="7" 
d="M421 666l-284 -677l-62 26l252 591l-271 -1l-1 60z" />
    <glyph glyph-name="eight" unicode="8" 
d="M241 319q-29 0 -54.5 -10.5t-45 -28t-30.5 -41.5t-11 -51q0 -57 37.5 -92.5t96.5 -35.5q30 0 56 10t44.5 27.5t29 42t10.5 53.5q0 27 -10 50t-28 40t-42.5 26.5t-52.5 9.5zM239 606q-26 0 -48 -8.5t-38 -23t-25.5 -34.5t-9.5 -43q0 -24 9.5 -45t26.5 -37t39 -25t48 -9
q25 0 47 8.5t37.5 24t24.5 37t9 46.5q0 49 -33 79t-87 30zM347 355q47 -29 72 -71.5t25 -91.5q0 -41 -16.5 -76t-45 -61t-66.5 -41t-82 -15t-80.5 14t-63.5 39.5t-42 59.5t-15 75q0 55 24.5 93.5t80.5 73.5q-89 54 -89 142q0 35 15 66t40.5 54t60.5 36.5t74 13.5t73.5 -13
t60 -36t40.5 -54t15 -66q0 -42 -21.5 -80t-59.5 -62z" />
    <glyph glyph-name="nine" unicode="9" 
d="M379 412v10q0 41 -10.5 75t-29.5 58.5t-45.5 38t-57.5 13.5q-30 0 -55.5 -11t-44.5 -30.5t-30 -45.5t-11 -56q0 -27 9 -50t24.5 -40t36.5 -26.5t45 -9.5q38 0 78 16.5t91 52.5v5zM170 30q36 34 69.5 74.5t60.5 81t45 78t24 66.5q-38 -26 -80.5 -39.5t-83.5 -13.5
q-37 0 -69 14.5t-56 40t-37.5 59t-13.5 72.5q0 43 15.5 80.5t43 65t65 43t80.5 15.5q48 0 87.5 -18t68 -50t44 -77.5t15.5 -100.5q0 -72 -25.5 -142t-79.5 -147q-30 -44 -62 -80t-70 -70z" />
    <glyph glyph-name="colon" unicode=":" horiz-adv-x="169" 
d="M118 357v-81h-67v81h67zM118 81v-81h-67v81h67z" />
    <glyph glyph-name="semicolon" unicode=";" horiz-adv-x="222" 
d="M154 357v-81h-67v81h67zM153 82v-73l-56 -117h-29l34 108h-15v82h66z" />
    <glyph glyph-name="less" unicode="&#x3c;" horiz-adv-x="488" 
d="M115 338l337 -143v-68l-417 176v69l417 180v-68z" />
    <glyph glyph-name="equal" unicode="=" horiz-adv-x="501" 
d="M471 299v-63h-441v63h441zM471 447v-63h-441v63h441z" />
    <glyph glyph-name="greater" unicode="&#x3e;" horiz-adv-x="488" 
d="M372 341l-337 143v68l417 -176v-69l-417 -180v68z" />
    <glyph glyph-name="question" unicode="?" horiz-adv-x="435" 
d="M217 81v-81h-67v81h67zM60 631q60 45 128 45q40 0 74 -13.5t59 -37t39 -55.5t14 -69q0 -50 -25 -86t-81 -67q-24 -13 -38.5 -23.5t-23 -21t-11.5 -23t-3 -29.5q0 -22 4 -44t13 -51h-59q-22 47 -22 97q0 52 18 81q6 10 11 17t14.5 14t25.5 17t43 26q68 40 68 98
q0 23 -9.5 43.5t-26 36t-38.5 24.5t-46 9q-52 0 -100 -36z" />
    <glyph glyph-name="at" unicode="@" horiz-adv-x="701" 
d="M351 447q-26 0 -47.5 -11t-38 -30t-25.5 -45t-9 -56q0 -48 26.5 -78.5t68.5 -30.5q67 0 95 66q8 19 13 43.5t5 46.5q0 45 -23 70t-65 25zM640 132q-15 -19 -27.5 -33t-24 -25t-22.5 -20t-24 -17q-74 -48 -178 -48q-77 0 -141.5 25.5t-112 71.5t-74 108.5t-26.5 136.5
t26.5 137.5t74 110t111.5 73t139 26.5q69 0 127.5 -21.5t101.5 -60t67 -91t24 -113.5q0 -76 -33 -135t-94 -94q-24 -13 -49.5 -21t-44.5 -8q-23 0 -35.5 13.5t-12.5 36.5v7q-41 -53 -104 -53q-32 0 -58.5 12t-45.5 33t-29.5 51t-10.5 66q0 45 14 83.5t38 66t57 43.5t72 16
q82 0 116 -71l12 59h56l-49 -263q-4 -22 -4.5 -26t-0.5 -8q0 -18 19 -18q14 0 36.5 13t44.5 34q31 28 48 68t17 85q0 54 -21 100.5t-57.5 80t-87 52.5t-110.5 19q-63 0 -117.5 -23.5t-95 -64t-63.5 -95.5t-23 -119q0 -63 23.5 -118t64 -95.5t95.5 -63.5t119 -23
q32 0 59.5 5.5t53.5 17.5t51 31t52 46h57z" />
    <glyph glyph-name="A" unicode="A" horiz-adv-x="486" 
d="M154 229h180l-89 292zM264 687l211 -687h-71l-52 170h-216l-52 -170h-72l52 170h-46l16 59h49l146 458h35z" />
    <glyph glyph-name="B" unicode="B" horiz-adv-x="433" 
d="M170 59q40 0 63.5 3.5t40.5 12.5q29 14 45.5 42t16.5 63q0 59 -40 91t-114 32h-43v-244h31zM179 362q35 0 58.5 5.5t41.5 16.5q28 17 42.5 46t14.5 64q0 115 -141 115h-56v-247h40zM172 667q49 0 83 -6t59 -18q43 -23 67 -62.5t24 -88.5q0 -51 -26 -92.5t-73 -64.5
q51 -29 75 -66.5t24 -89.5q0 -55 -28 -99t-76 -64q-39 -16 -124 -16h-107v667h102z" />
    <glyph glyph-name="C" unicode="C" horiz-adv-x="598" 
d="M524 592q-74 33 -137 33q-58 0 -108.5 -23t-88.5 -62t-60 -92t-22 -113q0 -62 21.5 -115t59.5 -92t89.5 -61.5t111.5 -22.5q78 0 143 38l24 -58q-32 -19 -77.5 -30t-91.5 -11q-73 0 -136.5 28t-111 76t-75 113t-27.5 139q0 73 27.5 136t76 109.5t113.5 73t140 26.5
q82 0 156 -34z" />
    <glyph glyph-name="D" unicode="D" horiz-adv-x="581" 
d="M174 59q38 0 69 4.5t60 15.5q38 14 69.5 39.5t53.5 59t34 73t12 83.5q0 39 -10 76t-28.5 69t-44.5 57.5t-58 42.5q-29 15 -59 22t-68 7h-66v-549h36zM179 667q34 0 59 -2.5t51 -7.5q55 -12 101 -42.5t79.5 -73.5t52.5 -96t19 -111q0 -56 -17 -106.5t-48 -92.5t-74.5 -73
t-95.5 -46q-28 -8 -63 -12t-85 -4h-88v667h109z" />
    <glyph glyph-name="E" unicode="E" horiz-adv-x="410" 
d="M327 667l18 -59h-206v-243h223v-61h-223v-246h204v-58h-273v304h-46v61h45v302h258z" />
    <glyph glyph-name="F" unicode="F" horiz-adv-x="397" 
d="M327 667l18 -59h-206v-243h210v-61h-210v-304h-69v304h-46v61h45v302h258z" />
    <glyph glyph-name="G" unicode="G" horiz-adv-x="660" 
d="M547 583q-38 19 -79.5 29t-79.5 10q-59 0 -109.5 -22.5t-88.5 -61.5t-59.5 -92t-21.5 -114q0 -60 21.5 -112.5t58.5 -91.5t87 -61.5t108 -22.5q79 0 153 40v234h-206l17 59h257l-1 -325q-45 -31 -102.5 -48.5t-113.5 -17.5q-72 0 -136 27t-111 74.5t-74.5 110.5
t-27.5 135q0 73 27.5 136.5t75.5 110.5t112.5 74.5t138.5 27.5q80 0 167 -36z" />
    <glyph glyph-name="H" unicode="H" horiz-adv-x="508" 
d="M136 667v-282h236v282h66v-667h-66v326h-236v-326h-67v326h-49v59h49v282h67z" />
    <glyph glyph-name="I" unicode="I" horiz-adv-x="210" 
d="M72 667h66v-667h-66v667z" />
    <glyph glyph-name="J" unicode="J" horiz-adv-x="264" 
d="M194 667v-472q0 -54 -8 -88t-28 -59q-25 -32 -64.5 -50t-87.5 -20v61h8q32 0 59.5 19.5t41.5 52.5q6 15 8 34t2 63v459h69z" />
    <glyph glyph-name="K" unicode="K" horiz-adv-x="436" 
d="M136 667v-311l198 311h79l-207 -321l224 -322l-57 -33l-237 335v-326h-66v667h66z" />
    <glyph glyph-name="L" unicode="L" horiz-adv-x="324" 
d="M139 667v-608h179v-59h-248v667h69z" />
    <glyph glyph-name="M" unicode="M" horiz-adv-x="724" 
d="M213 689l150 -456l151 456h22l173 -689h-70l-122 494l-157 -468l-153 465l-126 -491h-66l176 689h22z" />
    <glyph glyph-name="N" unicode="N" horiz-adv-x="580" 
d="M97 676l345 -507v498h67v-683h-23l-348 507v-491h-68v676h27z" />
    <glyph glyph-name="O" unicode="O" horiz-adv-x="784" 
d="M391 623q-59 0 -110.5 -22t-90 -59.5t-60.5 -89t-22 -109.5q0 -63 22 -118t60 -95.5t89 -64t110 -23.5q60 0 112.5 22.5t91 61.5t60.5 92t22 115q0 61 -22 114t-60.5 92t-90 61.5t-111.5 22.5zM393 681q74 0 138 -27t111.5 -73.5t74.5 -110t27 -136.5q0 -74 -27.5 -137.5
t-76 -110.5t-114 -74t-140.5 -27q-74 0 -137 27.5t-110 75.5t-73.5 113.5t-26.5 141.5q0 70 28 131.5t76 107.5t112.5 72.5t137.5 26.5z" />
    <glyph glyph-name="P" unicode="P" horiz-adv-x="430" 
d="M167 337q37 0 59 3.5t39 11.5q35 17 53.5 48.5t18.5 73.5q0 41 -19 72.5t-53 47.5q-16 8 -35.5 11t-48.5 3h-44v-271h30zM167 667q54 0 90 -7.5t62 -24.5q40 -26 63 -68.5t23 -91.5q0 -31 -9 -59.5t-26 -52.5t-40.5 -42t-51.5 -28q-42 -15 -141 -15v-278h-67v667h97z" />
    <glyph glyph-name="Q" unicode="Q" horiz-adv-x="775" 
d="M522 78q78 47 113 107.5t35 145.5q0 61 -22 114.5t-60 92.5t-90 61.5t-112 22.5q-59 0 -110.5 -22t-89.5 -60t-59.5 -90t-21.5 -112q0 -61 22 -114.5t60 -93.5t89 -63t110 -23q21 0 40.5 2t32.5 6l-130 148l48 42zM652 -67l-50 -40l-102 112q-24 -9 -57.5 -14.5
t-63.5 -5.5q-70 0 -132 28t-108.5 76t-74 111.5t-27.5 135.5q0 73 27.5 135.5t75 109t112 73t138.5 26.5t137.5 -26.5t110.5 -72.5t74 -108.5t27 -135.5q0 -97 -46 -177.5t-129 -128.5z" />
    <glyph glyph-name="R" unicode="R" horiz-adv-x="469" 
d="M137 306q46 0 72.5 3.5t47.5 11.5q46 19 70.5 55.5t24.5 86.5q0 44 -20.5 78t-57.5 51q-33 16 -93 16h-44v-302zM154 667q60 0 98.5 -7t67.5 -22q48 -26 74 -72.5t26 -103.5q0 -38 -12.5 -71t-35 -59.5t-54.5 -44.5t-71 -25l194 -233l-51 -40l-253 298v-287h-67v667h84z
" />
    <glyph glyph-name="S" unicode="S" horiz-adv-x="450" 
d="M377 590q-52 18 -86.5 25.5t-64.5 7.5q-27 0 -50.5 -8.5t-41 -23.5t-27.5 -35.5t-10 -44.5q0 -23 7.5 -40.5t25.5 -33t48.5 -30.5t75.5 -32q27 -10 47 -18.5t34.5 -16.5t25 -16t20.5 -18q23 -23 36 -55t13 -67q0 -43 -17.5 -79.5t-48.5 -63.5t-73.5 -42t-92.5 -15
q-94 0 -178 47l18 59q48 -23 87.5 -34t77.5 -11q33 0 61.5 10t49.5 28t33 42.5t12 53.5q0 25 -6.5 43.5t-23 34t-44.5 30t-71 30.5q-48 18 -72.5 29t-44.5 25q-33 23 -51.5 58t-18.5 76q0 39 15.5 71.5t43 56.5t66 37t84.5 13q40 0 78 -8t88 -28z" />
    <glyph glyph-name="T" unicode="T" horiz-adv-x="355" 
d="M349 667v-60h-134v-607h-69v607h-141l20 60h324z" />
    <glyph glyph-name="U" unicode="U" horiz-adv-x="500" 
d="M124 667v-461q0 -24 1 -41t3 -30t6.5 -23t10.5 -20q16 -25 42.5 -38.5t58.5 -13.5q48 0 79.5 25t42.5 73q7 28 7 88v441h68v-449q0 -45 -4 -73.5t-15 -52.5q-23 -54 -69 -83t-109 -29q-66 0 -114 33.5t-65 92.5q-5 17 -7 40.5t-2 61.5v459h66z" />
    <glyph glyph-name="V" unicode="V" horiz-adv-x="536" 
d="M83 667l187 -521l185 521h70l-248 -688h-15l-252 688h73z" />
    <glyph glyph-name="W" unicode="W" horiz-adv-x="722" 
d="M80 667l121 -495l158 470l153 -470l133 495h67l-186 -689h-22l-147 457l-153 -457h-20l-174 689h70z" />
    <glyph glyph-name="X" unicode="X" horiz-adv-x="452" 
d="M104 667l125 -248l130 248h75l-168 -319l178 -348h-76l-141 274l-143 -274h-77l182 348l-161 319h76z" />
    <glyph glyph-name="Y" unicode="Y" horiz-adv-x="458" 
d="M84 667l145 -283l143 283h76l-188 -356v-311h-68v311l-182 356h74z" />
    <glyph glyph-name="Z" unicode="Z" horiz-adv-x="377" 
d="M367 667l-261 -609h242v-58h-338l260 609h-220l15 58h302z" />
    <glyph glyph-name="bracketleft" unicode="[" horiz-adv-x="258" 
d="M242 696h-90v-720h90v-57h-154v834h154v-57z" />
    <glyph glyph-name="backslash" unicode="\" horiz-adv-x="465" 
d="M438 0h-63l-349 812h64z" />
    <glyph glyph-name="bracketright" unicode="]" horiz-adv-x="258" 
d="M170 753v-834h-154v57h90v720h-90v57h154z" />
    <glyph glyph-name="asciicircum" unicode="^" horiz-adv-x="500" 
d="M35 380l180 288h70l179 -288h-70l-145 230l-145 -230h-69z" />
    <glyph glyph-name="underscore" unicode="_" horiz-adv-x="500" 
d="M500 -132h-500v53h500v-53z" />
    <glyph glyph-name="grave" unicode="`" horiz-adv-x="285" 
d="M218 486l-37 -23l-114 115l56 33z" />
    <glyph glyph-name="a" unicode="a" horiz-adv-x="440" 
d="M212 320q-50 0 -80.5 -38t-30.5 -98q0 -64 29.5 -102.5t80.5 -38.5t81.5 38t30.5 101q0 62 -30.5 100t-80.5 38zM388 370v-370h-62v36q-24 -23 -56.5 -36.5t-65.5 -13.5q-36 0 -66.5 14.5t-53.5 40.5t-36 60.5t-13 75.5q0 43 13.5 79.5t37 63.5t55.5 42.5t70 15.5
q33 0 62.5 -13t50.5 -36l1 41h63z" />
    <glyph glyph-name="b" unicode="b" horiz-adv-x="418" 
d="M115 56q30 0 49 0.5t32 1.5t22.5 3t20.5 6q37 12 58.5 44.5t21.5 75.5q0 66 -39.5 100t-117.5 34h-47v-265zM115 688v-308q49 0 77.5 -2t51.5 -8q65 -16 102 -64t37 -117q0 -67 -37 -115.5t-102 -64.5q-19 -5 -43 -7t-65 -2h-84v667z" />
    <glyph glyph-name="c" unicode="c" horiz-adv-x="397" 
d="M329 293q-25 15 -51.5 23t-50.5 8q-27 0 -50 -11t-40 -29.5t-26.5 -44t-9.5 -54.5q0 -30 10 -56t27 -45t40.5 -30t50.5 -11q26 0 55 8.5t54 23.5l22 -50q-56 -37 -125 -37q-43 0 -79.5 15t-63.5 41t-42 62t-15 78q0 41 15 77t41.5 62.5t62.5 42t77 15.5q31 0 63.5 -9.5
t63.5 -26.5z" />
    <glyph glyph-name="d" unicode="d" horiz-adv-x="419" 
d="M258 320q-75 0 -117 -35.5t-42 -100.5q0 -40 18.5 -70t51.5 -45t91 -15h44v266h-46zM367 0h-96q-59 0 -94 7t-61 24q-38 25 -59.5 66t-21.5 90q0 55 28 100t76 67q16 8 28 12t27 6.5t38.5 3.5t64.5 2h7v290l63 22v-690z" />
    <glyph glyph-name="e" unicode="e" horiz-adv-x="416" 
d="M304 255q-13 34 -38 53t-57 19q-46 0 -76.5 -30t-34.5 -80zM103 161q7 -52 43.5 -85.5t87.5 -33.5q29 0 59 10.5t56 29.5l22 -46q-59 -47 -137 -47q-43 0 -79.5 15.5t-63 43t-41.5 65t-15 81.5q0 40 13 74.5t36.5 59.5t55 39t69.5 14q136 0 172 -169z" />
    <glyph glyph-name="f" unicode="f" horiz-adv-x="222" 
d="M223 618q-8 1 -11.5 1h-7.5q-42 0 -59 -32.5t-17 -112.5v-106h83v-53h-84v-480l-63 -21v501h-46l27 53h19l1 107v8q-2 194 131 194h12t15 -2v-57z" />
    <glyph glyph-name="g" unicode="g" horiz-adv-x="392" 
d="M233 315q-11 5 -21 7t-21 2q-19 0 -36 -8t-29.5 -21.5t-19.5 -32t-7 -39.5q0 -42 26.5 -69t66.5 -27q41 0 69 28.5t28 70.5q0 34 -21 63l-32 -50l-23 25zM337 404l-37 -63q55 -49 55 -116q0 -76 -66 -121q31 -18 49.5 -53t18.5 -75q0 -34 -12.5 -62.5t-34.5 -49t-53 -32
t-67 -11.5q-49 0 -93 21.5t-76 61.5l39 52q52 -79 127 -79q22 0 42 8t34 21.5t22.5 32.5t8.5 40q0 19 -7 36t-19 30t-28.5 20t-35.5 7q-17 0 -32 -4.5t-33 -14.5l-24 38q-35 15 -57.5 52t-22.5 81q0 33 12 61.5t33 49.5t49.5 33.5t61.5 12.5t63 -13l31 73z" />
    <glyph glyph-name="h" unicode="h" horiz-adv-x="402" 
d="M116 687v-319h59q47 0 75.5 -7.5t53.5 -26.5q28 -22 40 -51.5t12 -74.5v-208h-64v176q0 21 -1 36t-4 26.5t-7.5 20t-11.5 16.5q-17 20 -40 28t-59 8h-53v-311h-64v666z" />
    <glyph glyph-name="i" unicode="i" horiz-adv-x="165" 
d="M112 368v-368h-60v368h60zM112 573v-92h-60v92h60z" />
    <glyph glyph-name="j" unicode="j" horiz-adv-x="170" 
d="M115 368v-421q0 -94 -33.5 -137.5t-108.5 -45.5l-1 56q24 1 40.5 7.5t26 21.5t13.5 40t4 63v416h59zM114 572v-91h-58v91h58z" />
    <glyph glyph-name="k" unicode="k" horiz-adv-x="378" 
d="M116 216l154 154l81 -1l-143 -143l162 -226h-71l-131 186l-52 -52v-134h-61v666l61 20v-470z" />
    <glyph glyph-name="l" unicode="l" horiz-adv-x="168" 
d="M115 0h-63v667l63 22v-689z" />
    <glyph glyph-name="m" unicode="m" horiz-adv-x="644" 
d="M183 368q80 0 109 -25q64 29 128 29q60 0 104 -25.5t62 -71.5q7 -16 9.5 -35.5t2.5 -48.5v-191h-64v176q0 34 -2 50t-9 30q-27 58 -108 58q-24 0 -45.5 -5t-35.5 -13q12 -16 16.5 -38t4.5 -64v-194h-63v173q0 44 -4 64t-17 37q-27 36 -83 36h-76v-310h-60v368h131z" />
    <glyph glyph-name="n" unicode="n" horiz-adv-x="404" 
d="M177 368q51 0 81.5 -9t54.5 -30q24 -22 34.5 -51.5t10.5 -79.5v-198h-64v179q0 41 -4.5 61t-18.5 37q-15 19 -36 26.5t-59 7.5h-62v-311h-62v368h125z" />
    <glyph glyph-name="o" unicode="o" horiz-adv-x="478" 
d="M243 328q-30 0 -56 -11t-44.5 -29.5t-29.5 -44.5t-11 -56q0 -32 10.5 -58.5t28.5 -46t43 -30.5t55 -11t56 10.5t45 29.5t29.5 44.5t10.5 55.5q0 31 -10.5 58t-29 46.5t-43.5 31t-54 11.5zM238 385q45 0 82.5 -15.5t65 -42.5t43 -64t15.5 -80t-15.5 -79.5t-43 -63.5
t-65.5 -42t-82 -15q-42 0 -79 16t-64.5 43.5t-43.5 64.5t-16 80q0 41 17.5 80t49.5 68q26 24 61 37t75 13z" />
    <glyph glyph-name="p" unicode="p" horiz-adv-x="416" 
d="M114 54q30 0 49.5 1t33.5 2.5t24 3.5t19 6q77 32 77 115q0 62 -41 96.5t-113 34.5h-49v-259zM157 368q29 0 46 -1.5t37 -6.5q31 -7 57 -23.5t45 -40t29.5 -52.5t10.5 -61q0 -63 -36.5 -110t-99.5 -64q-36 -10 -111 -10h-22v-208l-61 -20v597h105z" />
    <glyph glyph-name="q" unicode="q" horiz-adv-x="416" 
d="M302 313h-49q-72 0 -113 -34.5t-41 -96.5q0 -45 24.5 -77t69.5 -44q14 -4 38 -5t71 -2v259zM364 -209l-61 -20v228h-22q-50 0 -79.5 3.5t-53.5 13.5q-54 22 -84 66t-30 101q0 32 10.5 61t29.5 52.5t45 40t57 23.5q20 5 37 6.5t46 1.5h105v-577z" />
    <glyph glyph-name="r" unicode="r" horiz-adv-x="264" 
d="M113 368v-36q18 23 35 33t37 10q41 0 69 -53l-37 -57q-20 51 -46 51t-42 -33.5t-16 -89.5v-193h-61v368h61z" />
    <glyph glyph-name="s" unicode="s" horiz-adv-x="260" 
d="M224 320q-14 3 -25 4t-22 1q-32 0 -51.5 -15t-19.5 -39q0 -15 9.5 -26t38.5 -31q44 -29 61 -53.5t17 -56.5q0 -25 -11 -46t-30.5 -36.5t-46 -24t-58.5 -8.5q-18 0 -33.5 1.5t-35.5 5.5l9 50q21 -2 35 -3t23 -1q38 0 60.5 16.5t22.5 44.5q0 17 -10.5 30t-42.5 35
q-42 28 -57 49t-15 51q0 49 36.5 79.5t94.5 30.5q27 0 63 -6z" />
    <glyph glyph-name="t" unicode="t" horiz-adv-x="205" 
d="M124 368h78v-54h-78v-314h-64v314h-47l28 54h19v144l64 53v-197z" />
    <glyph glyph-name="u" unicode="u" horiz-adv-x="396" 
d="M109 368v-185q0 -50 4 -73.5t17 -39.5q24 -35 68 -35q33 0 57 19.5t30 51.5q3 16 4 32t1 42v188h61v-201q0 -25 -2 -42.5t-7 -36.5q-14 -50 -53 -79t-92 -29q-51 0 -88.5 26.5t-52.5 72.5q-10 30 -10 97v192h63z" />
    <glyph glyph-name="v" unicode="v" horiz-adv-x="372" 
d="M76 368l109 -283l110 283h66l-146 -372h-61l-143 372h65z" />
    <glyph glyph-name="w" unicode="w" horiz-adv-x="584" 
d="M77 368l98 -280l90 280h57l96 -281l94 281h61l-126 -372h-60l-93 268l-88 -268h-61l-134 372h66z" />
    <glyph glyph-name="x" unicode="x" horiz-adv-x="393" 
d="M105 368l94 -124l97 124h76l-135 -174l145 -194h-75l-110 145l-112 -145h-74l149 194l-130 174h75z" />
    <glyph glyph-name="y" unicode="y" horiz-adv-x="369" 
d="M74 368l110 -287l110 287h64l-235 -598l-56 21l84 213l-140 364h63z" />
    <glyph glyph-name="z" unicode="z" horiz-adv-x="327" 
d="M318 368l-201 -310h194v-58h-301l200 313h-178l17 55h269z" />
    <glyph glyph-name="braceleft" unicode="{" horiz-adv-x="258" 
d="M162 430q0 -47 -10.5 -71.5t-37.5 -41.5q26 -17 37 -43t11 -73v-172q0 -28 4 -46t14.5 -28.5t29 -15t47.5 -4.5v-50q-7 -1 -13 -1h-8q-74 0 -105 33.5t-31 115.5v168q0 45 -12.5 66t-44.5 30v40q32 9 44.5 30t12.5 66v182q0 72 32 104t104 32h21v-51q-29 -1 -47.5 -5
t-29 -14t-14.5 -27t-4 -44v-180z" />
    <glyph glyph-name="bar" unicode="|" horiz-adv-x="500" 
d="M281 667v-834h-61v834h61z" />
    <glyph glyph-name="braceright" unicode="}" horiz-adv-x="258" 
d="M96 201q0 47 11 73t37 43q-27 17 -37.5 41.5t-10.5 71.5v180q0 27 -4 44t-14.5 27t-29 14t-47.5 5v51h21q72 0 104 -32t32 -104v-182q0 -45 12.5 -66t44.5 -30v-40q-32 -9 -44.5 -30t-12.5 -66v-168q0 -82 -31 -115.5t-105 -33.5h-8t-13 1v50q29 0 47.5 4.5t29 15
t14.5 28.5t4 46v172z" />
    <glyph glyph-name="asciitilde" unicode="~" horiz-adv-x="500" 
d="M504 680q-37 -66 -70.5 -95.5t-71.5 -29.5q-9 0 -17.5 1.5t-24.5 7.5t-43.5 18t-75.5 34q-42 18 -64 18q-24 0 -45 -19t-49 -66l-38 33q37 61 66.5 86t64.5 25q10 0 20 -1.5t24 -6.5t34 -13.5t50 -22.5q23 -11 39 -17.5t27 -10.5t18 -5.5t12 -1.5q28 0 52.5 23t50.5 74z
" />
    <glyph glyph-name="uni00A0" unicode="&#xa0;" horiz-adv-x="233" 
 />
    <glyph glyph-name="exclamdown" unicode="&#xa1;" horiz-adv-x="292" 
d="M111 499h66v-81h-66v81zM122 336h48l20 -504h-88z" />
    <glyph glyph-name="cent" unicode="&#xa2;" 
d="M252 667h40v-56q18 -3 31.5 -6t25.5 -6.5t23.5 -9t24.5 -12.5l-29 -52q-54 30 -101 30q-27 0 -50 -11t-40 -29.5t-27 -44t-10 -54.5q0 -30 10 -55.5t27 -44.5t40.5 -30t50.5 -11q26 0 55.5 8.5t53.5 23.5l22 -50q-42 -28 -103 -36v-81h-40v81q-41 4 -74.5 20t-57.5 41.5
t-37 59.5t-13 73q0 38 14 73t38 61.5t56.5 43t69.5 18.5v56z" />
    <glyph glyph-name="sterling" unicode="&#xa3;" 
d="M115 340l15 56l1 6q20 81 44 129.5t59 81.5q24 22 57 34.5t68 12.5q32 0 68 -9l12 -59q-17 5 -37.5 8t-37.5 3q-91 0 -135 -107q-11 -28 -22.5 -69t-22.5 -87h147l1 -58h-159l-51 -217q20 5 37.5 6.5t36.5 1.5q21 0 41 -2.5t52 -8.5q27 -6 42 -8t32 -2q18 0 36.5 3
t40.5 9v-55q-22 -10 -43 -14t-47 -4q-19 0 -35 2t-46 9q-24 5 -42 7t-41 2q-34 0 -71 -5t-79 -15l64 291h-63l-1 58h79z" />
    <glyph glyph-name="currency" unicode="&#xa4;" horiz-adv-x="667" 
d="M336 531q-37 0 -69.5 -14t-56.5 -38t-38 -56t-14 -69t14 -69.5t38 -56.5t56 -38t68 -14t67.5 14t55.5 38t37.5 56.5t13.5 68.5t-13.5 68.5t-37 57t-55 38.5t-66.5 14zM154 211q-27 36 -38.5 68.5t-11.5 74.5q0 41 11.5 73t39.5 70l-94 93l34 34l93 -94q38 29 71 41t74 12
q40 0 72.5 -11.5t70.5 -39.5l92 92l33 -34l-91 -91q29 -36 41 -69.5t12 -76.5q0 -42 -11.5 -74t-38.5 -67l92 -93l-34 -33l-91 92q-37 -29 -71.5 -41.5t-74.5 -12.5t-74.5 12t-72.5 41l-92 -91l-34 33z" />
    <glyph glyph-name="yen" unicode="&#xa5;" 
d="M416 373v-59h-144l-2 -3v-62h146v-59h-146v-190h-68v190h-147v59h147v62l-2 3h-145v59h115l-150 294h74l145 -284l143 284h76l-155 -294h113z" />
    <glyph glyph-name="brokenbar" unicode="&#xa6;" horiz-adv-x="500" 
d="M281 153v-320h-61v320h61zM281 667v-330h-61v330h61z" />
    <glyph glyph-name="section" unicode="&#xa7;" horiz-adv-x="507" 
d="M334 137q77 27 77 89q0 15 -6 28.5t-22 28.5t-43.5 32.5t-69.5 41.5q-13 7 -25.5 13.5t-23.5 14.5q-10 6 -15.5 10t-9 6t-5.5 3t-5 3q-38 -11 -59 -34t-21 -52q0 -14 4.5 -26.5t15 -24.5t28 -25.5t43.5 -29.5q10 -6 26.5 -16t35.5 -21t38.5 -21.5t36.5 -19.5zM367 511
q-2 55 -31 84.5t-83 29.5q-43 0 -70.5 -20t-27.5 -52q0 -17 5.5 -31t20.5 -28t41 -30.5t66 -37.5q58 -31 95 -55t58.5 -46.5t29.5 -46.5t8 -54q0 -45 -25.5 -79.5t-70.5 -51.5q43 -39 43 -97q0 -30 -12 -54.5t-33 -42t-51 -27.5t-66 -10q-82 0 -127.5 44.5t-47.5 125.5h60
q2 -55 31 -84t83 -29q43 0 70.5 20t27.5 51q0 17 -5.5 31t-20.5 28.5t-41 30.5t-66 37q-57 30 -94.5 54t-59.5 46.5t-30.5 46t-8.5 52.5q0 45 26 81t71 53q-42 42 -42 97q0 30 12 55t33 42.5t51 27.5t66 10q81 0 127 -44.5t48 -126.5h-60z" />
    <glyph glyph-name="dieresis" unicode="&#xa8;" horiz-adv-x="333" 
d="M267 566v-85h-56v85h56zM123 566v-85h-56v85h56z" />
    <glyph glyph-name="copyright" unicode="&#xa9;" horiz-adv-x="784" 
d="M482 466q-40 17 -74 17q-29 0 -54 -11.5t-43.5 -32t-29 -48t-10.5 -58.5t10.5 -57.5t29 -46t43.5 -31t54 -11.5q42 0 82 25l19 -59q-52 -26 -102 -26q-44 0 -81 15.5t-64.5 43t-43 64.5t-15.5 80q0 44 16.5 83t44.5 68.5t66 46.5t80 17q20 0 45 -5t45 -13zM394 619
q-60 0 -112 -22t-91 -61t-61 -91t-22 -112q0 -59 22.5 -111t60.5 -90.5t89.5 -61t110.5 -22.5q58 0 109.5 22.5t90 61t60.5 90.5t22 111q0 58 -22 110t-60 91t-89 62t-108 23zM396 679q70 0 132 -27.5t108.5 -74.5t73.5 -110t27 -133q0 -72 -27 -135t-74 -110t-110 -74
t-134 -27q-72 0 -135 27t-110 74t-74 110t-27 134q0 72 27 135.5t74.5 110t111 73.5t137.5 27z" />
    <glyph glyph-name="ordfeminine" unicode="&#xaa;" horiz-adv-x="365" 
d="M179 633q-29 0 -47.5 -22.5t-18.5 -58.5q0 -39 18 -62t48 -23t48.5 22.5t18.5 60.5q0 37 -18.5 60t-48.5 23zM285 663v-222h-37v21q-34 -29 -73 -29q-44 0 -73 33t-29 82q0 25 8 47t22.5 38.5t33.5 25.5t42 9q42 0 68 -29v24h38zM300 346h-232v42h232v-42z" />
    <glyph glyph-name="guillemotleft" unicode="&#xab;" horiz-adv-x="362" 
d="M257 380h68l-96 -176l96 -175h-68l-98 175zM134 380h69l-97 -176l97 -175h-69l-98 175z" />
    <glyph glyph-name="logicalnot" unicode="&#xac;" horiz-adv-x="500" 
d="M435 210h-424v53h478v-263h-54v210z" />
    <glyph glyph-name="uni00AD" unicode="&#xad;" horiz-adv-x="338" 
d="M304 334v-59h-270v59h270z" />
    <glyph glyph-name="registered" unicode="&#xae;" horiz-adv-x="784" 
d="M383 348q17 0 24 1t14 4q17 7 26 23t9 38q0 27 -17 42.5t-47 15.5h-34v-124h25zM383 532q68 0 105.5 -31t37.5 -87q0 -43 -24.5 -75.5t-68.5 -46.5l95 -128l-52 -36l-119 162v-158h-65v400h91zM394 619q-60 0 -112 -22t-91 -61t-61 -91t-22 -112q0 -59 22.5 -111
t60.5 -90.5t89.5 -61t110.5 -22.5q58 0 109.5 22.5t90 61t60.5 90.5t22 111q0 58 -22 110t-60 91t-89 62t-108 23zM396 679q70 0 132 -27.5t108.5 -74.5t73.5 -110t27 -133q0 -72 -27 -135t-74 -110t-110 -74t-134 -27q-72 0 -135 27t-110 74t-74 110t-27 134q0 72 27 135.5
t74.5 110t111 73.5t137.5 27z" />
    <glyph glyph-name="macron" unicode="&#xaf;" horiz-adv-x="383" 
d="M316 550v-58h-249v58h249z" />
    <glyph glyph-name="degree" unicode="&#xb0;" horiz-adv-x="500" 
d="M251 625q-36 0 -61 -25t-25 -61t25 -61t60 -25t60 25t25 61q0 18 -6.5 33.5t-18 27t-27 18.5t-32.5 7zM252 679q29 0 54.5 -11t45 -30t30.5 -44.5t11 -54.5t-11 -54.5t-30.5 -44.5t-45.5 -30t-55 -11q-30 0 -56 11t-45.5 30t-30.5 44.5t-11 54.5t11 54.5t30.5 44.5t46 30
t56.5 11z" />
    <glyph glyph-name="plusminus" unicode="&#xb1;" horiz-adv-x="500" 
d="M471 128v-63h-441v63h441zM219 413v176h63v-176h189v-63h-189v-162h-63v162h-189v63h189z" />
    <glyph glyph-name="uni00B2" unicode="&#xb2;" horiz-adv-x="286" 
d="M32 638q14 15 39.5 24.5t51.5 9.5q48 0 80 -29.5t32 -75.5q0 -22 -6 -45t-21 -53.5t-40 -70.5t-63 -95l141 1v-37h-213q46 65 77 111.5t49.5 81t26 59t7.5 46.5q0 31 -19 50.5t-49 19.5q-41 0 -79 -32z" />
    <glyph glyph-name="uni00B3" unicode="&#xb3;" horiz-adv-x="286" 
d="M36 643q43 27 84 27q48 0 79.5 -29t31.5 -73q0 -56 -55 -87q30 -12 48.5 -40t18.5 -63q0 -51 -34.5 -83t-88.5 -32q-20 0 -41.5 4t-35.5 10v39q41 -17 75 -17q37 0 61 22t24 57q0 38 -26.5 59.5t-75.5 21.5l-15 1v34h3q15 1 24 1.5t16 2t12.5 4t11.5 6.5q17 10 26.5 27
t9.5 35q0 28 -19.5 45.5t-49.5 17.5q-34 0 -74 -26z" />
    <glyph glyph-name="acute" unicode="&#xb4;" horiz-adv-x="301" 
d="M270 578l-114 -115l-37 23l95 125z" />
    <glyph glyph-name="mu" unicode="&#xb5;" horiz-adv-x="410" 
d="M53 368h62v-169q0 -41 6 -64t21 -41q24 -30 62 -30q43 0 67.5 36.5t24.5 99.5v168h62v-368h-62v38q-26 -23 -46.5 -32t-43.5 -9q-48 0 -91 38v-201h-62v534z" />
    <glyph glyph-name="paragraph" unicode="&#xb6;" horiz-adv-x="540" 
d="M234 314h-16q-41 1 -75 14t-58 36t-37.5 54.5t-13.5 70.5q0 50 23 91t65 62q22 12 56.5 18.5t73.5 6.5h221v-32h-48v-734h-40v734h-110v-734h-41v413z" />
    <glyph glyph-name="periodcentered" unicode="&#xb7;" horiz-adv-x="203" 
d="M135 286v-81h-67v81h67z" />
    <glyph glyph-name="cedilla" unicode="&#xb8;" horiz-adv-x="255" 
d="M147 -30q18 -3 29.5 -16.5t11.5 -32.5q0 -26 -19.5 -41.5t-53.5 -15.5q-14 0 -24 1.5t-24 6.5l13 41q13 -4 27 -4q22 0 22 15q0 18 -32 16q-3 0 -6 -1l18 61h47z" />
    <glyph glyph-name="uni00B9" unicode="&#xb9;" horiz-adv-x="286" 
d="M173 666v-399h-40v363h-44l8 36h76z" />
    <glyph glyph-name="ordmasculine" unicode="&#xba;" horiz-adv-x="392" 
d="M197 636q-35 0 -59.5 -24.5t-24.5 -59.5q0 -38 23.5 -63t58.5 -25q37 0 61 24t24 60q0 38 -24 63t-59 25zM195 670q54 0 88.5 -34t34.5 -87q0 -26 -9.5 -47.5t-26 -38t-39 -25.5t-48.5 -9t-48 9.5t-38.5 26t-26 39t-9.5 48.5q0 25 9.5 46.5t26 37.5t38.5 25t48 9z
M324 346h-256v42h256v-42z" />
    <glyph glyph-name="guillemotright" unicode="&#xbb;" horiz-adv-x="362" 
d="M106 29h-69l97 175l-97 176h69l98 -176zM228 29h-68l96 175l-96 176h68l98 -176z" />
    <glyph glyph-name="onequarter" unicode="&#xbc;" horiz-adv-x="738" 
d="M430 156h119v154zM589 156h44v-36h-44v-120h-40v120h-172v23l197 256h15v-243zM180 666v-399h-40v363h-44l8 36h76zM179 0h-46l344 671h46z" />
    <glyph glyph-name="onehalf" unicode="&#xbd;" horiz-adv-x="738" 
d="M438 371q17 16 41 25t50 9q48 0 80 -30t32 -75q0 -22 -6 -45t-21 -53.5t-40 -70.5t-63 -95l141 1v-37h-213q46 65 77 111.5t49.5 81t26 59t7.5 46.5q0 31 -19 50.5t-49 19.5q-41 0 -79 -32zM173 666v-399h-40v363h-44l8 36h76zM172 0h-46l344 671h46z" />
    <glyph glyph-name="threequarters" unicode="&#xbe;" horiz-adv-x="738" 
d="M75 643q43 27 84 27q48 0 79.5 -29t31.5 -73q0 -56 -55 -87q30 -12 48.5 -40t18.5 -63q0 -51 -34.5 -83t-88.5 -32q-20 0 -41.5 4t-35.5 10v39q41 -17 75 -17q37 0 61 22t24 57q0 38 -26.5 59.5t-75.5 21.5l-15 1v34h3q15 1 24 1.5t16 2t12.5 4t11.5 6.5q17 10 26.5 27
t9.5 35q0 28 -19.5 45.5t-49.5 17.5q-34 0 -74 -26zM457 156h119v154zM616 156h44v-36h-44v-120h-40v120h-172v23l197 256h15v-243zM237 0h-46l344 671h46z" />
    <glyph glyph-name="questiondown" unicode="&#xbf;" horiz-adv-x="435" 
d="M217 419v81h67v-81h-67zM374 -131q-58 -45 -128 -45q-39 0 -73 13.5t-59 37t-39.5 55.5t-14.5 69q0 50 25 86t81 67q24 13 38.5 23.5t23 21t11.5 23t3 29.5q0 22 -4 44t-12 51h58q22 -45 22 -97q0 -25 -4.5 -46t-13.5 -35q-6 -10 -11 -17t-14.5 -14t-25.5 -17t-43 -26
q-68 -40 -68 -98q0 -23 9.5 -43.5t26 -36t38.5 -24.5t47 -9q51 0 99 36z" />
    <glyph glyph-name="Agrave" unicode="&#xc0;" horiz-adv-x="486" 
d="M269 738l-37 -23l-114 115l56 33zM154 229h180l-89 292zM264 687l211 -687h-71l-52 170h-216l-52 -170h-72l52 170h-46l16 59h49l146 458h35z" />
    <glyph glyph-name="Aacute" unicode="&#xc1;" horiz-adv-x="486" 
d="M379 830l-114 -115l-37 23l95 125zM154 229h180l-89 292zM264 687l211 -687h-71l-52 170h-216l-52 -170h-72l52 170h-46l16 59h49l146 458h35z" />
    <glyph glyph-name="Acircumflex" unicode="&#xc2;" horiz-adv-x="486" 
d="M264 844l91 -124h-64l-44 62l-45 -62h-63l90 124h35zM154 229h180l-89 292zM264 687l211 -687h-71l-52 170h-216l-52 -170h-72l52 170h-46l16 59h49l146 458h35z" />
    <glyph glyph-name="Atilde" unicode="&#xc3;" horiz-adv-x="486" 
d="M372 803q-18 -41 -36.5 -57t-45.5 -16q-15 0 -27 5t-28 18q-18 16 -23.5 19t-13.5 3q-13 0 -20.5 -8.5t-21.5 -36.5l-41 31q19 41 37 57t45 16q17 0 30 -6.5t36 -26.5q15 -12 25 -12q13 0 21 8.5t22 36.5zM154 229h180l-89 292zM264 687l211 -687h-71l-52 170h-216
l-52 -170h-72l52 170h-46l16 59h49l146 458h35z" />
    <glyph glyph-name="Adieresis" unicode="&#xc4;" horiz-adv-x="486" 
d="M359 818v-85h-56v85h56zM188 818v-85h-56v85h56zM154 229h180l-89 292zM264 687l211 -687h-71l-52 170h-216l-52 -170h-72l52 170h-46l16 59h49l146 458h35z" />
    <glyph glyph-name="Aring" unicode="&#xc5;" horiz-adv-x="486" 
d="M247 843q-20 0 -33 -13.5t-13 -33.5q0 -19 13 -32.5t32 -13.5q20 0 33.5 13t13.5 33t-13 33.5t-33 13.5zM247 887q19 0 35.5 -7t28.5 -19.5t19 -29t7 -35.5t-7 -35.5t-19.5 -28.5t-29.5 -19t-36 -7q-37 0 -63 26.5t-26 64.5q0 19 7 35.5t19.5 28.5t29 19t35.5 7zM154 229
h180l-89 292zM264 687l211 -687h-71l-52 170h-216l-52 -170h-72l52 170h-46l16 59h49l146 458h35z" />
    <glyph glyph-name="AE" unicode="&#xc6;" horiz-adv-x="715" 
d="M213 229h160v299zM632 667l18 -58h-209v-245h223v-60h-223v-245h206v-59h-274v170h-191l-90 -170h-76l90 170h-60l19 59h73l238 438h256z" />
    <glyph glyph-name="Ccedilla" unicode="&#xc7;" horiz-adv-x="598" 
d="M386 -30q18 -3 29.5 -16.5t11.5 -32.5q0 -26 -19.5 -41.5t-53.5 -15.5q-14 0 -24 1.5t-24 6.5l13 42q8 -3 13.5 -4t13.5 -1q22 0 22 15q0 16 -32 16h-6l14 46q-67 10 -123 41t-96.5 78t-63.5 107t-23 128q0 72 27.5 135t76 109.5t113.5 73t140 26.5q82 0 156 -34l-27 -58
q-72 33 -137 33q-58 0 -108.5 -23t-88.5 -62t-60 -91.5t-22 -112.5q0 -62 21.5 -115t59.5 -92t89.5 -61.5t111.5 -22.5q77 0 143 37l24 -57q-14 -9 -34.5 -16.5t-43 -13t-45.5 -8.5t-44 -3z" />
    <glyph glyph-name="Egrave" unicode="&#xc8;" horiz-adv-x="410" 
d="M262 738l-38 -23l-114 115l56 33zM327 667l18 -59h-206v-243h223v-61h-223v-246h204v-58h-273v304h-46v61h45v302h258z" />
    <glyph glyph-name="Eacute" unicode="&#xc9;" horiz-adv-x="410" 
d="M331 830l-114 -115l-38 23l96 125zM327 667l18 -59h-206v-243h223v-61h-223v-246h204v-58h-273v304h-46v61h45v302h258z" />
    <glyph glyph-name="Ecircumflex" unicode="&#xca;" horiz-adv-x="410" 
d="M214 844l90 -124h-63l-45 62l-44 -62h-64l91 124h35zM327 667l18 -59h-206v-243h223v-61h-223v-246h204v-58h-273v304h-46v61h45v302h258z" />
    <glyph glyph-name="Edieresis" unicode="&#xcb;" horiz-adv-x="410" 
d="M311 818v-85h-56v85h56zM141 818v-85h-56v85h56zM327 667l18 -59h-206v-243h223v-61h-223v-246h204v-58h-273v304h-46v61h45v302h258z" />
    <glyph glyph-name="Igrave" unicode="&#xcc;" horiz-adv-x="210" 
d="M147 738l-37 -23l-114 115l56 33zM71 667h66v-667h-66v667z" />
    <glyph glyph-name="Iacute" unicode="&#xcd;" horiz-adv-x="210" 
d="M231 830l-114 -115l-37 23l95 125zM72 667h66v-667h-66v667z" />
    <glyph glyph-name="Icircumflex" unicode="&#xce;" horiz-adv-x="209" 
d="M123 844l90 -124h-63l-45 62l-44 -62h-64l91 124h35zM72 667h66v-667h-66v667z" />
    <glyph glyph-name="Idieresis" unicode="&#xcf;" horiz-adv-x="210" 
d="M187 818v-85h-56v85h56zM79 818v-85h-56v85h56zM72 667h66v-667h-66v667z" />
    <glyph glyph-name="Eth" unicode="&#xd0;" horiz-adv-x="581" 
d="M138 59h36q38 0 69 5t60 16q38 14 69.5 39t53.5 58.5t34 73t12 83.5q0 39 -10 76t-28.5 69t-44.5 57.5t-58 42.5q-29 15 -59 22t-68 7h-66v-251h153v-58h-153v-240zM20 299v58h50v310h109q34 0 59 -2.5t51 -7.5q55 -12 101 -42.5t79.5 -73.5t52.5 -96t19 -110
q0 -56 -17 -107t-48 -93t-74.5 -73t-95.5 -46q-28 -8 -63 -12t-85 -4h-88v299h-50z" />
    <glyph glyph-name="Ntilde" unicode="&#xd1;" horiz-adv-x="580" 
d="M418 803q-18 -41 -36.5 -57t-45.5 -16q-15 0 -27 5t-28 18q-18 16 -23.5 19t-12.5 3q-13 0 -21 -8.5t-22 -36.5l-41 31q19 41 37 57t45 16q17 0 30.5 -6.5t36.5 -26.5q13 -12 24 -12q13 0 21 8.5t22 36.5zM97 676l345 -507v498h67v-683h-23l-348 507v-491h-68v676h27z
" />
    <glyph glyph-name="Ograve" unicode="&#xd2;" horiz-adv-x="784" 
d="M467 738l-37 -23l-114 115l56 33zM391 623q-59 0 -110.5 -22t-90 -59.5t-60.5 -89t-22 -109.5q0 -63 22 -118t60 -95.5t89 -64t110 -23.5q60 0 112.5 22.5t91 61.5t60.5 92t22 115q0 61 -22 114t-60.5 92t-90 61.5t-111.5 22.5zM393 681q74 0 138 -27t111.5 -73.5
t74.5 -110t27 -136.5q0 -74 -27.5 -137.5t-76 -110.5t-114 -74t-140.5 -27q-74 0 -137 27.5t-110 75.5t-73.5 113.5t-26.5 141.5q0 70 28 131.5t76 107.5t112.5 72.5t137.5 26.5z" />
    <glyph glyph-name="Oacute" unicode="&#xd3;" horiz-adv-x="784" 
d="M517 830l-114 -115l-37 23l95 125zM391 623q-59 0 -110.5 -22t-90 -59.5t-60.5 -89t-22 -109.5q0 -63 22 -118t60 -95.5t89 -64t110 -23.5q60 0 112.5 22.5t91 61.5t60.5 92t22 115q0 61 -22 114t-60.5 92t-90 61.5t-111.5 22.5zM393 681q74 0 138 -27t111.5 -73.5
t74.5 -110t27 -136.5q0 -74 -27.5 -137.5t-76 -110.5t-114 -74t-140.5 -27q-74 0 -137 27.5t-110 75.5t-73.5 113.5t-26.5 141.5q0 70 28 131.5t76 107.5t112.5 72.5t137.5 26.5z" />
    <glyph glyph-name="Ocircumflex" unicode="&#xd4;" horiz-adv-x="784" 
d="M409 844l91 -124h-64l-45 62l-44 -62h-64l91 124h35zM391 623q-59 0 -110.5 -22t-90 -59.5t-60.5 -89t-22 -109.5q0 -63 22 -118t60 -95.5t89 -64t110 -23.5q60 0 112.5 22.5t91 61.5t60.5 92t22 115q0 61 -22 114t-60.5 92t-90 61.5t-111.5 22.5zM393 681q74 0 138 -27
t111.5 -73.5t74.5 -110t27 -136.5q0 -74 -27.5 -137.5t-76 -110.5t-114 -74t-140.5 -27q-74 0 -137 27.5t-110 75.5t-73.5 113.5t-26.5 141.5q0 70 28 131.5t76 107.5t112.5 72.5t137.5 26.5z" />
    <glyph glyph-name="Otilde" unicode="&#xd5;" horiz-adv-x="784" 
d="M520 803q-18 -41 -36.5 -57t-45.5 -16q-15 0 -27 5t-28 18q-18 16 -23.5 19t-13.5 3q-13 0 -20.5 -8.5t-21.5 -36.5l-41 31q18 41 36.5 57t45.5 16q17 0 30 -6.5t36 -26.5q15 -12 25 -12q13 0 21 8.5t22 36.5zM391 623q-59 0 -110.5 -22t-90 -59.5t-60.5 -89t-22 -109.5
q0 -63 22 -118t60 -95.5t89 -64t110 -23.5q60 0 112.5 22.5t91 61.5t60.5 92t22 115q0 61 -22 114t-60.5 92t-90 61.5t-111.5 22.5zM393 681q74 0 138 -27t111.5 -73.5t74.5 -110t27 -136.5q0 -74 -27.5 -137.5t-76 -110.5t-114 -74t-140.5 -27q-74 0 -137 27.5t-110 75.5
t-73.5 113.5t-26.5 141.5q0 70 28 131.5t76 107.5t112.5 72.5t137.5 26.5z" />
    <glyph glyph-name="Odieresis" unicode="&#xd6;" horiz-adv-x="784" 
d="M505 818v-85h-56v85h56zM334 818v-85h-56v85h56zM391 623q-59 0 -110.5 -22t-90 -59.5t-60.5 -89t-22 -109.5q0 -63 22 -118t60 -95.5t89 -64t110 -23.5q60 0 112.5 22.5t91 61.5t60.5 92t22 115q0 61 -22 114t-60.5 92t-90 61.5t-111.5 22.5zM393 681q74 0 138 -27
t111.5 -73.5t74.5 -110t27 -136.5q0 -74 -27.5 -137.5t-76 -110.5t-114 -74t-140.5 -27q-74 0 -137 27.5t-110 75.5t-73.5 113.5t-26.5 141.5q0 70 28 131.5t76 107.5t112.5 72.5t137.5 26.5z" />
    <glyph glyph-name="multiply" unicode="&#xd7;" horiz-adv-x="500" 
d="M206 342l-148 147l44 45l148 -148l148 148l44 -44l-148 -148l148 -148l-44 -45l-148 148l-148 -148l-44 45z" />
    <glyph glyph-name="Oslash" unicode="&#xd8;" horiz-adv-x="784" 
d="M535 583q-62 40 -144 40q-60 0 -112 -22t-90 -60t-60 -90t-22 -112q0 -119 81 -208zM237 89q33 -23 72.5 -35t81.5 -12q59 0 111 22.5t90.5 61.5t60.5 92t22 114q0 62 -22.5 116t-66.5 96zM626 595q58 -52 88 -118t30 -143q0 -73 -28 -136.5t-76 -111t-112.5 -74.5
t-138.5 -27q-54 0 -99.5 13t-90.5 41l-40 -53l-51 39l41 54q-54 52 -82 118.5t-28 141.5q0 72 27.5 134t75 108.5t112 73t138.5 26.5q49 0 94.5 -12.5t86.5 -35.5l39 51l52 -39l-36 -46z" />
    <glyph glyph-name="Ugrave" unicode="&#xd9;" horiz-adv-x="500" 
d="M307 738l-37 -23l-114 115l56 33zM124 667v-461q0 -24 1 -41t3 -30t6.5 -23t10.5 -20q16 -25 42.5 -38.5t58.5 -13.5q48 0 79.5 25t42.5 73q7 28 7 88v441h68v-449q0 -45 -4 -73.5t-15 -52.5q-23 -54 -69 -83t-109 -29q-66 0 -114 33.5t-65 92.5q-5 17 -7 40.5t-2 61.5
v459h66z" />
    <glyph glyph-name="Uacute" unicode="&#xda;" horiz-adv-x="500" 
d="M376 830l-114 -115l-37 23l95 125zM124 667v-461q0 -24 1 -41t3 -30t6.5 -23t10.5 -20q16 -25 42.5 -38.5t58.5 -13.5q48 0 79.5 25t42.5 73q7 28 7 88v441h68v-449q0 -45 -4 -73.5t-15 -52.5q-23 -54 -69 -83t-109 -29q-66 0 -114 33.5t-65 92.5q-5 17 -7 40.5t-2 61.5
v459h66z" />
    <glyph glyph-name="Ucircumflex" unicode="&#xdb;" horiz-adv-x="500" 
d="M268 844l91 -124h-64l-45 62l-44 -62h-64l91 124h35zM124 667v-461q0 -24 1 -41t3 -30t6.5 -23t10.5 -20q16 -25 42.5 -38.5t58.5 -13.5q48 0 79.5 25t42.5 73q7 28 7 88v441h68v-449q0 -45 -4 -73.5t-15 -52.5q-23 -54 -69 -83t-109 -29q-66 0 -114 33.5t-65 92.5
q-5 17 -7 40.5t-2 61.5v459h66z" />
    <glyph glyph-name="Udieresis" unicode="&#xdc;" horiz-adv-x="500" 
d="M364 818v-85h-56v85h56zM193 818v-85h-56v85h56zM124 667v-461q0 -24 1 -41t3 -30t6.5 -23t10.5 -20q16 -25 42.5 -38.5t58.5 -13.5q48 0 79.5 25t42.5 73q7 28 7 88v441h68v-449q0 -45 -4 -73.5t-15 -52.5q-23 -54 -69 -83t-109 -29q-66 0 -114 33.5t-65 92.5
q-5 17 -7 40.5t-2 61.5v459h66z" />
    <glyph glyph-name="Yacute" unicode="&#xdd;" horiz-adv-x="458" 
d="M355 830l-115 -115l-37 23l96 125zM84 667l145 -283l143 283h76l-188 -356v-311h-68v311l-182 356h74z" />
    <glyph glyph-name="Thorn" unicode="&#xde;" horiz-adv-x="430" 
d="M168 201q37 0 58.5 3.5t39.5 12.5q34 17 52.5 48t18.5 73q0 41 -19 72.5t-52 47.5q-29 14 -84 14h-44v-271h30zM138 667v-136h30q54 0 90 -7.5t62 -24.5q40 -26 63 -68.5t23 -91.5q0 -30 -9 -58.5t-26 -52.5t-40.5 -42t-51.5 -28q-42 -15 -141 -15v-114v-29h-67v29v638
h67z" />
    <glyph glyph-name="germandbls" unicode="&#xdf;" horiz-adv-x="463" 
d="M55 446q0 45 4.5 73.5t15.5 51.5q23 45 65.5 70.5t96.5 25.5q38 0 71.5 -13t58 -36t39 -53.5t14.5 -65.5q0 -48 -25 -86.5t-71 -61.5q54 -24 83 -69t29 -102q0 -42 -15.5 -77t-44 -60t-67.5 -39t-85 -14q-21 0 -43 3t-46 8v60q24 -8 45.5 -11t44.5 -3q32 0 59 10
t46.5 27.5t30.5 42t11 53.5q0 41 -22 74.5t-60 48.5q-22 9 -44.5 12.5t-57.5 3.5h-21v56h14q43 0 70.5 6.5t50.5 23.5q24 17 38 43.5t14 53.5q0 23 -9 43t-25 34.5t-37 23t-46 8.5q-42 0 -71 -22t-41 -62q-5 -16 -7 -39.5t-2 -61.5v-426h-61v446z" />
    <glyph glyph-name="agrave" unicode="&#xe0;" horiz-adv-x="440" 
d="M287 486l-37 -23l-114 115l56 33zM212 320q-50 0 -80.5 -38t-30.5 -98q0 -64 29.5 -102.5t80.5 -38.5t81.5 38t30.5 101q0 62 -30.5 100t-80.5 38zM388 370v-370h-62v36q-24 -23 -56.5 -36.5t-65.5 -13.5q-36 0 -66.5 14.5t-53.5 40.5t-36 60.5t-13 75.5q0 43 13.5 79.5
t37 63.5t55.5 42.5t70 15.5q33 0 62.5 -13t50.5 -36l1 41h63z" />
    <glyph glyph-name="aacute" unicode="&#xe1;" horiz-adv-x="440" 
d="M343 578l-114 -115l-37 23l95 125zM212 320q-50 0 -80.5 -38t-30.5 -98q0 -64 29.5 -102.5t80.5 -38.5t81.5 38t30.5 101q0 62 -30.5 100t-80.5 38zM388 370v-370h-62v36q-24 -23 -56.5 -36.5t-65.5 -13.5q-36 0 -66.5 14.5t-53.5 40.5t-36 60.5t-13 75.5q0 43 13.5 79.5
t37 63.5t55.5 42.5t70 15.5q33 0 62.5 -13t50.5 -36l1 41h63z" />
    <glyph glyph-name="acircumflex" unicode="&#xe2;" horiz-adv-x="440" 
d="M232 599l91 -124h-64l-44 62l-45 -62h-63l90 124h35zM212 320q-50 0 -80.5 -38t-30.5 -98q0 -64 29.5 -102.5t80.5 -38.5t81.5 38t30.5 101q0 62 -30.5 100t-80.5 38zM388 370v-370h-62v36q-24 -23 -56.5 -36.5t-65.5 -13.5q-36 0 -66.5 14.5t-53.5 40.5t-36 60.5
t-13 75.5q0 43 13.5 79.5t37 63.5t55.5 42.5t70 15.5q33 0 62.5 -13t50.5 -36l1 41h63z" />
    <glyph glyph-name="atilde" unicode="&#xe3;" horiz-adv-x="440" 
d="M347 551q-19 -41 -37 -57t-45 -16q-15 0 -27 5t-29 18q-17 16 -22.5 19t-13.5 3q-13 0 -21 -8.5t-21 -36.5l-41 31q18 41 36 57t46 16q17 0 30 -6.5t36 -26.5q15 -12 25 -12q13 0 21 8.5t21 36.5zM212 320q-50 0 -80.5 -38t-30.5 -98q0 -64 29.5 -102.5t80.5 -38.5
t81.5 38t30.5 101q0 62 -30.5 100t-80.5 38zM388 370v-370h-62v36q-24 -23 -56.5 -36.5t-65.5 -13.5q-36 0 -66.5 14.5t-53.5 40.5t-36 60.5t-13 75.5q0 43 13.5 79.5t37 63.5t55.5 42.5t70 15.5q33 0 62.5 -13t50.5 -36l1 41h63z" />
    <glyph glyph-name="adieresis" unicode="&#xe4;" horiz-adv-x="440" 
d="M325 566v-85h-56v85h56zM181 566v-85h-56v85h56zM212 320q-50 0 -80.5 -38t-30.5 -98q0 -64 29.5 -102.5t80.5 -38.5t81.5 38t30.5 101q0 62 -30.5 100t-80.5 38zM388 370v-370h-62v36q-24 -23 -56.5 -36.5t-65.5 -13.5q-36 0 -66.5 14.5t-53.5 40.5t-36 60.5t-13 75.5
q0 43 13.5 79.5t37 63.5t55.5 42.5t70 15.5q33 0 62.5 -13t50.5 -36l1 41h63z" />
    <glyph glyph-name="aring" unicode="&#xe5;" horiz-adv-x="440" 
d="M214 579q-20 0 -33 -13.5t-13 -33.5q0 -19 13 -32.5t32 -13.5q20 0 33 13t13 33t-13 33.5t-32 13.5zM213 623q19 0 35.5 -7t28.5 -19.5t19 -29t7 -35.5q0 -38 -26.5 -64t-64.5 -26q-37 0 -63 26.5t-26 64.5t26 64t64 26zM212 320q-50 0 -80.5 -38t-30.5 -98
q0 -64 29.5 -102.5t80.5 -38.5t81.5 38t30.5 101q0 62 -30.5 100t-80.5 38zM388 370v-370h-62v36q-24 -23 -56.5 -36.5t-65.5 -13.5q-36 0 -66.5 14.5t-53.5 40.5t-36 60.5t-13 75.5q0 43 13.5 79.5t37 63.5t55.5 42.5t70 15.5q33 0 62.5 -13t50.5 -36l1 41h63z" />
    <glyph glyph-name="ae" unicode="&#xe6;" horiz-adv-x="702" 
d="M594 257q-11 33 -37.5 53t-58.5 20q-47 0 -77.5 -30.5t-35.5 -81.5zM214 319q-50 0 -81.5 -38t-31.5 -99q0 -62 31 -100.5t81 -38.5q51 0 81.5 39t30.5 102q0 61 -30 98t-81 37zM386 368v-24q53 40 114 40q46 0 84 -23t58 -63q10 -18 16.5 -37.5t11.5 -45.5l-280 -50
q3 -26 14.5 -48t28.5 -38t39.5 -25t47.5 -9q31 0 62.5 10t53.5 27l22 -46q-29 -21 -68 -33.5t-77 -12.5q-34 0 -62.5 11t-63.5 37v-38h-60v36q-28 -26 -59.5 -39t-63.5 -13q-36 0 -66.5 15t-53.5 41t-36 61.5t-13 76.5q0 42 13.5 78.5t37 64t55.5 43t69 15.5
q32 0 59.5 -12.5t56.5 -38.5v40h60z" />
    <glyph glyph-name="ccedilla" unicode="&#xe7;" horiz-adv-x="397" 
d="M232 -30q19 -4 30.5 -17t11.5 -32q0 -26 -19.5 -41.5t-54.5 -15.5q-14 0 -23.5 1.5t-23.5 6.5l12 41q15 -4 28 -4q22 0 22 14q0 9 -6.5 12t-25.5 4h-6l15 53q-35 7 -64 24.5t-49.5 42.5t-32 57t-11.5 68q0 41 15 77t41.5 62.5t62.5 42t77 15.5q31 0 63.5 -9.5t63.5 -26.5
l-29 -52q-25 15 -51.5 23t-50.5 8q-27 0 -50 -11t-40 -29.5t-26.5 -44t-9.5 -54.5q0 -30 10 -56t27 -45t40.5 -30t50.5 -11q26 0 55 8.5t54 23.5l22 -50q-26 -17 -57.5 -27t-64.5 -10z" />
    <glyph glyph-name="egrave" unicode="&#xe8;" horiz-adv-x="416" 
d="M284 486l-38 -23l-114 115l56 33zM304 255q-13 34 -38 53t-57 19q-46 0 -76.5 -30t-34.5 -80zM103 161q7 -52 43.5 -85.5t87.5 -33.5q29 0 59 10.5t56 29.5l22 -46q-59 -47 -137 -47q-43 0 -79.5 15.5t-63 43t-41.5 65t-15 81.5q0 40 13 74.5t36.5 59.5t55 39t69.5 14
q136 0 172 -169z" />
    <glyph glyph-name="eacute" unicode="&#xe9;" horiz-adv-x="416" 
d="M340 578l-114 -115l-37 23l95 125zM304 255q-13 34 -38 53t-57 19q-46 0 -76.5 -30t-34.5 -80zM103 161q7 -52 43.5 -85.5t87.5 -33.5q29 0 59 10.5t56 29.5l22 -46q-59 -47 -137 -47q-43 0 -79.5 15.5t-63 43t-41.5 65t-15 81.5q0 40 13 74.5t36.5 59.5t55 39t69.5 14
q136 0 172 -169z" />
    <glyph glyph-name="ecircumflex" unicode="&#xea;" horiz-adv-x="416" 
d="M226 599l90 -124h-64l-44 62l-44 -62h-64l90 124h36zM304 255q-13 34 -38 53t-57 19q-46 0 -76.5 -30t-34.5 -80zM103 161q7 -52 43.5 -85.5t87.5 -33.5q29 0 59 10.5t56 29.5l22 -46q-59 -47 -137 -47q-43 0 -79.5 15.5t-63 43t-41.5 65t-15 81.5q0 40 13 74.5
t36.5 59.5t55 39t69.5 14q136 0 172 -169z" />
    <glyph glyph-name="edieresis" unicode="&#xeb;" horiz-adv-x="416" 
d="M321 566v-85h-56v85h56zM177 566v-85h-56v85h56zM304 255q-13 34 -38 53t-57 19q-46 0 -76.5 -30t-34.5 -80zM103 161q7 -52 43.5 -85.5t87.5 -33.5q29 0 59 10.5t56 29.5l22 -46q-59 -47 -137 -47q-43 0 -79.5 15.5t-63 43t-41.5 65t-15 81.5q0 40 13 74.5t36.5 59.5
t55 39t69.5 14q136 0 172 -169z" />
    <glyph glyph-name="igrave" unicode="&#xec;" horiz-adv-x="165" 
d="M139 486l-37 -23l-114 115l56 33zM113 368v-368h-60v368h60z" />
    <glyph glyph-name="iacute" unicode="&#xed;" horiz-adv-x="165" 
d="M202 578l-114 -115l-37 23l95 125zM112 368v-368h-60v368h60z" />
    <glyph glyph-name="icircumflex" unicode="&#xee;" horiz-adv-x="165" 
d="M100 599l84 -124h-64l-38 62l-37 -62h-64l84 124h35zM113 368v-368h-60v368h60z" />
    <glyph glyph-name="idieresis" unicode="&#xef;" horiz-adv-x="165" 
d="M162 566v-85h-56v85h56zM59 566v-85h-56v85h56zM113 368v-368h-60v368h60z" />
    <glyph glyph-name="eth" unicode="&#xf0;" horiz-adv-x="429" 
d="M310 327h-11l-40 1q-75 0 -116.5 -39t-41.5 -109q0 -29 8.5 -53t24.5 -41.5t37 -27.5t47 -10q45 0 70.5 27t25.5 75v177h-4zM161 506l-45 37l78 57q-15 11 -32.5 23t-51.5 34l54 33q66 -41 81 -53l68 49l45 -38l-70 -51q24 -27 41 -55t27.5 -59.5t15.5 -68t5 -80.5v-152
q0 -48 -8.5 -80t-26.5 -55q-22 -27 -54.5 -41.5t-70.5 -14.5t-71.5 15t-58 40.5t-38.5 60t-14 74.5q0 45 18 86.5t50 69.5q54 48 152 48h11.5t18.5 -0.5t18.5 -1t10.5 -0.5q-6 56 -24 97.5t-53 79.5z" />
    <glyph glyph-name="ntilde" unicode="&#xf1;" horiz-adv-x="404" 
d="M333 551q-18 -41 -36 -57t-46 -16q-15 0 -26.5 5t-28.5 18q-17 16 -22.5 19t-13.5 3q-13 0 -21 -8.5t-21 -36.5l-42 31q19 41 37 57t46 16q17 0 30 -6.5t36 -26.5q15 -12 25 -12q13 0 20.5 8.5t21.5 36.5zM177 368q51 0 81.5 -9t54.5 -30q24 -22 34.5 -51.5t10.5 -79.5
v-198h-64v179q0 41 -4.5 61t-18.5 37q-15 19 -36 26.5t-59 7.5h-62v-311h-62v368h125z" />
    <glyph glyph-name="ograve" unicode="&#xf2;" horiz-adv-x="478" 
d="M315 486l-37 -23l-114 115l56 33zM243 328q-30 0 -56 -11t-44.5 -29.5t-29.5 -44.5t-11 -56q0 -32 10.5 -58.5t28.5 -46t43 -30.5t55 -11t56 10.5t45 29.5t29.5 44.5t10.5 55.5q0 31 -10.5 58t-29 46.5t-43.5 31t-54 11.5zM238 385q45 0 82.5 -15.5t65 -42.5t43 -64
t15.5 -80t-15.5 -79.5t-43 -63.5t-65.5 -42t-82 -15q-42 0 -79 16t-64.5 43.5t-43.5 64.5t-16 80q0 41 17.5 80t49.5 68q26 24 61 37t75 13z" />
    <glyph glyph-name="oacute" unicode="&#xf3;" horiz-adv-x="478" 
d="M359 578l-114 -115l-37 23l95 125zM243 328q-30 0 -56 -11t-44.5 -29.5t-29.5 -44.5t-11 -56q0 -32 10.5 -58.5t28.5 -46t43 -30.5t55 -11t56 10.5t45 29.5t29.5 44.5t10.5 55.5q0 31 -10.5 58t-29 46.5t-43.5 31t-54 11.5zM238 385q45 0 82.5 -15.5t65 -42.5t43 -64
t15.5 -80t-15.5 -79.5t-43 -63.5t-65.5 -42t-82 -15q-42 0 -79 16t-64.5 43.5t-43.5 64.5t-16 80q0 41 17.5 80t49.5 68q26 24 61 37t75 13z" />
    <glyph glyph-name="ocircumflex" unicode="&#xf4;" horiz-adv-x="478" 
d="M257 599l91 -124h-64l-45 62l-44 -62h-64l91 124h35zM243 328q-30 0 -56 -11t-44.5 -29.5t-29.5 -44.5t-11 -56q0 -32 10.5 -58.5t28.5 -46t43 -30.5t55 -11t56 10.5t45 29.5t29.5 44.5t10.5 55.5q0 31 -10.5 58t-29 46.5t-43.5 31t-54 11.5zM238 385q45 0 82.5 -15.5
t65 -42.5t43 -64t15.5 -80t-15.5 -79.5t-43 -63.5t-65.5 -42t-82 -15q-42 0 -79 16t-64.5 43.5t-43.5 64.5t-16 80q0 41 17.5 80t49.5 68q26 24 61 37t75 13z" />
    <glyph glyph-name="otilde" unicode="&#xf5;" horiz-adv-x="478" 
d="M368 551q-18 -41 -36.5 -57t-45.5 -16q-15 0 -27 5t-28 18q-18 16 -23.5 19t-13.5 3q-13 0 -20.5 -8.5t-21.5 -36.5l-41 31q18 41 36.5 57t45.5 16q17 0 30 -6.5t36 -26.5q15 -12 25 -12q13 0 21 8.5t22 36.5zM243 328q-30 0 -56 -11t-44.5 -29.5t-29.5 -44.5t-11 -56
q0 -32 10.5 -58.5t28.5 -46t43 -30.5t55 -11t56 10.5t45 29.5t29.5 44.5t10.5 55.5q0 31 -10.5 58t-29 46.5t-43.5 31t-54 11.5zM238 385q45 0 82.5 -15.5t65 -42.5t43 -64t15.5 -80t-15.5 -79.5t-43 -63.5t-65.5 -42t-82 -15q-42 0 -79 16t-64.5 43.5t-43.5 64.5t-16 80
q0 41 17.5 80t49.5 68q26 24 61 37t75 13z" />
    <glyph glyph-name="odieresis" unicode="&#xf6;" horiz-adv-x="478" 
d="M339 566v-85h-56v85h56zM195 566v-85h-56v85h56zM243 328q-30 0 -56 -11t-44.5 -29.5t-29.5 -44.5t-11 -56q0 -32 10.5 -58.5t28.5 -46t43 -30.5t55 -11t56 10.5t45 29.5t29.5 44.5t10.5 55.5q0 31 -10.5 58t-29 46.5t-43.5 31t-54 11.5zM238 385q45 0 82.5 -15.5
t65 -42.5t43 -64t15.5 -80t-15.5 -79.5t-43 -63.5t-65.5 -42t-82 -15q-42 0 -79 16t-64.5 43.5t-43.5 64.5t-16 80q0 41 17.5 80t49.5 68q26 24 61 37t75 13z" />
    <glyph glyph-name="divide" unicode="&#xf7;" horiz-adv-x="501" 
d="M471 373v-63h-441v63h441zM251 205q21 0 36 -15t15 -37t-15 -37t-37 -15t-37 15t-15 37t15 37t38 15zM251 581q21 0 36 -15t15 -37t-15 -37t-37 -15t-37 15t-15 37t15 37t38 15z" />
    <glyph glyph-name="oslash" unicode="&#xf8;" horiz-adv-x="478" 
d="M179 54q27 -13 60 -13q30 0 56 10.5t44.5 29.5t29.5 44t11 55q0 53 -31 95zM304 313q-30 15 -61 15q-30 0 -56 -11t-45 -30t-29.5 -45t-10.5 -57q0 -54 30 -94zM369 398l47 -36l-28 -37q56 -61 56 -142q0 -42 -15.5 -78.5t-43 -63.5t-65 -42.5t-80.5 -15.5q-52 0 -98 24
l-28 -37l-47 37l27 35q-59 59 -59 143q0 42 15.5 78.5t43 63.5t64.5 42.5t80 15.5q56 0 102 -25z" />
    <glyph glyph-name="ugrave" unicode="&#xf9;" horiz-adv-x="396" 
d="M274 486l-37 -23l-114 115l56 33zM109 368v-185q0 -50 4 -73.5t17 -39.5q24 -35 68 -35q33 0 57 19.5t30 51.5q3 16 4 32t1 42v188h61v-201q0 -25 -2 -42.5t-7 -36.5q-14 -50 -53 -79t-92 -29q-51 0 -88.5 26.5t-52.5 72.5q-10 30 -10 97v192h63z" />
    <glyph glyph-name="uacute" unicode="&#xfa;" horiz-adv-x="396" 
d="M318 578l-114 -115l-37 23l95 125zM109 368v-185q0 -50 4 -73.5t17 -39.5q24 -35 68 -35q33 0 57 19.5t30 51.5q3 16 4 32t1 42v188h61v-201q0 -25 -2 -42.5t-7 -36.5q-14 -50 -53 -79t-92 -29q-51 0 -88.5 26.5t-52.5 72.5q-10 30 -10 97v192h63z" />
    <glyph glyph-name="ucircumflex" unicode="&#xfb;" horiz-adv-x="396" 
d="M216 599l91 -124h-64l-45 62l-44 -62h-64l91 124h35zM109 368v-185q0 -50 4 -73.5t17 -39.5q24 -35 68 -35q33 0 57 19.5t30 51.5q3 16 4 32t1 42v188h61v-201q0 -25 -2 -42.5t-7 -36.5q-14 -50 -53 -79t-92 -29q-51 0 -88.5 26.5t-52.5 72.5q-10 30 -10 97v192h63z" />
    <glyph glyph-name="udieresis" unicode="&#xfc;" horiz-adv-x="396" 
d="M298 566v-85h-56v85h56zM154 566v-85h-56v85h56zM109 368v-185q0 -50 4 -73.5t17 -39.5q24 -35 68 -35q33 0 57 19.5t30 51.5q3 16 4 32t1 42v188h61v-201q0 -25 -2 -42.5t-7 -36.5q-14 -50 -53 -79t-92 -29q-51 0 -88.5 26.5t-52.5 72.5q-10 30 -10 97v192h63z" />
    <glyph glyph-name="yacute" unicode="&#xfd;" horiz-adv-x="369" 
d="M312 578l-115 -115l-37 23l96 125zM74 368l110 -287l110 287h64l-235 -598l-56 21l84 213l-140 364h63z" />
    <glyph glyph-name="thorn" unicode="&#xfe;" horiz-adv-x="416" 
d="M115 55h6h6q27 0 46.5 1t34.5 3.5t26.5 7t22.5 10.5q29 17 44 45.5t15 66.5q0 63 -40 97t-114 34h-47v-265zM156 375q29 0 46 -1.5t37 -5.5q32 -7 58 -23.5t45 -40t29 -53t10 -62.5q0 -66 -36.5 -114t-99.5 -66q-36 -10 -111 -10h-19v-207l-63 -21v896l63 22v-314h41z
" />
    <glyph glyph-name="ydieresis" unicode="&#xff;" horiz-adv-x="369" 
d="M285 566v-85h-56v85h56zM141 566v-85h-56v85h56zM74 368l110 -287l110 287h64l-235 -598l-56 21l84 213l-140 364h63z" />
    <glyph glyph-name="OE" unicode="&#x152;" horiz-adv-x="902" 
d="M557 573q-26 24 -69.5 38t-89.5 14q-72 0 -131 -29.5t-100 -86.5q-28 -38 -42.5 -83t-14.5 -90q0 -60 22.5 -113.5t61 -93.5t90 -63t109.5 -23q44 0 88 14t76 37v212h-47v60h47v207zM815 667l19 -59h-209v-242h222v-60h-222v-248h205v-58h-275v25q-11 -9 -29.5 -16
t-40.5 -12.5t-46.5 -8.5t-48.5 -3q-72 0 -135.5 27.5t-110.5 75.5t-74.5 112.5t-27.5 137.5q0 72 27.5 134.5t75.5 109t112 73.5t138 27q43 0 86.5 -9.5t75.5 -25.5l1 20h257z" />
    <glyph glyph-name="oe" unicode="&#x153;" horiz-adv-x="757" 
d="M648 260q-32 72 -97 72q-46 0 -75.5 -29.5t-35.5 -81.5zM239 329q-30 0 -55 -10.5t-44 -29t-29.5 -43.5t-10.5 -55q0 -32 10.5 -59t29 -46.5t43.5 -31t54 -11.5q30 0 56 10.5t44.5 29.5t29 45t10.5 57t-10 57.5t-28.5 46t-44 30t-55.5 10.5zM712 39q-61 -47 -137 -47
q-53 0 -91.5 19.5t-71.5 63.5q-59 -89 -170 -89q-44 0 -82 15.5t-65.5 42.5t-43.5 64t-16 80q0 42 16 78.5t43 64t64 43t79 15.5q101 0 169 -83q26 39 63 60t82 21q66 0 111 -43.5t64 -125.5l-282 -51q5 -20 10.5 -36t14.5 -29q16 -25 45.5 -40t61.5 -15q28 0 58 10t56 27z
" />
    <glyph glyph-name="Scaron" unicode="&#x160;" horiz-adv-x="450" 
d="M119 841h64l44 -62l44 62h64l-91 -125h-35zM377 590q-52 18 -86.5 25.5t-64.5 7.5q-27 0 -50.5 -8.5t-41 -23.5t-27.5 -35.5t-10 -44.5q0 -23 7.5 -40.5t25.5 -33t48.5 -30.5t75.5 -32q27 -10 47 -18.5t34.5 -16.5t25 -16t20.5 -18q23 -23 36 -55t13 -67
q0 -43 -17.5 -79.5t-48.5 -63.5t-73.5 -42t-92.5 -15q-94 0 -178 47l18 59q49 -23 88 -34t77 -11q33 0 61.5 10t49.5 28t33 42.5t12 53.5q0 25 -6.5 43.5t-23 34t-44.5 30t-71 30.5q-48 18 -72.5 29t-44.5 25q-33 23 -51.5 58t-18.5 76q0 39 15.5 71.5t43 56.5t66 37
t84.5 13q41 0 78.5 -8t87.5 -28z" />
    <glyph glyph-name="scaron" unicode="&#x161;" horiz-adv-x="260" 
d="M30 599h64l45 -62l44 62h64l-91 -124h-35zM224 320q-14 3 -25 4t-22 1q-32 0 -51.5 -15t-19.5 -39q0 -15 9.5 -26t38.5 -31q44 -29 61 -53.5t17 -56.5q0 -25 -11 -46t-30.5 -36.5t-46 -24t-58.5 -8.5q-18 0 -33.5 1.5t-35.5 5.5l9 50q21 -2 35 -3t23 -1q38 0 60.5 16.5
t22.5 44.5q0 17 -10.5 30t-42.5 35q-42 28 -57 49t-15 51q0 49 36.5 79.5t94.5 30.5q27 0 63 -6z" />
    <glyph glyph-name="Ydieresis" unicode="&#x178;" horiz-adv-x="458" 
d="M342 818v-85h-56v85h56zM171 818v-85h-56v85h56zM84 667l145 -283l143 283h76l-188 -356v-311h-68v311l-182 356h74z" />
    <glyph glyph-name="Zcaron" unicode="&#x17d;" horiz-adv-x="377" 
d="M96 841h64l44 -62l44 62h64l-91 -125h-35zM367 667l-261 -609h242v-58h-338l260 609h-220l15 58h302z" />
    <glyph glyph-name="zcaron" unicode="&#x17e;" horiz-adv-x="327" 
d="M72 599h64l44 -62l44 62h64l-90 -124h-36zM318 368l-201 -310h194v-58h-301l200 313h-178l17 55h269z" />
    <glyph glyph-name="florin" unicode="&#x192;" 
d="M361 359h-91l-68 -335q-10 -51 -24 -86.5t-34 -57t-47.5 -31t-64.5 -9.5q-11 0 -19 1t-20 3l13 59q10 -1 15 -1h10q24 0 41 7t29.5 24.5t22.5 46.5t19 74l62 305h-55l26 54h40l20 97q18 90 56.5 129t109.5 39q13 0 23.5 -1.5t23.5 -4.5l-12 -51q-6 2 -12 2.5t-15 0.5
q-49 0 -74 -26.5t-37 -91.5l-18 -93h90z" />
    <glyph glyph-name="circumflex" unicode="&#x2c6;" horiz-adv-x="350" 
d="M193 599l90 -124h-63l-45 62l-44 -62h-64l91 124h35z" />
    <glyph glyph-name="tilde" unicode="&#x2dc;" horiz-adv-x="390" 
d="M324 551q-18 -41 -36.5 -57t-45.5 -16q-15 0 -27 5t-28 18q-18 16 -23.5 19t-13.5 3q-12 0 -20 -8.5t-22 -36.5l-41 31q19 41 37 57t45 16q17 0 30 -6.5t36 -26.5q15 -12 25 -12q13 0 21 8.5t22 36.5z" />
    <glyph glyph-name="endash" unicode="&#x2013;" horiz-adv-x="374" 
d="M340 334v-59h-306v59h306z" />
    <glyph glyph-name="emdash" unicode="&#x2014;" horiz-adv-x="614" 
d="M580 334v-59h-546v59h546z" />
    <glyph glyph-name="quoteleft" unicode="&#x2018;" horiz-adv-x="221" 
d="M153 681l-36 -109h18v-84h-67v75l54 118h31z" />
    <glyph glyph-name="quoteright" unicode="&#x2019;" horiz-adv-x="221" 
d="M68 489l36 108h-18v83h67v-73l-54 -118h-31z" />
    <glyph glyph-name="quotesinglbase" unicode="&#x201a;" horiz-adv-x="221" 
d="M68 -108l36 108h-18v84h67v-74l-54 -118h-31z" />
    <glyph glyph-name="quotedblleft" unicode="&#x201c;" horiz-adv-x="335" 
d="M267 681l-36 -109h18v-84h-67v75l54 118h31zM153 681l-36 -109h18v-84h-67v75l54 118h31z" />
    <glyph glyph-name="quotedblright" unicode="&#x201d;" horiz-adv-x="335" 
d="M68 489l36 108h-18v83h67v-73l-54 -118h-31zM182 489l36 108h-18v83h67v-74l-54 -117h-31z" />
    <glyph glyph-name="quotedblbase" unicode="&#x201e;" horiz-adv-x="335" 
d="M68 -108l36 108h-18v84h67v-74l-54 -118h-31zM182 -108l36 108h-18v84h67v-74l-54 -118h-31z" />
    <glyph glyph-name="dagger" unicode="&#x2020;" horiz-adv-x="507" 
d="M470 403h-188v-533h-57v533h-189v51h189v213h57v-213h188v-51z" />
    <glyph glyph-name="daggerdbl" unicode="&#x2021;" horiz-adv-x="507" 
d="M470 435h-188v-332h188v-50h-188v-183h-56v183h-189v50h189v332h-189v50h189v182h56v-182h188v-50z" />
    <glyph glyph-name="bullet" unicode="&#x2022;" horiz-adv-x="256" 
d="M129 408q28 0 47.5 -20t19.5 -48q0 -29 -19.5 -48.5t-48.5 -19.5q-28 0 -48 20t-20 48q0 29 20 48.5t49 19.5z" />
    <glyph glyph-name="ellipsis" unicode="&#x2026;" horiz-adv-x="498" 
d="M403 81v-81h-67v81h67zM282 81v-81h-67v81h67zM162 81v-81h-67v81h67z" />
    <glyph glyph-name="perthousand" unicode="&#x2030;" horiz-adv-x="929" 
d="M740 191q-33 0 -56 -22.5t-23 -56.5q0 -35 22 -58.5t55 -23.5q35 0 57.5 22t22.5 57t-22.5 58.5t-55.5 23.5zM738 231q27 0 49.5 -9t39 -25t26 -38.5t9.5 -48.5t-9.5 -47.5t-26 -38t-39 -25.5t-49.5 -9q-26 0 -48 9.5t-38.5 26t-26 39t-9.5 48.5q0 25 9.5 46.5t26 37.5
t38.5 25t48 9zM448 191q-34 0 -56.5 -22.5t-22.5 -56.5q0 -35 21.5 -58.5t55.5 -23.5t56.5 22t22.5 57t-22.5 58.5t-54.5 23.5zM446 231q54 0 88.5 -34t34.5 -87q0 -26 -9.5 -47.5t-26 -38t-39 -25.5t-48.5 -9t-48 9.5t-38.5 26t-26 39t-9.5 48.5q0 25 9.5 46.5t26 37.5
t38.5 25t48 9zM432 521l-267 -521h-46l275 538l68 133h46zM191 641q-34 0 -56.5 -22.5t-22.5 -56.5q0 -35 21.5 -58.5t55.5 -23.5t56.5 22t22.5 57t-22.5 58.5t-54.5 23.5zM189 681q54 0 88.5 -34t34.5 -87q0 -26 -9.5 -47.5t-26 -38t-39 -25.5t-48.5 -9t-48 9.5t-38.5 26
t-26 39t-9.5 48.5q0 25 9.5 46.5t26 37.5t38.5 25t48 9z" />
    <glyph glyph-name="guilsinglleft" unicode="&#x2039;" horiz-adv-x="240" 
d="M134 380h69l-97 -176l97 -175h-69l-98 175z" />
    <glyph glyph-name="guilsinglright" unicode="&#x203a;" horiz-adv-x="240" 
d="M106 29h-69l97 175l-97 176h69l98 -176z" />
    <glyph glyph-name="Euro" unicode="&#x20ac;" 
d="M386 404l-16 -59h-246v-8v-10t1 -16h236l-15 -59h-213q3 -15 7 -28.5t11 -28.5q30 -68 77 -103.5t106 -35.5q24 0 44 7.5t52 28.5v-69q-35 -15 -56 -20.5t-46 -5.5q-47 0 -89 18t-76.5 51t-59 80t-37.5 105h-56l15 60h33q-1 8 -1 12v13v9h-47l15 59h37q10 60 34.5 109
t60 84t80 54t95.5 19q28 0 54 -7t61 -25l-17 -64q-25 17 -51.5 26.5t-51.5 9.5q-45 0 -89.5 -28t-72.5 -73q-13 -22 -21.5 -46.5t-14.5 -58.5h257z" />
    <glyph glyph-name="trademark" unicode="&#x2122;" horiz-adv-x="849" 
d="M291 680l90 -273l91 273h13l104 -413h-42l-73 296l-94 -280l-92 278l-76 -294h-40l106 413h13zM209 667v-36h-81v-364h-41v364h-84l11 36h195z" />
    <glyph glyph-name="glyph220" horiz-adv-x="0" 
 />
    </font>
</defs>
</svg>
