<?xml version="1.0" encoding="UTF-8"?><svg id="Coloured_flowers" xmlns="http://www.w3.org/2000/svg" viewBox="0 0 1176 321"><defs><style>.cls-1{fill:#9b70c1;}.cls-2{fill:#f59e1c;}.cls-3{fill:#5463aa;}.cls-4{fill:#914b2c;}</style></defs><path class="cls-2" d="M973.24,122.69c.33-.61,.2-1.37-.31-1.84-4.59-4.22-9.04-8.62-13.88-12.54-7.38-5.97-15.69-10.91-22.5-17.43-9.25-8.86-10.37-17.79-3.92-27.01,.62-.89,1.95-.87,2.54,.04,2.7,4.19,5.07,8.38,8.24,11.85,4.04,4.42,8.89,8.17,13.72,11.77,.86,.64,2.55,.17,4.12-.16,.73-.15,1.24-.81,1.21-1.56-.06-1.47-.03-3-.76-3.95-3.1-4.05-6.77-7.66-10.04-11.58-3.11-3.73-6.48-7.36-8.86-11.54-3.26-5.72,4.37-22.09,10.65-23.86,.46-.13,.99-.3,1.43-.2,9.72,2.23,19.56,4.04,29.08,6.92,6.04,1.83,5.87,7.87,5.76,13.02-.16,7.81-1.12,15.63-.87,23.41,.15,4.76-.7,12.03,6.18,12.24,7.04,.22,7.57-7.01,7.57-12.12,.02-11.97-.8-23.93-1.32-36.05-.03-.77,.51-1.45,1.27-1.58,14.41-2.36,20.69,8.06,22.68,18.26,2.2,11.27,.53,22.36-3.63,33.12-4.05,10.47-8.22,20.95-11.31,31.72-.91,3.17,.22,6.92,.94,10.56,.21,1.07,1.44,1.58,2.34,.98,3.05-2.04,6.34-3.9,8.3-6.71,3.44-4.93,6.14-10.66,7.91-16.43,5.1-16.57,9.65-33.32,14.56-50.61,.29-1,1.48-1.44,2.33-.84,5.49,3.82,11.46,7.45,16.45,12.12,5.92,5.53,6.18,13.46,3.77,20.6-3.03,8.98-7.21,17.59-11.26,26.19-3.85,8.17-8.42,16.01-12.2,24.21-1.29,2.8-1.84,5.95-2.57,9.34-.27,1.27,1.06,2.29,2.2,1.67,13.02-7,35.01-44.26,39.27-65.59,.19-.97,1.24-1.52,2.13-1.1,16.68,7.86,22.89,25.12,16.1,41.64-.17,.42-.16,.89,.05,1.29,4.87,9.44,10.16,17.51,13.15,26.35,5.45,16.1-.15,27.67-15.8,34.51-10.85,4.74-22.01,8.77-33.16,13.08-1.2,.46-1.33,2.14-.2,2.75,10.88,5.9,20.99,.11,31-4.84,.8-.4,1.78-.03,2.1,.8,4.51,11.84-1.07,25.08-13.73,33.16-18.19,11.62-37.86,5.89-46.94-13.68-.41-.89-.69-1.96-1.36-2.58-1.29-1.19-2.66-2.3-4.03-3.4-.93-.75-2.31-.19-2.47,.99-.24,1.81-.46,3.62,.03,5.21,7.18,23.65,1.95,35.51-20.46,45.91-12.58,5.84-25.19,9.79-38.47,2.1h-.02c-1.02-.61-.95-2.13,.1-2.67,6.88-3.53,13.64-6.88,20.18-10.59,2.46-1.39,4.85-3.62,6.19-6.05,.98-1.77,1.02-4.06,1.21-6.27,.07-.86-.59-1.62-1.45-1.65-2.41-.09-5.06-.45-6.4,.71-5.5,4.74-10.45,10.16-15.3,15.6-7.75,8.71-16.96,13.43-28.67,10.2-12.75-3.52-22.61-10.89-29.09-22.54-.38-.69-.19-1.56,.46-2.01,.33-.23,.55-.36,.7-.31,21.45,7.18,38.72-1.58,54.66-14.63,1.87-1.53,2.74-4.28,3.82-6.77,.34-.79-.04-1.71-.84-2.02-2.63-1.02-5.33-2.43-7.73-2.04-6.2,1.01-12.12,3.62-18.27,5.06-8.48,1.99-17.14,5.23-25.6,4.88-22.83-.93-34.29-22.83-23.59-43.5,.46-.89,1.67-1.1,2.39-.4,10.68,10.33,24.61,8.89,38,9.61,6.59,.35,13.17,.95,19.76,1.27,2.16,.11,4.33-.12,6.5-.26,.64-.04,1.19-.48,1.36-1.1l.11-.4c.2-.71-.14-1.48-.81-1.79-3.75-1.76-7.41-3.99-11.35-4.77-11.03-2.18-22.19-3.71-33.34-5.24-30.84-4.24-41.24-21.32-30.63-50.66,1.05-2.9,2.37-5.71,3.92-9.17,.48-1.08,1.98-1.23,2.64-.24,13.85,20.45,35.47,27.57,55.78,36.53,4.78,2.11,10.37,2.85,15.65,3.15,1.93,.11,3.97-1.62,5.98-2.97,.66-.45,.87-1.33,.47-2.02-1.08-1.9-2.05-4.08-3.66-4.79-7.57-3.34-15.45-5.99-23.23-8.84-8.71-3.2-17.74-5.7-26.1-9.64-16.77-7.91-20.47-18.03-13.93-35.16,.69-1.8,1.41-3.59,2.04-5.16,.35-.88,1.41-1.22,2.21-.73,15.6,9.53,31,19.08,46.6,28.3,2.79,1.65,6.22,2.2,9.46,3.09,.68,.19,1.41-.13,1.74-.75l1-1.88Zm122.03,14.17c-10.71,12.6-24.51,21.64-30.64,37.45-.4,1.03,.42,2.13,1.53,2.06,18.24-1.17,32.44-18.62,31.8-38.56-.04-1.4-1.78-2.01-2.69-.95Zm-64.41,27.84c-.27-.92-1.31-1.39-2.16-.94-4.73,2.49-7.95,5.64-7.55,11.19,.07,.92,3.88,2.56,5.61,2.2,4.7-.97,6.16-5.34,4.1-12.45Zm-18.25,42.55c-.17-.57-.65-1-1.24-1.09-4.73-.72-9.01,.17-11.96,4.61-.41,.61,.97,3.51,1.91,3.73,5.53,1.3,9.1-1.56,11.4-6.35,.1-.21,.02-.5-.1-.91Zm20.95-14.35c5.55-.11,7.98-2.37,8.55-7.92,.09-.9-.62-1.68-1.52-1.68-5.5,0-7.98,2.29-8.58,7.92-.1,.91,.63,1.71,1.55,1.69Z"/><path class="cls-3" d="M272.27,225.45c-4.34-2.67-8.65-5.39-13.01-8-5.9-3.54-11.95-6.83-17.75-10.53-9.85-6.27-14.09-17.89-10.89-29.08,1.02-3.57,3.07-4.72,6.41-3.09,3.16,1.54,6.11,3.53,9.15,5.33,3.86,2.28,7.76,4.48,11.56,6.86,3.98,2.49,8.24,2.49,12.62,1.7,1.19-.21,1.57-1.63,.61-2.57-1.58-1.53-3.17-3.1-4.96-4.37-5.25-3.73-10.61-7.28-15.88-10.98-1.59-1.12-3.07-2.42-4.52-3.74-6.15-5.58-8.51-12.54-6.47-20.55,1.87-7.32,4.37-14.47,6.74-22.15,1.08,1.04,1.84,1.65,2.46,2.38,4.42,5.18,8.78,10.41,13.21,15.58,4.17,4.87,8.79,9.23,14.62,12.11,.56,.28,1.14,.54,1.83,.86,1.39-2.43,1.68-4.86-.04-7.08-3.43-4.44-7.06-8.72-10.54-13.12-3.13-3.95-6.36-7.84-9.22-11.99-6.67-9.7-5.65-19.97,2.97-28,4.56-4.24,9.66-7.9,14.45-11.89,6.93-5.78,13-12.31,17.38-20.29,.21-.39,.47-.75,.75-1.09,1.55-1.92,2.19-1.86,3.57,.21,6.93,10.39,13.83,20.8,20.84,31.14,5.66,8.35,5.57,16.52-.56,24.49-2.83,3.67-6.1,6.87-10.28,9.06-3.59,1.88-6.14,4.69-7.41,9.04,5.9-1.66,10.82-4.43,15.21-8.18,4.44-3.79,7.62-8.53,10.51-14.19,.8,.91,1.62,1.49,1.93,2.27,4.7,11.53,6.04,23.68,6.25,35.96,.12,6.69-3.25,11.71-9.28,14.68-5.61,2.76-11.26,5.44-16.99,7.91-2.79,1.2-4.03,3.42-5.21,5.97,2.72,.91,5.23,1.09,7.87-.25,6.64-3.37,13.38-6.54,20.06-9.83,4.67-2.31,5.95-1.65,5.92,3.51-.05,9.27-.09,18.54-.44,27.8-.28,7.41-3.73,11.55-10.91,13.58-5.83,1.65-11.71,3.09-17.58,4.62-2.44,.64-4.94,1.12-7.32,1.93-1.48,.51-2.8,1.5-4.07,2.56,13.87,2.37,27.01-.33,40.04-5.08,1.6,4.6,2.02,9.15,.52,13.63-.97,2.9-2.16,5.92-4.02,8.28-4,5.09-8.23,10.07-12.86,14.59-6.45,6.3-14.5,8.17-23.14,5.83-5.68-1.54-11.12-3.98-16.79-6.07-1.27,4.49-1.74,9.56-1.07,14.64,.48,3.61,1.44,7.16,2.37,10.69,1.17,4.46-.05,6.56-4.83,7.63-5.95-11.35-4.68-22.93-.68-34.96-2.91,1.18-5.4,2.04-7.76,3.17-10.51,5.03-19.31,1.5-26.5-5.99-4.97-5.19-8.82-11.24-11.91-17.67-2.78-5.78-4.94-11.86-7.36-17.82-.16-.38-.19-.82-.39-1.74,3.86,.86,7.5,1.33,10.91,2.48,10.34,3.51,20.56,7.35,30.9,10.88,2.28,.78,4.8,.91,7.23,1.11,.57,.05,1.21-.8,1.82-1.24l-.1-.96Z"/><path class="cls-1" d="M181.21,120.8c-1.94-3.74-3.9-7.02-5.4-10.49-3.72-8.65-9.98-14.11-19.14-16.42-7.89-1.99-14.2-6.24-18.25-13.52-2.24-4.03-5.92-6-10.34-6.6-5.75-.78-11.16,.55-17.13,3.3,1.48,1.44,2.48,2.98,3.9,3.7,6.13,3.11,10.76,7.87,13.73,13.8,6.95,13.9,17.91,23.82,30.43,32.37,2.99,2.04,5.92,4.19,9.13,6.46-4.51,4.95-8.86,9.71-13.7,15.02-5.04-6.67-10.12-12.97-14.72-19.61-4.57-6.61-9.92-12.02-17.84-14.31-1.99-.58-4.06-1.24-6.09-1.22-9.77,.09-18.73-3.07-27.68-6.42-3.06-1.15-6.17-2.15-9.34-3.25,.53,12.71,10.59,25.44,22.42,28.78,8.51,2.4,15.91,6.9,22.24,12.96,5.81,5.57,11.23,11.54,16.73,17.42,.45,.48,.62,1.82,.29,2.36-5.18,8.19-10.46,16.31-16.06,24.96-4.46-4.54-8.76-8.85-12.97-13.25-1.25-1.31-2.36-2.79-3.34-4.31-6.14-9.52-15.09-15.15-25.72-18.22-4.71-1.36-9.58-2.47-14.45-2.86-7.2-.58-13.49,2.11-18.37,7.47-3.28,3.6-6.21,7.52-9.53,11.59,2.8,.06,5.57,.46,8.24,.12,14.52-1.85,27.23,2,37.59,12.34,8.72,8.69,18.87,15.46,28.81,22.52,1.92,1.37,2.28,2.52,1.37,4.66-1.52,3.58-2.7,7.3-4.19,11.41-1.47-1.67-2.76-3.09-3.99-4.56-5.54-6.62-11.98-12.19-20.88-12.93-8.77-.73-17.66-.81-26.45-.41-7.27,.34-12.14,7.13-12.02,15.55,1.58-.57,3.06-1.23,4.61-1.63,5.51-1.43,10.53,.19,15.13,3.01,12.63,7.73,25.16,15.61,37.67,23.53,.73,.47,1.23,1.81,1.28,2.77,.38,7.17,.62,14.36,.9,21.54,.04,1.02,.11,2.04,.17,3.28,1.11-.03,2.01-.05,3.34-.08,.06-3.03,.15-5.86,.18-8.68,.05-4.75-.17-9.52,.15-14.25,.27-4.01,2.81-6.29,6.77-7.15,8.88-1.94,16.99-.51,24.24,5.15,1.16,.9,2.44,1.65,3.66,2.47,2.21,1.49,4.53,2.3,7.31,2.11,7.06-.47,11.83,2.83,14.82,9.18,1.16,2.47,2.86,4.71,4.47,6.94,.36,.5,1.45,.79,2.09,.64,.42-.09,.92-1.16,.88-1.75-.47-7-.89-14-1.61-20.97-.57-5.44-4.02-8.91-9.1-10.17-5.58-1.38-10.55-3.92-15.34-6.85-8.41-5.15-17.47-6.21-27.02-5.04-2.19,.27-4.42,.29-7.04,.44,1.65-4.89,3.09-9.41,4.77-13.84,.2-.54,1.72-.92,2.56-.83,7.67,.83,15.32,1.76,22.97,2.69,9.55,1.17,19.09,2.37,28.63,3.55,5.36,.66,10.78,1.45,15.17,4.82,2.63,2.01,5.23,4.47,6.86,7.29,3.79,6.56,10.93,9.73,20.57,7.6-.84-1.55-1.62-3.04-2.44-4.51-5.28-9.46-10.6-18.89-15.83-28.37-1.44-2.61-3.46-3.98-6.37-4.78-6.43-1.76-12.75-3.91-19.1-5.96-9.17-2.96-18.31-3.91-27.84-1.26-5.62,1.57-11.56,1.98-18.14,3.03,5.89-9.31,11.39-18,16.98-26.85,16.38,10.04,34.59,11.82,52.84,13.4,11.21,.97,20.66,5.33,27.98,14.08,4.57,5.45,10.15,9.15,18.14,9.07-1.67-3.06-3.31-5.84-4.73-8.74-2.46-5.03-5.11-10.02-7.09-15.24-3.84-10.09-10.94-16.41-21.32-18.61-7.01-1.49-14.24-1.94-21.34-3.03-9.92-1.52-19.82-3.2-29.75-4.81,1.71-8.12,7.83-13.4,15.45-12.5,27.72,3.27,54.49,9.44,77.01,27.44,3.01,2.41,6.25,4.54,9.46,6.86,4.7-10.93,.1-23.74-10.86-28.96-9.05-4.32-17.37-9.59-25.44-15.48-9.44-6.89-19.94-11.13-31.92-10.67-1.09,.04-2.17,.11-3.54-.34,3.83-3.46,7.47-7.18,11.61-10.22,1.39-1.02,4.33-.95,6.09-.23,8.65,3.52,17.29,7.07,25.02,12.54,5.74,4.06,12.33,5.29,19.32,4.31,7.14-1,13.56-3.87,20.32-7.66-11.97-3.55-21.19-11.09-31.44-16.72-7.15-3.93-14.7-6.49-23.54-6.22,5.25-6.33,10.48-11.75,18.54-13.08,7.86-1.29,13.18-5.72,16.52-12.78,5.8-12.23,14.55-21.19,27.81-25.17,1.08-.32,2.18-.59,3.27-.89-.23-.58-.45-1.16-.68-1.74-1.59-.42-3.25-1.35-4.76-1.16-9.61,1.21-19.31,2.13-28.75,4.19-13.86,3.03-22.01,12.4-25.56,25.9-.81,3.09-1.19,6.3-1.86,9.43-1.05,4.9-3.77,8.64-8.24,11.56-2.07-3.4-4.15-6.66-6.06-10.02-4.53-7.91-10.23-14.77-17.46-20.39-5.44-4.23-10.32-9-12.98-15.61-.32-.8-1.19-1.49-1.97-1.97-1.99-1.21-4.07-2.26-6.56-3.62,.73,9.17-.67,18.15,2.57,26.7,.76,2,1.84,3.96,3.16,5.64,6.71,8.5,13.52,16.92,20.33,25.34,4.85,6.01,4.82,7.1-.85,12.44-3.97,3.74-7.99,7.41-12.35,11.44Z"/><path class="cls-4" d="M858.37,210.9c2.15-1.81,4.19-3.33,5.99-5.08,4.47-4.37,9.78-6.17,16.16-5.35,5.5,.71,10.54-.34,14.89-3.79,2.41-1.91,5.22-2.22,8.18-1.5,3.85,.93,6.95,3.06,10.08,6.19-1.29,.52-2.3,1.22-3.38,1.31-4.65,.4-8.75,2.17-12.08,5.07-7.81,6.78-17.18,10.16-27.23,12.32-2.4,.52-4.78,1.11-7.37,1.72,1.66,4.12,3.26,8.08,5.03,12.5,4.83-2.84,9.6-5.44,14.13-8.37,4.52-2.92,9.24-4.91,14.82-4.38,1.4,.13,2.88,.24,4.17,.74,6.18,2.44,12.64,2.69,19.14,2.83,2.22,.05,4.45,.19,6.73,.29-3.44,7.62-12.93,12.93-21.26,12.09-5.99-.61-11.79,.33-17.29,2.49-5.05,1.98-9.95,4.3-14.87,6.54-.4,.18-.84,.96-.76,1.37,1.29,6.26,2.66,12.5,4.11,19.14,3.94-1.68,7.72-3.26,11.47-4.92,1.11-.49,2.18-1.13,3.17-1.82,6.22-4.31,13.28-5.56,20.78-4.84,3.32,.32,6.69,.83,9.87,1.78,4.71,1.4,8.05,4.58,9.85,9.03,1.21,3,2.1,6.1,3.22,9.39-1.79-.65-3.65-1.08-5.26-1.93-8.77-4.67-17.78-5.42-26.88-1.64-7.66,3.18-15.76,4.83-23.79,6.71-1.55,.36-2.06,.98-2.01,2.51,.09,2.55-.07,5.11-.13,7.98,1.34-.66,2.51-1.21,3.64-1.81,5.13-2.69,10.58-4.51,16.41-2.79,5.75,1.69,11.41,3.81,16.9,6.2,4.53,1.98,5.97,7.31,3.84,12.41-.86-.73-1.64-1.5-2.53-2.12-3.15-2.21-6.73-2.45-10.34-1.85-9.9,1.64-19.79,3.39-29.66,5.17-.58,.1-1.22,.8-1.49,1.38-1.99,4.28-3.89,8.61-5.83,12.92-.28,.61-.57,1.22-.91,1.96-.7-.29-1.26-.52-2.1-.87,.7-1.86,1.33-3.61,2.01-5.34,1.13-2.91,2.43-5.76,3.38-8.72,.81-2.51-.25-4.52-2.55-6.01-5.16-3.34-10.66-4.45-16.65-2.77-.96,.27-1.95,.41-2.93,.62-1.77,.37-3.44,.3-5.16-.49-4.37-2.01-8.2-1.16-11.65,1.98-1.34,1.22-2.96,2.18-4.53,3.15-.35,.22-1.12,.13-1.49-.12-.24-.16-.3-.93-.13-1.28,2-4.15,3.98-8.32,6.14-12.4,1.69-3.18,4.73-4.45,8.26-3.98,3.88,.52,7.66,.18,11.41-.44,6.6-1.09,12.61,.47,18.39,3.51,1.33,.7,2.73,1.25,4.36,1.99,.15-3.38,.33-6.49,.35-9.6,0-.38-.87-.98-1.43-1.13-5.07-1.36-10.16-2.66-15.25-3.96-6.35-1.62-12.7-3.21-19.05-4.81-3.57-.9-7.2-1.74-10.81-.76-2.16,.59-4.41,1.45-6.13,2.77-4.01,3.08-9.32,3.27-14.91-.38,.91-.74,1.77-1.46,2.65-2.16,5.66-4.48,11.34-8.94,16.98-13.44,1.55-1.24,3.17-1.59,5.21-1.36,4.51,.5,9.05,.72,13.58,1.02,6.54,.43,12.58,2.08,17.99,6.02,3.19,2.33,6.86,4.02,10.78,6.27-1.47-7.11-2.84-13.76-4.23-20.52-12.85,2.13-24.85-1.22-36.83-4.71-7.36-2.14-14.42-1.78-21.21,1.76-4.23,2.21-8.68,3.11-13.73,1.11,1.8-1.46,3.53-2.75,5.14-4.17,2.79-2.47,5.69-4.86,8.22-7.57,4.9-5.22,10.95-7.34,18.08-6.15,4.82,.8,9.51,2.29,14.29,3.36,6.67,1.49,13.37,2.88,20.06,4.32,.9-5.37-1.7-10.08-6.76-11.39-18.4-4.76-36.9-7.53-55.6-2.04-2.5,.74-5.08,1.25-7.68,1.87-.32-7.81,5.73-14.5,13.96-15.02,6.8-.42,13.37-1.61,19.93-3.24,7.67-1.9,15.38-1.92,22.88,1.27,.68,.29,1.35,.6,2.33,.66-1.59-3.04-2.99-6.2-4.88-9.06-.63-.96-2.52-1.64-3.81-1.63-6.35,.04-12.71,.1-18.95,1.55-4.64,1.08-9.12,.22-13.32-2.08-4.29-2.35-7.67-5.66-11.04-9.62,8.47,.75,16.16-1.6,24.05-2.53,5.5-.65,10.92-.38,16.47,1.95-1.79-5.14-3.78-9.72-8.58-12.5-4.68-2.7-6.97-6.7-7.37-11.82-.7-8.87-4.07-16.47-11.52-22.13-.61-.46-1.24-.89-1.86-1.34l.85-.89c1.11,.13,2.39-.03,3.31,.45,5.81,3.08,11.74,6.01,17.24,9.57,8.06,5.23,10.95,12.93,9.91,22.03-.24,2.08-.78,4.13-1.12,6.21-.53,3.24,.29,6.19,2.41,9.06,2.14-1.57,4.26-3.05,6.3-4.63,4.81-3.72,10.1-6.52,16.07-8.18,4.49-1.25,8.75-2.97,12.05-6.35,.4-.41,1.12-.62,1.73-.72,1.56-.25,3.14-.39,5.05-.61-2.7,5.42-4,11.23-8.15,15.66-.97,1.03-2.13,1.97-3.38,2.67-6.33,3.55-12.72,7.02-19.09,10.5-4.55,2.48-4.79,3.16-2.5,7.79,1.61,3.25,3.27,6.47,5.05,9.99Z"/></svg>