<?xml version="1.0" encoding="UTF-8" standalone="no"?>
<svg
   id="Intro"
   viewBox="0 0 1530 105.36302"
   version="1.1"
   sodipodi:docname="grass2.svg"
   inkscape:version="1.2.2 (732a01da63, 2022-12-09)"
   xmlns:inkscape="http://www.inkscape.org/namespaces/inkscape"
   xmlns:sodipodi="http://sodipodi.sourceforge.net/DTD/sodipodi-0.dtd"
   xmlns="http://www.w3.org/2000/svg"
   xmlns:svg="http://www.w3.org/2000/svg">
  <sodipodi:namedview
     id="namedview18"
     pagecolor="#ffffff"
     bordercolor="#000000"
     borderopacity="0.25"
     inkscape:showpageshadow="2"
     inkscape:pageopacity="0.0"
     inkscape:pagecheckerboard="0"
     inkscape:deskcolor="#d1d1d1"
     showgrid="false"
     inkscape:zoom="0.64538514"
     inkscape:cx="765.43442"
     inkscape:cy="401.31076"
     inkscape:window-width="1536"
     inkscape:window-height="801"
     inkscape:window-x="-8"
     inkscape:window-y="-8"
     inkscape:window-maximized="1"
     inkscape:current-layer="Intro" />
  <defs
     id="defs13">
    <style
       id="style11">.cls-1{fill:#5f7857;}</style>
    <clipPath
       clipPathUnits="userSpaceOnUse"
       id="clipPath178">
      <rect
         style="fill:#000000"
         id="rect180"
         width="1679.6172"
         height="168.8914"
         x="-30.989248"
         y="-63.527958" />
    </clipPath>
  </defs>
  <path
     class="cls-1"
     d="M 1530,61.79 V 1296.9 H 0 V 70.78 C 9.77,65.87 24.58,67.63 40.72,80.58 18.38,52.86 74.21,28.13 96.25,52.3 94.65,1.89 196.16,12.59 206.97,66.68 209,29.33 262.57,25.33 271.66,53.29 301.94,-22.39 424.73,-19.48 411.88,75 426.33,23.94 523.79,7.98 544.81,79.93 c 33.83,-48.6 95.68,-54.43 72.28,10.72 -0.67,1.86 -1.4,3.77 -2.2,5.74 0.8,-2 1.85,-3.91 3.12,-5.74 25.55,-36.67 141.41,-40.44 152.97,0 0.45,1.58 0.74,3.24 0.86,4.96 0.31,-1.68 0.7,-3.33 1.17,-4.96 C 787.01,43.4 901,40.9 933,61.9 c 17,-25 83.5,-41.28 95.95,0.65 0.4,1.35 0.74,2.73 1.02,4.13 0.07,-1.34 0.21,-2.64 0.42,-3.9 5.41,-33.7 55.51,-36.44 64.27,-9.49 30.28,-75.68 153.07,-72.77 140.22,21.71 14.45,-51.06 111.91,-67.02 132.93,4.93 33.83,-48.6 95.68,-54.43 72.28,10.72 -0.67,1.86 -1.4,3.77 -2.2,5.74 0.8,-2 1.85,-3.91 3.12,-5.74 13.7,-19.66 53.36,-29.86 88.99,-28.86 z"
     id="path15"
     clip-path="url(#clipPath178)"
     transform="translate(0,-4.2663815e-4)"
     style="fill:#5f7857;fill-opacity:1" />
</svg>
