<?xml version="1.0" encoding="UTF-8" standalone="no"?>
<svg
   id="Background"
   viewBox="0 0 1046.2559 423.06224"
   version="1.1"
   sodipodi:docname="grass1Edit1.svg"
   inkscape:version="1.2.2 (732a01da63, 2022-12-09)"
   xmlns:inkscape="http://www.inkscape.org/namespaces/inkscape"
   xmlns:sodipodi="http://sodipodi.sourceforge.net/DTD/sodipodi-0.dtd"
   xmlns="http://www.w3.org/2000/svg"
   xmlns:svg="http://www.w3.org/2000/svg">
  <sodipodi:namedview
     id="namedview149"
     pagecolor="#ffffff"
     bordercolor="#000000"
     borderopacity="0.25"
     inkscape:showpageshadow="2"
     inkscape:pageopacity="0.0"
     inkscape:pagecheckerboard="0"
     inkscape:deskcolor="#d1d1d1"
     showgrid="false"
     inkscape:zoom="0.78948186"
     inkscape:cx="543.39437"
     inkscape:cy="53.199449"
     inkscape:window-width="1920"
     inkscape:window-height="1017"
     inkscape:window-x="1912"
     inkscape:window-y="-8"
     inkscape:window-maximized="1"
     inkscape:current-layer="Background" />
  <defs
     id="defs13">
    <style
       id="style11">.cls-1{fill:#92aa87;}</style>
    <clipPath
       clipPathUnits="userSpaceOnUse"
       id="clipPath254">
      <rect
         style="fill:#000000;stroke-width:0.674269"
         id="rect256"
         width="1047.9214"
         height="812.94446"
         x="242.55685"
         y="-106.11449" />
    </clipPath>
    <clipPath
       clipPathUnits="userSpaceOnUse"
       id="clipPath267">
      <rect
         style="fill:#5f7857;stroke-width:1.05015"
         id="rect269"
         width="1048.1293"
         height="541.8739"
         x="242.34886"
         y="-0.89150596" />
    </clipPath>
    <clipPath
       clipPathUnits="userSpaceOnUse"
       id="clipPath223">
      <rect
         style="fill:#5f7857"
         id="rect225"
         width="1046.2559"
         height="423.06226"
         x="243.61551"
         y="1.2708013"
         ry="0" />
    </clipPath>
  </defs>
  <path
     class="cls-1"
     d="m 1480.47,156.12 c 13.97,-29.69 -13,-48.69 -28.56,-23.76 29.87,-66.98 -37.55,-97.18 -57.33,-47.7 11.87,-74.6 -52.48,-88.28 -71.06,-27.01 -0.35,1.82 -0.86,3.72 -1.54,5.71 0.47,-1.97 0.99,-3.87 1.54,-5.71 7.77,-40.18 -61.92,-40.51 -75.14,-10.77 -18.78,-35.65 -61.33,-8.46 -63.6,19.83 0.13,1.9 0.17,3.89 0.13,5.96 -0.26,-1.98 -0.3,-3.97 -0.13,-5.96 -3.13,-50.93 -59.8,-43.97 -67.92,-1.15 -7.91,-6.89 -33.64,20 -29.06,30.37 -25.67,-27.22 -72.2,35.05 -40.19,63.96 -4.77,-1.7 -8.95,-1.64 -12.46,-0.34 -8.9,-24.8 -50.84002,-27.48 -69.89002,-0.22 -5.55,-8.69 -41.77,5.88 -40.91,16.45 -9.05,-18.07 -34.96,-14.2 -52.3,-0.98 -41.36,-1.27 -83.15,-1.91 -125.3,-1.91 -17.25,0 -34.45,0.11 -51.57,0.32 -13.39,-15.89 -42.57,-11.99 -58.21,1.15 -3.19,2.68 -5.82,5.74 -7.63,9.1 -0.59,1.72 -1.29,3.49 -2.1,5.3 0.47,-1.83 1.18,-3.6 2.1,-5.3 1.07,-3.14 1.78,-6.13 2.15,-8.96 5.07,-37.91 -48.85,-47.18 -71.23,-15.17 -5.55,-8.69 -41.76998,5.88 -40.90998,16.45 -4.51,-9.01 -13.21,-12.56 -22.94,-12.23 7.62,-33.25 -25.54,-53.81 -64.52,-26.77 -1.41,1.21 -3,2.39 -4.78,3.53 1.6,-1.26 3.2,-2.44 4.78,-3.53 31.22,-26.82 -23.51,-70.6 -52.5,-55.41 7.45,-39.79 -42.97,-44.95 -62.48,-24.15 -1.1,1.6 -2.32,3.21 -3.66,4.84 1.04,-1.74 2.28,-3.36 3.66,-4.84 C 346.16,15.15 297.16,-14.7 264.05,13.97 262.12,3.6 225.04,8.72 222.18,19.75 218.94,-17.73 143.38,2.3 150.56,45.08 137.28,23.8 108.49,45.2 112.44,64.12 c 0.59,1.29 1.09,2.72 1.51,4.29 -0.71,-1.4 -1.21,-2.84 -1.51,-4.29 -12.36,-27.38 -59.99,5.62 -47,35.82 -4.23,-1.75 -8.22,0.5 -11.07,4.08 -2.84,3.58 -4.01,8.18 -5.1,12.62 -1.77,-2.92 -3.91,-6.11 -7.25,-6.81 -3.33,-0.71 -6.62,1.35 -9.01,3.76 -4.64,4.69 -7.51,11.1 -7.89,17.68 -0.11,1.9 -0.07,3.97 -1.23,5.47 -0.97,1.26 -2.56,1.83 -4,2.49 -7.93,3.6 -13.35,11.34 -16.14,19.59 C 0.96000004,167.06 0.47000004,175.88 3.8659437e-8,184.57 L 0.35000004,1470.22 C 224.9,1516.49 478.43,1542.51 746.74998,1542.51 1029.2,1542.51 1295.24,1513.67 1528.35,1462.76 V 252.64 c 0,-69.94 15,-107.94 -47.88,-96.52 z M 422.23,244.86 c 1.04,0.98 2.04,2.11 3,3.38 -1.2,-1.05 -2.2,-2.18 -3,-3.38 z"
     id="path15"
     clip-path="url(#clipPath223)"
     transform="translate(-243.61551,-1.2708013)" />
</svg>
