<?xml version="1.0" encoding="UTF-8" standalone="no"?>
<svg
   id="Teams_background"
   viewBox="0 0 1529.95 400.86425"
   version="1.1"
   sodipodi:docname="grass7.svg"
   inkscape:export-filename="grass71.svg"
   inkscape:export-xdpi="96"
   inkscape:export-ydpi="96"
   xmlns:inkscape="http://www.inkscape.org/namespaces/inkscape"
   xmlns:sodipodi="http://sodipodi.sourceforge.net/DTD/sodipodi-0.dtd"
   xmlns="http://www.w3.org/2000/svg"
   xmlns:svg="http://www.w3.org/2000/svg">
  <sodipodi:namedview
     id="namedview473"
     pagecolor="#ffffff"
     bordercolor="#000000"
     borderopacity="0.25"
     inkscape:showpageshadow="2"
     inkscape:pageopacity="0.0"
     inkscape:pagecheckerboard="0"
     inkscape:deskcolor="#d1d1d1"
     showgrid="false" />
  <defs
     id="defs468">
    <style
       id="style466">.cls-1{fill:#53684b;}</style>
    <clipPath
       clipPathUnits="userSpaceOnUse"
       id="clipPath501">
      <rect
         style="fill:#000000"
         id="rect503"
         width="1936.1892"
         height="473.02344"
         x="-128.27754"
         y="-72.15612" />
    </clipPath>
  </defs>
  <path
     class="cls-1"
     d="m 1530,218.97 v -62.29 c -21.77,26.08 -59.81,55.78 -78.22,58.58 -1.94,0.3 -3.31,-1.82 -2.28,-3.48 2.74,-4.43 5.11,-8.62 8.36,-11.95 9.5,-9.73 19.94,-18.53 29.53,-28.18 10.09,-10.14 20.36,-20.26 29.2,-31.45 7.03,-8.91 10.66,-20.29 5.06,-31.13 -4.72,-9.14 -11.34,-17.31 -17.21,-25.5 -0.91,-1.28 -2.82,-1.26 -3.73,0.02 -15.69,22.04 -30.6,43.49 -46.21,64.41 -5.44,7.29 -12.15,14.05 -19.53,19.31 -4.18,2.99 -9.8,3.97 -15.15,5.32 -1.59,0.4 -3.07,-0.94 -2.83,-2.57 0.81,-5.52 1.11,-11.41 4,-15.44 9.82,-13.72 21.03,-26.47 32.06,-39.28 11.35,-13.17 19.31,-28.05 21.88,-45.14 2.34,-15.49 -1.31,-33.43 -22.94,-37.36 -1.14,-0.21 -2.27,0.48 -2.61,1.59 -5.37,17.45 -10.26,34.83 -16.33,51.8 -2.6,7.24 -7,17.23 -16.87,13.36 -9.65,-3.78 -4.78,-13.66 -2.58,-20.49 3.58,-11.17 8.89,-21.76 13.06,-32.76 2.75,-7.25 6.05,-15.73 -1.59,-21.38 -12.05,-8.89 -25.1,-16.43 -37.75,-24.5 -0.58,-0.37 -1.41,-0.39 -2.13,-0.44 -9.81,-0.67 -28.9,18.7 -27.16,28.46 1.26,7.13 4.21,13.99 6.74,20.85 2.66,7.22 6.04,14.19 8.39,21.49 0.55,1.73 -0.26,3.88 -0.92,6 -0.33,1.07 -1.39,1.76 -2.5,1.6 -2.4,-0.34 -5.03,-0.52 -5.93,-1.86 -5.03,-7.54 -10.01,-15.31 -13.51,-23.62 -2.74,-6.52 -3.98,-13.66 -5.7,-20.97 -0.37,-1.59 -2.24,-2.29 -3.58,-1.34 -13.8,9.82 -16.72,23.05 -8.08,40.29 6.37,12.69 15.66,23.89 23.11,36.09 4.89,8 8.98,16.48 13.35,24.79 0.49,0.93 0.29,2.06 -0.48,2.77 -0.79,0.72 -1.58,1.44 -2.37,2.16 -0.79,0.72 -1.98,0.8 -2.85,0.18 -4.15,-2.89 -8.74,-5.41 -11.86,-9.16 -17.47,-20.95 -34.49,-42.27 -51.8,-63.67 -0.89,-1.1 -2.56,-1.14 -3.5,-0.08 -1.69,1.91 -3.62,4.09 -5.5,6.29 -17.93,20.99 -17.79,37.21 1.99,56.9 9.86,9.81 21.41,17.92 32.15,26.85 9.59,7.98 19.42,15.72 28.48,24.28 1.92,1.82 2.19,5.39 2.77,8.64 0.21,1.18 -0.52,2.33 -1.69,2.63 -3.54,0.89 -7.3,2.31 -9.98,1.18 -7.34,-3.09 -14.9,-6.96 -20.62,-12.37 -24.27,-22.96 -51.33,-43.99 -60.65,-79.99 -0.45,-1.73 -2.64,-2.28 -3.88,-0.99 -3.95,4.14 -7.24,7.44 -10.2,11.03 -29.87,36.25 -23.74,65.73 17.86,87.32 15.03,7.8 30.09,15.62 44.63,24.28 5.2,3.09 9.26,8.1 13.69,12.49 0.79,0.79 0.89,2.04 0.24,2.95 -0.12,0.17 -0.24,0.34 -0.36,0.51 -0.57,0.79 -1.56,1.14 -2.49,0.87 -3.15,-0.89 -6.35,-1.67 -9.36,-2.91 -9.19,-3.79 -18.22,-7.96 -27.39,-11.79 -18.62,-7.78 -39.1,-12.78 -49.03,-32.83 -0.67,-1.35 -2.49,-1.67 -3.59,-0.64 -3.41,3.17 -6.25,6.58 -8.57,10.12 -0.43,-0.79 -0.9,-1.56 -1.44,-2.3 -4.83,-6.52 -10.73,-11.74 -18.02,-15.36 -0.14,-0.06 -0.27,-0.13 -0.4,-0.18 -0.14,-0.06 -0.27,-0.13 -0.4,-0.18 -0.54,-0.23 -1.1,-0.43 -1.7,-0.66 -0.32,-0.11 -0.63,-0.24 -0.98,-0.38 -0.04,0.3 -0.09,0.59 -0.12,0.9 v 0.03 c -0.02,0.09 -0.04,0.16 -0.05,0.25 -0.01,0.09 -0.02,0.17 -0.03,0.27 -0.06,0.41 -0.09,0.82 -0.13,1.23 -0.04,0.38 -0.06,0.75 -0.08,1.12 -0.02,0.27 -0.03,0.54 -0.03,0.8 -0.02,0.27 -0.03,0.53 -0.01,0.79 0,0.14 0,0.29 0,0.44 0,0.27 0,0.55 0.03,0.83 0.04,1.5 0.18,2.97 0.43,4.45 0.41,2.64 1.02,5.25 1.6,7.87 1.07,4.83 1.69,9.7 1.72,14.63 0,3.94 -0.75,7.72 -3.11,11 -0.16,0.23 -0.33,0.45 -0.51,0.67 -0.05,0.08 -0.12,0.15 -0.17,0.22 -0.64,0.7 -1.31,1.27 -2.01,1.68 -1.12,0.68 -2.3,0.96 -3.45,0.89 -0.11,0 -0.21,-0.02 -0.3,-0.04 -1.91,-0.21 -3.7,-1.47 -4.95,-3.69 -1.2,-2.13 -1.82,-4.45 -1.6,-6.88 0.21,-2.12 0.57,-4.27 1.12,-6.35 0.75,-2.8 1.77,-5.54 2.58,-8.32 1.21,-4.09 1.9,-8.19 2.19,-12.34 0.06,-0.93 0.11,-1.86 0.13,-2.79 0.02,-0.93 0.02,-1.86 0.01,-2.78 -0.03,-1.4 -0.09,-2.81 -0.19,-4.22 -0.02,-0.24 -0.03,-0.46 -0.06,-0.69 -0.05,-0.45 -0.11,-0.9 -0.19,-1.33 -0.08,-0.43 -0.18,-0.86 -0.28,-1.28 -0.65,-2.51 -1.88,-4.75 -3.74,-6.74 -0.1,-0.1 -0.2,-0.21 -0.3,-0.31 -0.29,-0.31 -0.59,-0.61 -0.89,-0.92 -0.8,-0.8 -1.63,-1.56 -2.47,-2.28 -0.84,-0.73 -1.72,-1.41 -2.61,-2.05 -4.88,-3.54 -10.41,-5.89 -16.62,-7.05 -0.14,-0.03 -0.29,-0.07 -0.46,-0.12 -0.08,-0.03 -0.18,-0.06 -0.27,-0.08 -0.05,-0.03 -0.11,-0.03 -0.16,-0.05 -0.03,0 -0.06,-0.02 -0.09,-0.03 -0.03,-0.01 -0.05,-0.01 -0.09,-0.02 0.05,0.77 0.04,1.25 0.11,1.72 0.12,0.71 0.23,1.41 0.33,2.11 0.45,2.8 0.91,5.59 1.35,8.38 0.32,2.1 0.62,4.2 0.87,6.3 0.19,1.53 0.33,3.06 0.44,4.59 0.08,1.02 0.13,2.04 0.19,3.07 0.06,1.53 0.12,3.06 0.18,4.6 0.01,0.36 0.01,0.73 -0.02,1.11 -0.03,0.37 -0.08,0.74 -0.13,1.11 -0.11,0.73 -0.26,1.47 -0.4,2.2 -0.17,0.92 -0.54,1.7 -1.05,2.38 -0.44,0.59 -1,1.11 -1.62,1.57 h -0.01 c -0.12,0.1 -0.25,0.19 -0.38,0.27 -0.06,0.05 -0.14,0.09 -0.2,0.13 -0.29,0.19 -0.57,0.33 -0.86,0.46 -0.71,0.3 -1.42,0.43 -2.11,0.4 -0.15,-0.01 -0.29,-0.01 -0.43,-0.04 -0.27,-0.03 -0.55,-0.1 -0.82,-0.2 -0.79,-0.28 -1.55,-0.79 -2.23,-1.53 -1.6,-1.78 -2.57,-3.74 -3.05,-5.83 -0.11,-0.5 -0.2,-1.01 -0.27,-1.52 -0.05,-0.51 -0.09,-1.03 -0.1,-1.55 0,-0.52 0.02,-1.06 0.06,-1.6 0.05,-0.53 0.11,-1.07 0.2,-1.61 0.18,-1.07 0.44,-2.13 0.72,-3.18 0.19,-0.7 0.39,-1.4 0.59,-2.11 0.3,-1.05 0.6,-2.1 0.82,-3.16 0.62,-2.82 1.21,-5.68 1.46,-8.55 0.32,-3.66 -0.69,-7.06 -2.61,-10.06 -0.26,-0.43 -0.55,-0.84 -0.86,-1.25 -0.39,-0.51 -0.79,-1 -1.24,-1.44 -0.05,-0.05 -0.1,-0.1 -0.15,-0.15 -0.22,-0.21 -0.43,-0.42 -0.66,-0.61 -0.5,-0.45 -1.05,-0.86 -1.62,-1.22 -0.14,-0.09 -0.29,-0.18 -0.43,-0.26 -0.73,-0.44 -1.51,-0.8 -2.32,-1.1 -0.33,-0.11 -0.68,-0.21 -1.01,-0.3 -0.28,-0.07 -0.56,-0.15 -0.84,-0.23 -0.47,-0.12 -0.95,-0.24 -1.43,-0.36 -2.27,-0.57 -4.55,-1.07 -6.86,-1.51 -3.37,-0.64 -6.78,-1.11 -10.15,-1.65 -6.69,-1.06 -13.43,-1.92 -20.09,-5.39 0.07,0.24 0.17,0.49 0.25,0.73 0.03,0.08 0.05,0.16 0.07,0.24 0.02,0.11 0.04,0.22 0.04,0.32 0.04,1.4 0,2.78 -0.08,4.15 -0.01,0.23 -0.04,0.45 -0.05,0.69 -0.01,0.22 -0.04,0.44 -0.06,0.68 -0.09,0.9 -0.21,1.81 -0.36,2.7 -0.12,0.78 -0.28,1.56 -0.43,2.34 -0.17,0.77 -0.36,1.54 -0.56,2.31 -0.11,0.38 -0.21,0.76 -0.32,1.14 -0.22,0.77 -0.47,1.52 -0.72,2.28 -0.13,0.37 -0.26,0.75 -0.4,1.12 -0.47,1.29 -0.99,2.57 -1.56,3.83 -0.85,1.88 -1.99,3.69 -3.3,5.28 -1.23,1.48 -1.57,2.96 -1.16,4.74 1,4.46 2.83,8.43 5.78,11.64 0.32,0.34 0.64,0.66 0.97,0.99 0.17,0.16 0.34,0.31 0.52,0.48 0.36,0.31 0.71,0.61 1.09,0.91 0.38,0.3 0.77,0.59 1.18,0.86 1,0.68 2.01,1.33 3.03,1.98 3.07,1.93 6.23,3.73 9.37,5.53 0.53,0.31 1.05,0.61 1.55,0.91 3.84,2.32 7.39,4.96 10.25,8.51 0.43,0.53 0.81,1.08 1.14,1.66 0.23,0.38 0.42,0.78 0.59,1.19 0.17,0.4 0.31,0.83 0.43,1.27 0.05,0.21 0.1,0.42 0.14,0.65 0.03,0.17 0.05,0.33 0.07,0.5 0.02,0.16 0.04,0.32 0.04,0.48 0.09,2.22 -1,3.66 -3.45,4.11 -1.8,0.33 -3.74,0.34 -5.54,0.09 -0.6,-0.09 -1.19,-0.19 -1.78,-0.31 -1.21,-0.25 -2.4,-0.57 -3.56,-0.95 -0.77,-0.26 -1.53,-0.53 -2.29,-0.84 h -0.01 c -0.75,-0.32 -1.49,-0.64 -2.23,-1 -0.37,-0.17 -0.74,-0.36 -1.1,-0.54 -0.53,-0.28 -1.06,-0.56 -1.58,-0.85 -0.26,-0.15 -0.53,-0.3 -0.78,-0.46 -0.79,-0.45 -1.56,-0.92 -2.33,-1.41 -0.38,-0.24 -0.76,-0.48 -1.14,-0.73 -0.37,-0.25 -0.75,-0.5 -1.12,-0.76 -1.11,-0.76 -2.2,-1.56 -3.25,-2.37 -2.12,-1.66 -4.15,-3.44 -6.02,-5.35 -0.64,-0.63 -1.25,-1.29 -1.84,-1.95 -1.38,-1.51 -2.67,-3.11 -3.9,-4.8 -0.5,-0.7 -0.98,-1.4 -1.45,-2.13 -0.15,-0.24 -0.3,-0.47 -0.46,-0.71 -0.19,-0.31 -0.39,-0.62 -0.57,-0.93 -0.45,-0.72 -0.9,-1.45 -1.34,-2.19 -0.18,-0.29 -0.37,-0.59 -0.56,-0.89 -0.2,-0.33 -0.4,-0.66 -0.61,-0.99 -0.24,0.31 -0.53,0.6 -0.77,0.94 v 0 c -0.04,0.06 -0.08,0.12 -0.11,0.17 -4,6.18 -6.26,12.95 -6.82,20.31 -0.05,0.8 -0.02,1.59 0.1,2.34 0.08,0.51 0.2,1.01 0.36,1.49 0.17,0.48 0.37,0.96 0.62,1.42 0.07,0.14 0.14,0.27 0.23,0.4 0.06,0.1 0.12,0.19 0.18,0.29 0.12,0.2 0.26,0.4 0.38,0.6 0.27,0.39 0.54,0.76 0.84,1.12 0,0.01 0,0.02 0.02,0.02 0.32,0.41 0.67,0.8 1.03,1.19 0.62,0.67 1.29,1.29 2.01,1.89 0.14,0.13 0.3,0.27 0.45,0.39 0.37,0.31 0.75,0.6 1.14,0.89 0.59,0.44 1.19,0.87 1.8,1.27 5.78,3.85 12.26,6.1 18.8,8.17 0.75,0.24 1.49,0.49 2.23,0.74 1.46,0.51 2.92,1.06 4.36,1.66 0.72,0.29 1.44,0.6 2.14,0.93 1.7,0.77 3.37,1.61 5.02,2.53 0.71,0.4 1.41,0.83 2.06,1.3 0.23,0.16 0.44,0.32 0.66,0.48 0.42,0.32 0.83,0.67 1.22,1.04 0.81,0.76 1.56,1.63 2.19,2.59 0.15,0.22 0.29,0.45 0.42,0.69 -3.89,2.2 -7.64,4.72 -11.2,7.55 -0.13,-0.03 -0.26,-0.06 -0.39,-0.1 -0.45,-0.13 -0.9,-0.25 -1.34,-0.39 -0.45,-0.13 -0.91,-0.27 -1.35,-0.4 -0.72,-0.23 -1.44,-0.46 -2.16,-0.7 -5.45,-1.85 -10.67,-4.24 -15.36,-7.76 -3.02,-2.3 -6.21,-4.36 -9.22,-6.68 -0.2,-0.16 -0.4,-0.32 -0.6,-0.48 -0.18,-0.15 -0.35,-0.31 -0.53,-0.46 -0.42,-0.35 -0.83,-0.72 -1.24,-1.1 -0.2,-0.17 -0.4,-0.35 -0.59,-0.55 -0.6,-0.55 -1.2,-1.12 -1.83,-1.72 q 0,0 -0.02,-0.01 c -0.36,-0.33 -0.72,-0.68 -1.1,-1.02 -0.11,0.55 -0.2,1.03 -0.28,1.46 0,0.02 0,0.03 -0.01,0.04 -0.03,0.19 -0.06,0.36 -0.08,0.54 -0.02,0.08 -0.03,0.16 -0.04,0.25 -0.02,0.08 -0.03,0.17 -0.04,0.26 -0.09,0.8 -0.17,1.6 -0.24,2.41 -0.07,0.8 -0.14,1.6 -0.19,2.4 -0.71,11.17 0.61,22.18 3.61,33.04 0.59,2.12 1.25,4.21 1.97,6.28 -7.18,-7.53 -19.01,-10.41 -30.24,-8.56 -2.62,-7.85 -6.53,-15.04 -12,-21.48 -0.13,-0.15 -0.26,-0.3 -0.39,-0.44 -0.13,-0.14 -0.26,-0.29 -0.39,-0.43 -0.53,-0.55 -1.11,-1.1 -1.72,-1.68 -0.33,-0.3 -0.65,-0.63 -0.99,-0.97 -0.22,0.33 -0.42,0.66 -0.63,1.02 0,0.01 0,0.02 -0.02,0.04 -0.06,0.09 -0.12,0.17 -0.18,0.27 -0.06,0.1 -0.12,0.21 -0.17,0.32 -0.3,0.46 -0.55,0.95 -0.81,1.43 -0.25,0.44 -0.47,0.88 -0.69,1.32 -0.16,0.32 -0.31,0.64 -0.45,0.96 -0.17,0.32 -0.31,0.63 -0.43,0.95 -0.09,0.17 -0.16,0.35 -0.24,0.53 -0.13,0.33 -0.28,0.68 -0.4,1.02 -0.74,1.85 -1.33,3.73 -1.8,5.65 -0.89,3.43 -1.5,6.92 -2.18,10.42 -1.22,6.43 -3.01,12.69 -5.56,18.7 -0.73,1.71 -1.58,3.34 -2.56,4.86 -2.82,-6.85 -7.18,-12.84 -12.57,-17.92 1.88,-2.22 3.87,-4.36 5.71,-6.59 3.6,-4.35 6.59,-8.98 9.12,-13.88 0.56,-1.1 1.1,-2.21 1.61,-3.32 0.52,-1.13 1.01,-2.26 1.47,-3.39 0.7,-1.72 1.37,-3.46 1.98,-5.23 0.1,-0.3 0.2,-0.58 0.29,-0.88 0.18,-0.56 0.34,-1.14 0.47,-1.71 0.12,-0.57 0.23,-1.14 0.32,-1.7 0.52,-3.4 0.2,-6.77 -1.02,-10.16 -0.07,-0.17 -0.14,-0.37 -0.2,-0.54 -0.2,-0.53 -0.4,-1.05 -0.61,-1.58 -0.55,-1.4 -1.16,-2.75 -1.81,-4.08 -0.64,-1.31 -1.35,-2.6 -2.1,-3.85 -4.08,-6.86 -9.59,-12.62 -16.53,-17.28 -0.16,-0.1 -0.32,-0.24 -0.5,-0.38 -0.09,-0.09 -0.19,-0.17 -0.3,-0.25 -0.04,-0.05 -0.11,-0.08 -0.17,-0.14 -0.03,-0.02 -0.05,-0.05 -0.09,-0.08 -0.03,-0.03 -0.07,-0.05 -0.1,-0.08 v 0 c -0.34,0.96 -0.6,1.56 -0.76,2.16 -0.23,0.92 -0.46,1.83 -0.7,2.74 -0.92,3.64 -1.82,7.27 -2.75,10.9 -0.71,2.72 -1.44,5.44 -2.23,8.13 -0.57,1.96 -1.21,3.89 -1.86,5.81 -0.45,1.28 -0.92,2.56 -1.39,3.84 -0.72,1.89 -1.45,3.79 -2.18,5.68 -0.18,0.46 -0.38,0.91 -0.61,1.34 -0.23,0.44 -0.49,0.87 -0.74,1.29 -0.51,0.83 -1.09,1.66 -1.64,2.47 -0.69,1.03 -1.54,1.79 -2.52,2.34 -0.85,0.5 -1.79,0.84 -2.79,1.07 h -0.02 c -0.2,0.05 -0.4,0.09 -0.6,0.12 -0.09,0.03 -0.21,0.05 -0.31,0.06 -0.45,0.08 -0.87,0.11 -1.29,0.1 -1.02,0 -1.95,-0.21 -2.78,-0.61 -0.18,-0.09 -0.35,-0.17 -0.51,-0.27 -0.3,-0.18 -0.6,-0.41 -0.88,-0.67 -0.82,-0.76 -1.48,-1.78 -1.92,-3.03 -1.02,-3.01 -1.17,-5.9 -0.65,-8.69 0.12,-0.67 0.28,-1.34 0.46,-1.99 0.21,-0.65 0.43,-1.31 0.7,-1.95 0.26,-0.63 0.57,-1.27 0.91,-1.91 0.33,-0.62 0.68,-1.24 1.07,-1.86 0.78,-1.2 1.66,-2.36 2.55,-3.49 0.6,-0.75 1.21,-1.5 1.82,-2.26 0.92,-1.12 1.83,-2.25 2.65,-3.42 2.24,-3.11 4.45,-6.28 6.26,-9.64 2.3,-4.29 2.85,-8.95 2.08,-13.6 -0.09,-0.66 -0.23,-1.32 -0.39,-1.98 -0.2,-0.82 -0.44,-1.62 -0.75,-2.4 -0.04,-0.08 -0.08,-0.18 -0.11,-0.27 -0.15,-0.36 -0.31,-0.73 -0.48,-1.08 -0.38,-0.8 -0.83,-1.59 -1.34,-2.33 -0.13,-0.19 -0.25,-0.37 -0.38,-0.55 -0.67,-0.91 -1.43,-1.76 -2.26,-2.54 -0.34,-0.32 -0.7,-0.62 -1.07,-0.9 -0.3,-0.23 -0.6,-0.47 -0.89,-0.71 -0.51,-0.4 -1.03,-0.8 -1.55,-1.19 -2.47,-1.88 -4.99,-3.68 -7.57,-5.43 -3.77,-2.54 -7.67,-4.9 -11.49,-7.32 -7.59,-4.79 -15.34,-9.37 -21.63,-17.07 -0.04,0.33 -0.04,0.68 -0.07,1.02 -0.01,0.11 -0.03,0.22 -0.04,0.33 -0.03,0.14 -0.07,0.28 -0.12,0.41 -0.68,1.72 -1.44,3.39 -2.27,5 -0.14,0.28 -0.28,0.53 -0.42,0.81 -0.13,0.26 -0.28,0.52 -0.42,0.8 -0.59,1.05 -1.21,2.09 -1.86,3.1 -0.56,0.89 -1.16,1.76 -1.75,2.62 -0.61,0.85 -1.24,1.69 -1.89,2.52 -0.33,0.41 -0.65,0.81 -0.99,1.22 -0.67,0.82 -1.36,1.61 -2.07,2.39 -0.35,0.39 -0.71,0.78 -1.07,1.17 -1.24,1.32 -2.54,2.6 -3.9,3.83 -2.02,1.85 -4.35,3.45 -6.78,4.7 -2.28,1.16 -3.46,2.79 -3.89,5.16 -1.12,5.95 -0.97,11.74 0.93,17.19 0.22,0.59 0.44,1.14 0.67,1.71 0.12,0.29 0.25,0.57 0.39,0.86 0.26,0.57 0.54,1.13 0.85,1.68 0.3,0.57 0.63,1.12 0.98,1.66 0.86,1.35 1.75,2.68 2.65,4 2.72,3.96 5.63,7.8 8.51,11.64 0.48,0.65 0.95,1.28 1.41,1.92 3.45,4.83 6.4,9.91 8.02,15.72 0.25,0.86 0.42,1.74 0.53,2.61 0.07,0.59 0.09,1.17 0.08,1.76 0.01,0.58 -0.05,1.17 -0.14,1.76 -0.05,0.29 -0.1,0.58 -0.17,0.88 -0.05,0.22 -0.11,0.43 -0.17,0.64 -0.06,0.21 -0.13,0.41 -0.21,0.6 -1.05,2.76 -3.13,3.94 -6.35,3.2 -2.36,-0.54 -4.72,-1.54 -6.79,-2.79 -0.67,-0.42 -1.35,-0.85 -2,-1.32 -1.34,-0.92 -2.62,-1.93 -3.83,-3.01 -0.8,-0.72 -1.59,-1.45 -2.35,-2.22 v 0 c -0.76,-0.78 -1.49,-1.57 -2.21,-2.39 -0.36,-0.4 -0.7,-0.82 -1.05,-1.23 -0.5,-0.61 -0.99,-1.24 -1.48,-1.86 -0.23,-0.32 -0.48,-0.65 -0.71,-0.96 -0.72,-0.97 -1.42,-1.94 -2.1,-2.94 -0.33,-0.49 -0.67,-0.99 -1,-1.49 -0.32,-0.5 -0.65,-1 -0.96,-1.51 -0.95,-1.51 -1.86,-3.04 -2.72,-4.59 -1.71,-3.13 -3.24,-6.35 -4.53,-9.66 -0.44,-1.1 -0.84,-2.22 -1.22,-3.33 -0.88,-2.56 -1.62,-5.19 -2.23,-7.88 -0.25,-1.12 -0.46,-2.23 -0.65,-3.36 -0.06,-0.36 -0.12,-0.73 -0.18,-1.1 -0.08,-0.48 -0.15,-0.96 -0.22,-1.44 -0.17,-1.1 -0.33,-2.22 -0.49,-3.35 -0.06,-0.46 -0.14,-0.92 -0.2,-1.38 -0.08,-0.52 -0.14,-1.02 -0.23,-1.53 -0.46,0.25 -0.95,0.45 -1.42,0.75 h -0.02 c -0.08,0.04 -0.15,0.09 -0.22,0.14 -8.1,5.42 -14.41,12.48 -18.93,21.15 -0.48,0.95 -0.86,1.92 -1.11,2.9 -0.17,0.65 -0.28,1.33 -0.34,2 -0.04,0.68 -0.04,1.36 0.01,2.05 0.02,0.21 0.04,0.4 0.08,0.61 0.02,0.15 0.03,0.29 0.06,0.45 0.05,0.3 0.11,0.61 0.15,0.92 v 0 c 0.13,0.62 0.26,1.21 0.43,1.81 -0.01,0.01 0,0.02 0.02,0.03 0.18,0.67 0.39,1.33 0.63,1.98 0.4,1.14 0.9,2.26 1.45,3.36 0.11,0.24 0.23,0.48 0.35,0.71 0.29,0.56 0.6,1.12 0.93,1.68 0.48,0.85 0.99,1.68 1.52,2.49 5.02,7.7 11.74,13.83 18.6,19.79 0.79,0.67 1.56,1.36 2.33,2.06 1.51,1.39 3,2.82 4.44,4.3 0.42,0.42 0.82,0.86 1.22,1.3 -8.47,-1.32 -17.71,-1.74 -27.28,-1.31 q 0,0 -0.01,-0.02 c -2.48,-4.37 -5.28,-8.55 -7.73,-12.95 -0.17,-0.3 -0.32,-0.59 -0.48,-0.9 -0.14,-0.28 -0.27,-0.56 -0.41,-0.84 -0.33,-0.64 -0.63,-1.31 -0.94,-1.98 -0.14,-0.32 -0.29,-0.64 -0.42,-0.98 -0.44,-0.98 -0.88,-1.99 -1.33,-3.05 q 0,0 0,-0.02 c -0.27,-0.59 -0.53,-1.21 -0.82,-1.83 -0.42,0.62 -0.78,1.15 -1.09,1.64 -0.01,0.02 -0.02,0.03 -0.03,0.04 -0.15,0.22 -0.27,0.41 -0.39,0.61 -0.06,0.1 -0.11,0.19 -0.18,0.29 -0.07,0.09 -0.13,0.19 -0.18,0.29 -0.54,0.94 -1.05,1.87 -1.56,2.81 -0.5,0.94 -1,1.88 -1.48,2.82 -2.77,5.45 -5.1,11.06 -7.02,16.79 -41.08,7.4 -81.82,28.6 -90.9,59.24 -0.47,1.63 -0.86,3.28 -1.17,4.96 -0.12,-1.72 -0.41,-3.38 -0.86,-4.96 -11.56,-40.44 -127.42,-36.67 -152.97,0 -1.27,1.83 -2.32,3.74 -3.12,5.74 0.8,-1.97 1.53,-3.88 2.2,-5.74 23.4,-65.15 -38.45,-59.32 -72.28,-10.72 -21.02,-71.95 -118.48,-55.99 -132.93,-4.93 7.46,-54.86 -30.81,-78.84 -70.14,-74.49 -0.74,-5.77 -2.19,-11.5 -4.4,-17.2 -0.09,-0.23 -0.16,-0.49 -0.24,-0.79 -0.04,-0.16 -0.09,-0.32 -0.13,-0.49 -0.01,-0.09 -0.06,-0.17 -0.09,-0.27 -0.02,-0.05 -0.02,-0.1 -0.03,-0.16 -0.01,-0.06 -0.04,-0.1 -0.05,-0.16 h -0.01 c -1.08,0.78 -1.8,1.22 -2.43,1.76 -0.94,0.81 -1.87,1.61 -2.8,2.41 -3.72,3.21 -7.42,6.45 -11.14,9.64 -2.81,2.4 -5.63,4.76 -8.5,7.06 -2.08,1.68 -4.22,3.28 -6.37,4.84 -1.44,1.04 -2.9,2.06 -4.36,3.09 -2.2,1.48 -4.41,2.98 -6.62,4.46 -0.53,0.36 -1.08,0.69 -1.66,0.98 -0.57,0.3 -1.17,0.57 -1.76,0.83 -1.17,0.52 -2.41,0.97 -3.62,1.42 -1.5,0.59 -2.99,0.77 -4.46,0.63 -1.28,-0.1 -2.55,-0.45 -3.79,-0.95 q 0,0 -0.03,0 c -0.25,-0.09 -0.5,-0.2 -0.73,-0.32 -0.13,-0.04 -0.27,-0.11 -0.38,-0.17 -0.54,-0.26 -1.02,-0.54 -1.46,-0.86 -1.09,-0.76 -1.94,-1.69 -2.53,-2.74 -0.13,-0.23 -0.25,-0.45 -0.34,-0.67 -0.19,-0.43 -0.34,-0.9 -0.44,-1.39 -0.31,-1.43 -0.25,-3.02 0.21,-4.69 1.17,-4 3.17,-7.22 5.82,-9.83 0.63,-0.63 1.3,-1.23 1.99,-1.79 0.71,-0.55 1.44,-1.08 2.21,-1.57 0.76,-0.48 1.57,-0.93 2.41,-1.37 0.83,-0.42 1.67,-0.81 2.55,-1.19 1.74,-0.71 3.55,-1.29 5.36,-1.84 1.21,-0.35 2.43,-0.7 3.65,-1.05 1.83,-0.52 3.65,-1.05 5.42,-1.69 4.73,-1.66 9.49,-3.41 13.95,-5.66 5.7,-2.88 9.78,-7.48 12.45,-13.04 0.4,-0.78 0.74,-1.6 1.07,-2.43 0.4,-1.03 0.74,-2.07 0.99,-3.13 0.02,-0.12 0.06,-0.26 0.08,-0.38 0.12,-0.5 0.22,-1.01 0.3,-1.52 0.19,-1.15 0.3,-2.33 0.32,-3.51 0,-0.29 0,-0.58 0,-0.87 -0.03,-1.48 -0.2,-2.96 -0.51,-4.43 -0.13,-0.59 -0.3,-1.19 -0.48,-1.76 -0.15,-0.49 -0.29,-0.96 -0.42,-1.44 -0.25,-0.82 -0.51,-1.63 -0.78,-2.44 -1.24,-3.88 -2.59,-7.7 -4.05,-11.51 -2.14,-5.57 -4.56,-11.02 -6.85,-16.49 -4.55,-10.85 -9.44,-21.58 -10.41,-34.58 -0.29,0.33 -0.56,0.7 -0.85,1.04 -0.09,0.11 -0.19,0.22 -0.29,0.33 -0.14,0.13 -0.28,0.26 -0.43,0.35 -2.04,1.34 -4.1,2.56 -6.19,3.67 -0.36,0.19 -0.71,0.36 -1.07,0.56 -0.33,0.18 -0.69,0.34 -1.05,0.53 -1.43,0.69 -2.87,1.34 -4.32,1.94 -1.27,0.54 -2.56,1.02 -3.85,1.5 -1.3,0.46 -2.6,0.89 -3.92,1.29 -0.67,0.19 -1.32,0.38 -1.98,0.57 -1.34,0.38 -2.67,0.7 -4.02,1.02 -0.67,0.15 -1.34,0.3 -2.02,0.44 -2.33,0.49 -4.69,0.89 -7.07,1.19 -3.56,0.48 -7.27,0.44 -10.81,-0.04 -3.32,-0.46 -5.82,0.4 -8.06,2.62 -5.66,5.56 -9.85,11.89 -11.9,19.17 -0.21,0.79 -0.39,1.55 -0.56,2.34 -0.09,0.4 -0.16,0.8 -0.23,1.21 -0.14,0.81 -0.26,1.62 -0.35,2.45 -0.1,0.83 -0.16,1.67 -0.19,2.52 -0.09,2.09 -0.13,4.19 -0.15,6.28 -0.05,6.29 0.19,12.6 0.4,18.89 0.03,1.05 0.06,2.09 0.07,3.12 0.08,7.78 -0.56,15.45 -3.18,22.91 -0.38,1.11 -0.86,2.18 -1.4,3.2 -0.37,0.68 -0.77,1.32 -1.22,1.95 -0.43,0.63 -0.94,1.22 -1.48,1.79 -0.27,0.27 -0.54,0.54 -0.84,0.81 -0.22,0.2 -0.44,0.38 -0.67,0.56 -0.22,0.18 -0.44,0.35 -0.67,0.49 -3.19,2.18 -6.32,1.89 -9.23,-1.33 -2.12,-2.35 -3.91,-5.2 -5.19,-8.09 -0.41,-0.96 -0.81,-1.93 -1.17,-2.92 -0.75,-2 -1.36,-4.05 -1.85,-6.11 -0.32,-1.37 -0.61,-2.75 -0.86,-4.15 v -0.02 c -0.23,-1.39 -0.43,-2.78 -0.58,-4.2 -0.08,-0.7 -0.13,-1.41 -0.2,-2.11 -0.07,-1.04 -0.14,-2.08 -0.19,-3.11 -0.02,-0.52 -0.03,-1.06 -0.04,-1.57 -0.06,-1.58 -0.07,-3.15 -0.05,-4.73 0.01,-0.77 0.02,-1.56 0.04,-2.35 0.02,-0.78 0.05,-1.56 0.1,-2.34 0.11,-2.34 0.28,-4.67 0.53,-6.98 0.5,-4.64 1.28,-9.26 2.39,-13.78 0.34,-1.51 0.75,-3.01 1.18,-4.49 0.98,-3.41 2.16,-6.79 3.52,-10.14 0.58,-1.38 1.18,-2.73 1.82,-4.09 0.21,-0.44 0.42,-0.88 0.64,-1.32 0.27,-0.57 0.55,-1.14 0.84,-1.71 0.65,-1.31 1.32,-2.64 2,-3.97 0.27,-0.54 0.53,-1.08 0.81,-1.64 0.3,-0.6 0.61,-1.19 0.9,-1.8 -0.68,-0.08 -1.36,-0.24 -2.09,-0.27 l -0.02,-0.02 c -0.12,0 -0.23,0 -0.34,0 -12.77,-0.26 -24.84,2.6 -36.21,8.51 -1.23,0.66 -2.36,1.42 -3.37,2.29 -0.67,0.57 -1.29,1.21 -1.86,1.89 -0.56,0.69 -1.08,1.43 -1.54,2.21 -0.13,0.23 -0.26,0.46 -0.37,0.71 -0.09,0.18 -0.18,0.34 -0.26,0.53 -0.18,0.36 -0.36,0.74 -0.53,1.1 h -0.01 c -0.32,0.76 -0.62,1.5 -0.89,2.27 -0.02,0 -0.01,0.02 -0.01,0.04 -0.31,0.86 -0.57,1.73 -0.81,2.61 -0.42,1.53 -0.73,3.1 -0.96,4.7 -0.06,0.33 -0.12,0.69 -0.16,1.02 -0.11,0.82 -0.2,1.65 -0.27,2.5 -0.11,1.27 -0.19,2.55 -0.22,3.81 -0.39,12.05 2.21,23.68 5.13,35.23 0.33,1.31 0.65,2.63 0.94,3.96 0.59,2.62 1.11,5.28 1.55,7.95 0.23,1.33 0.42,2.67 0.58,4.01 0.17,1.3 0.3,2.6 0.42,3.91 -0.48,-0.61 -0.97,-1.22 -1.47,-1.81 -0.13,-0.15 -0.26,-0.3 -0.39,-0.44 -0.13,-0.14 -0.26,-0.29 -0.39,-0.43 -0.53,-0.55 -1.11,-1.1 -1.72,-1.68 -0.33,-0.3 -0.65,-0.63 -0.99,-0.97 -0.22,0.33 -0.42,0.66 -0.63,1.02 0,0.01 0,0.02 -0.02,0.04 -0.06,0.09 -0.12,0.17 -0.18,0.27 -0.06,0.1 -0.12,0.21 -0.17,0.32 -0.3,0.46 -0.55,0.95 -0.81,1.43 -0.25,0.44 -0.47,0.88 -0.69,1.32 -0.16,0.32 -0.31,0.64 -0.45,0.96 -0.17,0.32 -0.31,0.63 -0.43,0.95 -0.09,0.17 -0.16,0.35 -0.24,0.53 -0.13,0.33 -0.28,0.68 -0.4,1.02 -0.74,1.85 -1.33,3.73 -1.8,5.65 -0.89,3.43 -1.5,6.92 -2.18,10.42 -0.46,2.43 -1,4.83 -1.64,7.21 -0.79,-0.48 -1.56,-1.11 -2.28,-1.9 -3,-3.34 -5.24,-7.16 -6.71,-11.34 -0.06,-0.17 -0.11,-0.34 -0.16,-0.51 1.82,-2.67 3.45,-5.43 4.93,-8.29 0.56,-1.1 1.1,-2.21 1.61,-3.32 0.52,-1.13 1.01,-2.26 1.47,-3.39 0.7,-1.72 1.37,-3.46 1.98,-5.23 0.1,-0.3 0.2,-0.58 0.29,-0.88 0.18,-0.56 0.34,-1.14 0.47,-1.71 0.12,-0.57 0.23,-1.14 0.32,-1.7 0.52,-3.4 0.2,-6.77 -1.02,-10.16 -0.07,-0.17 -0.14,-0.37 -0.2,-0.54 -0.2,-0.53 -0.4,-1.05 -0.61,-1.58 -0.55,-1.4 -1.16,-2.75 -1.81,-4.08 -0.64,-1.31 -1.35,-2.6 -2.1,-3.85 -2.57,-4.31 -5.7,-8.19 -9.39,-11.63 0.08,-0.98 0.15,-1.96 0.25,-2.94 0.04,-0.44 0.09,-0.87 0.16,-1.32 0.05,-0.41 0.12,-0.81 0.19,-1.2 0.12,-0.94 0.3,-1.9 0.47,-2.84 0.09,-0.45 0.17,-0.91 0.28,-1.37 0.27,-1.39 0.55,-2.8 0.87,-4.28 v -0.03 c 0.16,-0.83 0.34,-1.68 0.49,-2.57 -0.91,0.35 -1.7,0.65 -2.4,0.93 -0.03,0.02 -0.05,0.02 -0.07,0.03 -0.31,0.12 -0.59,0.23 -0.87,0.36 -0.14,0.06 -0.27,0.12 -0.41,0.18 -0.14,0.04 -0.29,0.11 -0.41,0.18 -1.28,0.59 -2.54,1.21 -3.78,1.84 -1.25,0.63 -2.49,1.27 -3.72,1.92 -3.35,1.79 -6.63,3.7 -9.83,5.72 0.27,-2.16 0.21,-4.34 -0.15,-6.53 -0.09,-0.66 -0.23,-1.32 -0.39,-1.98 -0.2,-0.82 -0.44,-1.62 -0.75,-2.4 -0.04,-0.08 -0.08,-0.18 -0.11,-0.27 -0.15,-0.36 -0.31,-0.73 -0.48,-1.08 -0.38,-0.8 -0.83,-1.59 -1.34,-2.33 -0.13,-0.19 -0.25,-0.37 -0.38,-0.55 -0.67,-0.91 -1.43,-1.76 -2.26,-2.54 -0.34,-0.32 -0.7,-0.62 -1.07,-0.9 -0.3,-0.23 -0.6,-0.47 -0.89,-0.71 -0.51,-0.4 -1.03,-0.8 -1.55,-1.19 -2.47,-1.88 -4.99,-3.68 -7.57,-5.43 -3.77,-2.54 -7.67,-4.9 -11.49,-7.32 -7.59,-4.79 -15.34,-9.37 -21.63,-17.07 -0.04,0.33 -0.04,0.68 -0.07,1.02 -0.01,0.11 -0.03,0.22 -0.04,0.33 -0.03,0.14 -0.07,0.28 -0.12,0.41 -0.68,1.72 -1.44,3.39 -2.27,5 -0.14,0.28 -0.28,0.53 -0.42,0.81 -0.13,0.26 -0.28,0.52 -0.42,0.8 -0.59,1.05 -1.21,2.09 -1.86,3.1 -0.56,0.89 -1.16,1.76 -1.75,2.62 -0.61,0.85 -1.24,1.69 -1.89,2.52 -0.33,0.41 -0.65,0.81 -0.99,1.22 -0.67,0.82 -1.36,1.61 -2.07,2.39 -0.35,0.39 -0.71,0.78 -1.07,1.17 -1.24,1.32 -2.54,2.6 -3.9,3.83 -2.02,1.85 -4.35,3.45 -6.78,4.7 -2.28,1.16 -3.46,2.79 -3.89,5.16 -1.12,5.95 -0.97,11.74 0.93,17.19 0.22,0.59 0.44,1.14 0.67,1.71 0.12,0.29 0.25,0.57 0.39,0.86 0.26,0.57 0.54,1.13 0.85,1.68 0.3,0.57 0.63,1.12 0.98,1.66 0.86,1.35 1.75,2.68 2.65,4 2.72,3.96 5.63,7.8 8.51,11.64 0.48,0.65 0.95,1.28 1.41,1.92 3.45,4.83 6.4,9.91 8.02,15.72 0.25,0.86 0.42,1.74 0.53,2.61 0.07,0.59 0.09,1.17 0.08,1.76 0.01,0.58 -0.05,1.17 -0.14,1.76 -0.05,0.29 -0.1,0.58 -0.17,0.88 -0.05,0.22 -0.11,0.43 -0.17,0.64 -0.06,0.21 -0.13,0.41 -0.21,0.6 -1.05,2.76 -3.13,3.94 -6.35,3.2 -2.36,-0.54 -4.72,-1.54 -6.79,-2.79 -0.67,-0.42 -1.35,-0.85 -2,-1.32 -1.34,-0.92 -2.62,-1.93 -3.83,-3.01 -0.8,-0.72 -1.59,-1.45 -2.35,-2.22 v 0 c -0.76,-0.78 -1.49,-1.57 -2.21,-2.39 -0.36,-0.4 -0.7,-0.82 -1.05,-1.23 -0.5,-0.61 -0.99,-1.24 -1.48,-1.86 -0.23,-0.32 -0.48,-0.65 -0.71,-0.96 -0.72,-0.97 -1.42,-1.94 -2.1,-2.94 -0.33,-0.49 -0.67,-0.99 -1,-1.49 -0.32,-0.5 -0.65,-1 -0.96,-1.51 -0.95,-1.51 -1.86,-3.04 -2.72,-4.59 -1.71,-3.13 -3.24,-6.35 -4.53,-9.66 -0.44,-1.1 -0.84,-2.22 -1.22,-3.33 -0.88,-2.56 -1.62,-5.19 -2.23,-7.88 -0.25,-1.12 -0.46,-2.23 -0.65,-3.36 -0.06,-0.36 -0.12,-0.73 -0.18,-1.1 -0.08,-0.48 -0.15,-0.96 -0.22,-1.44 -0.17,-1.1 -0.33,-2.22 -0.49,-3.35 -0.06,-0.46 -0.14,-0.92 -0.2,-1.38 -0.08,-0.52 -0.14,-1.02 -0.23,-1.53 -0.46,0.25 -0.95,0.45 -1.42,0.75 h -0.02 c -0.08,0.04 -0.15,0.09 -0.22,0.14 -8.1,5.42 -14.41,12.48 -18.93,21.15 -0.48,0.95 -0.86,1.92 -1.11,2.9 -0.17,0.65 -0.28,1.33 -0.34,2 -0.04,0.68 -0.04,1.36 0.01,2.05 0.02,0.21 0.04,0.4 0.08,0.61 0.02,0.15 0.03,0.29 0.06,0.45 0.05,0.3 0.11,0.61 0.15,0.92 v 0 c 0.13,0.62 0.26,1.21 0.43,1.81 -0.01,0.01 0,0.02 0.02,0.03 0.18,0.67 0.39,1.33 0.63,1.98 0.4,1.14 0.9,2.26 1.45,3.36 0.11,0.24 0.23,0.48 0.35,0.71 0.29,0.56 0.6,1.12 0.93,1.68 0.48,0.85 0.99,1.68 1.52,2.49 5.02,7.7 11.73,13.83 18.6,19.79 0.79,0.67 1.56,1.36 2.33,2.06 1.51,1.39 3,2.82 4.44,4.3 0.72,0.73 1.44,1.49 2.12,2.25 1.66,1.83 3.26,3.73 4.78,5.71 0.66,0.85 1.28,1.75 1.83,2.66 0.19,0.31 0.37,0.62 0.55,0.93 0.34,0.61 0.65,1.25 0.93,1.9 0.6,1.36 1.06,2.8 1.32,4.3 0.24,1.32 0.28,2.79 0.03,4.1 -0.04,0.19 -0.07,0.38 -0.12,0.58 -0.02,0.13 -0.06,0.25 -0.1,0.38 -0.04,0.1 -0.07,0.21 -0.1,0.31 -0.06,0.19 -0.13,0.37 -0.21,0.54 -0.05,0.11 -0.1,0.23 -0.17,0.34 -0.02,0.06 -0.04,0.09 -0.07,0.14 -0.09,0.15 -0.18,0.31 -0.27,0.45 -0.02,0.04 -0.05,0.09 -0.07,0.13 -0.15,0.23 -0.33,0.44 -0.52,0.62 -0.08,0.11 -0.18,0.19 -0.27,0.27 -0.03,0.04 -0.07,0.08 -0.11,0.1 -0.1,0.1 -0.22,0.2 -0.33,0.28 -0.13,0.09 -0.24,0.17 -0.37,0.23 -0.18,0.12 -0.37,0.23 -0.57,0.32 -0.33,0.15 -0.68,0.27 -1.04,0.36 h -0.01 c -0.27,0.07 -0.56,0.12 -0.87,0.13 -0.74,0.07 -1.54,0 -2.38,-0.19 -3.33,-0.77 -6.41,-2.18 -9.15,-4.15 -0.4,-0.29 -0.78,-0.58 -1.15,-0.88 -0.48,-0.39 -0.97,-0.78 -1.43,-1.18 -0.48,-0.4 -0.97,-0.8 -1.44,-1.2 -0.75,-0.65 -1.51,-1.31 -2.26,-1.97 -5.66,-5.1 -10.77,-10.75 -14.62,-17.49 -2.48,-4.37 -5.28,-8.55 -7.73,-12.95 -0.17,-0.3 -0.32,-0.59 -0.48,-0.9 -0.14,-0.28 -0.27,-0.56 -0.41,-0.84 -0.33,-0.64 -0.63,-1.31 -0.94,-1.98 -0.14,-0.32 -0.29,-0.64 -0.42,-0.98 -0.44,-0.98 -0.88,-1.99 -1.33,-3.05 q 0,0 0,-0.02 c -0.27,-0.59 -0.53,-1.21 -0.82,-1.83 -0.42,0.62 -0.78,1.15 -1.09,1.64 -0.01,0.02 -0.02,0.03 -0.03,0.04 -0.15,0.22 -0.27,0.41 -0.39,0.61 -0.06,0.1 -0.11,0.19 -0.18,0.29 -0.07,0.09 -0.13,0.19 -0.18,0.29 -0.54,0.94 -1.05,1.87 -1.56,2.81 -0.5,0.94 -1,1.88 -1.48,2.82 -2.72,5.36 -5.02,10.87 -6.93,16.51 V 3263.06 H 1530 V 235.4 c -13.02,18.48 -35.49,28.22 -56.42,22.24 -1.6,-0.46 -2.22,-2.43 -1.13,-3.7 15.44,-17.9 37.29,-24.23 57.55,-34.97 z m -306.09,28.43 c -0.34,0.2 -0.88,0.59 -1.47,0.9 -0.38,0.2 -0.75,0.35 -1.1,0.46 -1.51,-1.7 -3.1,-3.29 -4.79,-4.76 0.01,-2.24 0.76,-4.29 2.28,-6.06 0.26,-0.3 0.55,-0.56 0.84,-0.79 1.2,3.33 2.86,6.52 4.96,9.49 -0.23,0.25 -0.47,0.51 -0.72,0.76 z m 17.9,42.19 c -2.06,-1.01 -4.1,-2.15 -6.14,-3.42 -0.25,-4.61 -0.87,-8.95 -1.84,-12.99 0.01,-0.02 0.02,-0.04 0.04,-0.07 0.16,-0.28 0.31,-0.54 0.45,-0.81 0.14,-0.28 0.28,-0.56 0.43,-0.83 0.75,-1.47 1.41,-2.95 1.99,-4.46 0.87,-2.27 1.57,-4.58 2.11,-6.94 0.05,-0.24 0.1,-0.47 0.15,-0.7 1.91,1.08 3.93,2.07 6.08,2.93 7.76,3.13 16.43,4.11 25.15,4.83 -11.64,5.03 -21.71,12.72 -28.42,22.46 z m 139.91,-13.87 c -5.68,5.64 -12.18,7.9 -19.37,3.26 -1.21,-0.79 -1.71,-5.6 -0.82,-6.26 6.44,-4.82 12.95,-3.92 19.3,-0.5 0.79,0.42 1.26,1.27 1.21,2.17 -0.03,0.63 -0.07,1.09 -0.32,1.33 z m 28.75,-42.83 c 2.24,-8.07 8.4,-10.92 16.37,-12.06 1.43,-0.21 2.67,0.98 2.59,2.43 -0.68,11.13 -4.96,16.59 -12.12,15.59 -2.64,-0.37 -7.21,-4.62 -6.84,-5.96 z m 24.65,24.81 c -3.6,7.59 -8.19,9.56 -16.12,6.92 -1.31,-0.44 -1.94,-1.94 -1.35,-3.18 3.7,-7.68 8.37,-9.68 16.17,-6.9 1.28,0.46 1.88,1.93 1.3,3.16 z m 44.64,39.21 c -7.44,2.1 -14.34,4.74 -20.37,7.9 -1.3,-1.05 -2.57,-2.24 -3.78,-3.59 -1.3,-1.44 -0.28,-3.75 1.66,-3.8 7.52,-0.2 15.01,-0.33 22.49,-0.51 z"
     id="path470"
     clip-path="url(#clipPath501)"
     transform="translate(-0.05,-0.00305871)" />
</svg>
