<?xml version="1.0" encoding="UTF-8" standalone="no"?>
<svg
   id="FAQs_back"
   viewBox="0 0 1533.8381 497.73332"
   version="1.1"
   sodipodi:docname="grass4.svg"
   inkscape:version="1.2.2 (732a01da63, 2022-12-09)"
   xmlns:inkscape="http://www.inkscape.org/namespaces/inkscape"
   xmlns:sodipodi="http://sodipodi.sourceforge.net/DTD/sodipodi-0.dtd"
   xmlns="http://www.w3.org/2000/svg"
   xmlns:svg="http://www.w3.org/2000/svg">
  <sodipodi:namedview
     id="namedview225"
     pagecolor="#ffffff"
     bordercolor="#000000"
     borderopacity="0.25"
     inkscape:showpageshadow="2"
     inkscape:pageopacity="0.0"
     inkscape:pagecheckerboard="0"
     inkscape:deskcolor="#d1d1d1"
     showgrid="false"
     inkscape:zoom="0.76279235"
     inkscape:cx="766.91907"
     inkscape:cy="249.08483"
     inkscape:window-width="1920"
     inkscape:window-height="1017"
     inkscape:window-x="1912"
     inkscape:window-y="-8"
     inkscape:window-maximized="1"
     inkscape:current-layer="FAQs_back" />
  <defs
     id="defs220">
    <style
       id="style218">.cls-1{fill:#485b41;}</style>
    <clipPath
       clipPathUnits="userSpaceOnUse"
       id="clipPath229">
      <rect
         style="fill:#000000"
         id="rect231"
         width="1712.9749"
         height="529.9516"
         x="-51.746117"
         y="-32.118279" />
    </clipPath>
  </defs>
  <path
     class="cls-1"
     d="m 1437.71,339.58 c 13.21,-4.51 26.56,-8.61 39.8,-13.01 13.04,-4.34 25.45,-9.94 36.25,-18.67 9.37,-7.57 15.61,-17.07 18.14,-28.93 0.58,-2.74 1.32,-5.44 2,-8.23 -2.31,-0.98 -4.3,-0.21 -5.34,1.94 -5.97,12.36 -16.74,18.39 -29.13,22.25 -10.72,3.34 -21.55,6.31 -32.25,9.69 -13.34,4.21 -24.92,11.11 -33.56,23.41 -0.51,-7.63 1.7,-13.62 6.92,-18.01 4.45,-3.74 9.28,-7.25 14.44,-9.89 13.9,-7.11 28,-13.85 42.15,-20.44 12.46,-5.8 20.66,-15.36 25.95,-27.77 2.36,-5.55 0.93,-12.56 -3.45,-16.45 -1.25,-1.11 -2.26,-1.11 -2.93,0.54 -4.97,12.16 -15.22,18.05 -26.65,22.62 -8.16,3.26 -16.25,6.69 -24.4,9.96 -13.4,5.37 -24.26,13.67 -31.17,27.45 -0.27,-1.28 -0.45,-1.93 -0.54,-2.6 -0.1,-0.77 -0.14,-1.56 -0.19,-2.34 -0.3,-4.77 -0.76,-9.54 -0.85,-14.32 -0.11,-5.72 2.72,-9.99 7.68,-12.55 12.33,-6.33 24.85,-12.29 37.13,-18.71 8.89,-4.65 17.8,-9.38 26.19,-14.87 9.62,-6.29 12.75,-17.81 8.23,-27.24 -0.85,-1.78 -2.14,-3.34 -3.56,-5.5 -1.89,2.78 -3.5,4.95 -4.89,7.25 -3.5,5.8 -8.4,10.06 -14.48,12.81 -8.44,3.82 -16.81,7.96 -25.57,10.84 -10.78,3.55 -20.26,9.06 -29.18,15.83 -1.08,0.82 -2.23,1.56 -3.32,2.33 -3.83,-3.98 -4.23,-11.26 -0.45,-15.26 2.23,-2.36 5.01,-4.38 7.88,-5.93 12.79,-6.91 25.94,-13.19 38.51,-20.46 17.74,-10.26 25.19,-27.17 21.47,-46.93 -0.51,-2.73 -1.6,-5.35 -2.42,-8.02 l -0.8,-0.08 c -0.65,1.35 -1.72,2.64 -1.89,4.05 -1.45,11.76 -8.04,20.17 -17.46,26.55 -10.18,6.89 -20.83,13.11 -30.84,20.23 -5.34,3.8 -9.79,8.87 -14.61,13.39 -1.11,1.04 -2.11,2.2 -3.19,3.33 -5.09,-8.83 -3.51,-21.8 4.39,-29.66 6.84,-6.8 14.44,-12.82 21.73,-19.17 6.69,-5.84 13.66,-11.39 20.04,-17.55 6.27,-6.05 9.1,-13.77 8.38,-22.6 -0.55,-6.67 -4.82,-10.49 -11.41,-9.97 0.7,9.37 -5.19,14.71 -12.15,19.43 -9.63,6.53 -19.24,13.14 -26.44,22.49 -2.89,3.76 -5.26,7.93 -7.78,11.79 0,0 0.59,-32.64 2.97,-32.88 9.4,-0.95 24.72,-13.77 28.34,-18.34 7.24,-9.14 9.33,-26.1 0.92,-26.96 6.47,15.49 -15.68,14.3 -31.19,33.72 -0.1,-0.68 4.27,-17.53 7.47,-22.04 4.2,-5.92 6.82,-12.67 6.44,-20.02 -0.71,-13.69 -7.3,-46.73 -14.41,-49.43 -1.8,4.74 -4.77,40.14 -3.28,53.93 0.66,6.12 1.83,12.2 2.06,18.33 0.18,4.78 -2.75,17.22 -3.24,22.77 -2.5,-17.22 -25.38,-33.15 -33.43,-45.25 -8.59,20.24 11.42,40.94 19.06,47.01 12.4,9.85 17.86,26.53 12.62,40.32 -4.08,-3.31 -8.1,-6.53 -12.07,-9.81 -7.3,-6.03 -14.57,-12.12 -21.87,-18.16 -10.33,-8.55 -16.44,-18.8 -12.92,-33.24 -6.97,1.86 -11.53,5.9 -14.59,11.73 -4.24,8.06 -3.73,16.91 2.64,23.35 7.46,7.54 15.51,14.58 23.84,21.17 8.79,6.95 18.19,13.12 27.34,19.62 7.56,5.37 10.7,12.92 10.88,21.93 0.04,1.74 -0.11,3.48 -0.17,5.29 -3.73,-2.99 -6.97,-6.58 -11,-8.62 -7.97,-4.05 -16.37,-7.27 -24.61,-10.78 -7.26,-3.1 -14.59,-6.06 -21.81,-9.25 -5.51,-2.43 -9.68,-6.49 -12.98,-11.51 -1.28,-1.95 -2.72,-3.81 -4.17,-5.83 -0.44,0.28 -0.81,0.41 -1.02,0.68 -0.92,1.17 -1.7,2.41 -2.34,3.7 -0.21,-0.13 -0.42,-0.26 -0.64,-0.38 -4.52,8.24 -12.37,9.51 -20.77,9.67 -11.63,0.23 -23.3,0.53 -34.43,4.45 -4.47,1.58 -8.73,3.78 -12.95,5.64 0,0 18.28,-27.05 20.41,-25.96 8.4,4.33 28.23,1.92 33.76,0.06 11.05,-3.72 22.05,-16.8 15.46,-22.11 -3.01,16.51 -20.94,3.45 -44.53,11.28 0.29,-0.62 13.13,-12.37 18.28,-14.41 6.75,-2.68 12.63,-6.91 16.31,-13.28 6.87,-11.87 19.34,-43.16 14.85,-49.3 -4.09,2.99 -25.87,31.06 -32.13,43.43 -2.78,5.49 -5.12,11.23 -8.26,16.49 -2.46,4.11 -11.69,12.94 -15.13,17.33 7.29,-15.8 -3.22,-41.62 -3.38,-56.16 -18.23,12.29 -12.73,40.55 -9.63,49.8 5.03,15.01 0.53,31.97 -11.39,40.69 -1.62,-5 -3.24,-9.89 -4.78,-14.8 -2.84,-9.04 -5.61,-18.1 -8.44,-27.14 -4,-12.8 -3.55,-24.72 7.28,-34.91 -6.86,-2.24 -12.88,-1.33 -18.62,1.88 -7.95,4.45 -12.34,12.15 -10.51,21.02 2.15,10.39 5.07,20.68 8.46,30.74 3.58,10.62 8.1,20.92 12.24,31.35 3.41,8.62 1.94,16.67 -2.82,24.32 -0.92,1.48 -1.99,2.86 -3.02,4.34 -1.5,-4.54 -2.26,-9.31 -4.53,-13.22 -4.48,-7.74 -9.77,-15.01 -14.76,-22.45 -4.4,-6.56 -8.93,-13.03 -13.25,-19.64 -3.3,-5.04 -4.58,-10.72 -4.61,-16.72 -0.01,-2.34 -0.2,-4.67 -0.32,-7.16 -0.52,0 -0.91,-0.1 -1.23,0 -11.07,3.72 -17.15,16.22 -13.39,27.23 4.82,14.09 12.96,26.13 22.4,37.48 5.99,7.2 11.54,14.76 17.23,22.2 4.26,5.56 4.72,11.29 0.86,17.37 -1.96,3.09 -3.47,6.46 -5.59,10.48 -0.47,-1.97 -0.83,-3.14 -1.02,-4.34 -2.49,-15.19 -9.76,-27.93 -20.31,-38.86 -10.72,-11.1 -21.64,-21.99 -32.47,-32.97 -0.21,-0.21 -0.42,-0.41 -0.83,-0.81 -3.99,7.92 -4.26,15.61 -0.62,23.31 6.35,13.46 15.21,25.15 25.26,36.07 5.53,6.02 10.56,12.54 15.5,19.06 5.56,7.35 5.95,15.28 1.49,23.36 -2.16,3.91 -4.47,7.74 -7.45,11.51 -0.11,-1.46 -0.27,-2.92 -0.31,-4.38 -0.39,-14.42 -6.1,-26.91 -14.19,-38.46 -4.25,-6.07 -8.71,-12.02 -13.37,-17.78 -8.27,-10.24 -14.68,-21.62 -20.9,-33.14 -0.55,-1.02 -1.15,-2.02 -1.73,-3.02 -6.52,3.13 -10.2,12.83 -6.77,20.31 3.39,7.41 7.58,14.54 12.12,21.32 7.92,11.84 16.58,23.19 24.53,35.01 3.46,5.14 6.57,10.71 8.74,16.5 0.96,2.56 1.61,5.08 1.96,7.56 -5.69,-2.41 -11.83,-3.98 -18.19,-4.76 -2.27,-3.73 -4.84,-7.29 -7.44,-10.82 -4.75,-6.44 -9.66,-12.77 -14.56,-19.09 -8.74,-11.25 -16.16,-23.06 -16.61,-38.25 -3.41,1.29 -5.66,3.48 -7.45,6.14 -5.48,8.11 -6.02,16.92 -3.45,26.11 2.32,8.32 6.39,15.74 11.94,22.29 4.15,4.88 8.32,9.74 12.49,14.6 -3.79,0.73 -7.57,1.72 -11.29,2.98 -4.71,-6.1 -9.45,-12.18 -14,-18.39 -6.15,-8.42 -10.44,-17.67 -10.13,-28.45 0.06,-2.23 0.53,-4.45 0.73,-6.68 0.1,-1.09 0.02,-2.2 0.03,-3.65 -4.44,1.37 -7.14,4.16 -9.39,7.34 -4.62,6.52 -6.31,13.57 -4.41,21.62 3.3,13.97 10.75,25.47 19.35,36.55 -3.22,1.97 -6.33,4.17 -9.3,6.59 -1.39,-2.31 -2.79,-4.63 -4.17,-6.95 -3.7,-6.24 -7.04,-12.68 -7.47,-20.13 -0.15,-2.69 0.06,-5.4 0.11,-8.11 -8.09,0.44 -15.37,9.5 -14.12,17.64 1.36,8.9 4.47,17.17 9.22,24.82 1.19,1.92 2.39,3.84 3.59,5.76 -1.82,2.3 -3.54,4.71 -5.13,7.25 -2.54,-5.08 -5.08,-10.17 -7.62,-15.25 -0.21,-0.42 -0.47,-0.83 -1.04,-1.81 -1.58,2.2 -3.21,3.99 -4.29,6.06 -2.02,3.91 -3.3,7.81 -3.89,11.68 -4.57,-3.02 -10.15,-4.77 -15.97,-5.23 2.24,-2.17 4.25,-4.74 5.98,-7.7 1.01,-1.72 1.65,-3.65 2.47,-5.48 -0.13,-0.14 -0.26,-0.28 -0.39,-0.42 -0.99,0.42 -2.17,0.62 -2.93,1.3 -6.33,5.69 -13.86,7.14 -21.97,6.15 -8.76,-1.07 -17.46,-2.72 -26.24,-3.58 -4.68,-0.46 -9.48,0.19 -14.22,0.37 -1.09,0.04 -2.18,0.2 -3.3,0.3 1.4,-7.18 8.37,-13.46 16.35,-13.99 6.91,-0.46 13.87,-0.14 20.8,-0.15 6.38,0 12.77,0.27 19.13,-0.07 6.25,-0.33 11.42,-3.17 15.19,-8.29 2.85,-3.87 2.33,-7.95 -1.49,-10.78 -4.04,5.4 -9.74,5.52 -15.73,4.8 -8.29,-1 -16.62,-1.95 -24.92,-0.28 -3.34,0.67 -6.58,1.82 -9.77,2.72 4.38,-9.01 12.27,-13.28 22.28,-12.04 2.08,0.26 4.21,0.47 6.29,0.34 4.19,-0.28 8.42,-0.52 12.53,-1.29 8.23,-1.54 12.7,-11.55 8.81,-19.27 -0.12,0.02 -0.31,0 -0.36,0.07 -3.1,4.52 -7.62,6.14 -12.85,6.41 -3.43,0.18 -6.85,0.48 -10.28,0.65 -0.51,0.03 -1.04,-0.38 -1.56,-0.59 0.27,-0.41 0.44,-0.95 0.82,-1.22 3.13,-2.28 6.42,-4.14 10.28,-5.07 5.06,-1.23 9.67,-3.65 12.93,-7.81 6.07,-7.75 13.61,-13.91 21.03,-20.23 0.57,-0.49 1.12,-1 1.97,-1.76 -4.16,-1.21 -7.97,-0.84 -11.73,-0.06 -9.97,2.06 -17.29,7.98 -22.98,16.15 -2.53,3.62 -4.76,7.47 -7.52,10.9 -2.16,2.68 -4.92,4.86 -7.81,7.63 0.54,-6.89 0.89,-13.02 1.53,-19.12 0.55,-5.18 2.4,-9.91 6.21,-13.71 -5.88,-3.06 -18.24,-0.35 -20.56,9.5 -1.59,6.78 -1.76,13.78 -0.48,20.67 2.08,11.18 -2.82,22.78 -12.17,27.79 -0.65,-3.72 -1.31,-7.35 -1.92,-11 -1.11,-6.71 -2.18,-13.43 -3.29,-20.14 -1.57,-9.5 -0.05,-17.93 8.67,-24.09 -4.66,-2.28 -9.03,-2.24 -13.43,-0.52 -6.09,2.37 -9.99,7.4 -9.57,13.89 0.49,7.6 1.53,15.21 2.94,22.7 1.48,7.91 3.67,15.68 5.56,23.51 1.56,6.47 -0.29,12.04 -4.44,17.01 -0.8,0.96 -1.7,1.83 -2.58,2.78 -0.61,-3.38 -0.68,-6.85 -1.9,-9.85 -2.41,-5.95 -5.44,-11.65 -8.25,-17.44 -2.47,-5.1 -5.05,-10.16 -7.46,-15.29 -1.84,-3.92 -2.19,-8.08 -1.61,-12.35 0.22,-1.66 0.32,-3.34 0.49,-5.12 -0.37,-0.05 -0.63,-0.16 -0.87,-0.12 -8.25,1.54 -13.82,9.82 -12.24,18.02 2.02,10.5 6.6,19.87 12.18,28.88 3.54,5.72 6.73,11.65 10.03,17.51 0.35,0.62 0.64,1.23 0.88,1.84 -3.74,-1.82 -7.63,-3.35 -11.6,-4.59 -1.67,-3.74 -3.77,-7.33 -6.27,-10.76 -6.51,-8.96 -13.19,-17.8 -19.79,-26.69 -0.13,-0.17 -0.26,-0.33 -0.51,-0.66 -3.63,5.23 -4.59,10.67 -2.77,16.51 1.94,6.25 4.63,12.12 7.8,17.75 -2.69,-0.12 -5.35,-0.11 -7.94,0.05 -1.03,-1.91 -2,-3.85 -2.91,-5.82 0.32,-1.15 0.51,-2.34 0.54,-3.56 0.04,-1.41 -0.28,-2.84 -0.48,-4.68 -1.07,0.59 -2.04,1.1 -2.95,1.59 -1.27,-3.11 -2.46,-6.25 -3.63,-9.4 -0.26,-0.69 -0.54,-1.38 -0.82,-2.06 6.64,-3.9 11.41,-10.27 13.88,-18.68 0.56,-1.91 0.72,-3.94 1.07,-5.92 -0.16,-0.1 -0.32,-0.21 -0.48,-0.31 -0.86,0.65 -1.96,1.13 -2.53,1.97 -4.77,7.05 -11.73,10.28 -19.83,11.27 -8.76,1.08 -17.6,1.58 -26.32,2.87 -4.66,0.68 -9.15,2.47 -13.72,3.79 -1.05,0.3 -2.07,0.72 -3.13,1.09 -0.38,-7.31 4.87,-15.08 12.49,-17.53 6.59,-2.12 13.42,-3.48 20.15,-5.17 6.19,-1.55 12.45,-2.82 18.54,-4.68 5.98,-1.83 10.31,-5.83 12.73,-11.71 1.83,-4.44 0.34,-8.28 -4.05,-10.1 -2.61,6.22 -8.12,7.71 -14.11,8.46 -8.29,1.03 -16.59,2.12 -24.25,5.75 -3.08,1.46 -5.95,3.35 -8.82,5 2.07,-9.8 8.7,-15.85 18.71,-17.06 2.08,-0.25 4.2,-0.56 6.18,-1.19 4,-1.28 8.04,-2.54 11.85,-4.28 7.61,-3.48 9.53,-14.27 3.89,-20.82 -0.11,0.05 -0.3,0.07 -0.33,0.16 -1.92,5.13 -5.91,7.8 -10.92,9.32 -3.29,1 -6.53,2.12 -9.82,3.12 -0.49,0.15 -1.1,-0.12 -1.65,-0.19 0.16,-0.47 0.2,-1.03 0.5,-1.38 2.49,-2.97 5.23,-5.56 8.75,-7.41 4.62,-2.42 8.5,-5.88 10.66,-10.7 4.02,-8.99 9.84,-16.79 15.52,-24.71 0.44,-0.61 0.85,-1.25 1.49,-2.19 -4.33,-0.16 -7.94,1.11 -11.39,2.77 -9.18,4.41 -14.85,11.92 -18.4,21.22 -1.58,4.13 -2.81,8.4 -4.67,12.39 -1.45,3.12 -3.61,5.9 -5.73,9.29 -1.14,-6.82 -2.28,-12.85 -3.13,-18.92 -0.72,-5.16 -0.07,-10.19 2.71,-14.8 -6.45,-1.55 -17.78,4.06 -17.65,14.19 0.09,6.96 1.62,13.8 4.53,20.18 4.71,10.34 2.76,22.79 -5.09,29.9 -1.53,-3.45 -3.05,-6.82 -4.52,-10.21 -2.7,-6.24 -5.36,-12.5 -8.05,-18.75 -3.81,-8.84 -4.38,-17.39 2.59,-25.47 -5.07,-1.09 -9.3,0.01 -13.16,2.74 -5.34,3.77 -7.91,9.59 -5.93,15.79 2.31,7.26 5.16,14.39 8.34,21.32 3.35,7.31 7.35,14.33 11.08,21.47 3.08,5.9 2.63,11.76 -0.2,17.58 -0.54,1.12 -1.2,2.19 -1.84,3.32 -1.41,-3.13 -2.31,-6.48 -4.22,-9.1 -3.78,-5.19 -8.09,-9.99 -12.21,-14.93 -3.63,-4.35 -7.35,-8.64 -10.93,-13.03 -2.73,-3.36 -4.07,-7.31 -4.54,-11.59 -0.18,-1.67 -0.49,-3.32 -0.76,-5.09 -0.37,0.04 -0.65,0 -0.87,0.1 -7.63,3.48 -11.04,12.86 -7.52,20.44 4.5,9.7 11.21,17.69 18.79,25.09 4.81,4.69 9.34,9.68 13.96,14.56 3.46,3.66 4.22,7.71 1.91,12.34 -1.17,2.35 -1.99,4.88 -3.21,7.9 -0.48,-1.37 -0.82,-2.18 -1.05,-3.02 -2.91,-10.66 -9.05,-19.21 -17.41,-26.23 -8.48,-7.12 -17.09,-14.09 -25.65,-21.12 -0.16,-0.13 -0.33,-0.26 -0.65,-0.51 -2.25,5.95 -1.87,11.46 1.3,16.69 5.54,9.14 12.74,16.82 20.73,23.87 4.4,3.88 8.47,8.16 12.49,12.45 3.39,3.62 4.73,7.7 4.09,12.09 -2.83,0.32 -5.68,0.71 -8.52,1.16 -2.36,-6.42 -6.18,-12.12 -10.78,-17.42 -3.49,-4.02 -7.12,-7.93 -10.88,-11.7 -6.67,-6.69 -12.1,-14.34 -17.4,-22.1 -0.47,-0.69 -0.97,-1.35 -1.46,-2.02 -4.42,2.72 -6.32,9.93 -3.32,15.01 2.98,5.04 6.5,9.81 10.25,14.32 6.54,7.86 13.57,15.32 20.13,23.17 0.78,0.93 1.54,1.89 2.28,2.87 -4.42,0.98 -8.81,2.12 -13.14,3.41 -3.61,-3.93 -7.3,-7.8 -11,-11.65 -7.08,-7.38 -13.26,-15.26 -14.72,-26.07 -2.34,1.17 -3.78,2.91 -4.86,4.94 -3.3,6.2 -3.03,12.53 -0.52,18.9 2.28,5.76 5.73,10.76 10.19,15.02 1.58,1.51 3.18,3.01 4.77,4.52 -2.44,0.99 -4.83,2.04 -7.18,3.13 -2.29,-2.4 -4.56,-4.82 -6.79,-7.27 -5.02,-5.55 -8.78,-11.84 -9.36,-19.55 -0.12,-1.6 0.05,-3.22 0.03,-4.82 -0.01,-0.79 -0.15,-1.58 -0.25,-2.61 -3.06,1.31 -4.79,3.51 -6.16,5.94 -2.81,5 -3.49,10.16 -1.53,15.77 2.56,7.32 6.7,13.47 11.56,19.16 -2.15,1.29 -4.24,2.63 -6.25,4.01 -2.45,-3.51 -4.53,-7.23 -5.24,-11.59 -0.31,-1.91 -0.36,-3.86 -0.53,-5.8 -5.74,0.92 -10.27,7.93 -8.77,13.65 1.06,4.06 2.64,7.87 4.69,11.44 -1.3,1.17 -2.56,2.37 -3.76,3.59 -0.03,-0.04 -0.05,-0.07 -0.09,-0.12 -0.11,0.19 -0.22,0.37 -0.33,0.55 -6.71,6.95 -11.67,14.71 -14.18,23.2 -0.47,1.63 -0.86,3.28 -1.17,4.96 -0.12,-1.72 -0.41,-3.38 -0.86,-4.96 -11.09,-38.8 -118.16,-36.9 -149.4,-4.3 3.32,-4.88 6.63,-9.76 9.66,-14.82 4.69,-7.83 3.69,-17.83 -1.69,-24.43 -0.41,-0.5 -1.11,-0.76 -1.68,-1.13 -0.16,0.65 -0.59,1.37 -0.45,1.95 0.84,3.56 -0.32,6.62 -1.95,9.69 -1.04,1.95 -2.13,3.86 -3.28,5.73 -0.38,-6.57 -2.39,-11.51 -5.6,-14.91 0.78,-2.36 1.41,-4.78 1.84,-7.29 1.41,-8.35 -1.91,-15.6 -8.63,-18.59 -1.09,-0.48 -2.32,-0.73 -3.5,-0.9 -1.25,-0.17 -1.67,0.52 -1,1.59 4.33,6.86 3.02,13.34 -0.88,19.55 -4.03,-0.44 -8.54,0 -13.32,1.3 3.25,-7.08 5.72,-14.43 6.61,-22.29 0.94,-8.3 -0.6,-16.03 -5.13,-23.12 -1.05,-1.64 -2,-3.33 -3.02,-5.03 -1.62,0.64 -2.23,1.99 -1.69,3.55 3.07,9.01 0.69,17.23 -3.55,25.16 -3.67,6.86 -7.57,13.6 -11.21,20.48 -2.18,4.11 -3.84,8.33 -4.81,12.74 -1.94,1.42 -3.87,2.96 -5.78,4.6 -0.01,-0.56 0,-1.13 0.06,-1.71 0.37,-4.01 1.05,-8.1 2.31,-11.91 3.4,-10.28 7.08,-20.47 10.86,-30.61 3.33,-8.93 2.73,-17.64 -0.7,-26.34 -1.53,-3.89 -5.66,-6.65 -9.71,-6.44 -1.16,0.06 -1.66,0.55 -1.19,1.69 3.46,8.42 1.27,16.32 -2.15,24.14 -2.44,5.58 -4.77,11.21 -7.2,16.79 -4,9.18 -5.32,18.56 -2.03,28.73 -0.76,-0.5 -1.16,-0.73 -1.53,-1.02 -0.43,-0.33 -0.83,-0.7 -1.23,-1.06 -2.47,-2.21 -5.02,-4.34 -7.39,-6.66 -2.84,-2.77 -3.52,-6.26 -2.31,-9.93 3,-9.13 6.29,-18.16 9.22,-27.31 2.13,-6.63 4.22,-13.3 5.7,-20.09 1.69,-7.79 -2.38,-15 -9.19,-17.45 -1.29,-0.46 -2.69,-0.61 -4.44,-0.99 0.42,2.29 0.68,4.15 1.12,5.96 1.09,4.57 0.75,9.05 -0.91,13.38 -2.31,5.99 -4.43,12.11 -7.35,17.8 -3.6,7 -5.59,14.34 -6.7,22.02 -0.14,0.93 -0.34,1.85 -0.51,2.77 -3.83,-0.1 -7.57,-3.5 -7.65,-7.32 -0.05,-2.25 0.34,-4.6 1,-6.76 2.95,-9.64 6.38,-19.14 9.06,-28.85 3.77,-13.7 -0.79,-25.68 -12.25,-33.62 -1.58,-1.1 -3.39,-1.86 -5.1,-2.78 -0.14,0.12 -0.29,0.23 -0.43,0.35 0.33,0.98 0.44,2.14 1.04,2.92 5.01,6.51 5.85,13.87 4.3,21.61 -1.68,8.36 -3.9,16.61 -5.38,25 -0.79,4.48 -0.52,9.14 -0.7,13.72 -0.04,1.05 0.03,2.11 0.05,3.2 -6.81,-1.88 -12.34,-9.05 -12.27,-16.78 0.07,-6.68 0.89,-13.36 1.4,-20.04 0.46,-6.14 1.2,-12.27 1.35,-18.42 0.15,-6.04 -2.21,-11.23 -6.86,-15.24 -3.52,-3.03 -7.49,-2.83 -10.49,0.64 4.91,4.29 4.6,9.79 3.46,15.51 -1.58,7.91 -3.1,15.86 -2.11,23.98 0.4,3.26 1.26,6.47 1.89,9.61 -8.35,-4.88 -11.88,-12.79 -9.95,-22.34 0.4,-1.98 0.77,-4.02 0.79,-6.03 0.04,-4.05 0.12,-8.14 -0.32,-12.16 -0.87,-8.04 -10.18,-13.08 -17.9,-9.9 0.01,0.12 -0.02,0.3 0.04,0.35 4.12,3.32 5.35,7.79 5.22,12.85 -0.08,3.31 -0.04,6.63 -0.13,9.95 -0.01,0.49 -0.44,0.97 -0.68,1.46 -0.38,-0.29 -0.89,-0.5 -1.12,-0.88 -1.96,-3.18 -3.51,-6.48 -4.13,-10.27 -0.81,-4.97 -2.8,-9.58 -6.57,-13.02 -7.02,-6.42 -12.39,-14.13 -17.92,-21.74 -0.43,-0.59 -0.88,-1.16 -1.55,-2.03 -1.47,3.92 -1.4,7.61 -0.92,11.29 1.25,9.75 6.41,17.23 13.86,23.32 3.3,2.7 6.84,5.14 9.94,8.05 2.42,2.27 4.31,5.1 6.77,8.08 -6.6,-1.03 -12.47,-1.82 -18.29,-2.89 -4.95,-0.91 -9.36,-3.04 -12.74,-6.99 -3.38,5.44 -1.69,17.54 7.63,20.5 6.41,2.04 13.14,2.71 19.87,1.99 10.92,-1.17 21.73,4.4 25.86,13.77 -3.63,0.35 -7.18,0.72 -10.74,1.03 -6.54,0.58 -13.09,1.11 -19.64,1.68 -9.26,0.81 -17.27,-1.28 -22.56,-10.12 -1.92,3.27 -2.55,6.48 -2.16,9.75 -3.65,12.97 -12.67,21.17 -23.74,27.5 -2.45,-5.05 -5.54,-9.48 -9.14,-13.32 0.49,-0.36 0.99,-0.73 1.48,-1.09 11.91,-8.68 18.56,-20.43 21.56,-34.58 1.34,-6.33 -1.62,-13.41 -7.03,-16.59 -1.55,-0.91 -2.6,-0.7 -2.97,1.17 -2.72,13.82 -12.28,22.14 -23.36,29.31 -3.85,2.49 -7.67,5.02 -11.49,7.55 -7.14,-2.64 -14.89,-4.03 -22.85,-4.23 6.26,-4.81 12.51,-9.62 18.66,-14.55 8.39,-6.74 16.79,-13.56 24.48,-21.06 8.82,-8.61 9.73,-21.38 3.03,-30.36 -1.26,-1.69 -2.95,-3.07 -4.88,-5.05 -1.41,3.32 -2.66,5.93 -3.64,8.64 -2.48,6.82 -6.75,12.32 -12.59,16.48 -8.09,5.76 -16.04,11.85 -24.66,16.7 -10.61,5.96 -19.44,13.73 -27.42,22.69 -0.97,1.09 -2.02,2.1 -3.01,3.14 -4.85,-3.4 -6.78,-10.97 -3.63,-15.97 1.85,-2.95 4.36,-5.65 7.06,-7.87 12.03,-9.92 24.56,-19.24 36.29,-29.49 16.55,-14.46 20.89,-33.79 12.88,-53.82 -1.11,-2.76 -2.79,-5.3 -4.2,-7.94 -0.29,0.03 -0.57,0.05 -0.86,0.08 -0.41,1.55 -1.26,3.13 -1.15,4.65 0.91,12.67 -4.28,22.89 -12.88,31.54 -9.29,9.35 -19.2,18.1 -28.26,27.66 -4.84,5.1 -8.47,11.35 -12.61,17.11 -0.95,1.32 -1.76,2.75 -2.67,4.17 -7.18,-8.23 -8.2,-22.21 -1.51,-32.11 5.79,-8.57 12.54,-16.48 18.89,-24.66 5.84,-7.53 12.02,-14.81 17.45,-22.61 5.34,-7.67 6.73,-16.37 4.14,-25.51 -1.95,-6.9 -7.24,-10.03 -14.07,-8.12 2.67,9.71 -2.42,16.55 -8.76,22.95 -8.78,8.86 -17.53,17.81 -23.17,29.13 -2.27,4.55 -3.89,9.43 -5.75,14.01 -6.61,-13.42 -4.41,-26.63 6.23,-37.31 2.21,-2.22 4.41,-4.53 6.16,-7.11 3.52,-5.19 7.1,-10.4 9.96,-15.96 5.73,-11.11 -1.98,-25.56 -14.65,-28.04 -0.09,0.16 -0.29,0.37 -0.25,0.49 2.48,7.79 0.26,14.61 -4.22,21.03 -2.94,4.2 -5.71,8.52 -8.65,12.72 -0.44,0.62 -1.4,0.88 -2.12,1.3 -0.24,-0.69 -0.72,-1.4 -0.7,-2.08 0.18,-5.78 1,-11.36 3.44,-16.77 3.19,-7.1 4.56,-14.74 2.64,-22.4 -3.58,-14.26 -3.94,-28.8 -4.58,-43.34 -0.05,-1.12 -0.15,-2.25 -0.27,-3.94 -5.24,3.8 -8.29,8.63 -10.82,13.77 -6.71,13.65 -6.43,27.7 -2.01,41.9 1.96,6.3 4.45,12.46 5.96,18.86 1.18,5 1.22,10.26 1.84,16.2 -7.63,-6.95 -14.54,-12.98 -21.14,-19.33 -5.61,-5.4 -9.48,-11.91 -10.47,-19.88 -9,4.13 -17.13,21.18 -7.63,32.95 6.53,8.09 14.64,14.71 23.93,19.51 15.08,7.8 24.28,24.21 21.62,39.81 -4.98,-2.64 -9.88,-5.19 -14.73,-7.82 -8.93,-4.84 -17.83,-9.74 -26.76,-14.58 -12.64,-6.86 -21.19,-16.38 -20.47,-32.3 -6.95,3.4 -10.91,8.6 -12.93,15.36 -2.79,9.36 -0.43,18.56 7.61,24.02 9.41,6.39 19.34,12.13 29.46,17.34 10.68,5.5 21.86,10.04 32.82,14.99 9.06,4.08 13.93,11.38 15.99,20.82 0.4,1.82 0.6,3.68 0.91,5.6 -4.54,-2.37 -8.7,-5.48 -13.36,-6.79 -9.22,-2.61 -18.72,-4.26 -28.12,-6.26 -8.28,-1.76 -16.6,-3.35 -24.86,-5.22 -6.3,-1.42 -11.53,-4.83 -16.04,-9.42 -1.1,-1.12 -2.25,-2.18 -3.43,-3.27 0.04,-0.74 0.07,-1.48 0.08,-2.22 0.05,-3 0.26,-6 0.4,-9.07 -2.64,-0.55 -4.57,0.67 -5.21,3.14 -3.72,14.24 -13.81,22.81 -26.04,29.43 -10.59,5.73 -21.37,11.09 -31.93,16.86 -13.16,7.19 -23.92,16.85 -30.47,31.57 -2.12,-7.92 -1.03,-14.68 3.55,-20.38 3.91,-4.86 8.26,-9.55 13.14,-13.39 13.16,-10.35 26.59,-20.36 40.12,-30.23 11.91,-8.68 18.56,-20.43 21.56,-34.58 1.34,-6.33 -1.62,-13.41 -7.03,-16.59 -1.55,-0.91 -2.6,-0.7 -2.97,1.17 -2.72,13.82 -12.28,22.14 -23.36,29.31 -7.91,5.11 -15.71,10.4 -23.61,15.52 -12.99,8.43 -22.69,19.4 -27.12,35.33 -0.55,-1.29 -0.88,-1.94 -1.11,-2.62 -0.27,-0.79 -0.47,-1.61 -0.68,-2.42 -1.3,-4.96 -2.77,-9.88 -3.86,-14.89 -1.3,-6 0.79,-11.08 5.49,-14.79 11.66,-9.21 23.6,-18.07 35.19,-27.36 8.39,-6.74 16.79,-13.56 24.48,-21.06 8.82,-8.61 9.73,-21.38 3.03,-30.36 -1.26,-1.69 -2.95,-3.07 -4.88,-5.05 -1.41,3.32 -2.66,5.93 -3.64,8.64 -2.48,6.82 -6.75,12.32 -12.59,16.48 -8.09,5.76 -16.04,11.85 -24.66,16.7 -10.61,5.96 -19.44,13.73 -27.42,22.69 -0.97,1.09 -2.02,2.1 -3.01,3.14 -4.85,-3.4 -6.78,-10.97 -3.63,-15.97 1.85,-2.95 4.36,-5.65 7.06,-7.87 12.03,-9.92 24.56,-19.24 36.29,-29.49 16.55,-14.46 20.89,-33.79 12.88,-53.82 -1.11,-2.76 -2.79,-5.3 -4.2,-7.94 -0.29,0.03 -0.57,0.05 -0.86,0.08 -0.41,1.55 -1.26,3.13 -1.15,4.65 0.91,12.67 -4.28,22.89 -12.88,31.54 -9.29,9.35 -19.2,18.1 -28.26,27.66 -4.84,5.1 -8.47,11.35 -12.61,17.11 -0.95,1.32 -1.76,2.75 -2.67,4.17 -7.18,-8.23 -8.2,-22.21 -1.51,-32.11 5.79,-8.57 12.54,-16.48 18.89,-24.66 5.84,-7.53 12.02,-14.81 17.45,-22.61 5.34,-7.67 6.73,-16.37 4.14,-25.51 -1.95,-6.9 -7.24,-10.03 -14.07,-8.12 2.67,9.71 -2.42,16.55 -8.76,22.95 -8.78,8.86 -17.53,17.81 -23.17,29.13 -2.27,4.55 -3.89,9.43 -5.75,14.01 -6.61,-13.42 -4.41,-26.63 6.23,-37.31 2.21,-2.22 4.41,-4.53 6.16,-7.11 3.52,-5.19 7.1,-10.4 9.96,-15.96 5.73,-11.11 -1.98,-25.56 -14.65,-28.04 -0.09,0.16 -0.29,0.37 -0.25,0.49 2.48,7.79 0.26,14.61 -4.22,21.03 -2.94,4.2 -5.71,8.52 -8.65,12.72 -0.44,0.62 -1.4,0.88 -2.12,1.3 -0.24,-0.69 -0.72,-1.4 -0.7,-2.08 0.18,-5.78 1,-11.36 3.44,-16.77 3.19,-7.1 4.56,-14.74 2.64,-22.4 C 79.53,33.12 79.17,18.58 78.53,4.04 78.48,2.92 78.38,1.79 78.26,0.1 73.02,3.9 69.97,8.73 67.44,13.87 c -6.71,13.65 -6.43,27.7 -2.01,41.9 1.96,6.3 4.45,12.46 5.96,18.86 1.18,5 1.22,10.26 1.84,16.2 C 65.6,83.88 58.69,77.85 52.09,71.5 46.48,66.1 42.61,59.59 41.62,51.62 c -9,4.13 -17.13,21.18 -7.63,32.95 6.53,8.09 14.64,14.71 23.93,19.51 15.08,7.8 24.28,24.21 21.62,39.81 -4.98,-2.64 -9.88,-5.19 -14.73,-7.82 -8.93,-4.84 -17.83,-9.74 -26.76,-14.58 -12.64,-6.86 -21.19,-16.38 -20.47,-32.3 -6.95,3.4 -10.91,8.6 -12.93,15.36 -2.79,9.36 -0.43,18.56 7.61,24.02 9.41,6.39 19.34,12.13 29.46,17.34 10.68,5.5 21.86,10.04 32.82,14.99 9.06,4.08 13.93,11.38 15.99,20.82 0.4,1.82 0.6,3.68 0.91,5.6 -4.54,-2.37 -8.7,-5.48 -13.36,-6.79 -9.22,-2.61 -18.72,-4.26 -28.12,-6.26 -8.28,-1.76 -16.6,-3.35 -24.86,-5.22 -6.3,-1.42 -11.53,-4.83 -16.04,-9.42 -1.75,-1.79 -3.65,-3.44 -5.59,-5.27 -0.4,0.39 -0.77,0.6 -0.94,0.92 -5.74,11.13 -1.09,25.29 10.03,30.95 14.23,7.24 29.48,10.43 45.22,12.11 9.98,1.07 19.9,2.74 29.83,4.22 7.43,1.1 12.07,5.16 13.63,12.73 0.79,3.84 2.16,7.56 3.52,12.24 -1.83,-1.16 -2.98,-1.8 -4.03,-2.58 -13.26,-9.83 -28.36,-14.21 -44.64,-14.73 -16.53,-0.54 -33.07,-0.76 -49.61,-1.13 -0.32,0 -0.63,0 -1.24,0 2.84,9.07 8.38,15.19 16.93,18.4 14.94,5.61 30.48,7.99 46.38,8.9 8.75,0.5 17.48,1.76 26.16,3.1 9.76,1.5 15.99,7.31 18.59,16.86 1.26,4.62 2.34,9.3 2.86,14.42 -1.17,-1.04 -2.39,-2.04 -3.51,-3.14 -11.07,-10.81 -24.79,-16.16 -39.64,-19 -7.81,-1.5 -15.68,-2.74 -23.57,-3.7 -14.01,-1.7 -27.44,-5.67 -40.83,-9.89 -1.19,-0.37 -2.39,-0.69 -3.58,-1.03 -2.68,7.28 1.74,17.49 9.96,20.69 8.14,3.17 16.69,5.52 25.24,7.35 14.94,3.19 30.07,5.47 45.02,8.62 6.5,1.37 13.05,3.34 19.04,6.17 11.35,5.36 18.09,14.32 18.16,27.41 0,0.81 -0.13,1.63 -0.19,2.37 -4.08,-3.01 -7.9,-6.22 -12.1,-8.84 -9.17,-5.71 -19.61,-7.7 -30.07,-9.44 -8.47,-1.41 -16.96,-2.62 -25.46,-3.81 -15.12,-2.13 -29.65,-5.68 -41.35,-17.03 -1.66,3.54 -1.75,6.91 -1.15,10.29 1.84,10.33 8.01,17.51 16.84,22.67 7.99,4.67 16.67,7.34 25.84,8.23 18.44,1.79 36.91,3.32 55.35,5.11 8.19,0.79 11.71,1.89 13.44,6.15 -7.49,1.71 -14.02,4.87 -18.77,9.54 -6.88,-3.12 -14.35,-4.84 -21.98,-6.07 -12.81,-2.07 -25.71,-3.62 -38.5,-5.8 -11.02,-1.88 -21.23,-5.8 -29.04,-14.32 -1.62,-1.76 -2.91,-3.82 -4.42,-5.69 -0.74,-0.92 -1.63,-1.71 -2.71,-2.83 -2.39,4.37 -2.38,8.54 -1.75,12.65 1.31,8.47 5.28,15.15 12.76,19.93 13.82,8.83 29.19,11.99 45.13,14.07 0.46,0.06 0.92,0.13 1.39,0.19 -7.34,1.05 -14.39,3.83 -19.77,7.78 -5.8,-1.83 -11.35,-4.26 -15.97,-8.51 -2.13,-1.96 -3.99,-4.2 -5.97,-6.32 -5.9,6.38 -4.74,18.79 2.31,24.12 3.1,2.35 6.35,4.4 9.74,6.17 -0.38,4.52 1.1,9.4 5.11,14.37 C 25.02,366.28 10.21,364.52 0.44,369.43 V 1452.46 H 1530.38 V 360.35 c -32.78,-0.92 -68.96,7.65 -85.2,24.33 -1.24,0.48 -2.47,0.99 -3.68,1.55 2.02,-6.13 3.25,-11.57 3.79,-16.39 0.03,0 0.06,-0.02 0.09,-0.02 12.03,-2.55 24.13,-4.77 36.19,-7.18 12.18,-2.44 23.69,-6.54 33.87,-13.9 9.91,-7.15 13.84,-17.96 9.96,-27.83 -0.63,-1.6 -1.63,-3.1 -2.69,-4.47 -1.11,-1.45 -2.24,-1.16 -2.63,0.62 -2.63,12.01 -11.23,17.3 -22.3,19.55 -9.76,1.98 -19.57,3.77 -29.4,5.35 -9.25,1.49 -17.81,4.41 -25.59,9.06 -2.2,-4.17 -5.56,-6.98 -9.75,-8.49 1.15,-1.29 3.08,-2.41 4.66,-2.95 z m -822.36,55.18 c -0.03,0.06 -0.06,0.12 -0.08,0.19 0.02,-0.05 0.04,-0.1 0.06,-0.16 z m -58.38,-30.47 c -2.94,2.98 -5.79,6.22 -8.5,9.72 -1.43,0.41 -2.84,0.89 -4.24,1.41 -1.26,-3.78 -2.75,-7.29 -4.43,-10.56 2.2,-0.64 4.43,-1.15 6.67,-1.47 3.81,-0.55 7.34,-0.28 10.5,0.89 z m -12.95,-15.15 c 2.33,2.04 4.58,4.18 6.69,6.76 -1.01,-0.14 -2.02,-0.25 -3.01,-0.44 -4.74,-0.91 -9.36,-0.9 -13.89,-0.24 -2.19,-2.92 -4.57,-5.56 -7.1,-7.95 0.43,-0.2 0.85,-0.4 1.28,-0.6 5.8,-2.67 11.23,-1.76 16.04,2.47 z m -21.15,-17.85 c 1.8,1.79 3.86,3.31 6.26,5.34 -1.4,0.02 -2.25,0.09 -3.09,0.05 -4.39,-0.24 -8.61,0.15 -12.68,1.05 -3.48,-1.84 -7.1,-3.35 -10.82,-4.54 2.81,-1.31 5.63,-2.6 8.44,-3.91 4.4,-2.06 8.35,-1.52 11.89,2 z m -100.32,10.93 c 7.25,-8.66 11.68,-18.38 12.81,-29.37 2.24,2.11 5.15,3.36 8.58,3.4 7.36,0.09 14.76,-0.35 22.07,-1.16 7.72,-0.85 15.37,-2.38 23.05,-3.62 6.34,-1.03 11.57,1.17 16.05,5.53 0.86,0.84 1.64,1.77 2.49,2.69 -3.3,0.34 -6.64,0.15 -9.63,1.1 -5.91,1.88 -11.62,4.38 -17.4,6.65 -2.15,0.85 -4.29,1.71 -6.44,2.57 -7.01,0.52 -13.94,1.95 -20.51,4.18 -0.11,-0.02 -0.22,-0.04 -0.34,-0.06 -1.58,-0.34 -3.19,-0.56 -4.9,-0.85 -0.08,0.35 -0.2,0.6 -0.18,0.83 0.07,0.68 0.21,1.33 0.38,1.98 -17.41,7.25 -31.51,20.39 -36.34,37.44 1.05,-7.72 1.18,-14.81 0.54,-21.32 3.45,-3.08 6.72,-6.4 9.74,-10.01 z M 225,295.54 c 3.02,3.98 7.03,6.93 12.12,8.84 14.94,5.61 30.48,7.99 46.38,8.9 5.76,0.33 11.5,0.99 17.23,1.78 -4.29,3.1 -8.33,6.64 -12.05,10.6 -0.24,-0.05 -0.48,-0.1 -0.73,-0.15 -7.81,-1.5 -15.68,-2.74 -23.57,-3.7 -14.01,-1.7 -27.44,-5.67 -40.83,-9.89 -1.19,-0.37 -2.39,-0.69 -3.58,-1.03 -1.73,4.71 -0.48,10.64 2.84,15.11 -2.15,4.23 -5.84,6.81 -10.02,9.08 -5.4,2.94 -10.92,5.56 -16.58,7.85 -4.08,-4.71 -8.99,-8.77 -14.42,-12.17 1.07,-0.44 2.13,-0.87 3.2,-1.31 12.32,-5.08 23.57,-11.79 32.76,-21.63 3.55,-3.8 5.97,-8 7.24,-12.3 z m 47.04,56.3 c -1.46,-4.5 -4.09,-8.17 -7.46,-11.01 3.87,0.74 7.74,1.46 11.62,2.16 -1.53,2.82 -2.93,5.76 -4.16,8.85 z m -64.69,13.39 c -0.41,-2.07 -0.98,-4.07 -1.64,-6.01 0.89,-0.41 1.79,-0.82 2.67,-1.25 0.04,-0.02 0.08,-0.04 0.12,-0.07 -0.61,2.28 -1.01,4.72 -1.15,7.32 z m 19.77,-35.11 c 0.88,0.58 1.82,1.08 2.82,1.46 2.29,0.89 4.62,1.71 6.97,2.48 -3.84,0.58 -7.62,1.71 -11.13,3.4 0.72,-2.4 1.18,-4.86 1.34,-7.35 z m -93.03,-15.84 c 12.96,-7.48 26.16,-14.55 39.18,-21.92 12.82,-7.26 24.73,-15.72 34.28,-27.14 3.79,-4.53 6.8,-9.35 8.98,-14.48 1.97,5.2 5.76,9.73 10.98,12.38 14.23,7.24 29.48,10.43 45.22,12.11 9.98,1.07 19.9,2.74 29.83,4.22 7.43,1.1 12.07,5.16 13.63,12.73 0.79,3.84 2.16,7.56 3.52,12.24 -1.83,-1.16 -2.98,-1.8 -4.03,-2.58 -13.26,-9.83 -28.36,-14.21 -44.64,-14.73 -15.04,-0.49 -30.09,-0.72 -45.14,-1.03 -0.38,-3.34 -1.5,-6.58 -3.41,-9.57 -0.99,-1.55 -2.36,-2.92 -3.75,-4.15 -1.47,-1.29 -2.6,-0.76 -2.64,1.2 -0.28,13.18 -8.24,20.52 -19.42,25.18 -9.86,4.11 -19.81,8.01 -29.83,11.71 -6.2,2.29 -11.95,5.17 -17.22,8.72 -6.9,-1.01 -13.74,-1.14 -20.1,-0.35 0.84,-1.75 2.85,-3.55 4.55,-4.52 z m -37.37,32.96 c -0.08,1.17 -0.12,2.37 -0.08,3.61 -1.78,-1.96 -3.79,-3.59 -5.96,-4.93 2.02,0.43 4.03,0.87 6.04,1.32 z M 1272.69,210.62 c 9.44,-1.98 19.1,-2.88 28.66,-4.24 8.79,-1.25 17.66,-2.11 26.37,-3.8 6.54,-1.27 11.92,-4.45 15.97,-9.36 1.36,2.74 3.3,5.23 5.82,7.21 11.72,9.19 25.11,14.85 39.2,19.22 8.94,2.77 17.72,6.09 26.54,9.23 6.6,2.35 10.11,6.9 10.18,14.1 0.03,3.66 0.61,7.31 1.02,11.83 -1.47,-1.39 -2.4,-2.18 -3.22,-3.08 -10.37,-11.38 -23.4,-18.1 -38.2,-21.51 -13.26,-3.06 -26.57,-5.9 -39.86,-8.79 0.89,-2.39 1.41,-4.94 2.11,-7.41 -0.21,-0.17 -0.42,-0.34 -0.62,-0.5 -1.28,0.77 -2.88,1.28 -3.79,2.36 -1.31,1.55 -2.69,2.93 -4.13,4.17 h -0.04 v 0.03 c -6.98,5.96 -15.53,8.38 -24.94,8.55 -12.29,0.23 -24.61,-0.36 -36.88,0.15 -6.55,0.27 -13.04,2.1 -19.55,3.26 -1.5,0.27 -2.97,0.69 -4.49,1.06 0.54,-10.18 8.93,-20.19 19.84,-22.47 z M 913.82,328.16 c 0.2,-1.15 0.54,-2.27 0.86,-3.4 1.26,0 2.52,0 3.77,0 0.96,0 1.91,-0.02 2.87,-0.03 -0.38,1.54 -0.59,3.12 -0.64,4.75 -2.23,-0.46 -4.53,-0.86 -6.88,-1.18 0,-0.04 0.01,-0.08 0.02,-0.13 z m 116.53,37.03 h 0.02 c 0,0 0,0.04 0,0.05 0,-0.02 0,-0.03 -0.01,-0.05 z m -97.43,-39.86 c -0.08,-0.32 -0.16,-0.64 -0.24,-0.96 0.68,-0.04 1.37,-0.08 2.05,-0.12 -0.62,0.34 -1.23,0.71 -1.82,1.08 z m 304.67,41.87 c -0.54,-0.22 -1.08,-0.44 -1.61,-0.67 0.36,-5.28 0.27,-10.25 -0.22,-14.9 3.43,0.89 6.87,1.69 10.33,2.36 -3.49,3.99 -6.37,8.41 -8.49,13.2 z m -226.72,-32.91 c 10.18,2.28 20.26,5.08 30.5,7.06 0.32,0.06 0.63,0.1 0.95,0.15 -3.38,2.67 -6.26,6.02 -8.35,10.06 -3.71,-1.12 -7.39,-2.32 -10.95,-3.81 -0.04,-0.01 -0.07,-0.03 -0.11,-0.04 -3.57,-5.22 -8.11,-9.78 -13.3,-13.66 0.42,0.07 0.85,0.14 1.26,0.24 z M 892.89,300.57 c 2.2,-0.78 4.63,-1.17 6.97,-1.22 10.43,-0.24 20.89,0.03 31.3,-0.51 4.3,-0.22 8.21,-1.12 11.71,-2.59 -3.04,2.76 -4.76,7.51 -3.49,11.78 0.25,0.85 0.54,1.68 0.82,2.52 -1.76,0.32 -3.56,0.44 -5.41,0.35 -6.64,-0.31 -13.34,-0.4 -19.89,-1.42 -8.05,-1.25 -15.91,-0.82 -23.82,0.6 -0.96,0.17 -1.93,0.27 -2.88,0.4 -1.15,-3.8 0.97,-8.58 4.69,-9.91 z m -4.28,24.02 c 6.6,-0.02 13.2,0.1 19.8,0.15 -0.14,0.14 -0.28,0.28 -0.42,0.42 -0.7,0.74 -1.34,1.51 -1.91,2.3 -7.93,-0.59 -16.33,-0.49 -24.91,0.25 1.85,-2.09 4.41,-3.12 7.43,-3.13 z m 516.56,21.5 c -4.96,-3.07 -10.4,-5.42 -16,-7.49 -11.35,-4.2 -22.88,-7.93 -34.19,-12.23 -9.74,-3.7 -18.38,-9.13 -24,-18.33 -1.16,-1.91 -1.98,-4.02 -3.02,-6 -0.51,-0.97 -1.18,-1.86 -1.97,-3.08 -2.97,3.57 -3.72,7.38 -3.87,11.27 -0.32,7.98 2.1,14.81 8.09,20.53 11.06,10.57 24.55,16.22 38.77,21 5.89,1.98 11.72,4.18 17.49,6.53 -3.5,2.98 -6.93,6.31 -10.21,10 -5.26,-2.55 -10.53,-5.09 -15.78,-7.65 -19.71,-32.6 -60.26,-37.11 -90.26,-23.93 -10.43,-2.96 -20.77,-6.24 -31.22,-9.13 -3.99,-1.11 -7.98,-1.92 -11.99,-2.39 -1.88,-3 -4.01,-5.74 -6.36,-8.22 3.53,-0.19 7.08,-0.16 10.55,0.2 15.53,1.61 31.02,3.64 46.48,5.83 13.61,1.92 25.69,-1.62 36.89,-9.15 5.01,-3.37 7.62,-10.03 6.07,-15.67 -0.45,-1.62 -1.28,-2.16 -2.75,-1.15 -10.79,7.48 -22.6,6.84 -34.67,4.44 -8.62,-1.72 -17.27,-3.24 -25.89,-4.95 -14.17,-2.8 -27.79,-1.75 -41.09,6.03 0.47,-1.22 0.67,-1.87 0.96,-2.47 0.33,-0.71 0.73,-1.38 1.12,-2.06 2.35,-4.17 4.57,-8.41 7.09,-12.47 3.03,-4.86 7.72,-6.9 13.28,-6.33 13.79,1.41 27.53,3.24 41.33,4.54 9.99,0.94 20.04,1.83 30.06,1.81 11.5,-0.03 20.39,-7.99 21.74,-18.35 0.25,-1.95 0.02,-3.97 0.02,-6.55 -3.1,1.31 -5.63,2.24 -8.05,3.42 -6.09,2.95 -12.52,3.86 -19.13,2.85 -9.16,-1.4 -18.43,-2.49 -27.35,-4.84 -10.97,-2.9 -21.92,-3.44 -33.09,-2.63 -1.35,0.1 -2.72,0.1 -4.05,0.14 -1.04,-5.42 2.59,-11.74 7.94,-13.05 3.15,-0.77 6.59,-0.95 9.84,-0.68 14.49,1.17 28.93,3.07 43.44,3.83 17.59,0.92 31.47,-6.43 39.89,-20.32 2.04,4.3 5.23,7.81 9.63,10.53 12.66,7.82 26.46,12.8 40.84,16.48 7.92,2.03 15.68,4.76 23.38,7.54 8.67,3.13 13.32,9.57 13.98,18.78 0.32,4.46 0.47,8.93 0.03,13.71 -0.89,-1.17 -1.82,-2.3 -2.65,-3.5 -8.19,-11.88 -19.78,-19.25 -32.85,-24.52 -6.88,-2.77 -13.85,-5.33 -20.9,-7.63 -12.52,-4.08 -24.09,-10.13 -35.58,-16.4 -1.02,-0.56 -2.07,-1.06 -3.09,-1.59 -3.76,6.18 -1.56,16.32 5.39,20.72 6.88,4.36 14.28,8.06 21.78,11.27 13.09,5.61 26.54,10.41 39.64,15.99 5.7,2.43 11.34,5.4 16.32,9.07 9.42,6.95 13.98,16.36 11.69,28.35 -0.14,0.75 -0.41,1.47 -0.6,2.13 -3.19,-3.49 -6.11,-7.12 -9.48,-10.26 -7.37,-6.88 -16.56,-10.58 -25.82,-14.05 -7.49,-2.81 -15.05,-5.45 -22.61,-8.07 -13.45,-4.67 -26.11,-10.53 -34.77,-23.03 -2.16,2.94 -2.85,6.01 -2.9,9.21 -0.17,9.78 4.18,17.47 11.33,23.77 6.48,5.71 13.93,9.72 22.16,12.18 16.55,4.95 33.18,9.68 49.73,14.63 6.4,1.91 9.52,3.41 10.76,6.53 -6.34,-0.42 -13.76,1.26 -21.48,4.85 z"
     id="path222"
     clip-path="url(#clipPath229)"
     transform="translate(-0.06183889,-0.1)" />
  <path
     class="cls-5"
     d="m 804.43037,49.669631 c -1.59409,85.610949 -8.37821,155.676499 -9.97229,241.287449 -0.0618,2.99045 -0.13593,6.14155 -0.72908,8.63771 -0.92679,3.86782 -2.76802,4.95525 -4.41153,5.7214 -21.19267,9.82401 -37.19529,-12.72795 -58.3756,-2.90395 -39.95096,18.53586 -80.76692,37.35594 -121.27395,34.8227 -0.44486,-92.81522 -6.03033,-192.16742 -6.47519,-284.982647 53.32149,4.547464 104.92532,6.475194 160.61939,-3.880173 15.59484,-2.903951 27.396,1.631156 40.2846,1.297511 h 0.34601 z"
     id="path6"
     style="fill:#31442b;stroke-width:1.23572" />
  <g
     id="g18"
     transform="matrix(1.2357239,0,0,1.2357239,592.36779,26.821096)">
    <path
       class="cls-3"
       d="m 57.1,169.09 c 1.13,-21.3 -0.13,-23.11 13.55,-20.17 7.18,1.57 18.59,2.05 25.52,4.3 11,-2.38 27.77,-8.24 28.18,1.17 0.63,14.45 5.35,39.33 -7.55,51.54 -7.04,6.66 4.26,5.48 -24.87,5.64 C 62.8,211.73 54.95,209.48 57.1,169.1 Z"
       id="path8"
       style="fill:#ea7572" />
    <path
       class="cls-2"
       d="m 112.03,163.67 c 1.4,0.42 2.62,1.3 3.55,2.42 0.31,0.37 0.61,0.74 0.91,1.1 1.03,1.22 2.12,2.58 2.75,4.04 0.28,0.66 0.55,1.56 0.51,2.17 -0.01,0.05 -0.03,0.17 -0.04,0.2 -0.04,0.21 -0.09,0.42 -0.13,0.62 -0.06,0.32 -0.12,0.64 -0.19,0.96 -0.04,0.03 -0.08,0.05 -0.13,0.08 -0.02,0.01 -0.26,0.12 -0.33,0.16 -0.24,0.1 -0.5,0.18 -0.75,0.25 -2.56,0.2 -3.8,-1.17 -4.75,-3.65 -1.39,-3.63 -6.32,-4.89 -9.27,-2.57 -1.37,1.08 -2.36,2.82 -3.09,4.48 -0.81,1.87 -2.34,2.01 -3.57,1.41 -0.75,-0.35 -1.33,-2.14 -1.14,-3.15 1.43,-8.38 9.04,-10.57 15.63,-8.52 h 0.02 z"
       id="path10"
       style="fill:#2c2d2b" />
    <path
       class="cls-4"
       d="m 49.84,150.66 c 8.8,2.98 17.78,5.75 23.3,6.1 24.8,0.91 80.79,3.07 78.23,-27.7 0,-13.18 -6.75,-22.55 -17.12,-29.73 -25.63,-15.64 -62.87,-16.14 -87.34,2.02 -16.46,12.21 -19.75,39.86 2.93,49.32 z"
       id="path12"
       style="fill:#924b2c" />
    <path
       class="cls-2"
       d="m 71.11,171.7 c -1.34,2.91 2.99,5.19 4.59,2.42 l 0.02,-0.04 c 1.56,-2.92 4.31,-3.73 7.17,-4.33 2.75,-0.61 4.71,0.43 5.98,2.89 0.43,0.81 0.78,1.76 1.44,2.34 0.43,0.43 1.44,0.64 1.99,0.43 0.58,-0.2 1.16,-0.98 1.3,-1.59 0.61,-2.86 -1.73,-7.31 -4.48,-8.29 -7.63,-2.74 -13.32,-0.29 -16.9,4.39 -0.47,0.6 -0.85,1.19 -1.12,1.77 z"
       id="path14"
       style="fill:#2c2d2b" />
    <path
       class="cls-2"
       d="m 92.28,188.47 c 2.77,1.56 5.55,0.9 8,-0.78 1.33,-0.92 2.54,-2.23 3.44,-3.61 0.46,-0.72 0.51,-2.33 -0.03,-2.89 -1.28,-1.32 -1.93,-1.14 -2.89,-0.69 -0.58,0.27 -1.3,0.69 -1.82,1.21 -2.05,2.05 -4.05,2.02 -6.44,0.4 -1.16,-0.78 -3.25,-2.42 -4.45,-1.27 -3.06,3.47 1.56,6.15 4.19,7.63 z"
       id="path16"
       style="fill:#2c2d2b" />
  </g>
  <path
     class="cls-1"
     d="m 805.61666,381.32557 c 0.48194,5.15297 0.98858,10.30594 1.48287,15.47126 -58.7216,-0.24714 -110.69614,-0.0494 -172.04984,0.93915 -14.09961,0.22243 -24.3314,0.18536 -38.52987,0.19772 l 0.0247,-15.99027 c 0.13593,-0.0247 3.17581,-0.13593 8.43999,-0.27186 -0.38307,-29.1878 -0.77851,-58.36324 -1.16158,-87.53868 -2.32316,-0.0865 -4.75754,-0.12357 -7.30313,-0.12357 l 0.0247,-15.71841 c 0.96386,-0.19771 146.85343,-0.67965 200.60742,-0.6055 h 1.61879 c 2.50852,0 4.79461,0.0124 6.83356,0.0124 0.48193,5.05411 0.98858,10.13294 1.48287,15.19941 -2.9781,-0.0124 -5.94384,-0.0247 -8.88486,-0.0247 l -3.29938,87.68697 c 4.1891,0.22243 7.78506,0.48193 10.70137,0.79086 z"
     id="path20"
     style="fill:#485b41;stroke-width:1.23572" />
  <path
     class="cls-1"
     d="m 819.64213,43.342724 c -0.54372,-5.498971 -1.06272,-10.985585 -1.60644,-16.496914 -48.1438,-0.148287 -224.53103,0.420146 -225.63083,0.654934 l -0.0371,17.040632 h 7.89628 c -0.0742,21.266809 -1.32223,42.533617 -3.71953,63.627424 46.79686,4.89347 89.13276,-0.66729 136.15206,-1.08744 22.35424,-0.19771 60.13032,-3.85546 77.82589,-5.78319 1.22336,-20.105223 1.27279,-41.91575 1.16158,-57.992518 2.63209,0 5.27654,0.01236 7.9457,0.02472 z m -221.14515,-2.59502 1.7918,-1.07508 v 0.914436 c -0.59315,0.04943 -1.18629,0.111215 -1.7918,0.160644 z"
     id="path22"
     style="fill:#485b41;stroke-width:1.23572" />
  <g
     id="g52"
     transform="matrix(1.2357239,0,0,1.2357239,592.36779,26.821096)">
    <path
       class="cls-5"
       d="m 19.77,26.27 19.32,0.31 c 1.93,0.03 1.93,-2.97 0,-3 L 19.77,23.27 c -1.93,-0.03 -1.93,2.97 0,3 z"
       id="path24"
       style="fill:#31442b" />
    <path
       class="cls-5"
       d="m 27.77,25.51 c -0.35,10.36 -0.64,20.72 -0.87,31.08 -0.04,1.93 2.96,1.93 3,0 0.22,-10.36 0.51,-20.72 0.87,-31.08 0.07,-1.93 -2.93,-1.93 -3,0 z"
       id="path26"
       style="fill:#31442b" />
    <path
       class="cls-5"
       d="m 49.52,26.61 c 1.45,-0.12 2.91,-0.16 4.37,-0.12 0.7,0.02 1.4,0.06 2.1,0.11 0.35,0.03 0.7,0.06 1.04,0.1 0.2,0.02 0.41,0.04 0.61,0.07 0.09,0.01 0.17,0.02 0.26,0.03 0.19,0.02 0.23,0.03 0.12,0.02 0.77,0.11 1.65,-0.19 1.85,-1.05 0.16,-0.71 -0.22,-1.73 -1.05,-1.85 -3.09,-0.43 -6.19,-0.56 -9.3,-0.31 -0.78,0.06 -1.54,0.65 -1.5,1.5 0.03,0.76 0.66,1.57 1.5,1.5 z"
       id="path28"
       style="fill:#31442b" />
    <path
       class="cls-5"
       d="m 53.01,25.73 c -0.15,9.85 -0.72,19.69 -1.73,29.5 l 1.9,-1.45 c -1.35,-0.23 -2.69,-0.32 -4.06,-0.23 -1.91,0.13 -1.95,3 0,3 2.95,0 5.89,-0.09 8.83,-0.29 1.92,-0.13 1.93,-3.13 0,-3 -2.94,0.2 -5.88,0.29 -8.83,0.29 v 3 c 1.1,-0.08 2.17,-0.06 3.26,0.12 1.09,0.18 1.79,-0.41 1.9,-1.45 1.01,-9.8 1.58,-19.64 1.73,-29.5 0.03,-1.93 -2.97,-1.93 -3,0 v 0 z"
       id="path30"
       style="fill:#31442b" />
    <path
       class="cls-5"
       d="m 75.27,23.8 c -7.26,2.56 -6.59,12.34 -6.58,18.54 0,1.94 0.05,3.88 0.16,5.81 0.09,1.74 0.14,3.55 1.18,5.03 1.71,2.43 4.85,2.98 7.59,3.33 1.91,0.24 1.89,-2.76 0,-3 -1.82,-0.23 -4.61,-0.61 -5.41,-2.55 -0.52,-1.27 -0.38,-2.92 -0.43,-4.26 -0.06,-1.61 -0.09,-3.23 -0.09,-4.85 0,-2.97 -0.01,-6.04 0.43,-8.98 0.37,-2.45 1.39,-5.28 3.95,-6.18 1.81,-0.64 1.03,-3.54 -0.8,-2.89 z"
       id="path32"
       style="fill:#31442b" />
    <path
       class="cls-5"
       d="m 83.79,24.17 c -1.26,10.53 1.22,21.04 0.5,31.58 -0.13,1.93 2.87,1.92 3,0 0.72,-10.54 -1.76,-21.05 -0.5,-31.58 0.23,-1.91 -2.77,-1.9 -3,0 z"
       id="path34"
       style="fill:#31442b" />
    <path
       class="cls-5"
       d="m 86.36,37.39 c 2.16,-1.64 3.96,-3.69 5.77,-5.7 0.95,-1.06 1.9,-2.11 2.89,-3.14 0.45,-0.46 0.9,-0.92 1.37,-1.36 0.21,-0.2 0.43,-0.4 0.65,-0.59 0.1,-0.08 0.19,-0.17 0.29,-0.25 0.05,-0.04 0.48,-0.37 0.17,-0.14 0.64,-0.49 0.98,-1.29 0.54,-2.05 -0.37,-0.64 -1.4,-1.03 -2.05,-0.54 -2.16,1.64 -3.96,3.69 -5.77,5.7 -0.95,1.06 -1.9,2.11 -2.89,3.14 -0.45,0.46 -0.9,0.92 -1.37,1.36 -0.21,0.2 -0.43,0.4 -0.65,0.59 -0.1,0.08 -0.19,0.17 -0.29,0.25 -0.05,0.04 -0.48,0.37 -0.17,0.14 -0.64,0.49 -0.98,1.29 -0.54,2.05 0.37,0.64 1.4,1.03 2.05,0.54 z"
       id="path36"
       style="fill:#31442b" />
    <path
       class="cls-5"
       d="m 84.25,37.83 c 2.83,2.55 4.97,5.77 7.23,8.81 l 7.4,9.95 c 0.48,0.65 1.3,0.98 2.05,0.54 0.64,-0.37 1.02,-1.4 0.54,-2.05 L 93.85,44.83 c -2.33,-3.14 -4.55,-6.48 -7.48,-9.12 -1.43,-1.29 -3.56,0.83 -2.12,2.12 z"
       id="path38"
       style="fill:#31442b" />
    <path
       class="cls-5"
       d="m 105.88,24.41 c -0.68,7.14 0.02,14.29 0.86,21.39 0.2,1.73 0.41,3.46 0.62,5.19 l 0.28,2.33 c 0.08,0.7 0.06,1.54 0.47,2.15 0.84,1.25 2.42,0.88 3.69,0.77 l 5.44,-0.46 c 1.91,-0.16 1.93,-3.16 0,-3 l -4.49,0.38 c -0.51,0.04 -1.94,-0.07 -2.36,0.2 -0.34,-0.02 -0.32,0.05 0.04,0.22 0.33,0.34 0.4,0.25 0.22,-0.27 0.02,-0.29 -0.08,-0.64 -0.11,-0.93 -0.37,-3.09 -0.75,-6.17 -1.1,-9.26 -0.69,-6.22 -1.14,-12.48 -0.55,-18.72 0.18,-1.92 -2.82,-1.91 -3,0 v 0 z"
       id="path40"
       style="fill:#31442b" />
    <path
       class="cls-5"
       d="m 108.14,40.33 h 4 c 0.78,0 1.54,-0.69 1.5,-1.5 -0.04,-0.81 -0.66,-1.5 -1.5,-1.5 h -4 c -0.78,0 -1.54,0.69 -1.5,1.5 0.04,0.81 0.66,1.5 1.5,1.5 z"
       id="path42"
       style="fill:#31442b" />
    <path
       class="cls-5"
       d="m 107.7,25.95 6.44,-0.3 c 0.78,-0.04 1.54,-0.66 1.5,-1.5 -0.04,-0.78 -0.66,-1.54 -1.5,-1.5 l -6.44,0.3 c -0.78,0.04 -1.54,0.66 -1.5,1.5 0.04,0.78 0.66,1.54 1.5,1.5 z"
       id="path44"
       style="fill:#31442b" />
    <path
       class="cls-5"
       d="m 126.35,24.95 c 4.51,0.18 9.03,0.23 13.54,0.14 1.93,-0.04 1.93,-3.04 0,-3 -4.52,0.09 -9.03,0.04 -13.54,-0.14 -1.93,-0.08 -1.93,2.92 0,3 z"
       id="path46"
       style="fill:#31442b" />
    <path
       class="cls-5"
       d="m 131.52,24.84 c 0.74,9.53 1.24,19.09 1.5,28.65 0.05,1.93 3.05,1.93 3,0 -0.25,-9.56 -0.75,-19.11 -1.5,-28.65 -0.15,-1.91 -3.15,-1.93 -3,0 z"
       id="path48"
       style="fill:#31442b" />
    <path
       class="cls-5"
       d="m 156.99,22.63 c -3.5,-1.48 -7.04,0.32 -8.08,3.96 -0.47,1.64 -0.63,3.72 0.24,5.26 0.87,1.54 2.53,1.98 4.07,2.68 6.36,2.85 3.62,16.59 -4.03,14.38 -1.86,-0.54 -2.65,2.36 -0.8,2.89 3.37,0.97 6.98,-0.47 9.07,-3.22 2.15,-2.83 2.64,-6.67 1.93,-10.09 -0.33,-1.62 -1.01,-3.18 -2.05,-4.47 -1.07,-1.34 -2.42,-2.02 -3.99,-2.63 -0.75,-0.29 -1.48,-0.55 -1.73,-1.37 -0.24,-0.78 -0.05,-1.86 0.18,-2.62 0.46,-1.57 1.94,-2.9 3.67,-2.17 0.75,0.32 1.6,0.22 2.05,-0.54 0.37,-0.63 0.21,-1.74 -0.54,-2.05 v 0 z"
       id="path50"
       style="fill:#31442b" />
  </g>
  <path
     class="cls-1"
     d="m 798.78311,277.64833 h -1.6188 c 0.54372,0.0124 1.07508,0 1.6188,0 z"
     id="path54"
     style="fill:#485b41;stroke-width:1.23572" />
  <path
     class="cls-5"
     d="m 776.19408,123.17049 h 2.36023 c 0.48193,0 0.95151,-0.42015 0.92679,-0.92679 -0.0247,-0.50665 -0.40779,-0.9268 -0.92679,-0.9268 h -2.36023 c -0.48193,0 -0.95151,0.42015 -0.9268,0.9268 0.0247,0.50664 0.40779,0.92679 0.9268,0.92679 z"
     id="path56"
     style="fill:#31442b;stroke-width:1.23572" />
</svg>
