<?xml version="1.0" encoding="UTF-8" standalone="no"?>
<svg
   id="Background"
   viewBox="0 0 1046.2559 423.06224"
   version="1.1"
   sodipodi:docname="grass1deco.svg"
   inkscape:version="1.2.2 (732a01da63, 2022-12-09)"
   xmlns:inkscape="http://www.inkscape.org/namespaces/inkscape"
   xmlns:sodipodi="http://sodipodi.sourceforge.net/DTD/sodipodi-0.dtd"
   xmlns="http://www.w3.org/2000/svg"
   xmlns:svg="http://www.w3.org/2000/svg">
  <sodipodi:namedview
     id="namedview149"
     pagecolor="#ffffff"
     bordercolor="#000000"
     borderopacity="0.25"
     inkscape:showpageshadow="2"
     inkscape:pageopacity="0.0"
     inkscape:pagecheckerboard="0"
     inkscape:deskcolor="#d1d1d1"
     showgrid="false"
     inkscape:zoom="0.78948186"
     inkscape:cx="532.62782"
     inkscape:cy="262.19728"
     inkscape:window-width="1536"
     inkscape:window-height="801"
     inkscape:window-x="-8"
     inkscape:window-y="-8"
     inkscape:window-maximized="1"
     inkscape:current-layer="Background" />
  <defs
     id="defs13">
    <style
       id="style11">.cls-1{fill:#92aa87;}</style>
    <clipPath
       clipPathUnits="userSpaceOnUse"
       id="clipPath254">
      <rect
         style="fill:#000000;stroke-width:0.674269"
         id="rect256"
         width="1047.9214"
         height="812.94446"
         x="242.55685"
         y="-106.11449" />
    </clipPath>
    <clipPath
       clipPathUnits="userSpaceOnUse"
       id="clipPath267">
      <rect
         style="fill:#5f7857;stroke-width:1.05015"
         id="rect269"
         width="1048.1293"
         height="541.8739"
         x="242.34886"
         y="-0.89150596" />
    </clipPath>
    <clipPath
       clipPathUnits="userSpaceOnUse"
       id="clipPath223">
      <rect
         style="fill:#5f7857"
         id="rect225"
         width="1046.2559"
         height="423.06226"
         x="243.61551"
         y="1.2708013"
         ry="0" />
    </clipPath>
  </defs>
  <path
     class="cls-1"
     d="m 1480.47,156.12 c 13.97,-29.69 -13,-48.69 -28.56,-23.76 29.87,-66.98 -37.55,-97.18 -57.33,-47.7 11.87,-74.6 -52.48,-88.28 -71.06,-27.01 -0.35,1.82 -0.86,3.72 -1.54,5.71 0.47,-1.97 0.99,-3.87 1.54,-5.71 7.77,-40.18 -61.92,-40.51 -75.14,-10.77 -18.78,-35.65 -61.33,-8.46 -63.6,19.83 0.13,1.9 0.17,3.89 0.13,5.96 -0.26,-1.98 -0.3,-3.97 -0.13,-5.96 -3.13,-50.93 -59.8,-43.97 -67.92,-1.15 -7.91,-6.89 -33.64,20 -29.06,30.37 -25.67,-27.22 -72.2,35.05 -40.19,63.96 -4.77,-1.7 -8.95,-1.64 -12.46,-0.34 -8.9,-24.8 -50.84002,-27.48 -69.89002,-0.22 -5.55,-8.69 -41.77,5.88 -40.91,16.45 -9.05,-18.07 -34.96,-14.2 -52.3,-0.98 -41.36,-1.27 -83.15,-1.91 -125.3,-1.91 -17.25,0 -34.45,0.11 -51.57,0.32 -13.39,-15.89 -42.57,-11.99 -58.21,1.15 -3.19,2.68 -5.82,5.74 -7.63,9.1 -0.59,1.72 -1.29,3.49 -2.1,5.3 0.47,-1.83 1.18,-3.6 2.1,-5.3 1.07,-3.14 1.78,-6.13 2.15,-8.96 5.07,-37.91 -48.85,-47.18 -71.23,-15.17 -5.55,-8.69 -41.76998,5.88 -40.90998,16.45 -4.51,-9.01 -13.21,-12.56 -22.94,-12.23 7.62,-33.25 -25.54,-53.81 -64.52,-26.77 -1.41,1.21 -3,2.39 -4.78,3.53 1.6,-1.26 3.2,-2.44 4.78,-3.53 31.22,-26.82 -23.51,-70.6 -52.5,-55.41 7.45,-39.79 -42.97,-44.95 -62.48,-24.15 -1.1,1.6 -2.32,3.21 -3.66,4.84 1.04,-1.74 2.28,-3.36 3.66,-4.84 C 346.16,15.15 297.16,-14.7 264.05,13.97 262.12,3.6 225.04,8.72 222.18,19.75 218.94,-17.73 143.38,2.3 150.56,45.08 137.28,23.8 108.49,45.2 112.44,64.12 c 0.59,1.29 1.09,2.72 1.51,4.29 -0.71,-1.4 -1.21,-2.84 -1.51,-4.29 -12.36,-27.38 -59.99,5.62 -47,35.82 -4.23,-1.75 -8.22,0.5 -11.07,4.08 -2.84,3.58 -4.01,8.18 -5.1,12.62 -1.77,-2.92 -3.91,-6.11 -7.25,-6.81 -3.33,-0.71 -6.62,1.35 -9.01,3.76 -4.64,4.69 -7.51,11.1 -7.89,17.68 -0.11,1.9 -0.07,3.97 -1.23,5.47 -0.97,1.26 -2.56,1.83 -4,2.49 -7.93,3.6 -13.35,11.34 -16.14,19.59 C 0.96000004,167.06 0.47000004,175.88 3.8659437e-8,184.57 L 0.35000004,1470.22 C 224.9,1516.49 478.43,1542.51 746.74998,1542.51 1029.2,1542.51 1295.24,1513.67 1528.35,1462.76 V 252.64 c 0,-69.94 15,-107.94 -47.88,-96.52 z M 422.23,244.86 c 1.04,0.98 2.04,2.11 3,3.38 -1.2,-1.05 -2.2,-2.18 -3,-3.38 z"
     id="path15"
     clip-path="url(#clipPath223)"
     transform="translate(-243.61551,-1.2708013)" />
  <path
     class="cls-1"
     d="m 52.296543,118.6907 c 3.169904,-2.60657 6.43411,-4.71525 8.148074,-8.18045 1.071005,-2.16496 1.94342,-4.58523 2.211834,-6.96928 0.581643,-5.157415 0.748679,-10.366875 1.013781,-15.561505 0.315949,-6.264254 0.497122,-12.533448 0.85268,-18.793025 0.284147,-4.977677 1.159841,-9.879373 2.732184,-14.61996 0.259686,-0.777151 0.928101,-1.531287 1.609364,-2.02249 1.392994,-0.994112 3.096158,-0.329782 3.889583,1.755185 0.735643,1.931854 1.406746,4.015465 1.47071,6.052602 0.127476,4.217368 0.08203,8.466431 -0.349204,12.658154 -0.613592,5.973334 -1.545647,11.915681 -2.515305,17.847137 -0.594556,3.626103 -1.51452,7.198777 -2.286147,10.800822 -0.06444,0.31546 -0.119519,0.64729 -0.08838,0.96319 0.01997,0.18995 0.181749,0.45505 0.337171,0.50695 0.150942,0.044 0.40619,-0.10728 0.554214,-0.24168 3.872767,-3.548424 7.659574,-7.224105 10.197738,-11.861959 1.0094,-1.835045 1.342247,-4.111731 1.652023,-6.238264 0.736719,-5.010144 0.04915,-10.024134 -0.318907,-15.034122 -0.329026,-4.439466 -0.639976,-8.894139 -0.672895,-13.343238 -0.05573,-7.592668 1.182584,-15.014733 3.810677,-22.149749 0.482869,-1.312567 1.413362,-2.522612 2.366647,-3.576011 1.171875,-1.290111 3.254926,-0.665637 3.520662,1.075378 0.415888,2.705224 0.906221,5.45928 0.816439,8.167891 -0.264239,7.731799 -0.646313,15.470329 -1.313569,23.180708 -0.467367,5.374686 -1.460781,10.705956 -2.252718,16.047928 -0.215416,1.471926 -0.574697,2.922605 -0.815215,4.387281 -0.06822,0.423492 0.04693,0.872883 0.07488,1.317408 0.426944,-0.108045 0.971147,-0.07981 1.2699,-0.334195 2.329948,-1.990838 4.562101,-4.091906 6.916206,-6.048468 4.200805,-3.480633 3.775349,-8.316294 3.907855,-12.983382 0.167275,-5.727687 0.348991,-11.457988 1.705165,-17.052306 1.27936,-5.282455 2.40515,-10.623095 4.15274,-15.75612 1.91299,-5.610231 4.78727,-10.818916 8.92144,-15.198578 0.28641,-0.305658 0.59421,-0.591514 0.92007,-0.844822 0.74625,-0.57468 1.53656,-0.877436 2.45665,-0.358344 0.94981,0.534537 1.35502,1.347648 1.32289,2.422631 -0.21159,6.233094 -1.24124,12.324476 -3.31114,18.216528 -3.11338,8.856058 -6.28982,17.693778 -9.37989,26.563422 -0.76707,2.198536 -1.33028,4.469797 -1.88962,6.728556 -0.13573,0.560773 0.12479,1.215971 0.20067,1.824459 0.58462,-0.205594 1.33968,-0.245787 1.72807,-0.644637 1.97202,-2.026428 4.16395,-3.941399 5.68819,-6.281794 2.91708,-4.487148 5.68845,-9.105042 8.06535,-13.891929 5.01115,-10.085698 11.37894,-19.205141 18.98391,-27.44076 3.18039,-3.442338 6.92012,-6.367869 10.46263,-9.459704 0.74931,-0.655642 1.71925,-1.131352 2.66266,-1.492031 2.31116,-0.891541 3.69362,-0.108793 3.79214,2.749881 0.0617,1.715937 -0.60868,3.581107 -1.37245,5.18046 -2.16274,4.542119 -4.81914,8.811533 -8.16826,12.600461 -3.96625,4.482922 -7.78383,9.111231 -11.96529,13.395341 -6.2075,6.356296 -12.66695,12.475846 -19.03413,18.676678 -1.5687,1.529668 -3.20648,2.991542 -4.79676,4.501252 -0.2898,0.270602 -0.5126,0.615162 -0.60408,1.236496 0.80796,-0.222616 1.6319,-0.406535 2.42112,-0.682339 5.39115,-1.894292 10.69618,-4.079528 16.17872,-5.654131 9.52668,-2.727392 19.12531,-5.208891 29.07272,-6.000294 4.12008,-0.332905 8.18524,-0.429443 12.1972,0.645212 0.69558,0.188028 1.65761,0.82161 1.77143,1.393348 0.14816,0.759018 -0.15601,1.925615 -0.71135,2.453379 -2.84103,2.695098 -6.43468,3.917177 -10.22608,4.386311 -6.87954,0.842175 -13.78718,1.498886 -20.68789,2.225783 -8.32114,0.874239 -16.70889,1.319997 -24.84257,3.523859 -3.67734,0.993224 -7.49276,1.639537 -10.70367,3.893225 -1.24852,0.872332 -2.45505,1.81139 -3.67949,2.717972 l 0.0826,0.514991 c 0.85881,0.07167 1.72087,0.273922 2.56955,0.192648 8.17583,-0.773156 16.33107,-1.804609 24.52115,-2.321334 4.33398,-0.270889 8.72701,0.218646 13.08009,0.587503 2.48946,0.210361 4.9404,0.859666 7.40642,1.315567 0.2715,0.05145 0.60612,0.07348 0.79713,0.237748 0.63308,0.545033 1.49114,1.066607 1.71155,1.764744 0.12346,0.397223 -0.72253,1.386255 -1.32911,1.667295 -1.42944,0.649371 -2.96952,1.068909 -4.47925,1.524481 -5.49818,1.651883 -11.16033,1.305811 -16.77452,1.123684 -6.92773,-0.215211 -13.84613,-0.720963 -20.76775,-1.098072 -2.69219,-0.146413 -5.39047,-0.342316 -8.082851,-0.441024 -2.781485,-0.0973 -5.09164,0.978651 -7.103544,2.884442 -1.684243,1.598415 -3.489361,3.073127 -5.225486,4.615609 -0.358467,0.318866 -0.64702,0.726223 -0.970522,1.089334 l 0.157584,0.420766 c 0.595673,-0.03189 1.200182,1.97e-4 1.780879,-0.09737 5.497164,-0.942956 10.953461,-2.238698 16.4869,-2.789222 5.91772,-0.5823 11.90667,-0.516552 17.7782,0.824528 0.76763,0.174836 1.51058,0.458457 2.24903,0.733974 1.57393,0.592747 2.13485,2.09203 1.0055,3.305782 -0.94864,1.013847 -2.20254,1.857304 -3.4707,2.444338 -3.33849,1.541577 -6.99425,1.402209 -10.55779,1.603277 -9.16182,0.52818 -18.208767,-0.915282 -27.306502,-1.596035 -0.367821,-0.02482 -0.747355,-0.0803 -1.102239,-0.196856 -1.222851,-0.415938 -2.234248,-0.150006 -3.198499,0.72974 -3.363398,3.061921 -6.774198,6.076001 -10.15729,9.111761 -0.193864,0.17574 -0.307844,0.44943 -0.673528,1.00489 0.767148,0.0588 1.327042,0.22111 1.828528,0.11417 2.773372,-0.5802 5.527411,-1.28192 8.303265,-1.84782 4.332778,-0.87818 8.669961,-1.74828 13.031022,-2.48868 3.207754,-0.54973 6.437997,-1.10659 9.680173,-1.25761 3.3249,-0.15434 6.67153,0.13408 9.99865,0.34867 0.54234,0.0345 1.40733,0.62628 1.47848,1.06291 0.0879,0.54377 -0.34466,1.40036 -0.82377,1.75927 -2.34885,1.77397 -5.13385,2.58269 -7.95421,3.23111 -4.488149,1.03771 -8.934182,2.35361 -13.474764,3.00789 -4.248027,0.60953 -8.601641,0.38374 -12.898976,0.7403 -4.526938,0.3718 -9.04901,0.91552 -13.550122,1.5744 -1.125188,0.16477 -2.143572,1.04242 -3.211856,1.59875 l 0.03584,0.48776 c 0.615235,0.042 1.237408,0.15422 1.84758,0.11975 4.034263,-0.24871 8.067433,-0.68183 12.102846,-0.74607 4.46627,-0.0689 8.938384,0.21854 13.25986,1.51931 0.614726,0.18505 1.606906,0.90239 1.542918,1.17026 -0.160255,0.71733 -0.65953,1.61595 -1.280741,1.92712 -3.350839,1.70166 -6.9335,2.88602 -10.689879,2.92886 -4.966449,0.0534 -9.943485,-0.20994 -14.908044,-0.42193 -1.52195,-0.0662 -3.063051,-0.30165 -4.552583,-0.64492 -2.778311,-0.64874 -4.694031,1.01895 -6.747764,2.33976 -0.33556,0.21639 -0.609383,0.5257 -1.148325,0.99683 2.386391,0.11912 4.50809,0.30472 6.622318,0.30399 3.030206,-0.008 5.779076,1.04828 8.362323,2.37017 2.380194,1.22205 2.773364,3.77069 -0.02663,5.40699 -2.617802,1.5255 -5.43768,1.60804 -8.265769,1.22446 -2.296568,-0.3113 -4.571487,-0.86181 -6.802037,-1.49494 -2.180214,-0.61852 -4.299242,-1.47163 -6.739438,-2.32241 -0.951255,0.99944 -2.181964,2.1156 -3.204548,3.40805 -2.352708,2.98674 -4.568241,6.08825 -6.927064,9.07326 -0.493817,0.62056 -1.547964,1.48107 -2.016959,1.31098 -1.253329,-0.45208 -2.354557,-1.35787 -3.416422,-2.21134 -0.143528,-0.11661 0.188514,-1.05012 0.497829,-1.45825 2.175216,-2.91545 4.339624,-5.84085 6.645686,-8.64335 0.977213,-1.18287 1.050383,-1.95272 0.08816,-3.22056 -3.97583,-5.24456 -6.737654,-11.03047 -8.328195,-17.49288 -1.236339,-5.0026 -2.13998,-9.97696 -2.07392,-15.12019 0.04192,-3.813627 0.693518,-7.518654 2.101003,-11.079549 0.738807,-1.865737 1.868474,-2.233756 3.428217,-1.004082 0.526473,0.418658 1.085669,0.98313 1.298314,1.590344 1.699532,4.816411 3.703372,9.571014 4.873397,14.520297 1.673434,7.09336 2.716633,14.33818 4.030852,21.51835 0.213172,1.14611 0.440859,2.28965 0.711658,3.42518 0.219443,0.93654 0.863734,1.13699 1.524843,0.50352 1.203782,-1.16491 2.355765,-2.38572 3.402613,-3.69162 0.268234,-0.33831 0.178864,-1.08697 0.06115,-1.5985 -1.339831,-5.68046 -2.079337,-11.43238 -2.549613,-17.24262 -0.420525,-5.182025 -1.217287,-10.336798 -1.691715,-15.520811 -0.63317,-6.941801 -0.138588,-13.774826 2.47286,-20.334973 0.120579,-0.299312 0.273182,-0.589089 0.431711,-0.877313 0.962993,-1.698446 2.467895,-1.855388 3.589655,-0.220775 0.672747,0.972503 1.178376,2.121593 1.487001,3.268118 1.810568,6.785352 2.244893,13.730852 2.674557,20.715929 0.440473,7.206413 -0.0471,14.321045 -0.678763,21.462115 -0.114867,1.28967 -0.304343,2.5782 -0.379584,3.87255 -0.02318,0.40927 0.217175,0.82677 0.398143,1.47253 z"
     id="path239"
     style="fill:#ef98f9;stroke-width:0.654977" />
  <path
     class="cls-2"
     d="m 904.55161,238.66355 c 0.23433,-0.43316 0.14202,-0.97283 -0.22013,-1.30658 -3.25934,-2.9966 -6.41926,-6.12102 -9.85612,-8.9046 -5.24051,-4.23927 -11.1414,-7.74714 -15.97716,-12.37696 -6.56838,-6.29145 -7.36369,-12.6326 -2.78357,-19.17969 0.44026,-0.63199 1.38469,-0.61778 1.80364,0.0284 1.91726,2.9753 3.60019,5.95061 5.85119,8.41464 2.86879,3.13862 6.31275,5.80148 9.74251,8.35782 0.61068,0.45446 1.81075,0.12072 2.9256,-0.11361 0.51837,-0.10652 0.88051,-0.57518 0.85921,-1.10775 -0.0426,-1.04384 -0.0213,-2.13029 -0.53967,-2.80488 -2.2013,-2.87588 -4.80735,-5.43933 -7.12936,-8.22291 -2.2084,-2.64866 -4.60142,-5.22631 -6.29145,-8.1945 -2.31491,-4.06175 3.10312,-15.68602 7.56252,-16.94289 0.32664,-0.0923 0.70299,-0.21302 1.01544,-0.14202 6.90213,1.58352 13.88947,2.86879 20.64958,4.91387 4.28897,1.29947 4.16826,5.58845 4.09015,9.24544 -0.11362,5.54585 -0.79531,11.0988 -0.61779,16.62335 0.10652,3.38005 -0.49706,8.54244 4.3884,8.69156 4.99907,0.15623 5.37542,-4.97777 5.37542,-8.60635 0.0142,-8.49985 -0.56808,-16.9926 -0.93733,-25.59896 -0.0213,-0.54677 0.36215,-1.02963 0.90182,-1.12195 10.23248,-1.67582 14.69188,5.72337 16.10497,12.96635 1.56221,8.00278 0.37635,15.87774 -2.57764,23.51837 -2.87589,7.4347 -5.83699,14.8765 -8.03119,22.52423 -0.64618,2.25101 0.15623,4.91386 0.66749,7.49861 0.14912,0.75979 1.02254,1.12194 1.66163,0.69588 2.16579,-1.44858 4.502,-2.76936 5.89379,-4.76473 2.44273,-3.50077 4.35999,-7.56962 5.61686,-11.66687 3.62149,-11.76628 6.85242,-23.66038 10.33899,-35.93794 0.20593,-0.7101 1.05094,-1.02254 1.65452,-0.59648 3.89843,2.71257 8.1377,5.29021 11.68108,8.60636 4.20376,3.92683 4.38839,9.55789 2.67706,14.62797 -2.15159,6.37666 -5.11979,12.49058 -7.99568,18.59741 -2.73387,5.80148 -5.97901,11.36862 -8.66317,17.19141 -0.91602,1.98827 -1.30657,4.22507 -1.82494,6.63229 -0.19173,0.90182 0.7527,1.62612 1.56221,1.18586 9.24544,-4.97066 24.86043,-31.42882 27.88544,-46.57516 0.13492,-0.6888 0.88052,-1.07935 1.51251,-0.78111 11.8444,5.58135 16.2541,17.8376 11.43255,29.56838 -0.12072,0.29824 -0.11362,0.63199 0.0355,0.91603 3.45816,6.7033 7.21461,12.43377 9.33781,18.71101 3.8699,11.43254 -0.1065,19.64835 -11.21957,24.5054 -7.70455,3.36586 -15.6292,6.22754 -23.54677,9.28805 -0.85212,0.32665 -0.94443,1.51961 -0.14202,1.95277 7.72584,4.18956 14.9049,0.0781 22.01297,-3.43687 0.56807,-0.28404 1.26397,-0.0213 1.4912,0.56808 3.20253,8.40753 -0.7598,17.8092 -9.74963,23.54677 -12.91663,8.25131 -26.88421,4.18246 -33.33187,-9.71411 -0.29114,-0.63198 -0.48997,-1.39179 -0.96573,-1.83204 -0.91602,-0.84502 -1.88885,-1.63322 -2.86169,-2.41433 -0.66039,-0.53257 -1.64033,-0.13492 -1.75394,0.70299 -0.17042,1.28528 -0.32663,2.57055 0.0213,3.6996 5.09849,16.79376 1.3847,25.2155 -14.52854,32.60049 -8.93301,4.14696 -17.88731,6.95184 -27.31738,1.4912 h -0.0142 c -0.7243,-0.43316 -0.67459,-1.5125 0.071,-1.89595 4.88545,-2.50664 9.6857,-4.88546 14.32973,-7.51991 1.74683,-0.98704 3.44396,-2.57055 4.39549,-4.29608 0.69589,-1.25687 0.72429,-2.88299 0.85921,-4.4523 0.0497,-0.61068 -0.41895,-1.15036 -1.02964,-1.17166 -1.71133,-0.0639 -3.59308,-0.31954 -4.54461,0.50417 -3.90552,3.36585 -7.4205,7.21457 -10.86446,11.07749 -5.50324,6.18493 -12.04322,9.53658 -20.35844,7.24297 -9.05372,-2.49953 -16.05526,-7.73294 -20.65668,-16.00555 -0.26984,-0.48997 -0.13492,-1.10775 0.32664,-1.42729 0.23433,-0.16333 0.39054,-0.25564 0.49707,-0.22013 15.23155,5.09848 27.4949,-1.12195 38.81382,-10.3887 1.32788,-1.08645 1.94567,-3.03921 2.71257,-4.80735 0.24143,-0.56097 -0.0284,-1.21426 -0.59649,-1.43439 -1.86754,-0.7243 -3.7848,-1.72553 -5.48903,-1.4486 -4.40259,0.7172 -8.60636,2.57055 -12.97346,3.59309 -6.02161,1.41309 -12.17104,3.7138 -18.17844,3.46526 -16.21149,-0.66039 -24.34919,-16.21148 -16.75116,-30.88916 0.32664,-0.63198 1.18586,-0.7811 1.69713,-0.28403 7.58382,7.33528 17.47545,6.31275 26.98363,6.82402 4.67953,0.24853 9.35196,0.67459 14.03149,0.90182 1.53381,0.0781 3.07471,-0.0852 4.61562,-0.18463 0.45447,-0.0284 0.84502,-0.34084 0.96573,-0.7811 l 0.0781,-0.28404 c 0.14202,-0.50417 -0.0994,-1.05094 -0.57517,-1.27107 -2.66286,-1.24977 -5.26181,-2.83328 -8.05959,-3.38716 -7.83235,-1.54801 -15.75703,-2.63445 -23.67459,-3.7209 -21.89938,-3.01081 -29.28438,-15.13924 -21.75028,-35.97344 0.7456,-2.05928 1.68298,-4.05465 2.78363,-6.51158 0.34085,-0.7669 1.40599,-0.87342 1.87465,-0.17042 9.83483,14.52145 25.18709,19.57733 39.60913,25.93979 3.39426,1.4983 7.3637,2.02377 11.113,2.2368 1.37049,0.0781 2.81908,-1.15035 4.24637,-2.10898 0.46867,-0.31954 0.61779,-0.94443 0.33375,-1.43439 -0.76691,-1.34919 -1.4557,-2.89719 -2.59895,-3.40136 -5.37543,-2.37172 -10.97098,-4.25348 -16.49552,-6.27725 -6.18494,-2.2723 -12.5971,-4.04755 -18.5335,-6.84533 -11.9083,-5.61685 -14.53566,-12.80301 -9.89163,-24.96695 0.48997,-1.27817 1.00123,-2.54924 1.44859,-3.66409 0.24854,-0.62489 1.00124,-0.86632 1.56932,-0.51837 11.07749,6.76721 22.01296,13.54862 33.09045,20.0957 1.98117,1.17166 4.4168,1.56221 6.71751,2.1942 0.48286,0.13492 1.00123,-0.0923 1.23556,-0.53257 l 0.7101,-1.33498 z m 86.65297,10.06204 c -7.60513,8.94722 -17.40444,15.36648 -21.75733,26.59309 -0.28404,0.7314 0.29824,1.5125 1.08645,1.4628 12.95213,-0.83081 23.0355,-13.22198 22.58104,-27.3813 -0.0284,-0.99413 -1.26397,-1.42729 -1.91016,-0.67459 z m -45.73726,19.76907 c -0.19172,-0.65329 -0.93022,-0.98703 -1.53381,-0.66749 -3.35875,1.76814 -5.64526,4.00494 -5.36122,7.94597 0.0497,0.65329 2.75517,1.81785 3.98364,1.56221 3.33745,-0.68879 4.37419,-3.79191 2.91139,-8.84069 z m -12.95924,30.21457 c -0.12072,-0.40476 -0.46157,-0.7101 -0.88052,-0.774 -3.35875,-0.51127 -6.39796,0.12071 -8.49275,3.27354 -0.29114,0.43315 0.6888,2.49243 1.35629,2.64865 3.92683,0.92313 6.46187,-1.10775 8.09509,-4.5091 0.071,-0.14912 0.0142,-0.35505 -0.071,-0.64619 z m 14.8765,-10.18987 c 3.94103,-0.0781 5.66656,-1.68293 6.07132,-5.62396 0.0639,-0.63909 -0.44026,-1.19296 -1.07935,-1.19296 -3.90552,0 -5.66656,1.62612 -6.09262,5.62396 -0.071,0.64618 0.44736,1.21426 1.10065,1.20006 z"
     id="path121"
     style="fill:#f59e1c;stroke-width:0.710096" />
  <path
     class="cls-3"
     d="m 245.02561,311.65705 c -3.06513,-3.77958 -6.08739,-7.59473 -9.18953,-11.32661 -4.19527,-5.0573 -8.60483,-9.93685 -12.65936,-15.10668 -6.89,-8.76751 -7.03174,-20.57943 -0.60611,-29.64865 2.04918,-2.89369 4.26029,-3.28088 6.75364,-0.7549 2.35966,2.3879 4.38766,5.11479 6.55688,7.69897 2.7561,3.27624 5.57357,6.49307 8.24396,9.84043 2.79773,3.50345 6.63601,4.85203 10.83251,5.52681 1.13867,0.18751 1.93058,-0.97162 1.36319,-2.12248 -0.93924,-1.87871 -1.87481,-3.79664 -3.08557,-5.50758 -3.54948,-5.02273 -7.25504,-9.9181 -10.83203,-14.92015 -1.07804,-1.51246 -1.99999,-3.15229 -2.88857,-4.80064 -3.77473,-6.97451 -3.69777,-13.9926 0.676,-20.56385 4.00216,-6.00337 8.51815,-11.65413 13.08477,-17.82358 0.64387,1.27894 1.13551,2.06914 1.46305,2.92315 2.34261,6.06643 4.61533,12.15893 6.97012,18.21953 2.21549,5.70799 4.9979,11.09892 9.33904,15.53942 0.41591,0.42954 0.8562,0.84742 1.37659,1.35418 2.02166,-1.74941 3.05222,-3.84705 2.20529,-6.39176 -1.68488,-5.0863 -3.6006,-10.09174 -5.34319,-15.15783 -1.56969,-4.54983 -3.24849,-9.07725 -4.5116,-13.72181 -2.93898,-10.85127 1.23121,-19.78168 11.53993,-24.28792 5.45084,-2.37671 11.2046,-4.05989 16.78352,-6.13852 8.07373,-3.01398 15.61003,-6.97598 22.08266,-12.77943 0.31267,-0.28491 0.6609,-0.52695 1.02081,-0.74466 2.00437,-1.23924 2.56201,-0.98258 3.15012,1.31937 2.95479,11.55527 5.87624,23.11905 8.91896,34.65459 2.45633,9.31516 -0.21113,16.64789 -8.25735,21.88832 -3.71166,2.4108 -7.67096,4.25884 -12.13043,4.90878 -3.82977,0.55741 -7.01688,2.28198 -9.53824,5.7993 5.84142,0.3721 11.15126,-0.56617 16.29381,-2.5552 5.20026,-2.00924 9.56599,-5.27331 13.96168,-9.45811 0.43272,1.07317 0.98794,1.85533 1.02033,2.65626 0.58468,11.87645 -2.05429,23.24786 -5.75256,34.37869 -2.00971,6.06572 -6.63529,9.52191 -13.00855,10.28898 -5.92837,0.71082 -11.86745,1.3369 -17.81214,1.74844 -2.89368,0.19799 -4.71371,1.80567 -6.58415,3.72967 2.16265,1.68099 4.3672,2.63775 7.17005,2.26615 7.04951,-0.93436 14.12581,-1.65688 21.18603,-2.5065 4.93896,-0.60293 5.88331,0.39693 4.22279,5.03663 -2.9797,8.33646 -5.9503,16.67613 -9.19707,24.90863 -2.59806,6.58781 -7.01713,9.2258 -14.12897,8.78188 -5.7752,-0.35895 -11.52897,-0.92293 -17.30222,-1.40264 -2.40106,-0.19579 -4.80552,-0.55473 -7.20634,-0.57836 -1.49494,-0.01 -2.99766,0.46511 -4.4775,1.01814 11.74668,6.5262 24.44061,8.2532 37.68441,8.09834 -0.0146,4.65112 -1.07658,8.88365 -3.84632,12.44529 -1.79202,2.30585 -3.82026,4.65017 -6.24324,6.18772 -5.21535,3.31984 -10.60312,6.46776 -16.20566,9.07458 -7.80587,3.63445 -15.65094,2.77096 -22.69485,-2.07256 -4.63019,-3.18566 -8.75923,-7.10624 -13.2063,-10.78429 -2.56566,3.64346 -4.59415,8.06277 -5.59865,12.85198 -0.71032,3.40457 -0.96918,6.90705 -1.24873,10.382 -0.35773,4.38887 -2.12179,5.89476 -6.76728,5.34564 -1.76793,-12.10998 3.04223,-22.14157 10.45458,-31.71439 -2.99547,0.14197 -5.51124,0.12857 -7.99533,0.3996 -11.0619,1.20491 -17.87326,-4.76143 -21.98038,-13.7861 -2.835,-6.24956 -4.38861,-12.91944 -5.13718,-19.6911 -0.67503,-6.08786 -0.69645,-12.24977 -0.99013,-18.38585 -0.0239,-0.39303 0.0883,-0.79896 0.19943,-1.6912 3.20563,1.99681 6.3365,3.5726 9.04488,5.68825 8.20523,6.43585 16.19787,13.13106 24.39677,19.58492 1.80736,1.42457 4.03675,2.33946 6.16288,3.28892 0.49773,0.22553 1.34346,-0.33776 2.03237,-0.54109 l 0.21382,-0.89662 z"
     id="path123"
     style="fill:#5463aa;stroke-width:0.955" />
  <path
     class="cls-1"
     d="m 172.58167,191.6341 c -1.20594,-2.32486 -2.42432,-4.36377 -3.35676,-6.5208 -2.31243,-5.37703 -6.20378,-8.77109 -11.89783,-10.20703 -4.9046,-1.23703 -8.82703,-3.87892 -11.3446,-8.40433 -1.39243,-2.50513 -3.68,-3.72973 -6.42757,-4.1027 -3.57432,-0.48486 -6.9373,0.3419 -10.64838,2.05135 0.92,0.89514 1.54162,1.85244 2.42433,2.3 3.81054,1.93324 6.68865,4.89217 8.53486,8.57838 4.32027,8.64054 11.13324,14.80703 18.91595,20.1219 1.85865,1.26811 3.68,2.60459 5.67541,4.01567 -2.80352,3.07702 -5.50757,6.03595 -8.51622,9.33676 -3.13297,-4.14622 -6.29081,-8.06243 -9.15027,-12.19 -2.84081,-4.10892 -6.16649,-7.4719 -11.08974,-8.89541 -1.23702,-0.36054 -2.52378,-0.77081 -3.78567,-0.75838 -6.07325,0.056 -11.64297,-1.90838 -17.20652,-3.99081 -1.9021,-0.71486 -3.83536,-1.33648 -5.8059,-2.02026 0.32941,7.90081 6.58296,15.81405 13.93675,17.89026 5.29,1.4919 9.89,4.28919 13.82486,8.05622 3.61162,3.46243 6.98081,7.17352 10.39973,10.82865 0.27973,0.29838 0.3854,1.13135 0.18027,1.46703 -3.22,5.09108 -6.50216,10.13865 -9.98325,15.51567 -2.77243,-2.82216 -5.4454,-5.50135 -8.06243,-8.23648 -0.77702,-0.81433 -1.46703,-1.73433 -2.07621,-2.67919 -3.81676,-5.91784 -9.38027,-9.41757 -15.98813,-11.32595 -2.92785,-0.84541 -5.95514,-1.53541 -8.98244,-1.77784 -4.475635,-0.36054 -8.385625,1.31162 -11.419185,4.64352 -2.03889,2.23783 -3.86027,4.67459 -5.92406,7.20459 1.74057,0.0373 3.46249,0.28595 5.12218,0.0746 9.02597,-1.15 16.926755,1.24324 23.366745,7.67081 5.42056,5.40189 11.73002,9.61027 17.90894,13.99892 1.19351,0.85162 1.4173,1.56648 0.85163,2.89676 -0.94487,2.2254 -1.67838,4.53784 -2.6046,7.0927 -0.91378,-1.03811 -1.71568,-1.92081 -2.48027,-2.83459 -3.44379,-4.11514 -7.44703,-7.57758 -12.97944,-8.03757 -5.45167,-0.45379 -10.97788,-0.50352 -16.441915,-0.25487 -4.51918,0.21135 -7.54647,4.43217 -7.47185,9.66622 0.98213,-0.35433 1.9021,-0.7646 2.8656,-1.01324 3.42515,-0.88892 6.5457,0.11811 9.405185,1.87107 7.85107,4.80514 15.63998,9.70352 23.41647,14.62676 0.45379,0.29217 0.7646,1.12514 0.79568,1.7219 0.23621,4.45702 0.3854,8.92648 0.55946,13.38973 0.0249,0.63405 0.0684,1.26811 0.10567,2.03891 0.69001,-0.0186 1.24946,-0.0311 2.07622,-0.0497 0.0373,-1.88351 0.0932,-3.6427 0.11189,-5.39567 0.0311,-2.95271 -0.10568,-5.91784 0.0932,-8.85811 0.16784,-2.4927 1.74676,-3.91 4.20838,-4.44459 5.52001,-1.20595 10.56136,-0.31703 15.06812,3.20135 0.72107,0.55946 1.51675,1.02567 2.27513,1.5354 1.37378,0.92622 2.81595,1.42973 4.54406,1.31162 4.38864,-0.29216 7.35377,1.75919 9.21243,5.70649 0.72108,1.5354 1.77783,2.92784 2.77865,4.31405 0.22378,0.31081 0.90135,0.49109 1.29918,0.39784 0.26108,-0.056 0.57189,-0.72108 0.54703,-1.08784 -0.29216,-4.35135 -0.55324,-8.7027 -1.00081,-13.0354 -0.35432,-3.38162 -2.49892,-5.53865 -5.65675,-6.32189 -3.46865,-0.85784 -6.55811,-2.43676 -9.53568,-4.25811 -5.22784,-3.20135 -10.85973,-3.86027 -16.79622,-3.13297 -1.36135,0.16783 -2.74757,0.18026 -4.37622,0.2735 1.02568,-3.03973 1.92082,-5.84945 2.96514,-8.60323 0.12432,-0.33568 1.06918,-0.5719 1.59135,-0.51595 4.76784,0.51595 9.52324,1.09406 14.27865,1.67216 5.93649,0.7273 11.86676,1.47324 17.79703,2.20675 3.33189,0.41028 6.70108,0.90136 9.43,2.99622 1.63487,1.24946 3.25108,2.77865 4.26432,4.53163 2.35595,4.07783 6.79433,6.04837 12.78676,4.72432 -0.52216,-0.96351 -1.00703,-1.88973 -1.51676,-2.80351 -3.28216,-5.88055 -6.58919,-11.74244 -9.84027,-17.63541 -0.89513,-1.62243 -2.15081,-2.47405 -3.95973,-2.97135 -3.99702,-1.09406 -7.92567,-2.43054 -11.87297,-3.70487 -5.70027,-1.84 -11.3819,-2.43054 -17.30595,-0.78324 -3.49351,0.97594 -7.18595,1.23081 -11.27622,1.88351 3.66135,-5.7873 7.08027,-11.18919 10.55514,-16.69054 10.18216,6.24108 21.50189,7.34757 32.84649,8.32973 6.96838,0.60298 12.84271,3.31324 17.39298,8.75243 2.84081,3.38784 6.30945,5.68784 11.27621,5.63811 -1.03811,-1.90216 -2.05757,-3.63027 -2.94027,-5.43297 -1.52919,-3.12676 -3.17649,-6.22865 -4.4073,-9.47352 -2.38703,-6.27216 -6.80054,-10.2008 -13.25297,-11.56837 -4.35757,-0.92622 -8.8519,-1.20595 -13.26541,-1.88352 -6.16649,-0.94486 -12.32054,-1.98918 -18.49325,-2.99 1.06298,-5.04757 4.86731,-8.32973 9.60406,-7.77027 17.23136,2.0327 33.87217,5.86811 47.87109,17.0573 1.87107,1.49811 3.88513,2.82216 5.88054,4.26432 2.92162,-6.79432 0.0622,-14.75729 -6.75081,-18.00216 -5.62568,-2.6854 -10.79757,-5.96135 -15.81406,-9.6227 -5.86811,-4.28297 -12.39513,-6.91865 -19.84216,-6.6327 -0.67757,0.0249 -1.34892,0.0684 -2.20054,-0.21135 2.38081,-2.15082 4.64351,-4.46325 7.21702,-6.35298 0.86406,-0.63405 2.69163,-0.59054 3.78568,-0.14297 5.37703,2.18811 10.74784,4.39486 15.55297,7.79513 3.56811,2.52379 7.6646,3.28838 12.00973,2.67919 4.43839,-0.62162 8.42919,-2.40567 12.63136,-4.76162 -7.44082,-2.20676 -13.17216,-6.89379 -19.54379,-10.39351 -4.44459,-2.44297 -9.13784,-4.03433 -14.63297,-3.86649 3.26351,-3.93486 6.51459,-7.30406 11.52486,-8.13081 4.88595,-0.80189 8.19298,-3.55568 10.26919,-7.94432 3.60541,-7.60244 9.0446,-13.17217 17.2873,-15.64622 0.67135,-0.19892 1.35514,-0.36676 2.03271,-0.55325 -0.14298,-0.36054 -0.27974,-0.72108 -0.42271,-1.08162 -0.98837,-0.26108 -2.02026,-0.83919 -2.95892,-0.72108 -5.97378,0.75217 -12.00351,1.32406 -17.87162,2.60459 -8.61567,1.88352 -13.68189,7.70811 -15.88865,16.10001 -0.50351,1.9208 -0.73973,3.91621 -1.15622,5.86189 -0.6527,3.04594 -2.34351,5.37081 -5.12216,7.18594 -1.28675,-2.1135 -2.57973,-4.14 -3.76703,-6.22864 -2.81594,-4.91703 -6.35919,-9.18136 -10.85351,-12.67487 -3.38163,-2.62946 -6.41514,-5.59459 -8.06865,-9.70351 -0.19892,-0.4973 -0.73973,-0.92622 -1.2246,-1.2246 -1.23702,-0.75216 -2.53,-1.40486 -4.07783,-2.25027 0.45378,5.70027 -0.41649,11.28243 1.59757,16.5973 0.47243,1.24324 1.14378,2.46162 1.96432,3.50595 4.17109,5.28378 8.40433,10.51783 12.63757,15.75189 3.01487,3.73595 2.99622,4.41351 -0.52838,7.73297 -2.46784,2.32487 -4.96676,4.60622 -7.67702,7.11135 z"
     id="path125"
     style="fill:#9b70c1;stroke-width:0.621621" />
  <path
     class="cls-4"
     d="m 777.70039,304.63099 c 2.30767,-1.60414 4.47908,-2.92966 6.4327,-4.50632 4.85374,-3.93942 10.30704,-5.24236 16.58431,-3.83784 5.41114,1.21388 10.52648,0.63286 15.17592,-2.40154 2.57578,-1.67976 5.40241,-1.72945 8.28345,-0.73971 3.74789,1.28088 6.63838,3.68752 9.46659,7.09269 -1.33245,0.39888 -2.40266,1.00282 -3.48636,0.9929 -4.66707,-0.0303 -8.91275,1.35433 -12.49586,3.93507 -8.40163,6.03134 -18.04327,8.53337 -28.24956,9.75791 -2.43772,0.2966 -4.86197,0.66472 -7.49717,1.03343 1.27322,4.25546 2.50145,8.34606 3.85654,12.91039 5.07119,-2.38277 10.06051,-4.53207 14.84128,-7.03209 4.76988,-2.49099 9.6532,-4.0375 15.16061,-2.99548 1.38205,0.25847 2.84562,0.50444 4.08404,1.12118 5.92881,2.9992 12.33827,3.84351 18.79771,4.58199 2.20595,0.25435 4.41353,0.59936 6.67463,0.90904 -4.12765,7.27052 -14.06666,11.68328 -22.28379,10.07912 -5.90828,-1.15948 -11.77023,-0.75802 -17.44589,0.88587 -5.21101,1.50614 -10.30396,3.36466 -15.40948,5.14167 -0.41489,0.14237 -0.9249,0.8785 -0.88302,1.29413 0.70756,6.35225 1.49661,12.69196 2.32847,19.43734 4.07806,-1.30973 7.98759,-2.53461 11.87462,-3.84193 1.15044,-0.38561 2.27488,-0.92428 3.32425,-1.52009 6.59076,-3.71839 13.73592,-4.3124 21.13764,-2.90423 3.27638,0.62463 6.58502,1.44306 9.66394,2.6821 4.56092,1.82814 7.59361,5.30243 8.97582,9.89938 0.92835,3.09876 1.52888,6.26759 2.34087,9.64681 -1.72248,-0.8122 -3.53494,-1.41179 -5.05974,-2.40657 -8.30227,-5.4584 -17.20479,-7.03562 -26.61445,-4.1104 -7.92047,2.46048 -16.13808,3.35692 -24.30716,4.48884 -1.57659,0.21561 -2.14156,0.78596 -2.23278,2.31406 -0.1454,2.54744 -0.54066,5.0818 -0.86493,7.93405 1.39514,-0.53368 2.61084,-0.97351 3.79132,-1.46681 5.3561,-2.20575 10.95064,-3.5157 16.5973,-1.26571 5.56977,2.21275 11.0103,4.84538 16.25666,7.7312 4.32823,2.38908 5.27086,7.82911 2.67989,12.71109 -0.78906,-0.80615 -1.49477,-1.64476 -2.32385,-2.34415 -2.9329,-2.4909 -6.47555,-3.05984 -10.12547,-2.79511 -10.00901,0.72058 -20.01822,1.55163 -30.01027,2.41438 -0.58675,0.0461 -1.28853,0.68416 -1.61084,1.2368 -2.376,4.07839 -4.66697,8.21485 -6.99595,12.3277 -0.33503,0.5816 -0.68002,1.16227 -1.08678,1.86779 -0.67029,-0.35329 -1.20671,-0.63392 -2.01087,-1.05984 0.86843,-1.78756 1.65706,-3.47206 2.49361,-5.13202 1.39338,-2.79347 2.95052,-5.51153 4.16929,-8.37137 1.03788,-2.42467 0.16765,-4.52381 -1.98525,-6.21945 -4.8302,-3.80135 -10.2045,-5.41353 -16.32383,-4.29275 -0.98081,0.18034 -1.97948,0.22853 -2.97467,0.34732 -1.79656,0.2053 -3.45301,-0.0183 -5.09288,-0.96348 -4.16615,-2.40421 -8.05819,-1.91083 -11.78291,0.89784 -1.44674,1.09131 -3.14832,1.89792 -4.80104,2.7191 -0.36878,0.18681 -1.12721,0.0262 -1.4726,-0.25677 -0.22423,-0.18144 -0.213,-0.9537 -0.0115,-1.28653 2.37398,-3.94801 4.72987,-7.91779 7.25671,-11.78134 1.97589,-3.01071 5.12,-3.99512 8.59166,-3.20177 3.81556,0.87538 7.61081,0.88522 11.40199,0.61346 6.67236,-0.47706 12.513,1.63021 17.98823,5.18998 1.25983,0.8196 2.60318,1.49629 4.15804,2.38336 0.46085,-3.35179 0.92678,-6.43195 1.23328,-9.52687 0.035,-0.37839 -0.77598,-1.05602 -1.31978,-1.25698 -4.92306,-1.82149 -9.87158,-3.58509 -14.8201,-5.34867 -6.17367,-2.19835 -12.3501,-4.36684 -18.52561,-6.54528 -3.47185,-1.22518 -7.00898,-2.39617 -10.69395,-1.75305 -2.20519,0.38842 -4.52486,1.03739 -6.3592,2.19323 -4.27681,2.69731 -9.58171,2.39712 -14.81151,-1.75255 0.97432,-0.65299 1.89702,-1.29066 2.8378,-1.90658 6.0488,-3.93927 12.11568,-7.85679 18.14641,-11.81783 1.65769,-1.09187 3.30306,-1.29107 5.31318,-0.87404 4.44471,0.91354 8.94511,1.55104 13.42818,2.26727 6.47254,1.03095 12.33476,3.23057 17.3586,7.65241 2.96169,2.6141 6.4603,4.63514 10.15625,7.23685 -0.80845,-7.21521 -1.55973,-13.96318 -2.32078,-20.82251 -12.99162,0.93662 -24.63179,-3.50508 -36.23915,-8.08439 -7.13144,-2.80923 -14.19456,-3.10144 -21.28192,-0.20231 -4.4157,1.81075 -8.92968,2.29682 -13.77388,-0.16014 1.92691,-1.28789 3.76843,-2.41295 5.50245,-3.67853 3.00577,-2.20234 6.11371,-4.3149 8.88271,-6.78019 5.36025,-4.74616 11.57989,-6.29954 18.56986,-4.45747 4.72575,1.24083 9.25846,3.15673 13.9195,4.66272 6.50429,2.09838 13.04765,4.1 19.57648,6.1504 1.3911,-5.26419 -0.76374,-10.19378 -5.68147,-11.96455 -17.88297,-6.43558 -36.04894,-10.89884 -55.17534,-7.15568 -2.55755,0.50643 -5.17358,0.77647 -7.81966,1.15421 0.40117,-7.80624 7.042,-13.91017 15.28491,-13.66946 6.80976,0.20852 13.46147,-0.3709 20.14379,-1.38936 7.81245,-1.18502 15.49148,-0.49433 22.66557,3.37333 0.65036,0.35144 1.28894,0.72186 2.25925,0.87194 -1.30305,-3.17361 -2.40586,-6.44918 -4.02423,-9.47121 -0.53883,-1.01397 -2.35812,-1.86527 -3.64354,-1.97421 -6.32667,-0.54541 -12.66513,-1.07184 -19.0122,-0.20313 -4.71979,0.64777 -9.10147,-0.62148 -13.07162,-3.29876 -4.05514,-2.7354 -7.1157,-6.34282 -10.10637,-10.59657 8.36482,1.52745 16.23869,-0.10381 24.18081,-0.30267 5.5365,-0.14031 10.90854,0.62806 16.22018,3.45966 -1.30879,-5.28306 -2.86807,-10.02702 -7.39143,-13.23758 -4.41123,-3.11982 -6.32283,-7.31387 -6.24923,-12.44893 0.12047,-8.89676 -2.53473,-16.77501 -9.43137,-23.09755 -0.565,-0.51426 -1.1527,-1.0005 -1.72859,-1.50573 l 0.92842,-0.80786 c 1.09329,0.23176 2.38259,0.19039 3.25444,0.75313 5.50139,3.60239 11.13611,7.06645 16.2846,11.1182 7.54368,5.95058 9.7117,13.88417 7.83744,22.84959 -0.4307,2.04904 -1.15734,4.04053 -1.68759,6.08034 -0.82635,3.17736 -0.28173,6.19039 1.56473,9.24356 2.27559,-1.36609 4.52298,-2.64441 6.69991,-4.02966 5.13239,-3.26085 10.65793,-5.56138 16.75551,-6.6641 4.58611,-0.83085 8.98648,-2.15095 12.58396,-5.21238 0.43609,-0.37139 1.17237,-0.51414 1.78899,-0.55749 1.57642,-0.10515 3.16259,-0.099 5.08474,-0.14197 -3.18805,5.14808 -5.018,10.81354 -9.55861,14.84221 -1.0608,0.9362 -2.30251,1.76529 -3.61171,2.34712 -6.63023,2.95149 -13.31285,5.81778 -19.97647,8.69588 -4.7592,2.0501 -5.06085,2.70507 -3.20732,7.52643 1.3036,3.38454 2.65977,6.74384 4.10778,10.41291 z"
     id="path127"
     style="fill:#914b2c" />
  <path
     class="cls-2"
     d="m 998.3303,83.148133 c -10.8865,16.016501 -21.03382,31.633127 -27.60321,49.557897 -0.22404,0.61246 -1.06007,0.69479 -1.38297,0.13572 -1.75489,-3.01737 -5.43177,-5.26025 -2.80006,-9.77736 8.32153,-14.30774 13.19589,-29.928829 16.88024,-45.932909 1.2402,-5.368322 2.5617,-12.692809 2.9817,-16.278875 0.4261,-3.586961 0.3478,-8.726846 -2.88287,-1.024994 -3.23063,7.701857 -17.34315,38.833927 -19.64024,61.803678 -0.0696,0.7113 -0.99907,0.941 -1.39786,0.34188 -2.50451,-3.70616 -5.58347,-5.91415 -3.57052,-10.69903 5.89913,-14.041202 9.46654,-28.734254 9.63063,-43.994705 0.0676,-6.780234 -0.71051,-15.975831 -1.28486,-20.355644 -0.57345,-4.373572 -2.78975,-4.799792 -3.51899,-0.308467 -0.73547,4.492242 -7.59888,41.903853 -7.27608,64.164196 0.0125,0.70585 -0.84275,1.05234 -1.33066,0.54257 -5.48336,-5.7947 -5.32344,-6.32141 -3.81298,-13.794276 3.03687,-15.056421 4.56459,-30.233045 3.15443,-45.578823 -0.95098,-10.350069 -2.81453,-20.485647 -7.63614,-29.869421 -0.34556,-0.670484 -1.36508,-0.49163 -1.4533,0.266998 -2.94064,26.154559 -0.73973,52.154034 2.94367,79.017072 0.10449,0.72446 -0.77478,1.17004 -1.30016,0.66569 -4.44968,-4.241604 -7.24165,-8.040172 -6.59446,-14.470494 2.1608,-21.483779 -0.90087,-42.57768 -6.66318,-63.301176 -0.96575,-3.469077 -2.159,-6.879841 -3.3335,-10.293308 -0.27948,-0.788467 -1.44291,-0.633408 -1.50157,0.197471 -1.80203,25.473931 2.86163,50.028016 8.27952,74.728318 0.17776,0.790394 -0.8228,1.278972 -1.33943,0.65859 -2.78327,-3.29618 -5.44805,-6.743324 -6.07693,-10.528756 -1.90831,-11.550791 -1.58267,-23.481169 -3.63282,-34.998754 -2.26334,-12.774627 -6.88254,-24.909816 -13.56724,-36.1605628 -0.41234,-0.6927924 -1.47558,-0.3736866 -1.43611,0.4302787 1.05031,22.4422891 5.89386,44.0888341 13.22561,65.3063511 0.26963,0.764388 -0.6692,1.371565 -1.25265,0.818203 -3.74553,-3.514401 -6.73814,-7.201149 -7.77867,-13.177648 -2.41473,-13.86846 -6.23113,-27.553872 -10.45411,-41.008501 -1.65264,-5.269819 -5.08542,-10.4613838 -7.54376,-14.9965994 -2.46548,-4.54055011 -3.74065,-3.2154571 -2.85595,1.0175886 0.88379,4.2267988 8.28106,33.6334048 14.58795,49.9113238 0.33401,0.857099 -0.8395,1.472627 -1.35721,0.712149 -1.24733,-1.841036 -2.37426,-3.731316 -3.51812,-5.606401 -6.6136,-10.801982 -12.93031,-21.799798 -20.04317,-32.262012 -2.34531,-3.44222 -6.08855,-5.924169 -9.46091,-8.663604 -0.87368,-0.7091367 -2.12652,-0.6878137 -2.97059,0.04594 -0.0348,0.02412 -0.0562,0.05275 -0.091,0.07684 -0.30037,0.260087 -0.34349,0.71257 -0.11283,1.029934 7.30418,10.064854 14.61371,20.122555 21.73552,29.939591 0.50155,0.692682 -0.3227,1.563849 -1.03989,1.099902 -9.02343,-5.851494 -23.48922,-15.578281 -27.26763,-17.685388 -3.77753,-2.100851 -6.68014,0.05186 -2.39812,3.042623 4.28111,2.984504 19.67386,15.204184 30.12104,22.042481 0.81724,0.538768 0.0845,1.779243 -0.78438,1.324424 -11.31604,-5.967071 -22.99586,-11.052892 -35.53164,-14.293944 -0.73467,-0.187292 -1.28587,0.676373 -0.78805,1.25483 0.93934,1.075809 1.96326,2.03103 3.04064,2.914797 13.26251,10.754622 28.31494,18.095334 45.02666,21.116568 6.89961,1.248896 10.47003,5.273073 14.64918,10.733115 0.47112,0.614198 -0.15239,1.462784 -0.88004,1.191598 -22.11921,-8.157482 -43.39297,-14.696475 -66.33989,-17.277381 -0.78451,-0.09085 -1.18913,0.949297 -0.53799,1.397269 0.0501,0.03744 0.10537,0.06768 0.15361,0.0926 20.577,9.973731 42.1375,16.732747 65.01854,18.105487 6.06497,0.368373 9.26144,3.037563 12.35337,7.589759 0.39611,0.580389 -0.12399,1.350311 -0.81757,1.182591 -25.30485,-6.11056 -50.03934,-10.786094 -75.45747,-9.593435 -0.79771,0.03854 -1.02829,1.091846 -0.31837,1.461219 1.4118,0.727146 2.84125,1.311488 4.30008,1.834229 23.22872,8.379958 47.18254,11.179022 71.7457,9.274534 1.71494,-0.132611 4.09739,-0.233985 5.09904,0.743575 2.96654,2.887233 5.59536,6.129191 8.28476,9.305025 0.46744,0.544598 -0.0124,1.372464 -0.72559,1.245824 -27.41347,-4.773642 -54.49693,-4.386319 -81.67957,-1.460099 -0.80391,0.08405 -0.9416,1.206847 -0.18003,1.492271 6.17553,2.284119 12.38632,4.238009 18.7316,5.356479 20.91115,3.67144 41.77399,2.63218 62.53797,-1.56767 1.93856,-0.39437 4.92412,-0.60186 5.97501,0.4961 2.1018,2.19594 3.90411,4.6582 5.68687,7.16153 0.74565,1.05911 -0.0824,2.4791 -1.37636,2.3916 -0.0124,0.002 -0.025,0.003 -0.0374,0.005 -15.03394,-0.93628 -30.06248,-1.83509 -45.10668,-2.44476 -9.98516,-0.40857 -19.98412,-0.47092 -29.97787,-0.62962 -0.69695,-0.0142 -1.3049,0.45598 -1.48961,1.12014 -0.0666,0.24549 -0.11632,0.43117 -0.17846,0.66327 -0.19006,0.67132 0.11073,1.38658 0.72693,1.72485 1.54049,0.86795 3.10054,1.69486 4.73533,2.33245 13.65322,5.37496 27.94637,6.21408 42.29158,4.62948 11.03861,-1.21604 21.9743,-3.3225 32.95587,-5.1551 0.50406,-0.0854 1.02008,0.0888 1.36148,0.46666 1.62379,1.75485 3.32174,3.58189 5.45044,5.87594 0.44594,0.48396 0.1195,1.27057 -0.54616,1.29645 -28.46595,0.87999 -54.12087,7.76797 -78.44132,19.57644 -0.73839,0.36151 -0.47451,1.48375 0.35179,1.46657 27.77147,-0.39093 54.75648,-4.28955 79.65032,-19.68071 0.40391,-0.24952 0.93865,-0.078 1.12218,0.35453 1.00533,2.37321 1.96766,4.62511 2.90044,6.80477 0.45478,1.07559 0.90685,2.13241 1.35801,3.183 0.34824,0.82318 -0.16362,1.73853 -1.04595,1.89767 -0.3979,0.0701 -0.7931,0.15905 -1.17753,0.27823 -23.11351,6.87208 -43.64096,19.03235 -64.73678,31.22998 -0.5885,0.33988 -0.48022,1.22317 0.17143,1.40968 0.19282,0.0551 0.34902,0.0772 0.49711,0.0431 19.67717,-4.13235 38.98146,-9.47959 55.98188,-20.63386 3.92023,-2.56727 7.2208,-6.07156 10.58483,-9.48937 0.63983,-0.64694 1.72958,-0.51722 2.17594,0.27904 2.59856,4.62336 3.80375,9.61984 4.61111,14.73106 0.15392,0.97872 1.62697,0.80449 1.52302,-0.18139 -0.11578,-1.15635 -0.27529,-2.30639 -0.48476,-3.44921 -0.83331,-4.49547 -2.3928,-8.85432 -3.65695,-13.24301 -0.079,-0.28187 0.01,-0.59432 0.2372,-0.78649 17.13444,-14.99873 27.58764,-40.03105 28.05744,-53.48042 0.029,-0.769257 -0.975,-1.102535 -1.4114,-0.459443 z m -41.24619,31.966537 0.11867,-0.0171 c 0,0 0.0262,0.0472 0.0339,0.0589 -0.0527,-0.0116 -0.099,-0.0239 -0.15266,-0.0418 z"
     id="path117"
     style="fill:#cb811f;stroke-width:0.630991" />
</svg>
