<?xml version="1.0" encoding="UTF-8" standalone="no"?>
<svg
   id="Background"
   viewBox="0 0 1046.2559 763.10171"
   version="1.1"
   sodipodi:docname="grass1decoMob.svg"
   inkscape:version="1.2.2 (732a01da63, 2022-12-09)"
   xmlns:inkscape="http://www.inkscape.org/namespaces/inkscape"
   xmlns:sodipodi="http://sodipodi.sourceforge.net/DTD/sodipodi-0.dtd"
   xmlns="http://www.w3.org/2000/svg"
   xmlns:svg="http://www.w3.org/2000/svg">
  <sodipodi:namedview
     id="namedview149"
     pagecolor="#ffffff"
     bordercolor="#000000"
     borderopacity="0.25"
     inkscape:showpageshadow="2"
     inkscape:pageopacity="0.0"
     inkscape:pagecheckerboard="0"
     inkscape:deskcolor="#d1d1d1"
     showgrid="false"
     inkscape:zoom="0.55824798"
     inkscape:cx="515.89976"
     inkscape:cy="259.7412"
     inkscape:window-width="1920"
     inkscape:window-height="1017"
     inkscape:window-x="1912"
     inkscape:window-y="-8"
     inkscape:window-maximized="1"
     inkscape:current-layer="Background" />
  <defs
     id="defs13">
    <style
       id="style11">.cls-1{fill:#92aa87;}</style>
    <clipPath
       clipPathUnits="userSpaceOnUse"
       id="clipPath254">
      <rect
         style="fill:#000000;stroke-width:0.674269"
         id="rect256"
         width="1047.9214"
         height="812.94446"
         x="242.55685"
         y="-106.11449" />
    </clipPath>
    <clipPath
       clipPathUnits="userSpaceOnUse"
       id="clipPath267">
      <rect
         style="fill:#5f7857;stroke-width:1.05015"
         id="rect269"
         width="1048.1293"
         height="541.8739"
         x="242.34886"
         y="-0.89150596" />
    </clipPath>
    <clipPath
       clipPathUnits="userSpaceOnUse"
       id="clipPath223">
      <rect
         style="fill:#5f7857"
         id="rect225"
         width="1046.2559"
         height="423.06226"
         x="243.61551"
         y="1.2708013"
         ry="0" />
    </clipPath>
  </defs>
  <path
     class="cls-1"
     d="m 921.76997,174.28235 v 0 146.58162 H 140.43093 V 174.28235 h 0.003 c -0.003,-0.0337 -0.003,-0.0653 -0.003,-0.099 0,-24.56035 174.90764,-44.46969 390.67189,-44.46969 215.76422,0 390.67182,19.90934 390.67182,44.46969 0,0.0337 0,0.0653 0,0.099 z"
     id="path2039"
     style="fill:#92aa87;stroke-width:0.304613"
     inkscape:label="path2039" />
  <rect
     style="fill:#92aa87;fill-opacity:1;stroke-width:1.11964"
     id="rect905"
     width="1046.1301"
     height="428.12512"
     x="9.6679685e-07"
     y="334.97659" />
  <path
     class="cls-1"
     d="m 1480.47,156.12 c 13.97,-29.69 -13,-48.69 -28.56,-23.76 29.87,-66.98 -37.55,-97.18 -57.33,-47.7 11.87,-74.6 -52.48,-88.28 -71.06,-27.01 -0.35,1.82 -0.86,3.72 -1.54,5.71 0.47,-1.97 0.99,-3.87 1.54,-5.71 7.77,-40.18 -61.92,-40.51 -75.14,-10.77 -18.78,-35.65 -61.33,-8.46 -63.6,19.83 0.13,1.9 0.17,3.89 0.13,5.96 -0.26,-1.98 -0.3,-3.97 -0.13,-5.96 -3.13,-50.93 -59.8,-43.97 -67.92,-1.15 -7.91,-6.89 -33.64,20 -29.06,30.37 -25.67,-27.22 -72.2,35.05 -40.19,63.96 -4.77,-1.7 -8.95,-1.64 -12.46,-0.34 -8.9,-24.8 -50.84002,-27.48 -69.89002,-0.22 -5.55,-8.69 -41.77,5.88 -40.91,16.45 -9.05,-18.07 -34.96,-14.2 -52.3,-0.98 -41.36,-1.27 -83.15,-1.91 -125.3,-1.91 -17.25,0 -34.45,0.11 -51.57,0.32 -13.39,-15.89 -42.57,-11.99 -58.21,1.15 -3.19,2.68 -5.82,5.74 -7.63,9.1 -0.59,1.72 -1.29,3.49 -2.1,5.3 0.47,-1.83 1.18,-3.6 2.1,-5.3 1.07,-3.14 1.78,-6.13 2.15,-8.96 5.07,-37.91 -48.85,-47.18 -71.23,-15.17 -5.55,-8.69 -41.76998,5.88 -40.90998,16.45 -4.51,-9.01 -13.21,-12.56 -22.94,-12.23 7.62,-33.25 -25.54,-53.81 -64.52,-26.77 -1.41,1.21 -3,2.39 -4.78,3.53 1.6,-1.26 3.2,-2.44 4.78,-3.53 31.22,-26.82 -23.51,-70.6 -52.5,-55.41 7.45,-39.79 -42.97,-44.95 -62.48,-24.15 -1.1,1.6 -2.32,3.21 -3.66,4.84 1.04,-1.74 2.28,-3.36 3.66,-4.84 C 346.16,15.15 297.16,-14.7 264.05,13.97 262.12,3.6 225.04,8.72 222.18,19.75 218.94,-17.73 143.38,2.3 150.56,45.08 137.28,23.8 108.49,45.2 112.44,64.12 c 0.59,1.29 1.09,2.72 1.51,4.29 -0.71,-1.4 -1.21,-2.84 -1.51,-4.29 -12.36,-27.38 -59.99,5.62 -47,35.82 -4.23,-1.75 -8.22,0.5 -11.07,4.08 -2.84,3.58 -4.01,8.18 -5.1,12.62 -1.77,-2.92 -3.91,-6.11 -7.25,-6.81 -3.33,-0.71 -6.62,1.35 -9.01,3.76 -4.64,4.69 -7.51,11.1 -7.89,17.68 -0.11,1.9 -0.07,3.97 -1.23,5.47 -0.97,1.26 -2.56,1.83 -4,2.49 -7.93,3.6 -13.35,11.34 -16.14,19.59 C 0.96000004,167.06 0.47000004,175.88 3.8659437e-8,184.57 L 0.35000004,1470.22 C 224.9,1516.49 478.43,1542.51 746.74998,1542.51 1029.2,1542.51 1295.24,1513.67 1528.35,1462.76 V 252.64 c 0,-69.94 15,-107.94 -47.88,-96.52 z M 422.23,244.86 c 1.04,0.98 2.04,2.11 3,3.38 -1.2,-1.05 -2.2,-2.18 -3,-3.38 z"
     id="path15"
     clip-path="url(#clipPath223)"
     transform="translate(-243.61551,-1.2708013)" />
  <path
     class="cls-2"
     d="m 829.31623,496.61343 c 0.23433,-0.43316 0.14202,-0.97283 -0.22013,-1.30658 -3.25934,-2.9966 -6.41926,-6.12102 -9.85612,-8.9046 -5.24051,-4.23927 -11.1414,-7.74714 -15.97716,-12.37696 -6.56838,-6.29145 -7.36369,-12.6326 -2.78357,-19.17969 0.44026,-0.63199 1.38469,-0.61778 1.80364,0.0284 1.91726,2.9753 3.60019,5.95061 5.85119,8.41464 2.86879,3.13862 6.31275,5.80148 9.74251,8.35782 0.61068,0.45446 1.81075,0.12072 2.9256,-0.11361 0.51837,-0.10652 0.88051,-0.57518 0.85921,-1.10775 -0.0426,-1.04384 -0.0213,-2.13029 -0.53967,-2.80488 -2.2013,-2.87588 -4.80735,-5.43933 -7.12936,-8.22291 -2.2084,-2.64866 -4.60142,-5.22631 -6.29145,-8.1945 -2.31491,-4.06175 3.10312,-15.68602 7.56252,-16.94289 0.32664,-0.0923 0.70299,-0.21302 1.01544,-0.14202 6.90213,1.58352 13.88947,2.86879 20.64958,4.91387 4.28897,1.29947 4.16826,5.58845 4.09015,9.24544 -0.11362,5.54585 -0.79531,11.0988 -0.61779,16.62335 0.10652,3.38005 -0.49706,8.54244 4.3884,8.69156 4.99907,0.15623 5.37542,-4.97777 5.37542,-8.60635 0.0142,-8.49985 -0.56808,-16.9926 -0.93733,-25.59896 -0.0213,-0.54677 0.36215,-1.02963 0.90182,-1.12195 10.23248,-1.67582 14.69188,5.72337 16.10497,12.96635 1.56221,8.00278 0.37635,15.87774 -2.57764,23.51837 -2.87589,7.4347 -5.83699,14.8765 -8.03119,22.52423 -0.64618,2.25101 0.15623,4.91386 0.66749,7.49861 0.14912,0.75979 1.02254,1.12194 1.66163,0.69588 2.16579,-1.44858 4.502,-2.76936 5.89379,-4.76473 2.44273,-3.50077 4.35999,-7.56962 5.61686,-11.66687 3.62149,-11.76628 6.85242,-23.66038 10.33899,-35.93794 0.20593,-0.7101 1.05094,-1.02254 1.65452,-0.59648 3.89843,2.71257 8.1377,5.29021 11.68108,8.60636 4.20376,3.92683 4.38839,9.55789 2.67706,14.62797 -2.15159,6.37666 -5.11979,12.49058 -7.99568,18.59741 -2.73387,5.80148 -5.97901,11.36862 -8.66317,17.19141 -0.91602,1.98827 -1.30657,4.22507 -1.82494,6.63229 -0.19173,0.90182 0.7527,1.62612 1.56221,1.18586 9.24544,-4.97066 24.86043,-31.42882 27.88544,-46.57516 0.13492,-0.6888 0.88052,-1.07935 1.51251,-0.78111 11.8444,5.58135 16.2541,17.8376 11.43255,29.56838 -0.12072,0.29824 -0.11362,0.63199 0.0355,0.91603 3.45816,6.7033 7.21461,12.43377 9.33781,18.71101 3.8699,11.43254 -0.1065,19.64835 -11.21957,24.5054 -7.70455,3.36586 -15.6292,6.22754 -23.54677,9.28805 -0.85212,0.32665 -0.94443,1.51961 -0.14202,1.95277 7.72584,4.18956 14.9049,0.0781 22.01297,-3.43687 0.56807,-0.28404 1.26397,-0.0213 1.4912,0.56808 3.20253,8.40753 -0.7598,17.8092 -9.74963,23.54677 -12.91663,8.25131 -26.88421,4.18246 -33.33187,-9.71411 -0.29114,-0.63198 -0.48997,-1.39179 -0.96573,-1.83204 -0.91602,-0.84502 -1.88885,-1.63322 -2.86169,-2.41433 -0.66039,-0.53257 -1.64033,-0.13492 -1.75394,0.70299 -0.17042,1.28528 -0.32663,2.57055 0.0213,3.6996 5.09849,16.79376 1.3847,25.2155 -14.52854,32.60049 -8.93301,4.14696 -17.88731,6.95184 -27.31738,1.4912 h -0.0142 c -0.7243,-0.43316 -0.67459,-1.5125 0.071,-1.89595 4.88545,-2.50664 9.6857,-4.88546 14.32973,-7.51991 1.74683,-0.98704 3.44396,-2.57055 4.39549,-4.29608 0.69589,-1.25687 0.72429,-2.88299 0.85921,-4.4523 0.0497,-0.61068 -0.41895,-1.15036 -1.02964,-1.17166 -1.71133,-0.0639 -3.59308,-0.31954 -4.54461,0.50417 -3.90552,3.36585 -7.4205,7.21457 -10.86446,11.07749 -5.50324,6.18493 -12.04322,9.53658 -20.35844,7.24297 -9.05372,-2.49953 -16.05526,-7.73294 -20.65668,-16.00555 -0.26984,-0.48997 -0.13492,-1.10775 0.32664,-1.42729 0.23433,-0.16333 0.39054,-0.25564 0.49707,-0.22013 15.23155,5.09848 27.4949,-1.12195 38.81382,-10.3887 1.32788,-1.08645 1.94567,-3.03921 2.71257,-4.80735 0.24143,-0.56097 -0.0284,-1.21426 -0.59649,-1.43439 -1.86754,-0.7243 -3.7848,-1.72553 -5.48903,-1.4486 -4.40259,0.7172 -8.60636,2.57055 -12.97346,3.59309 -6.02161,1.41309 -12.17104,3.7138 -18.17844,3.46526 -16.21149,-0.66039 -24.34919,-16.21148 -16.75116,-30.88916 0.32664,-0.63198 1.18586,-0.7811 1.69713,-0.28403 7.58382,7.33528 17.47545,6.31275 26.98363,6.82402 4.67953,0.24853 9.35196,0.67459 14.03149,0.90182 1.53381,0.0781 3.07471,-0.0852 4.61562,-0.18463 0.45447,-0.0284 0.84502,-0.34084 0.96573,-0.7811 l 0.0781,-0.28404 c 0.14202,-0.50417 -0.0994,-1.05094 -0.57517,-1.27107 -2.66286,-1.24977 -5.26181,-2.83328 -8.05959,-3.38716 -7.83235,-1.54801 -15.75703,-2.63445 -23.67459,-3.7209 -21.89938,-3.01081 -29.28438,-15.13924 -21.75028,-35.97344 0.7456,-2.05928 1.68298,-4.05465 2.78363,-6.51158 0.34085,-0.7669 1.40599,-0.87342 1.87465,-0.17042 9.83483,14.52145 25.18709,19.57733 39.60913,25.93979 3.39426,1.4983 7.3637,2.02377 11.113,2.2368 1.37049,0.0781 2.81908,-1.15035 4.24637,-2.10898 0.46867,-0.31954 0.61779,-0.94443 0.33375,-1.43439 -0.76691,-1.34919 -1.4557,-2.89719 -2.59895,-3.40136 -5.37543,-2.37172 -10.97098,-4.25348 -16.49552,-6.27725 -6.18494,-2.2723 -12.5971,-4.04755 -18.5335,-6.84533 -11.9083,-5.61685 -14.53566,-12.80301 -9.89163,-24.96695 0.48997,-1.27817 1.00123,-2.54924 1.44859,-3.66409 0.24854,-0.62489 1.00124,-0.86632 1.56932,-0.51837 11.07749,6.76721 22.01296,13.54862 33.09045,20.0957 1.98117,1.17166 4.4168,1.56221 6.71751,2.1942 0.48286,0.13492 1.00123,-0.0923 1.23556,-0.53257 l 0.7101,-1.33498 z m 86.65297,10.06204 c -7.60513,8.94722 -17.40444,15.36648 -21.75733,26.59309 -0.28404,0.7314 0.29824,1.5125 1.08645,1.4628 12.95213,-0.83081 23.0355,-13.22198 22.58104,-27.3813 -0.0284,-0.99413 -1.26397,-1.42729 -1.91016,-0.67459 z m -45.73726,19.76907 c -0.19172,-0.65329 -0.93022,-0.98703 -1.53381,-0.66749 -3.35875,1.76814 -5.64526,4.00494 -5.36122,7.94597 0.0497,0.65329 2.75517,1.81785 3.98364,1.56221 3.33745,-0.68879 4.37419,-3.79191 2.91139,-8.84069 z m -12.95924,30.21457 c -0.12072,-0.40476 -0.46157,-0.7101 -0.88052,-0.774 -3.35875,-0.51127 -6.39796,0.12071 -8.49275,3.27354 -0.29114,0.43315 0.6888,2.49243 1.35629,2.64865 3.92683,0.92313 6.46187,-1.10775 8.09509,-4.5091 0.071,-0.14912 0.0142,-0.35505 -0.071,-0.64619 z m 14.8765,-10.18987 c 3.94103,-0.0781 5.66656,-1.68293 6.07132,-5.62396 0.0639,-0.63909 -0.44026,-1.19296 -1.07935,-1.19296 -3.90552,0 -5.66656,1.62612 -6.09262,5.62396 -0.071,0.64618 0.44736,1.21426 1.10065,1.20006 z"
     id="path121"
     style="fill:#f59e1c;stroke-width:0.710096" />
  <path
     class="cls-3"
     d="m 347.13077,660.96418 c -3.06513,-3.77958 -6.08739,-7.59473 -9.18953,-11.32661 -4.19527,-5.0573 -8.60483,-9.93685 -12.65936,-15.10668 -6.89,-8.76751 -7.03174,-20.57943 -0.60611,-29.64865 2.04918,-2.89369 4.26029,-3.28088 6.75364,-0.7549 2.35966,2.3879 4.38766,5.11479 6.55688,7.69897 2.7561,3.27624 5.57357,6.49307 8.24396,9.84043 2.79773,3.50345 6.63601,4.85203 10.83251,5.52681 1.13867,0.18751 1.93058,-0.97162 1.36319,-2.12248 -0.93924,-1.87871 -1.87481,-3.79664 -3.08557,-5.50758 -3.54948,-5.02273 -7.25504,-9.9181 -10.83203,-14.92015 -1.07804,-1.51246 -1.99999,-3.15229 -2.88857,-4.80064 -3.77473,-6.97451 -3.69777,-13.9926 0.676,-20.56385 4.00216,-6.00337 8.51815,-11.65413 13.08477,-17.82358 0.64387,1.27894 1.13551,2.06914 1.46305,2.92315 2.34261,6.06643 4.61533,12.15893 6.97012,18.21953 2.21549,5.70799 4.9979,11.09892 9.33904,15.53942 0.41591,0.42954 0.8562,0.84742 1.37659,1.35418 2.02166,-1.74941 3.05222,-3.84705 2.20529,-6.39176 -1.68488,-5.0863 -3.6006,-10.09174 -5.34319,-15.15783 -1.56969,-4.54983 -3.24849,-9.07725 -4.5116,-13.72181 -2.93898,-10.85127 1.23121,-19.78168 11.53993,-24.28792 5.45084,-2.37671 11.2046,-4.05989 16.78352,-6.13852 8.07373,-3.01398 15.61003,-6.97598 22.08266,-12.77943 0.31267,-0.28491 0.6609,-0.52695 1.02081,-0.74466 2.00437,-1.23924 2.56201,-0.98258 3.15012,1.31937 2.95479,11.55527 5.87624,23.11905 8.91896,34.65459 2.45633,9.31516 -0.21113,16.64789 -8.25735,21.88832 -3.71166,2.4108 -7.67096,4.25884 -12.13043,4.90878 -3.82977,0.55741 -7.01688,2.28198 -9.53824,5.7993 5.84142,0.3721 11.15126,-0.56617 16.29381,-2.5552 5.20026,-2.00924 9.56599,-5.27331 13.96168,-9.45811 0.43272,1.07317 0.98794,1.85533 1.02033,2.65626 0.58468,11.87645 -2.05429,23.24786 -5.75256,34.37869 -2.00971,6.06572 -6.63529,9.52191 -13.00855,10.28898 -5.92837,0.71082 -11.86745,1.3369 -17.81214,1.74844 -2.89368,0.19799 -4.71371,1.80567 -6.58415,3.72967 2.16265,1.68099 4.3672,2.63775 7.17005,2.26615 7.04951,-0.93436 14.12581,-1.65688 21.18603,-2.5065 4.93896,-0.60293 5.88331,0.39693 4.22279,5.03663 -2.9797,8.33646 -5.9503,16.67613 -9.19707,24.90863 -2.59806,6.58781 -7.01713,9.2258 -14.12897,8.78188 -5.7752,-0.35895 -11.52897,-0.92293 -17.30222,-1.40264 -2.40106,-0.19579 -4.80552,-0.55473 -7.20634,-0.57836 -1.49494,-0.01 -2.99766,0.46511 -4.4775,1.01814 11.74668,6.5262 24.44061,8.2532 37.68441,8.09834 -0.0146,4.65112 -1.07658,8.88365 -3.84632,12.44529 -1.79202,2.30585 -3.82026,4.65017 -6.24324,6.18772 -5.21535,3.31984 -10.60312,6.46776 -16.20566,9.07458 -7.80587,3.63445 -15.65094,2.77096 -22.69485,-2.07256 -4.63019,-3.18566 -8.75923,-7.10624 -13.2063,-10.78429 -2.56566,3.64346 -4.59415,8.06277 -5.59865,12.85198 -0.71032,3.40457 -0.96918,6.90705 -1.24873,10.382 -0.35773,4.38887 -2.12179,5.89476 -6.76728,5.34564 -1.76793,-12.10998 3.04223,-22.14157 10.45458,-31.71439 -2.99547,0.14197 -5.51124,0.12857 -7.99533,0.3996 -11.0619,1.20491 -17.87326,-4.76143 -21.98038,-13.7861 -2.835,-6.24956 -4.38861,-12.91944 -5.13718,-19.6911 -0.67503,-6.08786 -0.69645,-12.24977 -0.99013,-18.38585 -0.0239,-0.39303 0.0883,-0.79896 0.19943,-1.6912 3.20563,1.99681 6.3365,3.5726 9.04488,5.68825 8.20523,6.43585 16.19787,13.13106 24.39677,19.58492 1.80736,1.42457 4.03675,2.33946 6.16288,3.28892 0.49773,0.22553 1.34346,-0.33776 2.03237,-0.54109 l 0.21382,-0.89662 z"
     id="path123"
     style="fill:#5463aa;stroke-width:0.955" />
  <path
     class="cls-1"
     d="m 235.27783,542.73255 c -1.20594,-2.32486 -2.42432,-4.36377 -3.35676,-6.5208 -2.31243,-5.37703 -6.20378,-8.77109 -11.89783,-10.20703 -4.9046,-1.23703 -8.82703,-3.87892 -11.3446,-8.40433 -1.39243,-2.50513 -3.68,-3.72973 -6.42757,-4.1027 -3.57432,-0.48486 -6.9373,0.3419 -10.64838,2.05135 0.92,0.89514 1.54162,1.85244 2.42433,2.3 3.81054,1.93324 6.68865,4.89217 8.53486,8.57838 4.32027,8.64054 11.13324,14.80703 18.91595,20.1219 1.85865,1.26811 3.68,2.60459 5.67541,4.01567 -2.80352,3.07702 -5.50757,6.03595 -8.51622,9.33676 -3.13297,-4.14622 -6.29081,-8.06243 -9.15027,-12.19 -2.84081,-4.10892 -6.16649,-7.4719 -11.08974,-8.89541 -1.23702,-0.36054 -2.52378,-0.77081 -3.78567,-0.75838 -6.07325,0.056 -11.64297,-1.90838 -17.20652,-3.99081 -1.9021,-0.71486 -3.83536,-1.33648 -5.8059,-2.02026 0.32941,7.90081 6.58296,15.81405 13.93675,17.89026 5.29,1.4919 9.89,4.28919 13.82486,8.05622 3.61162,3.46243 6.98081,7.17352 10.39973,10.82865 0.27973,0.29838 0.3854,1.13135 0.18027,1.46703 -3.22,5.09108 -6.50216,10.13865 -9.98325,15.51567 -2.77243,-2.82216 -5.4454,-5.50135 -8.06243,-8.23648 -0.77702,-0.81433 -1.46703,-1.73433 -2.07621,-2.67919 -3.81676,-5.91784 -9.38027,-9.41757 -15.98813,-11.32595 -2.92785,-0.84541 -5.95514,-1.53541 -8.98244,-1.77784 -4.47564,-0.36054 -8.38563,1.31162 -11.41919,4.64352 -2.03889,2.23783 -3.86027,4.67459 -5.92406,7.20459 1.74057,0.0373 3.46249,0.28595 5.12218,0.0746 9.02597,-1.15 16.92676,1.24324 23.36675,7.67081 5.42056,5.40189 11.73002,9.61027 17.90894,13.99892 1.19351,0.85162 1.4173,1.56648 0.85163,2.89676 -0.94487,2.2254 -1.67838,4.53784 -2.6046,7.0927 -0.91378,-1.03811 -1.71568,-1.92081 -2.48027,-2.83459 -3.44379,-4.11514 -7.44703,-7.57758 -12.97944,-8.03757 -5.45167,-0.45379 -10.97788,-0.50352 -16.44192,-0.25487 -4.51918,0.21135 -7.54647,4.43217 -7.47185,9.66622 0.98213,-0.35433 1.9021,-0.7646 2.8656,-1.01324 3.42515,-0.88892 6.5457,0.11811 9.40519,1.87107 7.85107,4.80514 15.63998,9.70352 23.41647,14.62676 0.45379,0.29217 0.7646,1.12514 0.79568,1.7219 0.23621,4.45702 0.3854,8.92648 0.55946,13.38973 0.0249,0.63405 0.0684,1.26811 0.10567,2.03891 0.69001,-0.0186 1.24946,-0.0311 2.07622,-0.0497 0.0373,-1.88351 0.0932,-3.6427 0.11189,-5.39567 0.0311,-2.95271 -0.10568,-5.91784 0.0932,-8.85811 0.16784,-2.4927 1.74676,-3.91 4.20838,-4.44459 5.52001,-1.20595 10.56136,-0.31703 15.06812,3.20135 0.72107,0.55946 1.51675,1.02567 2.27513,1.5354 1.37378,0.92622 2.81595,1.42973 4.54406,1.31162 4.38864,-0.29216 7.35377,1.75919 9.21243,5.70649 0.72108,1.5354 1.77783,2.92784 2.77865,4.31405 0.22378,0.31081 0.90135,0.49109 1.29918,0.39784 0.26108,-0.056 0.57189,-0.72108 0.54703,-1.08784 -0.29216,-4.35135 -0.55324,-8.7027 -1.00081,-13.0354 -0.35432,-3.38162 -2.49892,-5.53865 -5.65675,-6.32189 -3.46865,-0.85784 -6.55811,-2.43676 -9.53568,-4.25811 -5.22784,-3.20135 -10.85973,-3.86027 -16.79622,-3.13297 -1.36135,0.16783 -2.74757,0.18026 -4.37622,0.2735 1.02568,-3.03973 1.92082,-5.84945 2.96514,-8.60323 0.12432,-0.33568 1.06918,-0.5719 1.59135,-0.51595 4.76784,0.51595 9.52324,1.09406 14.27865,1.67216 5.93649,0.7273 11.86676,1.47324 17.79703,2.20675 3.33189,0.41028 6.70108,0.90136 9.43,2.99622 1.63487,1.24946 3.25108,2.77865 4.26432,4.53163 2.35595,4.07783 6.79433,6.04837 12.78676,4.72432 -0.52216,-0.96351 -1.00703,-1.88973 -1.51676,-2.80351 -3.28216,-5.88055 -6.58919,-11.74244 -9.84027,-17.63541 -0.89513,-1.62243 -2.15081,-2.47405 -3.95973,-2.97135 -3.99702,-1.09406 -7.92567,-2.43054 -11.87297,-3.70487 -5.70027,-1.84 -11.3819,-2.43054 -17.30595,-0.78324 -3.49351,0.97594 -7.18595,1.23081 -11.27622,1.88351 3.66135,-5.7873 7.08027,-11.18919 10.55514,-16.69054 10.18216,6.24108 21.50189,7.34757 32.84649,8.32973 6.96838,0.60298 12.84271,3.31324 17.39298,8.75243 2.84081,3.38784 6.30945,5.68784 11.27621,5.63811 -1.03811,-1.90216 -2.05757,-3.63027 -2.94027,-5.43297 -1.52919,-3.12676 -3.17649,-6.22865 -4.4073,-9.47352 -2.38703,-6.27216 -6.80054,-10.2008 -13.25297,-11.56837 -4.35757,-0.92622 -8.8519,-1.20595 -13.26541,-1.88352 -6.16649,-0.94486 -12.32054,-1.98918 -18.49325,-2.99 1.06298,-5.04757 4.86731,-8.32973 9.60406,-7.77027 17.23136,2.0327 33.87217,5.86811 47.87109,17.0573 1.87107,1.49811 3.88513,2.82216 5.88054,4.26432 2.92162,-6.79432 0.0622,-14.75729 -6.75081,-18.00216 -5.62568,-2.6854 -10.79757,-5.96135 -15.81406,-9.6227 -5.86811,-4.28297 -12.39513,-6.91865 -19.84216,-6.6327 -0.67757,0.0249 -1.34892,0.0684 -2.20054,-0.21135 2.38081,-2.15082 4.64351,-4.46325 7.21702,-6.35298 0.86406,-0.63405 2.69163,-0.59054 3.78568,-0.14297 5.37703,2.18811 10.74784,4.39486 15.55297,7.79513 3.56811,2.52379 7.6646,3.28838 12.00973,2.67919 4.43839,-0.62162 8.42919,-2.40567 12.63136,-4.76162 -7.44082,-2.20676 -13.17216,-6.89379 -19.54379,-10.39351 -4.44459,-2.44297 -9.13784,-4.03433 -14.63297,-3.86649 3.26351,-3.93486 6.51459,-7.30406 11.52486,-8.13081 4.88595,-0.80189 8.19298,-3.55568 10.26919,-7.94432 3.60541,-7.60244 9.0446,-13.17217 17.2873,-15.64622 0.67135,-0.19892 1.35514,-0.36676 2.03271,-0.55325 -0.14298,-0.36054 -0.27974,-0.72108 -0.42271,-1.08162 -0.98837,-0.26108 -2.02026,-0.83919 -2.95892,-0.72108 -5.97378,0.75217 -12.00351,1.32406 -17.87162,2.60459 -8.61567,1.88352 -13.68189,7.70811 -15.88865,16.10001 -0.50351,1.9208 -0.73973,3.91621 -1.15622,5.86189 -0.6527,3.04594 -2.34351,5.37081 -5.12216,7.18594 -1.28675,-2.1135 -2.57973,-4.14 -3.76703,-6.22864 -2.81594,-4.91703 -6.35919,-9.18136 -10.85351,-12.67487 -3.38163,-2.62946 -6.41514,-5.59459 -8.06865,-9.70351 -0.19892,-0.4973 -0.73973,-0.92622 -1.2246,-1.2246 -1.23702,-0.75216 -2.53,-1.40486 -4.07783,-2.25027 0.45378,5.70027 -0.41649,11.28243 1.59757,16.5973 0.47243,1.24324 1.14378,2.46162 1.96432,3.50595 4.17109,5.28378 8.40433,10.51783 12.63757,15.75189 3.01487,3.73595 2.99622,4.41351 -0.52838,7.73297 -2.46784,2.32487 -4.96676,4.60622 -7.67702,7.11135 z"
     id="path125"
     style="fill:#9b70c1;stroke-width:0.621621" />
  <path
     class="cls-4"
     d="m 641.83023,591.67662 c 2.30767,-1.60414 4.47908,-2.92966 6.4327,-4.50632 4.85374,-3.93942 10.30704,-5.24236 16.58431,-3.83784 5.41114,1.21388 10.52648,0.63286 15.17592,-2.40154 2.57578,-1.67976 5.40241,-1.72945 8.28345,-0.73971 3.74789,1.28088 6.63838,3.68752 9.46659,7.09269 -1.33245,0.39888 -2.40266,1.00282 -3.48636,0.9929 -4.66707,-0.0303 -8.91275,1.35433 -12.49586,3.93507 -8.40163,6.03134 -18.04327,8.53337 -28.24956,9.75791 -2.43772,0.2966 -4.86197,0.66472 -7.49717,1.03343 1.27322,4.25546 2.50145,8.34606 3.85654,12.91039 5.07119,-2.38277 10.06051,-4.53207 14.84128,-7.03209 4.76988,-2.49099 9.6532,-4.0375 15.16061,-2.99548 1.38205,0.25847 2.84562,0.50444 4.08404,1.12118 5.92881,2.9992 12.33827,3.84351 18.79771,4.58199 2.20595,0.25435 4.41353,0.59936 6.67463,0.90904 -4.12765,7.27052 -14.06666,11.68328 -22.28379,10.07912 -5.90828,-1.15948 -11.77023,-0.75802 -17.44589,0.88587 -5.21101,1.50614 -10.30396,3.36466 -15.40948,5.14167 -0.41489,0.14237 -0.9249,0.8785 -0.88302,1.29413 0.70756,6.35225 1.49661,12.69196 2.32847,19.43734 4.07806,-1.30973 7.98759,-2.53461 11.87462,-3.84193 1.15044,-0.38561 2.27488,-0.92428 3.32425,-1.52009 6.59076,-3.71839 13.73592,-4.3124 21.13764,-2.90423 3.27638,0.62463 6.58502,1.44306 9.66394,2.6821 4.56092,1.82814 7.59361,5.30243 8.97582,9.89938 0.92835,3.09876 1.52888,6.26759 2.34087,9.64681 -1.72248,-0.8122 -3.53494,-1.41179 -5.05974,-2.40657 -8.30227,-5.4584 -17.20479,-7.03562 -26.61445,-4.1104 -7.92047,2.46048 -16.13808,3.35692 -24.30716,4.48884 -1.57659,0.21561 -2.14156,0.78596 -2.23278,2.31406 -0.1454,2.54744 -0.54066,5.0818 -0.86493,7.93405 1.39514,-0.53368 2.61084,-0.97351 3.79132,-1.46681 5.3561,-2.20575 10.95064,-3.5157 16.5973,-1.26571 5.56977,2.21275 11.0103,4.84538 16.25666,7.7312 4.32823,2.38908 5.27086,7.82911 2.67989,12.71109 -0.78906,-0.80615 -1.49477,-1.64476 -2.32385,-2.34415 -2.9329,-2.4909 -6.47555,-3.05984 -10.12547,-2.79511 -10.00901,0.72058 -20.01822,1.55163 -30.01027,2.41438 -0.58675,0.0461 -1.28853,0.68416 -1.61084,1.2368 -2.376,4.07839 -4.66697,8.21485 -6.99595,12.3277 -0.33503,0.5816 -0.68002,1.16227 -1.08678,1.86779 -0.67029,-0.35329 -1.20671,-0.63392 -2.01087,-1.05984 0.86843,-1.78756 1.65706,-3.47206 2.49361,-5.13202 1.39338,-2.79347 2.95052,-5.51153 4.16929,-8.37137 1.03788,-2.42467 0.16765,-4.52381 -1.98525,-6.21945 -4.8302,-3.80135 -10.2045,-5.41353 -16.32383,-4.29275 -0.98081,0.18034 -1.97948,0.22853 -2.97467,0.34732 -1.79656,0.2053 -3.45301,-0.0183 -5.09288,-0.96348 -4.16615,-2.40421 -8.05819,-1.91083 -11.78291,0.89784 -1.44674,1.09131 -3.14832,1.89792 -4.80104,2.7191 -0.36878,0.18681 -1.12721,0.0262 -1.4726,-0.25677 -0.22423,-0.18144 -0.213,-0.9537 -0.0115,-1.28653 2.37398,-3.94801 4.72987,-7.91779 7.25671,-11.78134 1.97589,-3.01071 5.12,-3.99512 8.59166,-3.20177 3.81556,0.87538 7.61081,0.88522 11.40199,0.61346 6.67236,-0.47706 12.513,1.63021 17.98823,5.18998 1.25983,0.8196 2.60318,1.49629 4.15804,2.38336 0.46085,-3.35179 0.92678,-6.43195 1.23328,-9.52687 0.035,-0.37839 -0.77598,-1.05602 -1.31978,-1.25698 -4.92306,-1.82149 -9.87158,-3.58509 -14.8201,-5.34867 -6.17367,-2.19835 -12.3501,-4.36684 -18.52561,-6.54528 -3.47185,-1.22518 -7.00898,-2.39617 -10.69395,-1.75305 -2.20519,0.38842 -4.52486,1.03739 -6.3592,2.19323 -4.27681,2.69731 -9.58171,2.39712 -14.81151,-1.75255 0.97432,-0.65299 1.89702,-1.29066 2.8378,-1.90658 6.0488,-3.93927 12.11568,-7.85679 18.14641,-11.81783 1.65769,-1.09187 3.30306,-1.29107 5.31318,-0.87404 4.44471,0.91354 8.94511,1.55104 13.42818,2.26727 6.47254,1.03095 12.33476,3.23057 17.3586,7.65241 2.96169,2.6141 6.4603,4.63514 10.15625,7.23685 -0.80845,-7.21521 -1.55973,-13.96318 -2.32078,-20.82251 -12.99162,0.93662 -24.63179,-3.50508 -36.23915,-8.08439 -7.13144,-2.80923 -14.19456,-3.10144 -21.28192,-0.20231 -4.4157,1.81075 -8.92968,2.29682 -13.77388,-0.16014 1.92691,-1.28789 3.76843,-2.41295 5.50245,-3.67853 3.00577,-2.20234 6.11371,-4.3149 8.88271,-6.78019 5.36025,-4.74616 11.57989,-6.29954 18.56986,-4.45747 4.72575,1.24083 9.25846,3.15673 13.9195,4.66272 6.50429,2.09838 13.04765,4.1 19.57648,6.1504 1.3911,-5.26419 -0.76374,-10.19378 -5.68147,-11.96455 -17.88297,-6.43558 -36.04894,-10.89884 -55.17534,-7.15568 -2.55755,0.50643 -5.17358,0.77647 -7.81966,1.15421 0.40117,-7.80624 7.042,-13.91017 15.28491,-13.66946 6.80976,0.20852 13.46147,-0.3709 20.14379,-1.38936 7.81245,-1.18502 15.49148,-0.49433 22.66557,3.37333 0.65036,0.35144 1.28894,0.72186 2.25925,0.87194 -1.30305,-3.17361 -2.40586,-6.44918 -4.02423,-9.47121 -0.53883,-1.01397 -2.35812,-1.86527 -3.64354,-1.97421 -6.32667,-0.54541 -12.66513,-1.07184 -19.0122,-0.20313 -4.71979,0.64777 -9.10147,-0.62148 -13.07162,-3.29876 -4.05514,-2.7354 -7.1157,-6.34282 -10.10637,-10.59657 8.36482,1.52745 16.23869,-0.10381 24.18081,-0.30267 5.5365,-0.14031 10.90854,0.62806 16.22018,3.45966 -1.30879,-5.28306 -2.86807,-10.02702 -7.39143,-13.23758 -4.41123,-3.11982 -6.32283,-7.31387 -6.24923,-12.44893 0.12047,-8.89676 -2.53473,-16.77501 -9.43137,-23.09755 -0.565,-0.51426 -1.1527,-1.0005 -1.72859,-1.50573 l 0.92842,-0.80786 c 1.09329,0.23176 2.38259,0.19039 3.25444,0.75313 5.50139,3.60239 11.13611,7.06645 16.2846,11.1182 7.54368,5.95058 9.7117,13.88417 7.83744,22.84959 -0.4307,2.04904 -1.15734,4.04053 -1.68759,6.08034 -0.82635,3.17736 -0.28173,6.19039 1.56473,9.24356 2.27559,-1.36609 4.52298,-2.64441 6.69991,-4.02966 5.13239,-3.26085 10.65793,-5.56138 16.75551,-6.6641 4.58611,-0.83085 8.98648,-2.15095 12.58396,-5.21238 0.43609,-0.37139 1.17237,-0.51414 1.78899,-0.55749 1.57642,-0.10515 3.16259,-0.099 5.08474,-0.14197 -3.18805,5.14808 -5.018,10.81354 -9.55861,14.84221 -1.0608,0.9362 -2.30251,1.76529 -3.61171,2.34712 -6.63023,2.95149 -13.31285,5.81778 -19.97647,8.69588 -4.7592,2.0501 -5.06085,2.70507 -3.20732,7.52643 1.3036,3.38454 2.65977,6.74384 4.10778,10.41291 z"
     id="path127"
     style="fill:#914b2c" />
  <path
     class="cls-1"
     d="m 61.137221,180.00645 c 4.749998,-3.90587 9.641305,-7.06566 12.209626,-12.25816 1.604866,-3.24411 2.912151,-6.87082 3.314362,-10.44323 0.871573,-7.72822 1.121871,-15.53443 1.519118,-23.31841 0.473439,-9.38679 0.744921,-18.78097 1.277713,-28.16075 0.425785,-7.458876 1.737984,-14.803916 4.09409,-21.907526 0.389131,-1.16454 1.39073,-2.294589 2.411579,-3.030639 2.087361,-1.48965 4.639491,-0.49417 5.828421,2.630089 1.10233,2.89482 2.10796,6.01704 2.20381,9.06963 0.19101,6.31959 0.12292,12.686666 -0.52327,18.967826 -0.91945,8.95085 -2.31611,17.85527 -3.76911,26.74336 -0.89092,5.4336 -2.269457,10.78713 -3.425716,16.18468 -0.09656,0.47271 -0.179095,0.96994 -0.13244,1.44332 0.02993,0.28462 0.272345,0.68187 0.50524,0.75964 0.226182,0.0659 0.608662,-0.16076 0.830476,-0.36215 5.80321,-5.3172 11.47762,-10.82509 15.28098,-17.77476 1.51255,-2.74976 2.01131,-6.1613 2.4755,-9.34784 1.10395,-7.50754 0.0737,-15.02084 -0.47787,-22.52814 -0.49304,-6.6524 -0.95899,-13.327576 -1.00831,-19.994416 -0.0835,-11.377359 1.77206,-22.499089 5.71017,-33.190676 0.72356,-1.966839 2.11788,-3.780054 3.54635,-5.358538 1.75601,-1.93319 4.8774,-0.997436 5.27559,1.611419 0.6232,4.053691 1.35795,8.180556 1.22341,12.239326 -0.39595,11.58584 -0.96848,23.181779 -1.96834,34.735539 -0.70033,8.053786 -2.18893,16.042526 -3.37563,24.047296 -0.32279,2.20563 -0.86116,4.37943 -1.22157,6.5742 -0.10223,0.63459 0.0703,1.30798 0.11221,1.97409 0.63976,-0.1619 1.45523,-0.11959 1.9029,-0.50078 3.49135,-2.98321 6.83616,-6.13159 10.36371,-9.06343 6.29477,-5.21562 5.65724,-12.4617 5.8558,-19.45518 0.25065,-8.582756 0.52295,-17.169426 2.55513,-25.552325 1.91708,-7.91559 3.60405,-15.91837 6.22274,-23.610038 2.86657,-8.406751 7.17358,-16.211797 13.3685,-22.774579 0.42917,-0.458018 0.8904,-0.886365 1.3787,-1.265938 1.11823,-0.86114 2.30249,-1.31481 3.68121,-0.536967 1.42326,0.800986 2.03045,2.019407 1.98231,3.630234 -0.31706,9.34009 -1.85998,18.46783 -4.96164,27.296878 -4.6653,13.27052 -9.4251,26.513549 -14.05547,39.804429 -1.14942,3.294426 -1.99338,6.697846 -2.83153,10.082516 -0.20339,0.8403 0.187,1.8221 0.30069,2.7339 0.87605,-0.30808 2.00748,-0.36831 2.58947,-0.96597 2.955,-3.03654 6.23953,-5.90606 8.52356,-9.413066 4.37115,-6.72384 8.52395,-13.64361 12.08566,-20.816599 7.50904,-15.1131 17.05098,-28.778285 28.44677,-41.119095 4.76572,-5.158232 10.3696,-9.542046 15.67794,-14.175061 1.12282,-0.982459 2.57624,-1.695295 3.9899,-2.23576 3.4632,-1.335946 5.53478,-0.163023 5.6824,4.120607 0.0924,2.571277 -0.91208,5.366174 -2.05658,7.762752 -3.24078,6.806219 -7.22131,13.203798 -12.23986,18.881385 -5.9433,6.717512 -11.66381,13.652882 -17.92961,20.072482 -9.30173,9.52471 -18.98101,18.694649 -28.52203,27.986395 -2.35064,2.29216 -4.8048,4.48273 -7.18779,6.74498 -0.43425,0.40549 -0.76811,0.9218 -0.90519,1.85285 1.2107,-0.33358 2.44534,-0.60918 3.62797,-1.02246 8.07847,-2.83854 16.02788,-6.11304 24.24329,-8.472526 14.27543,-4.08691 28.65866,-7.80536 43.56453,-8.99125 6.17381,-0.49885 12.26532,-0.64351 18.27712,0.96683 1.0423,0.28175 2.48388,1.23115 2.65443,2.08788 0.22201,1.13737 -0.23377,2.88548 -1.06593,3.67631 -4.2572,4.038516 -9.64217,5.869766 -15.32346,6.572746 -10.30877,1.26197 -20.65965,2.24603 -31.00016,3.33526 -12.46895,1.31002 -25.03771,1.97798 -37.22577,5.28039 -5.51037,1.48832 -11.22766,2.4568 -16.0391,5.83387 -1.87087,1.30717 -3.67882,2.71431 -5.5136,4.0728 l 0.12381,0.7717 c 1.2869,0.1074 2.57866,0.41046 3.85039,0.28867 12.25121,-1.15855 24.47157,-2.70415 36.74415,-3.47844 6.49432,-0.40592 13.07714,0.32763 19.60009,0.88035 3.73037,0.31522 7.40304,1.28818 11.09828,1.97134 0.40684,0.0771 0.90825,0.11011 1.19448,0.35626 0.94865,0.81671 2.23443,1.59827 2.56469,2.64441 0.18501,0.59522 -1.08267,2.07726 -1.99163,2.49838 -2.14195,0.97307 -4.44972,1.60173 -6.71201,2.28439 -8.23883,2.47529 -16.72339,1.95672 -25.13608,1.6838 -10.38096,-0.32248 -20.74796,-1.08033 -31.11979,-1.64542 -4.03417,-0.2194 -8.07745,-0.51295 -12.11189,-0.66086 -4.16797,-0.1458 -7.62966,1.46648 -10.64444,4.32224 -2.52378,2.39518 -5.22869,4.60498 -7.83022,6.91634 -0.53715,0.47781 -0.96954,1.08823 -1.4543,1.63234 l 0.23614,0.6305 c 0.8926,-0.0478 1.79843,2.9e-4 2.66859,-0.14591 8.23732,-1.41298 16.41341,-3.35461 24.70508,-4.17955 8.86752,-0.87256 17.84177,-0.77404 26.64006,1.23553 1.15028,0.26198 2.26356,0.68698 3.37011,1.09983 2.35848,0.88822 3.19901,3.13484 1.5067,4.95361 -1.4215,1.51921 -3.30043,2.78311 -5.20073,3.66276 -5.00261,2.31 -10.48065,2.10116 -15.8205,2.40245 -13.7287,0.79147 -27.28526,-1.37151 -40.91792,-2.3916 -0.55116,-0.0372 -1.11988,-0.12033 -1.65166,-0.29498 -1.83241,-0.62327 -3.34795,-0.22478 -4.79285,1.09349 -5.03995,4.58818 -10.15092,9.1047 -15.220375,13.65369 -0.290499,0.26334 -0.461294,0.67344 -1.009259,1.50579 1.149546,0.0881 1.988524,0.33132 2.739994,0.17108 4.1558,-0.86942 8.28264,-1.92093 12.44217,-2.7689 6.49253,-1.31593 12.99165,-2.61974 19.52656,-3.72921 4.80672,-0.82375 9.64714,-1.65819 14.50544,-1.88449 4.98225,-0.23127 9.99707,0.20092 14.98264,0.52247 0.81269,0.0517 2.10884,0.93846 2.21547,1.59275 0.13169,0.81481 -0.51646,2.09839 -1.2344,2.63619 -3.51968,2.65825 -7.6929,3.87008 -11.91913,4.84172 -6.72534,1.55498 -13.38758,3.52682 -20.1915,4.50723 -6.36553,0.91336 -12.88928,0.57503 -19.3287,1.10931 -6.78347,0.55714 -13.559646,1.37188 -20.304417,2.35919 -1.686058,0.2469 -3.212073,1.56203 -4.812863,2.39567 l 0.0537,0.73091 c 0.92191,0.0629 1.854216,0.23108 2.768539,0.17944 6.045213,-0.37269 12.088791,-1.02172 18.135721,-1.11797 6.69257,-0.10321 13.39388,0.32747 19.86947,2.27664 0.92115,0.27728 2.4079,1.3522 2.31202,1.7536 -0.24014,1.0749 -0.98829,2.42145 -1.91915,2.88772 -5.02113,2.54989 -10.38963,4.32462 -16.01844,4.3888 -7.44206,0.0801 -14.899991,-0.31458 -22.339222,-0.63224 -2.280593,-0.0993 -4.589883,-0.45202 -6.821899,-0.9664 -4.16321,-0.97211 -7.033854,1.52687 -10.111307,3.50606 -0.502825,0.32425 -0.913141,0.78775 -1.720728,1.49372 3.57593,0.17849 6.755228,0.4566 9.923331,0.45552 4.540665,-0.0123 8.659757,1.57081 12.53067,3.55162 3.566644,1.83121 4.155796,5.65025 -0.03991,8.10219 -3.922691,2.28592 -8.148187,2.4096 -12.385987,1.83482 -3.441334,-0.46647 -6.850226,-1.29139 -10.192634,-2.24012 -3.26698,-0.92684 -6.442275,-2.20519 -10.09883,-3.48006 -1.425426,1.49763 -3.269604,3.17016 -4.801913,5.10686 -3.525457,4.47553 -6.845361,9.12305 -10.379982,13.59599 -0.739969,0.92989 -2.319574,2.21934 -3.022347,1.96446 -1.878074,-0.67743 -3.528228,-2.03473 -5.119398,-3.31362 -0.215073,-0.17474 0.282481,-1.57357 0.74598,-2.18514 3.259491,-4.36872 6.502787,-8.75233 9.958347,-12.95179 1.464321,-1.77248 1.573964,-2.92608 0.132108,-4.82591 -5.957655,-7.85879 -10.096158,-16.5288 -12.479533,-26.21251 -1.852615,-7.49623 -3.20669,-14.95014 -3.107702,-22.65711 0.06282,-5.7146 1.039214,-11.26646 3.148286,-16.60235 1.107078,-2.79575 2.799848,-3.34721 5.137072,-1.50458 0.788903,0.62734 1.626839,1.47319 1.945482,2.38308 2.546693,7.21723 5.549384,14.34185 7.302628,21.75818 2.507588,10.62919 4.070787,21.4853 6.040102,32.24456 0.319431,1.71742 0.660613,3.43097 1.066396,5.13253 0.328829,1.40337 1.294279,1.70373 2.284928,0.7545 1.803829,-1.74558 3.530038,-3.57492 5.098706,-5.53177 0.40194,-0.50695 0.268022,-1.62879 0.09164,-2.39529 -2.007694,-8.512 -3.115819,-17.13106 -3.820513,-25.83751 -0.630143,-7.76511 -1.824066,-15.48937 -2.53498,-23.25744 -0.948785,-10.40207 -0.20767,-20.64113 3.705501,-30.4713 0.180684,-0.44851 0.409354,-0.88273 0.646905,-1.31463 1.443014,-2.54507 3.698061,-2.78024 5.378983,-0.33082 1.00809,1.45726 1.765758,3.17914 2.228222,4.89717 2.713078,10.16763 3.3639,20.57524 4.007738,31.04215 0.660035,10.79857 -0.07057,21.45962 -1.017105,32.16029 -0.172125,1.93252 -0.456047,3.86335 -0.568794,5.80288 -0.03473,0.61328 0.32543,1.23889 0.596605,2.20655 z"
     id="path239"
     style="fill:#ef98f9;stroke-width:0.981462" />
  <path
     class="cls-2"
     d="m 990.07889,128.67975 c -14.1469,20.8132 -27.3331,41.10678 -35.87,64.39975 -0.2911,0.79588 -1.3775,0.90287 -1.7971,0.17637 -2.2805,-3.92103 -7.0585,-6.83562 -3.6387,-12.70554 10.8137,-18.59269 17.1479,-38.89206 21.9357,-59.68913 1.6116,-6.97605 3.3289,-16.49411 3.8746,-21.15415 0.5537,-4.6612 0.452,-11.34041 -3.7462,-1.33197 -4.1982,10.00845 -22.5372,50.46411 -25.5222,80.31296 -0.091,0.92432 -1.2983,1.22282 -1.8165,0.44427 -3.25458,-4.8161 -7.25564,-7.68535 -4.63984,-13.90323 7.66584,-18.24633 12.30164,-37.33973 12.51484,-57.17046 0.088,-8.81082 -0.9233,-20.76036 -1.6696,-26.45186 -0.7452,-5.68339 -3.6253,-6.23725 -4.5729,-0.40085 -0.9557,5.83761 -9.87465,54.45344 -9.45517,83.38042 0.0162,0.91724 -1.09514,1.3675 -1.72918,0.70506 -7.12554,-7.53013 -6.91773,-8.21458 -4.95491,-17.92546 3.94637,-19.56559 5.93162,-39.28738 4.09914,-59.229 -1.23579,-13.44976 -3.65744,-26.62079 -9.92305,-38.814859 -0.44905,-0.871284 -1.7739,-0.638866 -1.88854,0.34696 -3.82132,33.987459 -0.96127,67.773379 3.82525,102.681499 0.13579,0.94143 -1.00681,1.52045 -1.68954,0.86506 -5.78229,-5.5119 -9.41041,-10.44808 -8.5694,-18.80419 2.80793,-27.91785 -1.17066,-55.32906 -8.6587,-82.258934 -1.25498,-4.508014 -2.80559,-8.94025 -4.33183,-13.376 -0.36318,-1.024601 -1.87504,-0.823104 -1.95127,0.256611 -2.34171,33.102983 3.71864,65.010663 10.75911,97.108333 0.231,1.02711 -1.06922,1.662 -1.74057,0.85582 -3.61682,-4.28333 -7.07966,-8.76284 -7.89688,-13.68195 -2.47982,-15.01009 -2.05665,-30.51343 -4.72079,-45.48036 -2.94118,-16.60044 -8.94376,-32.369935 -17.63043,-46.990113 -0.53583,-0.900273 -1.91749,-0.485599 -1.8662,0.559141 1.36486,29.163419 7.65898,57.292782 17.18648,84.864632 0.35038,0.99331 -0.86962,1.78232 -1.6278,1.06323 -4.86726,-4.56691 -8.75611,-9.35778 -10.10826,-17.12415 -3.13791,-18.02186 -8.09727,-35.80584 -13.58496,-53.289933 -2.14759,-6.848051 -6.60843,-13.594412 -9.80301,-19.487856 -3.20385,-5.900378 -4.86092,-4.178439 -3.71126,1.32234 1.14847,5.492663 10.76111,43.706109 18.95682,64.859029 0.43404,1.11377 -1.09092,1.91364 -1.76367,0.92541 -1.62089,-2.39239 -3.08532,-4.84878 -4.57175,-7.28543 -8.59427,-14.03701 -16.80274,-28.328508 -26.0458,-41.923999 -3.04769,-4.473113 -7.91198,-7.698369 -12.29431,-11.258224 -1.13533,-0.921513 -2.76338,-0.893804 -3.86024,0.0597 -0.0452,0.03134 -0.073,0.06855 -0.11825,0.09985 -0.39032,0.337979 -0.44636,0.925974 -0.14662,1.338384 9.49167,13.079127 18.9903,26.148959 28.24498,38.906049 0.65176,0.90013 -0.41934,2.0322 -1.35132,1.4293 -11.72581,-7.60392 -30.52389,-20.243735 -35.43388,-22.981889 -4.90884,-2.730025 -8.68074,0.06739 -3.11632,3.953843 5.56324,3.878316 25.56589,19.757606 39.14184,28.643876 1.062,0.70012 0.10981,2.31209 -1.01929,1.72106 -14.70502,-7.75412 -29.88277,-14.36306 -46.17283,-18.57476 -0.95469,-0.24338 -1.67097,0.87894 -1.02406,1.63063 1.22066,1.398 2.55123,2.6393 3.95127,3.78774 17.23443,13.97547 36.79484,23.51461 58.51147,27.44067 8.96594,1.62291 13.60565,6.85227 19.03639,13.94751 0.61221,0.79815 -0.19803,1.90087 -1.1436,1.54847 -28.74358,-10.60052 -56.38852,-19.09785 -86.2077,-22.4517 -1.01945,-0.11799 -1.54525,1.23359 -0.69911,1.81574 0.0651,0.0486 0.13693,0.088 0.19962,0.12033 26.7395,12.96071 54.75705,21.74394 84.49062,23.5278 7.88134,0.4787 12.0351,3.94728 16.05302,9.86278 0.51474,0.75421 -0.16112,1.75471 -1.06242,1.53676 -32.88328,-7.94059 -65.02538,-14.01637 -98.05586,-12.46652 -1.03661,0.05 -1.33624,1.41883 -0.41371,1.89883 1.83461,0.94491 3.69216,1.70426 5.58789,2.38356 30.18537,10.88962 61.313,14.52696 93.23246,12.05211 2.22854,-0.17233 5.3245,-0.30406 6.62613,0.96627 3.85497,3.75191 7.27108,7.96479 10.76592,12.09173 0.60743,0.7077 -0.0161,1.78349 -0.94289,1.61893 -35.6234,-6.20328 -70.81795,-5.69995 -106.14138,-1.89737 -1.04467,0.10929 -1.2236,1.56827 -0.23395,1.93919 8.02501,2.96818 16.09584,5.50723 24.34143,6.96066 27.17373,4.77098 54.28468,3.42048 81.26716,-2.03716 2.51913,-0.51248 6.39882,-0.78211 7.76444,0.64467 2.73125,2.85358 5.07333,6.05325 7.39,9.3063 0.96896,1.3763 -0.10708,3.22156 -1.78856,3.10785 -0.0161,0.003 -0.0325,0.004 -0.0486,0.006 -19.53638,-1.21668 -39.06574,-2.38466 -58.61546,-3.17693 -12.97556,-0.53093 -25.96906,-0.61195 -38.95579,-0.81818 -0.90568,-0.0185 -1.6957,0.59254 -1.93573,1.4556 -0.0865,0.31903 -0.15115,0.5603 -0.2319,0.86191 -0.24698,0.87237 0.14389,1.80184 0.94463,2.24142 2.00185,1.12789 4.02911,2.20246 6.15349,3.03098 17.74216,6.98468 36.31589,8.07511 54.95728,6.01594 14.34451,-1.58022 28.55527,-4.31754 42.82566,-6.69897 0.65502,-0.11098 1.32558,0.11539 1.76922,0.60642 2.11009,2.2804 4.31655,4.65461 7.08273,7.63569 0.5795,0.6289 0.1553,1.65109 -0.70969,1.68472 -36.99108,1.14353 -70.32926,10.09436 -101.93332,25.43929 -0.95953,0.46978 -0.61662,1.92811 0.45714,1.90579 36.08861,-0.50801 71.15523,-5.57421 103.50437,-25.57479 0.5249,-0.32425 1.2198,-0.10136 1.4583,0.4607 1.3064,3.08396 2.5569,6.01027 3.7691,8.8427 0.5909,1.39771 1.1784,2.77104 1.7647,4.13626 0.4525,1.06971 -0.2126,2.2592 -1.3592,2.466 -0.5171,0.0911 -1.0306,0.20668 -1.5302,0.36155 -30.03566,8.93017 -56.71077,24.73226 -84.12447,40.58289 -0.76475,0.44167 -0.62404,1.58949 0.22277,1.83186 0.25056,0.0716 0.45354,0.10032 0.64598,0.056 25.57019,-5.36993 50.65583,-12.31859 72.74762,-26.81339 5.0943,-3.33613 9.3833,-7.8899 13.7548,-12.3313 0.8315,-0.84069 2.2476,-0.67212 2.8276,0.36261 3.3768,6.00799 4.9429,12.50084 5.9921,19.14279 0.2,1.27183 2.1142,1.04543 1.9791,-0.23571 -0.1504,-1.50266 -0.3577,-2.99712 -0.6299,-4.4822 -1.0829,-5.84179 -3.1094,-11.50605 -4.7522,-17.20909 -0.1026,-0.36629 0.013,-0.77231 0.3083,-1.02202 22.2659,-19.49063 35.8498,-52.01975 36.4603,-69.49701 0.038,-0.99964 -1.267,-1.43273 -1.8341,-0.59704 z m -53.59882,41.54004 0.15421,-0.0222 c 0,0 0.034,0.0613 0.044,0.0765 -0.0685,-0.0151 -0.12865,-0.0311 -0.19838,-0.0543 z"
     id="path117"
     style="fill:#cb811f;stroke-width:0.819963" />
</svg>
