<?xml version="1.0" encoding="UTF-8" standalone="no"?>
<svg
   id="Tickets_background"
   viewBox="0 0 1530.12 395.6837"
   version="1.1"
   xmlns="http://www.w3.org/2000/svg"
   xmlns:svg="http://www.w3.org/2000/svg">
  <defs
     id="defs13">
    <style
       id="style11">.cls-1{fill:#53684b;}</style>
    <clipPath
       clipPathUnits="userSpaceOnUse"
       id="clipPath178">
      <rect
         style="fill:#000000"
         id="rect180"
         width="1765.7773"
         height="447.26373"
         x="-94.773361"
         y="-51.543404" />
    </clipPath>
  </defs>
  <path
     class="cls-1"
     d="m 1489.39,280.11 c 10.33,-12.81 3.94,-24.99 -8.08,-31.99 5.13,-3.22 10.22,-6.5 15.34,-9.75 -8.32,1.97 -16.7,3.76 -25.06,5.59 -12.96,-3.83 -28.38,-2.38 -37.72,7.87 0.06,-2.03 -0.06,-3.95 -0.31,-5.78 24.78,-7.25 48.96,-15.85 69.1,-33.67 -23.74,9.29 -49.72,12.73 -73.89,21.5 -2.01,-2.79 -4.56,-5.16 -7.51,-7.13 4.86,-2.29 9.69,-4.64 14.58,-6.81 14.56,-6.46 25.51,-16.83 33.76,-30.63 -22.25,9 -44.69,17.08 -63.82,31.28 -4.22,-0.87 -8.73,-1.3 -13.38,-1.29 1.8,-1.53 4.16,-2.8 6.95,-4.01 22.07,-9.64 42.97,-21.4 61.61,-41.17 -31.2,3.83 -51.28,21.74 -70.98,40.98 -3.39,-8.31 -0.82,-13.49 5.64,-17.7 9.15,-5.96 18.63,-11.6 26.95,-18.59 14.07,-11.83 28.41,-23.7 35.49,-41.74 -23.13,20.14 -52.26,33.25 -69.62,64 -0.47,-8.55 -0.74,-13.36 -0.99,-17.88 26.65,-11.07 51.41,-40.97 49.87,-56.35 -15.4,15.69 -32.08,32.69 -48.77,49.7 -0.97,-0.61 -1.94,-1.21 -2.91,-1.82 1.53,-3.21 2.42,-7.01 4.72,-9.53 9.86,-10.79 20.69,-20.72 29.97,-31.96 3.77,-4.57 4.48,-11.66 6.59,-17.61 -0.58,-0.12 -1.17,-0.23 -1.75,-0.35 -12.77,14.58 -25.54,29.16 -38.31,43.74 -1.06,-0.52 -2.12,-1.05 -3.19,-1.57 1.83,-4.1 2.86,-8.86 5.62,-12.18 12.2,-14.64 21.97,-30.35 27,-51.56 -18.65,12.33 -25.29,29.56 -32.79,46.65 7.76,-24.21 13.12,-48.36 10.3,-74.8 -14.86,22.24 -17.09,45.89 -13.97,72.35 q -39.91,-42.47 -50.56,-42.8 c 13.6,24.16 14.64,25.32 38,42.28 13.73,9.97 16.31,16.45 13.5,35.13 -24.38,-25.26 -48.38,-50.13 -72.37,-75 -0.76,0.74 -1.51,1.48 -2.27,2.23 2.84,5.65 5.54,11.37 8.53,16.94 13.68,25.51 36.23,41.82 59.94,56.58 7.86,4.9 10.32,10.5 8.29,19.12 -30.39,-27.43 -57.54,-58.17 -92.28,-80.12 21.1,20.56 35.31,47.7 61.75,63.08 10.53,6.12 19.87,14.4 29.21,22.34 2.19,1.86 2.19,6.29 2.79,8.23 -34.71,-26.89 -69.47,-53.81 -106.5,-82.5 2.54,3.7 3.32,5.17 4.41,6.37 27.63,30.63 56.39,60.06 93.06,80.09 5.08,2.77 7.95,5.94 8.96,9.86 -3.79,0.4 -7.62,1.06 -11.42,1.98 -26.35,-21.8 -52.49,-43.86 -79.33,-65.03 -6.98,-5.51 -16.35,-7.98 -24.63,-11.85 6.95,9.5 15.81,16.06 22.4,24.4 14.55,18.41 32.59,31.85 53.38,42.14 7.66,3.79 15.16,7.91 22.74,11.86 -4.05,1.27 -8.01,2.84 -11.81,4.7 -31.04,-22.8 -64.24,-42.06 -98.69,-59.39 0.59,2.09 1.94,3.08 3.16,4.22 5.47,5.09 11.08,9.97 16.79,14.7 -6.46,4.58 -11.7,8.6 -16.37,12.77 -4.25,-1.53 -8.55,-2.97 -12.91,-4.29 -0.43,0.77 -0.85,1.54 -1.28,2.31 3.25,2.06 6.51,4.11 9.76,6.17 -5.56,5.54 -10.55,11.75 -16.32,20.11 -5.09,-5.05 -10.73,-9.35 -16.72,-12.89 13.3,-20.79 23.23,-42.62 27.78,-67.05 -15.13,19.25 -30.57,38.27 -40.47,60.88 -3.62,-1.41 -7.3,-2.56 -11.01,-3.47 18.3,-28.67 35.24,-74.33 31.62,-91 -11.84,31.18 -38.41,54.56 -43.51,88.96 -5.9,-0.58 -11.76,-0.52 -17.45,0.18 20.87,-31.44 46.27,-60.31 41.73,-103.64 -15.25,35.86 -38.46,65.58 -44.25,103.15 -16.9,-9.42 -17.41,-10.37 -11.02,-20.93 20.05,-33.12 17.6,-69.54 16.57,-105.75 -11.52,36.63 -26.92,72.34 -24.41,112.2 -10.18,-2.74 -13.02,-8.23 -10.64,-16.94 1.85,-6.76 3.08,-13.69 4.9,-20.47 8.2,-30.52 17,-60.96 10.9,-93.26 -6.68,40.2 -29.12,77.65 -19.67,121.54 -9.37,-4.65 -16.3,-8.25 -13.27,-20.57 3.17,-12.88 3.62,-26.44 5.22,-39.71 1.91,-15.81 -1.39,-30.53 -9.02,-44.68 -4.74,30.67 -10.96,60.82 -1.73,91.74 -11.74,-2.44 -13.14,-8.59 -11.94,-18.1 3.02,-23.89 3.62,-47.87 -3.82,-74 -12.68,28.76 -7.58,55.18 -1.14,81.95 -8.87,-1.34 -12.01,-6.2 -12.31,-13.91 -0.43,-10.91 -0.43,-21.95 -2.17,-32.67 -2.95,-18.14 -5.81,-36.54 -17.68,-51.86 5.46,30.18 1.8,61.91 19.33,92.57 -7.58,-3.97 -11.86,-6.2 -15.87,-8.3 4.13,-28.56 -8.86,-65.14 -22.87,-71.69 5.59,21.26 11.66,44.3 17.72,67.34 -1.02,0.52 -2.03,1.04 -3.05,1.57 -1.97,-2.96 -4.78,-5.67 -5.77,-8.93 -4.22,-13.99 -7.21,-28.39 -12.11,-42.11 -1.99,-5.58 -7.72,-9.82 -11.75,-14.68 -0.4,0.44 -0.8,0.88 -1.2,1.32 5.99,18.43 11.97,36.87 17.96,55.3 -0.99,0.64 -1.99,1.29 -2.98,1.93 -2.58,-3.67 -6.15,-6.99 -7.58,-11.06 -6.33,-17.98 -14.82,-34.41 -30.47,-49.59 1.04,22.33 12.44,36.86 23.28,52.06 -16.82,-19.06 -34.82,-36.03 -58.97,-47.15 11.49,24.15 30.66,38.18 54.99,49.05 Q 970,134.4 964.26,143.38 c 4.59,0.11 8.46,0.2 11.84,0.21 -3.4,5.41 -6.66,10.89 -9.79,16.44 -3.56,0.83 -7.12,1.67 -10.68,2.5 0.25,1.03 0.5,2.06 0.75,3.09 2.19,0.16 4.37,0.33 6.56,0.51 -12.97,23.9 -23.74,48.95 -33.8,74.44 -0.76,1.93 -3.65,1.15 -3.34,-0.9 0.75,-4.96 1.77,-9.83 2.74,-14.7 5.57,-28.05 11.95,-55.99 16.16,-84.25 1.52,-10.22 -1.54,-21.12 -2.81,-31.75 -0.1,-0.86 -0.81,-1.52 -1.68,-1.54 -1.07,-0.02 -2.14,-0.05 -3.21,-0.07 -0.9,-0.02 -1.66,0.64 -1.77,1.54 -3.3,27.9 -6.59,55.79 -9.8,83 -0.23,1.92 -2.93,2.1 -3.41,0.23 -6.01,-23.54 -12.08,-47.31 -18.16,-71.12 -5.27,0.84 -3.37,0.53 -8.64,1.37 1.63,28.18 9.35,55.38 16.23,82.73 0.54,2.15 -2.59,3.09 -3.33,1 -9.65,-27.24 -21.23,-53.57 -37.08,-78.17 -0.92,-1.43 -3.17,-0.84 -3.22,0.87 -0.1,3.23 0.13,6.38 0.58,9.5 5.54,38.17 19.26,73.42 42.39,104.05 1.29,1.7 2.39,3.4 3.34,5.09 -4.52,4.36 -6.91,11.51 -6.07,21.72 -22.07,-41.95 -45.62,-80.71 -76.34,-116.21 -1.17,-1.35 -3.42,-0.25 -3.03,1.49 0.03,0.14 0.07,0.27 0.12,0.4 18.86,48.09 44.3,92.34 80.17,129.67 1.34,1.4 2.51,2.79 3.53,4.17 0.18,0.51 0.34,1.01 0.53,1.52 0.67,1.86 1.4,3.77 2.2,5.74 -0.8,-2 -1.85,-3.91 -3.12,-5.74 -5.95,-8.55 -16.82,-15.3 -30.12,-20.13 -14.59,-19.6 -29.92,-38.3 -46.68,-55.67 0.32,-0.51 0.65,-1.03 0.97,-1.54 1.42,-2.25 2.37,-4.93 2.96,-7.53 0.35,-1.53 -0.45,-3.32 -0.74,-5.06 -3.77,2.05 -7.35,4.21 -10.8,6.44 -7.55,-7.45 -15.39,-14.63 -23.58,-21.51 -0.19,-0.16 -0.39,-0.26 -0.59,-0.33 -1.85,-1.7 -3.69,-1.56 -6.2,-0.02 -20.09,12.39 -33.24,30.27 -40.05,52.47 -3.6,11.73 -6.38,23.72 -9.17,35.7 -1.52,-1.99 -3.19,-3.92 -4.98,-5.79 5.77,-20.97 11.46,-41.96 17.43,-62.87 3.03,-10.62 6.86,-21.01 10.44,-31.47 1.06,-3.11 2.49,-6.11 3.68,-9 -2.96,-2.39 -5.05,-1.78 -7.45,0.4 -8.63,7.83 -16,16.64 -21.74,26.79 -10.9,19.29 -15.03,40.39 -16.55,62.16 -0.05,0.66 -0.09,1.32 -0.13,1.98 -2.08,-1.43 -4.23,-2.8 -6.46,-4.13 1.48,-7.05 2.41,-14.23 3.89,-21.29 4.25,-20.37 9.91,-40.3 18.69,-59.26 3.64,-7.85 8.9,-15.06 9.99,-23.96 0.17,-1.39 0.29,-3.39 -0.49,-4.16 -1.77,-1.75 -3.28,-0.07 -4.67,1.24 -11.75,10.95 -19.95,24.34 -26.56,38.8 -2.57,5.62 -4.92,11.34 -7.38,17.01 -0.2,-0.08 -0.41,-0.16 -0.61,-0.24 7.24,-25.31 14.48,-50.62 21.73,-75.92 -0.2,-0.35 -0.41,-0.7 -0.61,-1.05 -1.58,0.59 -3.6,0.74 -4.68,1.83 -13.98,14.09 -23.1,30.99 -28.24,50.06 -5,18.55 -5.83,37.5 -5,56.58 0.05,1.23 0.01,2.46 0.02,4.31 -5.21,-6.06 -5.91,-8.05 -5.52,-14.82 0.69,-12.03 1.25,-24.06 2.1,-36.08 1.64,-23.17 3.35,-46.33 5.27,-69.47 0.53,-6.38 1.9,-12.7 2.87,-18.98 -2.65,-1.3 -4.31,-1.23 -5.87,1.28 -8.6,13.93 -14.25,28.96 -17.17,45.03 -3.69,20.37 -2.97,40.81 -0.68,61.26 0.21,1.91 0.42,3.83 0.63,5.74 -6.63,-10.07 -12.47,-20.25 -11.69,-32.76 1.07,-17.23 2,-34.47 3.04,-51.7 0.75,-12.39 1.61,-24.78 2.29,-37.18 0.05,-0.92 -0.85,-2.64 -1.43,-2.69 -1.1,-0.1 -2.44,0.53 -3.37,1.26 -0.83,0.65 -1.25,1.83 -1.82,2.79 -11.03,18.53 -14.12,38.81 -12.89,59.94 0.54,9.23 1.75,18.42 2.7,28.09 -7.81,-7.23 -13.24,-15.13 -12.37,-26.07 1.5,-18.82 3.07,-37.63 4.47,-56.46 0.61,-8.24 0.9,-16.5 1.33,-24.74 -0.41,-0.06 -0.81,-0.12 -1.22,-0.18 -15.16,14.8 -15.03,34.83 -18.33,53.86 -2.75,-19.61 -5.5,-39.22 -8.27,-58.97 -1.67,-0.06 -2.98,-0.1 -4.58,-0.15 -2.25,12.03 -4.47,23.85 -6.8,36.29 -3.11,-3.29 -5.54,-5.94 -8.05,-8.49 -10.01,-10.15 -21.2,-18.42 -35.38,-21.77 -1.25,-0.3 -2.68,0.19 -4.03,0.32 0.51,1.33 0.68,3 1.6,3.94 2.82,2.87 5.67,5.72 8.5,8.57 -32.34,12.56 -62.64,29.37 -92.46,47.47 -1.77,1.08 -3.6,-1.29 -2.12,-2.74 3.6,-3.5 7.36,-6.75 11.08,-10.05 21.4,-18.97 43.37,-37.37 63.82,-57.32 7.39,-7.21 11.55,-17.75 16.96,-26.98 0.44,-0.75 0.27,-1.7 -0.41,-2.24 l -2.51,-2 c -0.7,-0.56 -1.71,-0.49 -2.34,0.15 -19.5,20.23 -38.99,40.45 -58,60.17 -1.34,1.39 -3.61,-0.1 -2.86,-1.88 9.45,-22.38 18.99,-44.98 28.55,-67.63 -4.7,-2.52 -3.01,-1.61 -7.71,-4.14 -15.75,23.43 -26.05,49.76 -37.11,75.7 -0.87,2.04 -3.93,0.89 -3.25,-1.22 8.79,-27.53 15.49,-55.51 17.74,-84.69 0.13,-1.7 -2.01,-2.58 -3.09,-1.25 -2.03,2.51 -3.75,5.16 -5.28,7.92 -18.67,33.75 -29.05,70.12 -29.16,108.5 -0.04,15.84 -7.58,25.37 -18.09,36.83 -1.18,1.29 -3.3,0.24 -3,-1.48 9.37,-52.4 15.5,-102.3 12.18,-154.36 -0.11,-1.78 -2.58,-2.27 -3.31,-0.64 -0.06,0.13 -0.11,0.26 -0.14,0.39 -14.06,49.7 -20.56,100.33 -14.57,151.75 1.59,13.63 -3.09,21.8 -11.99,30.46 -1.15,1.12 -3.06,0.25 -2.96,-1.34 3.58,-58.69 4.21,-115.56 -8.49,-171.61 -0.4,-1.75 -2.84,-1.84 -3.37,-0.13 -1.07,3.42 -1.79,6.84 -2.38,10.29 -9.45,54.98 -6.21,109.34 7.73,163.24 0.97,3.75 2.14,9.01 0.36,11.63 -4.28,6.32 -9.18,12.22 -14.09,18.11 -2.11,-1.38 -4.26,-2.67 -6.46,-3.85 -0.99,-60.44 -12.33,-118.34 -28.98,-175.52 -0.51,-1.76 -3.06,-1.62 -3.39,0.18 -2.63,14.65 -4.52,29.22 -4.5,43.79 0.08,43.38 8.74,85.15 23.38,125.69 -6.18,-2.09 -12.5,-3.46 -18.8,-4.11 -2.54,-21.51 -5.2,-43 -8.12,-64.46 -3.17,-23.25 -7.16,-46.39 -10.89,-69.56 -3.68,-0.33 -3.19,-0.29 -6.87,-0.61 -1.62,4.62 -3.23,9.24 -4.19,13.99 -6.55,32.49 -2.77,64.62 6.41,95.89 2.43,8.28 5.11,16.5 7.9,24.68 -5.74,0.55 -11.3,1.76 -16.56,3.62 -13.87,-35.87 -32.3,-68.88 -54.85,-99.94 -1.1,-1.51 -3.48,-0.48 -3.13,1.36 7.54,39.21 18.12,77.13 36.17,112.24 -6.79,6.9 -11.88,15.85 -14.45,26.9 -21.51,-32.95 -47.24,-63.03 -73.13,-93.77 -0.99,-1.17 -2.91,-0.59 -3.07,0.93 -0.05,0.45 -0.03,0.82 0.1,1.14 12.33,30.63 26.03,60.56 44.7,87.46 -18.42,-9.55 -41.79,-12.08 -61.95,-4.93 1.47,-3.27 2.64,-6.66 3.09,-10.34 0.17,-1.39 0.29,-3.39 -0.49,-4.16 -1.77,-1.75 -3.28,-0.07 -4.67,1.24 -8.63,8.05 -15.34,17.41 -20.92,27.55 -3.16,3.11 -6.06,6.64 -8.65,10.62 5.58,-19.5 11.16,-39.01 16.74,-58.51 -0.2,-0.35 -0.41,-0.7 -0.61,-1.05 -1.58,0.59 -3.6,0.74 -4.68,1.83 -13.98,14.09 -23.1,30.99 -28.24,50.06 -1.26,4.66 -2.25,9.34 -3.02,14.04 -1.74,-1.8 -3.51,-3.51 -5.31,-5.13 1.62,-22.81 3.3,-45.61 5.19,-68.39 0.53,-6.38 1.9,-12.7 2.87,-18.98 -2.65,-1.3 -4.31,-1.23 -5.87,1.28 -8.6,13.93 -14.25,28.96 -17.17,45.03 -1.73,9.55 -2.48,19.11 -2.57,28.68 -2.91,-1.54 -5.79,-2.81 -8.61,-3.81 0.84,-14.11 1.64,-28.22 2.49,-42.32 0.75,-12.39 1.61,-24.78 2.29,-37.18 0.05,-0.92 -0.85,-2.64 -1.43,-2.69 -1.1,-0.1 -2.44,0.53 -3.37,1.26 -0.83,0.65 -1.25,1.83 -1.82,2.79 -11.03,18.53 -14.12,38.81 -12.89,59.94 0.3,5.16 0.81,10.31 1.37,15.53 -2.9,-0.07 -5.61,0.26 -8.07,1 -2.26,-4.27 -3.42,-9.01 -2.98,-14.51 1.5,-18.82 3.07,-37.63 4.47,-56.46 0.61,-8.24 0.9,-16.5 1.33,-24.74 -0.41,-0.06 -0.81,-0.12 -1.22,-0.18 -15.16,14.8 -15.03,34.83 -18.33,53.86 -2.75,-19.61 -5.5,-39.22 -8.27,-58.97 -1.67,-0.06 -2.98,-0.1 -4.58,-0.15 -2.25,12.03 -4.47,23.85 -6.8,36.29 -3.11,-3.29 -5.54,-5.94 -8.05,-8.49 -10.01,-10.15 -21.2,-18.42 -35.38,-21.77 -1.25,-0.3 -2.68,0.19 -4.03,0.32 0.51,1.33 0.68,3 1.6,3.94 10.02,10.19 20.16,20.26 30.25,30.37 3.91,3.91 7.79,7.85 11.69,11.78 C 42.53,189.26 27.93,180.6 9.66,183.2 35.46,197.13 60.12,211 79.83,232.03 54.85,217.74 29.58,205.81 -0.01,218.85 c 2.54,1.6 5.15,3.05 7.94,3.77 4.69,1.21 9.52,1.83 14.24,2.91 16.1,3.68 32.36,6.82 48.2,11.39 7.72,2.23 14.79,5.62 20.82,10.45 -2.5,2.37 -4.36,5.58 -5.4,9.68 -14.31,-7.3 -29.03,-13.56 -45.06,-16.43 -10.83,-1.94 -21.54,-2.12 -31.57,3.48 -1.18,0.66 -2.23,1.57 -3.6,2.54 16.79,5.35 32.91,10.46 49,15.63 10.27,3.3 20.53,6.62 30.8,9.94 0.22,1.61 0.51,3.28 0.88,5.03 -6.2,-1.48 -12.42,-2.67 -18.72,-3.57 C 49.1,265 23.71,260.73 0.1,261.4 V 1353.43 H 1530.11 V 270.31 c -9.77,-4.91 -24.58,-3.15 -40.72,9.8 z m -371.98,-14.35 c -0.56,0.66 -1.12,1.33 -1.67,2.01 -1.91,-4.2 -4.41,-8.1 -7.38,-11.69 3.31,-2.53 6.63,-5.05 9.94,-7.58 -0.87,5.31 -1.21,11.06 -0.9,17.26 z m 205.73,0.45 c -0.76,-14 -8.77,-23.32 -18.95,-28.02 0.95,-0.51 1.91,-1.03 2.86,-1.54 7.4,4.68 14.8,9.36 22.24,14.06 -2.89,4.68 -5.02,9.85 -6.15,15.5 z m -42.86,-75.95 c 20.39,16.49 42.23,30.82 65.07,43.71 -2.92,2.07 -5.65,4.34 -8.15,6.82 -5.57,-3.9 -11.23,-7.65 -16.97,-11.24 0.62,-0.33 1.22,-0.66 1.84,-0.99 -1.49,-0.25 -2.95,-0.44 -4.4,-0.6 -14.68,-9 -29.97,-16.92 -46.02,-23.47 3.2,-4.47 6.12,-9.19 8.64,-14.24 z m -13.67,20.82 c 9.35,5.91 18.7,11.82 28.07,17.75 -8.09,1.67 -15.36,4.75 -22.06,8.8 -3.19,1.43 -6.07,3.35 -8.45,5.78 -2.46,1.88 -4.85,3.88 -7.19,5.97 -2.81,-6.23 -6.28,-11.87 -10.23,-16.95 6.92,-6.87 13.74,-13.82 19.86,-21.35 z m -113.63,-16.01 c 2.24,1.87 4.97,4.16 8.04,6.73 -15.2,3.9 -28.34,12.88 -36.15,27.13 -9.68,5.54 -18.45,11.32 -26.55,17.55 -6.78,-5.18 -14.73,-9.21 -23.24,-11.89 25.72,-13.05 51.61,-26.18 77.9,-39.52 z M 980.25,167.04 c 9.09,-0.03 17.85,-1.24 26.37,-3.3 -0.27,0.1 -0.52,0.27 -0.74,0.53 -0.99,1.18 -1.95,2.38 -2.93,3.56 -9.22,2.95 -18.34,6.19 -27.3,9.93 0.52,-1.09 1.04,-2.18 1.55,-3.27 1.14,-2.42 2.14,-4.91 3.04,-7.45 z m 13.76,11.98 c -3.75,4.86 -7.39,9.8 -10.93,14.79 -6.25,2.45 -12.55,4.93 -18.9,7.42 3.19,-6.31 6.3,-12.66 9.36,-19.03 6.79,-1.22 13.64,-2.17 20.48,-3.18 z m -30.18,22.88 c 3.29,-0.18 4.74,-0.15 6.12,-0.43 3.03,-0.6 6.05,-1.22 9.07,-1.84 -10.65,15.48 -20.36,31.54 -29.28,48.09 -3.07,-1.51 -6.09,-2.72 -9.04,-3.63 8.23,-13.74 15.87,-27.87 23.12,-42.2 z m 8.53,62.21 c -1.7,-1.67 -3.42,-3.25 -5.17,-4.73 3.08,-4.19 6.06,-8.44 8.86,-12.81 5.96,-9.31 11.23,-18.98 15.81,-28.96 5.62,-1.44 11.06,-2.96 16.6,-3.69 2.03,-0.27 4.03,-0.59 6.01,-0.94 -15.5,16.01 -29.32,33.2 -42.12,51.14 z m 172.7,-72.7 c -31.59,10.3 -61.86,22.81 -89.71,39.52 -16.32,-1.01 -32.97,2.9 -46.35,12.93 1.27,-2.26 2.53,-4.53 3.77,-6.82 36.96,-12.72 71.38,-30.8 104.51,-51.79 13.61,-8.62 15.7,-7.51 27.78,6.14 z m -20.98,-15.07 c -37.02,12.76 -71.79,29.76 -105.27,49.33 0.05,-0.09 0.09,-0.18 0.14,-0.26 2.51,-4.9 4.8,-9.91 7.03,-14.95 16.38,-4.32 31.56,-11.47 46.02,-20.81 9.16,-5.92 18.66,-11.33 27.84,-17.23 9.14,-5.86 17.05,-5.09 24.24,3.92 z m -15.55,-9.78 c -3.9,1.18 -7.26,2.06 -10.53,3.22 -33.1,11.81 -66.35,23.25 -99.17,35.8 -0.75,0.29 -1.49,0.62 -2.23,0.96 1.55,-3.87 2.99,-7.78 4.34,-11.74 29.73,-7.08 58.71,-16.45 85.46,-32.25 9.01,-5.32 15.43,-3.82 22.13,4 z m -20.91,-13.8 c -27.62,10.85 -55.27,21.7 -83.75,32.89 0.85,-2.84 1.65,-5.69 2.4,-8.57 13.33,-2.34 26.42,-5.67 38.71,-12.48 10.65,-5.91 22.55,-9.69 34.14,-13.65 2.72,-0.93 6.53,1.34 8.5,1.82 z m -12.38,-5.66 c -22.03,6.79 -44.43,12.16 -66.34,18.87 0.02,-0.07 0.03,-0.15 0.05,-0.22 0.28,-1.32 -0.89,-2.26 -2,-2.09 16.57,-4.05 32.24,-11.3 47.62,-19.24 8.23,-4.25 14.3,-3.49 20.67,2.67 z m -88.71,-3.87 c 9.83,-0.87 16.59,-3.62 33.48,-10.87 15.59,-6.69 22.48,-5.59 37.09,6.39 -24.72,5.79 -49.15,11.51 -73.51,17.21 1.07,-4.2 2.01,-8.46 2.94,-12.73 z M 849.31,262.54 c -10.45,-1.26 -21.18,-1.61 -31.44,-0.99 -2.71,-2.24 -5.44,-4.47 -8.18,-6.67 5.22,-8.23 10.43,-16.48 15.64,-24.72 7.43,11.26 15.43,22.05 23.98,32.38 z m -58.95,-50.5 c 4.21,-7.24 8.24,-14.57 12.25,-21.79 0.94,2.22 1.98,4.38 3.08,6.5 3.26,6.27 6.67,12.41 10.24,18.42 -9.56,7.64 -17.69,16.13 -24.5,25.39 -3.48,-2.66 -6.98,-5.3 -10.51,-7.91 -0.55,-0.41 -1.16,-0.43 -1.67,-0.22 3.51,-6.88 7.21,-13.68 11.11,-20.39 z m -12.16,22.47 c 0.03,0.11 0.07,0.22 0.13,0.33 2.41,4.73 4.9,9.4 7.5,13.97 -4.76,7.6 -8.76,15.66 -12.07,24.14 -7.37,4.43 -12.6,10.15 -14.63,17.23 -0.45,1.58 -0.74,3.24 -0.86,4.96 -0.31,-1.68 -0.7,-3.33 -1.17,-4.96 -0.27,-0.91 -0.57,-1.8 -0.9,-2.69 6.02,-18.23 13.39,-35.87 21.99,-52.98 z M 628.85,153.96 c -19.2,-10.98 -38.57,-20.56 -59.94,-18.49 6.34,-4.39 12.49,-9.1 18.45,-14.11 15.13,9.26 29.27,19.55 41.49,32.6 z m -33.34,-49.29 c 3.91,3.91 7.79,7.85 11.69,11.78 -14.29,-4.81 -27.72,-12.45 -43.87,-11.74 6.52,-3.89 12.56,-8.71 18.5,-13.72 4.56,4.56 9.12,9.12 13.68,13.68 z m -149.25,64.12 c 6.34,-9.72 13.34,-17.82 26.24,-22.51 29.88,-10.86 58.82,-24.75 87.06,-39.46 0.38,-0.2 0.75,-0.4 1.12,-0.61 6.99,3.79 13.9,7.59 20.63,11.54 -46.76,11.41 -90.63,30.03 -132.74,53.52 -1.59,0.89 -3.31,-0.95 -2.31,-2.48 z m -28.63,34.31 c 6.23,-7.48 12.85,-14.77 21.02,-17.67 24.93,-8.82 51.6,-12.81 76.4,-21.91 14.14,-5.19 27.65,-11.69 40.48,-19.41 0.47,0.16 0.94,0.32 1.43,0.44 4.69,1.21 9.52,1.83 14.24,2.91 16.1,3.68 32.36,6.82 48.2,11.39 13.91,4.02 25.74,11.79 33.05,25.01 0.96,1.73 1.68,3.6 2.9,6.26 -4.3,-2.39 -7.63,-4.3 -11,-6.12 -17.33,-9.36 -34.98,-17.94 -54.59,-21.45 -2.36,-0.42 -4.71,-0.75 -7.06,-0.97 0.29,-0.16 0.58,-0.32 0.87,-0.48 1.65,-0.92 0.85,-3.46 -1.03,-3.26 -57.37,6.07 -110.13,26.14 -162.91,47.97 -1.68,0.7 -3.17,-1.32 -2,-2.72 z m 6.24,9.36 c 48.64,-3.7 94.34,-18.84 138.14,-39.85 0.68,-0.33 1.35,-0.68 2.03,-1.01 13.43,4.27 26.5,8.43 39.55,12.62 17.76,5.7 35.48,11.49 53.25,17.16 4.81,1.53 8.8,4.12 12.77,8.67 -18.38,-7.12 -36.28,-12.2 -54.84,-14.69 -13.61,-1.83 -27.23,-2.61 -40.69,1.07 -1.38,0.38 -2.74,0.81 -4.06,1.32 -50.94,3.36 -100.14,15.08 -149.95,30.26 -3.56,-3.97 -7.45,-7.52 -11.58,-10.67 4.19,-2.7 9.11,-4.4 15.37,-4.88 z m 75.93,50.3 c 0.43,-0.11 0.86,-0.21 1.29,-0.32 -0.36,1.24 -0.67,2.5 -0.93,3.78 -0.06,-1.19 -0.19,-2.34 -0.36,-3.46 z m -62.6,-13.95 c -1.11,0.1 -2.21,0.2 -3.32,0.31 -1.36,-2.97 -2.87,-5.81 -4.5,-8.52 5.4,-0.14 10.8,-0.38 16.18,-0.73 -3.46,2.26 -6.35,5.24 -8.36,8.94 z m 71.55,-1.71 c -5.41,-0.27 -10.83,-0.45 -16.24,-0.53 -4.22,-4.85 -9.81,-8.22 -15.87,-10.12 10.73,-1.69 21.39,-3.93 31.98,-6.84 19.44,-5.33 38.26,-12.11 55.19,-23.04 0.97,0.29 1.91,0.54 2.86,0.72 22.12,4.13 44.24,8.21 66.37,12.26 13.94,2.55 27.92,4.89 41.83,7.57 5.59,1.08 10.23,4.45 13.05,9.06 -17.7,-5.39 -36.56,-8.22 -53.86,-8.11 -0.59,-0.13 -1.19,-0.27 -1.78,-0.4 -10.46,-2.23 -21.01,-1.85 -31.16,1.21 -21.24,-17.93 -71.37,-10.09 -92.37,18.22 z"
     id="path15"
     clip-path="url(#clipPath178)"
     transform="translate(0.01,-0.03660281)" />
</svg>
