<?xml version="1.0" encoding="UTF-8" standalone="no"?>
<svg
   id="Sponsorship_background"
   viewBox="0 0 1534.4 526.48152"
   version="1.1"
   xmlns="http://www.w3.org/2000/svg"
   xmlns:svg="http://www.w3.org/2000/svg">
  <defs
     id="defs4">
    <style
       id="style2">.cls-1{fill:#5f7857;}</style>
    <clipPath
       clipPathUnits="userSpaceOnUse"
       id="clipPath177">
      <rect
         style="fill:#000000"
         id="rect179"
         width="1862.3286"
         height="600.67633"
         x="-113.64147"
         y="-74.214836" />
    </clipPath>
  </defs>
  <path
     class="cls-1"
     d="m 1506.94,405.13 c 2,-1.94 3.91,-4.09 5.7,-6.5 -19.37,3.4 -37.74,6.62 -56.06,9.83 -1.47,-4.26 0.2,-7.41 4.82,-8.51 3.77,-0.9 7.69,-1.22 11.56,-1.68 12.16,-1.45 24.19,-3.45 35.5,-8.41 2.52,-1.11 6.27,-1.99 5.39,-5.54 -0.83,-3.32 -4.43,-1.8 -6.82,-1.73 -12.6,0.34 -25.19,0.85 -37.79,1.3 -1.67,0.06 -3.34,0.1 -5.59,-0.72 1.55,-1.32 2.89,-3.16 4.68,-3.85 3.48,-1.34 7.22,-1.99 10.82,-3.01 9.98,-2.83 20.03,-5.45 29.86,-8.71 2.6,-0.86 6.69,-4.34 6.35,-5.59 -1.02,-3.71 -5.13,-2.28 -8.06,-2.16 -9.74,0.4 -19.46,1.02 -29.19,1.54 -0.99,0.05 -1.99,0.01 -2.99,0.02 -0.1,-0.36 -0.2,-0.72 -0.29,-1.08 5.16,-1.78 10.31,-3.61 15.49,-5.31 6.77,-2.22 13.68,-4.07 20.3,-6.66 2.62,-1.02 4.62,-3.62 6.9,-5.5 -0.26,-0.5 -0.51,-1 -0.77,-1.51 -11.34,1.38 -22.68,2.77 -34.02,4.15 -0.1,-0.37 -0.2,-0.74 -0.3,-1.11 8.64,-2.92 17.27,-5.88 25.93,-8.73 2.71,-0.89 5.57,-1.34 8.25,-2.29 1.05,-0.37 1.79,-1.6 2.67,-2.44 -1.02,-0.6 -2.05,-1.73 -3.06,-1.71 -7.26,0.09 -14.51,0.42 -22.85,0.71 3.48,-1.36 6.08,-2.42 8.71,-3.39 4.26,-1.58 8.6,-2.97 12.78,-4.73 1.19,-0.5 1.95,-2 2.91,-3.04 -1.25,-0.44 -2.56,-1.36 -3.75,-1.22 -5.02,0.59 -10,1.54 -15,2.27 -1.77,0.26 -3.58,0.28 -5.37,0.41 -0.07,-0.41 -0.14,-0.83 -0.21,-1.24 8.56,-3.66 17.14,-7.26 25.65,-11.02 2.11,-0.93 3.99,-2.37 5.97,-3.58 -0.19,-0.56 -0.38,-1.11 -0.56,-1.67 -5.55,0.56 -11.09,1.12 -16.64,1.68 -0.09,-0.18 -0.18,-0.37 -0.27,-0.55 6.88,-3.81 13.76,-7.62 20.63,-11.43 -0.03,-0.32 -0.06,-0.64 -0.09,-0.97 -4.5,0.24 -9,0.48 -13.69,0.73 2.4,-1.68 4.51,-3.63 6.98,-4.81 4.78,-2.28 7.34,-5.57 6.75,-11.04 -0.16,-1.49 0.13,-3.04 0.21,-4.61 -7.17,4.35 -8.14,4.47 -17.19,1.87 -0.38,4.67 -0.75,9.27 -1.17,14.49 -5.31,-2.38 -3.17,-8.96 -8.7,-9.8 -0.08,5.73 -0.15,11.34 -0.24,17.87 -2.32,-3.31 -4.11,-5.85 -6.58,-9.37 -0.81,6.27 -1.48,11.54 -2.25,17.51 -2.55,-3.63 -4.78,-6.81 -7.02,-9.99 -0.33,0.11 -0.66,0.21 -0.99,0.32 l 1.2,20.2 c -0.21,0.05 -0.43,0.11 -0.64,0.17 -1.88,-3.71 -3.76,-7.43 -5.64,-11.14 -0.21,0 -0.42,0 -0.62,0 -0.36,9.75 -0.72,19.49 -1.12,30.31 -5.15,-8.5 -4.74,-19.09 -14.65,-24.55 1.32,7.09 2.52,13.56 3.83,20.62 -4.14,-2.71 -7.72,-5.05 -11.3,-7.39 -0.26,0.19 -0.53,0.38 -0.79,0.58 2.72,9.67 5.44,19.33 8.16,29 -0.25,0.23 -0.5,0.47 -0.76,0.7 -4.11,-4.35 -8.28,-8.65 -12.3,-13.08 -2.08,-2.3 -3.83,-4.91 -5.87,-7.25 -0.48,-0.55 -1.8,-1.04 -2.26,-0.76 -0.57,0.34 -0.97,1.55 -0.87,2.31 0.17,1.39 0.66,2.76 1.18,4.08 3.23,8.29 6.51,16.57 10.09,25.67 -9.12,-5.83 -14.46,-15.55 -25.63,-17.85 0.96,2.2 1.99,4.34 3.07,6.44 -18.15,0.32 -36.29,0.7 -54.44,0.86 -1.87,0.02 -5.07,-1.18 -5.34,-2.35 -0.54,-2.37 0.05,-5.29 1.05,-7.6 0.6,-1.38 2.74,-2.32 4.39,-2.97 2.77,-1.1 5.69,-1.79 8.54,-2.68 7.05,-2.2 14.62,-3.43 21.05,-6.81 13.85,-7.3 22.85,-19.62 30.37,-33.02 0.43,-0.76 -0.26,-2.14 -0.56,-4.1 -18.57,16.19 -39.05,24.55 -62.84,25.79 2.95,-4.88 6.29,-8.11 11.84,-9.03 4.44,-0.74 8.81,-2.25 13.05,-3.86 9.67,-3.68 18.11,-9.12 23.58,-18.26 2.44,-4.08 4.21,-8.4 4.08,-13.95 -15.38,12.57 -32.16,20.14 -51.61,22.11 1.96,-3.17 3.82,-6.69 6.72,-8.66 6.19,-4.2 12.75,-7.97 19.49,-11.23 8.8,-4.26 17.65,-8.31 24.77,-15.24 4.4,-4.28 8.08,-9.03 9.46,-15.84 -19.97,8.15 -39.44,16.1 -58.91,24.05 14.76,-17.01 34.77,-25.35 55.16,-34.28 -15.3,-7.56 -28.41,-1.02 -42.01,3.66 7.11,-10.37 17.27,-17.63 25.79,-27.25 -11.34,-1.26 -19.42,6.34 -29.89,9.06 6.22,-7.55 11.89,-14.41 17.53,-21.3 0.9,-1.1 1.79,-2.25 2.38,-3.52 0.32,-0.7 0.32,-1.97 -0.12,-2.47 -0.35,-0.41 -1.76,-0.35 -2.39,0.02 -2.66,1.6 -5.13,3.54 -7.82,5.09 -5.19,2.98 -10.48,5.77 -15.73,8.64 -0.17,-0.3 -0.33,-0.6 -0.5,-0.9 l 16.71,-25.06 c -0.19,-0.26 -0.38,-0.53 -0.58,-0.79 -4.13,1.12 -8.25,2.24 -13.03,3.54 3.43,-6.31 6.57,-12.09 10.01,-18.43 -11.1,2.13 -13.99,12.33 -21.51,18.82 2.96,-10.42 5.63,-19.8 8.3,-29.18 -0.2,-0.06 -0.4,-0.13 -0.59,-0.19 -2.93,2.95 -5.87,5.9 -8.8,8.85 -0.19,-0.12 -0.37,-0.24 -0.56,-0.36 2.46,-6.28 4.92,-12.56 7.38,-18.84 l -0.84,-0.61 c -3.11,2.34 -6.21,4.67 -9.76,7.33 1.11,-5.92 2.1,-11.14 3.27,-17.35 -3.44,2.58 -5.93,4.45 -9.16,6.88 1.93,-6.24 3.59,-11.59 5.29,-17.07 -5.52,-0.9 -5.52,6.01 -11.3,6.64 1.21,-5.09 2.28,-9.58 3.36,-14.14 -9.4,-0.32 -10.3,-0.74 -15.77,-7.09 -0.41,1.52 -0.61,3.08 -1.22,4.45 -2.25,5.02 -0.83,8.95 3.01,12.59 1.99,1.89 3.4,4.38 5.16,6.73 -4.38,-1.69 -8.59,-3.3 -12.79,-4.92 -0.13,0.3 -0.25,0.59 -0.38,0.89 5.37,5.75 10.73,11.5 16.1,17.24 -0.14,0.15 -0.28,0.3 -0.42,0.45 -5.1,-2.24 -10.2,-4.49 -15.3,-6.73 -0.35,0.47 -0.7,0.94 -1.05,1.41 1.51,1.76 2.86,3.72 4.57,5.25 6.93,6.21 13.98,12.28 20.99,18.41 -0.19,0.37 -0.39,0.74 -0.58,1.12 -1.66,-0.68 -3.38,-1.25 -4.98,-2.04 -4.53,-2.24 -8.98,-4.68 -13.57,-6.79 -1.08,-0.5 -2.62,-0.02 -3.94,0 0.59,1.29 0.86,2.95 1.83,3.79 3.44,2.96 7.13,5.63 10.7,8.44 2.2,1.74 4.35,3.55 7.24,5.92 -7.85,-2.85 -14.64,-5.4 -21.52,-7.73 -0.96,-0.33 -2.28,0.43 -3.44,0.68 0.58,1.07 0.9,2.46 1.78,3.14 2.25,1.74 4.84,3.04 7.14,4.73 7.36,5.39 14.65,10.86 21.97,16.31 -0.21,0.32 -0.42,0.64 -0.63,0.96 -10.36,-4.82 -20.72,-9.64 -31.07,-14.45 l -1.19,1.2 c 1.59,2.49 2.69,5.58 4.87,7.36 5.5,4.51 11.5,8.39 17.25,12.6 4.41,3.22 8.73,6.56 13.09,9.84 -0.2,0.31 -0.41,0.62 -0.61,0.93 -0.95,-0.31 -1.91,-0.58 -2.84,-0.94 -9.09,-3.5 -18.15,-7.1 -27.29,-10.48 -2.75,-1.02 -6.22,-3.65 -8.33,-0.44 -0.71,1.08 2.11,5.66 4.31,7.28 8.35,6.14 17.09,11.74 25.71,17.51 3.11,2.08 6.47,3.86 9.36,6.21 1.49,1.21 2.2,3.38 3.26,5.11 -2.39,0.08 -3.97,-0.47 -5.54,-1.04 -11.84,-4.32 -23.66,-8.7 -35.54,-12.91 -2.26,-0.8 -5.22,-3.36 -7.03,-0.46 -1.93,3.1 1.36,5.1 3.42,6.93 9.23,8.22 20.05,13.83 31.17,18.96 3.54,1.63 7.16,3.15 10.47,5.17 4.05,2.47 4.67,5.98 1.95,9.58 -16.43,-8.71 -32.91,-17.45 -50.28,-26.66 6.55,19.24 21.29,29.17 36.66,38.57 -15.27,-4.53 -28.38,-12.68 -39.85,-23.76 -1.37,5.4 0.54,12.74 4.75,18.76 6.81,9.75 16.8,14.84 27.6,18.69 5.14,1.83 10.39,3.36 15.44,5.41 2.36,0.96 4.35,2.81 6.51,4.26 -0.31,0.55 -0.63,1.09 -0.94,1.64 -23.25,-2.69 -41.58,-15.73 -60.1,-29.69 2.04,12.77 9.16,22.06 18.17,30.14 9.08,8.15 20.12,12.96 31.53,17.36 -2.33,3.87 -5.14,2.59 -7.8,1.7 -14.9,-5.02 -29.78,-10.08 -44.67,-15.11 -3.65,-1.23 -7.32,-2.4 -12.21,-4 0.74,2.69 0.72,4.84 1.76,6.03 7.24,8.25 15.31,15.48 25.42,20.23 9.64,4.52 19.41,8.88 28.55,14.28 6.35,3.75 11.73,9.14 17.54,13.79 -0.23,0.61 -0.46,1.21 -0.68,1.82 -2.19,0 -4.51,0.51 -6.53,-0.07 -5.36,-1.52 -10.65,-3.33 -15.86,-5.33 -16.5,-6.32 -32.94,-12.78 -49.41,-19.17 -0.65,-0.25 -1.37,-0.34 -2.92,-0.71 17.69,25.97 44.46,37.71 70.85,50.21 -0.81,2.13 -1.48,3.87 -2.15,5.63 -5.54,-2.24 -10.52,-4.49 -15.65,-6.28 -15.33,-5.34 -30.87,-10.13 -46.04,-15.88 -7.92,-3 -15.24,-7.58 -23.17,-11.61 0.87,2.3 1.6,4.64 2.55,6.86 -16.37,-0.68 -32.63,-0.11 -48.77,1.9 -3.71,-4.03 -7.98,-7.39 -12.66,-10.13 0.24,-0.03 0.48,-0.05 0.73,-0.08 0.23,-1.47 0.45,-2.86 0.62,-3.98 22.69,6.66 39.84,-4.46 56.4,-17.46 0.68,-0.53 1.24,-1.22 2.55,-2.52 -3.63,0.1 -6.34,0.17 -9.05,0.25 -20.02,0.65 -40.04,1.35 -60.07,1.89 -1.54,0.04 -3.11,-1.06 -4.66,-1.64 1.27,-1.35 2.31,-3.46 3.84,-3.9 5.18,-1.48 10.49,-2.55 15.81,-3.45 15.17,-2.56 29.78,-6.84 43.54,-13.79 3.79,-1.91 7.31,-4.21 8.76,-9.28 -4.45,0.16 -8.62,0.08 -12.74,0.51 -23.06,2.42 -46.11,4.84 -69.13,7.58 -4.01,0.48 -7.85,2.46 -11.93,3.8 -2.12,-3.43 -1.23,-8.2 3.04,-11 2.71,-1.78 5.81,-3.2 8.93,-4.05 12.7,-3.48 25.57,-6.38 38.21,-10.05 13.67,-3.97 25.89,-10.53 34.27,-22.63 1.68,-2.42 2.9,-5.15 4.36,-7.78 -8.55,2.91 -16.56,6.44 -24.94,8.3 -16.06,3.58 -32.35,6.14 -48.51,9.28 -5.42,1.05 -10.74,2.59 -16.62,4.04 -0.42,-1.86 -0.84,-3.72 -1.34,-5.97 28.29,-8.72 56.87,-16.63 78.38,-40.14 -1.61,0.15 -2.34,0.13 -3.03,0.29 -17.46,4.03 -34.89,8.14 -52.37,12.09 -5.51,1.25 -11.09,2.31 -16.69,3.05 -2.11,0.28 -4.37,-0.55 -6.57,-0.88 -0.14,-0.64 -0.28,-1.28 -0.42,-1.92 6.51,-3.83 12.69,-8.46 19.6,-11.31 9.96,-4.1 20.4,-7.05 30.73,-10.2 10.83,-3.3 19.98,-9.39 28.44,-16.62 1.23,-1.05 1.51,-3.2 2.64,-5.8 -5.15,0.9 -9,1.54 -12.84,2.25 -15.67,2.89 -31.34,5.82 -47.02,8.7 -2.8,0.51 -5.8,1.39 -7.58,-2.83 12.09,-2.77 23.87,-6 34.16,-12.86 10.21,-6.81 18.71,-15.1 22.6,-27.62 -20.61,11.33 -40.9,21.77 -64.62,21.11 -0.24,-0.59 -0.47,-1.19 -0.71,-1.78 2.38,-1.14 4.64,-2.72 7.15,-3.34 5.36,-1.32 10.86,-2.1 16.28,-3.2 11.4,-2.3 22.16,-5.96 30.41,-14.77 5.1,-5.44 8.07,-12.53 7.48,-18.14 -13.11,9.46 -27.45,15.74 -43.43,18.08 16.79,-7.22 33.01,-15.05 42.37,-33.41 -18.77,6.73 -36.57,13.11 -54.33,19.48 -2.2,-4 -1.08,-7.44 3.35,-9.33 3.62,-1.55 7.48,-2.54 11.26,-3.67 11.9,-3.55 23.58,-7.61 34.03,-14.52 2.33,-1.54 5.93,-3.07 4.43,-6.46 -1.4,-3.17 -4.74,-1.03 -7.12,-0.56 -12.53,2.51 -25.03,5.19 -37.54,7.82 -1.66,0.35 -3.32,0.67 -5.71,0.24 1.32,-1.59 2.34,-3.66 4.01,-4.66 3.24,-1.94 6.87,-3.23 10.3,-4.88 9.48,-4.54 19.07,-8.89 28.34,-13.85 2.45,-1.31 5.94,-5.49 5.38,-6.68 -1.65,-3.53 -5.52,-1.39 -8.42,-0.77 -9.66,2.07 -19.27,4.37 -28.91,6.57 -0.98,0.22 -1.99,0.36 -2.99,0.53 -0.16,-0.34 -0.32,-0.68 -0.48,-1.03 4.85,-2.66 9.68,-5.38 14.57,-7.98 6.38,-3.39 12.97,-6.42 19.14,-10.15 2.44,-1.47 3.99,-4.41 5.95,-6.68 -0.34,-0.46 -0.68,-0.92 -1.03,-1.37 -11.09,3.34 -22.19,6.67 -33.28,10.01 -0.16,-0.35 -0.33,-0.7 -0.49,-1.06 8.13,-4.4 16.24,-8.85 24.41,-13.19 2.55,-1.36 5.34,-2.29 7.85,-3.71 0.98,-0.55 1.51,-1.91 2.24,-2.89 -1.12,-0.42 -2.34,-1.37 -3.35,-1.18 -7.23,1.34 -14.43,2.92 -22.71,4.65 3.24,-1.96 5.66,-3.46 8.12,-4.89 3.99,-2.31 8.08,-4.45 11.96,-6.93 1.1,-0.7 1.61,-2.33 2.39,-3.54 -1.33,-0.22 -2.8,-0.92 -3.96,-0.58 -4.92,1.46 -9.73,3.26 -14.6,4.85 -1.73,0.56 -3.53,0.89 -5.3,1.33 -0.14,-0.4 -0.28,-0.8 -0.42,-1.2 7.92,-5.13 15.88,-10.21 23.73,-15.44 1.95,-1.29 3.58,-3.06 5.35,-4.61 -0.28,-0.52 -0.57,-1.05 -0.85,-1.57 -5.45,1.52 -10.89,3.03 -16.34,4.54 -0.12,-0.17 -0.24,-0.34 -0.36,-0.51 6.22,-4.99 12.43,-9.98 18.65,-14.98 -0.08,-0.32 -0.17,-0.63 -0.25,-0.95 -4.46,1.02 -8.91,2.03 -13.55,3.09 2.11,-2.1 3.88,-4.4 6.15,-6.01 4.38,-3.1 6.38,-6.83 4.84,-12.2 -0.42,-1.47 -0.4,-3.06 -0.58,-4.65 -6.41,5.58 -7.37,5.87 -16.85,4.83 0.43,4.73 0.85,9.39 1.33,14.68 -5.72,-1.47 -4.71,-8.4 -10.38,-8.3 0.91,5.74 1.8,11.36 2.84,17.9 -2.89,-2.9 -5.12,-5.14 -8.19,-8.23 0.28,6.4 0.51,11.79 0.77,17.89 -3.17,-3.19 -5.95,-5.98 -8.73,-8.77 -0.31,0.16 -0.62,0.32 -0.93,0.49 1.56,6.66 3.12,13.32 4.68,19.98 -0.21,0.09 -0.41,0.18 -0.62,0.28 -2.52,-3.39 -5.03,-6.77 -7.55,-10.16 -0.21,0.04 -0.42,0.07 -0.62,0.11 1.32,9.8 2.64,19.6 4.11,30.49 -6.61,-7.6 -8.03,-18.26 -18.87,-22.01 2.54,6.86 4.85,13.12 7.38,19.95 -4.6,-1.99 -8.58,-3.71 -12.56,-5.44 -0.23,0.24 -0.46,0.47 -0.69,0.71 4.38,9.19 8.76,18.38 13.15,27.57 -0.21,0.28 -0.42,0.56 -0.63,0.83 -4.85,-3.64 -9.76,-7.21 -14.54,-10.95 -2.48,-1.94 -4.67,-4.25 -7.11,-6.24 -0.57,-0.47 -1.98,-0.73 -2.39,-0.37 -0.51,0.44 -0.7,1.71 -0.48,2.46 0.41,1.36 1.14,2.64 1.88,3.87 4.66,7.73 9.36,15.44 14.51,23.92 -10.12,-4.25 -17.13,-13.05 -28.69,-13.42 7.16,10.89 16.31,19.64 21.94,31.09 -12.97,-6.67 -25.19,-15.13 -41.63,-9.75 19.17,11.92 38.05,23.18 50.4,42.39 -18.39,-10.8 -36.79,-21.59 -55.65,-32.66 0.4,7.04 3.41,12.33 7.21,17.27 6.14,7.98 14.43,13.33 22.65,18.88 6.29,4.25 12.33,8.98 17.94,14.09 2.63,2.4 3.98,6.2 5.49,9.67 -19.24,-4.79 -34.98,-14.82 -48.61,-29.66 -0.93,5.55 0.22,10.14 2.08,14.59 4.16,9.97 11.85,16.65 21.02,21.74 4.02,2.23 8.18,4.38 12.54,5.77 5.44,1.73 8.33,5.46 10.58,10.78 -23.7,-4.68 -43.04,-16.03 -59.34,-34.98 -0.58,1.92 -1.47,3.21 -1.15,4.03 5.61,14.53 12.86,28.2 25.71,37.53 5.96,4.33 13.38,6.66 20.14,9.89 2.73,1.3 5.57,2.43 8.18,3.93 1.55,0.89 3.57,2.14 3.97,3.62 0.67,2.47 0.85,5.49 -0.04,7.78 -0.44,1.13 -3.83,1.87 -5.7,1.58 -19.28,-2.95 -38.52,-6.15 -57.77,-9.27 -1.28,-0.21 -2.58,-0.35 -4.66,0.3 1.45,1.63 2.66,3.6 4.39,4.85 13.58,9.76 28.73,15.91 45.09,19.19 3.35,0.67 6.75,1.36 9.91,2.6 4.54,1.78 7.56,5.04 7.97,10.78 -19.43,-1.68 -38.54,-3.33 -57.92,-5 0,5.75 3.06,9.12 7.53,11.26 2.94,1.41 6.21,2.14 9.31,3.22 12.05,4.2 24.1,8.4 36.13,12.65 1.58,0.56 3.04,1.44 4.47,2.55 -9.15,1.53 -18.26,1.4 -27.22,-0.46 -8.84,-1.83 -17.51,-4.42 -26.47,-6.73 -0.13,8.34 4.64,14.18 11.77,17.67 5.83,2.86 12.46,4.06 18.63,6.26 6.4,2.29 13.07,4.23 18.87,7.62 3.42,2 5.63,6.35 7.87,9.96 0.77,1.24 0.55,3.82 -0.29,5.08 -0.53,0.79 -3.14,0.65 -4.64,0.27 -18.26,-4.66 -36.48,-9.44 -54.71,-14.18 -1.49,-0.39 -3.01,-0.7 -5.46,-1.26 4.97,6.42 10.48,10.77 16.42,14.61 9.96,6.44 20.83,10.67 31.99,14.22 -7.86,2.44 -15.5,6.02 -22.58,10.74 -0.94,-0.09 -1.89,-0.18 -2.83,-0.27 -0.1,-0.3 -0.19,-0.6 -0.29,-0.91 -0.27,-0.83 -1.76,-1.25 -3.41,-2.35 -0.02,0.97 -0.07,1.92 -0.11,2.88 -5.26,-0.51 -10.52,-1.02 -15.79,-1.53 -1.26,-2.4 -2.92,-4.66 -5.31,-6.74 -0.73,13.81 -3.72,26.49 -9.38,38.22 -2.54,-2.59 -5.63,-4.61 -9.06,-6.06 0.85,-4 1.84,-7.97 3,-11.88 2.77,-9.38 5.73,-18.65 5.39,-28.57 -0.21,-6.14 -1.24,-12.06 -5.35,-17.66 -6.86,18.77 -13.56,37.11 -20.25,55.43 -0.66,0.05 -1.31,0.11 -1.97,0.19 -1.37,-20.76 5.46,-39.94 12.13,-59.72 -15.89,6.23 -19.87,20.33 -25.55,33.54 -2.89,-12.24 -1.42,-24.64 -2.81,-37.41 -8.56,7.54 -8.37,18.63 -13.4,28.21 -1.4,-9.68 -2.66,-18.49 -3.97,-27.3 -0.21,-1.4 -0.46,-2.84 -1,-4.13 -0.3,-0.71 -1.24,-1.56 -1.9,-1.57 -0.54,-0.01 -1.45,1.07 -1.59,1.78 -0.61,3.05 -0.83,6.18 -1.5,9.21 -1.29,5.84 -2.78,11.64 -4.19,17.46 -0.34,-0.08 -0.67,-0.16 -1.01,-0.24 -2.43,-9.74 -4.87,-19.48 -7.3,-29.23 l -0.97,-0.11 c -1.95,3.81 -3.9,7.61 -6.15,12.02 -2.36,-6.78 -4.53,-12.99 -6.9,-19.81 -5.9,9.65 -0.29,18.65 -0.54,28.58 -5.71,-9.2 -10.86,-17.49 -16,-25.77 -0.18,0.1 -0.36,0.21 -0.54,0.31 0.21,4.16 0.42,8.31 0.63,12.47 -0.21,0.06 -0.43,0.12 -0.64,0.18 -2.99,-6.05 -5.98,-12.09 -8.97,-18.14 -0.34,0.07 -0.68,0.14 -1.02,0.22 -0.36,3.87 -0.73,7.74 -1.14,12.16 -3.63,-4.81 -6.83,-9.05 -10.64,-14.09 -0.4,4.28 -0.69,7.38 -1.07,11.41 -3.32,-5.63 -6.16,-10.46 -9.07,-15.4 -4.38,3.48 0.73,8.12 -2.69,12.83 -2.95,-4.32 -5.56,-8.13 -8.2,-12 -6.57,6.74 -7.48,7.12 -15.85,6.9 0.85,1.33 1.87,2.52 2.47,3.9 2.2,5.04 6.06,6.63 11.34,6.24 2.73,-0.2 5.53,0.44 8.45,0.71 -4.19,2.11 -8.22,4.13 -12.25,6.15 0.13,0.29 0.27,0.59 0.4,0.88 7.86,-0.1 15.72,-0.21 23.59,-0.31 0.01,0.2 0.03,0.41 0.04,0.61 -5.09,2.26 -10.19,4.53 -15.28,6.79 0.11,0.58 0.22,1.15 0.34,1.73 2.32,0.06 4.67,0.39 6.96,0.15 9.26,-0.96 18.5,-2.08 27.74,-3.15 0.15,0.39 0.29,0.79 0.44,1.18 -1.62,0.78 -3.2,1.66 -4.87,2.31 -4.71,1.85 -9.5,3.49 -14.15,5.47 -1.1,0.47 -1.78,1.92 -2.65,2.92 1.35,0.43 2.76,1.35 4.04,1.19 4.51,-0.55 8.96,-1.49 13.45,-2.23 2.77,-0.46 5.56,-0.83 9.25,-1.38 -7.39,3.89 -13.85,7.2 -20.2,10.72 -0.89,0.49 -1.22,1.98 -1.81,3.01 1.18,0.29 2.43,0.99 3.52,0.79 2.8,-0.5 5.51,-1.53 8.3,-2.1 8.94,-1.82 17.89,-3.53 26.84,-5.28 0.1,0.37 0.19,0.74 0.29,1.11 -10.53,4.42 -21.07,8.84 -31.6,13.27 l 0.08,1.69 c 2.91,0.5 5.94,1.76 8.72,1.35 7.03,-1.03 13.95,-2.86 20.93,-4.29 5.35,-1.09 10.72,-2.05 16.09,-3.07 0.09,0.36 0.19,0.72 0.28,1.08 -0.87,0.49 -1.72,1.02 -2.61,1.47 -8.08,4.06 -16.2,8.05 -24.24,12.18 -21.93,-6.03 -45.47,-3.31 -56.74,9.46 -49.68,-13.7 -138.99,11.13 -152.99,58.38 -0.47,1.63 -0.86,3.28 -1.17,4.96 -0.12,-1.72 -0.41,-3.38 -0.86,-4.96 -11.56,-40.44 -127.42,-36.67 -152.97,0 -1.27,1.83 -2.32,3.74 -3.12,5.74 0.8,-1.97 1.53,-3.88 2.2,-5.74 23.4,-65.15 -38.45,-59.32 -72.28,-10.72 -21.02,-71.95 -118.48,-55.99 -132.93,-4.93 0.57,-4.18 0.86,-8.18 0.92,-12 0.32,-0.84 0.48,-1.81 0.44,-2.97 -0.15,0.03 -0.3,0.06 -0.45,0.09 -0.1,-5.54 -0.72,-10.69 -1.82,-15.45 0.6,-0.38 1.21,-0.76 1.8,-1.17 5.24,-3.68 8.92,-8.2 9.84,-12.38 -5.04,0.99 -10.05,1.98 -15.08,2.97 -2.67,-6.17 -6.26,-11.48 -10.56,-15.96 3.27,-1.99 6.45,-4.16 9.49,-6.58 5.16,-4.11 9.89,-8.65 13.91,-15.06 -2.22,0.75 -3.6,1.17 -4.95,1.67 -9.93,3.65 -19.87,7.3 -29.8,10.95 -5.6,-3.36 -11.81,-5.78 -18.37,-7.28 h 0.01 c 5.08,-3.68 11.09,-6.09 16.82,-8.8 5.53,-2.61 11.57,-4.33 16.73,-7.51 6.3,-3.89 10.2,-9.74 9.32,-17.47 -8.1,2.96 -15.93,6.15 -23.96,8.65 -8.14,2.54 -16.59,3.49 -25.22,2.9 1.23,-1.16 2.5,-2.12 3.92,-2.78 10.78,-5.04 21.59,-10.04 32.39,-15.03 2.78,-1.29 5.75,-2.26 8.35,-3.84 3.95,-2.39 6.48,-5.8 5.96,-11.14 -17.84,3.32 -35.43,6.59 -53.31,9.91 -0.14,-5.36 2.37,-8.66 6.42,-10.73 2.82,-1.44 5.92,-2.38 8.97,-3.31 14.89,-4.53 28.39,-11.62 40.12,-21.91 1.49,-1.31 2.43,-3.25 3.63,-4.9 -1.99,-0.41 -3.18,-0.16 -4.35,0.15 -17.59,4.65 -35.16,9.37 -52.78,13.86 -1.71,0.44 -4.92,0.06 -5.43,-0.95 -1.03,-2.05 -1.14,-4.87 -0.75,-7.22 0.24,-1.4 2,-2.75 3.36,-3.72 2.29,-1.63 4.82,-2.93 7.24,-4.39 5.98,-3.61 12.66,-6.45 17.8,-11.01 11.08,-9.83 16.57,-23.18 20.45,-37.18 0.22,-0.79 -0.72,-1.91 -1.43,-3.64 -13.41,19.06 -30.33,31.36 -51.9,37.86 1.61,-5.14 3.95,-8.87 8.84,-10.97 3.92,-1.68 7.59,-4.06 11.11,-6.49 8.05,-5.57 14.58,-12.46 17.54,-22.09 1.32,-4.3 1.97,-8.66 0.6,-13.73 -11.3,15.01 -25,25.76 -42.42,31.96 1.09,-3.36 2,-7.01 4.22,-9.47 4.74,-5.26 9.92,-10.2 15.37,-14.71 7.12,-5.9 14.34,-11.62 19.31,-19.58 3.08,-4.93 5.39,-10.12 5.12,-16.69 -16.5,11.99 -32.59,23.69 -48.69,35.38 9.72,-18.96 26.22,-31.12 42.93,-43.93 -15.76,-3.5 -26.33,5.47 -37.76,12.84 4.19,-11.13 11.89,-20.09 17.54,-30.85 -10.7,1.4 -16.41,10.2 -25.41,15.07 4.01,-8.34 7.67,-15.92 11.29,-23.52 0.58,-1.21 1.14,-2.47 1.39,-3.77 0.14,-0.71 -0.15,-1.88 -0.67,-2.24 -0.42,-0.29 -1.7,0.07 -2.19,0.56 -2.09,2.07 -3.91,4.41 -6.04,6.44 -4.09,3.91 -8.33,7.67 -12.5,11.49 -0.22,-0.24 -0.44,-0.48 -0.67,-0.72 3.23,-8.93 6.46,-17.86 9.7,-26.79 -0.24,-0.2 -0.47,-0.4 -0.71,-0.6 -3.54,1.96 -7.08,3.92 -11.17,6.19 1.73,-6.57 3.31,-12.59 5.04,-19.19 -9.72,4.46 -10.07,14.48 -15.51,22.14 0.37,-10.24 0.71,-19.46 1.04,-28.67 -0.2,-0.01 -0.39,-0.03 -0.59,-0.05 -2.03,3.37 -4.06,6.75 -6.09,10.12 -0.2,-0.07 -0.4,-0.13 -0.6,-0.2 0.84,-6.32 1.69,-12.65 2.53,-18.97 -0.3,-0.12 -0.61,-0.24 -0.91,-0.37 -2.33,2.85 -4.65,5.69 -7.31,8.94 -0.31,-5.69 -0.59,-10.71 -0.91,-16.68 -2.58,3.15 -4.44,5.43 -6.86,8.39 0.37,-6.17 0.68,-11.46 1.01,-16.88 -5.27,0.42 -3.71,6.76 -8.88,8.65 -0.04,-4.95 -0.07,-9.32 -0.1,-13.75 -8.71,1.82 -9.63,1.64 -16.09,-2.95 -0.03,1.49 0.14,2.97 -0.12,4.37 -0.94,5.12 1.26,8.4 5.6,10.88 2.25,1.28 4.11,3.26 6.25,5.02 -4.4,-0.56 -8.63,-1.1 -12.86,-1.64 -0.05,0.3 -0.1,0.6 -0.15,0.91 6.23,4.07 12.45,8.14 18.68,12.21 -0.1,0.17 -0.19,0.34 -0.29,0.5 -5.19,-0.91 -10.38,-1.82 -15.58,-2.73 l -0.65,1.53 c 1.79,1.28 3.46,2.77 5.39,3.79 7.77,4.14 15.62,8.13 23.44,12.17 -0.09,0.39 -0.19,0.77 -0.28,1.16 -1.68,-0.24 -3.38,-0.39 -5.04,-0.75 -4.67,-1.04 -9.3,-2.27 -14,-3.18 -1.11,-0.21 -2.41,0.57 -3.62,0.9 0.83,1.05 1.45,2.51 2.54,3.07 3.83,1.95 7.82,3.56 11.73,5.34 2.42,1.1 4.8,2.28 7.99,3.8 -7.85,-0.85 -14.67,-1.66 -21.51,-2.25 -0.95,-0.08 -2,0.91 -3.01,1.4 0.77,0.85 1.39,2.06 2.35,2.48 2.46,1.09 5.13,1.71 7.62,2.73 7.97,3.29 15.91,6.67 23.86,10.02 -0.12,0.34 -0.24,0.68 -0.36,1.03 -10.6,-2.09 -21.2,-4.18 -31.81,-6.27 l -0.83,1.37 c 2.02,1.93 3.73,4.52 6.13,5.66 6.07,2.9 12.46,5.11 18.69,7.68 4.77,1.97 9.5,4.05 14.25,6.08 -0.12,0.33 -0.23,0.66 -0.35,1 -0.94,-0.07 -1.89,-0.1 -2.82,-0.22 -9.14,-1.16 -18.28,-2.42 -27.43,-3.47 -2.75,-0.31 -6.54,-1.95 -7.75,1.48 -0.41,1.16 3.21,4.72 5.6,5.71 9.05,3.76 18.35,6.93 27.57,10.28 3.33,1.21 6.81,2.08 10,3.59 1.64,0.78 2.78,2.61 4.15,3.96 -2.18,0.62 -3.75,0.47 -5.33,0.3 -11.85,-1.3 -23.69,-2.65 -35.56,-3.84 -2.25,-0.23 -5.55,-1.91 -6.56,1.16 -1.08,3.28 2.4,4.38 4.7,5.6 10.33,5.47 21.54,8.18 32.91,10.39 3.62,0.7 7.29,1.28 10.79,2.39 4.28,1.36 5.64,4.44 3.96,8.36 -17.06,-4.3 -34.17,-8.6 -52.2,-13.15 10.36,16.19 26.14,21.99 42.37,27.16 -15.05,-0.72 -28.93,-5.25 -41.96,-12.83 -0.04,5.27 3.37,11.58 8.59,16.16 8.46,7.42 18.78,9.84 29.57,10.94 5.13,0.52 10.3,0.75 15.4,1.49 2.38,0.35 4.63,1.6 6.94,2.45 -0.16,0.57 -0.33,1.14 -0.49,1.72 -21.96,2.78 -41.74,-5.07 -61.91,-13.72 4.75,11.27 13.39,18.19 23.49,23.59 10.18,5.44 21.41,7.37 32.88,8.83 -1.27,4.08 -4.14,3.54 -6.78,3.32 -14.81,-1.25 -29.63,-2.54 -44.44,-3.8 -3.63,-0.31 -7.26,-0.55 -12.12,-0.92 1.29,2.31 1.75,4.28 2.98,5.14 8.51,5.94 17.56,10.77 27.91,12.85 9.87,1.98 19.83,3.78 29.45,6.67 6.68,2.01 12.83,5.75 19.22,8.71 -0.07,0.61 -0.15,1.22 -0.22,1.82 -2.01,0.5 -4.03,1.48 -6.02,1.41 -5.27,-0.19 -10.54,-0.66 -15.77,-1.32 -16.58,-2.09 -33.14,-4.31 -49.71,-6.47 -0.66,-0.09 -1.33,0 -2.84,0.01 22.11,19.87 49.35,24.61 76.41,30.14 -0.27,2.14 -0.48,3.89 -0.7,5.66 -5.59,-0.81 -10.67,-1.75 -15.8,-2.24 -15.29,-1.45 -30.64,-2.34 -45.88,-4.2 -6.36,-0.78 -12.61,-2.56 -19.05,-4.23 3.22,-0.35 6.46,-0.67 9.71,-1 -11.57,-11.25 -25.28,-9.17 -38.88,-8.9 9.41,-7.28 20.66,-10.86 31.13,-17.05 -9.84,-4.43 -19.32,0.07 -29.54,-0.52 7.79,-4.99 14.89,-9.52 21.96,-14.09 1.12,-0.73 2.26,-1.5 3.16,-2.48 0.49,-0.53 0.86,-1.68 0.61,-2.25 -0.2,-0.47 -1.48,-0.83 -2.16,-0.67 -2.86,0.67 -5.64,1.7 -8.52,2.31 -5.54,1.18 -11.11,2.15 -16.67,3.21 -0.06,-0.32 -0.13,-0.64 -0.19,-0.96 l 22.32,-17.71 -0.29,-0.88 c -4.04,-0.19 -8.08,-0.38 -12.76,-0.6 4.92,-4.69 9.42,-8.98 14.36,-13.68 -10.61,-1.31 -16.17,7.04 -24.83,10.7 5.69,-8.52 10.82,-16.19 15.94,-23.86 -0.16,-0.12 -0.32,-0.23 -0.48,-0.35 -3.5,1.81 -6.99,3.61 -10.49,5.42 -0.13,-0.16 -0.27,-0.32 -0.4,-0.48 4.04,-4.94 8.08,-9.88 12.11,-14.82 -0.19,-0.26 -0.39,-0.53 -0.58,-0.79 -3.48,1.2 -6.95,2.4 -10.91,3.77 2.72,-5 5.12,-9.42 7.98,-14.67 -3.85,1.33 -6.63,2.29 -10.24,3.54 3.55,-5.06 6.6,-9.4 9.72,-13.83 -4.71,-2.41 -6.71,3.81 -12.1,2.69 2.57,-4.23 4.83,-7.96 7.13,-11.75 -8.37,-3.02 -9.05,-3.66 -12.14,-10.96 -0.81,1.25 -1.44,2.6 -2.39,3.65 -3.49,3.87 -3.34,7.81 -0.95,12.2 1.24,2.27 1.78,4.93 2.69,7.55 -3.45,-2.79 -6.77,-5.47 -10.09,-8.15 -0.2,0.23 -0.4,0.46 -0.6,0.69 3.16,6.73 6.32,13.46 9.49,20.19 -0.17,0.09 -0.34,0.19 -0.51,0.28 -3.94,-3.5 -7.88,-7 -11.82,-10.51 -0.45,0.32 -0.9,0.64 -1.36,0.96 0.85,2.03 1.49,4.17 2.59,6.06 4.44,7.6 9.02,15.12 13.55,22.66 -0.28,0.28 -0.56,0.56 -0.84,0.84 -1.3,-1.09 -2.68,-2.11 -3.89,-3.29 -3.43,-3.33 -6.72,-6.82 -10.25,-10.05 -0.83,-0.76 -2.35,-0.78 -3.55,-1.14 0.16,1.33 -0.08,2.9 0.55,3.94 2.23,3.67 4.79,7.14 7.18,10.71 1.48,2.21 2.89,4.46 4.8,7.43 -6.24,-4.85 -11.61,-9.12 -17.12,-13.21 -0.77,-0.57 -2.18,-0.28 -3.3,-0.38 0.21,1.13 0.1,2.48 0.69,3.34 1.52,2.22 3.47,4.15 5.05,6.33 5.06,6.98 10.03,14.03 15.04,21.06 -0.28,0.23 -0.56,0.46 -0.85,0.68 -7.93,-7.34 -15.85,-14.69 -23.78,-22.03 -0.47,0.24 -0.95,0.49 -1.42,0.73 0.71,2.71 0.81,5.8 2.25,8.04 3.64,5.65 7.92,10.89 11.87,16.35 3.03,4.18 5.96,8.44 8.93,12.66 -0.27,0.22 -0.55,0.44 -0.82,0.66 -0.76,-0.55 -1.55,-1.08 -2.28,-1.67 -7.17,-5.79 -14.28,-11.66 -21.53,-17.36 -2.18,-1.71 -4.54,-5.09 -7.37,-2.81 -0.96,0.77 0.25,5.71 1.77,7.8 5.73,7.95 11.98,15.53 18.06,23.22 2.2,2.78 4.71,5.35 6.63,8.31 0.99,1.52 1,3.68 1.45,5.55 -2.18,-0.62 -3.44,-1.57 -4.69,-2.54 -9.41,-7.32 -18.77,-14.7 -28.24,-21.94 -1.8,-1.38 -3.72,-4.54 -6.19,-2.45 -2.64,2.23 -0.26,4.98 1.07,7.23 5.92,10.08 14.04,18.27 22.55,26.12 2.71,2.5 5.53,4.92 7.93,7.69 2.93,3.4 2.47,6.74 -1.02,9.19 -12.26,-12.61 -24.56,-25.26 -37.53,-38.6 0.31,19.22 10.7,32.44 21.8,45.36 -12.43,-8.51 -21.87,-19.65 -28.98,-32.95 -2.8,4.46 -3.21,11.62 -1.17,18.27 3.3,10.76 10.82,18.23 19.42,24.84 4.09,3.14 8.38,6.04 12.33,9.35 1.85,1.55 3.1,3.8 4.62,5.73 -0.44,0.4 -0.88,0.8 -1.32,1.2 -20.15,-9.17 -32.86,-26.23 -45.49,-44.18 -1.31,8.46 0.12,16.11 3.08,23.33 -5.13,2.2 -10.25,4.41 -15.38,6.61 l -0.08,-0.06 c -2.93,-2.17 -5.89,-4.28 -9.83,-7.15 -0.11,2.64 -0.76,4.56 -0.16,5.94 0.68,1.58 1.4,3.13 2.15,4.67 -7.68,3.29 -15.36,6.56 -23.06,9.79 -1.63,0.68 -4.86,0.78 -5.51,-0.14 -1.32,-1.88 -1.85,-4.65 -1.8,-7.03 0.03,-1.42 1.57,-3.01 2.78,-4.17 2.03,-1.95 4.34,-3.61 6.52,-5.4 5.39,-4.45 11.57,-8.23 15.99,-13.5 9.52,-11.35 12.99,-25.36 14.78,-39.78 0.1,-0.82 -0.99,-1.78 -1.95,-3.39 -10.46,20.82 -25.4,35.47 -45.79,45.06 0.83,-5.32 2.61,-9.35 7.14,-12.15 3.63,-2.24 6.91,-5.13 10.04,-8.05 7.15,-6.69 12.59,-14.46 14.11,-24.43 0.68,-4.45 0.68,-8.86 -1.42,-13.67 -8.97,16.51 -20.95,29.14 -37.28,37.83 0.58,-3.48 0.95,-7.23 2.79,-9.99 3.92,-5.89 8.31,-11.54 13.05,-16.81 6.18,-6.88 12.48,-13.59 16.23,-22.2 2.32,-5.33 3.85,-10.8 2.62,-17.26 -14.56,14.28 -28.77,28.21 -42.97,42.14 6.83,-20.18 21.37,-34.63 36.02,-49.75 -16.1,-1.15 -25.24,9.27 -35.47,18.24 2.51,-11.63 8.81,-21.62 12.83,-33.09 -10.38,2.95 -14.73,12.5 -22.93,18.63 2.74,-8.84 5.25,-16.87 7.72,-24.92 0.39,-1.28 0.76,-2.61 0.82,-3.93 0.03,-0.73 -0.42,-1.84 -0.99,-2.12 -0.46,-0.23 -1.67,0.32 -2.08,0.88 -1.76,2.35 -3.22,4.94 -5.03,7.25 -3.48,4.47 -7.11,8.81 -10.68,13.2 -0.25,-0.2 -0.51,-0.41 -0.76,-0.61 1.89,-9.31 3.78,-18.62 5.66,-27.93 -0.26,-0.16 -0.53,-0.32 -0.79,-0.49 -3.21,2.46 -6.43,4.92 -10.14,7.76 0.74,-6.75 1.42,-12.94 2.17,-19.72 -8.96,5.84 -7.84,15.8 -12.1,24.18 -1.13,-10.18 -2.15,-19.35 -3.17,-28.52 -0.2,0.01 -0.39,0.03 -0.59,0.04 -1.51,3.63 -3.02,7.27 -4.54,10.9 -0.21,-0.04 -0.41,-0.07 -0.62,-0.11 -0.09,-6.38 -0.19,-12.76 -0.28,-19.14 -0.32,-0.08 -0.64,-0.15 -0.96,-0.23 -1.88,3.16 -3.77,6.31 -5.92,9.91 -1.14,-5.58 -2.15,-10.51 -3.35,-16.36 -2.09,3.49 -3.6,6.02 -5.55,9.3 -0.54,-6.16 -1,-11.44 -1.48,-16.84 -5.15,1.18 -2.68,7.23 -7.52,9.85 -0.76,-4.89 -1.43,-9.21 -2.11,-13.58 -8.35,3.08 -9.28,3.03 -16.34,-0.56 0.19,1.48 0.57,2.92 0.52,4.34 -0.18,5.2 2.47,8.13 7.14,9.94 2.42,0.94 4.54,2.62 6.92,4.04 -4.44,0.09 -8.7,0.18 -12.96,0.27 v 0.92 l 20.25,9.34 c -0.07,0.18 -0.14,0.36 -0.21,0.54 -5.27,-0.14 -10.54,-0.28 -15.81,-0.42 -0.14,0.54 -0.28,1.07 -0.42,1.61 1.96,1 3.83,2.23 5.88,2.96 8.29,2.95 16.64,5.75 24.97,8.6 -0.04,0.39 -0.07,0.79 -0.11,1.18 -1.7,0 -3.4,0.11 -5.09,0 -4.77,-0.34 -9.53,-0.88 -14.31,-1.09 -1.13,-0.05 -2.3,0.92 -3.45,1.42 0.98,0.91 1.81,2.27 2.96,2.66 4.07,1.37 8.26,2.37 12.39,3.56 2.55,0.74 5.08,1.55 8.46,2.59 -7.89,0.31 -14.76,0.51 -21.61,0.93 -0.96,0.06 -1.85,1.19 -2.77,1.83 0.89,0.73 1.67,1.83 2.69,2.11 2.6,0.72 5.33,0.93 7.94,1.59 8.37,2.08 16.71,4.27 25.07,6.42 -0.07,0.36 -0.14,0.71 -0.21,1.07 -10.79,-0.51 -21.59,-1.02 -32.38,-1.53 -0.21,0.49 -0.41,0.98 -0.62,1.47 2.28,1.61 4.36,3.92 6.9,4.7 6.43,1.98 13.08,3.23 19.61,4.86 5.01,1.25 9.99,2.61 14.99,3.93 -0.07,0.35 -0.14,0.69 -0.2,1.04 -0.94,0.07 -1.88,0.18 -2.82,0.19 -9.22,0.19 -18.43,0.28 -27.65,0.59 -2.77,0.09 -6.75,-0.97 -7.45,2.6 -0.24,1.2 3.87,4.2 6.38,4.83 9.5,2.39 19.17,4.16 28.78,6.13 3.47,0.71 7.05,1.06 10.42,2.08 1.74,0.53 3.13,2.17 4.68,3.31 -2.06,0.93 -3.64,1.01 -5.22,1.07 -11.91,0.46 -23.83,0.85 -35.74,1.41 -2.26,0.11 -5.77,-1.07 -6.32,2.11 -0.58,3.4 3.02,3.98 5.47,4.85 11.02,3.89 22.51,4.93 34.08,5.45 3.68,0.16 7.4,0.2 11.02,0.78 4.43,0.71 6.23,3.57 5.14,7.69 -17.51,-1.75 -35.06,-3.5 -53.57,-5.35 12.62,14.5 29.08,17.92 45.9,20.65 -14.99,1.49 -29.38,-0.95 -43.39,-6.54 0.73,5.22 5.03,10.96 10.87,14.73 9.46,6.1 20.02,6.98 30.86,6.49 5.15,-0.23 10.3,-0.77 15.45,-0.79 2.41,0 4.82,0.91 7.22,1.4 -0.08,0.59 -0.16,1.18 -0.24,1.77 -21.32,5.97 -42.03,1.11 -63.25,-4.49 6.35,10.45 15.91,16.03 26.7,19.89 10.87,3.89 22.26,4.15 33.82,3.92 -0.65,4.22 -3.57,4.11 -6.22,4.28 -14.84,0.94 -29.68,1.83 -44.52,2.76 -3.63,0.23 -7.26,0.52 -12.13,0.87 1.62,2.09 2.36,3.98 3.7,4.65 9.29,4.63 18.94,8.08 29.49,8.61 10.06,0.51 20.17,0.83 30.11,2.28 6.9,1.01 13.54,3.8 20.29,5.8 0.02,0.61 0.03,1.22 0.05,1.83 -1.91,0.79 -3.77,2.06 -5.74,2.28 -5.24,0.59 -10.52,0.89 -15.79,1.01 -16.71,0.37 -33.41,0.6 -50.12,0.89 -0.66,0.01 -1.32,0.19 -2.81,0.43 23.1,15.3 48.7,16.94 74.4,18.31 0.04,0.43 0.08,0.87 0.14,1.3 0.24,1.61 0.57,3.17 0.96,4.69 -3.9,-0.03 -7.62,-0.08 -11.32,0.12 -15.34,0.81 -30.65,2.18 -46,2.57 -8.01,0.21 -16.05,-1.18 -24.45,-1.88 1.91,2.05 3.64,4.25 5.7,6.06 9.49,8.33 20.85,11.67 32.93,12.55 -12.63,2.76 -23.69,10.54 -25.93,20.37 -2.4,0.51 -4.82,1.1 -7.37,1.64 1.88,3.27 4.51,4.79 7.38,5.71 0.68,3.01 2.2,6.13 4.75,9.29 C 29.14,409.55 14.33,407.79 4.56,412.7 V 1887.84 H 1534.5 V 403.73 c -9.09,-0.26 -18.44,0.22 -27.56,1.4 z M 270.46,295.45 c 1.17,1.79 2.3,3.59 3.67,5.2 1.27,1.5 2.61,2.87 4,4.15 -18.17,1.38 -35.99,2.73 -53.79,4.08 14.29,-8.65 29.94,-11.55 46.13,-13.43 z m -70.61,78.79 c 0.94,-1.07 3.14,-1.29 4.81,-1.4 2.81,-0.18 5.64,0.04 8.47,0.07 6.99,0.07 14.16,1.16 20.93,-0.03 14.59,-2.55 26.27,-11.03 36.93,-20.91 0.6,-0.56 0.39,-2 0.69,-3.85 -21.42,9.19 -42.28,10.77 -64.05,4.97 4.07,-3.53 8.02,-5.47 13.28,-4.69 4.22,0.62 8.59,0.53 12.87,0.31 9.78,-0.51 18.95,-2.95 26.53,-9.6 3.38,-2.96 6.22,-6.34 7.72,-11.37 -17.5,6.85 -34.8,8.79 -52.88,4.92 2.69,-2.29 5.38,-4.92 8.57,-5.85 6.8,-1.98 13.79,-3.47 20.81,-4.45 9.16,-1.28 18.3,-2.36 26.72,-6.53 4,-1.98 7.69,-4.34 10.65,-7.92 7.6,5.67 16.55,8.83 26.11,10.62 12.07,2.26 24.28,3.79 36.38,5.86 2.98,0.51 5.98,1.55 8.66,2.95 4.22,2.21 5.47,6.56 3.82,9.94 -3.91,-0.87 -7.65,-2.36 -11.42,-2.44 -21.62,-0.45 -43.24,-0.6 -64.87,-0.75 -3.86,-0.03 -7.73,0.43 -11.87,0.69 1.8,4.57 5.28,6.39 8.97,7.82 12.59,4.88 25.67,7.51 39.07,8.64 -5.13,2.58 -10.07,5.69 -14.69,9.34 -7.97,0.52 -15.94,1.03 -23.91,1.55 -2.52,0.16 -5.04,0.35 -8.43,0.59 1.33,1.09 1.91,1.67 2.59,2.1 5.34,3.41 10.72,6.62 16.25,9.14 -4.29,5.36 -8.02,11.37 -11.01,18.04 -0.85,0.1 -1.7,0.2 -2.55,0.31 -9.26,-19.44 -42.1,-20.46 -56.6,-2.45 -5.86,-1.79 -11.71,-3.59 -17.56,-5.42 -1.68,-0.53 -4.22,-2.53 -4.13,-3.66 0.2,-2.29 1.58,-4.74 3.16,-6.54 z m -32.22,-21.82 c 3.71,3.55 7.33,7.18 10.72,11 2.89,3.25 5.25,6.98 7.56,10.74 -3.67,-2.3 -7.57,-4.29 -11.62,-5.96 0.27,-2.09 0.13,-4.3 -0.49,-6.62 -2.38,1.29 -4.72,2.6 -7.06,3.9 -1.59,-0.49 -3.18,-0.93 -4.79,-1.32 -1.83,-1.48 -3.67,-2.97 -5.5,-4.46 1.23,-0.81 2.46,-1.61 3.68,-2.42 2.49,-1.63 5.19,-3.01 7.49,-4.87 z m 42.5,51.06 c 0.64,0.14 1.27,0.28 1.91,0.41 -0.28,1.51 -0.47,3.09 -0.56,4.73 -0.35,-1.76 -0.8,-3.47 -1.34,-5.14 z m -42.18,-86.35 c 0.58,1.1 1.18,2.2 1.82,3.29 5.81,9.97 14.35,17.51 23.35,24.78 -3.22,2.81 -5.38,0.84 -7.51,-0.74 -8.66,-6.4 -17.3,-12.82 -25.95,-19.24 2.9,-2.52 5.67,-5.22 8.3,-8.1 z m -11.16,25.15 c 0.88,0.82 1.76,1.64 2.64,2.45 -5.02,1.72 -10.03,3.45 -15.04,5.17 -3.36,-2.74 -6.72,-5.47 -10.08,-8.2 5.14,-2.45 10.04,-5.22 14.69,-8.32 2.28,3.17 4.85,6.16 7.8,8.9 z m -31.19,4.17 c 1.65,-1.17 3.44,-2.15 5.26,-3.07 1.23,3.38 2.64,6.62 4.21,9.73 -4.74,1.63 -9.48,3.26 -14.25,4.9 -0.92,-5.28 1.08,-8.92 4.78,-11.55 z m -24.11,39.63 c -0.57,2.52 -0.84,5.24 -0.74,8.17 -3.7,-4.06 -8.35,-6.73 -13.43,-8.25 4.72,0.02 9.45,0.02 14.17,0.08 z m 932.25,19.5 c 0.35,-0.06 0.7,-0.12 1.05,-0.18 -0.15,1.05 -0.27,2.12 -0.33,3.23 -0.21,-1.03 -0.46,-2.04 -0.73,-3.05 z m 205.84,10.71 c -0.07,0.22 -0.14,0.43 -0.2,0.65 0.03,-0.21 0.04,-0.41 0.07,-0.62 z m 202.8,-36.17 c -8.25,-6.21 -15.97,-13.26 -25.92,-15.83 5.3,-1.76 10.49,-3.94 15.56,-6.56 3.96,7.31 8.01,14.41 10.36,22.39 z m -67.01,-8.93 c 3.26,-0.77 6.68,-0.95 10.04,-1.14 7.44,-0.41 14.72,-1.43 21.81,-3.13 6.51,5.79 12.91,11.57 18.74,17.76 -0.95,0.08 -1.91,0.2 -2.89,0.36 0.09,-0.38 0.17,-0.78 0.23,-1.19 -4.56,-0.26 -9.11,-0.52 -13.65,-0.78 -4.26,-3.6 -8.53,-7.21 -12.83,-10.84 -0.42,3.69 -0.03,7.03 0.86,10.16 -10.51,-0.6 -21.01,-1.2 -31.61,-1.8 1.21,-5.54 4.62,-8.3 9.3,-9.4 z m -7.58,31.69 c 9.42,-1.88 18.85,-3.72 28.28,-5.56 -4.27,3.11 -8.48,6.75 -12.52,10.9 -6.12,-0.15 -12.18,-1.09 -18.16,-2.8 -0.28,-0.48 -0.55,-0.97 -0.83,-1.44 1.06,-0.5 2.13,-0.88 3.24,-1.1 z m -100.43,-35.79 c 2.94,-1.06 5.5,-3.19 8.12,-5.14 2.98,5.44 6.78,10 11.18,13.86 -15.52,4.01 -29.55,12.43 -38.6,24.12 -2.64,-0.34 -5.27,-0.68 -7.9,-1.02 -0.44,-7.83 -1.96,-14.84 -4.39,-21.03 10.65,-3.15 21.12,-7.03 31.58,-10.8 z m -149.14,-0.52 c -2.19,2.15 -4.29,4.43 -6.27,6.86 0.25,-4.04 -0.11,-8.13 -1.22,-12.27 1.94,1.88 4.33,3.64 7.06,5.18 0.14,0.08 0.29,0.15 0.44,0.23 z m -73.12,11.2 c 3.82,-1.12 6.55,0.05 7.82,3.06 -2.68,1.29 -5.2,2.9 -7.47,4.84 -5.9,2.12 -11.82,4.25 -17.79,6.4 -1.3,-1.99 -2.74,-3.89 -4.3,-5.7 3.65,-1.34 7.27,-2.8 10.87,-4.32 3.59,-1.52 7.15,-3.18 10.87,-4.27 z m -27.14,-11.73 c 3.64,-0.9 7.21,-2.19 10.89,-2.75 1.9,-0.29 3.98,0.65 5.97,1.03 -1.55,1.83 -3.02,2.62 -4.5,3.4 -5.81,3.05 -11.62,6.08 -17.43,9.13 -3.52,-2.55 -7.31,-4.79 -11.28,-6.7 5.45,-1.34 10.89,-2.75 16.34,-4.1 z"
     id="path6"
     clip-path="url(#clipPath177)"
     transform="translate(-0.1,0.02)" />
</svg>
