<?xml version="1.0" encoding="UTF-8" standalone="no"?>
<svg
   id="Charities_background"
   viewBox="0 0 1532.7605 485.96907"
   version="1.1"
   sodipodi:docname="grass5.svg"
   inkscape:export-filename="grass51.svg"
   inkscape:export-xdpi="96"
   inkscape:export-ydpi="96"
   xmlns:inkscape="http://www.inkscape.org/namespaces/inkscape"
   xmlns:sodipodi="http://sodipodi.sourceforge.net/DTD/sodipodi-0.dtd"
   xmlns="http://www.w3.org/2000/svg"
   xmlns:svg="http://www.w3.org/2000/svg">
  <sodipodi:namedview
     id="namedview276"
     pagecolor="#ffffff"
     bordercolor="#000000"
     borderopacity="0.25"
     inkscape:showpageshadow="2"
     inkscape:pageopacity="0.0"
     inkscape:pagecheckerboard="0"
     inkscape:deskcolor="#d1d1d1"
     showgrid="false" />
  <defs
     id="defs271">
    <style
       id="style269">.cls-1{fill:#53684b;}</style>
    <clipPath
       clipPathUnits="userSpaceOnUse"
       id="clipPath340">
      <rect
         style="fill:#000000;stroke-width:1.02554"
         id="rect342"
         width="1908.506"
         height="538.9762"
         x="-101.61028"
         y="-53.014057" />
    </clipPath>
  </defs>
  <path
     class="cls-1"
     d="m 1526.47,303.57 c -0.64,-1.05 -2.09,-1.19 -2.96,-0.32 -6.91,6.97 -17.7,14.51 -29.5,21.2 1.81,-6.3 -0.12,-12.17 -4.31,-17.01 5.15,-3.28 10.2,-6.7 15,-10.43 7.37,-5.73 12.51,-14.1 10.18,-23.85 -1.97,-8.24 -5.65,-16.06 -8.71,-23.76 -0.48,-1.2 -2,-1.57 -2.98,-0.72 -16.88,14.51 -33.01,28.69 -49.6,42.33 -2.6,2.13 -5.38,4.12 -8.29,5.92 -2.65,0.99 -5.16,2.33 -7.44,4.04 -1.21,0.57 -2.43,1.11 -3.66,1.6 -0.06,0.03 -0.13,0.04 -0.2,0.07 -0.12,-6.3 -1.89,-11.59 -4.94,-15.91 9.55,-7.83 19.73,-14.93 29.82,-22.09 11.65,-8.28 20.95,-18.59 26.37,-31.73 4.91,-11.9 5.54,-26.95 -10.96,-34.36 -0.87,-0.39 -1.9,-0.06 -2.39,0.76 -7.73,12.88 -15.07,25.79 -23.26,38.14 -3.5,5.27 -8.99,12.38 -16.1,7.35 -6.96,-4.92 -1.12,-11.85 1.98,-16.87 5.06,-8.21 11.4,-15.63 16.89,-23.58 3.63,-5.25 7.93,-11.37 2.94,-17.38 -7.87,-9.48 -16.8,-18.07 -25.31,-27.01 -0.38,-0.4 -1.04,-0.59 -1.61,-0.77 -7.7,-2.47 -26.76,9.24 -27.3,17.37 -0.4,5.94 0.61,12 1.27,17.97 0.7,6.29 2.03,12.52 2.46,18.82 0.1,1.48 -0.97,3.05 -1.91,4.6 -0.48,0.79 -1.46,1.13 -2.32,0.79 -1.85,-0.74 -3.91,-1.41 -4.36,-2.66 -2.54,-7.01 -4.98,-14.19 -6.13,-21.52 -0.9,-5.74 -0.49,-11.69 -0.41,-17.87 0.02,-1.34 -1.34,-2.27 -2.59,-1.78 -12.96,5.12 -17.9,15.11 -14.4,30.58 2.58,11.39 7.79,22.17 11.34,33.38 2.32,7.35 3.92,14.93 5.77,22.43 0.21,0.83 -0.17,1.7 -0.93,2.11 -0.77,0.42 -1.55,0.84 -2.32,1.26 -0.77,0.42 -1.73,0.25 -2.31,-0.41 -2.74,-3.13 -5.91,-6.05 -7.66,-9.65 -8.36,-17.19 -16.42,-34.54 -24.56,-51.97 12.95,-19.24 11.12,-43.39 -6.61,-61.02 -1.06,-1.05 -2.82,-0.79 -3.58,0.48 -16.82,28.11 -66.83,69.84 -88.83,73.19 -1.93,0.29 -3.31,-1.83 -2.28,-3.49 2.75,-4.43 5.11,-8.62 8.36,-11.95 9.5,-9.73 19.94,-18.53 29.53,-28.18 10.09,-10.14 20.36,-20.26 29.2,-31.46 7.03,-8.9 10.66,-20.29 5.06,-31.12 -4.73,-9.15 -11.35,-17.31 -17.21,-25.5 -0.92,-1.28 -2.82,-1.27 -3.73,0.01 -15.69,22.04 -30.6,43.49 -46.21,64.42 -5.43,7.28 -12.15,14.05 -19.52,19.3 -4.19,2.99 -9.8,3.97 -15.15,5.32 -1.59,0.4 -3.07,-0.94 -2.83,-2.57 0.81,-5.52 1.11,-11.41 4,-15.45 9.82,-13.72 21.03,-26.47 32.07,-39.28 11.34,-13.17 19.31,-28.05 21.88,-45.14 2.33,-15.48 -1.31,-33.43 -22.95,-37.36 -1.14,-0.21 -2.26,0.48 -2.6,1.59 -5.38,17.45 -10.26,34.84 -16.34,51.8 -2.59,7.24 -7,17.23 -16.87,13.36 -9.65,-3.78 -4.77,-13.66 -2.58,-20.49 3.58,-11.17 8.9,-21.77 13.07,-32.76 2.75,-7.25 6.05,-15.73 -1.6,-21.38 -12.05,-8.89 -25.1,-16.43 -37.75,-24.51 -0.57,-0.36 -1.4,-0.39 -2.13,-0.44 -9.81,-0.67 -28.9,18.7 -27.16,28.46 1.27,7.13 4.21,13.99 6.74,20.84 2.66,7.22 6.04,14.19 8.39,21.5 0.55,1.72 -0.25,3.88 -0.91,5.99 -0.34,1.07 -1.39,1.76 -2.5,1.6 -2.4,-0.34 -5.03,-0.52 -5.92,-1.86 -5.04,-7.54 -10.02,-15.3 -13.51,-23.62 -2.74,-6.52 -3.98,-13.66 -5.7,-20.97 -0.37,-1.59 -2.25,-2.29 -3.58,-1.34 -13.8,9.82 -16.72,23.06 -8.08,40.29 6.37,12.7 15.66,23.9 23.11,36.09 4.89,8 8.97,16.48 13.35,24.79 0.49,0.93 0.29,2.06 -0.48,2.76 -0.79,0.72 -1.58,1.44 -2.38,2.16 -0.79,0.72 -1.97,0.8 -2.85,0.19 -4.14,-2.89 -8.74,-5.42 -11.86,-9.16 -17.46,-20.95 -34.49,-42.27 -51.8,-63.67 -0.89,-1.1 -2.56,-1.14 -3.5,-0.08 -1.69,1.91 -3.61,4.09 -5.5,6.29 -17.93,20.99 -17.79,37.21 2,56.9 9.86,9.81 21.41,17.92 32.14,26.85 9.59,7.98 19.43,15.72 28.48,24.28 1.93,1.82 2.19,5.39 2.77,8.64 0.21,1.19 -0.52,2.33 -1.69,2.63 -3.54,0.9 -7.3,2.32 -9.99,1.19 -7.34,-3.09 -14.9,-6.96 -20.61,-12.37 -24.27,-22.97 -51.33,-43.99 -60.65,-79.99 -0.45,-1.73 -2.64,-2.28 -3.87,-0.99 -3.95,4.13 -7.24,7.44 -10.2,11.03 -29.87,36.25 -23.75,65.73 17.85,87.32 15.03,7.8 30.1,15.61 44.64,24.27 5.2,3.1 9.26,8.1 13.69,12.5 0.79,0.79 0.89,2.04 0.24,2.95 -0.12,0.17 -0.24,0.34 -0.36,0.51 -0.56,0.79 -1.56,1.14 -2.49,0.87 -3.15,-0.9 -6.35,-1.67 -9.36,-2.92 -9.19,-3.79 -18.22,-7.96 -27.39,-11.79 -18.62,-7.78 -39.1,-12.78 -49.03,-32.83 -0.67,-1.36 -2.49,-1.68 -3.59,-0.64 -25.62,23.91 -20.43,60.75 11.48,73.61 11.82,4.76 25.74,4.54 38.77,6.01 9.46,1.06 19.17,0.35 28.47,2.05 3.6,0.66 6.72,4.02 9.93,6.8 0.98,0.85 1.06,2.34 0.17,3.29 -2.79,2.98 -5.42,6.45 -8.84,7.68 -7.44,2.66 -14.85,4.89 -22.22,6.38 -16.52,-9.79 -37.83,-13.64 -57.31,-9.37 -1.8,-1.18 -3.59,-2.47 -5.37,-3.86 -0.19,-0.15 -0.56,-0.07 -1.15,0.09 -0.34,0.09 -0.64,0.27 -0.9,0.49 -0.03,-0.88 -0.07,-1.75 -0.13,-2.62 -0.12,-1.81 -0.33,-3.62 -0.6,-5.4 -1.48,-9.78 -5.09,-18.96 -10.88,-27.55 -0.13,-0.19 -0.25,-0.42 -0.39,-0.67 -0.07,-0.14 -0.14,-0.28 -0.22,-0.42 -0.03,-0.08 -0.09,-0.15 -0.13,-0.23 -0.03,-0.04 -0.04,-0.09 -0.07,-0.14 -0.02,-0.05 -0.05,-0.09 -0.08,-0.14 v 0 c -0.84,0.95 -1.41,1.51 -1.88,2.13 -0.7,0.94 -1.39,1.88 -2.08,2.81 -2.76,3.74 -5.49,7.49 -8.26,11.22 -2.09,2.79 -4.2,5.56 -6.36,8.27 -1.57,1.98 -3.2,3.9 -4.86,5.79 -1.11,1.26 -2.25,2.5 -3.38,3.75 -1.72,1.83 -3.44,3.67 -5.17,5.5 -0.42,0.44 -0.85,0.86 -1.32,1.25 -0.47,0.39 -0.96,0.76 -1.45,1.13 -0.97,0.72 -2.02,1.39 -3.04,2.06 -1.27,0.85 -2.6,1.33 -3.99,1.51 -1.2,0.18 -2.44,0.12 -3.69,-0.08 h -0.03 c -0.25,-0.04 -0.5,-0.09 -0.74,-0.14 -0.12,-0.02 -0.27,-0.05 -0.39,-0.08 -0.55,-0.12 -1.05,-0.29 -1.52,-0.49 -1.17,-0.47 -2.15,-1.15 -2.91,-2 -0.16,-0.19 -0.32,-0.36 -0.45,-0.55 -0.26,-0.35 -0.51,-0.76 -0.7,-1.18 -0.58,-1.26 -0.86,-2.74 -0.78,-4.37 0.24,-3.92 1.42,-7.31 3.31,-10.27 0.46,-0.71 0.95,-1.4 1.47,-2.06 0.54,-0.66 1.1,-1.3 1.7,-1.91 0.6,-0.6 1.26,-1.19 1.94,-1.76 0.68,-0.56 1.37,-1.1 2.11,-1.63 1.46,-1.02 3,-1.93 4.55,-2.81 1.04,-0.58 2.09,-1.15 3.15,-1.73 1.57,-0.86 3.14,-1.72 4.64,-2.68 4.02,-2.52 8.04,-5.12 11.68,-8.13 4.65,-3.84 7.46,-8.93 8.76,-14.62 0.2,-0.8 0.35,-1.63 0.48,-2.46 0.16,-1.04 0.25,-2.07 0.26,-3.1 0,-0.12 0,-0.24 0,-0.36 0,-0.49 0,-0.98 -0.04,-1.46 -0.07,-1.1 -0.21,-2.22 -0.44,-3.31 -0.06,-0.27 -0.13,-0.53 -0.19,-0.8 -0.33,-1.36 -0.81,-2.69 -1.4,-3.98 -0.25,-0.52 -0.52,-1.03 -0.81,-1.52 -0.24,-0.42 -0.47,-0.83 -0.69,-1.24 -0.4,-0.7 -0.81,-1.4 -1.22,-2.09 -1.95,-3.31 -3.99,-6.56 -6.14,-9.77 -3.13,-4.68 -6.5,-9.2 -9.75,-13.77 -6.45,-9.05 -13.2,-17.92 -16.81,-29.7 -0.2,0.36 -0.37,0.76 -0.56,1.14 -0.06,0.12 -0.13,0.24 -0.2,0.36 -0.1,0.15 -0.21,0.3 -0.32,0.42 -1.6,1.66 -3.24,3.21 -4.95,4.67 -0.29,0.25 -0.58,0.48 -0.87,0.74 -0.27,0.23 -0.57,0.46 -0.86,0.71 -1.17,0.93 -2.36,1.83 -3.58,2.69 -1.06,0.76 -2.15,1.47 -3.24,2.18 -1.1,0.7 -2.21,1.37 -3.35,2.01 -0.57,0.31 -1.13,0.63 -1.7,0.94 -1.16,0.62 -2.31,1.2 -3.49,1.77 -0.59,0.28 -1.18,0.56 -1.78,0.83 -2.04,0.94 -4.13,1.8 -6.27,2.58 -3.18,1.18 -6.61,1.92 -9.97,2.21 -3.16,0.27 -5.28,1.58 -6.88,4.09 -4.06,6.31 -6.6,13.02 -6.97,20.16 -0.03,0.77 -0.04,1.51 -0.04,2.27 0,0.39 0.03,0.77 0.04,1.17 0.04,0.78 0.1,1.54 0.19,2.32 0.08,0.79 0.2,1.58 0.35,2.37 0.35,1.95 0.75,3.89 1.17,5.82 1.27,5.81 2.8,11.58 4.31,17.33 0.25,0.96 0.49,1.92 0.72,2.86 1.7,7.16 2.7,14.36 1.85,21.78 -0.12,1.11 -0.34,2.19 -0.63,3.24 -0.19,0.71 -0.44,1.38 -0.72,2.06 -0.27,0.67 -0.61,1.32 -0.99,1.96 -0.2,0.3 -0.39,0.61 -0.6,0.92 -0.17,0.23 -0.33,0.44 -0.51,0.65 -0.16,0.21 -0.33,0.41 -0.51,0.59 -2.49,2.67 -5.43,3.06 -8.79,0.7 -2.45,-1.72 -4.69,-3.97 -6.47,-6.38 -0.58,-0.8 -1.15,-1.6 -1.69,-2.44 -1.11,-1.69 -2.1,-3.45 -2.98,-5.25 -0.58,-1.2 -1.14,-2.4 -1.66,-3.65 v 0 c -0.51,-1.24 -0.98,-2.49 -1.42,-3.77 -0.22,-0.63 -0.42,-1.27 -0.63,-1.91 -0.28,-0.93 -0.56,-1.88 -0.83,-2.83 -0.12,-0.47 -0.24,-0.96 -0.36,-1.44 -0.38,-1.44 -0.72,-2.89 -1.03,-4.35 -0.15,-0.71 -0.3,-1.44 -0.45,-2.17 -0.14,-0.73 -0.29,-1.45 -0.4,-2.18 -0.39,-2.18 -0.71,-4.36 -0.97,-6.54 -0.5,-4.39 -0.75,-8.8 -0.67,-13.2 0,-1.46 0.07,-2.93 0.16,-4.38 0.19,-3.35 0.57,-6.71 1.13,-10.09 0.24,-1.39 0.51,-2.76 0.82,-4.15 0.1,-0.45 0.21,-0.9 0.31,-1.35 0.14,-0.58 0.27,-1.17 0.42,-1.75 0.32,-1.35 0.67,-2.71 1.01,-4.08 0.14,-0.55 0.27,-1.11 0.41,-1.68 0.15,-0.62 0.31,-1.23 0.45,-1.85 -0.64,0.07 -1.3,0.07 -1.98,0.18 h -0.03 c -0.11,0.01 -0.21,0.03 -0.31,0.05 -11.83,2.43 -22.36,7.57 -31.61,15.39 -1,0.86 -1.88,1.8 -2.63,2.81 -0.5,0.67 -0.94,1.39 -1.32,2.13 -0.37,0.76 -0.7,1.55 -0.96,2.36 -0.07,0.25 -0.14,0.48 -0.19,0.74 -0.05,0.18 -0.1,0.35 -0.14,0.54 -0.09,0.37 -0.17,0.76 -0.26,1.13 v 0 c -0.14,0.77 -0.26,1.51 -0.35,2.27 -0.02,0 0,0.03 0,0.04 -0.1,0.85 -0.16,1.71 -0.2,2.57 -0.07,1.5 -0.03,3.01 0.09,4.53 0.01,0.32 0.04,0.66 0.07,0.97 0.06,0.78 0.16,1.57 0.27,2.37 0.16,1.19 0.36,2.38 0.58,3.56 2.15,11.19 6.98,21.36 12.07,31.4 0.58,1.14 1.15,2.29 1.7,3.45 1.09,2.3 2.12,4.64 3.09,7.01 0.48,1.18 0.95,2.38 1.37,3.58 1.06,2.88 1.99,5.8 2.81,8.78 0.36,1.29 0.65,2.6 0.86,3.91 0.07,0.44 0.13,0.88 0.19,1.32 0.11,0.86 0.17,1.74 0.18,2.62 0.05,1.83 -0.1,3.7 -0.5,5.54 -0.34,1.63 -0.99,3.33 -1.89,4.72 -0.13,0.2 -0.26,0.41 -0.41,0.62 -0.09,0.13 -0.19,0.25 -0.29,0.38 -0.09,0.1 -0.18,0.21 -0.25,0.31 -0.17,0.18 -0.33,0.36 -0.5,0.51 -0.11,0.1 -0.22,0.22 -0.36,0.32 -0.05,0.05 -0.09,0.08 -0.14,0.12 -0.17,0.14 -0.34,0.28 -0.51,0.39 -0.04,0.04 -0.1,0.08 -0.14,0.12 -0.28,0.19 -0.59,0.35 -0.89,0.47 -0.14,0.08 -0.29,0.13 -0.44,0.17 -0.06,0.04 -0.12,0.06 -0.17,0.07 -0.17,0.07 -0.34,0.12 -0.52,0.16 -0.19,0.05 -0.35,0.09 -0.52,0.1 -0.26,0.05 -0.53,0.08 -0.81,0.1 -0.45,0.01 -0.9,0 -1.35,-0.08 h -0.01 c -0.35,-0.04 -0.7,-0.13 -1.06,-0.25 -0.88,-0.27 -1.77,-0.72 -2.64,-1.33 -3.47,-2.45 -6.32,-5.51 -8.55,-9.05 -0.32,-0.52 -0.62,-1.03 -0.91,-1.55 -0.36,-0.68 -0.74,-1.34 -1.09,-2.03 -0.36,-0.68 -0.73,-1.37 -1.08,-2.04 -0.55,-1.1 -1.12,-2.21 -1.67,-3.33 -4.11,-8.49 -7.32,-17.36 -8.58,-26.89 -0.8,-6.18 -2.05,-12.27 -2.8,-18.47 -0.05,-0.42 -0.09,-0.82 -0.13,-1.25 -0.03,-0.39 -0.06,-0.77 -0.08,-1.15 -0.08,-0.89 -0.12,-1.81 -0.15,-2.71 -0.02,-0.44 -0.03,-0.87 -0.03,-1.32 -0.04,-1.34 -0.07,-2.7 -0.09,-4.13 q 0,0 0,-0.03 c -0.03,-0.8 -0.04,-1.62 -0.08,-2.47 -0.77,0.51 -1.43,0.95 -2.02,1.36 -0.02,0.02 -0.04,0.03 -0.06,0.04 -0.26,0.18 -0.5,0.34 -0.73,0.52 -0.12,0.09 -0.22,0.17 -0.34,0.25 -0.13,0.07 -0.24,0.16 -0.35,0.25 -1.05,0.82 -2.08,1.64 -3.1,2.48 -1.02,0.84 -2.03,1.69 -3.02,2.54 -13.88,12.03 -25.25,26.24 -34.49,42.24 -8.42,14.59 -14.66,30.02 -18,46.53 -8.77,4.61 -15.03,10.82 -17.29,18.72 -0.45,1.58 -0.74,3.24 -0.86,4.96 -0.31,-1.68 -0.7,-3.33 -1.17,-4.96 -9.87,-33.31 -57.17,-55.48 -101.62,-60.86 -0.68,-3.56 -1.93,-7.28 -3.8,-11.17 -5,-10.43 -12.71,-19.55 -20.1,-30.43 -0.31,-0.46 -0.4,-1.04 -0.25,-1.57 5.89,-21.33 -4.32,-41.62 -26,-48.79 -1.16,-0.39 -2.37,0.45 -2.46,1.67 -1.78,23.24 -18.1,63.11 -32.15,80.26 -2.92,-0.05 -5.91,0.08 -8.92,0.38 0.26,-2.72 0.61,-5.3 1.39,-7.74 3.42,-10.65 7.87,-20.96 11.38,-31.58 3.7,-11.17 7.55,-22.39 9.94,-33.88 1.9,-9.13 0.39,-18.85 -7.7,-24.76 -6.84,-5 -14.71,-8.57 -22.03,-12.45 -1.14,-0.6 -2.54,0.1 -2.74,1.38 -3.45,21.98 -6.55,43.25 -10.35,64.38 -1.32,7.36 -3.78,14.8 -7.28,21.38 -1.98,3.74 -5.76,6.52 -9.2,9.48 -1.02,0.88 -2.6,0.43 -3.03,-0.85 -1.43,-4.36 -3.38,-8.81 -2.73,-12.84 2.19,-13.7 5.76,-27.2 9.17,-40.68 3.51,-13.86 3.91,-27.73 -0.48,-41.26 -3.97,-12.25 -13.25,-24.12 -30.61,-19.07 -0.92,0.27 -1.49,1.19 -1.33,2.13 2.45,14.82 5.24,29.41 7,44.12 0.75,6.28 1.18,15.25 -7.5,16.03 -8.49,0.76 -8.53,-8.3 -9.43,-14.13 -1.46,-9.53 -1.45,-19.29 -2.42,-28.91 -0.64,-6.35 -1.33,-13.8 -9.03,-15.15 -12.13,-2.12 -24.51,-2.88 -36.78,-4.17 -0.55,-0.06 -1.18,0.23 -1.73,0.46 -7.46,3.11 -14.4,24.38 -9.53,30.92 3.55,4.78 8.24,8.75 12.62,12.86 4.61,4.34 9.66,8.22 14.07,12.74 1.04,1.06 1.24,2.95 1.53,4.74 0.15,0.91 -0.38,1.81 -1.25,2.1 -1.89,0.63 -3.89,1.46 -5.04,0.81 -6.48,-3.7 -12.99,-7.58 -18.62,-12.42 -4.41,-3.79 -7.95,-8.59 -11.89,-13.34 -0.86,-1.03 -2.5,-0.86 -3.13,0.32 -6.55,12.3 -3.84,23.11 8.85,32.62 9.35,7.01 20.3,11.84 30.26,18.07 6.53,4.09 12.66,8.83 18.93,13.34 0.7,0.5 0.97,1.41 0.66,2.21 -0.32,0.82 -0.64,1.64 -0.95,2.46 -0.32,0.82 -1.16,1.31 -2.03,1.18 -4.11,-0.61 -8.42,-0.78 -12.09,-2.39 -20.55,-9 -40.91,-18.44 -61.51,-27.83 -1.06,-0.48 -2.31,0.1 -2.61,1.23 -0.54,2.03 -1.16,4.33 -1.73,6.65 -0.73,2.92 -1.24,5.65 -1.56,8.23 -0.14,0.06 -0.28,0.12 -0.41,0.21 -0.67,0.27 -1.31,0.61 -1.95,0.93 -0.59,0.29 -1.15,0.59 -1.73,0.9 -0.41,0.22 -0.81,0.45 -1.2,0.69 -0.42,0.21 -0.8,0.44 -1.17,0.7 -0.22,0.11 -0.43,0.25 -0.65,0.38 -0.4,0.26 -0.82,0.51 -1.2,0.8 -2.18,1.43 -4.23,3 -6.18,4.71 -2.02,1.73 -3.96,3.56 -5.88,5.41 -19.85,-3.53 -39.96,0.13 -54.6,11.3 0.3,-0.93 0.7,-1.87 1.22,-2.82 2.04,-3.72 4.9,-6.76 8.68,-8.65 3.33,-1.64 6.83,-3.07 10.4,-4.15 4.82,-1.47 9.8,-2.46 14.64,-3.8 7.13,-1.97 13.82,-4.7 20.21,-8.06 1.43,-0.76 2.84,-1.54 4.23,-2.35 1.4,-0.82 2.77,-1.67 4.12,-2.54 2.04,-1.32 4.07,-2.69 6.05,-4.13 0.34,-0.24 0.65,-0.47 0.97,-0.72 0.62,-0.47 1.23,-0.97 1.79,-1.49 0.56,-0.51 1.1,-1.05 1.62,-1.59 3.12,-3.26 5.3,-7.12 6.53,-11.68 0.06,-0.23 0.13,-0.5 0.19,-0.73 0.18,-0.72 0.36,-1.43 0.54,-2.15 0.45,-1.92 0.82,-3.82 1.11,-5.74 0.3,-1.89 0.51,-3.82 0.64,-5.71 0.76,-10.44 -0.83,-20.76 -4.79,-30.97 -0.09,-0.23 -0.16,-0.49 -0.25,-0.78 -0.04,-0.16 -0.08,-0.32 -0.13,-0.49 -0.01,-0.09 -0.06,-0.17 -0.08,-0.27 -0.02,-0.05 -0.02,-0.1 -0.04,-0.16 -0.01,-0.06 -0.03,-0.11 -0.05,-0.17 v 0 c -1.08,0.78 -1.8,1.22 -2.43,1.76 -0.94,0.81 -1.87,1.61 -2.8,2.41 -3.72,3.22 -7.42,6.45 -11.14,9.65 -2.81,2.39 -5.63,4.75 -8.5,7.05 -2.08,1.68 -4.22,3.28 -6.37,4.85 -1.44,1.04 -2.9,2.06 -4.36,3.08 -2.2,1.49 -4.41,2.99 -6.62,4.47 -0.53,0.36 -1.08,0.69 -1.66,0.98 -0.58,0.29 -1.17,0.56 -1.76,0.83 -1.17,0.51 -2.41,0.96 -3.61,1.42 -1.51,0.59 -2.99,0.76 -4.47,0.62 -1.28,-0.1 -2.55,-0.45 -3.79,-0.95 l -0.02,-0.02 c -0.25,-0.09 -0.5,-0.2 -0.73,-0.31 -0.12,-0.04 -0.27,-0.12 -0.38,-0.17 -0.53,-0.25 -1.01,-0.54 -1.46,-0.86 -1.09,-0.76 -1.94,-1.69 -2.53,-2.74 -0.12,-0.23 -0.24,-0.44 -0.34,-0.67 -0.19,-0.42 -0.35,-0.9 -0.44,-1.38 -0.31,-1.44 -0.25,-3.02 0.22,-4.7 1.16,-3.99 3.17,-7.21 5.81,-9.83 0.64,-0.63 1.3,-1.22 2,-1.78 0.71,-0.55 1.44,-1.09 2.2,-1.57 0.76,-0.48 1.58,-0.93 2.41,-1.37 0.83,-0.42 1.67,-0.82 2.56,-1.19 1.74,-0.71 3.55,-1.29 5.36,-1.84 1.21,-0.35 2.43,-0.7 3.65,-1.06 1.82,-0.52 3.65,-1.04 5.41,-1.69 4.73,-1.66 9.49,-3.41 13.95,-5.66 5.7,-2.88 9.78,-7.48 12.45,-13.04 0.4,-0.78 0.74,-1.6 1.07,-2.43 0.4,-1.03 0.74,-2.07 0.99,-3.14 0.03,-0.12 0.06,-0.25 0.08,-0.37 0.12,-0.5 0.22,-1.01 0.3,-1.52 0.19,-1.15 0.3,-2.34 0.31,-3.51 0,-0.29 0,-0.58 0,-0.87 -0.03,-1.48 -0.21,-2.96 -0.51,-4.43 -0.13,-0.59 -0.3,-1.19 -0.48,-1.76 -0.15,-0.49 -0.29,-0.96 -0.43,-1.44 -0.24,-0.82 -0.51,-1.63 -0.77,-2.44 -1.24,-3.87 -2.59,-7.7 -4.06,-11.51 -2.13,-5.56 -4.56,-11.02 -6.85,-16.49 -4.55,-10.84 -9.44,-21.58 -10.41,-34.57 -0.29,0.32 -0.56,0.7 -0.85,1.04 -0.09,0.11 -0.19,0.22 -0.29,0.32 -0.14,0.13 -0.28,0.26 -0.43,0.36 -2.04,1.34 -4.1,2.55 -6.19,3.67 -0.36,0.19 -0.71,0.37 -1.07,0.56 -0.33,0.18 -0.69,0.34 -1.05,0.54 -1.42,0.69 -2.87,1.34 -4.32,1.94 -1.27,0.53 -2.56,1.02 -3.85,1.49 -1.3,0.47 -2.6,0.89 -3.92,1.29 -0.66,0.19 -1.31,0.39 -1.98,0.58 -1.34,0.37 -2.67,0.7 -4.02,1.01 -0.67,0.15 -1.34,0.3 -2.03,0.44 -2.33,0.49 -4.69,0.89 -7.07,1.2 -3.56,0.47 -7.27,0.44 -10.81,-0.04 -3.32,-0.46 -5.81,0.4 -8.06,2.62 -5.67,5.56 -9.85,11.89 -11.9,19.17 -0.21,0.78 -0.39,1.55 -0.57,2.34 -0.09,0.4 -0.15,0.8 -0.23,1.21 -0.14,0.81 -0.26,1.61 -0.35,2.44 -0.1,0.83 -0.16,1.68 -0.19,2.52 -0.09,2.1 -0.13,4.19 -0.15,6.28 -0.05,6.3 0.19,12.6 0.4,18.89 0.03,1.05 0.06,2.09 0.07,3.12 0.08,7.78 -0.56,15.45 -3.18,22.91 -0.38,1.11 -0.86,2.18 -1.4,3.2 -0.37,0.68 -0.77,1.32 -1.22,1.95 -0.43,0.63 -0.94,1.22 -1.48,1.79 -0.27,0.27 -0.54,0.54 -0.84,0.81 -0.23,0.2 -0.44,0.38 -0.67,0.56 -0.22,0.18 -0.44,0.35 -0.67,0.49 -3.2,2.18 -6.32,1.89 -9.23,-1.33 -2.12,-2.35 -3.91,-5.2 -5.19,-8.09 -0.41,-0.96 -0.81,-1.92 -1.17,-2.91 -0.75,-2 -1.36,-4.05 -1.85,-6.11 -0.32,-1.37 -0.61,-2.75 -0.86,-4.16 v 0 c -0.24,-1.4 -0.44,-2.8 -0.59,-4.22 -0.08,-0.7 -0.14,-1.41 -0.2,-2.11 -0.07,-1.03 -0.14,-2.07 -0.2,-3.11 -0.01,-0.52 -0.03,-1.05 -0.04,-1.57 -0.05,-1.58 -0.07,-3.15 -0.05,-4.73 0.01,-0.77 0.02,-1.56 0.05,-2.34 0.02,-0.78 0.04,-1.57 0.1,-2.35 0.11,-2.34 0.28,-4.67 0.53,-6.98 0.51,-4.65 1.28,-9.26 2.39,-13.78 0.35,-1.51 0.76,-3.01 1.19,-4.49 0.98,-3.41 2.16,-6.79 3.52,-10.14 0.57,-1.38 1.17,-2.73 1.82,-4.09 0.21,-0.44 0.42,-0.88 0.64,-1.32 0.28,-0.57 0.55,-1.14 0.84,-1.7 0.65,-1.32 1.32,-2.64 2,-3.97 0.27,-0.54 0.54,-1.08 0.82,-1.64 0.3,-0.61 0.61,-1.19 0.89,-1.81 -0.68,-0.08 -1.36,-0.24 -2.08,-0.27 l -0.02,-0.02 c -0.12,0 -0.23,-0.01 -0.33,0 -12.78,-0.26 -24.85,2.59 -36.21,8.51 -1.23,0.66 -2.36,1.42 -3.37,2.29 -0.67,0.58 -1.3,1.21 -1.86,1.89 -0.56,0.7 -1.08,1.43 -1.54,2.21 -0.13,0.24 -0.26,0.46 -0.37,0.72 -0.1,0.18 -0.18,0.34 -0.27,0.53 -0.18,0.36 -0.35,0.74 -0.53,1.1 v 0 c -0.32,0.76 -0.62,1.5 -0.89,2.26 -0.02,0 -0.02,0.02 -0.01,0.04 -0.31,0.86 -0.57,1.72 -0.81,2.61 -0.43,1.53 -0.73,3.1 -0.96,4.7 -0.06,0.33 -0.12,0.69 -0.16,1.02 -0.12,0.82 -0.2,1.65 -0.27,2.51 -0.11,1.27 -0.19,2.54 -0.23,3.81 -0.39,12.05 2.22,23.68 5.13,35.23 0.34,1.32 0.65,2.63 0.95,3.96 0.59,2.63 1.11,5.28 1.55,7.95 0.22,1.33 0.42,2.68 0.57,4.01 0.42,3.22 0.7,6.45 0.85,9.72 0.07,1.42 0.06,2.84 -0.03,4.24 -0.03,0.47 -0.07,0.94 -0.11,1.4 -0.09,0.91 -0.23,1.84 -0.42,2.75 -0.2,1 -0.46,1.99 -0.78,2.97 -2.82,-1.72 -5.93,-3.17 -9.33,-4.29 -1.16,-0.39 -2.37,0.45 -2.46,1.67 -0.26,3.46 -0.86,7.3 -1.71,11.37 -0.02,-0.01 -0.03,-0.02 -0.05,-0.03 -0.84,-0.49 -1.66,-1.15 -2.42,-1.99 -3.01,-3.33 -5.24,-7.16 -6.71,-11.33 -0.21,-0.61 -0.4,-1.21 -0.58,-1.81 -0.22,-0.78 -0.45,-1.56 -0.65,-2.34 -0.22,-0.78 -0.44,-1.58 -0.64,-2.36 -0.31,-1.27 -0.64,-2.54 -0.95,-3.82 -2.26,-9.72 -3.5,-19.62 -2.58,-29.76 0.62,-6.56 0.75,-13.14 1.42,-19.72 0.05,-0.45 0.1,-0.87 0.16,-1.32 0.05,-0.41 0.12,-0.8 0.19,-1.2 0.12,-0.94 0.3,-1.89 0.48,-2.83 0.09,-0.45 0.17,-0.91 0.28,-1.37 0.27,-1.39 0.56,-2.8 0.87,-4.28 q 0,0 0,-0.03 c 0.16,-0.83 0.34,-1.68 0.49,-2.57 -0.92,0.35 -1.7,0.65 -2.41,0.93 -0.03,0.02 -0.05,0.02 -0.07,0.03 -0.31,0.12 -0.59,0.24 -0.87,0.36 -0.14,0.06 -0.26,0.12 -0.41,0.18 -0.15,0.04 -0.29,0.11 -0.42,0.18 -1.28,0.6 -2.53,1.21 -3.78,1.84 -1.25,0.63 -2.49,1.27 -3.71,1.92 -17.13,9.17 -32.19,21.19 -45.45,35.54 -1.77,1.91 -3.49,3.86 -5.16,5.83 -0.02,-0.06 -0.03,-0.12 -0.05,-0.18 -3.97,-12.25 -13.25,-24.12 -30.61,-19.07 -0.92,0.27 -1.49,1.19 -1.33,2.13 2.45,14.82 5.24,29.41 7,44.12 0.75,6.28 1.18,15.25 -7.5,16.03 -8.49,0.76 -8.53,-8.3 -9.43,-14.13 -1.46,-9.53 -1.45,-19.29 -2.42,-28.91 -0.64,-6.35 -1.33,-13.8 -9.03,-15.15 -12.13,-2.12 -24.51,-2.88 -36.78,-4.17 -0.55,-0.06 -1.18,0.23 -1.73,0.46 -7.46,3.11 -14.4,24.38 -9.53,30.92 3.55,4.78 8.24,8.75 12.62,12.86 4.61,4.34 9.66,8.22 14.07,12.74 1.04,1.06 1.24,2.95 1.53,4.74 0.15,0.91 -0.38,1.81 -1.25,2.1 -1.89,0.63 -3.89,1.46 -5.04,0.81 -6.48,-3.7 -12.99,-7.58 -18.62,-12.42 -4.41,-3.79 -7.95,-8.59 -11.89,-13.34 -0.86,-1.03 -2.5,-0.86 -3.13,0.32 -6.55,12.3 -3.84,23.11 8.85,32.62 9.35,7.01 20.3,11.84 30.26,18.07 6.53,4.09 12.66,8.83 18.93,13.34 0.7,0.5 0.97,1.41 0.66,2.21 -0.32,0.82 -0.64,1.64 -0.95,2.46 -0.32,0.82 -1.16,1.31 -2.03,1.18 -4.11,-0.61 -8.42,-0.78 -12.09,-2.39 -20.55,-9 -40.91,-18.44 -61.51,-27.83 -1.06,-0.48 -2.31,0.1 -2.61,1.23 -0.54,2.03 -1.16,4.33 -1.73,6.65 -5.49,22.03 0.57,33.91 22.37,41.14 10.86,3.6 22.33,5.32 33.52,7.96 9.99,2.35 20.07,4.43 29.88,7.41 2.09,0.63 3.59,3.16 5.21,5.34 0.59,0.79 0.47,1.91 -0.28,2.55 -2.28,1.96 -4.52,4.39 -6.91,4.54 -6.53,0.42 -13.52,0.35 -19.71,-1.53 -26.3,-7.99 -53.94,-13.52 -74.02,-36.59 -0.96,-1.11 -2.78,-0.71 -3.21,0.7 -1.39,4.49 -2.6,8.14 -3.46,11.86 -5.45,23.67 -1.41,40.14 11.92,49.26 -4.7,-0.24 -9.4,-0.31 -14.03,-0.18 V 1798.06 H 1530.24 V 338.55 c 4.24,-10.85 3.29,-23.37 -3.77,-34.99 z M 626.01,248.41 c 0.95,-1.45 3.18,-0.95 3.44,0.76 1.77,11.49 -0.58,22.79 -5.88,31.97 -6.88,0.56 -13.39,1.65 -19.33,3.28 -0.87,-0.98 -1.82,-1.9 -2.83,-2.77 7.05,-11.63 16.85,-21.52 24.6,-33.25 z m -231.42,9.36 c 3.72,6.03 10.49,10.47 20.75,13.87 10.86,3.6 22.33,5.32 33.52,7.96 9.99,2.35 20.07,4.43 29.88,7.41 2,0.61 3.47,2.95 5.01,5.06 -12.69,-7.05 -29.71,-6.36 -40.12,1.9 -5.75,-1.68 -11.49,-3.4 -17.13,-5.37 -8.5,-12.2 -19.79,-21.4 -32.21,-27.5 0.12,-1.11 0.22,-2.21 0.3,-3.33 z M 177.63,296.5 c -0.88,1.2 -2.14,2.09 -3.82,2.66 -2.08,0.7 -7.01,-0.75 -7.23,-1.87 -0.19,-0.98 -0.27,-1.9 -0.27,-2.79 3.94,1.2 7.78,1.92 11.31,2 z m -92.26,27.27 c 0.38,3.18 1.05,6.63 2.05,10.37 -2.06,0.11 -4.13,0.22 -6.19,0.32 -5.84,-4.67 -13.34,-8.57 -21.86,-11.69 8.67,0.18 17.35,0.45 26,1 z m 1032.99,3.39 c -0.43,-1.51 -0.93,-2.98 -1.5,-4.42 0.32,-0.16 0.64,-0.31 0.95,-0.46 0.14,1.6 0.32,3.23 0.54,4.89 z m 204.91,-8.32 c -0.01,-0.22 -0.03,-0.42 -0.05,-0.64 0.05,0.05 0.11,0.1 0.16,0.15 -0.03,0.16 -0.08,0.32 -0.11,0.48 z m 19.58,-30.28 c -0.89,-1.38 -1.79,-2.76 -2.7,-4.14 3.93,-3.87 6.82,-8.72 8.62,-14.58 0.12,0.16 0.24,0.32 0.36,0.48 2.43,3.3 4.89,6.57 7.33,9.86 -4.86,2.32 -9.46,5.12 -13.61,8.38 z m -21.12,-65.32 c 0.26,4.95 2.04,10.31 5.31,16.3 -2.58,3.05 -5.42,5.81 -8.48,8.22 -2.79,-6.35 -5,-12.99 -6.33,-20.08 3.16,-1.47 6.34,-2.93 9.51,-4.45 z m -49.03,30.7 c 0.37,-0.43 0.75,-0.84 1.12,-1.25 -0.17,1.63 -0.21,3.26 -0.12,4.9 -1.5,-0.53 -2.06,-2.42 -1,-3.64 z m -37.33,3.75 c -2.52,5.31 -5.53,7.86 -9.83,8.02 -2.48,-1.57 -5.03,-3.01 -7.62,-4.31 3.69,-7.65 8.37,-9.64 16.15,-6.86 1.28,0.46 1.89,1.93 1.3,3.16 z m -24.65,-24.81 c 2.24,-8.07 8.4,-10.92 16.37,-12.06 1.43,-0.2 2.68,0.99 2.59,2.43 -0.67,11.13 -4.96,16.59 -12.11,15.59 -2.64,-0.37 -7.22,-4.62 -6.84,-5.96 z m -226.25,97.85 c 0.55,-0.28 1.1,-0.56 1.65,-0.83 -0.23,0.72 -0.47,1.44 -0.69,2.18 -0.32,-0.46 -0.64,-0.9 -0.97,-1.35 z"
     id="path273"
     clip-path="url(#clipPath340)"
     transform="translate(-0.0178381,0.00694129)" />
</svg>
