<?xml version="1.0" encoding="UTF-8" standalone="no"?>
<svg
   id="Left"
   viewBox="0 0 774.01784 894.84014"
   version="1.1"
   sodipodi:docname="leftBushDecoSmall.svg"
   inkscape:version="1.2.2 (732a01da63, 2022-12-09)"
   xmlns:inkscape="http://www.inkscape.org/namespaces/inkscape"
   xmlns:sodipodi="http://sodipodi.sourceforge.net/DTD/sodipodi-0.dtd"
   xmlns="http://www.w3.org/2000/svg"
   xmlns:svg="http://www.w3.org/2000/svg">
  <sodipodi:namedview
     id="namedview205"
     pagecolor="#ffffff"
     bordercolor="#000000"
     borderopacity="0.25"
     inkscape:showpageshadow="2"
     inkscape:pageopacity="0.0"
     inkscape:pagecheckerboard="0"
     inkscape:deskcolor="#d1d1d1"
     showgrid="false"
     inkscape:zoom="0.52970358"
     inkscape:cx="502.16765"
     inkscape:cy="398.33599"
     inkscape:window-width="1536"
     inkscape:window-height="801"
     inkscape:window-x="-8"
     inkscape:window-y="-8"
     inkscape:window-maximized="1"
     inkscape:current-layer="Left" />
  <defs
     id="defs200">
    <style
       id="style198">.cls-1{fill:#5f7857;}</style>
    <clipPath
       clipPathUnits="userSpaceOnUse"
       id="clipPath239">
      <rect
         style="fill:#576d4f;stroke-width:0.777282"
         id="rect241"
         width="766.46643"
         height="1283.7368"
         x="-1863.3064"
         y="-124.59798"
         transform="scale(-1,1)" />
    </clipPath>
    <clipPath
       clipPathUnits="userSpaceOnUse"
       id="clipPath245">
      <rect
         style="fill:#576d4f"
         id="rect247"
         width="840.09247"
         height="1157.251"
         x="405.88739"
         y="-26.429876" />
    </clipPath>
    <clipPath
       clipPathUnits="userSpaceOnUse"
       id="clipPath251">
      <rect
         style="fill:#576d4f"
         id="rect253"
         width="838.20465"
         height="913.71857"
         x="368.13043"
         y="-15.102786" />
    </clipPath>
    <clipPath
       clipPathUnits="userSpaceOnUse"
       id="clipPath261">
      <rect
         style="fill:#576d4f"
         id="rect263"
         width="774.01782"
         height="894.84009"
         x="402.11169"
         y="1.8878483" />
    </clipPath>
  </defs>
  <path
     class="cls-1"
     d="m 1120.15,936.82246 c 52.13,11.04 33.88,82.63004 -37.22,64.63004 27.22,11.07 12.58,42.6 -18.53,32.19 1.6,26.18 -48.4,40.18 -60.4,11.18 1,22 -30.96004,45.37 -51.24004,13.93 11.99,26.78 -21.74,42.6 -34.11,24.56 -15.77,40.6 -72.72,37.14 -66.59,-13.43 0.54,-1.95 0.87,-3.94 0.98,-5.96 -0.42,2.05 -0.74,4.04 -0.98,5.96 -7.46,27.35 -54.18,46.26 -66.13,7.82 -18.43,26.84 -86.89,13.8 -71.92,-24.3 0.89,-1.7 1.74,-3.47 2.56,-5.32 -1.03,1.83 -1.88,3.6 -2.56,5.32 -24.67,47.67 -71.38,37.68 -70.95,-8.73 -29.86,40.1 -117.33,52.41 -121.81,-6.43 -0.07,-0.85 -0.11,-1.72 -0.14,-2.6 0.23,-3.28 0.36,-6.66 0.39,-10.13 -0.38,3.58 -0.5,6.95 -0.39,10.13 -0.05,0.93 -0.12,1.86 -0.21,2.78 -7.93,93.22 -92.59,106.61 -121.33,25.28 -31.66,61.13 -116.97996,51.52 -112.60996,-19.09 0.3,-4.92 1.04,-10.14 2.26,-15.66 -1.39,3.67 -3.21,7.21 -5.39,10.57 -24.66,38.08 -95.41,53.73 -108.23,-8.1 -35.75,42.57 -150.06,8.98 -117.92,-53.38004 C 40.26,1005.0425 19.39,1019.5725 0,1023.6725 L 0.65,113.84246 c 10.52,-0.16 60.86,3.11 71.76,11.19 1.49,1.77 3.51,3.49 6.13,5.14 -2,-1.9 -4.05,-3.61 -6.13,-5.14 -17.12,-20.44 38.16,-47.010003 78.01,-26.050003 -44.64,-51.4 81.03,-88.34 114.5,-41.91 -2.75,-15.41 62.29996,-38.8 73.46996,-26.43 40.44,-51.68 153.2,-35.8099996 129.82,31.21 -1.5,2.54 -2.62,5.17 -3.28,7.89 1.29,-2.7 2.39,-5.34 3.28,-7.89 21,-35.41 118.29,-51.7 133.61,2.52 44.61,-34.08 170.7,23.98 113.83,76.180003 44.72,-27.55 112.08,13.77 87.04,63.43 66.75,-55.19 174.45,-16.48 78.14,56.87 44.39,-25.36 71.79,13.39 31.41,57.6 43.58,5.06 30.94,52.1 -2.14,56.22 -1,0.11 -1.73,0.78 -2.63,1.14 -0.24,0.11 -0.48,0.21 -0.73,0.3 46.16,-15.04 71.59,33.52 40.99,53.54 -1.2,0.79 -2.48,1.53 -3.86,2.22 2.98,1.35 5.8,2.79 8.46,4.31 34.67,19.87 42.38,53.86 25.97,75.35 1.64,3.97 2.74,8.16 3.23,12.44 0.67,5.82 -0.1,12.46 -4.62,16.17 -4.55,3.74 -11.14,3.19 -16.98,2.43 4.81,6.25 9.73,12.76 11.49,20.45 1.76,7.68 0.49,15.47 -6.41,19.28 11.68,3.21 20.55,10.29 26.77,19.31 26.58004,-25.8 85.90004,6.83 64.91004,34.85 9.43,-6.28 40.32,14.49 34.88,23.45 43.55,0.69 60.1,55.3 10.53,67.11 -2.01,0.17 -3.99,0.55 -5.92,1.15 2.07,-0.32 4.04,-0.71 5.92,-1.15 28.23,-2.51 62.21,34.73 30.32,59.3 31.58,7.94 43.13,76.72 2.16,75.87 -1.89,-0.24 -3.84,-0.42 -5.84,-0.55 2.06,0.33 4,0.51 5.84,0.55 63.59,7.82 61.11,73.6 -14.43,74.63 z"
     id="path202"
     clip-path="url(#clipPath261)"
     transform="translate(-402.11169,-1.8878483)" />
  <rect
     style="fill:#5f7857;fill-opacity:1;stroke-width:1.31552"
     id="rect207"
     width="1089.6222"
     height="1117.3871"
     x="0"
     y="0.22166817"
     clip-path="url(#clipPath239)"
     transform="translate(-1087.4006,-1.8878483)" />
</svg>
