<?xml version="1.0" encoding="UTF-8" standalone="no"?>
<svg
   id="Left"
   viewBox="0 0 1861.4184 573.9059"
   version="1.1"
   sodipodi:docname="leftBushDeco.svg"
   inkscape:version="1.2.2 (732a01da63, 2022-12-09)"
   xmlns:inkscape="http://www.inkscape.org/namespaces/inkscape"
   xmlns:sodipodi="http://sodipodi.sourceforge.net/DTD/sodipodi-0.dtd"
   xmlns="http://www.w3.org/2000/svg"
   xmlns:svg="http://www.w3.org/2000/svg">
  <sodipodi:namedview
     id="namedview205"
     pagecolor="#ffffff"
     bordercolor="#000000"
     borderopacity="0.25"
     inkscape:showpageshadow="2"
     inkscape:pageopacity="0.0"
     inkscape:pagecheckerboard="0"
     inkscape:deskcolor="#d1d1d1"
     showgrid="false"
     inkscape:zoom="0.26485179"
     inkscape:cx="1449.8675"
     inkscape:cy="109.4952"
     inkscape:window-width="1536"
     inkscape:window-height="801"
     inkscape:window-x="-8"
     inkscape:window-y="-8"
     inkscape:window-maximized="1"
     inkscape:current-layer="Left" />
  <defs
     id="defs200">
    <style
       id="style198">.cls-1{fill:#5f7857;}</style>
    <clipPath
       clipPathUnits="userSpaceOnUse"
       id="clipPath3183">
      <rect
         style="fill:#576d4f"
         id="rect3185"
         width="1959.5865"
         height="622.98993"
         x="-98.168114"
         y="-49.084057" />
    </clipPath>
    <clipPath
       clipPathUnits="userSpaceOnUse"
       id="clipPath3187">
      <rect
         style="fill:#576d4f"
         id="rect3189"
         width="1959.5865"
         height="622.98993"
         x="-98.168114"
         y="-49.084057" />
    </clipPath>
  </defs>
  <path
     class="cls-1"
     d="m 1805.4389,936.82246 c 52.13,11.04 33.88,82.63004 -37.22,64.63004 27.22,11.07 12.58,42.6 -18.53,32.19 1.6,26.18 -48.4,40.18 -60.4,11.18 1,22 -30.96,45.37 -51.24,13.93 11.99,26.78 -21.74,42.6 -34.11,24.56 -15.77,40.6 -72.72,37.14 -66.59,-13.43 0.54,-1.95 0.87,-3.94 0.98,-5.96 -0.42,2.05 -0.74,4.04 -0.98,5.96 -7.46,27.35 -54.18,46.26 -66.13,7.82 -18.43,26.84 -86.89,13.8 -71.92,-24.3 0.89,-1.7 1.74,-3.47 2.56,-5.32 -1.03,1.83 -1.88,3.6 -2.56,5.32 -24.67,47.67 -71.38,37.68 -70.95,-8.73 -29.86,40.1 -117.33,52.41 -121.81,-6.43 -0.07,-0.85 -0.11,-1.72 -0.14,-2.6 0.23,-3.28 0.36,-6.66 0.39,-10.13 -0.38,3.58 -0.5,6.95 -0.39,10.13 -0.05,0.93 -0.12,1.86 -0.21,2.78 -7.93,93.22 -92.59,106.61 -121.33,25.28 -31.66,61.13 -116.97996,51.52 -112.60996,-19.09 0.3,-4.92 1.04,-10.14 2.26,-15.66 -1.39,3.67 -3.21,7.21 -5.39,10.57 -24.66,38.08 -95.41,53.73 -108.23,-8.1 -35.75,42.57 -150.06,8.98 -117.92,-53.38004 -17.42,27.00004 -38.29,41.53004 -57.68,45.63004 l 0.65,-909.83004 c 10.52,-0.16 60.86,3.11 71.76,11.19 1.49,1.77 3.51,3.49 6.13,5.14 -2,-1.9 -4.05,-3.61 -6.13,-5.14 -17.12,-20.44 38.16,-47.010003 78.01,-26.050003 -44.64,-51.4 81.03,-88.34 114.5,-41.91 -2.75,-15.41 62.29996,-38.8 73.46996,-26.43 40.44,-51.68 153.2,-35.8099998 129.82,31.21 -1.5,2.54 -2.62,5.17 -3.28,7.89 1.29,-2.7 2.39,-5.34 3.28,-7.89 21,-35.41 118.29,-51.7 133.61,2.52 44.61,-34.08 170.7,23.98 113.83,76.180003 44.72,-27.55 112.08,13.77 87.04,63.43 66.75,-55.19 174.45,-16.48 78.14,56.87 44.39,-25.36 71.79,13.39 31.41,57.6 43.58,5.06 30.94,52.1 -2.14,56.22 -1,0.11 -1.73,0.78 -2.63,1.14 -0.24,0.11 -0.48,0.21 -0.73,0.3 46.16,-15.04 71.59,33.52 40.99,53.54 -1.2,0.79 -2.48,1.53 -3.86,2.22 2.98,1.35 5.8,2.79 8.46,4.31 34.67,19.87 42.38,53.86 25.97,75.35 1.64,3.97 2.74,8.16 3.23,12.44 0.67,5.82 -0.1,12.46 -4.62,16.17 -4.55,3.74 -11.14,3.19 -16.98,2.43 4.81,6.25 9.73,12.76 11.49,20.45 1.76,7.68 0.49,15.47 -6.41,19.28 11.68,3.21 20.55,10.29 26.77,19.31 26.58,-25.8 85.9,6.83 64.91,34.85 9.43,-6.28 40.32,14.49 34.88,23.45 43.55,0.69 60.1,55.3 10.53,67.11 -2.01,0.17 -3.99,0.55 -5.92,1.15 2.07,-0.32 4.04,-0.71 5.92,-1.15 28.23,-2.51 62.21,34.73 30.32,59.3 31.58,7.94 43.13,76.72 2.16,75.87 -1.89,-0.24 -3.84,-0.42 -5.84,-0.55 2.06,0.33 4,0.51 5.84,0.55 63.59,7.82 61.11,73.6 -14.43,74.63 z"
     id="path202"
     clip-path="url(#clipPath3187)" />
  <rect
     style="fill:#5f7857;fill-opacity:1;stroke-width:1.31552"
     id="rect207"
     width="1089.6222"
     height="1117.3871"
     x="0"
     y="0.22166817"
     clip-path="url(#clipPath3183)" />
  <path
     class="cls-1"
     d="m 1556.9679,259.33765 c 1.548,-4.74695 3.5183,-9.04473 3.0111,-13.72067 -0.3167,-2.92149 -1.0041,-5.9751 -2.2875,-8.59661 -2.7754,-5.67177 -6.0102,-11.12585 -9.1347,-16.62883 -3.7717,-6.63366 -7.6849,-13.18426 -11.4129,-19.83901 -2.9631,-5.29285 -5.2696,-10.89451 -6.756,-16.78639 -0.2417,-0.96714 -0.049,-2.17792 0.3288,-3.12733 0.7792,-1.93075 2.961,-2.36276 5.1383,-0.74238 2.0179,1.50107 4.0688,3.20004 5.4664,5.2483 2.8883,4.24363 5.6199,8.63285 7.9182,13.21549 3.2761,6.52978 6.2052,13.236 9.0886,19.95563 1.7609,4.1091 3.153,8.37615 4.7165,12.57633 0.1401,0.36583 0.3006,0.74227 0.5391,1.04603 0.1447,0.18181 0.484,0.34804 0.6774,0.29966 0.1836,-0.0536 0.3466,-0.37565 0.4106,-0.61033 1.6533,-6.17285 3.1352,-12.42005 2.7069,-18.83802 -0.1642,-2.54273 -1.3113,-5.09622 -2.3839,-7.48057 -2.52,-5.62207 -6.5038,-10.31683 -10.1572,-15.21637 -3.2403,-4.33972 -6.472,-8.70687 -9.4148,-13.25008 -5.0216,-7.75359 -8.604,-16.17822 -10.5728,-25.21706 -0.3628,-1.6624 -0.1993,-3.51229 0.09,-5.21637 0.3588,-2.08987 2.9043,-2.81116 4.3153,-1.19865 2.1955,2.50361 4.4993,5.00865 6.1782,7.84637 4.7843,8.10553 9.4521,16.29502 13.8089,24.64208 3.0347,5.81997 5.5013,11.93935 8.1816,17.93797 0.7414,1.65104 1.3213,3.37434 2.0322,5.03434 0.2069,0.47911 0.6189,0.86488 0.9382,1.3027 0.3674,-0.39001 0.9442,-0.71688 1.0844,-1.1732 1.0888,-3.56601 2.0052,-7.18118 3.1412,-10.72781 2.0342,-6.31778 -1.5641,-11.00095 -4.4797,-15.87598 -3.5734,-5.98593 -7.1337,-11.98398 -9.4001,-18.61044 -2.1413,-6.25626 -4.4782,-12.4718 -6.0414,-18.8809 -1.7055,-7.00685 -2.1622,-14.23025 -0.7842,-21.42686 0.094,-0.50087 0.2229,-0.99541 0.3916,-1.46836 0.3899,-1.07756 1.0028,-1.90492 2.2862,-1.97393 1.324,-0.0726 2.2714,0.4967 2.9413,1.62063 3.8584,6.53345 6.7848,13.4564 8.5136,20.85498 2.5962,11.12191 5.1157,22.26625 7.7447,33.38685 0.6505,2.75722 1.5577,5.45578 2.4607,8.13897 0.2274,0.66409 0.9231,1.16598 1.3988,1.74067 0.4654,-0.59319 1.2138,-1.12812 1.3515,-1.79129 0.6983,-3.36849 1.6951,-6.76641 1.7287,-10.16426 0.059,-6.5111 -0.117,-13.06106 -0.8082,-19.5265 -1.4531,-13.62436 -0.8825,-27.14439 1.5353,-40.56653 1.0123,-5.611306 2.9364,-11.058096 4.5494,-16.546546 0.3401,-1.16262 1.0242,-2.28488 1.7563,-3.27178 1.7883,-2.42585 3.7185,-2.52668 5.6887,0.34188 1.1852,1.72024 1.717,4.07217 1.9791,6.21248 0.7509,6.07427 0.817,12.191536 -0.1418,18.268756 -1.1382,7.19276 -2.0288,14.43747 -3.5178,21.56697 -2.2128,10.58025 -4.8389,21.08234 -7.3172,31.6075 -0.6093,2.59511 -1.3338,5.16583 -1.9783,7.75459 -0.1204,0.46712 -0.1237,0.96631 0.1887,1.66361 0.6834,-0.75669 1.4085,-1.48411 2.0379,-2.28312 4.2927,-5.4685 8.3068,-11.17921 12.9023,-16.37947 7.991,-9.02727 16.2166,-17.84929 25.9051,-25.16533 4.0095,-3.03546 8.1172,-5.79249 12.9361,-7.31312 0.8366,-0.26188 2.2379,-0.24085 2.7285,0.27133 0.6483,0.68187 1.099,2.07767 0.8743,2.98226 -1.1527,4.62274 -4.0407,8.22628 -7.6239,11.1866 -6.5077,5.36222 -13.1655,10.55253 -19.7703,15.81033 -7.9658,6.3377 -16.2801,12.27934 -23.1842,19.85866 -3.1235,3.42345 -6.6155,6.58126 -8.4363,10.99296 -0.7106,1.71134 -1.3345,3.4637 -1.998,5.19444 l 0.4215,0.47435 c 0.928,-0.48799 1.9447,-0.84414 2.7623,-1.48243 7.8828,-6.13898 15.5756,-12.52952 23.6407,-18.41472 4.2695,-3.11169 9.0968,-5.4818 13.8042,-7.94959 2.6917,-1.4119 5.6309,-2.34826 8.4591,-3.4929 0.3122,-0.12474 0.6699,-0.32095 0.9733,-0.27727 1.0059,0.14526 2.2273,0.11935 2.9099,0.69152 0.3864,0.32682 0.1651,1.89471 -0.2735,2.57967 -1.042,1.60087 -2.3478,3.03829 -3.5989,4.49284 -4.561,5.28978 -10.5966,8.63689 -16.4758,12.12084 -7.2485,4.30886 -14.6774,8.31353 -22.0255,12.45229 -2.8579,1.61006 -5.7544,3.17333 -8.5813,4.83245 -2.9174,1.71884 -4.5841,4.33324 -5.4022,7.60404 -0.6829,2.7412 -1.5707,5.43451 -2.3434,8.15224 -0.1593,0.56154 -0.189,1.16815 -0.2835,1.75222 l 0.4368,0.32866 c 0.5903,-0.42219 1.2315,-0.78453 1.7635,-1.26432 5.0235,-4.56176 9.7744,-9.45875 15.0917,-13.6416 5.6908,-4.46671 11.8784,-8.31511 18.7794,-10.77825 0.9019,-0.32253 1.8496,-0.51731 2.7874,-0.71747 2.0024,-0.42095 3.5582,0.75054 3.1931,2.73427 -0.3104,1.66046 -1.0454,3.3457 -1.9627,4.77717 -2.4173,3.7645 -6.2592,6.01181 -9.7839,8.54811 -9.0546,6.53233 -19.2805,10.96666 -29.0598,16.21673 -0.3936,0.21505 -0.8193,0.40625 -1.2596,0.51872 -1.5266,0.37281 -2.3904,1.30695 -2.8045,2.84003 -1.4488,5.34065 -2.9775,10.66322 -4.4636,15.9899 -0.084,0.30707 -0.022,0.66239 -0.034,1.47139 0.8255,-0.44133 1.5061,-0.64083 1.9507,-1.07844 2.4661,-2.40864 4.8329,-4.92932 7.3109,-7.3249 3.8712,-3.73398 7.7522,-7.46254 11.7425,-11.07365 2.9317,-2.66139 5.8818,-5.3448 9.1095,-7.61964 3.3104,-2.33232 6.9326,-4.22458 10.4865,-6.17984 0.579,-0.31922 1.8534,-0.27762 2.2119,0.12384 0.4457,0.50044 0.562,1.66211 0.3051,2.34361 -1.25,3.35587 -3.5786,6.00656 -6.0483,8.51593 -3.9263,3.99923 -7.6275,8.25636 -11.8583,11.89648 -3.9599,3.40293 -8.5743,6.01787 -12.7502,9.19348 -4.4015,3.34139 -8.6856,6.85598 -12.8729,10.47502 -1.0467,0.90475 -1.5177,2.47108 -2.25,3.74036 l 0.3557,0.477 c 0.6587,-0.35916 1.3704,-0.65085 1.9739,-1.08517 3.9765,-2.89296 7.8313,-5.97441 11.9296,-8.67885 4.5373,-2.99096 9.3136,-5.62011 14.5979,-7.11111 0.7517,-0.21208 2.2387,-0.12482 2.3482,0.19185 0.3046,0.84076 0.3799,2.08918 -0.054,2.81461 -2.3253,3.93683 -5.2267,7.49448 -9.0527,9.99452 -5.0606,3.30212 -10.3392,6.28611 -15.5714,9.31467 -1.6048,0.92719 -3.3399,1.69327 -5.0926,2.315 -3.2747,1.15099 -4.1498,4.11461 -5.3933,6.81258 -0.2028,0.44141 -0.2815,0.93781 -0.5264,1.77357 2.5263,-1.43812 4.8245,-2.63497 6.9932,-4.01809 3.1038,-1.9894 6.6147,-2.7031 10.1294,-3.0359 3.2411,-0.30246 5.3109,2.05534 3.508,5.56495 -1.6884,3.27679 -4.5276,5.20524 -7.68,6.66082 -2.5598,1.18222 -5.2538,2.10484 -7.9563,2.91369 -2.6413,0.79093 -5.3732,1.30116 -8.4331,2.02378 -0.3225,1.64739 -0.8554,3.59726 -1.0595,5.59192 -0.461,4.60267 -0.7062,9.23342 -1.1746,13.83832 -0.1009,0.95957 -0.6198,2.5317 -1.2122,2.66383 -1.5815,0.35566 -3.3036,0.14635 -4.9511,-0.035 -0.2235,-0.0258 -0.4932,-1.20067 -0.4427,-1.82166 0.3255,-4.41348 0.6334,-8.83011 1.167,-13.21326 0.2292,-1.85255 -0.1991,-2.69026 -2.0153,-3.36191 -7.5083,-2.78129 -14.125,-6.91178 -19.9823,-12.50219 -4.5394,-4.32425 -8.719,-8.83706 -12.0141,-14.15717 -2.4505,-3.94017 -4.2045,-8.16752 -5.0887,-12.74125 -0.4619,-2.3973 0.4565,-3.51351 2.8608,-3.2717 0.8139,0.0853 1.7567,0.29882 2.3719,0.78278 4.8929,3.83036 10.0576,7.39834 14.4941,11.71124 6.3549,6.18357 12.1622,12.9346 18.2053,19.4421 0.9681,1.03652 1.9494,2.0609 2.9697,3.04889 0.8375,0.8174 1.6296,0.60179 1.8937,-0.4804 0.4734,-1.98228 0.8571,-3.98804 1.0773,-6.01236 0.054,-0.52249 -0.5272,-1.23218 -0.9824,-1.68004 -5.0888,-4.95207 -9.6084,-10.36997 -13.8899,-16.02373 -3.8197,-5.04177 -8.0076,-9.80956 -11.8839,-14.81811 -5.1885,-6.70823 -9.1488,-14.04224 -10.7588,-22.48038 -0.072,-0.38593 -0.1049,-0.78302 -0.1307,-1.18239 -0.1225,-2.37224 1.3189,-3.51724 3.5386,-2.57359 1.3261,0.5579 2.5962,1.40626 3.6625,2.38079 6.2942,5.77788 11.2811,12.61992 16.2891,19.50562 5.1638,7.10572 9.3154,14.72408 13.3365,22.46376 0.7254,1.39829 1.3735,2.8442 2.1426,4.22139 0.2438,0.43508 0.7634,0.70626 1.3713,1.25048 z"
     id="path239"
     style="fill:#ef98f9;stroke-width:0.796861" />
</svg>
