<?xml version="1.0" encoding="UTF-8" standalone="no"?>
<svg
   id="Right"
   viewBox="0 0 2242.9637 1210.2149"
   version="1.1"
   sodipodi:docname="rightBushDeco.svg"
   inkscape:version="1.2.2 (732a01da63, 2022-12-09)"
   xmlns:inkscape="http://www.inkscape.org/namespaces/inkscape"
   xmlns:sodipodi="http://sodipodi.sourceforge.net/DTD/sodipodi-0.dtd"
   xmlns="http://www.w3.org/2000/svg"
   xmlns:svg="http://www.w3.org/2000/svg">
  <sodipodi:namedview
     id="namedview493"
     pagecolor="#ffffff"
     bordercolor="#000000"
     borderopacity="0.25"
     inkscape:showpageshadow="2"
     inkscape:pageopacity="0.0"
     inkscape:pagecheckerboard="0"
     inkscape:deskcolor="#d1d1d1"
     showgrid="false"
     inkscape:zoom="0.34581349"
     inkscape:cx="1228.9862"
     inkscape:cy="529.18699"
     inkscape:window-width="1536"
     inkscape:window-height="801"
     inkscape:window-x="-8"
     inkscape:window-y="-8"
     inkscape:window-maximized="1"
     inkscape:current-layer="Right" />
  <defs
     id="defs488">
    <style
       id="style486">.cls-1{fill:#5f7857;}</style>
  </defs>
  <path
     class="cls-1"
     d="m 1137.8317,236.43493 c -17.31,-12.17 -43.94,-15.18 -60.62,1.22 66.42,-88.67 -35.37,-157.229995 -80.71002,-90.93 39.16002,-106.379995 -83.01,-79.319995 -79.57,-32.08 -23.63,-58.579995 -80.46,-28.089995 -109.91,11.36 -21.13,-59.439995 -102.06,-75.439995 -113.3,-34.359995 -27.5,-73.91 -94.82,-125.51 -119.39,-64.97 -11.05,-13 -59.13,-17.9600001 -56.04,42.12 -34.6,-49.39 -107.83,12.03 -63.37,66.179995 -36.06,-20.73 -53.36,31.66 -32.51,55.1 -31.58,-23.77 -70.6,18.49 -63.4,53.4 l -4.29,-0.23 c -34.06,-31.93 -68.66,-0.29 -41.42,32.09 -77.44,-69.67 -141.19,16.25 -83.17,64.4 -93.84,-46.54 -134.779997,41.38 -60.89,92.43 -8.06,-4.34 -15.47,-5.37 -22.1,-3.91 -26.58,-3.75 -43.24,17.97 -32.91,46.03 -0.75,3.94 -1.26,7.96 -1.53,11.98 -26.019997,-6 -53.569997,39.03 -39.279997,62.95 -39.91,-5.18 -42.23,45.15 -20.5,63.35 1.65,1.02 3.32,2.15 5.02,3.39 -1.79,-0.94 -3.47,-2.08 -5.02,-3.39 -43.3900003,-26.66 -70.3,23.64 -39.99,54.92 -10.1900003,2.49 -3.0400003,39.01 8.08,41.25 -30.2100003,4.32 -19.7500003,54.29 7.97,67.4 -1.54,7.78 2.93,15.42 13.22,17.6 0.05,0.77 0.16,1.54 0.32,2.3 -63.46,16.85 -49.2800003,83.85 0.78,72.56 -68.22,32.47 -43.02000026,93.28 18.04,73.84 1.68,-0.74 3.52,-1.38 5.52,-1.94 -1.87,0.72 -3.71,1.37 -5.52,1.94 -37.61,16.31 1.6,73.99997 33.62,68.04997 -18.73,35.64 27.699997,55.3 52.309997,41.23 1.52,-1.2 3.15,-2.37 4.89,-3.52 -1.5,1.35 -3.14,2.52 -4.89,3.52 -40.12,31.42 -2.29,74.14 37.57,56.59 -1.2,10.42 35.53,16.4 41.49,6.75 -7.89,36.58 69.77,39.66 75.47,-3.1 6.41,24.13 40.11,12.17 41.8,-7.02 -0.17,-1.38 -0.23,-2.86 -0.17,-4.44 0.26,1.51 0.31,3 0.17,4.44 3.63,29.75 58.66,12.33 55.16,-20.2 3.5,2.9 7.95,1.93 11.71,-0.64 3.75,-2.57 6.2,-6.59 8.54,-10.5 0.83,3.3 1.93,6.95 4.9,8.6 1.39,0.77 2.96,0.96 4.54,0.76 13.35,54.33 77.79,61.04 117.94,-7.52 -29.42,63.69 62.56,82.55 96.44,38.47 10.67,42.18 56.71,50.34 92.89,38.98 10.77,17.19 32.63,21.46 47.72,7.37 2.52,5.74 5.87,10.63 9.86,14.68 6.87,43.91 50.14,48.16 68.49,5.24 1.11,-2.59 2.12,-5.35 3.04,-8.29 0.35,-1.81 0.88,-3.7 1.57,-5.67 -0.48,1.96 -1.01,3.85 -1.57,5.67 -0.5,2.41 -0.7,4.67 -0.65,6.8 0.71,33.34 63.07,32.42 75.7,4.54 18.49,35.74 61.15002,8.96 63.74002,-19.26 -0.1,-1.94 -0.13,-3.96 -0.08,-6.07 0.25,2.02 0.27,4.05 0.08,6.07 2.84,50.83 59.5,44.25 67.91,1.52 7.86,6.95 33.78,-19.75 29.28,-30.15 11.02,11.85 26.07,6.98 37.02,-4.72 z m -968.56002,195.75 c 2.28,1.22 4.6,2.72 6.97,4.49 -2.43,-1.46 -4.75,-2.96 -6.97,-4.49 z"
     id="path490" />
  <rect
     style="fill:#5f7857;stroke-width:2.0318"
     id="rect508"
     width="1636.7205"
     height="850.16931"
     x="606.2431"
     y="0" />
  <rect
     style="fill:#5f7857;stroke-width:2.48699"
     id="rect510"
     width="1416.4066"
     height="647.74799"
     x="824.68762"
     y="562.46692" />
  <path
     class="cls-2"
     d="m 357.95375,337.28324 c -34.03715,18.41607 -66.39506,36.80191 -94.52527,62.57163 -0.96042,0.8809 -2.5196,0.25869 -2.57878,-1.03012 -0.34102,-6.967 -4.80432,-14.326 4.01683,-19.92294 27.91524,-17.74117 50.92054,-40.98083 72.16613,-65.99374 7.13433,-8.38614 16.21054,-20.16879 20.25128,-26.14627 4.05265,-5.97333 8.63722,-15.16592 -4.1735,-4.46815 -12.81073,10.69778 -66.46357,52.97136 -91.64906,91.61952 -0.77708,1.19829 -2.6376,0.75165 -2.79466,-0.67799 -1.03821,-8.87812 -4.47257,-15.62572 3.49667,-22.26645 23.37182,-19.49443 43.20512,-42.28839 57.52073,-69.21688 6.35099,-11.96924 13.42112,-29.00166 16.42702,-37.30135 3.00176,-8.2878 -0.53931,-11.08092 -5.96087,-3.78134 -5.43348,7.29546 -51.99393,67.37388 -71.87854,107.17095 -0.62639,1.26403 -2.46254,1.09285 -2.85985,-0.26012 -4.4047,-15.32178 -3.63689,-16.10946 5.91101,-27.98174 19.22579,-23.92632 35.8841,-49.45288 47.48468,-77.9795 7.82431,-19.23988 13.83212,-38.93783 13.90005,-60.02019 0.003,-1.50733 -1.97049,-2.1269 -2.8242,-0.86181 -29.25431,43.70812 -49.24254,91.86617 -67.39375,142.91902 -0.48036,1.38156 -2.45009,1.36418 -2.91886,-0.0136 -3.99778,-11.61591 -5.46116,-20.92221 1.59677,-31.73788 23.57801,-36.13663 37.53061,-76.38089 46.35055,-118.44981 1.47439,-7.04333 2.49154,-14.19224 3.54442,-21.32872 0.22867,-1.65596 -1.9783,-2.45001 -2.84598,-1.02955 -26.60836,43.54676 -40.89818,91.40329 -53.98401,140.21242 -0.41095,1.56589 -2.63543,1.51334 -2.98204,-0.0623 -1.90962,-8.40682 -3.47026,-16.97265 -1.10735,-24.26774 7.229,-22.25033 18.77094,-43.12122 25.71773,-65.44298 7.72373,-24.74827 10.67939,-50.52692 9.15707,-76.63437 -0.095,-1.60828 -2.27495,-2.01916 -2.94377,-0.55628 -18.76086,40.78851 -30.05942,83.651 -36.54845,128.03887 -0.22402,1.60418 -2.44795,1.81881 -2.97474,0.30068 -3.41658,-9.67837 -5.33873,-18.97064 -1.6927,-30.53204 8.46032,-26.82838 14.26522,-54.62008 19.13653,-82.37593 1.91043,-10.86994 0.59013,-23.23699 0.39576,-33.54384 -0.20212,-10.322885 -3.68266,-9.143435 -6.00298,-0.81896 -2.31619,8.31256 -16.21479,67.29196 -19.98288,101.97279 -0.19499,1.82786 -2.84303,1.84163 -3.06281,0.0164 -0.52142,-4.41317 -0.78396,-8.80308 -1.09049,-13.18158 -1.80857,-25.24578 -2.91035,-50.56622 -5.9171,-75.66792 -0.99826,-8.26349 -5.35961,-16.1077 -8.82621,-24.067975 -0.89864,-2.06127 -3.14136,-3.1748 -5.31349,-2.64845 -0.0839,0.0108 -0.1481,0.042 -0.23197,0.0528 -0.77202,0.18547 -1.26436,0.94877 -1.14673,1.7239 3.71141,24.572405 7.43888,49.137045 11.05443,73.102105 0.2534,1.69008 -2.00981,2.47845 -2.85608,0.99608 -10.63426,-18.6759 -27.36446,-49.22999 -32.13272,-56.44139 -4.77242,-7.19947 -11.90139,-6.04704 -7.05158,3.19517 4.85394,9.2303 20.93802,45.05984 33.19182,66.79524 0.95503,1.70708 -1.48519,3.23489 -2.60901,1.62932 -14.59625,-20.98793 -30.64789,-40.74643 -49.91376,-58.01805 -1.13152,-1.00751 -2.90331,0.0185 -2.55156,1.50245 0.67814,2.77224 1.61723,5.40826 2.71682,7.96659 13.65041,31.27214 33.61437,58.13131 60.49236,78.85059 11.09546,8.55693 13.73282,18.97896 16.13082,32.50834 0.27151,1.52283 -1.61474,2.45562 -2.6567,1.3057 -31.7532,-34.80295 -63.49356,-65.95694 -101.84041,-91.62506 -1.3086,-0.88217 -2.98248,0.59169 -2.23875,1.985 0.0544,0.1124 0.12481,0.21695 0.18748,0.30549 27.34744,36.60853 59.3944,68.41647 98.73467,91.88019 10.42359,6.22741 13.64264,13.90139 14.9457,24.82066 0.16948,1.3939 -1.46097,2.28213 -2.53759,1.34711 -39.28716,-34.09836 -78.88101,-65.12612 -125.08088,-86.3692 -1.45095,-0.66469 -2.82811,0.99244 -1.90783,2.30031 1.83696,2.58776 3.83648,4.93834 5.94472,7.20659 33.51753,36.21737 73.45059,63.19794 118.78754,82.39219 3.16497,1.34072 7.48576,3.35033 8.36478,6.00551 2.61066,7.84959 4.29603,16.01825 6.1497,24.12527 0.32897,1.39596 -1.28335,2.42398 -2.43246,1.54386 -44.25749,-33.66386 -92.67235,-57.86644 -143.596461,-77.65497 -1.503758,-0.58965 -2.779929,1.27619 -1.690854,2.48255 8.859205,9.72846 18.084445,18.90335 28.316115,26.71941 33.73221,25.73236 71.70786,43.06131 112.41269,54.69101 3.80236,1.08174 9.29083,3.45729 10.14659,6.37139 1.71151,5.82819 2.64685,11.85374 3.50972,17.9342 0.34981,2.56464 -2.42436,4.32343 -4.6402,2.97895 -0.0238,-0.008 -0.0477,-0.0166 -0.0714,-0.0248 -25.81691,-15.4777 -51.65865,-30.88393 -77.79392,-45.79148 -17.34292,-9.90144 -35.02854,-19.20117 -52.61632,-28.66711 -1.22365,-0.66574 -2.73456,-0.3901 -3.6727,0.6187 -0.34378,0.37441 -0.60265,0.6582 -0.92623,1.01293 -0.95419,1.01657 -1.07776,2.56222 -0.29522,3.72874 1.9359,2.9559 3.94427,5.85691 6.25917,8.4907 19.28767,22.08512 43.87934,36.70961 70.79079,47.08112 20.70529,7.98673 42.04625,14.29881 63.21692,21.13906 0.97298,0.31162 1.72856,1.09496 1.98705,2.07927 1.26865,4.60622 2.60256,9.40868 4.27164,15.43571 0.34656,1.26858 -0.95559,2.3644 -2.16058,1.79859 -51.32082,-24.59888 -103.17492,-35.95337 -157.182976,-37.35017 -1.642477,-0.0371 -2.205582,2.19678 -0.723546,2.92567 49.639002,24.82846 101.106072,42.70986 159.424142,38.27625 0.94602,-0.0716 1.73731,0.7242 1.66545,1.6604 -0.39707,5.1351 -0.75895,10.01543 -1.10688,14.74042 -0.18147,2.32652 -0.35052,4.6173 -0.51542,6.89616 -0.13857,1.78075 -1.88809,2.93462 -3.6,2.40615 -0.77052,-0.24123 -1.55348,-0.44665 -2.3452,-0.58846 -47.32981,-9.04715 -94.9306,-6.33391 -143.57429,-4.07674 -1.35663,0.0623 -1.97625,1.72917 -0.99132,2.65901 0.29155,0.27493 0.54841,0.45768 0.84253,0.53324 38.71429,10.7507 77.88343,19.00294 118.30108,14.83346 9.31568,-0.95283 18.39291,-4.13787 27.50329,-7.11113 1.72991,-0.55996 3.54444,0.67169 3.60473,2.49486 0.36216,10.59213 -2.09104,20.56583 -5.35566,30.37755 -0.62633,1.87814 2.14768,2.92273 2.86925,1.07777 0.85724,-2.15831 1.63109,-4.3456 2.30965,-6.56603 2.6527,-8.7429 3.89123,-17.91074 5.68126,-26.86014 0.11898,-0.57272 0.56376,-1.04551 1.14368,-1.17762 44.18853,-10.86822 85.74223,-45.6809 98.93618,-69.11459 0.75894,-1.3381 -0.71698,-2.8525 -2.08234,-2.11239 z m -102.5678,18.81823 0.22629,0.0787 c 0,0 0.003,0.1077 0.006,0.13568 -0.0829,-0.0688 -0.15382,-0.13352 -0.23252,-0.21434 z"
     id="path117"
     style="fill:#cb811f;stroke-width:1.26093" />
  <path
     class="cls-1"
     d="m 458.83806,380.46418 c -0.13592,-0.051 -0.25486,-0.10194 -0.39079,-0.16991 h 0.32283 c 0,0 0.051,0.13593 0.068,0.16991 z"
     id="path119"
     style="fill:#5f7857;stroke-width:1.69907" />
  <path
     class="cls-1"
     d="m 458.83806,380.46418 c -0.13592,-0.051 -0.25486,-0.10194 -0.39079,-0.16991 h 0.32283 c 0,0 0.051,0.13593 0.068,0.16991 z"
     id="path121"
     style="fill:#5f7857;stroke-width:1.69907" />
</svg>
