<?xml version="1.0" encoding="UTF-8" standalone="no"?>
<svg
   id="Right"
   viewBox="0 0 2242.9637 1210.2149"
   version="1.1"
   sodipodi:docname="rightBush.svg"
   inkscape:version="1.2.2 (732a01da63, 2022-12-09)"
   xmlns:inkscape="http://www.inkscape.org/namespaces/inkscape"
   xmlns:sodipodi="http://sodipodi.sourceforge.net/DTD/sodipodi-0.dtd"
   xmlns="http://www.w3.org/2000/svg"
   xmlns:svg="http://www.w3.org/2000/svg">
  <sodipodi:namedview
     id="namedview493"
     pagecolor="#ffffff"
     bordercolor="#000000"
     borderopacity="0.25"
     inkscape:showpageshadow="2"
     inkscape:pageopacity="0.0"
     inkscape:pagecheckerboard="0"
     inkscape:deskcolor="#d1d1d1"
     showgrid="false"
     inkscape:zoom="0.34581349"
     inkscape:cx="1228.9862"
     inkscape:cy="526.29527"
     inkscape:window-width="1920"
     inkscape:window-height="1017"
     inkscape:window-x="1912"
     inkscape:window-y="-8"
     inkscape:window-maximized="1"
     inkscape:current-layer="Right" />
  <defs
     id="defs488">
    <style
       id="style486">.cls-1{fill:#5f7857;}</style>
  </defs>
  <path
     class="cls-1"
     d="m 1137.8317,236.43493 c -17.31,-12.17 -43.94,-15.18 -60.62,1.22 66.42,-88.67 -35.37,-157.229995 -80.71002,-90.93 39.16002,-106.379995 -83.01,-79.319995 -79.57,-32.08 -23.63,-58.579995 -80.46,-28.089995 -109.91,11.36 -21.13,-59.439995 -102.06,-75.439995 -113.3,-34.359995 -27.5,-73.91 -94.82,-125.51 -119.39,-64.97 -11.05,-13 -59.13,-17.9600001 -56.04,42.12 -34.6,-49.39 -107.83,12.03 -63.37,66.179995 -36.06,-20.73 -53.36,31.66 -32.51,55.1 -31.58,-23.77 -70.6,18.49 -63.4,53.4 l -4.29,-0.23 c -34.06,-31.93 -68.66,-0.29 -41.42,32.09 -77.44,-69.67 -141.19,16.25 -83.17,64.4 -93.84,-46.54 -134.779997,41.38 -60.89,92.43 -8.06,-4.34 -15.47,-5.37 -22.1,-3.91 -26.58,-3.75 -43.24,17.97 -32.91,46.03 -0.75,3.94 -1.26,7.96 -1.53,11.98 -26.019997,-6 -53.569997,39.03 -39.279997,62.95 -39.91,-5.18 -42.23,45.15 -20.5,63.35 1.65,1.02 3.32,2.15 5.02,3.39 -1.79,-0.94 -3.47,-2.08 -5.02,-3.39 -43.3900003,-26.66 -70.3,23.64 -39.99,54.92 -10.1900003,2.49 -3.0400003,39.01 8.08,41.25 -30.2100003,4.32 -19.7500003,54.29 7.97,67.4 -1.54,7.78 2.93,15.42 13.22,17.6 0.05,0.77 0.16,1.54 0.32,2.3 -63.46,16.85 -49.2800003,83.85 0.78,72.56 -68.22,32.47 -43.02000026,93.28 18.04,73.84 1.68,-0.74 3.52,-1.38 5.52,-1.94 -1.87,0.72 -3.71,1.37 -5.52,1.94 -37.61,16.31 1.6,73.99997 33.62,68.04997 -18.73,35.64 27.699997,55.3 52.309997,41.23 1.52,-1.2 3.15,-2.37 4.89,-3.52 -1.5,1.35 -3.14,2.52 -4.89,3.52 -40.12,31.42 -2.29,74.14 37.57,56.59 -1.2,10.42 35.53,16.4 41.49,6.75 -7.89,36.58 69.77,39.66 75.47,-3.1 6.41,24.13 40.11,12.17 41.8,-7.02 -0.17,-1.38 -0.23,-2.86 -0.17,-4.44 0.26,1.51 0.31,3 0.17,4.44 3.63,29.75 58.66,12.33 55.16,-20.2 3.5,2.9 7.95,1.93 11.71,-0.64 3.75,-2.57 6.2,-6.59 8.54,-10.5 0.83,3.3 1.93,6.95 4.9,8.6 1.39,0.77 2.96,0.96 4.54,0.76 13.35,54.33 77.79,61.04 117.94,-7.52 -29.42,63.69 62.56,82.55 96.44,38.47 10.67,42.18 56.71,50.34 92.89,38.98 10.77,17.19 32.63,21.46 47.72,7.37 2.52,5.74 5.87,10.63 9.86,14.68 6.87,43.91 50.14,48.16 68.49,5.24 1.11,-2.59 2.12,-5.35 3.04,-8.29 0.35,-1.81 0.88,-3.7 1.57,-5.67 -0.48,1.96 -1.01,3.85 -1.57,5.67 -0.5,2.41 -0.7,4.67 -0.65,6.8 0.71,33.34 63.07,32.42 75.7,4.54 18.49,35.74 61.15002,8.96 63.74002,-19.26 -0.1,-1.94 -0.13,-3.96 -0.08,-6.07 0.25,2.02 0.27,4.05 0.08,6.07 2.84,50.83 59.5,44.25 67.91,1.52 7.86,6.95 33.78,-19.75 29.28,-30.15 11.02,11.85 26.07,6.98 37.02,-4.72 z m -968.56002,195.75 c 2.28,1.22 4.6,2.72 6.97,4.49 -2.43,-1.46 -4.75,-2.96 -6.97,-4.49 z"
     id="path490" />
  <rect
     style="fill:#5f7857;stroke-width:2.0318"
     id="rect508"
     width="1636.7205"
     height="850.16931"
     x="606.2431"
     y="0" />
  <rect
     style="fill:#5f7857;stroke-width:2.48699"
     id="rect510"
     width="1416.4066"
     height="647.74799"
     x="824.68762"
     y="562.46692" />
</svg>
