<?xml version="1.0" standalone="no"?>
<!DOCTYPE svg PUBLIC "-//W3C//DTD SVG 20010904//EN"
 "http://www.w3.org/TR/2001/REC-SVG-20010904/DTD/svg10.dtd">
<svg version="1.0" xmlns="http://www.w3.org/2000/svg"
 width="792.000000pt" height="792.000000pt" viewBox="0 0 792.000000 792.000000"
 preserveAspectRatio="xMidYMid meet">
<metadata>
Created by potrace 1.11, written by Peter Selinger 2001-2013
</metadata>
<g transform="translate(0.000000,792.000000) scale(0.100000,-0.100000)"
fill="#000000" stroke="none">
<path d="M3715 7010 c-38 -5 -101 -11 -140 -15 -38 -4 -72 -9 -75 -10 -3 -2
-26 -6 -50 -10 -25 -3 -52 -8 -60 -10 -8 -2 -31 -7 -50 -10 -76 -13 -271 -66
-381 -104 -882 -304 -1584 -1008 -1892 -1896 -35 -100 -99 -341 -113 -425 -4
-25 -8 -47 -9 -50 -1 -3 -5 -32 -9 -65 -5 -33 -10 -69 -12 -80 -18 -94 -25
-511 -11 -650 10 -98 13 -116 38 -274 5 -35 27 -132 48 -215 133 -521 400
-992 776 -1372 261 -264 478 -424 793 -586 287 -148 659 -268 937 -303 28 -4
61 -8 75 -11 145 -25 607 -25 760 0 14 2 48 8 75 12 28 4 55 8 62 10 6 1 31 5
54 8 92 13 417 104 504 141 17 7 71 30 120 50 199 83 406 199 595 335 63 46
117 86 120 89 3 3 32 28 65 56 339 283 633 675 822 1097 50 113 145 378 157
438 2 14 11 52 20 85 8 33 18 76 21 95 3 19 8 42 10 50 2 8 7 35 10 60 3 25 8
52 10 60 5 19 15 103 25 205 8 88 6 495 -3 535 -4 14 -9 49 -12 79 -44 418
-207 879 -445 1258 -152 242 -387 514 -606 702 -277 237 -633 440 -979 560
-80 28 -214 68 -253 76 -9 2 -44 10 -77 18 -33 8 -80 18 -105 22 -47 8 -69 12
-109 20 -13 2 -56 7 -95 11 -39 3 -75 9 -80 11 -14 9 -456 10 -531 3z m208
-134 c20 -8 37 -19 37 -24 0 -17 -25 -20 -51 -6 -36 20 -71 18 -68 -3 2 -10 0
-31 -4 -46 -5 -16 -4 -34 1 -40 6 -7 9 -32 7 -57 -1 -34 -6 -46 -20 -48 -15
-3 -16 2 -10 47 6 47 5 53 -23 83 -17 18 -40 44 -50 58 -11 14 -23 22 -27 19
-6 -6 -6 -16 -4 -64 1 -11 -5 -35 -12 -54 -11 -28 -12 -35 -1 -39 43 -14 107
-110 87 -130 -8 -9 -36 10 -49 34 -6 10 -17 23 -25 28 -46 29 -51 43 -50 145
0 67 4 101 12 103 7 3 48 5 92 7 44 1 81 4 83 6 6 5 35 -2 75 -19z m276 -37
c70 -39 66 -36 51 -54 -11 -13 -18 -11 -59 12 -59 34 -75 48 -67 62 10 15 13
15 75 -20z m-263 -88 c14 -22 39 -45 55 -51 37 -16 37 -29 0 -64 -27 -26 -73
-38 -87 -23 -8 8 -16 156 -9 168 9 14 13 12 41 -30z m-516 -9 c16 1 30 6 30
10 0 14 48 8 53 -6 7 -18 -18 -40 -33 -31 -7 4 -42 7 -80 6 -50 -1 -73 3 -84
15 -36 35 -7 49 46 22 21 -10 51 -17 68 -16z m-281 -1 c9 -6 10 -14 3 -27 -5
-11 -11 -41 -13 -69 -4 -49 -3 -50 23 -47 20 2 28 -2 33 -18 8 -24 4 -30 -18
-34 -8 -1 -23 -8 -32 -16 -26 -22 -43 9 -40 73 2 29 0 68 -4 87 -4 19 -6 41
-4 48 5 14 32 16 52 3z m426 -29 c2 -10 32 -44 65 -77 33 -33 60 -66 60 -73 0
-7 7 -15 15 -18 20 -8 85 -98 85 -117 0 -32 -20 -26 -48 15 -16 24 -40 54 -54
68 -13 14 -36 43 -52 65 -16 22 -34 45 -40 50 -37 34 -75 87 -70 99 7 18 31
10 39 -12z m-595 -43 c15 -18 27 -37 25 -43 -2 -6 6 -30 18 -53 60 -114 69
-135 63 -148 -9 -23 -21 -18 -37 18 -8 17 -34 68 -56 112 -39 76 -62 145 -48
145 3 0 19 -14 35 -31z m1458 -30 c12 -8 22 -17 22 -22 0 -11 61 -86 69 -85
27 3 31 -5 27 -47 -3 -25 0 -47 5 -50 5 -4 9 -15 9 -25 0 -10 14 -28 30 -40
17 -12 30 -28 30 -36 0 -8 7 -14 16 -14 12 0 15 6 10 23 -3 12 -3 57 1 100 l6
77 38 0 c22 0 39 -4 39 -10 0 -5 -4 -10 -9 -10 -18 0 -41 -63 -41 -112 0 -27
9 -76 20 -109 21 -60 18 -96 -4 -68 -27 34 -56 41 -110 28 -28 -6 -59 -16 -68
-20 -23 -12 -34 9 -15 29 9 8 24 16 34 17 41 5 73 18 73 31 0 8 -18 31 -40 51
-22 21 -40 42 -40 46 0 16 -29 37 -49 37 -12 0 -21 6 -21 15 0 8 5 15 10 15
18 0 11 38 -15 77 -59 90 -61 91 -115 86 -40 -4 -50 -2 -50 10 0 9 6 17 13 20
24 8 104 -1 125 -14z m-1530 -57 c11 -26 24 -60 28 -77 4 -16 15 -42 25 -57
37 -52 17 -72 -47 -47 -24 9 -95 63 -156 118 -9 9 -24 22 -33 29 -31 27 -14
47 40 47 38 0 55 5 72 22 30 30 47 21 71 -35z m2030 -13 c4 -36 -27 -49 -47
-20 -7 12 -20 21 -27 21 -17 0 -18 17 -1 24 6 3 26 4 42 3 24 -2 31 -7 33 -28z
m-108 -9 c0 -5 -9 -10 -20 -10 -10 0 -23 -7 -28 -15 -5 -10 -15 -13 -26 -9
-17 7 -16 9 5 25 26 20 69 25 69 9z m300 -9 c7 -14 7 -22 0 -26 -6 -4 -10 -21
-8 -38 2 -23 -1 -32 -12 -32 -11 0 -16 13 -18 44 -5 68 15 95 38 52z m-2485
-21 c88 -53 145 -101 145 -121 0 -18 -4 -20 -32 -13 -18 4 -51 6 -73 5 -49 -2
-98 27 -133 79 -28 41 -25 62 8 70 34 9 40 8 85 -20z m854 -19 c19 -14 30 -16
45 -9 14 6 34 5 61 -4 35 -11 41 -18 50 -55 6 -23 19 -52 31 -65 77 -88 96
-149 47 -156 -23 -3 -33 21 -13 33 15 9 1 31 -28 45 -37 18 -52 14 -89 -26
-29 -33 -32 -34 -42 -16 -7 14 -5 26 9 50 11 18 24 32 30 32 6 0 14 10 19 22
9 26 -22 114 -39 110 -6 -1 -29 -14 -51 -28 -31 -19 -39 -29 -33 -42 4 -9 9
-37 10 -61 3 -38 0 -47 -30 -77 -42 -42 -54 -43 -58 -1 -2 25 -8 33 -26 35
-13 2 -32 12 -43 23 -11 11 -25 16 -35 12 -12 -5 -15 -2 -11 13 4 10 11 40 18
67 14 57 21 63 44 37 22 -25 43 -25 72 -1 18 15 22 26 17 50 -8 37 8 41 45 12z
m-991 -34 c18 -14 15 -27 -10 -36 -29 -11 -58 4 -58 29 0 29 34 33 68 7z m703
-6 c0 -3 2 -33 3 -67 4 -74 9 -84 46 -84 40 0 45 -14 15 -46 -30 -33 -32 -54
-5 -54 12 0 34 -7 50 -15 27 -14 30 -20 30 -64 0 -63 -24 -89 -57 -61 -12 10
-33 37 -46 61 -12 24 -31 57 -42 72 -10 16 -28 56 -39 91 -17 51 -20 71 -12
116 4 30 13 58 19 62 11 7 37 0 38 -11z m1127 -33 c-16 -11 -28 -26 -28 -33 0
-7 -18 -48 -40 -90 -22 -42 -40 -90 -40 -106 0 -43 -23 -35 -42 14 -16 44 -10
77 15 77 26 1 48 29 53 71 10 70 20 87 56 97 46 13 61 -4 26 -30z m-158 1 c0
-11 -17 -31 -40 -47 -46 -31 -57 -60 -40 -102 13 -31 7 -50 -15 -50 -23 0 -23
-24 3 -69 19 -35 23 -54 20 -93 -5 -43 -29 -89 -47 -86 -32 4 -51 -4 -51 -21
0 -24 -13 -33 -35 -25 -11 5 -15 13 -10 28 3 11 8 49 11 84 4 50 2 62 -10 62
-15 0 -28 -28 -31 -65 -1 -11 -9 -21 -19 -23 -14 -3 -16 4 -13 55 l4 58 39 -1
c21 0 54 -4 72 -9 l33 -8 -6 39 c-4 21 -14 54 -23 72 -16 31 -16 35 1 63 10
19 15 40 11 55 -5 19 -2 24 15 25 12 1 25 2 31 3 5 0 23 20 40 43 32 43 60 49
60 12z m1176 10 c4 -8 -33 -28 -91 -49 -11 -4 -32 -13 -48 -20 -21 -10 -30
-11 -39 -2 -6 6 -10 13 -7 15 2 1 20 15 40 29 33 24 60 32 117 35 12 0 25 -3
28 -8z m216 -27 l38 -37 -28 -40 c-15 -22 -31 -42 -37 -44 -22 -9 -76 -71 -70
-81 3 -5 1 -18 -4 -28 -7 -13 -7 -22 1 -30 15 -15 2 -42 -21 -42 -11 0 -23 -4
-26 -10 -3 -5 -17 -10 -30 -10 -13 0 -25 -4 -27 -9 -4 -12 -178 -26 -207 -16
-31 10 -26 31 13 49 39 18 47 36 41 83 -8 67 -39 92 -67 56 -7 -10 -22 -23
-33 -29 -14 -8 -20 -22 -20 -45 0 -28 -7 -38 -43 -62 -23 -16 -52 -42 -64 -58
-22 -30 -67 -40 -69 -16 -6 66 0 82 48 125 26 24 62 56 79 72 83 75 144 73
227 -11 26 -26 47 -54 47 -62 0 -7 9 -22 21 -33 19 -17 21 -18 30 -1 7 12 17
15 36 11 23 -6 24 -4 18 15 -9 30 2 71 20 71 8 0 15 4 15 10 0 5 10 19 23 30
21 20 21 22 4 34 -14 11 -15 15 -4 24 7 6 23 9 35 6 18 -5 21 -2 19 21 -2 29
-5 31 -70 59 -48 21 -39 36 21 36 41 -1 52 -6 84 -38z m-1128 -27 c-4 -10 0
-15 11 -15 25 0 12 -24 -16 -28 -13 -2 -29 -8 -35 -13 -24 -19 -22 20 1 45 26
29 48 35 39 11z m551 -64 c-8 -42 -105 -107 -105 -71 0 6 -7 10 -15 10 -11 0
-15 -10 -13 -37 5 -82 -1 -113 -21 -113 -13 0 -21 10 -26 33 -4 17 -7 37 -5
42 1 6 4 19 6 30 12 61 17 75 35 91 12 11 42 26 67 35 53 18 83 10 77 -20z
m472 15 c-2 -6 -21 -12 -43 -14 -21 -1 -46 -5 -54 -9 -17 -7 -35 -11 -69 -15
-29 -4 -41 19 -14 28 10 3 27 10 38 15 22 10 100 16 128 10 10 -2 16 -9 14
-15z m-2649 -15 c11 -6 55 -18 98 -27 93 -19 112 -28 123 -57 16 -42 -16 -72
-86 -83 -21 -3 -53 -12 -72 -20 -48 -20 -137 -29 -145 -15 -9 14 -81 14 -107
0 -19 -10 -19 -12 -6 -27 9 -9 17 -21 18 -27 12 -53 7 -52 128 -26 l43 9 -5
-38 c-4 -34 0 -44 37 -85 37 -42 43 -45 55 -32 21 26 25 90 7 125 -9 17 -13
37 -10 45 7 20 49 37 91 37 20 0 51 5 69 12 49 18 98 -12 130 -78 13 -27 35
-61 48 -73 26 -25 25 -51 -3 -51 -9 0 -29 16 -45 35 -32 39 -48 39 -98 2 -18
-13 -30 -36 -38 -68 -15 -64 -32 -77 -73 -60 -55 22 -75 24 -107 8 -30 -16
-60 -14 -60 4 0 5 -25 16 -55 24 -54 16 -95 51 -95 82 0 8 -18 50 -40 95 -30
60 -39 89 -36 112 4 23 0 35 -15 47 -18 13 -19 18 -8 42 19 41 46 35 68 -17
11 -24 27 -46 36 -50 26 -10 63 -7 71 5 3 6 22 17 40 25 50 21 40 66 -18 87
-20 7 -23 28 -7 44 12 12 37 10 67 -6z m-378 -97 c0 -16 13 -39 35 -61 54 -54
71 -93 40 -93 -8 0 -15 4 -15 9 0 12 -100 8 -101 -4 -6 -45 37 -97 93 -115 23
-7 47 -13 52 -11 17 4 46 -11 46 -25 0 -14 -15 -18 -60 -14 -38 3 -70 23 -125
79 -27 28 -53 51 -57 51 -15 0 -8 -65 8 -89 9 -13 31 -30 48 -38 17 -8 43 -21
57 -29 14 -7 35 -15 45 -17 38 -6 84 -39 167 -117 47 -44 88 -80 91 -80 4 0
25 -12 48 -26 85 -54 243 -87 291 -62 41 21 160 18 249 -6 77 -21 90 -22 113
-10 33 17 48 9 41 -21 -4 -14 0 -27 9 -35 8 -7 12 -16 9 -21 -7 -12 -51 -11
-59 1 -3 6 -15 10 -25 10 -11 0 -38 10 -60 21 -22 12 -64 23 -93 26 -66 6 -68
6 -152 -7 -151 -24 -155 -24 -230 11 -92 42 -131 39 -189 -14 -52 -48 -131
-209 -139 -282 -9 -88 -48 -141 -66 -92 -6 16 -3 31 10 53 10 17 19 45 19 62
0 16 6 43 13 58 24 56 108 202 122 214 8 7 15 19 15 26 0 8 5 14 10 14 17 0
11 24 -20 81 -47 86 -114 149 -158 149 -27 0 -159 69 -219 115 -29 22 -67 49
-85 60 -27 17 -33 26 -32 52 1 18 9 40 18 48 9 9 16 19 17 23 0 4 2 22 4 40 6
54 21 64 87 59 47 -3 61 -1 74 14 26 28 54 25 54 -7z m1938 -51 c3 -39 -11
-66 -39 -75 -6 -2 -12 -29 -14 -59 -1 -30 -8 -65 -15 -76 -12 -18 -11 -23 3
-38 9 -9 17 -21 17 -26 0 -11 60 -69 71 -69 15 0 15 35 1 58 -19 30 -4 49 26
33 19 -10 20 -8 18 57 -1 37 -1 75 2 84 5 23 29 30 53 17 16 -8 18 -13 9 -24
-17 -21 -20 -69 -5 -98 11 -22 10 -30 -11 -66 -24 -39 -24 -41 -7 -58 10 -10
23 -32 28 -48 8 -22 18 -31 38 -33 20 -3 27 1 27 14 0 9 11 32 25 50 l25 32
-36 43 c-29 35 -34 47 -28 73 9 43 26 66 52 73 19 4 22 10 17 30 -10 40 17 23
45 -30 14 -25 47 -66 73 -90 36 -35 47 -52 47 -75 0 -17 -4 -33 -9 -36 -4 -3
-6 -16 -4 -29 3 -14 -3 -29 -17 -42 -19 -17 -25 -18 -67 -7 -42 12 -48 11 -88
-13 -24 -14 -51 -25 -59 -25 -9 0 -16 -7 -16 -15 0 -11 -7 -14 -25 -9 -21 5
-25 3 -25 -14 0 -12 9 -23 20 -27 18 -6 25 -17 21 -38 -1 -5 7 -11 18 -14 11
-3 23 -14 26 -24 4 -10 14 -19 24 -19 18 0 71 -52 71 -70 0 -5 10 -10 23 -10
28 -1 57 -22 57 -42 0 -23 -60 -49 -83 -36 -16 8 -18 6 -15 -15 4 -33 -18 -57
-52 -57 -22 0 -30 -6 -38 -28 -6 -18 -24 -35 -45 -46 -48 -22 -51 -29 -22 -54
15 -13 22 -28 19 -37 -4 -9 1 -24 10 -34 9 -10 13 -20 10 -24 -3 -3 -3 -15 1
-26 l6 -20 37 20 c20 12 47 30 60 42 24 23 24 23 22 -48 -2 -66 -49 -154 -109
-204 -28 -24 -51 -54 -60 -77 -7 -22 -23 -55 -36 -74 -12 -19 -41 -70 -65
-112 -26 -46 -50 -78 -59 -78 -41 0 -110 -60 -159 -136 -63 -101 -90 -16 -36
114 18 42 18 111 -1 188 -14 59 -30 91 -102 199 -29 43 -33 57 -33 115 0 70
13 98 37 78 7 -6 16 -8 20 -5 7 7 -17 69 -30 78 -5 4 -6 17 -2 29 6 20 9 21
17 7 5 -10 15 -17 22 -17 8 0 19 -7 26 -15 7 -8 21 -15 31 -15 14 0 19 7 19
30 0 17 -4 30 -10 30 -16 0 -12 22 11 64 13 25 17 41 10 45 -9 6 -3 60 23 206
3 17 18 40 36 54 l31 24 -28 29 c-26 27 -27 30 -10 39 14 8 16 14 6 25 -15 18
-43 18 -59 -1 -18 -22 -28 -18 -32 13 -2 22 -7 27 -30 25 -19 -1 -29 4 -33 18
-13 40 3 66 47 82 54 18 79 14 147 -24 76 -43 90 -63 91 -126 0 -44 -5 -58
-34 -96 -31 -40 -41 -65 -37 -90 0 -4 12 0 26 9 28 18 28 19 26 -51 -3 -91
-13 -120 -45 -123 -26 -3 -28 -6 -21 -35 4 -18 7 -43 7 -57 -1 -18 8 -30 31
-43 l31 -18 38 43 c39 45 41 65 11 99 -12 15 -11 20 11 44 29 31 33 71 12 100
-8 11 -11 25 -8 33 3 8 -1 18 -8 22 -21 13 -19 48 3 67 18 17 20 17 46 -14 15
-18 28 -44 29 -60 1 -15 7 -32 12 -37 6 -6 10 -23 10 -38 0 -18 5 -28 15 -28
9 0 12 -6 9 -15 -4 -9 0 -15 10 -15 9 0 16 -5 16 -10 0 -6 8 -6 23 1 12 7 29
15 37 19 34 16 0 83 -47 95 -19 4 -23 9 -14 18 18 18 13 34 -19 67 -36 37 -63
77 -67 99 -1 9 -7 17 -12 19 -6 2 -11 10 -11 18 0 19 -48 106 -64 116 -6 4
-17 6 -25 3 -8 -3 -11 0 -8 9 3 8 -2 17 -11 20 -9 3 -32 15 -49 26 -18 11 -33
16 -33 12 0 -4 -5 0 -10 8 -15 24 -12 49 10 72 11 12 20 30 20 40 0 10 5 18
10 18 6 0 10 6 10 13 0 7 10 24 23 37 12 14 22 27 23 30 3 23 18 69 27 88 16
33 32 22 35 -25z m-663 -3 c0 -8 -9 -16 -20 -18 -11 -2 -28 -13 -38 -23 -9
-10 -24 -16 -32 -13 -8 4 -26 -1 -40 -10 -14 -9 -46 -19 -72 -22 -26 -3 -50
-7 -54 -10 -11 -6 -28 21 -21 33 8 12 65 29 131 37 25 3 61 15 80 25 41 22 66
23 66 1z m1075 -71 c0 -9 11 -21 25 -27 28 -13 59 -72 45 -86 -13 -13 -25 -1
-69 73 -44 74 -58 128 -21 81 11 -14 20 -32 20 -41z m970 38 c0 -26 55 -97 76
-97 8 0 14 5 14 11 0 5 5 7 10 4 7 -4 6 -13 -1 -27 -6 -12 -13 -50 -14 -86 -3
-51 1 -76 21 -120 29 -66 30 -76 3 -113 -25 -36 -39 -30 -38 19 2 59 -3 106
-12 117 -4 6 -10 31 -13 55 -10 85 -23 118 -66 161 -42 43 -42 43 -21 57 11 8
21 21 21 28 0 8 5 14 10 14 6 0 10 -10 10 -23z m-3731 -72 c9 -8 56 -45 106
-81 49 -37 109 -83 133 -103 24 -20 47 -37 52 -37 23 -3 24 -5 7 -19 -11 -7
-24 -12 -31 -9 -16 6 -46 -27 -51 -58 -13 -69 -62 -136 -80 -108 -7 11 31 90
44 90 13 0 1 92 -15 117 -15 24 -67 43 -96 35 -10 -2 -39 -26 -66 -52 -54 -53
-100 -71 -163 -65 -29 3 -41 0 -45 -10 -4 -8 -10 -12 -15 -9 -5 2 -18 0 -30
-7 -28 -14 -45 8 -24 31 9 10 11 20 5 30 -24 37 5 54 43 25 11 -7 25 -11 32
-9 7 3 16 1 20 -5 8 -15 71 -14 98 1 12 6 40 31 61 55 22 23 45 43 52 43 7 0
20 7 29 16 15 15 15 18 -2 33 -29 26 -65 41 -106 45 -51 5 -55 11 -18 31 17 8
31 20 31 25 0 14 11 12 29 -5z m3521 5 c10 -6 15 -28 16 -67 1 -32 7 -68 14
-79 9 -15 9 -29 1 -62 -7 -23 -15 -42 -19 -43 -4 0 -27 -3 -50 -6 -38 -4 -48
-1 -72 22 -25 23 -31 26 -42 14 -8 -8 -17 -22 -21 -31 -3 -10 -11 -18 -16 -18
-14 0 -23 33 -10 40 6 4 11 23 12 41 2 31 0 34 -28 34 -25 0 -30 3 -27 23 3
17 -2 22 -18 22 -11 0 -23 -7 -26 -15 -7 -16 -64 -21 -64 -5 0 10 -89 12 -105
1 -9 -5 -13 -7 -33 -10 -18 -3 -54 -123 -53 -176 1 -16 -4 -37 -9 -45 -17 -26
-29 7 -29 80 0 105 8 135 45 178 37 44 58 50 204 54 89 3 149 -27 184 -92 25
-45 51 -66 91 -72 18 -3 20 3 20 47 0 68 -2 72 -40 85 -68 22 -69 52 -2 77 40
14 58 15 77 3z m-2230 -78 c10 -11 24 -22 29 -23 6 -2 13 -19 17 -36 9 -47
-13 -43 -62 10 -57 62 -66 75 -60 86 8 12 50 -9 76 -37z m575 -144 c2 -29 11
-71 20 -92 12 -27 14 -50 9 -75 -4 -20 -7 -39 -6 -44 1 -4 -10 -13 -24 -19
-32 -15 -64 -80 -58 -117 15 -88 29 -139 50 -181 13 -26 24 -53 24 -59 0 -7
11 -33 25 -59 30 -56 31 -77 7 -130 -13 -30 -22 -38 -32 -32 -11 7 -11 16 -2
48 22 72 -12 121 -83 122 -22 0 -52 6 -66 14 -14 7 -36 16 -50 19 -39 11 -98
69 -105 105 -4 17 -4 32 -1 32 2 0 27 -22 53 -48 55 -54 103 -87 112 -77 3 3
0 20 -7 38 -7 18 -14 43 -17 56 -8 38 -103 222 -131 253 -14 16 -14 18 -1 23
19 8 117 -86 142 -134 22 -42 36 -26 29 35 -4 40 -1 46 39 86 l42 42 1 116 c0
103 8 150 22 136 3 -2 6 -28 8 -58z m2151 5 c5 -17 1 -31 -13 -44 -16 -17 -23
-18 -51 -8 -40 14 -40 23 -1 59 34 33 56 30 65 -7z m-713 -106 c3 -7 2 -26 0
-42 -4 -20 -1 -32 12 -41 10 -8 15 -20 11 -29 -5 -15 -8 -15 -28 -1 -12 9 -35
16 -50 16 -37 0 -43 16 -13 36 18 12 24 22 20 35 -4 10 -3 23 0 29 9 14 42 12
48 -3z m-3609 -46 c3 -5 -1 -12 -10 -15 -27 -10 -44 -7 -44 9 0 16 45 21 54 6z
m4477 -3 c1 -7 1 -17 0 -21 -10 -60 -9 -78 5 -84 8 -3 23 2 34 12 10 9 23 14
28 11 6 -3 12 1 16 9 3 8 12 15 21 15 20 0 20 -46 -1 -54 -8 -3 -13 -10 -9
-15 6 -10 -11 -24 -32 -27 -7 -1 -15 2 -19 7 -9 15 -83 10 -117 -8 -18 -9 -41
-18 -52 -20 -11 -2 -25 -10 -31 -18 -6 -8 -16 -15 -22 -15 -6 0 -18 -13 -26
-29 -18 -35 -66 -56 -103 -46 -16 4 -39 9 -53 11 -40 7 -78 25 -83 39 -3 7 8
32 24 56 17 24 34 54 39 67 11 27 37 28 70 3 16 -13 30 -16 40 -11 27 14 64
13 102 -4 21 -9 43 -16 51 -16 24 0 56 39 68 83 6 23 13 48 15 55 2 6 10 12
19 12 8 0 16 -6 16 -12z m-408 -39 c12 -7 24 -13 26 -15 2 -2 -9 -20 -25 -41
-16 -21 -29 -41 -29 -44 0 -4 -12 -19 -27 -34 -50 -49 -59 -6 -10 49 23 28 28
51 12 61 -13 8 -1 35 17 35 8 0 24 -5 36 -11z m-3413 -11 c0 -5 6 -8 14 -8 7
0 25 -12 40 -27 25 -25 26 -29 23 -127 -2 -73 -8 -112 -21 -139 -14 -29 -16
-41 -7 -50 16 -16 14 -52 -4 -67 -18 -15 -80 -17 -180 -6 -56 7 -78 5 -110 -9
-39 -16 -120 -29 -180 -28 -19 1 -35 9 -45 23 -8 12 -26 33 -39 46 -60 60 -68
80 -70 167 0 52 4 88 12 98 15 19 137 35 137 18 0 -7 10 -20 21 -30 34 -29 18
-52 -31 -45 -44 6 -63 -12 -43 -42 6 -11 6 -26 -1 -46 -8 -22 -8 -30 2 -33 6
-3 12 -12 12 -22 0 -23 23 -54 44 -57 9 -1 25 9 35 22 12 15 25 22 35 18 11
-4 16 0 16 14 0 11 -4 22 -9 24 -15 5 -22 51 -12 68 8 12 13 12 23 2 17 -17
38 -15 38 3 0 8 7 15 15 15 8 0 26 21 39 48 32 63 82 110 98 94 19 -19 19 -84
1 -104 -14 -16 -14 -18 3 -24 32 -12 84 -54 84 -70 0 -26 25 -15 39 19 8 17
18 35 23 38 11 7 -18 65 -40 81 -25 19 -48 58 -56 96 -6 27 -4 33 13 40 26 9
81 9 81 0z m2812 1 c17 -9 18 -13 7 -20 -22 -14 -69 -11 -69 4 0 28 26 35 62
16z m-240 -76 c37 -64 63 -75 111 -50 33 17 99 17 104 0 3 -7 -1 -13 -7 -13
-14 0 -101 -58 -117 -78 -35 -43 9 -102 48 -66 14 13 39 19 87 20 62 2 71 0
120 -33 51 -34 54 -34 73 -17 10 9 19 28 19 41 0 33 23 29 65 -12 l35 -35 37
18 c43 22 73 20 135 -7 53 -23 96 -67 104 -107 5 -26 1 -35 -21 -53 -28 -21
-28 -21 -59 -2 -28 18 -59 16 -57 -3 4 -26 -2 -33 -31 -33 -103 -3 -138 -34
-121 -111 17 -78 16 -132 -2 -132 -10 0 -15 9 -15 28 0 15 -4 32 -9 38 -4 5
-16 50 -26 99 -31 154 -101 217 -265 240 -92 13 -113 17 -148 29 -52 17 -74
11 -125 -35 -25 -21 -55 -39 -66 -39 -26 0 -26 5 -2 39 22 30 45 169 31 186
-27 33 -12 124 22 138 33 13 47 4 80 -50z m743 37 c3 -5 -6 -22 -20 -36 -35
-35 -55 -18 -23 19 25 28 34 32 43 17z m-355 -87 c84 -5 137 -24 124 -44 -5
-9 -37 -7 -114 6 -8 2 -38 6 -65 9 -28 4 -57 11 -64 16 -19 11 -3 33 18 25 9
-4 54 -9 101 -12z m-2094 -11 c5 -5 25 -15 44 -22 84 -32 250 -159 250 -192 0
-6 -22 -33 -50 -61 -27 -28 -50 -52 -50 -54 0 -2 12 -15 26 -28 l26 -24 -20
-21 c-48 -51 -22 -93 63 -103 67 -8 90 -14 113 -26 23 -12 32 -5 32 26 0 20 5
23 34 23 18 0 39 6 46 14 6 8 18 12 26 9 11 -4 14 -24 13 -82 -1 -67 3 -87 31
-152 33 -74 34 -80 41 -269 2 -51 -13 -92 -64 -171 -49 -77 -67 -124 -67 -178
0 -40 -8 -59 -51 -125 -32 -49 -56 -99 -65 -135 -7 -32 -28 -82 -46 -111 -31
-51 -33 -58 -35 -158 -1 -81 -7 -116 -23 -158 -19 -47 -22 -73 -23 -206 0 -84
3 -166 7 -183 51 -234 24 -322 -109 -359 -19 -6 -20 -1 -20 130 0 96 -4 139
-12 146 -19 15 -16 79 6 124 11 22 19 63 20 96 0 32 1 61 2 65 10 61 -20 89
-120 115 -74 19 -95 20 -174 12 -60 -6 -97 -6 -111 1 -21 10 -53 65 -62 107
-2 12 -11 55 -18 93 -8 39 -19 83 -26 99 -7 20 -8 32 0 40 15 15 12 30 -3 17
-11 -8 -18 -6 -32 9 -10 11 -24 20 -31 20 -7 0 -11 8 -9 20 6 31 -3 24 -25
-20 -22 -43 -40 -45 -40 -4 0 28 -15 32 -29 7 -6 -11 -5 -26 1 -42 7 -20 6
-28 -6 -37 -12 -8 -16 -29 -16 -73 0 -34 -4 -70 -10 -80 -12 -23 3 -79 26 -95
15 -12 15 -15 -1 -52 -9 -21 -21 -47 -26 -56 -5 -10 -9 -47 -9 -82 l0 -64 -61
-46 c-34 -26 -74 -54 -89 -62 -26 -16 -28 -22 -33 -107 -5 -96 8 -141 52 -181
16 -15 19 -15 35 3 26 29 17 65 -16 69 -19 2 -25 7 -21 18 3 9 6 41 7 72 l1
56 110 38 c82 28 115 35 130 28 11 -5 28 -10 39 -12 24 -4 54 -81 62 -161 10
-102 10 -111 3 -142 -4 -16 -10 -46 -13 -66 -4 -21 -15 -48 -26 -62 l-20 -25
-92 35 c-185 71 -188 72 -278 68 -70 -2 -110 -11 -225 -50 -159 -54 -222 -60
-301 -30 -51 19 -94 21 -229 10 -79 -7 -81 -6 -92 18 -11 23 -15 24 -83 21
-76 -3 -97 10 -66 41 26 26 -17 96 -68 109 -26 6 -28 10 -23 41 6 38 -10 59
-37 49 -11 -4 -17 0 -18 12 -1 11 -2 26 -4 34 -1 8 -2 20 -3 27 -1 7 -13 18
-28 25 -16 7 -35 27 -43 43 -20 41 -34 42 -40 4 -5 -31 -6 -32 -23 -15 -9 10
-17 30 -17 46 0 15 -11 52 -25 83 -36 77 -51 173 -50 304 1 105 3 113 29 148
21 28 27 44 23 68 -4 27 1 37 35 69 22 20 37 42 33 47 -10 17 31 13 46 -5 11
-14 15 -13 31 8 9 13 18 28 18 35 0 7 8 17 18 23 15 9 12 15 -29 53 -37 33
-47 49 -47 74 -1 45 24 51 32 8 5 -25 18 -41 49 -62 75 -51 83 -92 32 -168
-28 -41 -28 -64 3 -103 17 -22 19 -22 47 -8 17 9 40 16 52 16 26 0 35 13 38
52 3 35 20 56 59 72 36 15 101 11 128 -9 11 -7 29 -10 41 -8 29 7 77 52 77 72
0 9 9 2 21 -16 12 -18 25 -34 30 -34 5 -1 15 -2 22 -3 6 -1 20 2 31 7 12 6 34
5 62 -3 77 -22 125 11 90 62 -18 26 -21 64 -5 73 6 4 17 -2 25 -14 38 -53 74
-2 49 69 -19 53 3 103 56 124 53 21 53 21 75 -19 10 -19 23 -35 29 -35 5 0 20
18 33 40 12 22 29 41 37 41 70 6 129 2 132 -8 2 -6 -13 -30 -33 -53 -31 -34
-35 -43 -23 -51 8 -5 27 -7 43 -5 21 4 34 -1 46 -17 15 -18 20 -19 34 -8 9 7
16 20 16 27 0 14 57 34 77 27 18 -7 25 -34 12 -49 -13 -16 -2 -38 44 -83 41
-38 57 -34 57 15 0 27 4 34 19 34 21 0 35 25 24 43 -4 7 -15 18 -25 25 -39 28
-11 100 49 123 17 6 32 5 54 -7 41 -21 53 -57 33 -96 -18 -35 -14 -78 11 -132
20 -42 32 -45 45 -13 5 12 19 34 31 49 15 18 19 32 14 45 -4 10 -9 30 -11 46
-4 29 -1 30 61 29 36 -1 54 13 49 36 -3 11 6 23 26 34 35 20 39 38 10 45 -11
3 -20 11 -20 18 0 33 -101 23 -114 -10 -9 -24 -72 -19 -90 7 -31 44 -21 81 35
129 28 24 58 48 67 53 54 31 72 92 47 165 -9 28 -14 59 -12 68 3 10 8 30 11
45 5 21 15 30 46 39 22 7 47 20 55 29 15 16 13 19 -21 37 -57 29 -56 46 0 42
38 -3 47 -1 52 14 10 30 29 13 29 -27 0 -34 8 -45 74 -106 76 -70 85 -97 30
-86 -34 7 -49 -14 -49 -68 0 -19 -5 -38 -11 -42 -7 -4 -8 -9 0 -17 7 -7 14 -7
24 1 7 7 31 14 52 17 21 2 43 9 49 15 5 5 14 10 18 10 12 0 10 -78 -3 -85 -13
-9 -7 -131 8 -146 8 -8 15 -4 27 12 9 13 16 29 16 35 0 7 12 21 27 32 24 18
25 21 11 40 -17 25 -12 78 8 86 7 3 27 -12 45 -35 22 -28 34 -37 39 -28 10 15
63 19 72 5 5 -8 11 -7 20 2 9 9 6 19 -18 44 -16 18 -31 47 -33 63 -2 17 -5 32
-6 34 -2 2 -35 4 -72 5 -63 1 -68 3 -71 24 -3 22 -2 23 47 16 61 -8 102 1 95
20 -3 7 -42 24 -87 36 -104 29 -148 51 -203 102 -36 34 -42 43 -33 59 6 13 7
31 0 53 -11 42 7 148 34 193 10 17 29 37 42 44 28 15 53 62 43 79 -13 22 -76
-10 -130 -66 -52 -53 -74 -59 -85 -24 -3 10 -21 38 -40 61 -25 31 -31 47 -24
56 8 9 22 6 60 -14 30 -17 52 -23 58 -17 17 17 19 104 4 120 -8 8 -18 14 -23
14 -13 0 -60 45 -60 58 0 9 11 15 41 21 3 0 9 -3 15 -7z m-1631 -39 c19 -20
35 -41 35 -45 0 -18 -37 -6 -68 22 -27 25 -30 33 -20 45 17 19 13 20 53 -22z
m4525 -94 c0 -9 7 -29 15 -45 14 -27 13 -28 -21 -52 -30 -20 -35 -28 -29 -50
3 -15 14 -38 23 -51 9 -13 22 -30 27 -38 7 -10 5 -18 -9 -28 -15 -12 -17 -17
-7 -29 8 -9 9 -16 2 -21 -6 -3 -10 -25 -9 -48 2 -84 1 -88 -29 -81 -43 10 -45
13 -21 46 17 24 21 45 21 95 0 35 -5 69 -11 75 -7 7 -12 22 -12 35 0 13 -4 23
-10 23 -5 0 -10 9 -10 20 0 11 -4 20 -10 20 -5 0 -10 6 -10 14 0 7 -7 19 -15
26 -22 18 -18 44 7 55 13 6 25 19 27 30 2 11 7 30 12 43 l9 23 30 -23 c16 -12
30 -29 30 -39z m-4670 8 c8 -7 14 -21 14 -32 -1 -11 -2 -26 -3 -32 -2 -22 -28
-14 -35 10 -8 31 -7 67 2 67 4 0 14 -6 22 -13z m285 -37 c0 -32 5 -52 13 -55
7 -3 11 -9 8 -14 -8 -13 131 -131 155 -131 21 0 28 -38 7 -44 -32 -9 -117 -26
-153 -31 -22 -3 -48 -8 -58 -11 -18 -6 -51 -70 -42 -84 3 -4 -1 -13 -9 -19 -7
-6 -19 -38 -26 -71 -7 -34 -16 -62 -20 -65 -3 -2 -19 3 -34 11 -40 20 -54 18
-113 -16 -67 -38 -135 -108 -131 -135 4 -26 44 -27 80 -2 19 14 34 18 55 12
15 -3 39 -8 53 -9 31 -3 120 -45 120 -57 0 -4 -8 -13 -18 -18 -12 -7 -31 -3
-67 14 -53 24 -81 21 -117 -12 -32 -28 -35 -113 -4 -113 6 0 20 14 29 30 10
17 23 30 29 30 16 0 108 -44 108 -52 0 -22 -46 -79 -68 -85 -14 -3 -37 -12
-51 -19 -57 -30 -88 -12 -89 54 0 19 -7 44 -16 56 -8 13 -22 49 -31 80 -9 31
-20 56 -25 56 -5 0 -19 -10 -31 -22 l-22 -23 8 25 c4 14 8 36 9 50 1 23 -2 25
-49 26 -77 1 -85 3 -79 18 7 18 26 26 84 37 25 5 52 11 60 13 8 3 20 5 26 5 6
1 24 11 39 23 23 18 25 22 11 30 -9 5 -25 6 -36 3 -16 -5 -20 -2 -20 14 0 12
-7 21 -15 21 -17 0 -19 9 -6 29 7 11 14 10 42 -5 19 -11 36 -23 38 -27 2 -5
14 -12 27 -17 18 -7 33 -4 61 12 21 12 41 27 45 33 4 5 8 7 8 3 0 -4 12 -3 28
3 20 7 34 25 56 72 15 34 33 70 38 81 15 29 -26 63 -91 76 -30 5 -59 14 -65
19 -6 5 -21 7 -33 5 -13 -2 -23 0 -23 5 0 5 -20 6 -44 4 -49 -6 -62 5 -41 33
10 14 25 19 59 18 25 0 46 3 46 8 0 14 20 9 41 -11 47 -44 267 -93 311 -70 20
11 19 12 -17 47 -20 20 -52 67 -71 105 -32 66 -33 71 -18 88 29 32 40 23 39
-31z m4525 -8 c0 -10 12 -29 27 -42 17 -15 23 -25 15 -28 -7 -2 -12 -10 -12
-18 0 -36 -49 3 -50 39 0 10 -7 25 -15 34 -18 18 -11 33 16 33 12 0 19 -7 19
-18z m-3269 -34 c17 -13 33 -37 40 -60 5 -21 14 -36 19 -33 13 8 33 -44 27
-67 -6 -22 2 -28 28 -18 23 8 80 -30 88 -59 6 -23 -25 -74 -58 -95 -21 -14
-24 -14 -29 0 -4 9 5 29 19 46 20 24 23 33 14 44 -16 19 -23 18 -49 -9 -15
-16 -31 -22 -46 -19 -13 2 -21 8 -18 13 9 15 -16 49 -36 49 -11 0 -20 3 -20 8
0 4 -12 20 -26 35 -23 26 -25 31 -14 58 8 18 10 46 6 71 -5 29 -3 44 6 50 17
10 15 11 49 -14z m-218 -24 c23 -24 34 -44 31 -57 -2 -12 3 -31 11 -44 9 -13
13 -23 10 -23 -3 0 1 -13 10 -30 9 -16 13 -30 9 -30 -3 0 6 -14 20 -31 l26
-31 -38 -36 c-51 -49 -69 -78 -81 -131 -12 -54 -6 -68 19 -46 10 9 23 14 28
11 5 -3 19 6 31 20 17 19 26 23 34 15 20 -20 27 -11 26 32 -2 43 5 67 19 67
11 0 32 -76 32 -117 0 -32 -6 -42 -33 -60 -18 -13 -37 -23 -41 -23 -5 0 -25
-13 -45 -29 -20 -15 -46 -31 -57 -35 -40 -12 -56 -41 -58 -105 -1 -34 0 -61 2
-61 2 0 16 8 30 19 15 10 37 21 49 25 22 7 35 33 38 74 1 27 20 42 55 42 19 0
31 -10 48 -41 31 -53 23 -93 -24 -121 -19 -11 -34 -24 -34 -28 0 -5 -22 -37
-50 -71 -33 -41 -50 -72 -50 -90 0 -27 -48 -89 -69 -89 -5 0 -11 -6 -14 -14
-3 -8 -15 -12 -30 -9 -13 3 -30 -1 -38 -9 -9 -8 -37 -13 -74 -13 -53 0 -60 3
-60 20 0 16 7 20 32 20 56 0 59 18 9 56 -25 19 -46 39 -46 45 0 15 75 23 96
11 16 -9 64 16 64 34 0 6 -4 8 -9 5 -10 -7 -56 37 -79 76 -17 29 -42 38 -42
14 0 -17 -33 -31 -38 -17 -2 6 -14 8 -27 5 -37 -9 -42 27 -11 86 34 64 35 94
4 85 -13 -4 -32 -16 -44 -26 -26 -25 -38 -24 -57 4 l-16 22 -24 -27 c-13 -16
-27 -28 -31 -28 -16 0 -22 45 -9 69 7 14 13 36 13 48 0 31 58 93 133 141 78
51 108 59 132 36 29 -30 67 -46 79 -34 13 13 53 13 61 0 10 -16 25 -2 18 16
-3 9 -34 29 -68 44 -34 15 -69 37 -77 49 -8 11 -26 25 -41 30 -18 7 -25 15
-21 26 3 8 9 15 13 15 3 0 19 12 34 26 22 21 37 25 75 24 72 -3 82 -1 82 13 0
7 -8 22 -17 33 -10 10 -19 28 -21 39 -2 11 -12 27 -23 35 -25 19 -16 74 15 95
35 25 71 18 109 -21z m3147 -29 c7 -8 19 -15 27 -15 26 0 31 -41 17 -132 -6
-34 -10 -38 -61 -54 -40 -13 -60 -15 -72 -7 -28 18 -35 159 -7 150 6 -2 11
-19 12 -37 0 -19 5 -35 11 -37 21 -7 41 40 38 87 -4 62 8 77 35 45z m-688 -71
c23 -12 90 -98 77 -99 -2 -1 3 -12 12 -26 9 -13 20 -43 23 -66 7 -39 6 -41
-23 -51 -38 -13 -40 -37 -6 -64 14 -11 23 -23 20 -28 -3 -4 9 -13 26 -19 29
-10 31 -14 26 -45 -8 -47 6 -100 38 -146 31 -45 27 -77 -11 -86 -13 -3 -24 -9
-25 -13 -3 -27 -9 -43 -23 -57 -9 -8 -16 -25 -16 -37 0 -20 5 -23 53 -24 51
-1 54 0 72 34 14 25 19 53 18 99 -1 48 3 69 17 86 l18 23 24 -21 c12 -11 43
-27 68 -34 25 -7 52 -19 60 -26 23 -18 58 -26 65 -14 10 16 50 12 69 -9 14
-15 14 -20 2 -30 -11 -9 -15 -8 -20 4 -7 20 -32 19 -64 -4 -15 -10 -40 -21
-55 -25 -24 -6 -27 -9 -16 -22 18 -21 21 -77 6 -99 -16 -21 -37 -12 -37 16 0
32 -19 59 -40 59 -11 0 -21 -6 -21 -12 -6 -67 -5 -87 9 -110 9 -16 19 -28 23
-28 12 0 26 -46 22 -75 -6 -44 -31 -73 -114 -132 -93 -67 -145 -92 -186 -93
-55 0 -91 58 -78 128 7 40 -33 99 -92 138 -31 19 -43 34 -43 51 0 13 -10 37
-22 53 -17 23 -19 33 -10 42 7 7 12 29 12 49 0 21 4 49 10 64 11 30 -16 134
-38 143 -18 6 -35 -19 -22 -32 15 -15 12 -46 -3 -46 -7 0 -21 16 -30 35 -9 19
-25 36 -34 37 -10 1 -26 2 -35 2 -33 3 -23 21 12 24 19 1 52 7 73 14 35 11 39
10 66 -16 29 -28 41 -73 42 -153 0 -18 3 -33 7 -34 4 0 24 -2 45 -4 21 -1 43
-7 49 -13 12 -12 48 -4 48 11 0 6 -10 21 -22 34 l-22 23 35 29 34 29 -29 82
-28 82 21 19 c31 29 26 53 -21 93 -41 33 -42 36 -31 65 10 26 8 32 -11 45 -21
15 -21 15 24 54 32 29 41 42 30 45 -8 3 -35 12 -60 21 -25 9 -55 16 -67 16
-25 0 -46 31 -37 54 5 13 16 15 57 11 28 -4 63 -13 79 -21z m1234 1 c-2 -7 0
-17 6 -23 19 -19 -14 -64 -69 -94 -43 -24 -73 -23 -73 2 0 11 -1 23 -2 28 -2
4 17 9 42 12 43 5 45 7 46 37 0 17 6 38 13 47 14 17 45 10 37 -9z m-2852 -1
c23 -9 20 -17 -15 -38 -40 -24 -61 -8 -30 23 23 23 23 23 45 15z m1230 -41
c-3 -16 -12 -39 -21 -52 -19 -29 -19 -148 0 -200 9 -27 9 -35 0 -38 -7 -3 -13
-12 -13 -22 0 -29 -38 -126 -52 -132 -13 -6 -25 -12 -120 -64 -26 -14 -50 -25
-53 -25 -11 0 -4 18 18 42 27 30 92 115 141 185 36 53 45 83 25 83 -14 0 -87
-79 -95 -102 -6 -21 -30 -24 -36 -6 -7 19 42 90 84 123 41 33 50 51 52 105 1
19 13 56 26 83 26 52 52 64 44 20z m1416 23 c0 -3 -5 -17 -10 -31 -7 -20 -16
-26 -33 -23 -12 2 -22 9 -22 16 0 6 4 11 8 10 5 -2 13 5 18 15 9 15 39 25 39
13z m298 -61 c6 -14 18 -25 25 -25 7 0 23 -10 34 -22 51 -57 69 -138 48 -219
-7 -27 -14 -53 -14 -57 -1 -4 -3 -14 -5 -22 -2 -8 -7 -27 -10 -42 -7 -31 -40
-39 -50 -12 -11 30 -7 74 8 74 19 0 25 21 12 43 -8 13 -8 20 0 25 6 4 16 30
22 57 13 61 6 75 -67 130 -61 46 -69 88 -20 94 3 1 11 -10 17 -24z m-4160 -3
c47 -2 52 -4 52 -24 0 -37 -39 -90 -154 -213 -106 -113 -148 -143 -220 -160
-22 -4 -32 -1 -42 14 -12 17 -19 18 -51 9 -27 -7 -42 -6 -61 3 -13 8 -47 14
-76 14 -45 0 -51 3 -54 23 -2 13 3 25 12 28 25 10 19 47 -14 84 -16 18 -30 38
-30 44 1 20 34 53 68 66 17 7 32 18 32 25 0 29 67 56 76 30 6 -15 -15 -59 -45
-94 -27 -31 -26 -45 5 -66 14 -9 23 -23 20 -30 -4 -12 13 -25 33 -25 13 0 34
74 32 113 -2 37 14 51 26 22 7 -19 46 -40 91 -50 31 -6 32 -5 32 24 0 16 -5
33 -10 36 -6 4 -8 15 -5 24 8 26 -19 45 -54 38 -35 -7 -59 14 -38 32 40 33
132 41 375 33z m4096 -98 c8 -3 18 -21 22 -40 3 -19 10 -37 15 -40 18 -10 9
-24 -16 -24 -16 0 -25 6 -25 15 0 8 -7 15 -15 15 -8 0 -15 7 -15 16 0 10 -5
14 -15 10 -18 -6 -30 16 -21 39 5 15 42 20 70 9z m-176 -63 c15 -10 39 -26 55
-35 15 -9 27 -25 27 -35 0 -21 -56 -62 -158 -117 -59 -32 -74 -36 -81 -25 -5
8 -6 21 -3 30 7 20 43 50 58 51 32 1 55 36 59 90 2 30 4 56 4 58 2 6 14 1 39
-17z m-293 -74 c-6 -54 -28 -89 -51 -80 -16 6 -19 40 -4 45 6 2 12 14 14 28 3
35 25 72 37 64 6 -3 8 -27 4 -57z m-153 36 c3 -10 -2 -36 -10 -58 -17 -47 -18
-93 -2 -109 6 -6 37 -13 68 -16 54 -5 75 -21 35 -28 -20 -3 -54 -17 -95 -38
-40 -21 -56 -17 -78 19 -26 43 -25 83 5 132 14 22 25 50 25 62 0 34 11 53 30
53 10 0 20 -8 22 -17z m266 8 c8 -5 12 -22 10 -42 -2 -26 -8 -34 -23 -34 -16
0 -21 8 -23 43 -3 43 7 52 36 33z m-4508 -146 c10 -12 9 -16 -4 -21 -22 -8
-46 2 -46 21 0 19 34 20 50 0z m156 -94 c14 -14 134 -51 166 -51 43 0 35 -25
-9 -28 -46 -3 -70 -24 -83 -70 -8 -32 -2 -58 28 -114 1 -3 -6 -9 -16 -12 -12
-4 -25 -25 -36 -59 -21 -65 -31 -81 -45 -73 -16 11 -13 37 9 81 17 32 20 53
17 103 -4 68 -21 99 -38 70 -9 -16 -63 -48 -81 -48 -13 0 -38 -26 -38 -39 0
-6 -4 -11 -8 -11 -4 0 -21 -29 -37 -65 -17 -35 -33 -65 -37 -65 -23 -1 27 136
75 207 18 27 29 33 58 33 64 0 142 77 101 99 -11 6 -24 6 -32 1 -19 -12 -27
-5 -24 22 1 13 3 24 3 26 2 5 18 1 27 -7z m354 -35 c0 -14 -32 -75 -44 -86
-14 -10 -16 -10 -16 6 0 19 -46 48 -61 38 -5 -3 -9 2 -9 10 0 12 10 16 39 16
22 0 43 5 46 10 6 9 45 15 45 6z m4540 -62 c63 -22 124 -51 127 -60 11 -35
-93 -10 -138 33 -25 23 -29 24 -55 10 -47 -24 -70 -55 -57 -76 6 -10 8 -24 3
-31 -10 -16 -59 -5 -67 15 -10 28 17 71 52 85 19 7 44 24 55 38 20 22 23 23
43 7 12 -8 29 -18 37 -21z m-466 -33 c48 -41 166 -167 166 -178 0 -6 6 -13 13
-16 9 -3 7 -14 -7 -43 -11 -21 -20 -46 -20 -54 -1 -17 57 -58 93 -66 54 -12
82 -27 79 -43 -4 -21 -64 -19 -109 3 -17 9 -37 16 -43 16 -15 0 -59 39 -79 71
-16 25 -16 26 23 64 30 30 37 42 29 52 -18 21 -41 15 -76 -19 -29 -28 -40 -32
-84 -32 -27 0 -55 6 -61 12 -7 7 -22 12 -35 12 -13 0 -23 5 -23 12 0 6 -2 9
-5 6 -3 -3 -29 3 -57 12 -50 16 -52 19 -73 76 -22 60 -38 134 -29 134 11 0 44
-42 39 -50 -3 -5 11 -25 31 -45 21 -22 33 -42 30 -51 -3 -9 1 -17 12 -21 9 -3
25 -13 34 -21 10 -8 27 -12 39 -9 12 3 32 2 44 -3 16 -6 27 -5 35 5 15 19 20
86 7 110 -6 11 -12 22 -12 25 -1 3 -5 17 -9 32 -5 16 -5 36 -1 45 7 17 8 17
18 -1 7 -11 20 -26 31 -35z m-4098 -67 c5 -34 3 -48 -7 -54 -17 -11 -32 -2
-25 15 3 8 1 27 -4 44 -9 31 -5 41 16 41 8 0 16 -19 20 -46z m2801 13 c29 -26
39 -78 24 -128 -11 -35 -10 -44 8 -72 11 -18 33 -40 48 -50 55 -37 67 -65 65
-142 -4 -93 -7 -102 -53 -130 -24 -16 -45 -40 -54 -63 -30 -71 -78 -108 -172
-132 -29 -7 -51 -21 -69 -45 -14 -19 -52 -49 -83 -67 -51 -30 -65 -33 -164
-38 l-109 -5 -3 -55 c-2 -30 -7 -70 -10 -87 -3 -18 -2 -33 3 -33 28 0 110 45
126 69 15 22 33 32 75 41 31 7 77 23 103 37 48 26 91 26 69 -1 -6 -7 -7 -16
-3 -20 4 -4 8 -39 8 -77 1 -38 6 -70 10 -72 5 -1 17 13 26 32 12 25 16 58 16
130 l-1 96 30 21 c60 41 134 -2 152 -88 12 -58 3 -88 -30 -100 -30 -10 -35
-21 -43 -91 -5 -49 18 -64 66 -43 18 8 41 17 50 20 12 4 16 13 14 34 -8 60 11
52 48 -20 41 -78 60 -100 82 -91 7 3 27 -5 43 -16 16 -12 31 -21 33 -21 6 0 2
79 -7 127 -8 46 -26 58 -69 47 -22 -5 -27 -1 -42 32 -9 22 -41 91 -71 154
l-55 115 23 43 c24 46 102 122 125 122 8 0 19 9 26 20 16 26 19 25 65 -6 50
-35 78 -45 137 -51 27 -3 55 -10 61 -17 7 -6 44 -25 84 -40 70 -29 84 -44 59
-64 -9 -6 -34 0 -83 24 -38 18 -78 33 -87 33 -29 1 -56 -37 -60 -87 -3 -37 1
-50 19 -68 13 -13 23 -32 23 -42 0 -13 7 -18 22 -18 15 1 27 -7 33 -22 9 -20
14 -22 70 -16 l61 6 -1 -72 c-2 -55 2 -77 16 -93 16 -19 20 -20 39 -9 12 7 24
12 26 10 1 -2 -9 -27 -23 -56 l-26 -52 28 -40 c15 -22 35 -40 44 -40 9 0 25
17 37 37 20 34 20 39 6 83 -14 46 -11 100 7 100 5 0 20 -17 33 -37 42 -62 127
-143 151 -143 35 0 49 14 42 43 -14 54 79 58 117 5 l21 -30 -22 -44 c-11 -25
-21 -50 -21 -58 0 -21 -32 -43 -75 -51 -22 -3 -60 -16 -85 -27 -25 -12 -51
-21 -59 -22 -21 -1 -25 -25 -7 -32 9 -3 16 -12 16 -20 0 -8 9 -14 20 -14 11 0
20 5 20 10 0 6 11 10 25 10 20 0 25 -5 25 -25 0 -14 -6 -26 -12 -26 -7 -1 -24
-3 -37 -4 -27 -3 -49 -27 -58 -65 -3 -14 -11 -28 -16 -31 -5 -4 -7 -14 -4 -23
5 -13 16 -11 76 19 64 32 90 60 83 89 -2 4 7 28 18 51 22 46 61 78 86 73 11
-2 6 -14 -20 -45 -36 -41 -43 -66 -31 -114 6 -23 2 -29 -32 -45 -35 -18 -38
-22 -41 -68 -2 -27 1 -53 5 -57 12 -12 83 1 83 16 0 7 6 18 14 24 12 10 18 7
31 -18 18 -36 23 -37 41 -13 12 16 14 16 27 -2 14 -19 15 -19 46 3 26 19 34
21 47 10 8 -7 14 -24 14 -38 -3 -43 -1 -51 14 -51 38 0 25 -113 -13 -123 -46
-12 -163 4 -252 33 -118 40 -169 45 -244 28 -125 -29 -208 -21 -311 28 -35 17
-65 24 -95 23 -24 -1 -68 6 -97 15 -94 32 -281 -3 -383 -71 -34 -22 -46 -25
-92 -20 -41 5 -57 13 -77 36 -19 22 -39 32 -83 41 -85 17 -119 34 -160 79 -54
60 -66 88 -81 191 -11 71 -53 196 -82 239 -16 24 -41 62 -56 85 -15 23 -34 73
-43 111 -9 39 -27 105 -42 149 -23 72 -30 130 -19 181 12 61 30 114 48 145 11
19 22 57 25 85 7 61 20 88 71 141 22 23 58 68 80 100 42 61 93 117 127 140 11
7 46 15 78 18 79 8 148 24 174 42 13 8 31 31 42 52 41 80 103 99 158 49z
m-3668 -37 c54 -50 57 -63 21 -73 -31 -8 -90 47 -90 82 0 22 7 41 15 41 0 0
25 -22 54 -50z m4576 30 c3 -5 8 -37 11 -71 5 -71 19 -101 69 -149 35 -34 65
-82 65 -105 0 -7 9 -20 20 -30 11 -10 20 -24 20 -30 0 -7 6 -18 14 -24 10 -8
13 -30 12 -71 -3 -62 1 -74 22 -76 6 -1 19 -2 27 -2 20 -2 36 -43 23 -59 -18
-22 -41 -14 -83 26 -48 47 -89 62 -127 47 -30 -11 -48 -2 -30 16 22 22 13 35
-27 42 -21 3 -44 12 -51 20 -7 10 -22 13 -40 10 -15 -4 -31 -1 -34 5 -14 22
-48 10 -86 -31 -22 -23 -40 -45 -40 -49 0 -4 12 -12 28 -18 15 -6 41 -19 57
-29 17 -11 39 -18 50 -16 22 3 55 -22 55 -43 0 -17 -21 -17 -45 1 -10 7 -31
12 -46 9 -35 -5 -203 56 -218 80 -9 14 -6 22 16 45 67 69 179 130 258 139 21
2 45 8 53 12 20 12 92 -16 131 -50 42 -36 65 -25 32 17 -11 15 -21 37 -21 49
0 29 -17 41 -58 40 l-34 -1 7 42 c9 62 -14 65 -69 7 -59 -61 -73 -52 -70 49 1
40 2 76 3 81 3 18 43 47 66 47 26 0 33 18 14 37 -13 13 -5 43 10 43 5 0 13 -4
16 -10z m624 -44 c7 -8 29 -17 50 -21 34 -5 40 -11 51 -46 7 -21 16 -39 21
-39 13 0 19 -32 8 -46 -9 -11 -20 -6 -60 24 -27 20 -52 44 -55 54 -3 10 -9 18
-14 18 -12 0 -41 50 -35 60 9 14 21 12 34 -4z m-5319 -26 c4 -29 0 -40 -15
-40 -15 0 -22 50 -8 64 8 8 21 -4 23 -24z m50 -129 c0 -24 -88 -103 -109 -99
-9 2 -16 13 -16 27 0 19 13 32 55 57 65 39 70 40 70 15z m298 -4 c25 -26 -13
-42 -94 -40 -72 2 -73 2 -76 -25 -2 -21 -9 -28 -30 -30 -19 -2 -28 -9 -28 -22
0 -19 -26 -35 -34 -21 -7 11 1 53 11 60 5 3 20 25 35 48 19 29 36 43 55 45 53
7 147 -2 161 -15z m103 -59 c4 -73 3 -92 -8 -95 -6 -2 -19 10 -28 27 -14 27
-14 36 -3 61 15 34 37 38 39 7z m4545 -17 c5 -5 26 -14 46 -20 61 -20 120 -73
152 -137 17 -33 41 -81 55 -109 13 -27 27 -52 31 -55 17 -12 27 -47 19 -65
-14 -36 -11 -85 6 -85 21 0 30 -27 15 -45 -11 -13 -16 -12 -37 11 -14 15 -26
36 -28 46 -5 26 -22 46 -46 53 -15 5 -17 10 -9 20 16 19 2 43 -26 43 -29 0
-33 3 -39 30 -10 54 -56 85 -80 54 -13 -17 -45 -5 -45 17 0 9 -9 27 -20 41
-11 14 -20 28 -20 33 0 4 -9 26 -19 50 -20 42 -24 63 -22 105 1 17 7 22 29 22
15 0 32 -4 38 -9z m516 -95 c10 -12 18 -24 18 -28 0 -16 -31 -7 -47 12 -10 11
-23 20 -30 20 -17 0 -17 17 0 23 18 6 40 -3 59 -27z m-5500 -13 c14 -16 33
-48 42 -72 16 -43 16 -44 -4 -63 -20 -18 -23 -19 -45 -4 -48 32 -86 146 -52
159 24 10 34 7 59 -20z m5398 -65 c13 -10 30 -18 38 -18 19 0 30 -40 19 -70
-13 -33 -3 -60 22 -67 30 -8 33 -30 7 -58 -18 -20 -33 -25 -70 -25 -25 0 -46
3 -47 8 0 4 -2 27 -4 51 -3 25 -20 76 -40 114 -38 75 -42 93 -23 99 16 6 67
-13 98 -34z m-2760 -24 c0 -43 -39 -138 -65 -161 -38 -33 -47 -29 -44 20 3 49
13 74 52 140 24 38 32 45 43 36 8 -6 14 -22 14 -35z m317 -83 c-16 -35 -83
-101 -103 -101 -21 0 -11 50 13 65 10 6 33 27 52 48 38 41 58 34 38 -12z
m2693 -147 c0 -22 -2 -25 -15 -14 -8 7 -15 19 -15 26 0 8 7 14 15 14 10 0 15
-10 15 -26z m-2857 -14 c29 -29 29 -29 12 -62 -30 -55 -31 -61 -34 -115 -3
-73 7 -84 33 -32 34 66 62 62 36 -6 -17 -44 -15 -155 3 -172 26 -26 39 -5 35
56 -2 43 0 56 11 56 8 0 15 -8 17 -17 1 -9 7 -33 14 -53 7 -20 10 -39 7 -42
-9 -9 20 -91 42 -119 23 -29 28 -54 10 -54 -25 0 -104 69 -148 130 -44 60 -58
91 -68 145 -2 11 -13 39 -24 62 -16 30 -20 51 -15 75 4 18 9 60 12 93 9 98 12
101 57 55z m1872 -27 c11 -6 38 -16 60 -23 22 -7 47 -18 55 -25 20 -18 88 -43
125 -48 16 -2 59 7 95 19 36 13 66 24 67 24 1 0 3 -15 5 -32 3 -31 6 -33 46
-36 23 -2 42 -8 43 -15 1 -20 7 -49 11 -50 2 -1 13 -8 25 -14 13 -7 33 -13 47
-13 32 0 50 -24 42 -55 -9 -34 -37 -32 -74 5 -17 17 -38 30 -46 30 -9 0 -16 5
-16 10 0 6 0 13 -1 18 -1 8 -62 49 -67 44 -1 -1 -15 4 -32 13 -54 28 -95 11
-106 -43 -5 -27 0 -36 47 -84 30 -29 63 -58 74 -64 11 -6 31 -31 44 -57 14
-28 32 -48 46 -51 29 -7 40 -34 22 -55 -18 -21 -15 -162 4 -191 9 -13 29 -23
54 -26 22 -3 49 -9 60 -14 11 -5 46 -11 78 -13 54 -3 57 -2 57 21 0 19 5 23
23 20 18 -2 21 -8 19 -32 -6 -56 -18 -66 -69 -61 -27 2 -50 0 -54 -6 -3 -6 9
-27 29 -46 31 -32 33 -36 19 -51 -13 -13 -21 -13 -42 -4 -14 6 -25 16 -25 21
0 5 -5 22 -12 38 -6 15 -10 38 -9 49 2 24 -16 34 -67 40 -18 2 -49 9 -68 16
-45 16 -68 2 -71 -41 -1 -22 5 -38 19 -49 12 -9 37 -30 57 -47 20 -16 40 -33
46 -37 5 -4 26 -21 45 -37 20 -16 61 -41 93 -56 62 -30 80 -62 27 -50 -19 4
-30 3 -30 -4 0 -18 -40 -12 -47 7 -12 31 -58 82 -74 82 -9 0 -24 9 -33 19 -10
11 -28 22 -42 25 -13 4 -24 10 -24 15 0 5 -13 23 -29 40 -32 34 -42 78 -38
161 2 43 4 45 32 45 28 1 30 3 30 39 0 28 -9 50 -39 88 -38 51 -38 51 -17 67
24 19 36 5 -213 263 -133 139 -155 158 -183 158 -25 0 -36 -7 -53 -35 -12 -19
-26 -32 -31 -29 -14 8 -4 115 11 124 15 9 28 8 55 -7z m835 -13 c0 -5 -5 -12
-10 -15 -7 -4 -6 -13 1 -27 9 -16 8 -24 -5 -36 -13 -13 -16 -13 -20 -1 -2 8
-7 23 -12 34 -9 25 -6 48 9 57 12 7 37 -1 37 -12z m118 3 c-3 -18 -51 -33 -75
-25 -23 8 -13 31 15 35 57 9 64 7 60 -10z m-9 -109 c14 -1 32 -2 39 -3 23 -2
12 -21 -15 -27 -16 -4 -31 -11 -34 -16 -3 -5 -15 -11 -25 -12 -12 -2 -20 -12
-22 -28 -3 -26 -41 -47 -43 -25 -3 29 -13 58 -30 90 -14 25 -3 34 22 19 16
-10 24 -10 41 2 12 8 26 12 31 9 6 -3 22 -7 36 -9z m-3099 -384 c0 -5 27 -38
60 -72 33 -35 60 -66 60 -71 0 -4 27 -36 59 -71 74 -79 89 -109 85 -163 -5
-66 -62 -161 -98 -163 -14 0 2 59 25 92 31 43 28 93 -10 159 -32 57 -77 107
-87 97 -5 -5 8 -65 24 -108 13 -36 11 -88 -3 -100 -8 -7 -15 -18 -15 -24 0
-17 -91 -116 -107 -116 -19 0 -3 30 48 92 49 59 52 105 11 187 -20 41 -28 70
-27 106 1 34 -4 56 -16 70 -17 20 -39 67 -39 86 0 5 7 9 15 9 8 0 15 -4 15
-10z m2488 -63 c18 -50 16 -56 -22 -54 -46 3 -50 9 -32 51 19 45 38 46 54 3z
m-2934 -64 c4 -10 21 -35 40 -56 58 -67 79 -120 73 -185 -9 -93 -10 -96 -46
-98 -18 -1 -54 -13 -79 -27 -26 -14 -60 -27 -77 -28 -16 -2 -35 -7 -42 -12 -9
-7 -12 -1 -10 22 1 17 5 31 8 31 4 0 10 17 14 37 4 20 18 59 32 87 17 33 28
76 33 130 9 91 16 116 35 116 8 0 16 -8 19 -17z m-134 -43 c17 -45 20 -120 6
-177 -4 -15 -23 -58 -42 -96 -19 -37 -34 -69 -34 -72 0 -3 0 -11 0 -17 0 -9
-19 -14 -54 -15 -48 -2 -56 0 -61 18 -5 14 0 27 14 40 16 16 21 33 22 79 2 80
3 93 11 105 3 6 6 45 6 87 0 43 3 81 6 86 3 5 28 8 57 8 l51 -1 18 -45z"/>
</g>
</svg>
