<svg id="svg" version="1.1" xmlns="http://www.w3.org/2000/svg" xmlns:xlink="http://www.w3.org/1999/xlink" width="400" height="278.84834663626" viewBox="0, 0, 400,278.84834663626"><g id="svgg"><path id="path0" d="M14.127 1.451 C 14.334 1.491,14.634 1.490,14.794 1.448 C 14.953 1.406,14.783 1.374,14.417 1.375 C 14.050 1.377,13.920 1.411,14.127 1.451 M12.969 2.004 C 10.864 2.333,8.416 3.623,6.538 5.394 L 5.659 6.222 5.205 5.797 C 3.943 4.617,2.275 4.409,0.899 5.260 L 0.083 5.764 0.042 142.299 L -0.000 278.833 200.000 278.833 L 400.000 278.833 400.000 158.178 L 400.000 37.523 399.530 37.188 C 397.902 36.029,395.326 36.400,393.247 38.093 L 392.320 38.848 391.641 38.266 C 389.983 36.848,387.504 36.808,385.801 38.173 C 385.007 38.810,385.000 38.808,384.998 37.875 C 384.986 34.035,381.998 30.033,378.904 29.713 C 376.420 29.457,374.962 30.411,372.703 33.766 C 372.525 34.031,372.472 34.042,372.384 33.835 C 371.934 32.776,370.614 32.350,369.790 32.999 C 369.304 33.381,369.168 33.224,369.165 32.278 C 369.151 27.690,361.292 25.997,358.985 30.084 C 358.310 31.280,358.254 31.299,357.755 30.508 C 356.058 27.819,350.942 28.143,348.162 31.115 C 347.127 32.222,346.171 33.704,346.168 34.208 C 346.166 34.589,346.073 34.578,345.097 34.083 C 343.817 33.434,342.122 33.650,341.655 34.522 C 341.259 35.262,341.049 34.857,340.931 33.125 C 340.449 26.026,336.083 21.455,330.443 22.145 C 326.885 22.580,322.633 25.113,322.222 27.042 C 322.139 27.433,322.042 27.500,321.554 27.500 C 320.875 27.500,320.232 27.809,319.679 28.401 C 319.279 28.829,318.833 28.976,318.833 28.679 C 318.833 27.719,315.995 26.146,314.500 26.277 C 312.435 26.459,309.245 29.109,308.904 30.927 C 308.760 31.692,308.606 31.755,307.989 31.299 C 306.537 30.227,302.972 31.068,301.482 32.836 C 300.669 33.800,300.570 33.784,300.463 32.674 C 300.244 30.390,297.639 28.990,296.109 30.333 C 295.395 30.960,295.429 30.965,294.977 30.161 C 294.468 29.256,293.097 29.031,292.496 29.754 C 292.173 30.144,292.052 30.051,291.852 29.254 C 291.479 27.774,290.196 26.768,288.798 26.861 L 287.966 26.917 287.672 25.973 C 287.127 24.222,286.230 23.211,284.569 22.476 C 282.103 21.386,277.841 23.419,276.963 26.105 C 276.792 26.626,276.617 26.894,276.474 26.852 C 274.639 26.321,272.416 27.320,272.085 28.825 C 271.940 29.488,271.777 29.566,271.180 29.257 C 270.095 28.696,268.651 29.040,268.433 29.913 C 268.288 30.488,268.049 30.440,267.774 29.782 C 267.500 29.126,266.250 28.008,265.762 27.982 C 264.962 27.939,264.559 28.052,264.158 28.431 C 263.600 28.957,263.565 28.948,263.169 28.171 C 261.446 24.793,257.230 24.613,254.322 27.793 C 253.528 28.662,252.333 30.760,252.333 31.287 C 252.333 31.545,252.327 31.545,251.433 31.320 C 250.860 31.176,250.597 31.191,250.102 31.398 C 249.637 31.593,249.471 31.606,249.426 31.453 C 249.394 31.341,249.246 30.728,249.098 30.090 C 247.581 23.547,240.078 21.943,236.780 27.457 C 236.141 28.524,236.157 28.523,235.519 27.529 C 234.500 25.942,232.988 25.299,231.553 25.845 C 231.141 26.001,231.054 25.976,230.840 25.637 C 229.073 22.838,226.489 22.685,223.309 25.188 C 222.497 25.828,222.203 25.798,221.895 25.042 C 219.525 19.221,216.754 17.079,212.665 17.907 C 210.336 18.379,208.435 19.409,206.554 21.218 L 205.692 22.047 205.005 21.460 C 203.700 20.342,202.036 20.225,200.713 21.157 L 199.984 21.671 199.235 21.233 C 197.686 20.325,195.268 20.747,193.306 22.268 C 192.254 23.083,192.083 23.134,191.851 22.700 C 191.033 21.171,187.306 20.989,185.781 22.402 C 185.141 22.996,185.000 22.946,184.997 22.125 C 184.985 19.114,182.890 15.466,180.543 14.366 C 177.840 13.100,175.181 14.158,173.188 17.292 C 172.568 18.268,172.431 18.334,172.153 17.792 C 171.662 16.833,170.474 16.526,169.814 17.186 C 169.378 17.622,169.247 17.456,169.110 16.299 C 168.536 11.451,160.757 10.217,158.755 14.656 C 158.375 15.498,158.281 15.498,157.724 14.657 C 155.243 10.909,147.614 13.464,146.092 18.554 C 146.005 18.844,145.982 18.844,145.542 18.535 C 144.331 17.685,142.879 17.678,141.923 18.517 C 141.109 19.232,141.078 19.183,140.878 16.875 C 140.051 7.335,131.856 3.253,124.464 8.699 C 123.333 9.532,122.167 10.902,122.167 11.397 C 122.167 11.595,122.009 11.667,121.575 11.667 C 120.876 11.667,120.237 11.970,119.679 12.567 C 119.146 13.138,119.010 13.107,118.412 12.284 C 117.225 10.650,114.831 10.080,112.918 10.975 C 111.090 11.830,108.840 14.301,108.835 15.458 C 108.833 15.936,108.714 15.929,107.759 15.396 C 106.089 14.462,102.722 15.366,101.456 17.087 C 100.804 17.973,100.612 17.953,100.491 16.987 C 100.187 14.549,97.532 13.116,96.014 14.570 C 95.517 15.046,95.167 15.126,95.167 14.763 C 95.167 13.775,93.627 13.173,92.788 13.833 C 92.167 14.322,92.050 14.259,91.768 13.287 C 91.333 11.791,90.134 10.903,88.778 11.073 L 87.890 11.184 87.687 10.274 C 86.489 4.922,78.346 5.351,76.773 10.849 C 76.708 11.077,76.578 11.091,75.861 10.944 C 74.312 10.627,72.321 11.759,72.069 13.101 C 71.951 13.728,71.767 13.786,71.061 13.418 C 70.014 12.872,68.649 13.216,68.433 14.079 C 68.290 14.648,68.063 14.608,67.735 13.958 C 66.892 12.291,65.286 11.667,64.197 12.583 C 63.579 13.103,63.396 13.107,63.269 12.599 C 63.081 11.852,61.897 10.562,60.980 10.105 C 58.241 8.740,54.192 10.896,52.712 14.507 L 52.260 15.610 51.088 15.597 C 50.444 15.589,49.803 15.641,49.664 15.711 C 49.458 15.815,49.371 15.628,49.199 14.711 C 47.936 7.981,40.039 5.981,36.835 11.580 C 36.257 12.591,36.105 12.675,35.820 12.143 C 34.861 10.350,32.953 9.406,31.567 10.038 C 31.162 10.222,31.093 10.203,30.851 9.833 C 29.123 7.194,26.927 6.930,23.884 8.994 C 22.232 10.115,22.129 10.113,21.751 8.946 C 20.225 4.231,16.676 1.426,12.969 2.004 M18.917 3.500 C 19.368 3.958,19.775 4.333,19.821 4.333 C 19.867 4.333,19.535 3.958,19.083 3.500 C 18.632 3.042,18.225 2.667,18.179 2.667 C 18.133 2.667,18.465 3.042,18.917 3.500 M2.460 4.285 C 2.668 4.324,2.968 4.323,3.127 4.281 C 3.286 4.239,3.117 4.207,2.750 4.209 C 2.383 4.211,2.253 4.245,2.460 4.285 M6.333 4.917 C 5.928 5.329,5.635 5.667,5.681 5.667 C 5.726 5.667,6.095 5.329,6.500 4.917 C 6.905 4.504,7.199 4.167,7.153 4.167 C 7.107 4.167,6.738 4.504,6.333 4.917 M82.461 5.954 C 82.761 5.991,83.211 5.990,83.461 5.952 C 83.712 5.914,83.467 5.884,82.917 5.885 C 82.367 5.886,82.162 5.917,82.461 5.954 M86.333 7.219 C 86.333 7.248,86.577 7.491,86.875 7.760 L 87.417 8.250 86.927 7.708 C 86.471 7.203,86.333 7.090,86.333 7.219 M137.660 8.375 C 138.068 8.810,138.425 9.167,138.451 9.167 C 138.577 9.167,138.444 9.017,137.708 8.326 L 136.917 7.583 137.660 8.375 M58.795 9.287 C 59.094 9.325,59.544 9.324,59.795 9.286 C 60.045 9.248,59.800 9.217,59.250 9.218 C 58.700 9.219,58.495 9.250,58.795 9.287 M62.417 10.667 C 62.775 11.033,63.105 11.333,63.151 11.333 C 63.197 11.333,62.941 11.033,62.583 10.667 C 62.225 10.300,61.895 10.000,61.849 10.000 C 61.803 10.000,62.059 10.300,62.417 10.667 M74.960 10.451 C 75.168 10.491,75.468 10.490,75.627 10.448 C 75.786 10.406,75.617 10.374,75.250 10.375 C 74.883 10.377,74.753 10.411,74.960 10.451 M88.960 10.618 C 89.168 10.658,89.468 10.656,89.627 10.615 C 89.786 10.573,89.617 10.540,89.250 10.542 C 88.883 10.544,88.753 10.578,88.960 10.618 M54.158 11.458 L 53.583 12.083 54.208 11.509 C 54.552 11.193,54.833 10.912,54.833 10.884 C 54.833 10.757,54.692 10.877,54.158 11.458 M153.458 12.451 C 153.665 12.491,154.002 12.491,154.208 12.451 C 154.415 12.411,154.246 12.379,153.833 12.379 C 153.421 12.379,153.252 12.411,153.458 12.451 M69.542 12.786 C 69.794 12.824,70.206 12.824,70.458 12.786 C 70.710 12.748,70.504 12.717,70.000 12.717 C 69.496 12.717,69.290 12.748,69.542 12.786 M93.460 13.118 C 93.668 13.158,93.968 13.156,94.127 13.115 C 94.286 13.073,94.117 13.040,93.750 13.042 C 93.383 13.044,93.253 13.078,93.460 13.118 M157.500 13.750 C 157.811 14.071,158.103 14.333,158.149 14.333 C 158.195 14.333,157.978 14.071,157.667 13.750 C 157.356 13.429,157.064 13.167,157.018 13.167 C 156.972 13.167,157.189 13.429,157.500 13.750 M177.792 13.454 C 178.090 13.491,178.577 13.491,178.875 13.454 C 179.173 13.417,178.929 13.387,178.333 13.387 C 177.737 13.387,177.494 13.417,177.792 13.454 M97.294 13.618 C 97.501 13.658,97.801 13.656,97.960 13.615 C 98.120 13.573,97.950 13.540,97.583 13.542 C 97.217 13.544,97.086 13.578,97.294 13.618 M147.991 14.792 L 147.417 15.417 148.042 14.842 C 148.623 14.308,148.743 14.167,148.616 14.167 C 148.588 14.167,148.307 14.448,147.991 14.792 M105.625 14.621 C 105.923 14.658,106.410 14.658,106.708 14.621 C 107.006 14.584,106.763 14.553,106.167 14.553 C 105.571 14.553,105.327 14.584,105.625 14.621 M100.853 16.625 C 100.842 16.831,100.897 17.000,100.974 17.000 C 101.052 17.000,101.258 16.831,101.433 16.625 L 101.750 16.250 101.390 16.554 C 101.041 16.849,101.027 16.849,100.951 16.554 C 100.887 16.310,100.868 16.324,100.853 16.625 M170.542 16.448 C 170.702 16.490,170.965 16.490,171.125 16.448 C 171.285 16.406,171.154 16.372,170.833 16.372 C 170.512 16.372,170.381 16.406,170.542 16.448 M141.381 17.583 C 141.382 18.042,141.415 18.209,141.453 17.956 C 141.491 17.703,141.490 17.328,141.451 17.123 C 141.411 16.918,141.380 17.125,141.381 17.583 M213.792 17.287 C 214.090 17.324,214.577 17.324,214.875 17.287 C 215.173 17.250,214.929 17.220,214.333 17.220 C 213.737 17.220,213.494 17.250,213.792 17.287 M143.292 17.451 C 143.498 17.491,143.835 17.491,144.042 17.451 C 144.248 17.411,144.079 17.379,143.667 17.379 C 143.254 17.379,143.085 17.411,143.292 17.451 M202.208 20.119 C 202.460 20.158,202.873 20.158,203.125 20.119 C 203.377 20.081,203.171 20.050,202.667 20.050 C 202.162 20.050,201.956 20.081,202.208 20.119 M185.375 21.583 C 185.377 21.950,185.411 22.080,185.451 21.873 C 185.491 21.666,185.490 21.366,185.448 21.206 C 185.406 21.047,185.374 21.217,185.375 21.583 M331.295 21.621 C 331.594 21.658,332.044 21.657,332.295 21.619 C 332.545 21.581,332.300 21.551,331.750 21.552 C 331.200 21.553,330.995 21.584,331.295 21.621 M191.875 22.084 L 192.332 22.575 192.708 22.169 L 193.083 21.762 192.707 22.075 C 192.336 22.383,192.323 22.382,191.873 21.990 L 191.417 21.593 191.875 22.084 M227.208 22.948 C 227.369 22.990,227.631 22.990,227.792 22.948 C 227.952 22.906,227.821 22.872,227.500 22.872 C 227.179 22.872,227.048 22.906,227.208 22.948 M277.824 23.958 L 277.250 24.583 277.875 24.009 C 278.457 23.474,278.577 23.333,278.449 23.333 C 278.422 23.333,278.140 23.615,277.824 23.958 M237.824 25.292 L 237.250 25.917 237.875 25.342 C 238.457 24.808,238.577 24.667,238.449 24.667 C 238.422 24.667,238.140 24.948,237.824 25.292 M234.667 25.885 C 234.667 25.914,234.910 26.158,235.208 26.427 L 235.750 26.917 235.260 26.375 C 234.804 25.870,234.667 25.757,234.667 25.885 M310.240 28.042 L 309.750 28.583 310.292 28.094 C 310.797 27.638,310.910 27.500,310.781 27.500 C 310.752 27.500,310.509 27.744,310.240 28.042 M353.208 28.288 C 353.552 28.324,354.115 28.324,354.458 28.288 C 354.802 28.252,354.521 28.223,353.833 28.223 C 353.146 28.223,352.865 28.252,353.208 28.288 M359.324 28.792 L 358.750 29.417 359.375 28.842 C 359.957 28.308,360.077 28.167,359.949 28.167 C 359.922 28.167,359.640 28.448,359.324 28.792 M297.042 29.453 C 297.294 29.491,297.706 29.491,297.958 29.453 C 298.210 29.415,298.004 29.383,297.500 29.383 C 296.996 29.383,296.790 29.415,297.042 29.453 M348.077 30.542 L 347.250 31.417 348.125 30.590 C 348.606 30.135,349.000 29.741,349.000 29.715 C 349.000 29.590,348.846 29.729,348.077 30.542 M300.853 32.458 C 300.832 32.857,301.068 32.961,301.266 32.641 C 301.337 32.527,301.312 32.494,301.205 32.560 C 301.106 32.621,300.991 32.539,300.949 32.377 C 300.890 32.154,300.867 32.173,300.853 32.458 M370.460 32.285 C 370.668 32.324,370.968 32.323,371.127 32.281 C 371.286 32.239,371.117 32.207,370.750 32.209 C 370.383 32.211,370.253 32.245,370.460 32.285 M341.361 33.395 C 341.337 34.100,341.366 34.180,341.583 34.000 C 341.859 33.772,341.925 33.591,341.677 33.744 C 341.591 33.797,341.491 33.557,341.455 33.212 C 341.396 32.647,341.387 32.666,341.361 33.395 M343.208 33.286 C 343.460 33.324,343.873 33.324,344.125 33.286 C 344.377 33.248,344.171 33.217,343.667 33.217 C 343.162 33.217,342.956 33.248,343.208 33.286 M396.958 36.118 C 397.165 36.157,397.502 36.157,397.708 36.118 C 397.915 36.078,397.746 36.045,397.333 36.045 C 396.921 36.045,396.752 36.078,396.958 36.118 M385.375 37.250 C 385.377 37.617,385.411 37.747,385.451 37.540 C 385.491 37.332,385.490 37.032,385.448 36.873 C 385.406 36.714,385.374 36.883,385.375 37.250 " stroke="none" fill="#a354b3" fill-rule="evenodd"></path><path id="path1" d="M11.083 0.343 C 9.260 0.913,7.720 1.734,6.243 2.923 L 5.568 3.466 4.826 3.110 C 3.837 2.635,1.561 2.612,0.625 3.067 C 0.007 3.368,0.000 3.383,0.000 4.361 L 0.000 5.350 0.552 4.930 C 1.833 3.952,3.887 4.032,5.167 5.109 L 5.676 5.537 6.463 4.803 C 10.537 1.005,15.717 0.351,18.810 3.245 C 20.131 4.480,22.333 8.123,22.333 9.072 C 22.333 9.451,22.488 9.403,23.417 8.736 C 26.503 6.523,29.341 6.655,30.933 9.085 C 31.175 9.454,31.264 9.472,32.345 9.382 C 33.672 9.271,34.954 9.919,35.708 11.082 C 36.172 11.799,36.186 11.799,36.570 11.087 C 39.702 5.270,48.133 7.564,49.725 14.667 C 49.813 15.057,49.884 15.083,50.874 15.083 L 51.929 15.083 52.552 13.792 C 54.946 8.826,60.767 7.645,63.324 11.608 L 63.770 12.299 64.177 11.987 C 65.102 11.275,66.815 11.779,67.769 13.045 L 68.070 13.443 68.660 13.042 C 69.262 12.633,70.300 12.583,71.292 12.914 C 71.577 13.009,71.667 12.975,71.667 12.770 C 71.667 11.766,73.779 10.426,75.353 10.431 C 76.441 10.435,76.459 10.427,76.647 9.909 C 77.420 7.770,80.835 5.687,83.255 5.877 C 85.470 6.051,87.454 7.661,88.090 9.803 L 88.337 10.634 88.973 10.549 C 90.116 10.396,91.715 11.547,92.173 12.852 C 92.376 13.434,92.398 13.446,92.817 13.228 C 93.631 12.803,94.323 12.935,94.996 13.642 C 95.594 14.271,95.615 14.278,95.971 13.990 C 97.415 12.820,100.038 13.905,100.774 15.977 L 101.070 16.809 101.694 16.245 C 103.301 14.793,106.050 14.098,107.609 14.750 C 108.424 15.091,108.447 15.083,108.674 14.393 C 108.992 13.431,111.171 11.267,112.465 10.630 C 114.599 9.580,116.701 9.895,118.386 11.519 C 119.220 12.323,119.233 12.329,119.573 12.019 C 120.067 11.568,120.920 11.167,121.382 11.167 C 121.645 11.167,121.844 11.025,121.970 10.750 C 122.441 9.716,124.452 7.952,126.129 7.103 C 133.373 3.431,140.485 7.754,141.365 16.363 C 141.521 17.892,141.580 18.110,141.781 17.909 C 142.397 17.294,144.123 17.205,145.184 17.734 C 145.479 17.881,145.733 17.982,145.747 17.959 C 145.762 17.936,145.978 17.561,146.227 17.126 C 148.839 12.564,154.985 10.795,157.716 13.818 L 158.269 14.430 158.676 13.778 C 160.121 11.468,163.460 10.626,166.069 11.915 C 168.061 12.899,169.667 14.892,169.667 16.381 C 169.667 16.624,169.738 16.672,169.958 16.576 C 170.714 16.248,171.252 16.309,171.928 16.799 L 172.605 17.291 173.428 16.191 C 177.329 10.971,184.300 13.604,185.365 20.699 L 185.557 21.982 185.987 21.687 C 187.708 20.504,190.445 20.663,191.941 22.031 L 192.298 22.358 193.332 21.598 C 195.098 20.297,197.769 19.901,199.407 20.697 C 200.105 21.036,200.177 21.042,200.459 20.787 C 201.626 19.731,203.552 19.758,205.066 20.852 L 205.716 21.321 206.592 20.521 C 212.754 14.889,219.536 16.661,222.295 24.624 L 222.482 25.164 223.851 24.248 C 226.658 22.369,229.121 22.473,230.655 24.535 L 231.227 25.303 232.405 25.220 C 233.791 25.123,234.793 25.622,235.623 26.822 C 236.189 27.640,236.183 27.640,236.587 26.881 C 239.542 21.335,247.929 23.251,249.585 29.850 L 249.852 30.917 250.884 30.917 L 251.917 30.917 252.535 29.650 C 255.076 24.450,260.764 23.416,263.513 27.655 C 263.765 28.044,263.790 28.049,264.175 27.780 C 265.058 27.161,266.227 27.390,267.251 28.382 L 268.162 29.264 268.502 28.924 C 268.857 28.568,270.502 28.436,271.250 28.702 C 271.523 28.799,271.637 28.704,271.881 28.177 C 272.408 27.035,273.779 26.250,275.244 26.250 L 276.447 26.250 276.756 25.500 C 277.753 23.082,281.730 21.128,284.260 21.813 C 285.868 22.248,287.601 23.948,288.065 25.546 C 288.320 26.422,288.332 26.433,288.900 26.367 C 290.134 26.223,291.578 27.188,292.107 28.511 C 292.311 29.020,292.443 29.158,292.647 29.074 C 293.770 28.612,294.873 28.890,295.335 29.753 L 295.558 30.170 295.944 29.807 C 297.333 28.502,300.191 29.789,300.859 32.020 L 301.049 32.654 301.866 31.919 C 303.352 30.583,305.989 29.966,307.594 30.579 C 308.012 30.738,308.368 30.842,308.385 30.809 C 308.402 30.777,308.602 30.382,308.829 29.932 C 310.878 25.865,315.830 24.610,318.563 27.465 L 319.209 28.140 319.563 27.801 C 319.971 27.408,320.852 27.000,321.290 27.000 C 321.467 27.000,321.896 26.582,322.325 25.993 C 324.055 23.617,327.349 21.911,330.835 21.585 C 336.287 21.076,340.847 25.800,341.420 32.551 L 341.530 33.852 341.953 33.575 C 342.640 33.125,344.142 33.067,345.024 33.456 L 345.772 33.787 346.224 32.924 C 348.544 28.493,354.511 26.686,357.556 29.493 L 358.299 30.178 358.661 29.592 C 361.231 25.434,368.826 26.975,369.599 31.811 C 369.694 32.402,369.747 32.469,370.010 32.328 C 370.649 31.986,371.795 32.268,372.317 32.897 C 372.496 33.113,372.644 32.995,373.345 32.068 C 377.358 26.767,384.248 29.314,385.369 36.514 L 385.566 37.778 386.136 37.392 C 387.729 36.311,390.516 36.488,391.837 37.754 L 392.289 38.187 393.363 37.374 C 395.093 36.064,397.705 35.653,399.292 36.440 L 400.000 36.792 400.000 35.916 C 400.000 34.780,399.604 34.583,397.333 34.585 C 395.260 34.586,393.633 35.037,392.731 35.861 C 392.383 36.178,392.372 36.178,391.814 35.858 C 390.459 35.080,389.013 34.888,387.250 35.253 C 386.777 35.351,386.738 35.318,386.534 34.637 C 386.256 33.711,385.257 31.773,384.617 30.917 C 381.621 26.908,376.314 26.497,372.999 30.016 C 371.903 31.180,371.135 31.074,370.447 29.664 C 368.379 25.421,361.329 24.177,358.321 27.524 C 358.073 27.801,358.031 27.798,357.488 27.467 C 354.017 25.345,347.746 27.345,345.396 31.324 C 345.164 31.716,344.999 31.828,344.751 31.761 C 344.567 31.712,344.079 31.670,343.667 31.669 L 342.917 31.666 342.643 30.375 C 342.047 27.555,341.537 26.391,340.014 24.375 C 337.248 20.714,332.531 19.112,328.370 20.422 C 327.937 20.558,327.321 20.750,327.000 20.849 C 324.928 21.486,322.124 23.462,321.110 25.000 C 320.544 25.858,319.543 26.014,318.571 25.397 C 315.093 23.190,310.796 24.314,308.144 28.125 L 307.651 28.833 306.200 28.835 C 304.694 28.837,303.797 29.035,302.470 29.659 L 301.689 30.026 301.053 29.320 C 300.064 28.222,298.931 27.797,297.159 27.862 C 296.164 27.898,295.635 27.848,295.458 27.701 C 295.317 27.584,294.802 27.441,294.313 27.383 C 293.516 27.289,293.336 27.187,292.563 26.389 C 291.711 25.509,290.572 24.844,289.905 24.837 C 289.654 24.834,289.458 24.608,289.187 24.008 C 287.814 20.970,283.731 19.358,280.454 20.560 C 278.389 21.316,276.452 22.759,275.750 24.061 C 275.472 24.578,275.366 24.633,274.471 24.727 C 273.278 24.851,272.496 25.235,271.449 26.211 C 270.495 27.100,268.585 27.429,267.940 26.816 C 267.353 26.257,266.556 26.000,265.411 26.000 C 264.293 26.000,264.286 25.997,263.507 25.208 C 260.353 22.013,254.283 23.440,251.661 27.992 C 251.051 29.053,250.833 29.225,250.833 28.649 C 250.833 26.890,247.537 23.342,245.250 22.642 C 241.678 21.547,239.184 21.957,236.942 24.006 L 236.011 24.857 235.294 24.364 C 234.469 23.796,233.542 23.502,232.573 23.501 C 232.035 23.500,231.795 23.395,231.406 22.988 C 229.644 21.146,226.577 20.830,224.067 22.233 C 223.160 22.740,223.176 22.746,222.662 21.718 C 220.071 16.532,215.835 14.591,210.753 16.262 C 208.921 16.864,206.294 18.344,205.816 19.044 C 205.761 19.124,205.242 19.035,204.664 18.845 C 203.334 18.409,202.037 18.406,200.823 18.837 C 200.085 19.099,199.774 19.136,199.426 19.004 C 197.969 18.450,194.134 18.988,192.901 19.920 L 192.386 20.310 191.485 19.863 C 190.660 19.455,190.418 19.417,188.640 19.422 L 186.698 19.427 186.500 18.755 C 185.745 16.191,183.579 13.476,181.547 12.545 C 178.436 11.121,175.082 11.865,172.779 14.489 C 172.379 14.945,171.001 15.154,170.911 14.773 C 169.852 10.281,162.405 8.256,158.678 11.446 L 158.026 12.004 157.434 11.655 C 155.410 10.461,149.467 10.845,148.861 12.208 C 148.831 12.277,148.687 12.333,148.542 12.333 C 148.245 12.333,145.813 14.784,145.376 15.524 C 145.211 15.803,144.996 15.970,144.865 15.920 C 144.741 15.872,144.248 15.833,143.770 15.833 L 142.901 15.833 142.705 14.792 C 142.004 11.067,140.581 8.614,137.752 6.253 C 133.455 2.668,124.608 4.256,121.055 9.250 C 120.484 10.053,119.465 10.284,118.784 9.765 C 115.626 7.356,111.152 8.379,108.279 12.167 L 107.583 13.083 106.500 13.029 C 105.165 12.961,103.876 13.212,102.644 13.778 L 101.705 14.210 101.081 13.519 C 100.064 12.393,98.684 11.907,96.926 12.056 C 95.922 12.141,95.667 12.106,95.246 11.829 C 94.929 11.620,94.464 11.502,93.958 11.501 C 93.523 11.500,93.167 11.439,93.167 11.363 C 93.167 10.839,91.320 9.418,90.275 9.138 C 89.604 8.959,89.433 8.829,89.233 8.350 C 87.127 3.310,79.357 3.083,75.992 7.964 C 75.452 8.746,75.403 8.775,74.286 8.951 C 73.103 9.137,72.102 9.690,71.165 10.676 C 70.460 11.418,68.537 11.470,67.549 10.774 C 66.910 10.323,66.647 10.248,65.532 10.198 C 64.383 10.146,64.207 10.092,63.833 9.682 C 62.202 7.889,59.945 7.314,57.074 7.958 C 56.439 8.101,56.138 8.231,54.924 8.888 C 53.725 9.537,51.333 12.145,51.333 12.804 C 51.333 12.889,51.221 13.053,51.083 13.167 C 50.875 13.340,50.833 13.317,50.833 13.034 C 50.833 11.530,48.294 8.318,46.333 7.343 C 43.011 5.689,39.151 6.067,36.865 8.269 C 36.133 8.974,35.941 9.084,35.760 8.903 C 35.192 8.335,34.201 7.950,33.099 7.869 C 32.065 7.793,31.900 7.731,31.485 7.258 C 29.819 5.361,26.308 5.058,23.822 6.597 L 23.228 6.965 22.594 5.774 C 21.233 3.218,19.702 1.602,17.746 0.655 L 16.392 0.000 14.238 0.015 C 12.632 0.027,11.829 0.110,11.083 0.343 " stroke="none" fill="#fbdbd3" fill-rule="evenodd"></path><path id="path2" d="M12.384 1.665 C 10.553 2.051,8.371 3.227,6.766 4.693 L 5.733 5.635 5.325 5.306 C 3.954 4.203,2.288 4.028,0.875 4.838 C 0.394 5.114,-0.000 5.448,-0.000 5.580 C -0.000 5.750,0.247 5.666,0.856 5.288 C 2.273 4.407,3.926 4.600,5.205 5.797 L 5.659 6.222 6.559 5.371 C 9.752 2.351,13.968 1.142,16.693 2.464 C 18.682 3.429,20.876 6.240,21.751 8.946 C 22.129 10.113,22.232 10.115,23.884 8.994 C 26.927 6.930,29.123 7.194,30.851 9.833 C 31.093 10.203,31.162 10.222,31.567 10.038 C 32.953 9.406,34.861 10.350,35.820 12.143 C 36.105 12.675,36.257 12.591,36.835 11.580 C 40.039 5.981,47.936 7.981,49.199 14.711 C 49.371 15.628,49.458 15.815,49.664 15.711 C 49.803 15.641,50.444 15.589,51.088 15.597 L 52.260 15.610 52.712 14.507 C 54.192 10.896,58.241 8.740,60.980 10.105 C 61.897 10.562,63.081 11.852,63.269 12.599 C 63.396 13.107,63.579 13.103,64.197 12.583 C 65.286 11.667,66.892 12.291,67.735 13.958 C 68.063 14.608,68.290 14.648,68.433 14.079 C 68.649 13.216,70.014 12.872,71.061 13.418 C 71.767 13.786,71.951 13.728,72.069 13.101 C 72.321 11.759,74.312 10.627,75.861 10.944 C 76.578 11.091,76.708 11.077,76.773 10.849 C 78.346 5.351,86.489 4.922,87.687 10.274 L 87.890 11.184 88.778 11.073 C 90.134 10.903,91.333 11.791,91.768 13.287 C 92.050 14.259,92.167 14.322,92.788 13.833 C 93.627 13.173,95.167 13.775,95.167 14.763 C 95.167 15.126,95.517 15.046,96.014 14.570 C 97.532 13.116,100.187 14.549,100.491 16.987 C 100.612 17.953,100.804 17.973,101.456 17.087 C 102.722 15.366,106.089 14.462,107.759 15.396 C 108.714 15.929,108.833 15.936,108.835 15.458 C 108.840 14.301,111.090 11.830,112.918 10.975 C 114.831 10.080,117.225 10.650,118.412 12.284 C 119.010 13.107,119.146 13.138,119.679 12.567 C 120.237 11.970,120.876 11.667,121.575 11.667 C 122.009 11.667,122.167 11.595,122.167 11.397 C 122.167 10.902,123.333 9.532,124.464 8.699 C 131.856 3.253,140.051 7.335,140.878 16.875 C 141.078 19.183,141.109 19.232,141.923 18.517 C 142.879 17.678,144.331 17.685,145.542 18.535 C 145.982 18.844,146.005 18.844,146.092 18.554 C 147.614 13.464,155.243 10.909,157.724 14.657 C 158.281 15.498,158.375 15.498,158.755 14.656 C 160.757 10.217,168.536 11.451,169.110 16.299 C 169.247 17.456,169.378 17.622,169.814 17.186 C 170.474 16.526,171.662 16.833,172.153 17.792 C 172.431 18.334,172.568 18.268,173.188 17.292 C 175.181 14.158,177.840 13.100,180.543 14.366 C 182.890 15.466,184.985 19.114,184.997 22.125 C 185.000 22.946,185.141 22.996,185.781 22.402 C 187.306 20.989,191.033 21.171,191.851 22.700 C 192.083 23.134,192.254 23.083,193.306 22.268 C 195.268 20.747,197.686 20.325,199.235 21.233 L 199.984 21.671 200.713 21.157 C 202.036 20.225,203.700 20.342,205.005 21.460 L 205.692 22.047 206.554 21.218 C 208.435 19.409,210.336 18.379,212.665 17.907 C 216.754 17.079,219.525 19.221,221.895 25.042 C 222.203 25.798,222.497 25.828,223.309 25.188 C 226.489 22.685,229.073 22.838,230.840 25.637 C 231.054 25.976,231.141 26.001,231.553 25.845 C 232.988 25.299,234.500 25.942,235.519 27.529 C 236.157 28.523,236.141 28.524,236.780 27.457 C 240.078 21.943,247.581 23.547,249.098 30.090 C 249.246 30.728,249.394 31.341,249.426 31.453 C 249.471 31.606,249.637 31.593,250.102 31.398 C 250.597 31.191,250.860 31.176,251.433 31.320 C 252.327 31.545,252.333 31.545,252.333 31.287 C 252.333 30.760,253.528 28.662,254.322 27.793 C 257.230 24.613,261.446 24.793,263.169 28.171 C 263.565 28.948,263.600 28.957,264.158 28.431 C 264.559 28.052,264.962 27.939,265.762 27.982 C 266.250 28.008,267.500 29.126,267.774 29.782 C 268.049 30.440,268.288 30.488,268.433 29.913 C 268.651 29.040,270.095 28.696,271.180 29.257 C 271.777 29.566,271.940 29.488,272.085 28.825 C 272.416 27.320,274.639 26.321,276.474 26.852 C 276.617 26.894,276.792 26.626,276.963 26.105 C 277.841 23.419,282.103 21.386,284.569 22.476 C 286.230 23.211,287.127 24.222,287.672 25.973 L 287.966 26.917 288.798 26.861 C 290.196 26.768,291.479 27.774,291.852 29.254 C 292.052 30.051,292.173 30.144,292.496 29.754 C 293.097 29.031,294.468 29.256,294.977 30.161 C 295.429 30.965,295.395 30.960,296.109 30.333 C 297.639 28.990,300.244 30.390,300.463 32.674 C 300.570 33.784,300.669 33.800,301.482 32.836 C 302.972 31.068,306.537 30.227,307.989 31.299 C 308.606 31.755,308.760 31.692,308.904 30.927 C 309.245 29.109,312.435 26.459,314.500 26.277 C 315.995 26.146,318.833 27.719,318.833 28.679 C 318.833 28.976,319.279 28.829,319.679 28.401 C 320.232 27.809,320.875 27.500,321.554 27.500 C 322.042 27.500,322.139 27.433,322.222 27.042 C 322.633 25.113,326.885 22.580,330.443 22.145 C 336.083 21.455,340.449 26.026,340.931 33.125 C 341.049 34.857,341.259 35.262,341.655 34.522 C 342.122 33.650,343.817 33.434,345.097 34.083 C 346.073 34.578,346.166 34.589,346.168 34.208 C 346.171 33.704,347.127 32.222,348.162 31.115 C 350.942 28.143,356.058 27.819,357.755 30.508 C 358.254 31.299,358.310 31.280,358.985 30.084 C 361.292 25.997,369.151 27.690,369.165 32.278 C 369.168 33.224,369.304 33.381,369.790 32.999 C 370.614 32.350,371.934 32.776,372.384 33.835 C 372.472 34.042,372.525 34.031,372.703 33.766 C 374.962 30.411,376.420 29.457,378.904 29.713 C 381.998 30.033,384.986 34.035,384.998 37.875 C 385.000 38.808,385.007 38.810,385.801 38.173 C 387.504 36.808,389.983 36.848,391.641 38.266 L 392.320 38.848 393.247 38.093 C 395.326 36.400,397.902 36.029,399.530 37.188 C 399.978 37.507,400.000 37.508,400.000 37.214 C 400.000 35.613,395.081 35.931,393.135 37.658 L 392.433 38.280 391.758 37.764 C 390.151 36.538,388.215 36.387,386.392 37.346 C 385.246 37.949,385.334 37.967,385.331 37.125 C 385.328 36.054,384.949 34.840,384.143 33.324 C 381.406 28.170,376.082 27.801,373.073 32.557 L 372.598 33.308 372.043 32.820 C 371.453 32.302,370.264 32.136,369.882 32.518 C 369.747 32.653,369.647 32.457,369.508 31.789 C 368.486 26.863,361.282 25.542,358.640 29.795 L 358.302 30.341 357.685 29.706 C 354.806 26.738,348.602 28.547,346.250 33.041 L 345.781 33.937 345.182 33.625 C 344.285 33.157,342.350 33.269,341.761 33.823 L 341.333 34.225 341.333 32.884 C 341.333 27.881,338.064 23.145,333.757 21.908 C 329.984 20.825,324.042 23.139,322.083 26.455 C 321.878 26.803,321.578 26.999,321.026 27.147 C 320.603 27.260,320.004 27.545,319.696 27.780 L 319.137 28.206 318.646 27.611 C 316.183 24.622,310.295 26.180,308.749 30.230 C 308.518 30.834,308.387 30.989,308.183 30.901 C 306.029 29.968,303.334 30.500,301.644 32.190 C 300.883 32.950,300.833 32.964,300.833 32.408 C 300.833 30.335,297.853 28.727,296.048 29.827 L 295.513 30.154 295.178 29.682 C 294.651 28.943,293.991 28.742,293.078 29.043 L 292.320 29.292 292.077 28.709 C 291.943 28.388,291.833 28.074,291.833 28.011 C 291.833 27.852,291.016 27.106,290.443 26.743 C 290.127 26.542,289.685 26.449,289.109 26.465 L 288.248 26.487 287.967 25.532 C 287.249 23.097,284.622 21.383,282.229 21.789 C 280.005 22.168,277.633 23.793,276.842 25.482 L 276.455 26.308 275.433 26.302 C 273.783 26.293,272.233 27.206,271.831 28.425 C 271.628 29.039,271.511 29.111,271.210 28.810 C 270.798 28.398,269.064 28.544,268.552 29.034 L 268.081 29.485 267.817 29.026 C 267.108 27.791,265.430 27.222,264.293 27.832 L 263.674 28.164 263.433 27.699 C 261.260 23.497,255.181 24.562,252.655 29.587 L 251.983 30.924 250.875 30.912 L 249.767 30.900 249.628 30.325 C 247.931 23.286,239.362 21.187,236.533 27.118 C 236.283 27.642,236.000 27.848,236.000 27.506 C 236.000 26.320,233.067 24.833,231.730 25.341 C 231.355 25.484,231.243 25.464,231.115 25.235 C 229.659 22.633,226.702 22.304,223.759 24.415 L 222.490 25.326 222.301 24.871 C 220.134 19.658,217.977 17.539,214.667 17.373 C 211.768 17.227,208.809 18.433,206.455 20.722 C 205.792 21.366,205.654 21.436,205.477 21.223 C 204.551 20.107,202.019 19.836,200.696 20.711 L 200.013 21.163 199.381 20.790 C 197.877 19.901,194.948 20.375,193.214 21.787 L 192.300 22.531 191.858 22.108 C 190.388 20.700,187.479 20.573,185.864 21.846 L 185.417 22.199 185.309 21.058 C 184.612 13.675,176.892 10.892,173.147 16.673 L 172.620 17.486 172.022 16.993 C 171.393 16.474,170.596 16.348,169.993 16.670 C 169.721 16.816,169.661 16.773,169.580 16.379 C 169.194 14.502,168.620 13.640,167.035 12.556 C 164.151 10.583,160.502 11.155,158.712 13.861 L 158.279 14.516 157.598 13.859 C 154.602 10.971,148.521 12.777,146.272 17.222 L 145.802 18.150 145.195 17.825 C 144.281 17.336,142.728 17.377,141.940 17.912 L 141.333 18.323 141.333 17.155 C 141.333 12.641,138.824 8.435,135.050 6.621 L 133.583 5.917 131.583 5.925 C 127.831 5.941,123.976 7.774,122.321 10.327 C 121.964 10.879,121.622 11.208,121.344 11.268 C 120.576 11.434,120.016 11.697,119.591 12.091 L 119.173 12.478 118.711 11.936 C 116.076 8.839,110.824 10.071,108.841 14.252 C 108.624 14.709,108.432 15.103,108.415 15.127 C 108.398 15.151,108.093 15.049,107.736 14.900 C 106.112 14.222,102.991 14.988,101.669 16.390 C 100.978 17.123,100.833 17.147,100.833 16.533 C 100.833 14.357,97.703 12.920,95.770 14.208 C 95.514 14.379,95.442 14.373,95.371 14.176 C 95.038 13.251,93.933 12.954,92.542 13.415 C 92.254 13.510,92.167 13.475,92.167 13.263 C 92.167 12.059,90.518 10.667,89.092 10.666 L 88.250 10.666 87.952 9.653 C 87.312 7.473,85.061 5.916,82.705 6.024 C 80.258 6.135,77.567 7.875,76.737 9.883 L 76.440 10.600 75.506 10.533 C 73.995 10.423,72.435 11.280,71.888 12.521 C 71.673 13.008,71.532 13.145,71.341 13.056 C 70.594 12.706,69.063 12.802,68.553 13.231 L 68.050 13.654 67.837 13.257 C 67.178 12.025,65.182 11.379,64.142 12.060 C 63.705 12.347,63.701 12.345,63.342 11.765 C 60.861 7.750,54.946 8.926,52.559 13.908 L 51.997 15.080 50.859 15.093 L 49.721 15.106 49.513 14.095 C 48.182 7.613,39.763 5.681,36.644 11.141 C 36.167 11.976,36.202 11.976,35.581 11.121 C 34.519 9.659,33.461 9.239,31.567 9.530 C 31.315 9.568,31.059 9.374,30.649 8.833 C 28.997 6.653,26.204 6.687,23.275 8.924 L 22.492 9.521 22.234 8.886 C 19.898 3.125,16.673 0.761,12.384 1.665 " stroke="none" fill="#0b0a09" fill-rule="evenodd"></path></g></svg>