<svg id="svg" version="1.1" xmlns="http://www.w3.org/2000/svg" xmlns:xlink="http://www.w3.org/1999/xlink" width="400" height="279.41847206385404" viewBox="0, 0, 400,279.41847206385404"><g id="svgg"><path id="path0" d="M95.988 1.885 C 94.572 2.285,92.833 3.577,92.833 4.229 C 92.833 4.713,92.454 4.832,91.929 4.512 C 87.971 2.094,83.785 4.439,81.835 10.167 C 81.538 11.037,81.269 11.779,81.236 11.814 C 81.204 11.850,80.724 11.460,80.171 10.948 C 77.704 8.664,74.889 8.349,72.595 10.100 C 71.757 10.740,70.538 12.446,70.388 13.189 L 70.299 13.628 68.935 13.543 C 67.209 13.435,66.486 13.758,65.485 15.084 C 64.619 16.231,64.703 16.256,63.943 14.625 C 62.696 11.949,59.740 9.900,57.182 9.940 C 54.221 9.985,50.556 11.783,48.989 13.958 C 48.501 14.636,48.167 14.856,48.167 14.500 C 48.167 14.207,45.784 14.317,44.402 14.673 L 43.083 15.013 42.669 14.465 C 39.511 10.287,34.218 10.703,30.562 15.417 L 30.044 16.083 29.349 15.694 C 28.643 15.299,27.356 15.248,26.387 15.576 C 26.056 15.689,25.993 15.600,25.678 14.580 C 24.214 9.842,20.805 7.860,18.191 10.228 L 17.799 10.583 17.358 10.003 C 15.908 8.097,14.691 7.737,13.433 8.842 C 12.729 9.460,12.582 9.456,12.037 8.809 C 10.607 7.109,8.922 6.867,7.434 8.145 C 7.172 8.370,7.104 8.377,7.037 8.183 C 5.997 5.196,3.783 3.079,1.026 2.436 L 0.000 2.196 0.000 140.765 L 0.000 279.333 200.000 279.333 L 400.000 279.333 400.000 148.083 C 400.000 75.896,399.942 16.833,399.872 16.833 C 399.619 16.833,398.505 17.680,398.332 18.003 C 398.036 18.556,397.594 18.401,397.253 17.625 C 396.795 16.580,395.059 14.907,394.191 14.673 C 391.225 13.874,387.336 16.818,386.754 20.303 C 386.679 20.752,386.561 20.991,386.442 20.938 C 383.474 19.623,381.663 19.644,379.756 21.014 C 378.901 21.628,378.737 21.574,378.577 20.626 C 377.823 16.169,373.706 13.953,370.021 16.023 C 368.939 16.631,368.889 16.591,368.656 14.919 C 368.249 11.991,367.122 10.275,364.622 8.777 C 359.647 5.797,351.823 9.578,352.029 14.861 L 352.083 16.251 350.708 16.250 L 349.332 16.250 349.143 15.667 C 346.864 8.616,339.111 8.961,337.235 16.196 C 337.085 16.776,336.936 17.341,336.905 17.452 C 336.865 17.596,336.593 17.543,335.966 17.268 C 332.745 15.855,328.553 16.559,327.200 18.740 C 326.306 20.181,326.362 20.129,326.125 19.750 C 324.590 17.294,322.139 16.845,320.300 18.684 C 319.305 19.680,319.372 19.679,318.636 18.694 C 316.996 16.498,313.328 15.413,311.134 16.476 C 310.710 16.681,310.321 16.958,310.270 17.091 C 309.987 17.828,309.712 17.280,309.619 15.792 C 309.464 13.324,308.721 11.881,307.229 11.154 C 306.091 10.599,303.604 10.568,302.889 11.101 L 302.419 11.451 301.778 11.027 C 300.864 10.422,299.402 10.328,298.603 10.821 C 297.979 11.207,297.667 11.018,297.667 10.254 C 297.667 6.535,289.954 5.663,288.160 9.179 C 287.963 9.566,287.727 9.823,287.615 9.773 C 282.403 7.462,279.057 9.240,277.070 15.375 C 276.517 17.085,276.539 17.076,275.397 15.996 C 272.100 12.878,267.892 13.623,265.964 17.667 C 265.567 18.501,265.348 18.789,265.167 18.721 C 263.453 18.073,260.909 19.115,260.416 20.668 C 260.281 21.094,259.842 21.224,259.723 20.872 C 258.637 17.656,255.675 15.174,252.745 15.026 C 249.817 14.879,246.062 16.676,244.197 19.119 C 243.683 19.792,243.591 19.849,243.414 19.608 C 243.089 19.163,240.343 19.385,238.796 19.980 C 238.372 20.144,238.308 20.106,237.835 19.419 C 235.175 15.553,229.629 15.832,226.260 20.002 L 225.329 21.155 224.556 20.744 C 223.674 20.275,223.002 20.230,222.025 20.574 C 221.649 20.707,221.313 20.763,221.277 20.699 C 221.242 20.636,221.056 20.058,220.863 19.417 C 219.615 15.250,216.418 13.202,213.914 14.966 C 212.966 15.634,212.972 15.635,212.426 14.847 C 211.251 13.151,209.896 12.901,208.442 14.111 L 207.966 14.507 206.902 13.511 C 205.437 12.141,204.542 12.002,203.129 12.927 C 202.337 13.444,202.395 13.462,201.985 12.589 C 200.294 8.991,196.392 8.423,193.621 11.372 C 192.536 12.526,191.500 14.431,191.500 15.272 C 191.500 15.900,191.236 15.996,190.619 15.592 C 188.998 14.531,186.334 14.671,184.531 15.911 C 183.554 16.583,183.487 16.542,183.174 15.083 C 182.255 10.784,177.696 8.779,174.310 11.184 C 173.728 11.598,173.571 11.389,173.418 10.000 C 172.615 2.680,164.013 0.114,158.575 5.571 C 157.111 7.041,156.750 7.875,156.750 9.790 C 156.750 11.259,156.735 11.324,156.417 11.207 C 156.105 11.093,155.423 11.092,154.540 11.203 C 154.216 11.243,154.084 11.068,153.589 9.934 C 150.675 3.266,143.781 4.142,141.872 11.423 C 141.654 12.254,141.524 12.497,141.334 12.431 C 141.196 12.384,140.521 12.147,139.833 11.904 C 136.700 10.797,132.849 11.820,131.651 14.078 C 131.166 14.993,131.007 15.012,130.486 14.221 C 129.110 12.131,126.478 11.902,124.871 13.733 C 124.136 14.570,124.077 14.567,123.402 13.646 C 121.550 11.124,116.899 10.126,115.150 11.876 C 114.503 12.523,114.470 12.470,114.318 10.510 C 114.074 7.349,112.933 6.025,110.077 5.586 C 109.294 5.466,107.874 5.744,107.488 6.094 C 107.252 6.308,107.105 6.278,106.235 5.837 C 105.068 5.245,104.138 5.189,103.417 5.667 C 102.764 6.099,102.500 6.087,102.498 5.625 C 102.488 3.199,98.811 1.086,95.988 1.885 M104.294 4.951 C 104.501 4.991,104.801 4.990,104.960 4.948 C 105.120 4.906,104.950 4.874,104.583 4.875 C 104.217 4.877,104.086 4.911,104.294 4.951 M147.627 4.951 C 147.834 4.991,148.134 4.990,148.294 4.948 C 148.453 4.906,148.283 4.874,147.917 4.875 C 147.550 4.877,147.420 4.911,147.627 4.951 M360.375 7.286 C 360.627 7.324,361.040 7.324,361.292 7.286 C 361.544 7.248,361.337 7.217,360.833 7.217 C 360.329 7.217,360.123 7.248,360.375 7.286 M156.209 9.417 C 156.211 9.783,156.245 9.914,156.285 9.706 C 156.324 9.499,156.323 9.199,156.281 9.040 C 156.239 8.880,156.207 9.050,156.209 9.417 M304.375 10.286 C 304.627 10.324,305.040 10.324,305.292 10.286 C 305.544 10.248,305.337 10.217,304.833 10.217 C 304.329 10.217,304.123 10.248,304.375 10.286 M37.627 11.118 C 37.834 11.158,38.134 11.156,38.294 11.115 C 38.453 11.073,38.283 11.040,37.917 11.042 C 37.550 11.044,37.420 11.078,37.627 11.118 M208.327 13.591 C 208.209 13.733,207.994 13.803,207.848 13.748 C 207.635 13.666,207.624 13.688,207.794 13.859 C 207.963 14.030,208.075 14.000,208.372 13.702 C 208.575 13.499,208.696 13.333,208.641 13.333 C 208.586 13.333,208.445 13.449,208.327 13.591 M187.377 14.453 C 187.631 14.491,188.006 14.490,188.211 14.451 C 188.416 14.411,188.208 14.380,187.750 14.381 C 187.292 14.382,187.124 14.415,187.377 14.453 M372.792 14.784 C 372.998 14.824,373.335 14.824,373.542 14.784 C 373.748 14.745,373.579 14.712,373.167 14.712 C 372.754 14.712,372.585 14.745,372.792 14.784 M331.794 16.118 C 332.001 16.158,332.301 16.156,332.460 16.115 C 332.620 16.073,332.450 16.040,332.083 16.042 C 331.717 16.044,331.586 16.078,331.794 16.118 M398.254 17.329 C 398.090 17.511,397.879 17.611,397.785 17.554 C 397.684 17.491,397.667 17.532,397.742 17.653 C 397.850 17.828,398.667 17.299,398.667 17.054 C 398.667 16.931,398.535 17.019,398.254 17.329 M263.627 18.118 C 263.834 18.158,264.134 18.156,264.294 18.115 C 264.453 18.073,264.283 18.040,263.917 18.042 C 263.550 18.044,263.420 18.078,263.627 18.118 M241.961 18.954 C 242.261 18.991,242.711 18.990,242.961 18.952 C 243.212 18.914,242.967 18.884,242.417 18.885 C 241.867 18.886,241.662 18.917,241.961 18.954 " stroke="none" fill="#6c54cb" fill-rule="evenodd"></path><path id="path1" d="M94.083 0.403 C 93.625 0.614,92.895 1.103,92.461 1.489 C 92.027 1.874,91.604 2.148,91.521 2.096 C 90.978 1.761,89.053 1.546,87.885 1.691 C 84.734 2.083,82.273 4.043,80.746 7.379 L 80.328 8.292 79.372 7.794 C 77.244 6.685,74.849 6.569,73.029 7.487 C 72.875 7.565,72.551 7.720,72.309 7.833 C 71.535 8.193,70.233 9.453,69.565 10.491 L 68.917 11.497 67.917 11.500 C 67.204 11.502,66.659 11.623,66.017 11.922 C 65.523 12.152,65.105 12.320,65.088 12.295 C 61.417 6.715,53.362 6.515,48.146 11.875 C 47.739 12.293,47.591 12.333,46.475 12.334 C 45.801 12.335,44.958 12.416,44.601 12.515 C 44.006 12.681,43.923 12.662,43.601 12.288 C 40.331 8.495,34.612 8.657,30.250 12.667 C 29.434 13.417,29.397 13.432,28.468 13.368 L 27.520 13.304 26.767 11.777 C 24.960 8.111,21.894 6.415,18.907 7.429 C 18.128 7.693,17.808 7.600,17.330 6.969 C 16.840 6.321,14.689 5.997,13.549 6.400 C 12.907 6.626,12.865 6.617,12.069 6.089 C 10.950 5.346,9.765 5.059,8.814 5.301 C 8.370 5.414,8.062 5.426,8.029 5.330 C 7.261 3.117,3.955 0.883,0.542 0.272 L 0.000 0.175 0.000 0.969 L 0.000 1.764 1.190 2.043 C 3.718 2.636,5.660 4.203,6.838 6.601 L 7.338 7.619 8.114 7.226 C 9.518 6.515,10.771 6.805,12.062 8.139 L 12.707 8.806 13.353 8.338 C 14.781 7.304,16.307 7.718,17.529 9.472 L 17.800 9.860 18.449 9.431 C 21.165 7.633,24.516 9.627,25.934 13.884 C 26.288 14.949,26.419 15.168,26.642 15.074 C 27.346 14.780,28.465 14.802,29.193 15.124 L 29.935 15.453 31.122 14.170 C 34.738 10.262,40.172 10.113,42.762 13.851 C 43.130 14.382,43.300 14.500,43.572 14.416 C 44.710 14.061,46.082 13.844,47.219 13.839 C 48.454 13.834,48.543 13.808,48.936 13.341 C 51.399 10.413,56.641 8.709,59.529 9.897 C 61.597 10.748,63.419 12.390,64.277 14.178 C 64.833 15.335,64.811 15.326,65.292 14.584 C 66.007 13.480,66.856 13.083,68.507 13.083 L 69.956 13.083 70.495 12.044 C 72.514 8.152,77.196 7.377,80.364 10.412 C 81.145 11.160,81.077 11.192,81.507 9.875 C 83.415 4.038,87.350 1.891,92.167 4.058 C 92.341 4.137,92.485 4.018,92.641 3.664 C 94.188 0.170,101.614 0.801,102.683 4.517 C 102.799 4.920,102.906 5.270,102.921 5.294 C 102.936 5.318,103.239 5.216,103.595 5.068 C 104.407 4.728,105.452 4.851,106.437 5.402 L 107.155 5.803 107.779 5.485 C 110.790 3.950,114.467 6.348,114.775 10.047 C 114.835 10.761,114.928 11.319,114.983 11.288 C 117.794 9.714,122.033 10.760,123.878 13.482 L 124.148 13.881 124.974 13.139 C 126.752 11.539,128.840 11.625,130.435 13.363 L 131.121 14.109 131.545 13.406 C 132.935 11.106,137.864 10.214,140.801 11.733 L 141.302 11.992 141.504 11.121 C 143.244 3.617,151.803 2.837,154.156 9.968 L 154.387 10.667 155.323 10.667 L 156.259 10.667 156.268 9.458 C 156.284 7.295,157.517 5.445,160.056 3.773 C 165.848 -0.038,173.143 3.168,173.912 9.863 L 174.021 10.810 174.552 10.497 C 178.070 8.423,182.462 10.418,183.595 14.604 C 183.921 15.807,183.881 15.774,184.474 15.352 C 185.891 14.346,188.484 14.090,190.063 14.801 C 191.097 15.266,191.105 15.265,191.228 14.653 C 191.619 12.695,193.726 10.159,195.531 9.473 C 198.316 8.415,200.634 9.244,202.127 11.833 C 202.365 12.246,202.574 12.605,202.592 12.632 C 202.610 12.658,202.878 12.534,203.187 12.356 C 204.590 11.548,205.845 11.787,207.203 13.121 C 207.931 13.836,208.012 13.875,208.287 13.634 C 209.670 12.420,211.180 12.646,212.584 14.277 L 213.084 14.859 214.059 14.346 C 216.855 12.875,219.843 14.845,221.239 19.081 C 221.507 19.893,221.694 20.227,221.854 20.175 C 222.675 19.905,224.191 19.988,224.749 20.333 C 225.070 20.531,225.333 20.622,225.333 20.534 C 225.333 19.989,227.605 17.966,229.002 17.267 C 232.691 15.420,236.036 16.046,238.057 18.961 L 238.515 19.623 239.170 19.397 C 240.151 19.059,242.137 18.787,242.950 18.878 C 243.645 18.957,243.702 18.925,244.722 17.926 C 249.694 13.050,256.929 13.703,259.530 19.261 L 260.038 20.347 260.535 19.671 C 261.369 18.537,262.312 18.100,263.923 18.100 L 265.286 18.100 265.678 17.276 C 267.557 13.318,271.951 12.431,275.414 15.310 C 276.465 16.184,276.349 16.242,276.922 14.553 C 278.686 9.355,283.087 6.893,286.998 8.916 C 287.629 9.242,287.583 9.257,288.001 8.581 C 290.116 5.159,296.890 5.931,298.010 9.721 C 298.220 10.435,298.233 10.446,298.654 10.226 C 299.341 9.868,300.637 9.950,301.637 10.416 C 302.470 10.804,302.555 10.813,303.021 10.572 C 306.098 8.981,309.718 11.355,310.074 15.195 L 310.193 16.473 310.742 16.150 C 312.938 14.853,317.294 16.005,318.976 18.327 L 319.451 18.983 320.017 18.394 C 321.677 16.667,323.914 16.636,325.568 18.317 L 326.386 19.148 326.847 18.423 C 328.355 16.045,332.791 15.332,336.345 16.897 C 336.552 16.989,336.648 16.835,336.805 16.152 C 338.077 10.643,342.717 8.407,346.698 11.384 C 348.054 12.399,349.667 14.725,349.667 15.667 C 349.667 15.783,349.779 15.826,349.930 15.768 C 350.075 15.712,350.488 15.667,350.847 15.667 L 351.500 15.667 351.500 14.673 C 351.500 9.970,358.068 5.974,363.195 7.557 C 366.475 8.570,369.167 11.946,369.167 15.048 C 369.167 15.643,369.224 15.844,369.375 15.777 C 374.046 13.720,377.839 15.272,378.853 19.655 C 379.149 20.933,379.136 20.912,379.462 20.625 C 380.733 19.508,383.835 19.161,385.534 19.945 L 386.317 20.307 386.570 19.438 C 388.156 13.983,394.384 12.313,397.195 16.589 L 397.879 17.629 398.603 17.077 C 399.001 16.773,399.478 16.476,399.663 16.418 C 399.934 16.332,400.000 16.167,400.000 15.572 C 400.000 14.754,399.672 14.610,398.756 15.028 C 398.363 15.207,398.273 15.164,397.613 14.475 C 394.269 10.984,388.439 12.303,385.865 17.132 L 385.347 18.104 384.152 17.942 C 383.019 17.789,381.235 17.937,380.469 18.247 C 380.254 18.334,380.102 18.191,379.825 17.639 C 378.113 14.228,374.796 12.602,371.139 13.380 C 370.546 13.506,370.525 13.494,370.421 12.963 C 369.871 10.161,367.089 7.218,363.996 6.166 C 361.563 5.338,357.839 5.598,355.635 6.751 C 353.446 7.895,351.679 9.578,350.704 11.447 L 350.049 12.702 349.701 12.142 C 348.063 9.507,344.440 7.901,341.643 8.570 C 338.837 9.241,337.119 10.894,335.763 14.228 C 335.536 14.786,335.450 14.856,335.125 14.746 C 332.884 13.993,328.131 14.842,326.607 16.268 C 326.323 16.534,326.088 16.644,326.024 16.541 C 325.303 15.389,321.645 15.211,320.058 16.251 C 319.697 16.488,319.627 16.467,318.904 15.916 C 318.165 15.352,316.509 14.500,316.151 14.500 C 316.057 14.500,315.607 14.378,315.152 14.229 C 314.553 14.034,313.933 13.979,312.912 14.033 C 311.703 14.096,311.500 14.069,311.500 13.843 C 311.500 10.592,306.792 7.767,303.180 8.849 C 302.674 9.000,302.391 8.972,301.508 8.682 C 300.923 8.490,300.168 8.333,299.828 8.333 C 299.296 8.333,299.148 8.241,298.745 7.660 C 296.519 4.447,290.681 3.880,287.687 6.585 C 287.046 7.164,286.972 7.189,286.461 7.010 C 282.646 5.671,278.347 7.807,276.227 12.096 C 275.632 13.301,275.455 13.498,275.257 13.178 C 274.390 11.775,268.883 11.755,267.129 13.148 C 266.086 13.976,265.432 14.661,264.898 15.486 L 264.269 16.458 263.129 16.564 C 262.502 16.622,261.662 16.824,261.261 17.012 L 260.533 17.354 259.304 16.136 C 255.674 12.536,251.470 12.017,246.584 14.565 C 245.562 15.098,243.167 16.945,243.167 17.200 C 243.167 17.273,242.692 17.333,242.111 17.333 C 241.531 17.333,240.649 17.414,240.153 17.512 L 239.250 17.690 238.341 16.846 C 237.842 16.381,237.298 15.958,237.133 15.906 C 236.968 15.854,236.833 15.750,236.833 15.675 C 236.833 15.495,235.313 14.910,234.193 14.659 C 231.647 14.088,226.991 15.859,225.228 18.068 C 224.840 18.554,224.717 18.614,224.376 18.485 C 224.157 18.401,223.702 18.333,223.364 18.332 C 222.756 18.330,222.743 18.316,222.058 16.867 C 220.296 13.146,217.631 11.770,213.750 12.578 C 213.345 12.662,213.139 12.585,212.667 12.172 C 211.672 11.302,210.527 11.038,209.228 11.379 L 208.151 11.662 207.324 11.093 C 206.408 10.462,205.194 10.215,204.005 10.416 C 203.320 10.532,203.301 10.521,202.404 9.529 C 200.866 7.830,200.307 7.593,197.833 7.590 C 194.569 7.585,191.997 9.178,190.575 12.086 L 190.140 12.975 188.361 12.892 C 187.129 12.834,186.323 12.879,185.736 13.039 L 184.888 13.270 184.355 12.242 C 183.582 10.753,181.851 9.078,180.583 8.596 C 178.989 7.989,177.772 7.887,176.302 8.238 C 175.258 8.488,175.167 8.460,175.167 7.884 C 175.167 6.114,172.267 2.662,169.814 1.514 C 167.064 0.226,161.898 0.316,160.274 1.680 C 160.169 1.768,159.633 2.125,159.083 2.474 C 157.580 3.426,156.178 4.925,155.500 6.303 C 154.825 7.677,154.808 7.686,154.339 6.927 C 152.633 4.165,148.696 2.714,145.680 3.734 C 143.070 4.617,141.960 5.758,140.514 9.042 C 140.322 9.477,140.147 9.832,140.124 9.831 C 140.102 9.829,139.783 9.720,139.417 9.588 C 138.541 9.273,136.265 9.269,135.235 9.582 C 134.785 9.718,134.277 9.831,134.107 9.832 C 133.672 9.834,131.829 10.738,131.353 11.183 C 131.004 11.509,130.914 11.526,130.603 11.329 C 129.044 10.341,126.938 10.191,125.347 10.955 C 124.362 11.427,124.324 11.433,124.006 11.137 C 122.660 9.882,120.102 9.000,117.812 9.000 C 116.357 9.000,116.166 8.966,116.164 8.708 C 116.153 7.303,114.673 5.129,113.196 4.347 C 112.033 3.731,108.803 3.433,107.726 3.843 C 107.430 3.955,107.140 3.962,106.923 3.863 C 105.977 3.431,105.577 3.333,104.753 3.333 C 103.997 3.333,103.839 3.280,103.748 2.994 C 102.974 0.554,97.146 -1.008,94.083 0.403 " stroke="none" fill="#fbdbd3" fill-rule="evenodd"></path><path id="path2" d="M95.250 1.711 C 94.277 2.073,92.648 3.409,92.469 3.992 C 92.405 4.199,92.310 4.194,91.807 3.955 C 87.385 1.857,83.452 4.184,81.510 10.048 L 81.135 11.180 80.395 10.498 C 77.036 7.402,72.501 8.165,70.458 12.170 L 69.999 13.070 68.624 13.085 C 66.980 13.103,66.478 13.327,65.479 14.486 L 64.772 15.307 64.178 14.112 C 61.389 8.502,54.143 8.073,49.134 13.221 L 48.514 13.859 46.965 13.907 C 46.114 13.933,44.952 14.078,44.385 14.229 L 43.353 14.504 42.135 13.286 C 38.791 9.945,33.392 10.766,30.382 15.076 L 30.038 15.568 29.316 15.242 C 28.547 14.895,27.250 14.854,26.681 15.159 C 26.391 15.314,26.324 15.223,25.993 14.207 C 24.444 9.465,21.349 7.660,18.214 9.670 C 17.868 9.891,17.807 9.862,17.253 9.215 C 15.822 7.543,14.744 7.413,12.974 8.695 C 12.741 8.864,12.584 8.779,11.974 8.152 C 10.631 6.773,9.281 6.506,7.866 7.341 C 7.550 7.528,7.282 7.658,7.271 7.632 C 5.945 4.525,3.864 2.653,1.085 2.068 C 0.536 1.952,0.060 1.885,0.027 1.918 C -0.146 2.090,0.247 2.308,0.912 2.407 C 3.439 2.786,5.998 5.200,7.037 8.183 C 7.104 8.377,7.172 8.370,7.434 8.145 C 8.922 6.867,10.607 7.109,12.037 8.809 C 12.582 9.456,12.729 9.460,13.433 8.842 C 14.691 7.737,15.908 8.097,17.358 10.003 L 17.799 10.583 18.191 10.228 C 20.805 7.860,24.214 9.842,25.678 14.580 C 25.993 15.600,26.056 15.689,26.387 15.576 C 27.356 15.248,28.643 15.299,29.349 15.694 L 30.044 16.083 30.562 15.417 C 34.218 10.703,39.511 10.287,42.669 14.465 L 43.083 15.013 44.402 14.673 C 45.784 14.317,48.167 14.207,48.167 14.500 C 48.167 14.856,48.501 14.636,48.989 13.958 C 50.556 11.783,54.221 9.985,57.182 9.940 C 59.740 9.900,62.696 11.949,63.943 14.625 C 64.703 16.256,64.619 16.231,65.485 15.084 C 66.486 13.758,67.209 13.435,68.935 13.543 L 70.299 13.628 70.388 13.189 C 70.538 12.446,71.757 10.740,72.595 10.100 C 74.889 8.349,77.704 8.664,80.171 10.948 C 80.724 11.460,81.204 11.850,81.236 11.814 C 81.269 11.779,81.538 11.037,81.835 10.167 C 83.787 4.434,87.971 2.094,91.937 4.517 C 92.502 4.861,92.683 4.774,92.904 4.052 C 93.064 3.530,94.085 2.686,95.159 2.189 C 98.143 0.809,102.486 2.842,102.498 5.625 C 102.500 6.087,102.764 6.099,103.417 5.667 C 104.138 5.189,105.068 5.245,106.235 5.837 C 107.105 6.278,107.252 6.308,107.488 6.094 C 107.874 5.744,109.294 5.466,110.077 5.586 C 112.933 6.025,114.074 7.349,114.318 10.510 C 114.470 12.470,114.503 12.523,115.150 11.876 C 116.899 10.126,121.550 11.124,123.402 13.646 C 124.077 14.567,124.136 14.570,124.871 13.733 C 126.478 11.902,129.110 12.131,130.486 14.221 C 131.007 15.012,131.166 14.993,131.651 14.078 C 132.849 11.820,136.700 10.797,139.833 11.904 C 140.521 12.147,141.196 12.384,141.334 12.431 C 141.524 12.497,141.654 12.254,141.872 11.423 C 143.781 4.142,150.675 3.266,153.589 9.934 C 154.084 11.068,154.216 11.243,154.540 11.203 C 155.423 11.092,156.105 11.093,156.417 11.207 C 156.735 11.324,156.750 11.259,156.750 9.790 C 156.750 7.875,157.111 7.041,158.575 5.571 C 164.013 0.114,172.615 2.680,173.418 10.000 C 173.571 11.389,173.728 11.598,174.310 11.184 C 177.696 8.779,182.255 10.784,183.174 15.083 C 183.487 16.542,183.554 16.583,184.531 15.911 C 186.334 14.671,188.998 14.531,190.619 15.592 C 191.236 15.996,191.500 15.900,191.500 15.272 C 191.500 14.431,192.536 12.526,193.621 11.372 C 196.392 8.423,200.294 8.991,201.985 12.589 C 202.395 13.462,202.337 13.444,203.129 12.927 C 204.542 12.002,205.437 12.141,206.902 13.511 L 207.966 14.507 208.442 14.111 C 209.896 12.901,211.251 13.151,212.426 14.847 C 212.972 15.635,212.966 15.634,213.914 14.966 C 216.418 13.202,219.615 15.250,220.863 19.417 C 221.056 20.058,221.242 20.636,221.277 20.699 C 221.313 20.763,221.649 20.707,222.025 20.574 C 223.002 20.230,223.674 20.275,224.556 20.744 L 225.329 21.155 226.260 20.002 C 229.629 15.832,235.175 15.553,237.835 19.419 C 238.308 20.106,238.372 20.144,238.796 19.980 C 240.343 19.385,243.089 19.163,243.414 19.608 C 243.591 19.849,243.683 19.792,244.197 19.119 C 246.062 16.676,249.817 14.879,252.745 15.026 C 255.675 15.174,258.637 17.656,259.723 20.872 C 259.842 21.224,260.281 21.094,260.416 20.668 C 260.909 19.115,263.453 18.073,265.167 18.721 C 265.348 18.789,265.567 18.501,265.964 17.667 C 267.892 13.623,272.100 12.878,275.397 15.996 C 276.539 17.076,276.517 17.085,277.070 15.375 C 279.057 9.240,282.403 7.462,287.615 9.773 C 287.727 9.823,287.963 9.566,288.160 9.179 C 289.954 5.663,297.667 6.535,297.667 10.254 C 297.667 11.018,297.979 11.207,298.603 10.821 C 299.402 10.328,300.864 10.422,301.778 11.027 L 302.419 11.451 302.889 11.101 C 303.604 10.568,306.091 10.599,307.229 11.154 C 308.721 11.881,309.464 13.324,309.619 15.792 C 309.712 17.280,309.987 17.828,310.270 17.091 C 310.321 16.958,310.710 16.681,311.134 16.476 C 313.328 15.413,316.996 16.498,318.636 18.694 C 319.372 19.679,319.305 19.680,320.300 18.684 C 322.139 16.845,324.590 17.294,326.125 19.750 C 326.362 20.129,326.306 20.181,327.200 18.740 C 328.553 16.559,332.745 15.855,335.966 17.268 C 336.593 17.543,336.865 17.596,336.905 17.452 C 336.936 17.341,337.085 16.776,337.235 16.196 C 339.111 8.961,346.864 8.616,349.143 15.667 L 349.332 16.250 350.708 16.250 L 352.083 16.251 352.029 14.861 C 351.823 9.578,359.647 5.797,364.622 8.777 C 367.122 10.275,368.249 11.991,368.656 14.919 C 368.889 16.591,368.939 16.631,370.021 16.023 C 373.706 13.953,377.823 16.169,378.577 20.626 C 378.737 21.574,378.901 21.628,379.756 21.014 C 381.663 19.644,383.474 19.623,386.442 20.938 C 386.561 20.991,386.679 20.752,386.754 20.303 C 387.336 16.818,391.225 13.874,394.191 14.673 C 395.059 14.907,396.795 16.580,397.253 17.625 C 397.610 18.438,397.995 18.537,398.398 17.921 C 398.547 17.694,398.968 17.338,399.333 17.129 C 399.698 16.921,399.998 16.663,399.999 16.557 C 400.001 16.224,399.370 16.509,398.596 17.191 L 397.854 17.844 397.567 17.240 C 395.815 13.547,391.292 13.112,388.435 16.361 C 387.572 17.343,386.500 19.325,386.500 19.939 C 386.500 20.425,386.414 20.427,385.396 19.962 C 383.956 19.305,381.726 19.413,380.286 20.208 C 379.664 20.552,379.129 20.833,379.097 20.833 C 379.064 20.833,378.988 20.500,378.927 20.092 C 378.293 15.867,373.320 13.481,369.732 15.680 L 369.214 15.998 369.106 14.836 C 368.511 8.435,360.974 5.125,355.422 8.827 C 352.909 10.503,351.583 12.490,351.583 14.580 L 351.583 15.750 350.651 15.755 L 349.719 15.761 349.093 14.434 C 346.042 7.964,338.873 8.869,336.898 15.973 C 336.585 17.096,336.550 17.121,335.811 16.738 C 332.955 15.261,327.638 16.489,326.659 18.852 L 326.448 19.362 325.807 18.612 C 324.233 16.772,321.451 16.707,319.962 18.476 C 319.415 19.127,319.473 19.136,318.898 18.304 C 317.404 16.142,313.084 14.974,310.863 16.132 L 310.180 16.488 310.098 15.952 C 310.053 15.658,309.970 15.005,309.914 14.503 C 309.563 11.375,306.055 9.380,303.033 10.589 C 302.422 10.834,302.352 10.826,301.488 10.424 C 300.462 9.947,299.475 9.885,298.767 10.254 C 298.501 10.393,298.271 10.486,298.255 10.461 C 298.239 10.437,298.098 10.072,297.942 9.650 C 296.525 5.822,290.289 5.223,288.025 8.698 L 287.633 9.299 286.691 8.860 C 282.832 7.060,278.815 9.416,276.990 14.550 C 276.690 15.393,276.421 16.113,276.392 16.149 C 276.364 16.186,275.996 15.898,275.576 15.511 C 272.204 12.403,267.569 13.343,265.569 17.542 L 265.272 18.167 263.962 18.167 C 262.367 18.167,261.663 18.478,260.691 19.615 L 260.014 20.407 259.753 19.783 C 257.251 13.795,249.703 12.941,244.652 18.075 L 243.750 18.992 242.333 18.999 C 241.068 19.005,239.579 19.247,238.810 19.573 C 238.610 19.657,238.395 19.492,238.012 18.959 C 235.246 15.107,229.190 15.505,225.987 19.748 L 225.301 20.657 224.622 20.310 C 223.947 19.966,222.530 19.928,221.816 20.235 C 221.601 20.328,221.492 20.146,221.259 19.300 C 220.015 14.787,216.071 12.506,213.462 14.792 C 213.199 15.023,213.111 14.974,212.433 14.220 C 211.075 12.710,209.772 12.479,208.570 13.534 L 207.980 14.052 207.478 13.442 C 206.341 12.063,204.707 11.633,203.311 12.345 C 202.939 12.535,202.618 12.666,202.599 12.637 C 202.579 12.607,202.319 12.194,202.020 11.717 C 199.251 7.303,193.059 8.810,191.388 14.303 C 191.230 14.824,191.091 15.268,191.079 15.291 C 191.067 15.313,190.726 15.168,190.321 14.969 C 188.764 14.205,186.068 14.374,184.655 15.323 C 183.794 15.901,183.889 15.950,183.582 14.770 C 182.459 10.462,178.466 8.562,174.639 10.514 L 174.007 10.836 173.930 10.460 C 173.888 10.253,173.808 9.681,173.752 9.190 C 173.388 5.986,170.369 2.949,166.917 2.314 C 162.013 1.412,156.333 5.238,156.333 9.443 L 156.333 10.667 155.597 10.667 C 155.192 10.667,154.742 10.712,154.597 10.768 C 154.435 10.830,154.333 10.780,154.333 10.638 C 154.333 10.026,153.109 7.920,152.258 7.069 C 148.364 3.175,143.445 4.899,141.669 10.780 L 141.308 11.977 140.612 11.681 C 137.284 10.261,132.654 11.275,131.401 13.698 L 131.146 14.191 130.448 13.449 C 128.736 11.631,126.255 11.633,124.657 13.453 C 124.177 14.000,123.850 14.015,123.836 13.491 C 123.828 13.219,122.358 11.971,121.518 11.523 C 119.516 10.456,117.159 10.277,115.586 11.074 L 114.875 11.434 114.768 10.258 C 114.539 7.746,113.379 6.010,111.583 5.491 C 110.421 5.155,108.392 5.184,107.719 5.545 C 107.204 5.822,107.165 5.819,106.362 5.415 C 105.411 4.938,104.088 4.860,103.356 5.238 C 102.897 5.476,102.896 5.475,102.704 4.759 C 101.992 2.096,98.288 0.582,95.250 1.711 " stroke="none" fill="#100e0d" fill-rule="evenodd"></path></g></svg>