<svg id="svg" version="1.1" xmlns="http://www.w3.org/2000/svg" xmlns:xlink="http://www.w3.org/1999/xlink" width="400" height="562.8278221208666" viewBox="0, 0, 400,562.8278221208666"><g id="svgg"><path id="path0" d="M27.865 2.987 C 28.417 3.037,29.262 3.036,29.742 2.986 C 30.223 2.935,29.771 2.895,28.739 2.896 C 27.707 2.897,27.314 2.938,27.865 2.987 M21.979 4.031 C 21.229 4.293,20.657 4.547,20.707 4.598 C 20.757 4.648,21.529 4.433,22.423 4.121 C 23.316 3.809,23.889 3.554,23.695 3.555 C 23.501 3.556,22.729 3.770,21.979 4.031 M25.119 4.244 C 20.909 5.069,16.361 7.614,13.028 11.008 C 11.393 12.673,11.358 12.681,10.342 11.633 C 7.869 9.082,3.989 8.856,1.019 11.091 L 0.015 11.848 0.007 287.449 L 0.000 563.050 200.000 563.050 L 400.000 563.050 400.000 303.248 L 400.000 43.446 398.922 42.732 C 395.834 40.686,390.428 41.388,386.995 44.281 C 384.327 46.529,384.649 46.447,383.389 45.210 C 380.211 42.088,374.612 41.972,371.441 44.963 C 370.197 46.136,369.971 46.021,369.971 44.213 C 369.971 38.242,365.775 30.926,361.149 28.828 C 355.587 26.307,350.573 28.225,346.511 34.428 C 345.080 36.612,344.918 36.694,344.295 35.537 C 343.265 33.625,340.464 33.155,339.312 34.701 C 338.866 35.299,338.533 34.733,338.280 32.945 C 336.856 22.890,322.586 20.298,317.610 29.189 C 316.615 30.967,316.450 30.998,315.576 29.578 C 312.327 24.299,302.321 24.650,296.756 30.239 C 294.244 32.762,291.945 36.339,292.255 37.243 C 292.380 37.608,291.470 37.640,291.246 37.278 C 290.093 35.413,285.231 35.483,283.414 37.391 C 281.939 38.941,281.845 38.753,281.667 33.900 C 281.121 19.057,269.833 9.747,256.891 13.465 C 251.329 15.063,244.044 20.477,244.287 22.832 C 244.335 23.294,244.206 23.355,242.933 23.466 C 241.277 23.611,240.775 23.861,239.221 25.310 C 238.149 26.311,238.041 26.360,237.799 25.956 C 236.182 23.264,233.831 21.677,230.457 20.999 C 226.548 20.215,219.275 25.528,217.805 30.241 C 217.281 31.925,217.467 31.875,215.500 30.850 C 211.948 28.999,206.425 30.425,203.057 34.062 C 201.310 35.949,201.177 35.945,200.974 34.000 C 200.709 31.468,198.854 28.945,196.848 28.387 C 194.880 27.841,192.654 28.264,191.861 29.337 C 191.147 30.303,190.709 30.203,190.029 28.922 C 188.969 26.923,186.979 26.455,185.354 27.823 C 184.407 28.619,184.011 28.545,183.822 27.536 C 183.382 25.187,182.166 23.537,180.099 22.483 C 179.161 22.004,178.882 21.994,176.317 22.343 C 175.929 22.395,175.784 22.118,175.367 20.528 C 173.924 15.030,168.666 11.690,163.516 13.000 C 158.696 14.226,154.326 17.975,153.554 21.546 C 153.409 22.217,153.312 22.306,152.880 22.165 C 149.327 21.005,145.084 22.961,144.144 26.194 C 143.736 27.595,143.528 27.681,142.294 26.952 C 140.292 25.771,137.483 26.394,136.892 28.151 C 136.503 29.305,136.168 29.266,135.516 27.992 C 133.807 24.651,130.435 23.345,128.359 25.220 C 127.172 26.293,127.042 26.266,126.349 24.809 C 122.071 15.812,109.609 18.697,105.112 29.726 C 104.543 31.121,104.392 31.311,103.902 31.254 C 101.114 30.925,100.652 30.930,99.925 31.293 C 98.866 31.821,98.905 31.858,98.556 29.971 C 97.385 23.622,93.322 18.738,88.036 17.325 C 81.638 15.615,77.133 17.469,73.624 23.257 C 72.338 25.377,72.258 25.380,70.894 23.352 C 68.786 20.219,66.157 19.066,63.368 20.050 C 62.249 20.444,61.859 20.356,61.529 19.635 C 59.029 14.168,52.991 13.889,46.487 18.939 C 44.707 20.322,44.389 20.233,43.619 18.145 C 39.677 7.448,33.281 2.642,25.119 4.244 M19.413 5.061 C 18.504 5.554,18.607 5.725,19.531 5.255 C 20.415 4.805,20.572 4.688,20.274 4.701 C 20.155 4.707,19.768 4.868,19.413 5.061 M35.660 5.088 C 35.982 5.317,36.933 6.137,37.771 6.909 L 39.296 8.314 37.944 6.904 C 37.201 6.128,36.250 5.309,35.833 5.083 C 35.102 4.687,35.095 4.687,35.660 5.088 M5.105 8.612 C 5.397 8.668,5.819 8.666,6.044 8.607 C 6.268 8.548,6.029 8.502,5.513 8.505 C 4.997 8.508,4.814 8.556,5.105 8.612 M13.475 9.208 L 12.786 9.971 13.548 9.282 C 13.968 8.903,14.311 8.560,14.311 8.519 C 14.311 8.338,14.117 8.497,13.475 9.208 M10.539 10.616 C 11.194 11.359,11.542 11.420,11.995 10.871 C 12.289 10.516,12.272 10.510,11.799 10.804 C 11.335 11.093,11.213 11.067,10.626 10.549 L 9.971 9.971 10.539 10.616 M262.933 11.665 C 263.352 11.717,264.038 11.717,264.457 11.665 C 264.877 11.613,264.534 11.571,263.695 11.571 C 262.856 11.571,262.513 11.613,262.933 11.665 M165.097 11.900 C 165.514 11.951,166.253 11.952,166.740 11.901 C 167.226 11.851,166.886 11.808,165.982 11.807 C 165.079 11.806,164.681 11.848,165.097 11.900 M260.120 11.896 C 260.412 11.952,260.834 11.950,261.058 11.891 C 261.283 11.833,261.044 11.787,260.528 11.789 C 260.012 11.792,259.828 11.840,260.120 11.896 M257.947 12.199 C 257.349 12.456,257.966 12.456,258.768 12.199 C 259.240 12.048,259.263 12.010,258.886 12.005 C 258.628 12.001,258.205 12.089,257.947 12.199 M268.134 12.450 C 268.833 12.699,269.446 12.861,269.495 12.812 C 269.605 12.702,267.468 11.958,267.114 11.982 C 266.975 11.991,267.434 12.202,268.134 12.450 M42.392 13.252 C 42.606 13.702,42.824 14.029,42.875 13.978 C 42.982 13.870,42.270 12.434,42.109 12.434 C 42.050 12.434,42.177 12.802,42.392 13.252 M169.404 12.521 C 169.645 12.737,171.026 13.372,171.026 13.267 C 171.026 13.132,169.726 12.434,169.474 12.434 C 169.382 12.434,169.350 12.473,169.404 12.521 M271.202 13.712 C 271.202 13.777,271.519 13.993,271.906 14.194 C 272.293 14.394,272.610 14.505,272.610 14.440 C 272.610 14.376,272.293 14.159,271.906 13.959 C 271.519 13.759,271.202 13.648,271.202 13.712 M54.018 14.482 C 54.501 14.532,55.293 14.532,55.777 14.482 C 56.261 14.431,55.865 14.390,54.897 14.390 C 53.930 14.390,53.534 14.431,54.018 14.482 M155.769 16.364 L 154.487 17.713 155.836 16.430 C 156.578 15.725,157.185 15.118,157.185 15.081 C 157.185 14.907,156.960 15.110,155.769 16.364 M59.824 16.026 C 59.824 16.067,60.167 16.410,60.587 16.789 L 61.349 17.478 60.660 16.716 C 60.018 16.005,59.824 15.845,59.824 16.026 M61.836 18.475 C 62.183 19.023,62.558 19.472,62.668 19.472 C 62.779 19.472,62.718 19.287,62.532 19.062 C 61.374 17.650,61.247 17.544,61.836 18.475 M246.206 18.592 L 245.279 19.589 246.276 18.662 C 246.824 18.152,247.273 17.703,247.273 17.665 C 247.273 17.488,247.068 17.665,246.206 18.592 M75.543 19.120 C 74.973 19.701,74.559 20.176,74.624 20.176 C 74.688 20.176,75.207 19.701,75.777 19.120 C 76.347 18.540,76.760 18.065,76.696 18.065 C 76.631 18.065,76.112 18.540,75.543 19.120 M120.812 18.891 C 121.387 19.070,121.894 19.181,121.938 19.137 C 122.058 19.017,120.573 18.531,120.141 18.549 C 119.934 18.558,120.236 18.712,120.812 18.891 M66.862 18.936 C 67.056 19.008,67.425 19.163,67.683 19.282 C 68.145 19.495,68.145 19.492,67.697 19.133 C 67.447 18.933,67.077 18.777,66.876 18.787 C 66.560 18.803,66.558 18.823,66.862 18.936 M94.545 20.293 C 95.246 21.003,95.873 21.584,95.937 21.584 C 96.002 21.584,95.481 21.003,94.780 20.293 C 94.079 19.584,93.453 19.003,93.388 19.003 C 93.324 19.003,93.845 19.584,94.545 20.293 M153.235 19.834 C 152.842 20.697,152.917 20.881,153.342 20.097 C 153.540 19.730,153.659 19.387,153.605 19.333 C 153.551 19.279,153.385 19.505,153.235 19.834 M175.993 19.472 C 176.005 20.082,176.374 21.083,176.382 20.528 C 176.386 20.270,176.299 19.848,176.188 19.589 C 176.064 19.302,175.989 19.257,175.993 19.472 M68.856 19.977 C 69.750 20.651,71.093 21.997,71.630 22.757 C 72.013 23.300,72.013 23.285,71.623 22.555 C 71.188 21.739,69.446 20.066,68.622 19.671 C 68.364 19.547,68.469 19.685,68.856 19.977 M229.270 20.110 C 229.627 20.164,230.155 20.162,230.443 20.106 C 230.732 20.051,230.440 20.007,229.795 20.008 C 229.150 20.010,228.913 20.056,229.270 20.110 M111.378 20.545 C 110.501 21.021,110.555 21.219,111.437 20.762 C 111.824 20.562,112.141 20.348,112.141 20.287 C 112.141 20.136,112.116 20.145,111.378 20.545 M226.979 20.411 C 226.382 20.667,226.998 20.667,227.801 20.411 C 228.272 20.260,228.295 20.221,227.918 20.216 C 227.660 20.212,227.238 20.300,226.979 20.411 M124.927 21.349 C 125.431 21.865,125.896 22.287,125.960 22.287 C 126.025 22.287,125.665 21.865,125.161 21.349 C 124.657 20.833,124.192 20.411,124.128 20.411 C 124.063 20.411,124.423 20.833,124.927 21.349 M224.927 21.247 C 224.314 21.566,223.812 21.880,223.812 21.944 C 223.812 22.049,226.135 20.952,226.373 20.734 C 226.664 20.470,225.901 20.740,224.927 21.247 M232.727 20.703 C 232.917 20.890,235.073 21.801,235.073 21.694 C 235.073 21.640,234.783 21.448,234.428 21.267 C 233.726 20.910,232.538 20.516,232.727 20.703 M149.152 21.046 C 149.444 21.102,149.866 21.100,150.091 21.041 C 150.315 20.982,150.076 20.936,149.560 20.939 C 149.044 20.942,148.860 20.990,149.152 21.046 M147.273 21.483 C 146.918 21.676,146.628 21.885,146.628 21.949 C 146.628 22.013,146.918 21.918,147.273 21.739 C 147.628 21.560,148.076 21.354,148.270 21.282 C 148.583 21.166,148.583 21.150,148.270 21.142 C 148.076 21.137,147.628 21.291,147.273 21.483 M176.422 21.342 C 176.422 21.410,177.256 21.466,178.276 21.466 C 179.295 21.466,180.008 21.385,179.859 21.286 C 179.564 21.089,176.422 21.140,176.422 21.342 M108.387 22.874 C 107.817 23.455,107.404 23.930,107.468 23.930 C 107.533 23.930,108.052 23.455,108.622 22.874 C 109.192 22.293,109.605 21.818,109.541 21.818 C 109.476 21.818,108.957 22.293,108.387 22.874 M180.880 21.883 C 180.880 21.928,181.223 22.216,181.642 22.523 C 182.114 22.868,182.278 22.925,182.072 22.671 C 181.760 22.287,180.880 21.705,180.880 21.883 M236.716 23.109 C 237.153 23.560,237.564 23.930,237.629 23.930 C 237.693 23.930,237.388 23.560,236.950 23.109 C 236.512 22.657,236.102 22.287,236.037 22.287 C 235.972 22.287,236.278 22.657,236.716 23.109 M126.474 23.226 C 127.153 24.279,127.156 24.282,127.154 24.027 C 127.154 23.909,126.881 23.496,126.548 23.109 L 125.944 22.405 126.474 23.226 M144.619 23.519 L 143.930 24.282 144.692 23.592 C 145.111 23.213,145.455 22.870,145.455 22.830 C 145.455 22.649,145.261 22.808,144.619 23.519 M220.396 24.692 L 219.707 25.455 220.469 24.765 C 220.889 24.387,221.232 24.043,221.232 24.003 C 221.232 23.822,221.038 23.981,220.396 24.692 M238.772 24.320 C 238.438 24.654,238.320 24.664,237.959 24.392 C 237.555 24.087,237.555 24.092,237.948 24.522 C 238.353 24.963,238.369 24.962,238.880 24.450 C 239.166 24.164,239.347 23.930,239.281 23.930 C 239.216 23.930,238.986 24.105,238.772 24.320 M134.804 25.558 C 135.204 26.017,135.690 26.633,135.885 26.926 C 136.215 27.423,136.261 27.432,136.565 27.057 C 136.785 26.786,136.795 26.713,136.597 26.832 C 136.409 26.945,135.899 26.595,135.189 25.866 C 134.577 25.238,134.404 25.099,134.804 25.558 M306.798 25.037 C 307.215 25.089,307.954 25.090,308.441 25.039 C 308.927 24.988,308.587 24.946,307.683 24.945 C 306.780 24.944,306.382 24.986,306.798 25.037 M336.178 26.804 C 336.753 27.416,337.255 27.918,337.292 27.918 C 337.468 27.918,337.282 27.707,336.246 26.735 L 335.132 25.689 336.178 26.804 M315.323 27.801 C 316.571 29.232,316.618 29.254,316.947 28.577 C 317.188 28.082,317.181 28.072,316.870 28.458 C 316.550 28.854,316.460 28.810,315.415 27.754 L 314.300 26.628 315.323 27.801 M355.831 26.914 C 356.247 26.966,356.986 26.967,357.473 26.916 C 357.960 26.865,357.619 26.823,356.716 26.822 C 355.812 26.821,355.414 26.862,355.831 26.914 M104.974 27.705 C 104.768 28.104,104.640 28.472,104.691 28.523 C 104.742 28.574,104.960 28.248,105.174 27.798 C 105.657 26.786,105.489 26.709,104.974 27.705 M194.188 27.383 C 194.605 27.435,195.344 27.436,195.831 27.385 C 196.317 27.335,195.977 27.292,195.073 27.291 C 194.170 27.290,193.772 27.332,194.188 27.383 M191.929 28.052 C 191.514 28.401,191.087 28.584,190.914 28.487 C 190.676 28.353,190.675 28.382,190.906 28.631 C 191.146 28.890,191.288 28.857,191.727 28.445 C 192.019 28.171,192.522 27.841,192.845 27.712 C 193.223 27.561,193.292 27.473,193.039 27.464 C 192.823 27.455,192.323 27.720,191.929 28.052 M197.771 27.936 C 198.352 28.199,199.196 28.751,199.648 29.163 L 200.468 29.912 199.765 29.128 C 199.060 28.343,197.586 27.444,197.018 27.454 C 196.852 27.457,197.191 27.674,197.771 27.936 M351.848 27.817 C 350.938 28.311,351.041 28.481,351.965 28.011 C 352.849 27.562,353.006 27.445,352.708 27.458 C 352.589 27.463,352.202 27.625,351.848 27.817 M361.075 27.761 C 361.482 28.084,363.384 29.017,363.274 28.840 C 363.129 28.605,361.431 27.683,361.143 27.683 C 361.052 27.683,361.022 27.718,361.075 27.761 M350.101 28.991 L 349.443 29.594 350.205 29.064 C 350.625 28.772,350.968 28.501,350.968 28.460 C 350.968 28.275,350.708 28.434,350.101 28.991 M210.792 29.209 C 211.294 29.383,214.985 29.479,214.544 29.307 C 214.287 29.206,213.284 29.125,212.317 29.126 C 211.349 29.127,210.663 29.164,210.792 29.209 M363.636 29.160 C 363.636 29.220,364.133 29.676,364.740 30.173 C 365.347 30.670,365.768 30.955,365.675 30.805 C 365.478 30.486,363.636 29.000,363.636 29.160 M348.490 30.323 L 347.801 31.085 348.563 30.396 C 349.274 29.754,349.433 29.560,349.252 29.560 C 349.212 29.560,348.869 29.903,348.490 30.323 M101.173 30.197 C 101.528 30.251,102.109 30.251,102.463 30.197 C 102.818 30.144,102.528 30.100,101.818 30.100 C 101.109 30.100,100.818 30.144,101.173 30.197 M282.534 31.906 C 282.534 32.616,282.578 32.906,282.631 32.551 C 282.685 32.196,282.685 31.616,282.631 31.261 C 282.578 30.906,282.534 31.196,282.534 31.906 M338.922 31.554 C 339.001 32.070,339.104 32.537,339.151 32.590 C 339.329 32.792,339.196 31.535,338.992 31.085 C 338.844 30.758,338.823 30.900,338.922 31.554 M203.044 32.851 C 202.246 33.668,202.100 33.739,201.957 33.378 C 201.835 33.070,201.788 33.142,201.776 33.657 L 201.760 34.352 202.933 33.196 C 203.578 32.561,204.106 32.011,204.106 31.974 C 204.106 31.803,203.903 31.971,203.044 32.851 M282.743 35.015 C 282.695 36.712,282.838 36.901,283.541 36.070 L 283.988 35.543 283.472 35.979 L 282.956 36.415 282.872 34.923 L 282.788 33.431 282.743 35.015 M344.337 34.249 C 344.968 34.922,345.145 35.004,345.392 34.738 C 345.633 34.479,345.630 34.452,345.377 34.595 C 345.182 34.706,344.784 34.521,344.321 34.107 L 343.578 33.442 344.337 34.249 M393.255 40.748 C 393.481 40.807,393.850 40.807,394.076 40.748 C 394.302 40.689,394.117 40.641,393.666 40.641 C 393.214 40.641,393.029 40.689,393.255 40.748 M370.734 42.346 C 370.736 42.862,370.784 43.046,370.840 42.754 C 370.897 42.462,370.894 42.040,370.836 41.815 C 370.777 41.591,370.731 41.830,370.734 42.346 M377.189 41.930 C 377.611 41.982,378.244 41.981,378.597 41.927 C 378.949 41.874,378.604 41.831,377.830 41.832 C 377.056 41.834,376.767 41.877,377.189 41.930 M383.988 44.341 L 384.751 45.152 385.513 44.341 L 386.276 43.530 385.513 44.213 L 384.751 44.897 383.988 44.213 L 383.226 43.530 383.988 44.341 " stroke="none" fill="#a354b3" fill-rule="evenodd"></path><path id="path1" d="M24.516 0.279 C 20.332 0.906,16.306 2.844,12.023 6.292 C 11.316 6.862,10.941 7.028,10.733 6.863 C 10.304 6.524,7.558 5.679,6.325 5.506 C 5.038 5.326,2.635 5.731,1.114 6.383 L 0.000 6.861 0.000 8.847 L 0.000 10.833 0.761 10.193 C 3.333 8.029,7.348 8.037,10.198 10.212 C 11.529 11.228,11.427 11.238,12.678 9.949 C 17.601 4.879,26.194 1.781,31.502 3.164 C 36.851 4.557,41.702 9.913,44.464 17.478 C 45.017 18.992,44.932 18.940,45.808 18.292 C 53.186 12.837,59.080 13.054,62.353 18.902 C 62.546 19.247,62.689 19.266,63.348 19.037 C 66.221 18.035,70.119 19.726,71.699 22.661 C 72.264 23.708,72.209 23.737,73.555 21.671 C 80.351 11.244,95.829 15.163,99.123 28.145 L 99.627 30.131 101.803 30.131 L 103.979 30.131 104.533 28.769 C 108.926 17.971,122.781 14.873,126.992 23.748 L 127.397 24.602 128.391 24.034 C 130.640 22.748,133.135 23.444,135.369 25.982 L 136.313 27.054 136.837 26.577 C 138.016 25.503,140.576 25.194,142.304 25.916 C 143.132 26.262,143.578 25.886,143.578 24.842 C 143.578 24.434,145.785 22.389,146.987 21.682 C 148.043 21.062,148.369 20.994,150.447 20.961 L 152.742 20.925 153.464 19.481 C 155.567 15.272,161.276 11.748,166.016 11.734 C 170.672 11.720,175.759 16.111,176.474 20.762 C 176.539 21.183,176.696 21.224,177.978 21.153 C 180.559 21.012,183.390 23.036,184.282 25.659 C 184.716 26.937,184.936 27.204,185.202 26.774 C 186.097 25.326,189.755 26.291,190.882 28.272 C 191.144 28.733,191.154 28.732,191.724 28.206 C 194.643 25.503,200.417 27.949,201.686 32.425 L 202.066 33.764 203.345 32.596 C 206.638 29.585,212.522 28.217,215.607 29.744 C 216.752 30.310,216.836 30.276,217.217 29.082 C 217.908 26.914,222.184 22.656,225.139 21.193 C 229.362 19.101,234.224 20.044,237.311 23.553 L 238.322 24.701 239.219 23.998 C 240.440 23.041,240.937 22.802,242.333 22.503 C 243.264 22.303,243.602 22.104,243.862 21.602 C 245.735 17.979,251.185 14.158,256.816 12.521 C 270.161 8.641,281.868 18.139,282.820 33.617 C 282.977 36.178,283.019 36.358,283.380 36.031 C 284.795 34.751,288.097 34.493,290.279 35.492 L 291.617 36.105 291.958 35.288 C 295.896 25.864,309.718 21.509,315.564 27.851 C 316.092 28.424,316.550 28.858,316.581 28.815 C 316.613 28.773,316.969 28.251,317.372 27.655 C 323.150 19.100,337.624 22.391,339.342 32.651 C 339.485 33.505,339.493 33.510,340.125 33.180 C 341.420 32.504,343.041 32.891,344.483 34.220 C 345.121 34.808,345.168 34.817,345.422 34.403 C 350.279 26.488,357.559 24.492,363.955 29.321 C 367.404 31.925,370.901 38.798,370.907 42.986 L 370.909 44.095 371.999 43.404 C 375.584 41.131,380.720 41.396,383.776 44.012 L 384.728 44.826 386.205 43.619 C 389.886 40.613,395.077 39.709,398.609 41.459 L 400.000 42.149 400.000 40.321 L 400.000 38.493 398.768 38.111 C 394.748 36.865,388.220 37.947,385.214 40.358 L 384.622 40.833 383.338 40.142 C 380.752 38.750,377.040 38.347,374.257 39.158 C 373.508 39.375,373.495 39.365,373.245 38.399 C 373.106 37.860,372.936 37.208,372.866 36.950 C 372.389 35.185,368.979 29.814,367.173 27.984 C 361.182 21.911,349.716 22.768,344.949 29.645 C 344.047 30.946,342.149 30.193,341.176 28.147 C 340.277 26.259,337.901 23.818,335.216 22.027 C 329.577 18.265,320.369 19.128,316.508 23.779 C 316.238 24.106,316.075 24.072,314.994 23.467 C 313.001 22.353,311.122 21.967,307.683 21.968 C 300.558 21.969,295.704 24.517,291.240 30.597 C 290.191 32.026,290.028 32.155,289.413 32.036 C 289.043 31.965,288.066 31.906,287.243 31.906 L 285.748 31.906 285.748 31.101 C 285.748 27.622,282.747 20.323,280.084 17.324 C 279.586 16.764,278.737 15.777,278.197 15.132 C 272.360 8.160,260.747 6.557,250.969 11.375 C 248.057 12.809,243.337 16.696,242.100 18.676 C 241.756 19.228,241.287 19.524,240.177 19.889 L 238.710 20.373 237.185 19.347 C 230.539 14.873,222.829 16.831,216.372 24.633 L 215.110 26.158 212.906 26.077 C 210.138 25.975,207.545 26.506,205.179 27.660 L 203.446 28.505 202.263 27.187 C 200.236 24.930,197.052 23.866,193.762 24.345 C 191.910 24.615,191.860 24.609,190.960 24.014 C 190.292 23.572,189.622 23.374,188.488 23.283 L 186.932 23.158 185.020 21.240 C 183.040 19.254,182.042 18.638,180.093 18.203 C 179.061 17.972,178.915 17.856,178.588 17.009 C 177.329 13.747,173.403 10.348,169.535 9.170 C 163.663 7.382,155.275 10.879,151.513 16.685 C 150.804 17.779,150.724 17.830,149.697 17.833 C 147.188 17.839,144.737 19.029,142.335 21.408 C 141.225 22.506,141.187 22.522,139.637 22.545 C 138.772 22.558,137.801 22.644,137.478 22.736 C 137.014 22.869,136.644 22.719,135.704 22.014 C 134.015 20.749,132.799 20.378,130.512 20.432 L 128.589 20.477 127.386 19.161 C 122.615 13.940,112.439 14.492,106.685 20.284 C 105.213 21.765,102.287 25.769,102.287 26.301 C 102.287 26.974,101.849 26.289,101.360 24.851 C 97.459 13.394,81.718 8.716,73.707 16.632 L 72.132 18.188 70.729 17.316 C 68.928 16.196,67.380 15.718,65.550 15.718 C 64.104 15.718,64.075 15.705,62.824 14.487 C 58.736 10.506,52.063 10.150,47.104 13.648 L 46.467 14.097 45.519 12.151 C 40.966 2.806,33.986 -1.139,24.516 0.279 " stroke="none" fill="#fbdbd3" fill-rule="evenodd"></path><path id="path2" d="M25.103 3.408 C 20.560 4.342,16.091 6.751,12.755 10.065 C 11.323 11.487,11.458 11.466,10.261 10.442 C 8.385 8.836,5.318 8.232,3.068 9.026 C 1.723 9.500,0.000 10.778,0.000 11.301 C 0.000 11.875,0.065 11.857,1.278 10.931 C 4.001 8.852,7.943 9.158,10.342 11.633 C 11.358 12.681,11.393 12.673,13.028 11.008 C 19.215 4.708,27.938 2.289,33.931 5.211 C 37.600 7.000,41.364 12.025,43.619 18.145 C 44.389 20.233,44.707 20.322,46.487 18.939 C 52.991 13.889,59.029 14.168,61.529 19.635 C 61.859 20.356,62.249 20.444,63.368 20.050 C 66.157 19.066,68.786 20.219,70.894 23.352 C 72.258 25.380,72.338 25.377,73.624 23.257 C 77.133 17.469,81.638 15.615,88.036 17.325 C 93.322 18.738,97.385 23.622,98.556 29.971 C 98.905 31.858,98.866 31.821,99.925 31.293 C 100.652 30.930,101.114 30.925,103.902 31.254 C 104.392 31.311,104.543 31.121,105.112 29.726 C 109.609 18.697,122.071 15.812,126.349 24.809 C 127.042 26.266,127.172 26.293,128.359 25.220 C 129.423 24.259,131.453 24.049,132.558 24.786 C 133.733 25.570,134.953 26.892,135.516 27.992 C 136.168 29.266,136.503 29.305,136.892 28.151 C 137.483 26.394,140.292 25.771,142.294 26.952 C 143.528 27.681,143.736 27.595,144.144 26.194 C 145.084 22.961,149.327 21.005,152.880 22.165 C 153.312 22.306,153.409 22.217,153.554 21.546 C 154.326 17.975,158.696 14.226,163.516 13.000 C 168.666 11.690,173.924 15.030,175.367 20.528 C 175.784 22.118,175.929 22.395,176.317 22.343 C 178.882 21.994,179.161 22.004,180.099 22.483 C 182.166 23.537,183.382 25.187,183.822 27.536 C 184.011 28.545,184.407 28.619,185.354 27.823 C 186.979 26.455,188.969 26.923,190.029 28.922 C 190.709 30.203,191.147 30.303,191.861 29.337 C 192.654 28.264,194.880 27.841,196.848 28.387 C 198.854 28.945,200.709 31.468,200.974 34.000 C 201.177 35.945,201.310 35.949,203.057 34.062 C 206.425 30.425,211.948 28.999,215.500 30.850 C 217.467 31.875,217.281 31.925,217.805 30.241 C 219.275 25.528,226.548 20.215,230.457 20.999 C 233.831 21.677,236.182 23.264,237.799 25.956 C 238.041 26.360,238.149 26.311,239.221 25.310 C 240.775 23.861,241.277 23.611,242.933 23.466 C 244.206 23.355,244.335 23.294,244.287 22.832 C 244.133 21.339,249.032 16.833,252.786 15.014 C 267.125 8.070,281.052 17.177,281.667 33.900 C 281.845 38.753,281.939 38.941,283.414 37.391 C 285.231 35.483,290.093 35.413,291.246 37.278 C 291.470 37.640,292.380 37.608,292.255 37.243 C 291.945 36.339,294.244 32.762,296.756 30.239 C 302.321 24.650,312.327 24.299,315.576 29.578 C 316.450 30.998,316.615 30.967,317.610 29.189 C 322.586 20.298,336.856 22.890,338.280 32.945 C 338.533 34.733,338.866 35.299,339.312 34.701 C 340.464 33.155,343.265 33.625,344.295 35.537 C 344.918 36.694,345.080 36.612,346.511 34.428 C 350.573 28.225,355.587 26.307,361.149 28.828 C 365.775 30.926,369.971 38.242,369.971 44.213 C 369.971 46.021,370.197 46.136,371.441 44.963 C 374.612 41.972,380.211 42.088,383.389 45.210 C 384.649 46.447,384.327 46.529,386.995 44.281 C 390.655 41.197,396.194 40.660,399.472 43.071 C 399.982 43.446,400.000 43.439,400.000 42.881 C 400.000 41.546,396.336 40.442,393.209 40.835 C 389.868 41.255,388.596 41.794,386.247 43.786 L 384.707 45.093 383.966 44.407 C 380.807 41.479,375.110 41.160,371.750 43.723 L 370.943 44.338 370.796 42.990 C 370.124 36.800,366.564 30.709,362.293 28.444 C 356.375 25.304,350.324 27.170,346.307 33.374 C 345.140 35.175,345.148 35.171,344.381 34.338 C 343.108 32.953,341.630 32.680,339.608 33.457 C 339.395 33.538,339.217 33.133,339.015 32.106 C 338.415 29.060,336.339 26.408,333.021 24.450 C 327.675 21.297,320.886 22.693,317.576 27.626 C 317.079 28.367,316.632 29.015,316.583 29.065 C 316.534 29.115,316.009 28.617,315.416 27.958 C 309.675 21.572,295.940 25.993,291.964 35.507 L 291.615 36.342 290.455 35.741 C 288.314 34.630,285.169 34.758,283.672 36.018 C 283.292 36.337,282.934 36.598,282.874 36.598 C 282.815 36.598,282.693 35.267,282.602 33.640 C 282.041 23.538,276.668 15.520,268.504 12.602 C 260.727 9.822,248.253 14.368,244.069 21.508 C 243.676 22.178,243.312 22.522,242.996 22.522 C 242.040 22.522,240.721 23.072,239.549 23.959 L 238.351 24.866 236.888 23.383 C 231.358 17.779,221.557 20.486,217.601 28.711 L 216.744 30.493 215.762 29.968 C 212.637 28.297,206.580 29.760,203.141 33.015 L 201.825 34.262 201.679 33.200 C 201.043 28.560,194.284 25.354,191.701 28.468 C 191.242 29.022,191.075 28.960,190.531 28.037 C 189.533 26.346,187.611 25.839,185.620 26.743 C 184.885 27.077,184.590 27.123,184.526 26.914 C 183.377 23.163,180.989 21.163,177.949 21.407 L 176.465 21.526 176.081 19.997 C 175.238 16.642,173.215 14.349,169.658 12.719 C 164.566 10.386,156.051 14.084,153.486 19.741 L 152.781 21.296 151.773 21.112 C 148.637 20.538,144.673 22.579,143.671 25.283 C 143.445 25.893,143.235 26.428,143.205 26.470 C 143.174 26.513,142.873 26.367,142.535 26.145 C 140.915 25.084,137.597 25.567,136.585 27.011 C 136.281 27.445,136.237 27.425,135.622 26.577 C 133.314 23.395,130.033 22.549,127.808 24.563 C 127.576 24.772,127.361 24.900,127.330 24.847 C 127.298 24.794,127.066 24.344,126.813 23.848 C 122.415 15.215,109.976 17.702,104.981 28.213 L 103.972 30.337 101.733 30.359 L 99.493 30.381 99.339 29.443 C 98.358 23.484,93.398 17.700,88.211 16.464 C 81.400 14.842,76.780 16.641,73.307 22.267 C 72.253 23.976,72.312 23.965,71.459 22.616 C 69.610 19.688,66.459 18.273,63.674 19.118 C 63.040 19.310,62.507 19.468,62.488 19.470 C 62.469 19.471,62.117 18.947,61.705 18.306 C 58.591 13.453,53.079 13.192,46.999 17.610 C 44.684 19.292,44.980 19.300,44.341 17.537 C 40.452 6.807,33.477 1.685,25.103 3.408 " stroke="none" fill="#0b0b0a" fill-rule="evenodd"></path></g></svg>