<svg id="svg" version="1.1" xmlns="http://www.w3.org/2000/svg" xmlns:xlink="http://www.w3.org/1999/xlink" width="400" height="562.7137970353477" viewBox="0, 0, 400,562.7137970353477"><g id="svgg"><path id="path0" d="M187.222 3.836 C 184.435 4.751,182.357 6.327,181.484 8.191 C 180.843 9.560,180.828 9.565,179.526 8.813 C 176.367 6.989,171.965 6.764,168.760 8.263 C 164.327 10.336,162.231 13.099,159.911 19.930 C 158.660 23.611,158.861 23.483,157.033 21.751 C 152.079 17.059,146.797 16.307,142.126 19.629 C 140.098 21.071,137.822 24.210,137.402 26.143 C 137.238 26.899,137.188 26.908,135.522 26.488 C 132.527 25.733,130.022 26.782,127.871 29.691 C 126.404 31.674,126.246 31.738,125.772 30.539 C 123.735 25.386,120.743 22.291,115.775 20.198 C 110.365 17.919,100.246 21.505,95.676 27.320 C 94.503 28.813,94.021 29.160,94.021 28.513 C 94.021 27.519,87.453 28.142,84.600 29.406 C 84.295 29.541,83.937 29.211,83.012 27.938 C 77.457 20.301,67.166 21.041,60.310 29.571 C 58.606 31.691,58.745 31.638,57.289 30.715 C 55.968 29.877,53.683 29.738,52.041 30.395 C 50.852 30.871,50.830 30.847,50.057 28.253 C 47.401 19.344,41.034 15.690,35.605 19.961 C 34.534 20.803,34.695 20.852,33.682 19.380 C 31.256 15.859,28.865 15.266,26.119 17.504 C 24.822 18.561,24.646 18.521,22.965 16.770 C 20.243 13.935,16.689 13.508,14.801 15.789 C 14.424 16.245,13.599 16.310,13.599 15.883 C 13.599 15.721,13.079 14.534,12.444 13.246 C 9.949 8.188,6.670 5.752,0.762 4.570 L -0.000 4.418 -0.000 283.569 L 0.000 562.720 200.000 562.720 L 400.000 562.720 400.000 292.861 L 400.000 23.002 399.238 23.266 C 398.819 23.412,397.927 24.092,397.255 24.778 C 395.809 26.256,395.410 26.321,394.925 25.160 C 392.250 18.757,385.868 16.756,380.176 20.534 C 377.702 22.176,374.754 26.647,374.159 29.660 C 374.006 30.434,373.853 31.107,373.818 31.157 C 373.783 31.207,372.986 30.871,372.047 30.410 C 368.079 28.465,364.010 28.740,360.514 31.189 C 358.991 32.256,358.555 32.339,358.394 31.594 C 357.163 25.909,355.099 22.712,351.465 20.859 C 348.591 19.393,343.764 19.770,340.923 21.683 C 339.352 22.739,339.118 22.505,338.793 19.556 C 337.186 4.996,319.626 0.117,309.318 11.366 C 306.548 14.389,305.536 17.788,306.245 21.688 C 306.312 22.056,306.230 22.132,305.862 22.041 C 305.282 21.897,302.544 21.903,301.786 22.049 C 301.280 22.147,301.155 21.980,300.461 20.281 C 294.805 6.433,279.952 7.999,277.113 22.743 C 276.725 24.760,276.739 24.752,274.965 23.940 C 268.102 20.796,260.035 22.538,257.094 27.798 C 256.233 29.337,255.751 29.551,255.430 28.537 C 255.192 27.789,252.998 25.573,251.936 25.009 C 249.544 23.738,246.266 24.551,243.984 26.981 C 242.384 28.685,242.455 28.686,241.236 26.948 C 237.614 21.784,228.899 19.803,224.980 23.253 C 223.624 24.446,223.456 24.287,223.448 21.805 C 223.427 14.871,220.589 11.410,214.654 11.083 C 212.321 10.954,210.790 11.250,210.070 11.970 C 209.571 12.469,209.021 12.562,208.790 12.188 C 207.876 10.710,203.352 10.142,201.815 11.313 C 200.755 12.121,200.510 12.121,200.350 11.313 C 199.368 6.381,196.028 3.688,190.758 3.582 C 189.108 3.548,187.817 3.641,187.222 3.836 M321.864 4.393 C 322.541 4.441,323.649 4.441,324.326 4.393 C 325.003 4.346,324.449 4.307,323.095 4.307 C 321.741 4.307,321.187 4.346,321.864 4.393 M182.517 5.451 L 181.829 6.213 182.591 5.525 C 183.010 5.146,183.353 4.803,183.353 4.763 C 183.353 4.582,183.159 4.741,182.517 5.451 M203.697 9.783 C 204.118 9.835,204.752 9.834,205.104 9.781 C 205.456 9.727,205.111 9.684,204.338 9.686 C 203.564 9.687,203.276 9.731,203.697 9.783 M288.456 9.781 C 288.812 9.835,289.340 9.834,289.628 9.778 C 289.916 9.723,289.625 9.678,288.980 9.680 C 288.335 9.682,288.099 9.727,288.456 9.781 M213.301 10.251 C 213.717 10.303,214.456 10.304,214.942 10.253 C 215.428 10.202,215.088 10.160,214.185 10.159 C 213.283 10.158,212.885 10.199,213.301 10.251 M220.633 12.031 C 220.633 12.072,220.976 12.414,221.395 12.793 L 222.157 13.482 221.468 12.720 C 220.827 12.010,220.633 11.850,220.633 12.031 M297.304 13.716 C 298.004 14.426,298.630 15.006,298.694 15.006 C 298.759 15.006,298.239 14.426,297.538 13.716 C 296.838 13.007,296.212 12.427,296.147 12.427 C 296.083 12.427,296.603 13.007,297.304 13.716 M22.978 15.592 C 23.415 16.043,23.826 16.413,23.890 16.413 C 23.955 16.413,23.650 16.043,23.212 15.592 C 22.775 15.141,22.364 14.771,22.300 14.771 C 22.235 14.771,22.540 15.141,22.978 15.592 M40.152 17.284 C 40.507 17.338,41.087 17.338,41.442 17.284 C 41.797 17.230,41.506 17.186,40.797 17.186 C 40.088 17.186,39.798 17.230,40.152 17.284 M110.378 18.689 C 110.670 18.745,111.092 18.743,111.316 18.684 C 111.540 18.625,111.301 18.579,110.785 18.582 C 110.270 18.585,110.086 18.633,110.378 18.689 M140.079 20.223 L 139.390 20.985 140.152 20.296 C 140.572 19.917,140.914 19.574,140.914 19.534 C 140.914 19.353,140.721 19.512,140.079 20.223 M392.722 20.457 C 393.297 21.070,393.798 21.571,393.835 21.571 C 394.012 21.571,393.825 21.360,392.790 20.389 L 391.676 19.343 392.722 20.457 M305.218 20.516 C 305.156 20.838,305.197 21.102,305.308 21.102 C 305.419 21.102,305.510 20.838,305.510 20.516 C 305.510 20.193,305.470 19.930,305.420 19.930 C 305.371 19.930,305.280 20.193,305.218 20.516 M378.063 21.161 L 377.374 21.923 378.136 21.234 C 378.846 20.592,379.006 20.399,378.825 20.399 C 378.784 20.399,378.441 20.742,378.063 21.161 M354.865 22.274 C 355.500 22.919,356.073 23.447,356.137 23.447 C 356.202 23.447,355.735 22.919,355.100 22.274 C 354.465 21.630,353.892 21.102,353.828 21.102 C 353.763 21.102,354.230 21.630,354.865 22.274 M268.292 21.505 C 268.648 21.559,269.176 21.557,269.464 21.502 C 269.752 21.446,269.461 21.402,268.816 21.404 C 268.171 21.405,267.935 21.451,268.292 21.505 M121.923 23.095 C 122.360 23.546,122.771 23.916,122.835 23.916 C 122.900 23.916,122.595 23.546,122.157 23.095 C 121.720 22.644,121.309 22.274,121.244 22.274 C 121.180 22.274,121.485 22.644,121.923 23.095 M249.182 23.612 C 249.474 23.669,249.896 23.666,250.120 23.608 C 250.344 23.549,250.106 23.503,249.590 23.506 C 249.074 23.508,248.890 23.556,249.182 23.612 M258.016 24.912 L 257.327 25.674 258.089 24.985 C 258.799 24.344,258.959 24.150,258.778 24.150 C 258.737 24.150,258.394 24.493,258.016 24.912 M254.513 26.026 C 255.149 26.671,255.721 27.198,255.785 27.198 C 255.850 27.198,255.383 26.671,254.748 26.026 C 254.113 25.381,253.540 24.853,253.476 24.853 C 253.412 24.853,253.878 25.381,254.513 26.026 M243.717 26.084 L 242.790 27.081 243.787 26.154 C 244.335 25.644,244.783 25.196,244.783 25.158 C 244.783 24.980,244.579 25.158,243.717 26.084 M61.298 27.022 L 60.610 27.784 61.372 27.096 C 62.082 26.454,62.241 26.260,62.060 26.260 C 62.020 26.260,61.677 26.603,61.298 27.022 M94.887 26.854 C 94.525 27.172,94.322 27.433,94.436 27.433 C 94.550 27.433,94.891 27.169,95.193 26.846 C 95.894 26.101,95.739 26.104,94.887 26.854 M365.950 28.308 C 366.501 28.358,367.345 28.357,367.826 28.306 C 368.306 28.256,367.855 28.216,366.823 28.216 C 365.791 28.217,365.398 28.258,365.950 28.308 M53.869 29.243 C 54.288 29.295,54.974 29.295,55.393 29.243 C 55.812 29.191,55.469 29.149,54.631 29.149 C 53.792 29.149,53.450 29.191,53.869 29.243 " stroke="none" fill="#6c54cb" fill-rule="evenodd"></path><path id="path1" d="M185.229 0.338 C 183.438 0.841,182.052 1.618,180.601 2.931 L 179.208 4.192 177.353 3.691 C 171.705 2.167,165.421 4.194,161.232 8.890 C 160.011 10.258,157.327 15.061,157.327 15.877 C 157.327 16.397,156.852 16.440,156.205 15.980 C 152.931 13.648,148.880 13.033,144.417 14.189 C 140.898 15.101,137.353 17.873,135.362 21.271 C 134.841 22.160,134.676 22.275,133.917 22.278 C 132.519 22.285,129.877 22.931,128.507 23.602 L 127.229 24.227 126.881 23.661 C 124.357 19.550,117.183 15.531,112.294 15.488 C 106.528 15.438,99.346 18.273,95.128 22.265 L 93.137 24.150 91.378 24.150 C 90.410 24.150,88.763 24.312,87.717 24.511 L 85.816 24.871 85.086 24.040 C 78.531 16.574,67.075 16.916,59.225 24.812 C 57.695 26.351,57.566 26.430,56.882 26.233 C 56.484 26.119,55.550 26.026,54.808 26.026 C 53.849 26.026,53.458 25.937,53.458 25.717 C 53.458 23.824,49.326 17.986,46.793 16.300 C 43.379 14.029,40.166 13.505,36.811 14.674 L 35.522 15.123 33.924 13.899 C 31.561 12.089,28.841 11.644,26.288 12.650 C 25.294 13.042,25.087 13.060,24.851 12.776 C 23.311 10.920,19.086 9.784,16.491 10.528 C 15.888 10.702,15.732 10.669,15.643 10.353 C 15.489 9.810,12.866 6.367,11.921 5.468 C 9.471 3.139,3.295 0.469,0.356 0.469 C -0.305 0.469,-0.141 3.477,0.528 3.626 C 0.818 3.690,1.741 3.896,2.579 4.083 C 7.248 5.124,10.983 8.173,13.304 12.837 C 14.305 14.848,14.412 14.979,14.785 14.641 C 17.087 12.558,20.670 13.065,23.364 15.853 L 24.856 17.397 25.717 16.641 C 28.213 14.449,30.526 14.734,33.321 17.579 L 34.925 19.212 36.285 18.403 C 41.884 15.067,48.063 19.038,50.882 27.784 C 51.173 28.687,51.452 29.499,51.503 29.589 C 51.553 29.679,52.027 29.600,52.556 29.413 C 54.116 28.863,55.779 28.977,57.287 29.737 L 58.603 30.401 60.002 28.596 C 64.276 23.082,73.034 20.142,77.960 22.568 C 79.627 23.389,82.292 25.548,83.402 26.978 C 83.996 27.744,84.545 28.370,84.621 28.369 C 84.697 28.368,85.445 28.149,86.284 27.882 C 87.412 27.522,88.702 27.363,91.250 27.266 L 94.693 27.135 95.823 25.955 C 105.677 15.659,119.906 16.433,125.442 27.567 C 126.014 28.718,126.519 29.712,126.565 29.775 C 126.610 29.839,126.764 29.682,126.907 29.426 C 128.386 26.783,130.458 25.674,133.916 25.674 L 136.649 25.674 137.465 24.033 C 141.589 15.738,150.733 14.279,157.486 20.839 L 158.466 21.790 159.216 19.512 C 161.405 12.863,163.682 9.822,168.084 7.672 C 171.825 5.845,176.370 5.880,179.572 7.761 C 180.008 8.016,180.385 8.195,180.411 8.157 C 180.437 8.120,180.688 7.706,180.969 7.238 C 185.306 0.021,198.177 1.418,200.826 9.394 L 201.198 10.513 202.280 10.034 C 203.797 9.364,205.738 9.541,207.835 10.542 L 209.416 11.296 210.602 10.786 C 217.522 7.809,224.370 12.964,224.383 21.161 C 224.385 22.419,224.422 22.447,225.295 21.825 C 229.246 19.012,238.459 21.307,241.617 25.892 C 242.691 27.452,242.456 27.423,243.636 26.143 C 246.876 22.628,251.631 22.681,254.953 26.269 L 256.175 27.589 256.868 26.429 C 259.660 21.755,268.651 19.966,274.923 22.836 L 276.106 23.377 276.616 21.407 C 280.424 6.675,295.701 5.649,301.279 19.752 C 301.778 21.015,301.849 21.087,302.430 20.930 C 302.770 20.837,303.540 20.767,304.142 20.773 L 305.235 20.784 305.314 18.409 C 305.455 14.143,307.885 10.597,312.969 7.236 C 323.898 0.010,338.301 6.319,339.710 18.948 C 339.977 21.336,339.868 21.241,341.402 20.420 C 348.565 16.589,356.643 20.541,358.763 28.912 L 359.271 30.921 360.005 30.362 C 363.261 27.878,369.486 27.427,372.444 29.459 C 373.138 29.937,373.207 29.881,373.599 28.533 C 376.938 17.048,390.200 13.946,395.184 23.484 L 395.878 24.811 397.117 23.678 C 397.798 23.056,398.726 22.424,399.178 22.275 L 400.000 22.003 400.000 20.498 C 400.000 18.752,399.872 18.686,397.913 19.430 L 396.759 19.869 395.539 18.633 C 392.666 15.724,389.475 14.380,386.084 14.649 C 379.673 15.157,375.534 17.943,372.218 23.980 L 371.345 25.569 370.491 25.393 C 369.070 25.101,363.418 25.262,362.252 25.629 L 361.198 25.960 360.313 24.328 C 356.720 17.707,350.855 14.745,344.358 16.272 C 343.480 16.478,342.683 16.647,342.588 16.647 C 342.493 16.647,342.216 15.829,341.972 14.830 C 339.588 5.046,327.801 -1.125,317.116 1.817 C 311.251 3.432,305.125 8.630,303.040 13.760 L 302.515 15.051 301.743 13.915 C 298.142 8.618,292.052 5.819,286.480 6.898 C 280.737 8.011,277.532 10.876,274.763 17.375 L 274.003 19.159 272.699 18.788 C 268.415 17.569,261.384 18.751,257.482 21.345 L 255.762 22.490 254.550 21.806 C 251.347 19.998,246.353 20.088,243.666 22.001 L 242.974 22.493 242.061 21.714 C 239.041 19.134,233.187 17.018,230.256 17.448 C 229.799 17.514,228.911 17.599,228.281 17.636 L 227.137 17.702 226.806 16.413 C 226.388 14.786,225.510 12.854,224.561 11.475 C 222.208 8.054,215.411 6.163,210.541 7.573 C 209.594 7.847,209.383 7.824,208.113 7.311 C 207.254 6.964,206.023 6.702,204.891 6.624 C 203.238 6.511,203.020 6.439,202.669 5.887 C 200.947 3.181,198.724 1.350,196.091 0.469 C 194.430 -0.087,187.057 -0.175,185.229 0.338 " stroke="none" fill="#fbdbd3" fill-rule="evenodd"></path><path id="path2" d="M187.573 2.950 C 184.718 3.703,181.241 6.144,180.860 7.661 C 180.693 8.323,180.535 8.333,179.396 7.752 C 171.191 3.566,162.791 8.509,159.299 19.578 C 158.933 20.739,158.612 21.723,158.587 21.765 C 158.561 21.808,157.766 21.192,156.820 20.396 C 149.870 14.550,141.546 16.038,137.729 23.808 L 136.811 25.675 134.219 25.675 C 130.835 25.674,129.416 26.305,127.784 28.536 C 126.473 30.329,126.700 30.413,125.351 27.637 C 123.328 23.477,119.039 20.090,114.246 18.869 C 109.255 17.598,99.859 21.305,95.727 26.175 L 94.842 27.218 91.676 27.304 C 88.792 27.382,86.549 27.766,84.863 28.468 C 84.600 28.578,84.241 28.250,83.587 27.300 C 77.972 19.148,65.676 20.506,59.017 30.014 L 58.653 30.533 57.341 29.891 C 56.022 29.246,53.569 29.142,51.909 29.660 C 51.460 29.800,51.357 29.625,50.777 27.744 C 48.108 19.092,41.503 15.010,36.077 18.661 L 34.850 19.486 34.260 18.712 C 31.517 15.109,28.636 14.349,26.017 16.537 C 24.802 17.553,25.085 17.630,23.093 15.738 C 20.409 13.188,18.633 12.854,15.612 14.330 C 14.849 14.702,14.207 14.980,14.185 14.948 C 14.163 14.915,13.820 14.184,13.423 13.323 C 12.052 10.346,10.180 8.008,8.111 6.688 C 4.902 4.640,0.000 3.068,-0.000 4.087 C -0.000 4.307,0.460 4.512,1.348 4.688 C 4.824 5.374,8.135 7.195,10.092 9.496 C 11.184 10.780,13.599 15.179,13.599 15.883 C 13.599 16.310,14.424 16.245,14.801 15.789 C 16.689 13.508,20.243 13.935,22.965 16.770 C 24.646 18.521,24.822 18.561,26.119 17.504 C 28.865 15.266,31.256 15.859,33.682 19.380 C 34.695 20.852,34.534 20.803,35.605 19.961 C 41.034 15.690,47.401 19.344,50.057 28.253 C 50.830 30.847,50.852 30.871,52.041 30.395 C 53.683 29.738,55.968 29.877,57.289 30.715 C 58.745 31.638,58.606 31.691,60.310 29.571 C 67.166 21.041,77.457 20.301,83.012 27.938 C 83.937 29.211,84.295 29.541,84.600 29.406 C 87.453 28.142,94.021 27.519,94.021 28.513 C 94.021 29.160,94.503 28.813,95.676 27.320 C 100.246 21.505,110.365 17.919,115.775 20.198 C 120.743 22.291,123.735 25.386,125.772 30.539 C 126.246 31.738,126.404 31.674,127.871 29.691 C 130.022 26.782,132.527 25.733,135.522 26.488 C 137.188 26.908,137.238 26.899,137.402 26.143 C 137.822 24.210,140.098 21.071,142.126 19.629 C 146.797 16.307,152.079 17.059,157.033 21.751 C 158.861 23.483,158.660 23.611,159.911 19.930 C 162.231 13.099,164.327 10.336,168.760 8.263 C 171.965 6.764,176.367 6.989,179.526 8.813 C 180.828 9.565,180.843 9.560,181.484 8.191 C 182.850 5.275,186.062 3.634,190.403 3.634 L 193.351 3.634 195.395 4.647 C 198.294 6.082,199.680 7.947,200.350 11.313 C 200.510 12.121,200.755 12.121,201.815 11.313 C 203.352 10.142,207.876 10.710,208.790 12.188 C 209.021 12.562,209.571 12.469,210.070 11.970 C 210.790 11.250,212.321 10.954,214.654 11.083 C 220.589 11.410,223.427 14.871,223.448 21.805 C 223.456 24.287,223.624 24.446,224.980 23.253 C 228.899 19.803,237.614 21.784,241.236 26.948 C 242.455 28.686,242.384 28.685,243.984 26.981 C 246.266 24.551,249.544 23.738,251.936 25.009 C 252.998 25.573,255.192 27.789,255.430 28.537 C 255.751 29.551,256.233 29.337,257.094 27.798 C 260.035 22.538,268.102 20.796,274.965 23.940 C 276.739 24.752,276.725 24.760,277.113 22.743 C 279.952 7.999,294.805 6.433,300.461 20.281 C 301.155 21.980,301.280 22.147,301.786 22.049 C 302.544 21.903,305.282 21.897,305.862 22.041 C 306.230 22.132,306.312 22.056,306.245 21.688 C 304.023 9.465,321.306 0.341,332.059 8.059 C 336.367 11.152,338.213 14.302,338.793 19.556 C 339.118 22.505,339.352 22.739,340.923 21.683 C 343.764 19.770,348.591 19.393,351.465 20.859 C 355.099 22.712,357.163 25.909,358.394 31.594 C 358.555 32.339,358.991 32.256,360.514 31.189 C 364.010 28.740,368.079 28.465,372.047 30.410 C 372.986 30.871,373.783 31.207,373.818 31.157 C 373.853 31.107,374.006 30.434,374.159 29.660 C 374.754 26.647,377.702 22.176,380.176 20.534 C 385.868 16.756,392.250 18.757,394.925 25.160 C 395.407 26.314,395.943 26.272,397.010 24.996 C 397.483 24.430,398.349 23.735,398.935 23.451 C 400.139 22.869,400.434 22.118,399.355 22.381 C 398.560 22.575,397.062 23.584,396.490 24.311 C 395.919 25.037,395.932 25.045,395.066 23.510 C 392.293 18.596,388.086 16.839,382.819 18.394 C 379.086 19.497,374.806 24.316,373.646 28.722 C 373.477 29.367,373.244 29.872,373.128 29.844 C 373.013 29.816,372.233 29.500,371.395 29.141 C 368.040 27.703,363.297 28.262,359.966 30.486 C 359.387 30.872,359.185 30.919,359.119 30.679 C 359.072 30.505,358.852 29.625,358.632 28.722 C 356.648 20.607,348.211 16.693,341.212 20.643 C 340.536 21.025,339.942 21.336,339.891 21.336 C 339.839 21.336,339.721 20.413,339.627 19.285 C 338.569 6.579,324.010 0.121,312.839 7.403 C 307.928 10.604,305.391 14.434,305.395 18.642 L 305.398 21.022 304.297 20.917 C 303.692 20.858,302.881 20.921,302.496 21.055 L 301.796 21.299 301.043 19.430 C 298.389 12.847,292.003 8.706,286.602 10.066 C 281.698 11.301,278.667 14.770,276.765 21.322 C 276.450 22.410,276.162 23.330,276.126 23.366 C 276.089 23.403,275.432 23.175,274.665 22.860 C 267.954 20.110,259.656 21.929,256.758 26.788 C 256.111 27.873,256.320 27.930,254.706 26.227 C 251.476 22.820,247.446 22.720,244.094 25.962 C 243.264 26.765,242.571 27.398,242.555 27.369 C 239.627 21.941,231.015 19.072,225.755 21.772 L 224.428 22.452 224.273 20.546 C 223.856 15.417,222.029 12.354,218.570 10.985 C 216.605 10.207,211.832 10.188,210.402 10.952 L 209.433 11.471 207.823 10.660 C 205.826 9.654,203.261 9.505,201.929 10.317 C 200.993 10.888,200.938 10.891,200.939 10.375 C 200.952 5.618,193.388 1.416,187.573 2.950 " stroke="none" fill="#0e0c0c" fill-rule="evenodd"></path></g></svg>