<svg id="svg" version="1.1" xmlns="http://www.w3.org/2000/svg" xmlns:xlink="http://www.w3.org/1999/xlink" width="400" height="562.7137970353477" viewBox="0, 0, 400,562.7137970353477"><g id="svgg"><path id="path0" d="M246.126 2.748 C 246.542 2.800,247.281 2.801,247.767 2.750 C 248.254 2.699,247.913 2.657,247.011 2.656 C 246.108 2.655,245.710 2.697,246.126 2.748 M243.611 4.142 C 238.854 5.426,235.106 8.649,233.906 12.485 C 233.821 12.759,233.538 12.896,233.058 12.896 C 231.347 12.896,228.826 15.111,228.300 17.077 C 227.943 18.412,227.738 18.465,226.226 17.612 C 221.184 14.766,214.727 16.167,209.075 21.333 C 206.836 23.380,203.123 29.646,203.429 30.863 C 203.635 31.687,202.961 31.581,201.827 30.611 C 198.108 27.427,191.989 28.988,188.806 33.933 C 187.515 35.938,187.256 35.998,186.166 34.546 C 182.704 29.933,172.504 30.556,167.770 35.670 C 166.596 36.938,166.002 37.335,166.002 36.854 C 166.002 36.535,164.187 34.203,162.826 32.774 C 158.297 28.017,147.589 27.440,142.523 31.680 C 140.989 32.965,141.042 33.079,140.727 27.819 C 140.154 18.240,137.269 14.039,130.148 12.416 C 123.912 10.995,114.662 16.192,114.537 21.187 C 114.504 22.502,114.165 22.478,112.993 21.078 C 110.932 18.617,107.607 17.791,105.487 19.215 C 104.274 20.030,104.272 20.028,103.278 17.743 C 101.555 13.781,99.158 11.126,95.771 9.428 C 90.119 6.596,81.581 6.902,75.398 10.158 C 70.303 12.842,64.478 21.596,64.478 26.569 C 64.478 27.295,64.404 27.454,64.118 27.344 C 59.119 25.426,51.772 26.717,46.142 30.504 C 42.199 33.155,40.972 35.066,40.132 39.856 C 39.646 42.626,39.374 42.752,38.025 40.829 C 34.584 35.924,28.403 34.172,24.783 37.076 C 23.719 37.929,23.212 37.826,23.212 36.755 C 23.212 35.425,22.288 32.561,21.149 30.363 C 17.283 22.904,9.450 20.671,1.583 24.787 L -0.000 25.615 -0.000 294.167 L 0.000 562.720 200.000 562.720 L 400.000 562.720 400.000 295.311 L 400.000 27.902 399.427 27.902 C 395.314 27.902,387.215 32.766,384.381 36.939 C 382.832 39.219,382.743 39.250,381.457 37.963 C 378.473 34.979,372.379 35.366,371.142 38.619 C 370.797 39.526,370.233 39.167,369.588 37.632 C 364.998 26.699,354.543 23.425,341.524 28.845 C 336.654 30.872,328.722 36.598,328.722 38.087 C 328.722 38.918,327.987 38.354,327.174 36.900 C 324.832 32.713,320.704 31.377,317.222 33.681 C 316.091 34.430,316.076 34.417,315.138 32.005 C 312.327 24.777,305.089 21.510,296.717 23.691 C 293.822 24.445,288.566 27.418,288.139 28.542 C 287.634 29.871,287.340 28.940,287.190 25.538 C 286.802 16.732,282.815 11.273,275.264 9.209 C 270.881 8.011,261.432 9.598,261.149 11.580 C 261.018 12.501,260.393 12.082,259.616 10.551 C 257.112 5.618,249.474 2.560,243.611 4.142 M85.991 6.503 C 86.668 6.551,87.775 6.551,88.453 6.503 C 89.130 6.456,88.576 6.417,87.222 6.417 C 85.868 6.417,85.314 6.456,85.991 6.503 M100.586 11.841 C 101.287 12.550,101.912 13.130,101.977 13.130 C 102.041 13.130,101.521 12.550,100.821 11.841 C 100.120 11.131,99.494 10.551,99.430 10.551 C 99.365 10.551,99.886 11.131,100.586 11.841 M70.681 12.485 L 69.754 13.482 70.750 12.555 C 71.298 12.045,71.747 11.597,71.747 11.559 C 71.747 11.381,71.543 11.559,70.681 12.485 M229.296 13.775 L 228.488 14.654 229.367 13.846 C 230.185 13.094,230.354 12.896,230.175 12.896 C 230.136 12.896,229.740 13.291,229.296 13.775 M112.829 19.581 C 113.309 20.082,113.739 20.445,113.785 20.387 C 113.832 20.329,113.439 19.919,112.914 19.475 L 111.958 18.670 112.829 19.581 M208.074 20.926 L 207.386 21.688 208.148 21.000 C 208.567 20.621,208.910 20.278,208.910 20.237 C 208.910 20.056,208.716 20.216,208.074 20.926 M9.206 21.739 C 9.562 21.793,10.090 21.792,10.378 21.736 C 10.667 21.680,10.375 21.636,9.730 21.638 C 9.086 21.640,8.850 21.685,9.206 21.739 M287.984 22.860 C 287.987 23.376,288.035 23.560,288.091 23.268 C 288.147 22.976,288.145 22.554,288.086 22.330 C 288.027 22.106,287.981 22.345,287.984 22.860 M299.592 22.206 C 299.884 22.262,300.306 22.260,300.530 22.201 C 300.754 22.142,300.516 22.096,300.000 22.099 C 299.484 22.102,299.301 22.150,299.592 22.206 M58.324 25.492 C 58.743 25.544,59.428 25.544,59.848 25.492 C 60.267 25.440,59.924 25.397,59.086 25.397 C 58.247 25.397,57.904 25.440,58.324 25.492 M338.746 29.089 C 338.004 29.472,337.397 29.837,337.397 29.902 C 337.397 29.966,338.030 29.699,338.804 29.308 C 339.578 28.918,340.211 28.547,340.211 28.484 C 340.211 28.328,340.254 28.310,338.746 29.089 M392.732 28.957 C 392.409 29.141,392.251 29.292,392.380 29.292 C 392.509 29.292,392.878 29.141,393.200 28.957 C 393.523 28.772,393.681 28.622,393.552 28.622 C 393.423 28.622,393.054 28.772,392.732 28.957 M365.758 30.070 C 366.730 31.106,366.940 31.292,366.940 31.116 C 366.940 31.078,366.439 30.577,365.826 30.002 L 364.713 28.957 365.758 30.070 M189.790 31.008 L 188.863 32.005 189.859 31.078 C 190.786 30.216,190.964 30.012,190.786 30.012 C 190.748 30.012,190.299 30.460,189.790 31.008 M163.189 31.770 C 163.626 32.222,164.037 32.591,164.101 32.591 C 164.166 32.591,163.861 32.222,163.423 31.770 C 162.986 31.319,162.575 30.950,162.511 30.950 C 162.446 30.950,162.751 31.319,163.189 31.770 M385.463 33.880 C 384.894 34.461,384.480 34.936,384.545 34.936 C 384.609 34.936,385.128 34.461,385.698 33.880 C 386.267 33.300,386.680 32.825,386.616 32.825 C 386.551 32.825,386.033 33.300,385.463 33.880 M325.440 33.133 C 325.440 33.174,325.783 33.516,326.202 33.895 L 326.964 34.584 326.275 33.822 C 325.633 33.111,325.440 32.952,325.440 33.133 M329.788 35.393 C 329.029 36.161,328.303 36.725,328.177 36.647 C 328.042 36.563,328.022 36.626,328.128 36.799 C 328.275 37.036,331.301 34.427,331.301 34.063 C 331.301 33.894,331.075 34.093,329.788 35.393 M28.664 34.628 C 28.889 34.687,29.258 34.687,29.484 34.628 C 29.710 34.569,29.525 34.521,29.074 34.521 C 28.623 34.521,28.438 34.569,28.664 34.628 M376.263 34.867 C 376.555 34.923,376.977 34.921,377.201 34.862 C 377.425 34.803,377.186 34.758,376.671 34.760 C 376.155 34.763,375.971 34.811,376.263 34.867 M381.880 37.051 C 382.295 37.486,382.674 37.795,382.723 37.737 C 382.771 37.679,382.432 37.323,381.968 36.946 L 381.125 36.259 381.880 37.051 " stroke="none" fill="#fb6c83" fill-rule="evenodd"></path><path id="path1" d="M243.508 3.280 C 239.243 4.429,235.590 7.163,233.997 10.399 C 233.305 11.805,233.215 11.889,232.103 12.174 C 230.639 12.550,228.711 14.248,227.921 15.859 C 227.613 16.486,227.341 17.027,227.315 17.061 C 227.290 17.095,226.805 16.866,226.237 16.551 C 221.157 13.736,213.841 15.546,208.315 20.985 C 206.463 22.808,203.501 27.497,202.781 29.745 C 202.704 29.987,202.458 29.915,201.774 29.451 C 197.700 26.686,191.539 28.319,188.402 32.994 L 187.423 34.453 186.553 33.535 C 182.374 29.125,173.294 29.595,167.785 34.506 C 167.051 35.160,166.422 35.656,166.389 35.609 C 163.472 31.445,160.757 29.458,156.499 28.369 C 152.209 27.271,146.079 28.159,142.754 30.360 L 141.894 30.928 141.748 28.653 C 141.290 21.564,140.941 20.007,139.245 17.470 C 133.405 8.740,119.287 9.524,114.619 18.837 C 114.221 19.632,113.857 20.323,113.811 20.374 C 113.764 20.425,113.267 20.044,112.706 19.527 C 110.766 17.739,107.556 17.071,105.627 18.054 C 105.121 18.312,104.688 18.523,104.665 18.523 C 104.642 18.523,104.446 18.074,104.229 17.526 C 100.393 7.834,89.208 3.965,77.374 8.237 C 71.363 10.407,64.868 18.568,63.907 25.157 C 63.758 26.179,63.696 26.267,63.231 26.118 C 59.150 24.808,52.746 25.755,47.948 28.379 C 42.202 31.522,40.138 34.220,39.257 39.742 L 39.107 40.680 38.487 39.876 C 35.093 35.480,29.237 33.542,25.486 35.574 L 24.185 36.278 23.783 34.610 C 21.553 25.348,13.983 20.178,5.723 22.277 C 3.036 22.960,-0.000 24.455,0.000 25.097 C 0.000 25.371,0.079 25.560,0.176 25.516 C 0.273 25.472,0.988 25.104,1.766 24.698 C 9.467 20.680,17.320 22.975,21.149 30.363 C 22.288 32.561,23.212 35.425,23.212 36.755 C 23.212 37.826,23.719 37.929,24.783 37.076 C 28.403 34.172,34.584 35.924,38.025 40.829 C 39.374 42.752,39.646 42.626,40.132 39.856 C 40.972 35.066,42.199 33.155,46.142 30.504 C 51.772 26.717,59.119 25.426,64.118 27.344 C 64.404 27.454,64.478 27.295,64.478 26.569 C 64.478 21.596,70.303 12.842,75.398 10.158 C 81.581 6.902,90.119 6.596,95.771 9.428 C 99.158 11.126,101.555 13.781,103.278 17.743 C 104.272 20.028,104.274 20.030,105.487 19.215 C 107.607 17.791,110.932 18.617,112.993 21.078 C 114.165 22.478,114.504 22.502,114.537 21.187 C 114.662 16.192,123.912 10.995,130.148 12.416 C 137.269 14.039,140.154 18.240,140.727 27.819 C 141.042 33.079,140.989 32.965,142.523 31.680 C 147.589 27.440,158.297 28.017,162.826 32.774 C 164.187 34.203,166.002 36.535,166.002 36.854 C 166.002 37.335,166.596 36.938,167.770 35.670 C 172.504 30.556,182.704 29.933,186.166 34.546 C 187.256 35.998,187.515 35.938,188.806 33.933 C 191.989 28.988,198.108 27.427,201.827 30.611 C 202.961 31.581,203.635 31.687,203.429 30.863 C 203.123 29.646,206.836 23.380,209.075 21.333 C 214.727 16.167,221.184 14.766,226.226 17.612 C 227.738 18.465,227.943 18.412,228.300 17.077 C 228.826 15.111,231.347 12.896,233.058 12.896 C 233.538 12.896,233.821 12.759,233.906 12.485 C 237.166 2.057,254.637 0.743,259.616 10.551 C 260.393 12.082,261.018 12.501,261.149 11.580 C 261.432 9.598,270.881 8.011,275.264 9.209 C 282.815 11.273,286.802 16.732,287.190 25.538 C 287.340 28.940,287.634 29.871,288.139 28.542 C 288.566 27.418,293.822 24.445,296.717 23.691 C 305.089 21.510,312.327 24.777,315.138 32.005 C 316.076 34.417,316.091 34.430,317.222 33.681 C 320.704 31.377,324.832 32.713,327.174 36.900 C 327.987 38.354,328.722 38.918,328.722 38.087 C 328.722 36.598,336.654 30.872,341.524 28.845 C 354.543 23.425,364.998 26.699,369.588 37.632 C 370.233 39.167,370.797 39.526,371.142 38.619 C 372.379 35.366,378.473 34.979,381.457 37.963 C 382.743 39.250,382.832 39.219,384.381 36.939 C 387.215 32.766,395.314 27.902,399.427 27.902 C 399.844 27.902,400.000 27.774,400.000 27.433 C 400.000 26.770,399.274 26.823,396.601 27.679 C 390.712 29.565,386.216 32.554,383.763 36.213 C 383.240 36.993,382.780 37.671,382.741 37.719 C 382.702 37.768,382.180 37.375,381.580 36.848 C 378.809 34.409,374.764 34.306,371.861 36.602 C 371.197 37.126,370.628 37.520,370.595 37.476 C 370.563 37.433,370.141 36.608,369.658 35.644 C 366.068 28.473,360.228 24.946,352.707 25.405 C 344.784 25.888,336.096 29.688,330.216 35.243 L 328.277 37.074 327.775 36.089 C 325.859 32.333,321.286 30.634,317.773 32.373 L 316.568 32.969 315.906 31.325 C 311.959 21.520,300.296 19.200,289.838 26.139 L 288.277 27.174 288.220 26.072 C 287.889 19.650,286.479 15.953,283.024 12.450 C 278.154 7.512,268.845 6.340,262.092 9.814 L 260.761 10.499 259.917 9.130 C 257.037 4.466,249.320 1.714,243.508 3.280 " stroke="none" fill="#0e0c0c" fill-rule="evenodd"></path><path id="path2" d="M241.823 0.454 C 237.699 1.453,234.921 3.421,232.245 7.239 C 231.496 8.309,230.713 9.240,230.506 9.307 C 229.248 9.714,228.332 10.318,227.099 11.550 L 225.707 12.942 224.218 12.539 C 216.676 10.498,207.217 15.240,202.357 23.498 L 201.182 25.495 199.946 25.265 C 195.665 24.468,190.286 25.947,187.652 28.644 L 186.797 29.520 185.837 28.959 C 181.295 26.306,172.467 27.046,167.637 30.485 L 166.964 30.965 165.956 29.864 C 161.917 25.454,151.240 23.319,145.068 25.687 C 144.772 25.801,144.680 25.501,144.542 23.991 C 143.561 13.198,135.106 6.746,124.213 8.477 C 119.722 9.191,116.332 11.157,113.561 14.656 L 112.820 15.592 111.686 15.159 C 111.062 14.921,109.624 14.669,108.490 14.599 L 106.430 14.471 105.484 12.852 C 99.251 2.179,81.894 -0.005,70.583 8.461 C 67.470 10.791,63.412 16.447,61.922 20.532 L 61.275 22.307 58.598 22.380 C 49.587 22.627,39.395 28.240,37.470 34.014 C 37.428 34.142,36.814 33.950,36.106 33.589 C 32.628 31.813,28.890 31.084,26.749 31.764 C 26.407 31.872,26.232 31.691,25.916 30.898 C 21.587 20.071,11.988 15.833,1.700 20.208 L 0.000 20.931 0.000 22.744 L 0.000 24.558 1.705 23.665 C 11.159 18.711,21.287 23.600,23.819 34.340 L 24.222 36.050 25.755 35.332 C 29.429 33.613,34.461 35.155,37.948 39.067 L 39.098 40.357 39.257 39.229 C 40.519 30.235,53.270 23.145,63.191 25.919 C 63.610 26.036,63.695 25.883,63.947 24.555 C 65.058 18.699,70.390 11.534,75.552 8.964 C 86.986 3.268,100.001 7.021,104.233 17.233 C 104.729 18.431,104.646 18.383,105.477 17.954 C 107.360 16.980,111.140 17.771,112.951 19.518 C 113.368 19.920,113.748 20.204,113.795 20.148 C 113.842 20.092,114.223 19.397,114.640 18.603 C 118.922 10.465,130.569 8.702,137.396 15.159 C 140.439 18.037,141.237 20.210,141.665 26.789 L 141.937 30.952 142.427 30.492 C 144.725 28.333,152.353 27.142,156.750 28.256 C 160.328 29.162,163.492 31.380,165.808 34.605 L 166.541 35.625 167.915 34.353 C 173.163 29.495,182.984 29.093,186.762 33.582 C 187.090 33.972,187.390 34.251,187.429 34.203 C 187.469 34.155,187.930 33.474,188.456 32.691 C 191.458 28.213,198.031 26.570,201.905 29.329 C 202.290 29.604,202.627 29.791,202.654 29.744 C 202.680 29.698,203.053 28.921,203.484 28.019 C 208.422 17.663,219.040 12.249,226.215 16.430 C 227.235 17.024,227.291 17.011,227.615 16.120 C 228.280 14.286,231.081 11.958,232.622 11.958 C 233.109 11.958,233.295 11.747,233.725 10.711 C 237.794 0.894,254.627 0.043,260.191 9.373 C 260.509 9.906,260.838 10.304,260.924 10.259 C 273.724 3.402,288.159 11.033,288.159 24.656 C 288.159 26.721,288.340 27.386,288.729 26.756 C 288.997 26.323,293.746 23.670,295.084 23.205 C 304.034 20.100,312.754 23.364,315.870 30.986 L 316.609 32.794 317.566 32.299 C 321.070 30.484,325.887 32.201,327.821 35.955 L 328.286 36.857 329.852 35.354 C 339.217 26.373,354.654 22.636,362.570 27.434 C 365.443 29.175,369.336 33.772,370.228 36.477 C 370.554 37.464,370.572 37.464,371.821 36.471 C 374.724 34.163,378.951 34.316,381.816 36.832 C 382.669 37.580,382.735 37.600,382.978 37.181 C 385.486 32.866,390.900 29.145,397.242 27.379 L 399.993 26.612 399.997 25.144 L 400.000 23.676 399.004 23.830 C 393.101 24.742,386.550 28.091,382.984 32.018 L 382.029 33.070 381.166 32.710 C 378.517 31.603,375.491 31.525,372.747 32.493 L 371.872 32.802 370.800 31.145 C 366.212 24.054,358.475 21.024,349.121 22.657 C 341.675 23.957,335.408 26.729,329.959 31.134 L 328.969 31.934 327.966 31.075 C 325.847 29.258,324.277 28.722,321.078 28.722 L 318.240 28.722 317.467 27.315 C 313.227 19.593,301.143 16.544,292.379 20.985 C 291.075 21.646,291.119 21.677,290.748 19.870 C 288.352 8.216,275.235 1.623,263.089 5.968 L 262.051 6.339 260.790 5.058 C 256.473 0.671,248.705 -1.214,241.823 0.454 " stroke="none" fill="#fbdbd3" fill-rule="evenodd"></path></g></svg>