<svg id="svg" version="1.1" xmlns="http://www.w3.org/2000/svg" xmlns:xlink="http://www.w3.org/1999/xlink" width="400" height="562.7137970353477" viewBox="0, 0, 400,562.7137970353477"><g id="svgg"><path id="path0" d="M374.974 2.747 C 375.330 2.801,375.858 2.800,376.146 2.744 C 376.435 2.689,376.143 2.644,375.498 2.646 C 374.853 2.648,374.618 2.693,374.974 2.747 M377.902 2.745 C 378.192 2.800,378.666 2.800,378.957 2.745 C 379.247 2.689,379.009 2.643,378.429 2.643 C 377.849 2.643,377.611 2.689,377.902 2.745 M371.747 3.283 C 371.451 3.410,371.408 3.484,371.630 3.484 C 371.823 3.484,372.192 3.393,372.450 3.283 C 372.746 3.156,372.789 3.081,372.567 3.081 C 372.374 3.081,372.005 3.172,371.747 3.283 M381.700 3.527 C 382.274 3.791,382.901 4.134,383.093 4.289 C 383.369 4.512,383.405 4.510,383.266 4.277 C 383.057 3.930,382.072 3.403,381.243 3.195 C 380.920 3.114,381.126 3.263,381.700 3.527 M374.517 3.753 C 367.881 4.724,357.141 12.710,355.317 18.031 C 354.900 19.247,354.521 19.163,353.420 17.610 C 350.368 13.304,344.878 12.953,340.498 16.784 C 339.396 17.749,337.397 20.495,337.397 21.046 C 337.397 21.549,336.970 21.567,335.956 21.106 C 332.754 19.653,328.648 21.104,327.337 24.152 C 326.752 25.512,326.312 25.626,325.761 24.560 C 323.443 20.075,318.285 17.326,312.777 17.640 C 307.785 17.925,302.954 21.875,300.578 27.615 C 299.671 29.807,299.883 29.586,298.582 29.695 C 297.488 29.786,296.348 30.244,295.612 30.889 C 295.061 31.372,294.640 31.151,294.092 30.091 C 293.552 29.045,292.839 28.613,291.647 28.608 C 290.668 28.604,290.391 28.342,290.154 27.198 C 288.461 19.014,278.510 16.859,273.967 23.693 C 272.733 25.548,272.763 25.536,271.505 24.704 C 270.438 23.997,268.952 24.020,267.377 24.767 C 266.197 25.327,263.721 27.658,263.877 28.063 C 264.130 28.723,263.349 28.602,262.149 27.795 C 260.330 26.571,258.878 26.712,257.444 28.252 C 256.323 29.457,255.334 29.503,255.334 28.351 C 255.334 24.117,249.283 20.339,245.604 22.274 C 243.993 23.121,243.845 23.134,243.845 22.428 C 243.845 18.246,238.487 13.756,234.014 14.189 C 229.204 14.655,225.385 17.510,224.629 21.205 C 224.493 21.873,224.393 21.934,223.203 22.085 C 220.162 22.472,216.620 24.587,215.534 26.665 C 214.795 28.081,214.730 28.105,213.801 27.324 C 211.834 25.669,209.424 26.237,208.373 28.605 C 207.772 29.960,207.606 30.049,206.509 29.610 C 204.234 28.700,202.141 29.794,201.393 32.285 L 201.055 33.411 199.718 33.531 C 198.600 33.630,198.246 33.780,197.559 34.446 L 196.737 35.243 196.317 34.458 C 193.416 29.041,185.899 28.554,181.973 33.529 C 181.306 34.374,181.036 33.953,180.774 31.658 C 179.756 22.729,172.726 18.038,166.143 21.896 C 164.789 22.690,162.954 24.743,162.954 25.465 C 162.954 26.186,162.576 26.175,161.215 25.414 C 159.697 24.565,157.406 24.663,155.932 25.638 C 154.796 26.390,154.407 26.337,154.174 25.400 C 151.826 15.967,140.970 10.319,132.575 14.162 C 124.931 17.662,121.172 23.388,118.937 34.936 C 118.825 35.516,118.633 35.969,118.511 35.943 C 118.388 35.917,117.684 35.680,116.946 35.416 C 113.687 34.250,109.649 35.220,106.994 37.805 C 105.479 39.281,105.211 39.192,104.559 37.000 C 102.736 30.870,97.052 26.738,90.810 27.004 C 87.516 27.145,84.314 29.020,83.788 31.118 C 83.560 32.026,82.990 31.653,82.095 30.012 C 78.880 24.116,69.808 21.598,64.552 25.142 C 62.917 26.245,61.463 29.162,61.074 32.122 C 60.879 33.605,60.699 33.790,59.719 33.509 C 58.568 33.179,56.805 33.814,55.494 35.032 C 54.742 35.731,54.545 35.677,54.016 34.628 C 51.508 29.659,46.045 26.486,40.020 26.499 C 31.057 26.518,26.131 32.357,26.224 42.849 C 26.260 46.888,26.215 46.973,24.664 45.732 C 22.051 43.640,18.931 43.353,17.023 45.027 C 16.022 45.907,16.134 45.928,14.595 44.557 C 11.093 41.435,5.730 40.666,1.510 42.679 L 0.000 43.400 0.000 303.060 L 0.000 562.720 200.000 562.720 L 400.000 562.720 400.000 287.345 L 400.000 11.970 399.308 11.612 C 396.278 10.045,392.560 10.558,389.919 12.908 C 388.588 14.093,388.279 14.023,387.800 12.426 C 385.878 6.015,380.968 2.810,374.517 3.753 M367.819 4.822 C 367.207 5.141,366.706 5.454,366.706 5.518 C 366.706 5.623,369.027 4.527,369.265 4.309 C 369.556 4.045,368.793 4.315,367.819 4.822 M384.525 5.232 C 384.525 5.272,384.868 5.615,385.287 5.994 L 386.049 6.682 385.361 5.920 C 384.719 5.210,384.525 5.050,384.525 5.232 M386.400 7.444 C 386.707 7.863,386.995 8.206,387.039 8.206 C 387.218 8.206,386.636 7.327,386.252 7.015 C 385.998 6.809,386.055 6.973,386.400 7.444 M362.016 8.929 L 360.961 9.886 362.075 9.018 C 363.051 8.257,363.341 7.970,363.130 7.972 C 363.098 7.973,362.597 8.403,362.016 8.929 M387.655 9.555 C 387.962 10.167,388.341 11.064,388.497 11.547 C 388.828 12.569,388.980 12.618,389.589 11.899 L 390.035 11.372 389.513 11.814 C 389.000 12.247,388.987 12.247,388.841 11.814 C 388.532 10.899,387.358 8.441,387.230 8.441 C 387.157 8.441,387.348 8.942,387.655 9.555 M395.018 9.783 C 395.437 9.835,396.123 9.835,396.542 9.783 C 396.961 9.731,396.618 9.688,395.780 9.688 C 394.941 9.688,394.598 9.731,395.018 9.783 M359.429 11.196 L 358.148 12.544 359.496 11.262 C 360.748 10.072,360.951 9.848,360.777 9.848 C 360.741 9.848,360.134 10.454,359.429 11.196 M390.914 10.783 C 389.856 11.428,389.955 11.586,391.032 10.970 C 392.115 10.350,392.159 10.316,391.891 10.317 C 391.773 10.318,391.334 10.527,390.914 10.783 M138.983 11.889 C 139.274 11.945,139.696 11.943,139.921 11.884 C 140.145 11.826,139.906 11.780,139.390 11.782 C 138.875 11.785,138.691 11.833,138.983 11.889 M136.166 12.123 C 136.457 12.179,136.931 12.179,137.222 12.123 C 137.512 12.067,137.274 12.022,136.694 12.022 C 136.114 12.022,135.876 12.067,136.166 12.123 M140.973 12.119 C 141.199 12.178,141.568 12.178,141.794 12.119 C 142.019 12.060,141.835 12.012,141.383 12.012 C 140.932 12.012,140.747 12.060,140.973 12.119 M143.362 12.666 C 144.000 12.915,144.558 13.082,144.603 13.037 C 144.715 12.925,142.853 12.190,142.492 12.203 C 142.334 12.209,142.725 12.418,143.362 12.666 M357.195 13.658 L 356.506 14.420 357.268 13.731 C 357.979 13.089,358.138 12.896,357.957 12.896 C 357.917 12.896,357.574 13.239,357.195 13.658 M131.477 13.499 C 130.568 13.992,130.671 14.162,131.594 13.692 C 132.478 13.243,132.635 13.127,132.337 13.140 C 132.219 13.145,131.832 13.306,131.477 13.499 M233.939 13.302 C 234.487 13.351,235.384 13.351,235.932 13.302 C 236.480 13.252,236.032 13.212,234.936 13.212 C 233.839 13.212,233.391 13.252,233.939 13.302 M346.255 13.302 C 346.806 13.352,347.650 13.351,348.130 13.301 C 348.611 13.250,348.159 13.210,347.128 13.211 C 346.096 13.211,345.703 13.253,346.255 13.302 M230.759 13.759 C 229.256 14.291,229.695 14.352,231.311 13.836 C 232.079 13.591,232.497 13.392,232.239 13.396 C 231.981 13.399,231.315 13.563,230.759 13.759 M237.717 13.725 C 238.151 13.914,238.573 14.064,238.655 14.060 C 238.960 14.043,237.618 13.381,237.280 13.382 C 237.087 13.383,237.284 13.537,237.717 13.725 M129.597 14.663 C 129.116 14.990,128.722 15.308,128.722 15.369 C 128.722 15.431,129.144 15.202,129.660 14.861 C 130.479 14.319,130.756 14.068,130.535 14.068 C 130.501 14.068,130.079 14.336,129.597 14.663 M226.366 16.471 L 225.440 17.468 226.436 16.541 C 227.363 15.679,227.540 15.475,227.363 15.475 C 227.325 15.475,226.876 15.923,226.366 16.471 M149.824 16.530 C 150.262 16.981,150.672 17.351,150.737 17.351 C 150.801 17.351,150.496 16.981,150.059 16.530 C 149.621 16.079,149.210 15.709,149.146 15.709 C 149.082 15.709,149.387 16.079,149.824 16.530 M241.970 16.530 C 242.407 16.981,242.818 17.351,242.882 17.351 C 242.947 17.351,242.641 16.981,242.204 16.530 C 241.767 16.079,241.356 15.709,241.291 15.709 C 241.227 15.709,241.532 16.079,241.970 16.530 M354.807 16.788 C 354.517 17.119,354.403 17.348,354.553 17.298 C 354.805 17.214,355.616 16.173,355.421 16.182 C 355.373 16.185,355.097 16.457,354.807 16.788 M125.311 18.113 L 124.385 19.109 125.381 18.182 C 126.308 17.320,126.485 17.116,126.308 17.116 C 126.270 17.116,125.821 17.564,125.311 18.113 M338.265 17.878 C 337.628 18.738,337.199 19.479,337.552 19.109 C 337.987 18.652,339.061 17.116,338.945 17.116 C 338.881 17.116,338.575 17.459,338.265 17.878 M319.832 17.908 C 320.072 18.125,321.923 18.989,321.923 18.884 C 321.923 18.751,320.153 17.819,319.900 17.819 C 319.809 17.819,319.778 17.859,319.832 17.908 M279.894 18.688 C 280.185 18.744,280.659 18.744,280.950 18.688 C 281.240 18.632,281.002 18.587,280.422 18.587 C 279.842 18.587,279.604 18.632,279.894 18.688 M278.077 19.003 C 277.821 19.176,277.915 19.198,278.429 19.083 C 279.291 18.890,279.478 18.756,278.878 18.761 C 278.631 18.763,278.271 18.872,278.077 19.003 M285.325 19.616 C 286.864 20.407,288.316 21.690,289.398 23.212 L 289.814 23.798 289.541 23.227 C 288.825 21.727,285.111 18.757,283.951 18.757 C 283.789 18.757,284.407 19.144,285.325 19.616 M322.274 19.145 C 323.805 20.644,325.437 22.016,324.502 21.018 C 323.921 20.398,323.130 19.672,322.743 19.404 C 322.356 19.135,322.145 19.019,322.274 19.145 M124.000 19.637 C 123.326 20.451,123.040 20.868,123.156 20.868 C 123.221 20.868,123.555 20.498,123.900 20.047 C 124.539 19.209,124.616 18.893,124.000 19.637 M276.237 19.931 C 275.702 20.319,275.264 20.704,275.264 20.788 C 275.264 20.872,275.448 20.777,275.674 20.578 C 275.900 20.378,276.454 19.993,276.905 19.722 C 277.356 19.450,277.610 19.228,277.468 19.227 C 277.326 19.227,276.772 19.543,276.237 19.931 M304.653 20.223 C 303.521 21.158,301.758 23.090,301.758 23.394 C 301.758 23.469,302.154 23.069,302.638 22.504 C 303.495 21.502,304.319 20.705,305.510 19.724 C 305.832 19.459,306.043 19.238,305.977 19.234 C 305.912 19.230,305.316 19.675,304.653 20.223 M170.750 19.629 C 171.105 19.682,171.685 19.682,172.040 19.629 C 172.394 19.575,172.104 19.531,171.395 19.531 C 170.686 19.531,170.396 19.575,170.750 19.629 M332.298 19.632 C 332.781 19.682,333.573 19.682,334.056 19.632 C 334.540 19.581,334.144 19.540,333.177 19.540 C 332.210 19.540,331.814 19.581,332.298 19.632 M167.995 20.023 C 166.043 20.640,164.191 21.895,163.186 23.280 C 162.855 23.737,163.123 23.548,163.869 22.798 C 165.253 21.407,166.414 20.735,168.464 20.138 C 169.238 19.913,169.660 19.728,169.402 19.728 C 169.144 19.727,168.511 19.860,167.995 20.023 M173.762 20.038 C 174.225 20.209,174.937 20.521,175.344 20.731 C 175.751 20.942,176.084 21.054,176.084 20.980 C 176.084 20.780,173.678 19.698,173.271 19.714 C 173.077 19.722,173.298 19.868,173.762 20.038 M329.953 20.045 C 329.534 20.227,329.191 20.428,329.191 20.493 C 329.191 20.557,329.534 20.470,329.953 20.300 C 330.372 20.130,330.873 19.932,331.067 19.861 C 331.379 19.747,331.379 19.731,331.067 19.723 C 330.873 19.718,330.372 19.863,329.953 20.045 M245.487 21.124 C 244.424 21.592,244.718 21.555,246.659 20.978 C 247.372 20.766,247.524 20.664,247.128 20.662 C 246.805 20.660,246.067 20.868,245.487 21.124 M249.729 20.976 C 250.192 21.147,250.905 21.459,251.312 21.669 C 251.719 21.880,252.052 21.992,252.052 21.918 C 252.052 21.718,249.645 20.635,249.238 20.652 C 249.045 20.660,249.265 20.806,249.729 20.976 M327.699 21.795 C 327.101 22.435,326.612 23.032,326.612 23.124 C 326.612 23.215,326.646 23.246,326.687 23.193 C 326.728 23.139,327.270 22.541,327.891 21.864 C 328.512 21.187,328.968 20.633,328.904 20.633 C 328.839 20.633,328.297 21.156,327.699 21.795 M153.739 21.920 C 153.953 22.369,154.170 22.696,154.221 22.645 C 154.328 22.538,153.617 21.102,153.456 21.102 C 153.397 21.102,153.524 21.470,153.739 21.920 M177.286 22.158 C 177.883 22.802,178.859 24.067,179.455 24.968 C 180.051 25.870,180.539 26.524,180.539 26.423 C 180.539 26.008,178.170 22.794,177.222 21.923 L 176.202 20.986 177.286 22.158 M222.333 21.264 C 222.559 21.323,222.928 21.323,223.154 21.264 C 223.379 21.205,223.195 21.156,222.743 21.156 C 222.292 21.156,222.107 21.205,222.333 21.264 M220.516 21.680 C 219.610 22.094,220.031 22.100,221.102 21.688 C 221.553 21.514,221.764 21.369,221.571 21.365 C 221.377 21.361,220.903 21.503,220.516 21.680 M252.286 22.085 C 253.786 23.480,254.673 24.169,253.927 23.361 C 253.476 22.871,252.896 22.359,252.638 22.223 C 252.380 22.087,252.222 22.025,252.286 22.085 M69.695 22.681 C 70.308 22.729,71.310 22.729,71.923 22.681 C 72.535 22.633,72.034 22.593,70.809 22.593 C 69.584 22.593,69.083 22.633,69.695 22.681 M121.560 23.234 C 121.353 23.633,121.226 24.001,121.277 24.052 C 121.328 24.103,121.545 23.776,121.760 23.326 C 122.242 22.315,122.075 22.238,121.560 23.234 M64.889 23.815 C 63.980 24.308,64.083 24.479,65.006 24.009 C 65.890 23.560,66.046 23.443,65.748 23.456 C 65.630 23.461,65.243 23.623,64.889 23.815 M158.327 23.849 C 158.683 23.903,159.211 23.902,159.499 23.846 C 159.787 23.791,159.496 23.746,158.851 23.748 C 158.206 23.750,157.970 23.795,158.327 23.849 M215.812 24.678 L 215.123 25.440 215.885 24.751 C 216.304 24.372,216.647 24.029,216.647 23.989 C 216.647 23.808,216.454 23.967,215.812 24.678 M154.752 24.281 C 154.762 24.947,155.165 25.151,155.712 24.767 C 156.013 24.557,156.136 24.385,155.986 24.385 C 155.836 24.385,155.638 24.506,155.547 24.655 C 155.431 24.842,155.283 24.792,155.064 24.492 C 154.890 24.255,154.750 24.160,154.752 24.281 M63.059 25.264 L 62.251 26.143 63.130 25.335 C 63.614 24.891,64.009 24.495,64.009 24.456 C 64.009 24.277,63.811 24.445,63.059 25.264 M120.622 25.110 C 120.416 25.509,120.288 25.877,120.339 25.927 C 120.390 25.978,120.607 25.652,120.822 25.202 C 121.304 24.191,121.137 24.114,120.622 25.110 M79.132 25.364 C 79.519 25.659,80.320 26.325,80.912 26.843 C 81.768 27.592,81.731 27.534,80.731 26.559 C 80.040 25.885,79.239 25.220,78.952 25.081 C 78.625 24.922,78.693 25.029,79.132 25.364 M263.987 26.202 C 263.561 26.685,263.121 27.052,263.008 27.016 C 262.895 26.981,262.869 27.060,262.951 27.192 C 263.154 27.521,263.102 27.557,264.089 26.377 C 265.154 25.103,265.075 24.966,263.987 26.202 M37.573 25.718 C 37.799 25.777,38.168 25.777,38.394 25.718 C 38.620 25.660,38.435 25.611,37.984 25.611 C 37.532 25.611,37.348 25.660,37.573 25.718 M90.800 25.960 C 91.157 26.013,91.684 26.012,91.973 25.956 C 92.261 25.901,91.970 25.857,91.325 25.858 C 90.680 25.860,90.444 25.906,90.800 25.960 M45.721 26.429 C 45.914 26.502,46.679 26.864,47.421 27.235 C 48.162 27.605,48.769 27.856,48.769 27.791 C 48.769 27.607,46.004 26.258,45.669 26.279 C 45.475 26.291,45.494 26.344,45.721 26.429 M119.722 27.344 C 119.514 27.955,119.351 28.567,119.361 28.705 C 119.370 28.844,119.581 28.385,119.829 27.686 C 120.077 26.987,120.239 26.375,120.190 26.325 C 120.140 26.275,119.930 26.734,119.722 27.344 M257.358 26.999 C 256.635 27.595,256.421 27.675,256.253 27.410 C 256.085 27.145,256.044 27.161,256.041 27.491 C 256.036 28.091,256.373 28.001,257.577 27.081 C 258.169 26.630,258.563 26.260,258.454 26.260 C 258.344 26.260,257.851 26.593,257.358 26.999 M33.001 26.863 C 32.092 27.356,32.195 27.527,33.118 27.057 C 34.002 26.608,34.159 26.491,33.861 26.504 C 33.743 26.509,33.356 26.671,33.001 26.863 M85.509 27.662 C 84.903 28.046,84.408 28.411,84.408 28.473 C 84.408 28.535,84.936 28.258,85.580 27.857 C 86.614 27.214,86.923 26.964,86.681 26.964 C 86.642 26.964,86.115 27.278,85.509 27.662 M97.089 27.287 C 97.328 27.505,99.648 28.601,99.648 28.496 C 99.648 28.363,97.409 27.198,97.155 27.198 C 97.065 27.198,97.035 27.238,97.089 27.287 M30.925 28.222 C 29.209 29.538,26.681 32.987,26.741 33.931 C 26.747 34.032,27.107 33.429,27.540 32.591 C 28.321 31.078,30.186 28.913,31.536 27.949 C 31.923 27.673,32.175 27.444,32.097 27.440 C 32.019 27.436,31.491 27.788,30.925 28.222 M293.083 27.930 C 293.405 28.059,293.885 28.342,294.150 28.560 C 294.414 28.778,294.333 28.666,293.970 28.312 C 293.607 27.957,293.127 27.674,292.904 27.682 C 292.624 27.692,292.680 27.770,293.083 27.930 M49.355 28.257 C 49.613 28.467,50.035 28.743,50.293 28.870 L 50.762 29.100 50.293 28.718 C 50.035 28.508,49.613 28.232,49.355 28.106 L 48.886 27.876 49.355 28.257 M82.415 28.839 C 82.615 29.226,82.832 29.543,82.896 29.543 C 82.960 29.543,82.850 29.226,82.649 28.839 C 82.449 28.453,82.233 28.136,82.168 28.136 C 82.104 28.136,82.215 28.453,82.415 28.839 M205.045 28.577 C 205.950 28.669,206.813 28.820,206.963 28.913 C 207.113 29.006,207.291 28.992,207.359 28.882 C 207.508 28.642,207.392 28.622,205.158 28.503 L 203.400 28.410 205.045 28.577 M298.476 28.605 L 297.655 28.778 298.535 28.809 C 299.018 28.826,299.414 28.734,299.414 28.605 C 299.414 28.476,299.387 28.384,299.355 28.401 C 299.323 28.418,298.927 28.510,298.476 28.605 M99.883 28.658 C 99.883 28.708,100.489 29.266,101.231 29.897 C 101.972 30.527,102.368 30.799,102.110 30.502 C 101.620 29.936,99.883 28.498,99.883 28.658 M201.906 29.655 C 201.373 30.232,200.938 30.784,200.938 30.881 C 200.938 30.977,201.261 30.665,201.656 30.186 C 202.051 29.707,202.602 29.155,202.880 28.960 C 203.159 28.765,203.271 28.605,203.130 28.605 C 202.989 28.605,202.438 29.077,201.906 29.655 M295.897 29.426 C 294.513 30.167,294.811 30.168,296.401 29.428 C 297.091 29.107,297.497 28.848,297.304 28.852 C 297.110 28.857,296.477 29.115,295.897 29.426 M51.921 30.246 C 53.461 31.979,53.619 32.127,53.048 31.301 C 52.780 30.914,52.160 30.229,51.669 29.777 C 50.955 29.122,51.006 29.216,51.921 30.246 M187.990 29.246 C 188.541 29.295,189.385 29.295,189.866 29.244 C 190.346 29.194,189.894 29.153,188.863 29.154 C 187.831 29.155,187.438 29.196,187.990 29.246 M184.642 29.975 C 183.869 30.341,183.079 30.842,182.888 31.088 C 182.556 31.515,182.562 31.518,183.005 31.154 C 183.641 30.632,184.922 29.993,186.049 29.636 C 186.565 29.473,186.776 29.333,186.518 29.324 C 186.260 29.316,185.416 29.608,184.642 29.975 M194.138 30.554 C 194.138 30.612,194.526 30.955,194.999 31.316 C 195.473 31.677,195.786 31.853,195.695 31.706 C 195.510 31.406,194.138 30.391,194.138 30.554 M196.304 32.874 C 196.897 33.846,197.213 33.955,197.685 33.353 C 197.979 32.979,197.970 32.972,197.586 33.273 C 197.210 33.569,197.093 33.520,196.469 32.804 L 195.773 32.005 196.304 32.874 M104.192 33.754 C 104.591 34.514,104.953 35.102,104.995 35.060 C 105.106 34.949,103.919 32.649,103.672 32.497 C 103.559 32.427,103.793 32.993,104.192 33.754 M118.114 34.349 C 118.052 34.672,118.093 34.936,118.204 34.936 C 118.315 34.936,118.406 34.672,118.406 34.349 C 118.406 34.027,118.365 33.763,118.316 33.763 C 118.266 33.763,118.175 34.027,118.114 34.349 M108.968 35.070 C 108.059 35.563,108.162 35.733,109.086 35.263 C 109.969 34.814,110.126 34.697,109.828 34.710 C 109.710 34.716,109.323 34.877,108.968 35.070 M106.900 36.503 C 106.126 37.202,105.902 37.303,105.730 37.031 C 105.554 36.752,105.517 36.762,105.514 37.091 C 105.507 37.810,105.848 37.713,106.998 36.670 C 107.623 36.103,108.072 35.639,107.995 35.639 C 107.919 35.639,107.426 36.028,106.900 36.503 M5.575 40.735 C 6.126 40.784,6.970 40.784,7.451 40.733 C 7.931 40.683,7.479 40.642,6.448 40.643 C 5.416 40.644,5.023 40.685,5.575 40.735 M13.130 42.262 C 13.130 42.309,13.820 42.854,14.662 43.473 L 16.194 44.598 16.993 44.051 C 17.432 43.750,17.753 43.466,17.706 43.420 C 17.660 43.373,17.302 43.572,16.911 43.861 L 16.200 44.387 14.958 43.456 C 13.595 42.435,13.130 42.131,13.130 42.262 M19.519 43.075 C 19.874 43.129,20.454 43.129,20.809 43.075 C 21.164 43.022,20.873 42.978,20.164 42.978 C 19.455 42.978,19.165 43.022,19.519 43.075 M22.528 43.464 C 22.770 43.680,24.150 44.314,24.150 44.209 C 24.150 44.074,22.850 43.376,22.599 43.376 C 22.506 43.376,22.475 43.416,22.528 43.464 " stroke="none" fill="#d35c9c" fill-rule="evenodd"></path><path id="path1" d="M371.161 0.353 C 366.287 1.458,360.772 5.149,355.629 10.749 L 354.283 12.214 353.285 11.638 C 347.948 8.555,339.681 10.444,336.162 15.550 L 335.404 16.650 334.115 16.512 C 332.149 16.303,328.465 17.119,327.076 18.072 C 326.494 18.472,326.471 18.465,325.435 17.546 C 321.969 14.471,314.591 12.750,309.987 13.945 C 304.814 15.286,299.709 19.701,297.442 24.795 C 296.933 25.938,296.771 25.971,294.983 25.294 C 293.670 24.797,293.669 24.795,292.508 22.469 C 288.731 14.897,278.446 13.041,272.671 18.889 C 271.423 20.152,271.398 20.164,269.996 20.166 C 267.711 20.169,265.650 20.906,263.547 22.474 C 262.793 23.036,262.551 23.081,260.229 23.088 L 257.725 23.095 257.206 22.338 C 255.315 19.578,250.458 17.076,247.753 17.470 C 246.791 17.610,246.765 17.595,246.086 16.505 C 240.681 7.844,227.269 8.021,222.274 16.820 C 221.557 18.084,221.347 18.284,220.606 18.410 C 219.456 18.605,217.115 19.818,215.093 21.268 C 213.458 22.441,213.388 22.466,211.811 22.445 C 209.634 22.417,207.962 23.005,206.651 24.261 C 205.686 25.186,205.500 25.265,204.000 25.391 C 201.822 25.573,198.870 27.372,198.820 28.547 C 198.780 29.492,198.132 29.581,197.141 28.777 C 194.088 26.301,188.352 25.269,184.847 26.565 L 183.880 26.922 183.489 25.712 C 182.623 23.024,179.315 18.989,177.018 17.817 C 172.823 15.677,165.959 16.525,162.498 19.612 L 161.221 20.750 159.075 20.750 L 156.929 20.750 156.027 19.252 C 144.989 0.903,121.071 7.501,115.962 30.305 C 115.820 30.940,115.790 30.950,114.005 30.953 C 112.012 30.957,109.735 31.413,108.336 32.089 L 107.432 32.526 106.412 30.980 C 101.654 23.767,90.692 20.575,84.707 24.660 L 83.717 25.336 83.418 24.841 C 82.839 23.883,79.552 21.631,77.677 20.908 C 68.797 17.484,60.862 20.163,58.308 27.449 C 57.475 29.825,56.359 30.762,55.720 29.621 C 52.216 23.360,38.370 20.385,31.320 24.378 C 30.858 24.640,30.085 25.073,29.601 25.342 C 26.377 27.133,23.351 32.594,22.466 38.220 L 22.168 40.114 20.930 39.960 C 20.087 39.854,19.141 39.935,17.959 40.213 L 16.224 40.622 15.395 39.989 C 12.183 37.539,4.595 36.817,0.847 38.604 L 0.000 39.008 0.000 40.727 L 0.000 42.446 1.168 41.854 C 5.404 39.708,10.831 40.334,14.950 43.443 L 16.200 44.387 16.902 43.867 C 18.631 42.589,21.739 42.682,23.986 44.079 C 24.609 44.466,25.165 44.783,25.221 44.783 C 25.277 44.783,25.325 43.491,25.327 41.911 C 25.346 31.535,30.719 25.565,40.045 25.559 C 46.782 25.554,51.615 28.342,55.021 34.197 C 55.047 34.242,55.419 34.022,55.846 33.707 C 56.904 32.928,57.916 32.558,59.112 32.512 L 60.117 32.474 60.374 31.067 C 61.387 25.528,64.451 22.853,70.106 22.570 C 74.953 22.327,80.496 25.078,82.572 28.756 C 83.419 30.257,83.232 30.232,84.142 28.965 C 85.530 27.033,89.509 25.556,92.370 25.911 C 98.668 26.694,103.568 30.512,105.379 36.049 C 105.840 37.458,105.926 37.499,106.695 36.681 C 108.743 34.500,114.034 33.303,116.999 34.349 C 117.547 34.543,118.024 34.701,118.059 34.701 C 118.094 34.701,118.246 33.989,118.396 33.118 C 119.863 24.616,123.226 18.985,129.256 14.930 C 138.862 8.473,150.256 12.495,154.836 23.961 L 155.182 24.828 156.196 24.321 C 157.537 23.650,160.123 23.612,161.304 24.246 L 162.115 24.682 162.706 23.889 C 168.757 15.757,180.671 19.939,181.652 30.539 C 181.795 32.089,181.861 32.129,182.746 31.206 C 185.758 28.061,193.113 28.557,195.934 32.095 C 196.409 32.690,196.871 33.263,196.961 33.368 C 197.050 33.474,197.481 33.342,197.917 33.076 C 198.353 32.810,199.102 32.592,199.581 32.592 C 200.402 32.591,200.465 32.537,200.712 31.621 C 201.370 29.179,204.151 27.728,206.563 28.569 C 207.179 28.784,207.312 28.761,207.439 28.421 C 208.407 25.805,211.433 24.615,213.643 25.981 L 214.455 26.483 215.178 25.457 C 216.457 23.642,220.201 21.449,222.480 21.179 L 223.659 21.039 224.457 19.359 C 225.787 16.558,227.410 15.072,230.420 13.900 C 232.614 13.046,236.871 12.965,238.335 13.750 C 241.374 15.379,243.528 17.633,244.241 19.930 C 244.461 20.639,244.669 21.259,244.703 21.307 C 244.736 21.356,245.192 21.224,245.716 21.014 C 249.447 19.521,254.644 22.431,256.029 26.788 C 256.347 27.788,256.502 27.851,257.078 27.215 C 258.248 25.922,260.583 25.616,262.164 26.550 L 263.117 27.113 264.338 25.925 C 266.702 23.622,270.075 22.524,271.637 23.547 C 272.414 24.056,272.465 24.031,273.541 22.596 C 277.337 17.536,284.036 17.062,288.239 21.555 C 289.309 22.699,291.208 26.171,291.208 26.983 C 291.208 27.275,291.496 27.423,292.307 27.544 C 293.383 27.706,294.717 28.685,294.990 29.515 C 295.077 29.779,295.246 29.760,295.907 29.410 C 296.353 29.175,297.276 28.867,297.959 28.726 L 299.200 28.470 299.967 26.720 C 304.951 15.360,319.208 12.994,325.713 22.448 L 326.428 23.487 326.838 22.813 C 328.502 20.077,332.449 18.741,335.653 19.829 C 336.250 20.032,336.766 20.164,336.799 20.122 C 336.833 20.081,337.235 19.454,337.693 18.728 C 341.465 12.759,348.662 11.310,353.090 15.630 C 353.926 16.446,354.676 17.035,354.756 16.939 C 354.836 16.843,355.389 16.067,355.986 15.214 C 363.431 4.570,376.975 -0.548,383.886 4.670 C 385.944 6.224,388.248 9.509,388.807 11.688 L 388.948 12.238 390.035 11.408 C 392.285 9.690,396.489 9.138,398.886 10.245 L 400.000 10.759 400.000 9.049 L 400.000 7.339 398.233 6.922 C 396.197 6.443,394.017 6.559,391.742 7.266 C 390.459 7.666,390.347 7.669,390.221 7.307 C 389.449 5.099,385.291 1.355,382.647 0.486 C 380.894 -0.089,373.491 -0.175,371.161 0.353 " stroke="none" fill="#fbdbd3" fill-rule="evenodd"></path><path id="path2" d="M374.953 2.840 C 368.577 3.580,360.066 9.297,355.810 15.698 C 354.834 17.168,354.282 17.699,354.278 17.175 C 354.277 17.078,353.792 16.487,353.200 15.862 C 349.183 11.619,341.805 12.904,338.073 18.496 C 337.418 19.478,336.856 20.309,336.825 20.342 C 336.793 20.376,336.315 20.244,335.763 20.049 C 334.313 19.538,331.821 19.595,330.267 20.176 C 329.058 20.629,326.612 22.830,326.612 23.466 C 326.612 23.933,326.227 23.639,325.799 22.845 C 323.331 18.261,314.582 15.310,309.590 17.378 C 305.009 19.276,299.414 25.396,299.414 28.510 C 299.414 28.734,299.133 28.840,298.535 28.842 C 298.051 28.843,297.077 29.113,296.370 29.442 C 295.643 29.781,295.051 29.937,295.007 29.803 C 294.661 28.765,293.035 27.667,291.844 27.667 C 291.385 27.667,291.228 27.461,290.903 26.430 C 288.242 17.987,278.278 15.916,273.525 22.817 C 273.020 23.550,272.567 24.150,272.519 24.150 C 272.471 24.150,271.990 23.925,271.450 23.650 C 269.584 22.698,266.243 23.913,264.174 26.296 L 263.227 27.387 262.387 26.838 C 260.684 25.724,259.257 25.799,257.565 27.091 C 256.362 28.009,256.038 28.089,256.038 27.470 C 256.038 25.728,253.494 22.715,251.044 21.556 C 248.757 20.473,248.186 20.463,245.118 21.448 C 244.690 21.585,244.583 21.438,244.209 20.203 C 241.567 11.478,228.183 11.066,224.468 19.595 C 223.946 20.793,223.676 21.145,223.214 21.233 C 219.598 21.917,216.713 23.513,215.190 25.675 L 214.462 26.708 213.737 26.191 C 211.865 24.855,208.968 25.703,207.847 27.916 C 207.305 28.986,207.227 29.046,206.666 28.833 C 204.312 27.938,201.478 29.302,200.803 31.655 C 200.596 32.377,200.460 32.482,199.526 32.642 C 198.951 32.740,198.194 33.032,197.843 33.292 C 196.991 33.922,196.927 33.901,196.249 32.790 C 193.815 28.801,186.198 28.092,182.565 31.516 C 182.196 31.863,181.871 32.116,181.843 32.076 C 181.815 32.037,181.662 31.271,181.503 30.375 C 179.611 19.719,168.845 16.011,162.870 23.956 L 162.222 24.818 161.240 24.372 C 159.791 23.714,157.704 23.765,156.265 24.494 C 155.637 24.812,155.103 25.049,155.079 25.021 C 155.056 24.993,154.708 24.178,154.307 23.209 C 146.320 3.910,121.122 11.274,118.489 33.678 C 118.365 34.728,118.270 34.933,117.962 34.812 C 114.246 33.352,109.690 34.172,106.819 36.818 C 106.086 37.494,105.718 37.703,105.648 37.483 C 105.592 37.307,105.419 36.741,105.265 36.225 C 102.513 27.033,88.747 22.540,84.059 29.304 C 83.261 30.456,83.383 30.470,82.621 29.132 C 78.863 22.529,67.569 20.480,62.972 25.568 C 61.719 26.955,60.306 30.525,60.262 32.415 C 60.260 32.512,59.809 32.593,59.261 32.596 C 58.153 32.602,56.451 33.286,55.595 34.071 C 55.202 34.431,55.004 34.496,54.930 34.289 C 54.459 32.969,51.613 29.743,50.003 28.704 C 45.388 25.725,40.781 24.909,35.672 26.165 C 29.261 27.742,25.335 33.892,25.325 42.375 L 25.322 45.009 23.740 44.134 C 21.569 42.934,18.731 42.845,17.167 43.928 L 16.200 44.597 14.402 43.284 C 10.466 40.409,4.480 39.934,0.762 42.201 C 0.137 42.583,-0.406 43.623,0.176 43.325 C 5.472 40.615,10.671 41.059,14.595 44.557 C 16.134 45.928,16.022 45.907,17.023 45.027 C 18.931 43.353,22.051 43.640,24.664 45.732 C 26.215 46.973,26.260 46.888,26.224 42.849 C 26.131 32.357,31.057 26.518,40.020 26.499 C 46.045 26.486,51.508 29.659,54.016 34.628 C 54.545 35.677,54.742 35.731,55.494 35.032 C 56.805 33.814,58.568 33.179,59.719 33.509 C 60.699 33.790,60.879 33.605,61.074 32.122 C 61.463 29.162,62.917 26.245,64.552 25.142 C 69.808 21.598,78.880 24.116,82.095 30.012 C 82.990 31.653,83.560 32.026,83.788 31.118 C 84.314 29.020,87.516 27.145,90.810 27.004 C 97.052 26.738,102.736 30.870,104.559 37.000 C 105.211 39.192,105.479 39.281,106.994 37.805 C 109.649 35.220,113.687 34.250,116.946 35.416 C 117.684 35.680,118.388 35.917,118.511 35.943 C 118.633 35.969,118.825 35.516,118.937 34.936 C 121.172 23.388,124.931 17.662,132.575 14.162 C 140.970 10.319,151.826 15.967,154.174 25.400 C 154.407 26.337,154.796 26.390,155.932 25.638 C 157.406 24.663,159.697 24.565,161.215 25.414 C 162.576 26.175,162.954 26.186,162.954 25.465 C 162.954 24.743,164.789 22.690,166.143 21.896 C 172.726 18.038,179.756 22.729,180.774 31.658 C 181.036 33.953,181.306 34.374,181.973 33.529 C 185.899 28.554,193.416 29.041,196.317 34.458 L 196.737 35.243 197.559 34.446 C 198.246 33.780,198.600 33.630,199.718 33.531 L 201.055 33.411 201.393 32.285 C 202.141 29.794,204.234 28.700,206.509 29.610 C 207.606 30.049,207.772 29.960,208.373 28.605 C 209.424 26.237,211.834 25.669,213.801 27.324 C 214.730 28.105,214.795 28.081,215.534 26.665 C 216.620 24.587,220.162 22.472,223.203 22.085 C 224.393 21.934,224.493 21.873,224.629 21.205 C 225.385 17.510,229.204 14.655,234.014 14.189 C 238.487 13.756,243.845 18.246,243.845 22.428 C 243.845 23.134,243.993 23.121,245.604 22.274 C 249.283 20.339,255.334 24.117,255.334 28.351 C 255.334 29.503,256.323 29.457,257.444 28.252 C 258.878 26.712,260.330 26.571,262.149 27.795 C 263.349 28.602,264.130 28.723,263.877 28.063 C 263.721 27.658,266.197 25.327,267.377 24.767 C 268.952 24.020,270.438 23.997,271.505 24.704 C 272.763 25.536,272.733 25.548,273.967 23.693 C 278.510 16.859,288.461 19.014,290.154 27.198 C 290.391 28.342,290.668 28.604,291.647 28.608 C 292.839 28.613,293.552 29.045,294.092 30.091 C 294.640 31.151,295.061 31.372,295.612 30.889 C 296.348 30.244,297.488 29.786,298.582 29.695 C 299.883 29.586,299.671 29.807,300.578 27.615 C 302.954 21.875,307.785 17.925,312.777 17.640 C 318.285 17.326,323.443 20.075,325.761 24.560 C 326.312 25.626,326.752 25.512,327.337 24.152 C 328.648 21.104,332.754 19.653,335.956 21.106 C 336.970 21.567,337.397 21.549,337.397 21.046 C 337.397 20.495,339.396 17.749,340.498 16.784 C 344.878 12.953,350.368 13.304,353.420 17.610 C 354.521 19.163,354.900 19.247,355.317 18.031 C 355.751 16.764,357.976 13.943,360.301 11.713 C 371.885 0.596,384.349 0.919,387.800 12.426 C 388.279 14.023,388.588 14.093,389.919 12.908 C 392.560 10.558,396.278 10.045,399.308 11.612 C 399.983 11.961,400.000 11.956,400.000 11.397 C 400.000 9.283,392.876 9.450,390.018 11.631 C 388.743 12.605,388.841 12.610,388.501 11.547 C 386.957 6.719,383.211 3.398,378.666 2.828 C 377.575 2.691,376.680 2.593,376.677 2.610 C 376.673 2.626,375.897 2.730,374.953 2.840 " stroke="none" fill="#0c0b0a" fill-rule="evenodd"></path></g></svg>