<svg id="svg" version="1.1" xmlns="http://www.w3.org/2000/svg" xmlns:xlink="http://www.w3.org/1999/xlink" width="400" height="278.84834663626" viewBox="0, 0, 400,278.84834663626"><g id="svgg"><path id="path0" d="M129.877 1.453 C 130.131 1.491,130.506 1.490,130.711 1.451 C 130.916 1.411,130.708 1.380,130.250 1.381 C 129.792 1.382,129.624 1.415,129.877 1.453 M128.083 2.234 C 125.838 2.947,123.333 5.122,123.333 6.358 C 123.333 6.562,123.154 6.685,122.749 6.761 C 121.811 6.937,120.922 7.698,120.424 8.749 C 120.180 9.265,119.928 9.661,119.865 9.628 C 116.244 7.732,113.255 8.279,110.090 11.417 C 108.811 12.684,107.297 15.151,107.267 16.016 C 107.248 16.561,106.851 16.674,106.490 16.238 C 104.961 14.396,101.337 15.209,99.529 17.800 C 98.690 19.003,98.642 19.019,98.170 18.255 C 96.633 15.769,91.088 16.070,88.371 18.787 C 87.673 19.485,87.586 19.528,87.426 19.253 C 84.987 15.059,78.243 13.723,74.972 16.787 C 74.297 17.418,74.167 17.176,74.162 15.282 C 74.146 10.037,72.604 7.579,68.702 6.579 C 65.346 5.719,60.333 8.513,60.333 11.243 C 60.333 11.829,60.180 11.780,59.336 10.919 C 58.111 9.671,56.612 9.375,55.505 10.163 C 54.977 10.539,54.875 10.472,54.494 9.500 C 51.713 2.398,41.058 1.845,36.278 8.555 C 34.985 10.369,34.000 12.674,34.000 13.883 C 34.000 14.330,33.961 14.363,33.542 14.270 C 31.692 13.859,31.295 13.829,29.954 13.995 C 24.804 14.635,21.614 17.289,21.083 21.375 C 20.953 22.373,20.674 22.395,20.027 21.458 C 18.294 18.945,14.950 18.002,13.056 19.491 C 12.431 19.983,12.393 19.951,12.159 18.708 C 11.085 13.015,5.545 10.303,0.708 13.104 L -0.000 13.514 -0.000 146.174 L 0.000 278.833 200.000 278.833 L 400.000 278.833 400.000 147.005 C 400.000 41.621,399.958 15.190,399.792 15.239 C 399.677 15.273,399.208 15.396,398.750 15.513 C 395.801 16.263,393.112 18.038,391.639 20.208 C 390.881 21.323,390.866 21.328,390.263 20.652 C 388.985 19.217,386.517 19.124,385.125 20.457 C 384.873 20.698,384.667 20.999,384.667 21.124 C 384.667 21.583,384.325 21.119,383.555 19.618 C 381.094 14.816,377.239 13.446,371.066 15.179 C 367.863 16.079,362.500 19.473,362.500 20.601 C 362.500 21.110,361.983 20.788,361.601 20.042 C 360.535 17.955,358.374 17.192,356.554 18.258 L 355.829 18.683 355.486 17.884 C 354.805 16.296,354.602 15.956,353.825 15.110 C 350.863 11.883,344.646 12.009,341.279 15.364 C 340.565 16.076,340.500 15.972,340.500 14.118 C 340.500 9.546,338.144 6.364,334.042 5.397 C 331.553 4.810,326.833 5.707,326.833 6.768 C 326.833 7.230,326.428 6.914,325.988 6.111 C 323.708 1.943,317.195 1.335,313.792 4.972 C 313.017 5.801,312.500 6.634,312.500 7.054 C 312.500 7.199,312.257 7.330,311.875 7.391 C 311.014 7.530,310.102 8.335,309.596 9.405 L 309.171 10.304 308.213 9.785 C 304.927 8.005,300.071 9.989,297.642 14.104 C 296.695 15.707,296.317 16.596,296.441 16.921 C 296.569 17.253,296.102 17.241,295.823 16.904 C 294.208 14.959,290.379 15.831,288.640 18.542 C 288.046 19.468,287.860 19.510,287.358 18.831 C 285.532 16.361,279.913 16.715,277.504 19.452 L 276.864 20.178 276.481 19.631 C 274.514 16.820,272.664 15.833,269.360 15.833 C 266.981 15.833,265.117 16.397,264.179 17.401 C 263.569 18.054,263.546 18.001,263.421 15.625 C 263.217 11.716,262.798 10.459,261.204 8.968 C 258.931 6.842,256.043 6.433,252.950 7.801 C 251.450 8.465,249.259 11.131,249.563 11.923 C 249.772 12.468,249.264 12.313,248.706 11.661 C 247.629 10.403,245.993 9.983,244.859 10.675 C 244.208 11.072,244.010 10.971,243.688 10.078 C 241.123 2.986,230.249 2.477,225.442 9.225 C 224.123 11.076,222.962 13.893,223.230 14.591 C 223.370 14.957,223.144 14.988,222.169 14.736 C 219.816 14.125,216.865 14.701,214.126 16.306 C 211.565 17.807,210.757 19.037,210.251 22.208 C 210.126 22.995,209.864 22.998,209.335 22.221 C 207.436 19.435,204.460 18.648,201.967 20.273 C 201.525 20.562,201.511 20.559,201.175 20.131 C 200.723 19.557,199.248 18.833,198.528 18.833 C 197.312 18.833,195.500 19.788,195.500 20.429 C 195.500 20.964,195.139 20.602,194.615 19.542 C 192.068 14.395,188.427 12.863,182.417 14.412 C 179.055 15.278,173.136 18.912,173.185 20.079 C 173.203 20.513,172.835 20.271,172.505 19.632 C 171.313 17.326,168.960 16.438,167.298 17.666 C 166.779 18.050,166.333 18.012,166.333 17.585 C 166.333 15.860,163.628 13.101,161.261 12.413 C 158.510 11.613,153.114 13.066,151.888 14.937 C 151.472 15.572,151.333 15.244,151.331 13.615 C 151.323 8.898,148.885 5.702,144.559 4.739 C 142.115 4.195,137.906 5.067,137.616 6.177 C 137.488 6.664,137.228 6.460,136.790 5.529 C 135.567 2.925,131.159 1.257,128.083 2.234 M44.375 3.448 C 44.535 3.490,44.798 3.490,44.958 3.448 C 45.119 3.406,44.987 3.372,44.667 3.372 C 44.346 3.372,44.215 3.406,44.375 3.448 M141.792 4.118 C 141.998 4.157,142.335 4.157,142.542 4.118 C 142.748 4.078,142.579 4.045,142.167 4.045 C 141.754 4.045,141.585 4.078,141.792 4.118 M52.917 6.167 C 53.275 6.533,53.605 6.833,53.651 6.833 C 53.697 6.833,53.441 6.533,53.083 6.167 C 52.725 5.800,52.395 5.500,52.349 5.500 C 52.303 5.500,52.559 5.800,52.917 6.167 M66.788 5.954 C 67.084 5.990,67.609 5.991,67.955 5.955 C 68.300 5.919,68.058 5.889,67.417 5.888 C 66.775 5.887,66.492 5.917,66.788 5.954 M149.000 6.417 C 149.311 6.737,149.603 7.000,149.649 7.000 C 149.695 7.000,149.478 6.737,149.167 6.417 C 148.856 6.096,148.564 5.833,148.518 5.833 C 148.472 5.833,148.689 6.096,149.000 6.417 M226.491 7.125 L 225.917 7.750 226.542 7.176 C 227.123 6.641,227.243 6.500,227.116 6.500 C 227.088 6.500,226.807 6.781,226.491 7.125 M61.575 8.208 L 60.917 8.917 61.625 8.258 C 62.015 7.895,62.333 7.577,62.333 7.550 C 62.333 7.423,62.188 7.550,61.575 8.208 M250.833 8.750 C 250.428 9.162,250.135 9.500,250.181 9.500 C 250.226 9.500,250.595 9.162,251.000 8.750 C 251.405 8.337,251.699 8.000,251.653 8.000 C 251.607 8.000,251.238 8.337,250.833 8.750 M4.711 11.453 C 4.964 11.491,5.339 11.490,5.544 11.451 C 5.749 11.411,5.542 11.380,5.083 11.381 C 4.625 11.382,4.457 11.415,4.711 11.453 M9.667 13.219 C 9.667 13.248,9.910 13.491,10.208 13.760 L 10.750 14.250 10.260 13.708 C 9.804 13.203,9.667 13.090,9.667 13.219 M30.375 13.455 C 30.719 13.491,31.281 13.491,31.625 13.455 C 31.969 13.419,31.688 13.389,31.000 13.389 C 30.313 13.389,30.031 13.419,30.375 13.455 M375.121 13.954 C 375.417 13.990,375.942 13.991,376.288 13.955 C 376.634 13.919,376.392 13.889,375.750 13.888 C 375.108 13.887,374.825 13.917,375.121 13.954 M268.955 15.287 C 269.250 15.324,269.775 15.324,270.121 15.288 C 270.467 15.252,270.225 15.222,269.583 15.221 C 268.942 15.221,268.659 15.250,268.955 15.287 M292.542 15.448 C 292.702 15.490,292.965 15.490,293.125 15.448 C 293.285 15.406,293.154 15.372,292.833 15.372 C 292.512 15.372,292.381 15.406,292.542 15.448 M22.406 16.875 L 21.917 17.417 22.458 16.927 C 22.756 16.658,23.000 16.414,23.000 16.385 C 23.000 16.257,22.862 16.370,22.406 16.875 M392.324 18.458 L 391.750 19.083 392.375 18.509 C 392.957 17.974,393.077 17.833,392.949 17.833 C 392.922 17.833,392.640 18.115,392.324 18.458 M387.375 18.948 C 387.535 18.990,387.798 18.990,387.958 18.948 C 388.119 18.906,387.988 18.872,387.667 18.872 C 387.346 18.872,387.215 18.906,387.375 18.948 " stroke="none" fill="#fb6c83" fill-rule="evenodd"></path><path id="path1" d="M127.683 1.919 C 125.552 2.661,123.691 4.236,123.138 5.767 C 122.993 6.167,122.830 6.333,122.582 6.333 C 121.938 6.333,120.698 7.277,120.222 8.130 L 119.771 8.937 118.845 8.561 C 114.781 6.909,110.170 9.236,107.559 14.255 L 106.761 15.790 106.100 15.353 C 104.163 14.072,100.557 15.171,99.222 17.449 L 98.791 18.185 98.270 17.624 C 96.177 15.365,91.180 15.637,88.444 18.159 L 87.701 18.844 87.354 18.283 C 85.104 14.643,78.850 13.485,75.150 16.023 L 74.718 16.320 74.610 14.202 C 74.478 11.610,74.214 10.446,73.505 9.342 C 70.458 4.592,63.102 4.949,60.358 9.980 C 59.898 10.823,59.857 10.856,59.678 10.522 C 59.160 9.554,56.557 8.930,55.615 9.547 C 55.216 9.808,55.214 9.806,54.510 8.417 C 52.295 4.050,47.128 2.315,41.567 4.072 C 37.913 5.226,34.488 9.074,33.799 12.798 C 33.641 13.653,33.557 13.823,33.344 13.725 C 32.266 13.229,28.558 13.540,26.686 14.284 C 23.079 15.718,21.215 17.706,20.752 20.612 L 20.642 21.308 19.678 20.345 C 17.710 18.377,15.247 17.760,13.324 18.755 C 12.684 19.086,12.718 19.112,12.507 18.127 C 11.739 14.547,8.699 11.688,5.494 11.532 C 3.332 11.427,0.187 12.403,0.028 13.229 C -0.024 13.498,0.051 13.485,0.693 13.113 C 5.544 10.302,11.084 13.006,12.159 18.708 C 12.393 19.951,12.431 19.983,13.056 19.491 C 14.950 18.002,18.294 18.945,20.027 21.458 C 20.674 22.395,20.953 22.373,21.083 21.375 C 21.614 17.289,24.804 14.635,29.954 13.995 C 31.295 13.829,31.692 13.859,33.542 14.270 C 33.961 14.363,34.000 14.330,34.000 13.883 C 34.000 12.674,34.985 10.369,36.278 8.555 C 41.058 1.845,51.713 2.398,54.494 9.500 C 54.875 10.472,54.977 10.539,55.505 10.163 C 56.612 9.375,58.111 9.671,59.336 10.919 C 60.180 11.780,60.333 11.829,60.333 11.243 C 60.333 8.513,65.346 5.719,68.702 6.579 C 72.604 7.579,74.146 10.037,74.162 15.282 C 74.167 17.176,74.297 17.418,74.972 16.787 C 78.243 13.723,84.987 15.059,87.426 19.253 C 87.586 19.528,87.673 19.485,88.371 18.787 C 91.088 16.070,96.633 15.769,98.170 18.255 C 98.642 19.019,98.690 19.003,99.529 17.800 C 101.337 15.209,104.961 14.396,106.490 16.238 C 106.851 16.674,107.248 16.561,107.267 16.016 C 107.297 15.151,108.811 12.684,110.090 11.417 C 113.255 8.279,116.244 7.732,119.865 9.628 C 119.928 9.661,120.180 9.265,120.424 8.749 C 120.922 7.698,121.811 6.937,122.749 6.761 C 123.154 6.685,123.333 6.562,123.333 6.358 C 123.333 5.384,125.135 3.570,126.964 2.701 C 130.437 1.051,135.351 2.465,136.790 5.529 C 137.228 6.460,137.488 6.664,137.616 6.177 C 137.906 5.067,142.115 4.195,144.559 4.739 C 148.885 5.702,151.323 8.898,151.331 13.615 C 151.333 15.244,151.472 15.572,151.888 14.937 C 153.114 13.066,158.510 11.613,161.261 12.413 C 163.628 13.101,166.333 15.860,166.333 17.585 C 166.333 18.012,166.779 18.050,167.298 17.666 C 168.960 16.438,171.313 17.326,172.505 19.632 C 172.835 20.271,173.203 20.513,173.185 20.079 C 173.136 18.912,179.055 15.278,182.417 14.412 C 188.427 12.863,192.068 14.395,194.615 19.542 C 195.139 20.602,195.500 20.964,195.500 20.429 C 195.500 19.788,197.312 18.833,198.528 18.833 C 199.248 18.833,200.723 19.557,201.175 20.131 C 201.511 20.559,201.525 20.562,201.967 20.273 C 204.460 18.648,207.436 19.435,209.335 22.221 C 209.864 22.998,210.126 22.995,210.251 22.208 C 210.757 19.037,211.565 17.807,214.126 16.306 C 216.865 14.701,219.816 14.125,222.169 14.736 C 223.144 14.988,223.370 14.957,223.230 14.591 C 222.962 13.893,224.123 11.076,225.442 9.225 C 230.249 2.477,241.123 2.986,243.688 10.078 C 244.010 10.971,244.208 11.072,244.859 10.675 C 245.993 9.983,247.629 10.403,248.706 11.661 C 249.264 12.313,249.772 12.468,249.563 11.923 C 249.259 11.131,251.450 8.465,252.950 7.801 C 256.043 6.433,258.931 6.842,261.204 8.968 C 262.798 10.459,263.217 11.716,263.421 15.625 C 263.546 18.001,263.569 18.054,264.179 17.401 C 265.117 16.397,266.981 15.833,269.360 15.833 C 272.664 15.833,274.514 16.820,276.481 19.631 L 276.864 20.178 277.504 19.452 C 279.913 16.715,285.532 16.361,287.358 18.831 C 287.860 19.510,288.046 19.468,288.640 18.542 C 290.379 15.831,294.208 14.959,295.823 16.904 C 296.102 17.241,296.569 17.253,296.441 16.921 C 296.317 16.596,296.695 15.707,297.642 14.104 C 300.071 9.989,304.927 8.005,308.213 9.785 L 309.171 10.304 309.596 9.405 C 310.102 8.335,311.014 7.530,311.875 7.391 C 312.257 7.330,312.500 7.199,312.500 7.054 C 312.500 6.634,313.017 5.801,313.792 4.972 C 317.195 1.335,323.708 1.943,325.988 6.111 C 326.428 6.914,326.833 7.230,326.833 6.768 C 326.833 5.707,331.553 4.810,334.042 5.397 C 338.144 6.364,340.500 9.546,340.500 14.118 C 340.500 15.972,340.565 16.076,341.279 15.364 C 344.646 12.009,350.863 11.883,353.825 15.110 C 354.602 15.956,354.805 16.296,355.486 17.884 L 355.829 18.683 356.554 18.258 C 358.374 17.192,360.535 17.955,361.601 20.042 C 361.983 20.788,362.500 21.110,362.500 20.601 C 362.500 19.473,367.863 16.079,371.066 15.179 C 377.239 13.446,381.094 14.816,383.555 19.618 C 384.325 21.119,384.667 21.583,384.667 21.124 C 384.667 20.999,384.873 20.698,385.125 20.457 C 386.517 19.124,388.985 19.217,390.263 20.652 C 390.866 21.328,390.881 21.323,391.639 20.208 C 393.143 17.993,395.973 16.153,398.926 15.470 C 399.759 15.277,400.196 14.973,399.967 14.745 C 399.829 14.607,397.443 15.349,396.241 15.905 C 394.062 16.912,391.695 18.858,391.123 20.112 L 390.952 20.489 390.434 20.052 C 388.825 18.693,386.768 18.643,385.092 19.921 L 384.518 20.359 384.023 19.388 C 382.955 17.292,381.285 15.542,379.583 14.735 C 375.444 12.773,367.535 14.912,363.156 19.177 C 362.163 20.144,362.238 20.121,361.937 19.542 C 360.968 17.678,358.002 16.684,356.462 17.706 C 356.105 17.943,356.077 17.913,355.461 16.648 C 353.053 11.699,347.142 10.808,341.625 14.564 L 341.000 14.990 341.000 13.753 C 341.000 6.643,333.740 2.462,327.208 5.810 C 326.819 6.010,326.500 6.110,326.500 6.032 C 326.500 4.598,322.828 2.353,319.999 2.057 C 317.236 1.768,313.664 3.680,312.509 6.065 C 312.210 6.683,312.023 6.859,311.528 6.993 C 310.689 7.220,309.766 8.023,309.346 8.890 L 308.996 9.614 308.185 9.212 C 304.440 7.359,299.291 9.893,296.810 14.811 C 296.410 15.602,296.069 16.277,296.050 16.311 C 296.032 16.344,295.768 16.217,295.462 16.028 C 293.280 14.679,289.568 15.805,288.325 18.194 C 288.213 18.408,288.096 18.613,288.065 18.648 C 288.034 18.684,287.697 18.432,287.316 18.088 C 284.947 15.947,280.290 16.293,277.628 18.807 C 277.286 19.131,276.978 19.362,276.943 19.323 C 276.909 19.283,276.430 18.722,275.880 18.077 C 273.397 15.168,268.675 14.404,264.966 16.312 L 264.016 16.801 263.932 16.109 C 263.886 15.728,263.806 14.742,263.754 13.917 C 263.547 10.613,262.576 8.944,260.000 7.459 C 256.541 5.464,251.414 6.948,249.650 10.455 C 249.430 10.892,249.230 11.282,249.207 11.321 C 249.183 11.360,248.958 11.200,248.707 10.965 C 247.656 9.982,245.973 9.573,244.992 10.062 C 244.693 10.211,244.434 10.333,244.416 10.333 C 244.399 10.333,244.097 9.752,243.747 9.042 C 241.667 4.825,236.408 2.967,231.087 4.570 C 227.147 5.757,223.870 9.370,222.983 13.507 L 222.804 14.343 222.193 14.213 C 217.224 13.156,210.718 16.621,210.074 20.667 C 210.023 20.987,209.944 21.428,209.899 21.646 L 209.816 22.042 209.445 21.539 C 207.637 19.088,203.831 18.099,202.115 19.633 C 201.911 19.816,201.744 19.851,201.598 19.743 C 199.348 18.078,197.359 17.934,195.886 19.328 L 195.355 19.830 194.642 18.492 C 192.199 13.908,188.140 12.415,182.307 13.956 C 179.295 14.752,175.646 16.814,173.700 18.819 L 173.056 19.482 172.486 18.619 C 171.366 16.923,169.009 16.195,167.391 17.048 L 166.866 17.325 166.272 16.074 C 163.999 11.287,158.159 10.237,152.860 13.663 L 151.833 14.326 151.833 13.190 C 151.833 7.637,147.420 3.621,141.917 4.164 C 140.247 4.329,138.877 4.691,138.003 5.198 C 137.456 5.515,137.413 5.518,137.253 5.243 C 135.481 2.197,131.178 0.703,127.683 1.919 " stroke="none" fill="#100f0e" fill-rule="evenodd"></path><path id="path2" d="M126.824 0.399 C 124.981 1.037,122.956 2.644,122.042 4.192 C 121.883 4.460,121.373 4.894,120.909 5.157 C 120.444 5.419,119.827 5.903,119.538 6.232 C 119.054 6.784,118.977 6.815,118.548 6.640 C 117.902 6.375,114.573 6.376,113.750 6.640 C 110.699 7.621,108.321 9.541,106.661 12.362 L 106.104 13.308 104.674 13.215 C 102.414 13.069,100.580 13.630,99.085 14.925 C 98.719 15.242,98.381 15.480,98.335 15.454 C 95.789 14.058,92.129 14.091,89.251 15.537 C 88.884 15.721,88.445 15.994,88.277 16.142 C 87.990 16.395,87.947 16.381,87.620 15.932 C 86.053 13.781,80.950 12.400,77.638 13.230 C 76.127 13.609,76.167 13.626,76.167 12.591 C 76.167 4.970,65.876 1.389,60.397 7.104 L 59.377 8.167 58.667 7.917 C 58.277 7.779,57.536 7.666,57.021 7.666 L 56.083 7.666 55.417 6.566 C 52.562 1.858,45.320 0.342,39.187 3.169 C 38.534 3.470,38.000 3.775,38.000 3.847 C 38.000 3.919,37.869 4.020,37.708 4.072 C 36.468 4.472,33.312 8.724,32.568 10.997 L 32.311 11.786 30.280 11.880 C 25.613 12.095,21.200 14.641,19.728 17.967 C 19.716 17.994,19.416 17.853,19.061 17.653 C 17.885 16.991,17.100 16.781,15.438 16.682 L 13.792 16.583 13.521 15.902 C 11.390 10.541,5.935 8.386,0.542 10.776 C 0.026 11.004,0.000 11.059,0.000 11.924 C 0.000 12.897,0.066 12.969,0.607 12.590 C 4.852 9.617,11.106 12.376,12.493 17.833 C 12.597 18.246,12.712 18.670,12.747 18.776 C 12.791 18.909,13.030 18.861,13.507 18.625 C 15.449 17.664,17.996 18.428,19.962 20.562 C 20.666 21.325,20.667 21.325,20.667 20.855 C 20.667 16.524,27.363 12.541,32.958 13.544 C 33.661 13.670,33.667 13.667,33.667 13.175 C 33.667 12.082,34.924 9.491,36.349 7.647 C 41.058 1.552,51.431 1.966,54.563 8.372 L 55.193 9.662 55.672 9.414 C 56.653 8.907,58.747 9.386,59.564 10.305 L 59.877 10.658 60.440 9.704 C 64.451 2.912,74.191 5.466,74.599 13.417 C 74.646 14.333,74.720 15.319,74.763 15.607 L 74.842 16.130 75.712 15.661 C 79.639 13.548,84.759 14.639,87.286 18.128 L 87.770 18.796 88.398 18.164 C 90.920 15.627,95.761 15.263,98.160 17.430 L 98.790 17.999 99.232 17.331 C 100.727 15.071,103.879 14.085,105.934 15.234 C 106.360 15.472,106.733 15.667,106.763 15.667 C 106.793 15.667,106.975 15.310,107.168 14.875 C 109.030 10.664,112.440 8.094,116.167 8.094 C 117.809 8.094,118.194 8.167,119.502 8.730 C 119.678 8.806,119.852 8.658,120.075 8.244 C 120.522 7.414,121.529 6.550,122.289 6.345 C 122.807 6.206,122.972 6.059,123.144 5.583 C 124.943 0.609,134.009 0.086,137.002 4.784 C 137.435 5.463,137.460 5.476,137.830 5.217 C 138.530 4.727,140.714 4.152,142.250 4.055 C 147.574 3.717,151.833 7.673,151.833 12.955 C 151.833 14.347,151.800 14.320,152.731 13.680 C 157.900 10.124,164.282 11.306,166.421 16.216 L 166.881 17.273 167.476 16.970 C 169.187 16.097,171.528 16.916,172.693 18.795 L 173.031 19.340 173.981 18.462 C 179.161 13.673,187.368 11.881,191.403 14.658 C 192.508 15.418,194.031 17.180,194.667 18.433 C 194.987 19.066,195.269 19.615,195.292 19.653 C 195.316 19.692,195.503 19.570,195.709 19.381 C 197.210 18.009,199.822 18.034,201.223 19.435 C 201.613 19.825,201.734 19.868,201.969 19.696 C 203.970 18.237,206.640 18.682,208.854 20.843 L 209.803 21.769 209.990 20.817 C 210.546 17.991,212.867 15.788,216.583 14.559 C 217.973 14.100,221.268 13.902,222.375 14.212 C 222.782 14.325,222.833 14.295,222.833 13.946 C 222.833 12.338,225.401 7.890,227.098 6.559 C 232.637 2.216,240.988 3.410,243.760 8.942 C 244.388 10.195,244.459 10.276,244.750 10.063 C 245.558 9.472,248.233 10.075,248.875 10.992 C 249.124 11.347,249.133 11.341,249.488 10.607 C 251.754 5.927,258.602 5.074,262.071 9.039 C 263.392 10.550,263.720 11.633,263.933 15.194 L 264.029 16.804 264.583 16.427 C 268.182 13.985,274.751 15.407,276.783 19.068 C 276.947 19.364,277.001 19.344,277.588 18.756 C 277.934 18.410,278.862 17.817,279.650 17.438 L 281.083 16.750 283.167 16.750 C 285.488 16.750,286.753 17.170,287.566 18.208 L 287.935 18.680 288.560 17.773 C 290.161 15.449,293.509 14.609,295.529 16.025 L 295.974 16.337 296.392 15.425 C 299.007 9.712,304.459 7.104,308.863 9.459 C 308.924 9.492,309.103 9.251,309.259 8.922 C 309.636 8.127,310.901 7.034,311.595 6.903 C 312.045 6.819,312.189 6.688,312.343 6.221 C 312.833 4.736,315.305 2.832,317.501 2.248 C 320.581 1.428,324.741 2.893,326.192 5.308 C 326.393 5.643,326.575 5.941,326.596 5.970 C 326.617 5.999,326.934 5.871,327.299 5.684 C 333.633 2.453,340.988 6.627,340.998 13.458 C 340.999 14.215,341.032 14.833,341.072 14.833 C 341.111 14.833,341.580 14.544,342.113 14.190 C 347.274 10.769,353.343 11.867,355.532 16.616 C 356.167 17.995,356.109 17.922,356.390 17.689 C 357.767 16.546,361.031 17.574,361.911 19.428 L 362.189 20.015 363.193 19.086 C 370.573 12.253,380.450 12.232,383.900 19.042 L 384.550 20.324 385.109 19.833 C 386.473 18.635,388.584 18.614,390.116 19.784 C 390.779 20.289,390.917 20.339,391.070 20.124 C 391.169 19.985,391.488 19.532,391.778 19.117 C 392.891 17.526,395.811 15.759,398.640 14.967 L 400.000 14.586 400.000 13.774 L 400.000 12.963 399.375 13.080 C 396.482 13.621,393.318 15.245,391.216 17.267 L 390.506 17.951 389.628 17.647 C 388.567 17.281,387.032 17.251,385.959 17.577 L 385.168 17.817 384.523 16.867 C 382.105 13.307,377.424 11.511,373.115 12.492 C 368.112 13.632,367.165 14.066,362.751 17.238 C 362.603 17.344,362.366 17.250,361.995 16.938 C 360.781 15.917,358.857 15.326,357.700 15.620 L 357.041 15.788 356.360 14.752 C 353.846 10.928,349.134 9.578,344.250 11.283 C 342.485 11.900,342.725 12.071,341.984 9.669 C 340.380 4.463,333.924 1.732,327.893 3.707 C 327.264 3.913,327.241 3.906,326.750 3.346 C 325.314 1.706,321.936 0.333,319.333 0.333 C 316.363 0.333,312.459 2.495,311.267 4.800 C 311.120 5.085,310.734 5.444,310.410 5.598 C 310.086 5.752,309.457 6.204,309.013 6.603 L 308.206 7.329 307.228 7.145 C 303.176 6.384,298.930 8.386,296.276 12.309 C 295.757 13.075,295.333 13.798,295.333 13.915 C 295.333 14.085,295.210 14.083,294.708 13.904 C 293.007 13.297,289.859 14.099,288.287 15.539 L 287.661 16.113 286.866 15.720 C 285.229 14.909,281.906 14.803,279.999 15.500 C 278.806 15.936,277.334 16.710,277.334 16.902 C 277.334 16.985,277.038 16.752,276.678 16.384 C 274.494 14.157,269.599 12.942,266.669 13.900 C 265.530 14.273,265.536 14.276,265.421 13.208 C 265.122 10.431,264.535 9.159,262.746 7.417 C 259.085 3.851,252.890 4.057,249.440 7.860 C 248.658 8.723,248.648 8.727,248.080 8.521 C 247.764 8.407,247.011 8.285,246.404 8.250 L 245.302 8.186 244.474 6.926 C 241.426 2.283,234.546 0.965,228.272 3.823 C 225.817 4.942,222.229 9.315,221.733 11.794 L 221.625 12.333 220.271 12.334 C 219.526 12.335,218.654 12.401,218.333 12.481 C 218.012 12.561,217.300 12.721,216.750 12.837 C 213.893 13.438,210.220 15.962,209.225 18.009 L 208.928 18.620 207.839 18.057 C 205.978 17.095,203.637 16.925,202.389 17.661 C 201.920 17.938,201.829 17.946,201.649 17.729 C 201.028 16.980,198.504 16.425,197.469 16.810 C 196.177 17.290,195.909 17.230,195.336 16.338 C 193.036 12.754,188.684 11.050,184.000 11.900 C 182.036 12.256,178.851 13.167,178.417 13.496 C 178.272 13.605,177.847 13.849,176.250 14.737 C 175.632 15.081,174.921 15.568,174.233 16.119 C 173.383 16.799,173.290 16.798,172.478 16.103 C 171.638 15.384,170.577 15.079,168.995 15.100 L 167.739 15.117 167.245 14.288 C 166.784 13.516,166.090 12.761,164.939 11.780 C 163.520 10.571,161.060 9.909,158.500 10.050 C 156.917 10.136,154.716 10.627,153.813 11.094 C 153.419 11.298,153.333 11.301,153.333 11.115 C 153.333 9.801,151.835 6.888,150.400 5.412 C 147.561 2.492,142.288 1.541,138.324 3.234 C 138.148 3.308,137.862 3.127,137.444 2.674 C 135.217 0.267,130.263 -0.794,126.824 0.399 " stroke="none" fill="#fbdbd3" fill-rule="evenodd"></path></g></svg>