<svg id="svg" version="1.1" xmlns="http://www.w3.org/2000/svg" xmlns:xlink="http://www.w3.org/1999/xlink" width="400" height="562.7137970353477" viewBox="0, 0, 400,562.7137970353477"><g id="svgg"><path id="path0" d="M190.680 3.980 C 190.132 4.228,189.683 4.484,189.683 4.547 C 189.683 4.654,191.788 3.800,192.009 3.604 C 192.262 3.378,191.578 3.572,190.680 3.980 M193.580 3.997 C 191.199 4.695,189.645 5.503,188.531 6.623 C 187.369 7.790,185.463 10.570,185.463 11.096 C 185.463 11.868,184.935 11.716,183.704 10.592 C 180.691 7.837,174.996 6.832,171.114 8.370 C 165.408 10.630,161.960 14.763,160.777 20.764 C 160.209 23.643,159.998 23.768,158.664 22.016 C 153.397 15.104,142.606 17.090,138.190 25.783 C 137.526 27.090,137.254 27.425,136.957 27.299 C 134.759 26.370,134.190 26.231,133.184 26.378 C 130.516 26.769,127.932 28.931,127.910 30.790 C 127.894 32.101,127.347 31.747,126.493 29.875 C 121.035 17.899,98.984 17.732,95.992 29.645 C 95.552 31.397,95.239 31.553,94.330 30.472 C 92.637 28.460,89.175 28.661,87.886 30.845 C 87.268 31.893,86.610 31.913,86.395 30.891 C 84.970 24.139,74.592 20.157,67.540 23.656 C 64.369 25.229,59.900 29.978,60.389 31.253 C 60.604 31.814,60.115 31.932,59.185 31.543 C 57.199 30.713,55.253 31.149,53.780 32.753 C 52.403 34.253,52.132 34.067,51.949 31.493 C 51.179 20.684,42.772 14.582,36.715 20.436 C 35.064 22.032,35.020 22.034,34.447 20.526 C 33.285 17.464,29.707 15.872,27.313 17.352 C 26.863 17.630,26.495 17.934,26.495 18.027 C 26.495 18.295,24.933 19.930,24.676 19.930 C 24.549 19.930,24.194 19.562,23.887 19.114 C 22.400 16.938,20.524 16.198,17.585 16.629 C 16.618 16.771,15.630 16.912,15.390 16.943 C 14.904 17.005,14.788 16.836,14.099 15.057 C 13.066 12.393,9.479 7.913,7.428 6.727 C 5.294 5.493,1.473 4.979,0.214 5.757 C 0.085 5.837,0.000 116.571,0.000 284.305 L 0.000 562.720 200.000 562.720 L 400.000 562.720 400.000 293.318 C 400.000 143.302,399.911 23.916,399.799 23.916 C 399.370 23.916,397.378 25.894,396.937 26.758 C 396.298 28.011,395.927 27.900,395.336 26.277 C 392.822 19.384,385.571 17.898,380.296 23.196 C 378.256 25.244,376.863 27.724,376.631 29.719 C 376.456 31.223,376.149 31.281,375.014 30.025 C 371.466 26.099,363.033 28.185,358.968 33.995 C 358.056 35.298,357.480 35.426,357.378 34.347 C 356.830 28.600,353.856 24.927,348.066 22.847 C 345.795 22.031,341.086 22.428,339.392 23.578 C 338.178 24.402,338.177 24.402,337.991 21.526 C 337.197 9.270,324.951 3.320,314.249 9.990 C 310.055 12.605,306.001 17.519,306.726 19.111 C 306.873 19.433,306.923 19.767,306.839 19.852 C 306.597 20.093,305.510 19.509,305.510 19.137 C 305.510 17.456,301.417 17.558,300.410 19.264 C 299.726 20.421,299.211 20.071,298.562 18.004 C 296.475 11.370,288.408 9.563,282.937 14.505 C 280.429 16.771,277.823 22.374,278.207 24.678 C 278.391 25.786,278.172 25.793,276.683 24.723 C 271.380 20.913,262.820 23.159,259.314 29.279 C 258.288 31.070,257.967 31.070,256.961 29.283 C 254.436 24.794,248.674 23.304,243.431 25.783 C 242.640 26.158,241.857 26.682,241.690 26.948 C 241.349 27.495,240.563 27.605,240.563 27.106 C 240.563 26.528,238.491 24.454,237.403 23.943 C 234.471 22.565,229.690 23.994,227.629 26.865 C 226.526 28.400,226.148 28.268,226.406 26.436 C 227.262 20.351,225.612 16.171,221.229 13.319 C 217.530 10.913,213.756 11.032,210.897 13.645 C 209.466 14.953,209.079 14.929,208.814 13.515 C 208.503 11.857,206.904 11.194,205.627 12.192 C 204.716 12.905,204.222 12.802,204.212 11.899 C 204.144 5.619,199.590 2.234,193.580 3.997 M1.469 4.623 C 1.825 4.677,2.353 4.676,2.641 4.620 C 2.929 4.564,2.638 4.520,1.993 4.522 C 1.348 4.524,1.112 4.569,1.469 4.623 M6.116 5.011 C 6.357 5.227,7.737 5.861,7.737 5.756 C 7.737 5.621,6.438 4.924,6.186 4.924 C 6.094 4.924,6.062 4.963,6.116 5.011 M188.023 5.803 C 186.641 7.352,186.327 7.737,186.449 7.737 C 186.520 7.737,187.074 7.157,187.680 6.448 C 188.802 5.135,189.071 4.629,188.023 5.803 M203.915 6.914 C 204.129 7.364,204.346 7.690,204.397 7.639 C 204.504 7.532,203.792 6.096,203.632 6.096 C 203.573 6.096,203.700 6.464,203.915 6.914 M322.333 6.262 C 322.623 6.317,323.098 6.317,323.388 6.262 C 323.678 6.206,323.441 6.160,322.860 6.160 C 322.280 6.160,322.043 6.206,322.333 6.262 M173.329 6.727 C 173.555 6.786,173.924 6.786,174.150 6.727 C 174.376 6.668,174.191 6.619,173.740 6.619 C 173.288 6.619,173.104 6.668,173.329 6.727 M204.959 10.492 C 204.922 11.287,205.216 11.453,205.862 11.001 C 206.140 10.806,206.106 10.785,205.702 10.898 C 205.278 11.017,205.175 10.930,205.093 10.386 C 204.999 9.763,204.992 9.768,204.959 10.492 M334.232 10.785 C 334.736 11.301,335.201 11.723,335.265 11.723 C 335.330 11.723,334.970 11.301,334.467 10.785 C 333.963 10.270,333.498 9.848,333.434 9.848 C 333.369 9.848,333.728 10.270,334.232 10.785 M12.661 10.785 C 12.937 11.172,13.215 11.489,13.279 11.489 C 13.344 11.489,13.171 11.172,12.896 10.785 C 12.620 10.399,12.342 10.082,12.278 10.082 C 12.213 10.082,12.386 10.399,12.661 10.785 M163.974 11.807 C 162.918 12.973,161.845 14.537,162.101 14.537 C 162.163 14.537,162.455 14.141,162.752 13.658 C 163.048 13.174,163.757 12.277,164.327 11.665 C 164.897 11.052,165.307 10.551,165.237 10.551 C 165.168 10.551,164.600 11.116,163.974 11.807 M215.299 10.722 C 215.783 10.772,216.574 10.772,217.057 10.722 C 217.541 10.671,217.145 10.630,216.178 10.630 C 215.211 10.630,214.815 10.671,215.299 10.722 M289.742 10.716 C 290.032 10.772,290.507 10.772,290.797 10.716 C 291.087 10.661,290.850 10.615,290.270 10.615 C 289.689 10.615,289.452 10.661,289.742 10.716 M286.166 11.363 C 285.261 11.778,285.682 11.784,286.753 11.372 C 287.204 11.198,287.415 11.052,287.222 11.048 C 287.028 11.044,286.553 11.186,286.166 11.363 M211.011 12.209 L 210.199 12.929 211.137 12.277 C 211.653 11.919,212.119 11.594,212.173 11.557 C 212.226 11.520,212.170 11.489,212.047 11.489 C 211.924 11.489,211.458 11.813,211.011 12.209 M309.833 12.251 L 309.144 13.013 309.906 12.324 C 310.617 11.682,310.776 11.489,310.595 11.489 C 310.555 11.489,310.212 11.832,309.833 12.251 M221.219 12.113 C 221.818 12.681,223.290 13.641,222.935 13.232 C 222.718 12.983,222.190 12.579,221.763 12.335 C 221.335 12.091,221.090 11.991,221.219 12.113 M296.952 13.599 C 297.587 14.244,298.159 14.771,298.224 14.771 C 298.288 14.771,297.821 14.244,297.186 13.599 C 296.551 12.954,295.979 12.427,295.914 12.427 C 295.850 12.427,296.317 12.954,296.952 13.599 M28.898 15.877 C 29.253 15.931,29.833 15.931,30.188 15.877 C 30.542 15.823,30.252 15.780,29.543 15.780 C 28.834 15.780,28.543 15.823,28.898 15.877 M41.681 17.286 C 42.102 17.338,42.735 17.337,43.087 17.284 C 43.440 17.230,43.095 17.187,42.321 17.189 C 41.547 17.190,41.259 17.234,41.681 17.286 M36.214 19.519 L 35.287 20.516 36.284 19.589 C 37.210 18.727,37.388 18.523,37.211 18.523 C 37.172 18.523,36.724 18.971,36.214 19.519 M387.163 18.919 C 387.389 18.978,387.758 18.978,387.984 18.919 C 388.209 18.860,388.025 18.812,387.573 18.812 C 387.122 18.812,386.937 18.860,387.163 18.919 M47.597 19.300 C 47.597 19.340,47.940 19.683,48.359 20.062 L 49.121 20.750 48.432 19.988 C 47.790 19.278,47.597 19.118,47.597 19.300 M338.851 20.926 C 338.806 22.678,339.121 23.324,339.623 22.511 C 339.704 22.380,339.613 22.338,339.413 22.415 C 339.123 22.527,339.046 22.246,338.979 20.830 L 338.897 19.109 338.851 20.926 M390.406 19.536 C 390.779 19.821,392.263 20.596,392.263 20.504 C 392.263 20.348,390.787 19.463,390.524 19.462 C 390.405 19.461,390.353 19.494,390.406 19.536 M108.372 19.869 C 109.237 19.914,110.714 19.914,111.654 19.869 C 112.595 19.825,111.887 19.788,110.082 19.788 C 108.277 19.787,107.507 19.824,108.372 19.869 M382.122 20.298 C 381.213 20.791,381.316 20.962,382.239 20.492 C 383.123 20.043,383.279 19.926,382.982 19.939 C 382.863 19.944,382.477 20.106,382.122 20.298 M102.638 21.118 C 102.154 21.373,101.758 21.635,101.758 21.699 C 101.758 21.803,103.610 20.937,103.849 20.721 C 104.119 20.477,103.415 20.708,102.638 21.118 M393.658 21.923 C 395.354 23.808,395.467 23.915,394.899 23.095 C 394.631 22.708,393.958 21.970,393.403 21.454 C 392.547 20.658,392.586 20.730,393.658 21.923 M118.640 21.454 C 118.962 21.638,119.332 21.789,119.461 21.789 C 119.590 21.789,119.431 21.638,119.109 21.454 C 118.787 21.269,118.417 21.119,118.288 21.119 C 118.159 21.119,118.318 21.269,118.640 21.454 M71.688 21.502 C 71.978 21.558,72.453 21.558,72.743 21.502 C 73.033 21.446,72.796 21.400,72.216 21.400 C 71.635 21.400,71.398 21.446,71.688 21.502 M75.322 21.498 C 75.548 21.557,75.917 21.557,76.143 21.498 C 76.369 21.439,76.184 21.391,75.733 21.391 C 75.281 21.391,75.097 21.439,75.322 21.498 M344.256 21.507 C 344.739 21.558,345.530 21.558,346.014 21.507 C 346.498 21.457,346.102 21.415,345.135 21.415 C 344.168 21.415,343.772 21.457,344.256 21.507 M341.911 21.733 C 342.137 21.792,342.506 21.792,342.732 21.733 C 342.957 21.674,342.773 21.625,342.321 21.625 C 341.870 21.625,341.685 21.674,341.911 21.733 M234.178 22.444 C 234.599 22.496,235.232 22.495,235.585 22.442 C 235.937 22.388,235.592 22.346,234.818 22.347 C 234.045 22.348,233.756 22.392,234.178 22.444 M378.593 23.426 C 378.137 23.930,377.647 24.590,377.504 24.891 C 377.259 25.407,377.268 25.405,377.660 24.856 C 377.890 24.534,378.433 23.875,378.867 23.390 C 379.301 22.905,379.603 22.509,379.539 22.509 C 379.474 22.509,379.049 22.921,378.593 23.426 M137.749 24.385 C 137.549 24.771,137.438 25.088,137.503 25.088 C 137.567 25.088,137.784 24.771,137.984 24.385 C 138.184 23.998,138.295 23.681,138.230 23.681 C 138.166 23.681,137.949 23.998,137.749 24.385 M397.313 24.609 C 396.815 25.120,396.318 25.483,396.210 25.416 C 396.102 25.349,396.014 25.406,396.014 25.543 C 396.014 26.006,396.382 25.794,397.421 24.736 C 397.990 24.156,398.403 23.681,398.338 23.681 C 398.273 23.681,397.812 24.099,397.313 24.609 M62.829 25.967 L 61.547 27.315 62.896 26.034 C 64.148 24.843,64.351 24.619,64.177 24.619 C 64.141 24.619,63.534 25.226,62.829 25.967 M227.451 25.066 C 227.433 25.615,227.445 25.618,227.902 25.205 C 228.431 24.726,228.549 24.414,228.042 24.835 C 227.789 25.044,227.684 25.037,227.591 24.805 C 227.524 24.638,227.461 24.756,227.451 25.066 M260.484 26.202 L 259.203 27.550 260.551 26.268 C 261.804 25.078,262.007 24.853,261.833 24.853 C 261.796 24.853,261.189 25.460,260.484 26.202 M254.396 25.153 C 254.396 25.198,254.739 25.485,255.158 25.792 C 255.630 26.137,255.794 26.194,255.588 25.941 C 255.276 25.556,254.396 24.975,254.396 25.153 M133.353 25.488 C 133.643 25.544,134.118 25.544,134.408 25.488 C 134.698 25.432,134.461 25.386,133.880 25.386 C 133.300 25.386,133.063 25.432,133.353 25.488 M136.870 25.830 C 136.557 26.158,136.537 26.260,136.786 26.260 C 136.966 26.260,137.179 26.087,137.261 25.875 C 137.466 25.340,137.350 25.327,136.870 25.830 M130.539 26.160 C 129.630 26.653,129.733 26.823,130.657 26.354 C 131.540 25.904,131.697 25.788,131.399 25.801 C 131.281 25.806,130.894 25.968,130.539 26.160 M128.825 27.491 L 128.136 28.253 128.898 27.565 C 129.317 27.186,129.660 26.843,129.660 26.803 C 129.660 26.621,129.467 26.781,128.825 27.491 M370.047 26.891 C 370.273 26.950,370.642 26.950,370.868 26.891 C 371.093 26.832,370.909 26.784,370.457 26.784 C 370.006 26.784,369.821 26.832,370.047 26.891 M95.466 27.794 C 95.316 28.123,95.198 28.519,95.203 28.675 C 95.208 28.830,95.368 28.598,95.558 28.159 C 95.959 27.236,95.874 26.899,95.466 27.794 M90.800 28.070 C 91.157 28.124,91.684 28.122,91.973 28.067 C 92.261 28.011,91.970 27.967,91.325 27.969 C 90.680 27.970,90.444 28.016,90.800 28.070 M374.846 28.610 C 375.261 29.045,375.640 29.354,375.689 29.296 C 375.737 29.238,375.398 28.882,374.934 28.505 L 374.091 27.818 374.846 28.610 M87.976 29.185 C 87.597 29.503,87.219 29.697,87.137 29.614 C 87.055 29.532,86.987 29.588,86.987 29.738 C 86.987 29.889,87.066 30.007,87.163 30.002 C 87.382 29.990,89.018 28.605,88.813 28.605 C 88.731 28.605,88.354 28.866,87.976 29.185 M94.238 29.132 C 94.893 29.875,95.201 29.952,95.175 29.367 C 95.163 29.095,95.115 29.061,95.032 29.267 C 94.940 29.498,94.750 29.438,94.289 29.032 L 93.669 28.488 94.238 29.132 M362.286 29.544 C 361.751 29.932,361.313 30.307,361.313 30.377 C 361.313 30.487,362.634 29.588,363.294 29.028 C 363.850 28.557,363.163 28.909,362.286 29.544 M56.682 30.177 C 56.972 30.233,57.447 30.233,57.737 30.177 C 58.028 30.121,57.790 30.076,57.210 30.076 C 56.630 30.076,56.392 30.121,56.682 30.177 M359.780 31.712 L 358.617 32.943 359.848 31.779 C 360.525 31.139,361.079 30.585,361.079 30.548 C 361.079 30.373,360.861 30.568,359.780 31.712 M52.787 31.346 C 52.738 32.129,53.095 32.176,53.717 31.470 L 54.279 30.832 53.654 31.383 L 53.028 31.933 52.923 31.383 C 52.824 30.858,52.817 30.856,52.787 31.346 " stroke="none" fill="#eb6493" fill-rule="evenodd"></path><path id="path1" d="M192.614 0.234 C 192.356 0.345,191.901 0.443,191.602 0.452 C 190.298 0.492,187.582 2.068,185.791 3.824 L 184.015 5.566 182.805 5.096 C 173.304 1.401,162.603 5.372,158.859 13.983 C 157.907 16.172,158.126 16.064,156.304 15.238 C 149.286 12.056,141.447 14.160,136.650 20.513 L 135.233 22.390 133.668 22.427 C 131.786 22.472,130.363 22.823,128.989 23.581 L 127.967 24.146 126.293 22.593 C 122.385 18.969,119.911 17.824,114.203 17.000 C 105.758 15.780,98.082 18.400,94.324 23.783 L 93.435 25.056 92.008 25.052 C 91.223 25.050,90.104 25.119,89.521 25.207 C 88.467 25.365,88.454 25.358,87.205 24.038 C 79.193 15.566,64.965 16.567,58.693 26.045 C 58.105 26.934,58.043 26.964,56.754 26.964 L 55.423 26.964 55.014 25.599 C 52.267 16.429,44.393 11.857,37.007 15.146 C 36.153 15.525,36.140 15.523,35.248 14.813 C 32.512 12.635,28.574 12.042,25.888 13.405 C 24.712 14.002,24.688 14.004,24.130 13.571 C 23.216 12.861,21.390 12.427,19.317 12.427 C 17.554 12.427,17.368 12.383,17.225 11.931 C 17.138 11.659,16.516 10.625,15.841 9.635 C 11.881 3.819,8.174 1.403,3.223 1.410 C -0.002 1.415,0.000 1.414,-0.000 3.134 L -0.000 4.572 2.766 4.572 C 7.701 4.572,12.191 8.173,15.011 14.393 L 15.687 15.885 16.695 15.690 C 19.932 15.064,21.800 15.518,23.732 17.400 L 24.910 18.547 25.281 18.007 C 27.674 14.529,33.480 15.380,35.168 19.457 L 35.459 20.159 36.565 19.165 C 39.792 16.267,44.878 16.550,48.172 19.812 C 50.279 21.900,52.738 27.078,52.750 29.455 C 52.753 29.987,52.820 30.747,52.899 31.144 L 53.044 31.866 53.896 31.187 C 55.004 30.305,56.636 29.900,58.086 30.149 C 58.700 30.254,59.270 30.345,59.353 30.352 C 59.435 30.358,60.047 29.550,60.712 28.555 C 66.591 19.765,78.025 18.786,85.177 26.460 C 85.794 27.122,86.509 28.154,86.767 28.755 L 87.235 29.847 87.756 29.358 C 89.617 27.610,92.693 27.496,94.412 29.111 L 94.927 29.594 95.172 28.686 C 95.780 26.428,98.518 23.462,101.581 21.742 C 109.525 17.283,122.482 20.431,126.661 27.835 L 127.373 29.097 128.575 27.808 C 130.512 25.729,133.293 24.865,135.522 25.648 C 136.924 26.141,136.849 26.165,137.417 25.029 C 141.708 16.454,152.786 14.156,158.845 20.585 L 159.542 21.325 160.064 19.361 C 161.634 13.446,164.932 9.774,170.809 7.397 C 174.588 5.869,180.845 6.774,183.848 9.284 C 185.013 10.257,184.833 10.281,185.548 9.060 C 187.381 5.934,189.346 4.347,192.733 3.257 C 199.193 1.180,204.138 3.859,205.048 9.929 C 205.183 10.832,205.289 11.020,205.597 10.900 C 207.209 10.276,208.694 10.764,209.311 12.121 C 209.534 12.611,209.741 13.052,209.771 13.099 C 209.801 13.147,210.258 12.815,210.787 12.363 C 217.072 6.983,227.646 13.822,227.664 23.278 L 227.667 25.102 229.191 24.059 C 232.909 21.513,236.912 21.697,239.846 24.549 L 241.356 26.017 242.425 25.337 C 247.322 22.222,255.829 23.905,257.672 28.353 C 258.060 29.291,258.141 29.269,258.930 28.021 C 262.463 22.428,270.995 20.087,276.391 23.230 C 277.370 23.800,277.295 23.826,277.478 22.849 C 278.661 16.541,283.236 11.573,288.605 10.765 C 293.359 10.050,298.154 12.932,299.423 17.268 L 299.708 18.240 300.779 17.561 C 302.050 16.755,303.607 16.654,304.954 17.292 C 305.621 17.608,305.843 17.634,305.921 17.404 C 308.043 11.114,319.891 4.817,326.810 6.301 C 333.119 7.654,339.039 14.795,339.039 21.053 C 339.039 22.396,339.083 22.541,339.449 22.388 C 347.017 19.244,356.171 23.796,357.929 31.580 L 358.292 33.190 360.121 31.410 C 364.825 26.830,371.456 25.471,374.794 28.401 C 375.254 28.805,375.661 29.096,375.698 29.046 C 375.735 28.997,375.901 28.482,376.068 27.902 C 378.839 18.230,391.108 15.861,395.524 24.145 L 396.290 25.583 397.405 24.540 C 398.018 23.966,398.853 23.325,399.260 23.114 C 399.976 22.744,400.000 22.682,400.000 21.195 L 400.000 19.658 399.238 19.822 C 398.819 19.912,398.172 20.141,397.801 20.331 C 397.136 20.671,397.108 20.658,395.808 19.401 C 390.190 13.965,379.016 15.511,375.557 22.204 C 374.517 24.214,374.344 24.411,373.740 24.270 C 369.904 23.369,364.371 24.400,360.979 26.648 L 359.824 27.414 359.044 26.230 C 358.616 25.579,358.265 24.964,358.265 24.863 C 358.265 24.761,357.500 23.952,356.565 23.064 C 353.271 19.935,348.773 18.197,344.314 18.329 L 341.735 18.406 341.671 17.819 C 341.162 13.172,335.744 6.386,331.268 4.791 C 321.519 1.318,312.230 4.108,305.455 12.544 L 304.513 13.716 302.921 13.759 L 301.328 13.802 300.310 12.428 C 296.809 7.705,288.902 6.287,283.118 9.343 C 280.389 10.786,275.967 16.191,275.585 18.553 L 275.448 19.403 274.125 19.056 C 269.563 17.859,262.885 19.607,259.393 22.912 L 258.209 24.033 257.139 23.182 C 253.723 20.466,246.628 19.750,242.675 21.722 C 241.984 22.067,241.931 22.055,241.141 21.361 C 239.027 19.505,235.608 18.822,232.122 19.558 C 231.284 19.735,230.582 19.865,230.563 19.846 C 230.543 19.828,230.245 18.969,229.901 17.939 C 227.357 10.336,219.588 6.020,212.365 8.197 C 210.649 8.714,210.501 8.724,209.786 8.370 C 209.368 8.163,208.720 7.904,208.346 7.795 C 207.814 7.639,207.602 7.383,207.377 6.620 C 206.662 4.201,204.062 1.263,201.929 0.465 C 200.593 -0.035,193.642 -0.207,192.614 0.234 " stroke="none" fill="#fbdbd3" fill-rule="evenodd"></path><path id="path2" d="M194.469 2.912 C 190.396 3.841,187.795 5.649,185.794 8.944 L 184.949 10.336 183.975 9.540 C 180.599 6.782,174.808 5.921,170.725 7.570 C 164.656 10.021,161.277 14.161,159.794 20.958 L 159.647 21.635 158.897 20.827 C 152.845 14.302,142.073 16.352,137.738 24.853 C 137.376 25.563,137.050 26.183,137.014 26.231 C 136.978 26.279,136.519 26.147,135.996 25.938 C 133.532 24.952,130.420 25.859,128.460 28.133 L 127.395 29.370 126.674 28.093 C 120.494 17.142,99.128 17.305,95.526 28.331 C 95.287 29.062,95.061 29.705,95.023 29.760 C 94.985 29.815,94.665 29.585,94.312 29.248 C 92.654 27.667,89.966 27.739,87.974 29.419 C 87.549 29.777,87.178 30.031,87.148 29.982 C 87.119 29.934,86.854 29.379,86.560 28.749 C 85.778 27.076,84.964 26.107,83.243 24.803 C 75.650 19.052,65.932 20.803,60.677 28.871 C 59.581 30.554,59.458 30.667,58.925 30.464 C 57.361 29.870,54.883 30.396,53.641 31.585 C 52.888 32.307,52.852 32.244,52.660 29.886 C 52.373 26.346,50.010 21.424,47.662 19.473 C 44.164 16.568,39.191 16.603,36.360 19.552 L 35.556 20.389 34.921 19.280 C 32.774 15.529,28.081 14.750,25.632 17.738 L 24.789 18.767 23.981 17.823 C 22.199 15.741,20.831 15.385,16.099 15.772 C 15.506 15.821,15.389 15.708,15.010 14.716 C 13.259 10.140,8.334 5.384,4.678 4.740 C 2.618 4.376,0.000 4.730,0.000 5.372 C 0.000 5.748,0.118 5.776,0.996 5.606 C 5.959 4.646,11.657 8.756,14.099 15.057 C 14.788 16.836,14.904 17.005,15.390 16.943 C 15.630 16.912,16.618 16.771,17.585 16.629 C 20.524 16.198,22.400 16.938,23.887 19.114 C 24.194 19.562,24.549 19.930,24.676 19.930 C 24.933 19.930,26.495 18.295,26.495 18.027 C 26.495 17.934,26.863 17.630,27.313 17.352 C 29.707 15.872,33.285 17.464,34.447 20.526 C 35.020 22.034,35.064 22.032,36.715 20.436 C 42.772 14.582,51.179 20.684,51.949 31.493 C 52.132 34.067,52.403 34.253,53.780 32.753 C 55.253 31.149,57.199 30.713,59.185 31.543 C 60.115 31.932,60.604 31.814,60.389 31.253 C 59.900 29.978,64.369 25.229,67.540 23.656 C 74.592 20.157,84.970 24.139,86.395 30.891 C 86.610 31.913,87.268 31.893,87.886 30.845 C 89.175 28.661,92.637 28.460,94.330 30.472 C 95.239 31.553,95.552 31.397,95.992 29.645 C 97.642 23.076,106.478 19.242,115.194 21.312 C 120.479 22.568,124.579 25.675,126.493 29.875 C 127.347 31.747,127.894 32.101,127.910 30.790 C 127.932 28.931,130.516 26.769,133.184 26.378 C 134.190 26.231,134.759 26.370,136.957 27.299 C 137.254 27.425,137.526 27.090,138.190 25.783 C 142.606 17.090,153.397 15.104,158.664 22.016 C 159.998 23.768,160.209 23.643,160.777 20.764 C 163.026 9.360,176.039 3.586,183.704 10.592 C 184.935 11.716,185.463 11.868,185.463 11.096 C 185.463 9.852,188.894 5.924,190.745 5.048 C 198.215 1.514,204.132 4.525,204.212 11.899 C 204.222 12.802,204.716 12.905,205.627 12.192 C 206.904 11.194,208.503 11.857,208.814 13.515 C 209.079 14.929,209.466 14.953,210.897 13.645 C 213.756 11.032,217.530 10.913,221.229 13.319 C 225.612 16.171,227.262 20.351,226.406 26.436 C 226.148 28.268,226.526 28.400,227.629 26.865 C 229.690 23.994,234.471 22.565,237.403 23.943 C 238.491 24.454,240.563 26.528,240.563 27.106 C 240.563 27.605,241.349 27.495,241.690 26.948 C 241.857 26.682,242.640 26.158,243.431 25.783 C 248.674 23.304,254.436 24.794,256.961 29.283 C 257.967 31.070,258.288 31.070,259.314 29.279 C 262.820 23.159,271.380 20.913,276.683 24.723 C 278.172 25.793,278.391 25.786,278.207 24.678 C 277.823 22.374,280.429 16.771,282.937 14.505 C 288.408 9.563,296.475 11.370,298.562 18.004 C 299.211 20.071,299.726 20.421,300.410 19.264 C 301.417 17.558,305.510 17.456,305.510 19.137 C 305.510 19.509,306.597 20.093,306.839 19.852 C 306.923 19.767,306.873 19.433,306.726 19.111 C 306.001 17.519,310.055 12.605,314.249 9.990 C 324.951 3.320,337.197 9.270,337.991 21.526 C 338.177 24.402,338.178 24.402,339.392 23.578 C 341.086 22.428,345.795 22.031,348.066 22.847 C 353.856 24.927,356.830 28.600,357.378 34.347 C 357.480 35.426,358.056 35.298,358.968 33.995 C 363.033 28.185,371.466 26.099,375.014 30.025 C 376.149 31.281,376.456 31.223,376.631 29.719 C 376.863 27.724,378.256 25.244,380.296 23.196 C 385.571 17.898,392.822 19.384,395.336 26.277 C 395.927 27.900,396.298 28.011,396.937 26.758 C 397.378 25.894,399.370 23.916,399.799 23.916 C 399.909 23.916,400.000 23.705,400.000 23.447 C 400.000 22.626,399.228 23.027,397.368 24.815 C 396.758 25.401,396.228 25.834,396.191 25.777 C 396.153 25.720,395.896 25.189,395.619 24.595 C 392.253 17.373,382.908 17.352,377.927 24.554 C 377.076 25.785,375.850 28.349,375.850 28.898 C 375.850 29.487,375.563 29.407,374.795 28.606 C 371.834 25.514,364.997 26.935,360.085 31.662 C 358.318 33.362,358.244 33.406,358.119 32.834 C 356.943 27.437,354.522 24.517,349.513 22.453 C 346.849 21.356,342.033 21.331,339.884 22.402 C 338.840 22.923,338.804 22.874,338.804 20.892 C 338.804 15.609,335.067 10.202,329.543 7.493 C 322.478 4.028,311.562 8.285,306.672 16.413 C 306.246 17.122,305.872 17.736,305.843 17.777 C 305.814 17.818,305.362 17.634,304.839 17.367 C 303.323 16.594,301.487 16.877,300.204 18.083 L 299.698 18.558 299.168 16.958 C 297.711 12.561,292.401 9.901,287.564 11.145 C 282.542 12.435,279.331 16.233,277.614 22.912 L 277.360 23.901 276.002 23.211 C 270.313 20.320,262.480 22.635,258.928 28.258 C 258.155 29.482,258.080 29.509,257.711 28.700 C 255.471 23.783,247.336 22.148,242.237 25.589 C 241.672 25.970,241.189 26.251,241.164 26.213 C 238.195 21.675,232.358 21.209,227.966 25.159 L 227.444 25.628 227.584 24.124 C 228.468 14.656,217.897 7.323,210.836 12.507 L 209.699 13.342 209.409 12.540 C 208.836 10.954,207.476 10.465,205.484 11.128 C 205.027 11.279,204.976 11.184,204.833 9.912 C 204.243 4.704,199.794 1.698,194.469 2.912 " stroke="none" fill="#0d0c0c" fill-rule="evenodd"></path></g></svg>