<svg id="svg" version="1.1" xmlns="http://www.w3.org/2000/svg" xmlns:xlink="http://www.w3.org/1999/xlink" width="400" height="278.2782212086659" viewBox="0, 0, 400,278.2782212086659"><g id="svgg"><path id="path0" d="M98.294 1.285 C 98.501 1.324,98.801 1.323,98.960 1.281 C 99.120 1.239,98.950 1.207,98.583 1.209 C 98.217 1.211,98.086 1.245,98.294 1.285 M97.250 1.916 C 95.111 2.392,92.667 4.387,92.667 5.658 C 92.667 5.947,92.504 5.865,91.740 5.193 C 87.957 1.862,81.562 4.760,80.405 10.330 C 80.079 11.899,80.152 11.866,79.212 10.865 C 76.208 7.666,71.262 8.597,69.167 12.756 C 68.938 13.211,68.734 13.611,68.715 13.646 C 68.696 13.680,68.376 13.587,68.004 13.438 C 66.414 12.802,63.484 14.229,63.940 15.417 C 64.235 16.186,63.593 15.642,63.177 14.772 C 60.433 9.022,49.703 8.927,48.064 14.637 C 47.718 15.844,47.787 15.814,47.004 15.107 C 45.984 14.185,44.917 14.280,43.984 15.376 C 43.554 15.880,43.167 15.892,43.167 15.400 C 43.167 12.894,38.151 10.474,34.901 11.412 C 32.959 11.973,30.167 14.426,30.167 15.572 C 30.167 15.882,29.910 15.901,29.176 15.645 C 28.390 15.371,27.476 15.690,26.837 16.462 C 26.207 17.225,26.061 17.073,25.922 15.505 C 25.455 10.256,21.162 7.268,18.342 10.230 C 17.657 10.950,17.408 10.986,17.257 10.385 C 16.768 8.436,14.465 7.761,13.153 9.182 C 12.406 9.990,12.307 9.990,11.572 9.176 C 10.758 8.275,10.135 8.094,8.644 8.326 C 7.990 8.427,7.441 8.489,7.423 8.463 C 7.406 8.438,7.257 8.051,7.091 7.603 C 6.021 4.717,3.142 2.465,0.884 2.747 L 0.000 2.857 0.000 140.512 L 0.000 278.167 200.000 278.167 L 400.000 278.167 400.000 149.583 C 400.000 78.862,399.955 21.000,399.901 21.000 C 399.623 21.000,398.861 21.714,398.578 22.238 C 398.151 23.030,397.967 22.989,397.625 22.026 C 396.469 18.772,392.855 18.051,390.214 20.549 C 389.271 21.440,388.333 23.087,388.333 23.850 C 388.333 24.581,388.042 24.582,387.252 23.853 C 385.480 22.220,382.322 22.939,379.932 25.521 C 378.772 26.774,378.761 26.773,378.590 25.489 C 378.073 21.604,372.513 18.702,369.647 20.821 C 369.070 21.248,369.000 21.148,369.000 19.906 C 369.000 14.964,364.228 11.522,359.394 12.978 C 356.679 13.796,353.186 16.969,353.365 18.456 C 353.429 18.993,353.086 19.139,352.840 18.679 C 352.335 17.736,351.118 17.660,350.313 18.522 C 349.729 19.147,349.606 19.074,349.230 17.875 C 348.171 14.499,343.728 13.813,341.155 16.627 C 339.931 17.967,338.861 20.471,339.102 21.432 C 339.230 21.942,339.113 21.936,338.411 21.401 C 336.170 19.692,332.695 20.233,330.471 22.636 C 329.951 23.199,329.477 23.810,329.418 23.996 C 329.250 24.524,328.871 24.394,328.509 23.685 C 328.064 22.811,326.969 21.905,325.951 21.567 C 324.409 21.055,321.204 21.608,320.884 22.442 C 320.739 22.819,320.487 22.699,319.810 21.929 C 318.259 20.167,315.818 20.297,314.031 22.236 C 313.643 22.656,313.299 23.000,313.265 23.000 C 313.232 23.000,313.213 22.119,313.224 21.042 C 313.247 18.718,312.974 17.923,311.701 16.606 C 309.739 14.578,306.856 14.255,305.346 15.895 C 304.819 16.467,304.552 16.449,304.416 15.832 C 304.209 14.888,303.436 14.538,302.811 15.104 C 302.346 15.524,302.000 15.278,302.000 14.526 C 302.000 9.842,295.225 9.516,292.917 14.090 C 292.733 14.453,292.567 14.779,292.546 14.815 C 292.526 14.851,292.217 14.616,291.860 14.294 C 288.057 10.858,281.356 13.836,280.345 19.409 C 280.109 20.712,279.967 20.819,279.420 20.103 C 276.806 16.675,271.278 17.515,269.214 21.653 C 268.959 22.165,268.733 22.613,268.712 22.649 C 268.691 22.685,268.351 22.591,267.956 22.441 C 267.029 22.086,266.415 22.099,265.552 22.491 C 264.807 22.829,263.793 24.035,263.938 24.411 C 264.243 25.206,263.584 24.659,263.163 23.768 C 260.383 17.883,249.205 18.022,247.924 23.956 C 247.759 24.723,247.609 24.743,246.950 24.083 C 246.053 23.187,244.422 23.401,243.838 24.491 C 243.541 25.047,243.250 24.887,243.025 24.042 C 242.329 21.431,238.035 19.511,234.901 20.410 C 232.813 21.010,230.660 22.936,230.105 24.703 C 230.021 24.968,229.968 24.970,229.397 24.731 C 228.527 24.367,227.782 24.554,226.916 25.351 C 226.080 26.122,226.049 26.098,225.910 24.570 C 225.425 19.265,221.169 16.262,218.342 19.230 C 217.607 20.002,217.481 19.989,217.115 19.098 C 216.349 17.235,214.387 16.851,213.048 18.301 L 212.346 19.062 211.662 18.284 C 210.793 17.297,210.114 17.089,208.570 17.336 C 207.958 17.433,207.442 17.491,207.423 17.465 C 207.403 17.438,207.260 17.090,207.105 16.691 C 205.327 12.126,200.272 10.093,198.568 13.257 C 198.153 14.027,198.067 13.994,197.573 12.875 C 196.482 10.404,194.431 9.469,192.052 10.359 C 190.304 11.013,188.333 13.441,188.333 14.940 C 188.333 15.570,188.029 15.685,187.711 15.176 C 186.280 12.884,181.041 14.263,179.201 17.417 C 178.938 17.866,178.739 17.554,178.595 16.467 C 178.071 12.523,172.655 9.705,169.675 11.827 C 169.060 12.265,169.048 12.240,168.957 10.386 C 168.726 5.685,164.058 2.555,159.394 3.974 C 156.590 4.827,153.101 8.062,153.419 9.512 C 153.559 10.149,153.371 10.128,152.595 9.417 C 151.714 8.610,151.025 8.674,150.213 9.637 C 149.766 10.168,149.641 10.064,149.249 8.833 C 147.533 3.450,139.167 6.169,139.167 12.109 C 139.167 12.977,139.232 12.967,138.185 12.262 C 135.549 10.488,131.189 11.747,129.572 14.749 C 129.166 15.504,128.918 15.486,128.503 14.674 C 127.381 12.474,124.407 11.677,121.792 12.876 C 121.265 13.117,120.833 13.394,120.833 13.491 C 120.833 13.859,120.361 13.644,119.995 13.110 C 118.649 11.146,115.736 11.254,113.956 13.332 C 113.173 14.247,113.145 14.212,113.269 12.452 C 113.625 7.388,108.319 3.667,105.346 6.895 C 104.902 7.376,104.500 7.470,104.500 7.091 C 104.500 6.106,103.670 5.615,102.837 6.108 C 102.202 6.483,102.006 6.279,102.003 5.241 C 101.997 3.727,100.780 2.181,99.330 1.847 C 98.433 1.640,98.497 1.638,97.250 1.916 M1.211 2.286 C 1.464 2.325,1.839 2.324,2.044 2.284 C 2.249 2.244,2.042 2.213,1.583 2.214 C 1.125 2.216,0.957 2.248,1.211 2.286 M93.906 3.042 L 93.417 3.583 93.958 3.094 C 94.256 2.825,94.500 2.581,94.500 2.552 C 94.500 2.423,94.362 2.537,93.906 3.042 M161.628 3.121 C 161.928 3.158,162.378 3.157,162.628 3.119 C 162.878 3.081,162.633 3.051,162.083 3.052 C 161.533 3.053,161.328 3.084,161.628 3.121 M154.406 6.708 L 153.917 7.250 154.458 6.760 C 154.756 6.491,155.000 6.248,155.000 6.219 C 155.000 6.090,154.862 6.203,154.406 6.708 M140.909 7.208 L 140.250 7.917 140.958 7.258 C 141.617 6.645,141.743 6.500,141.617 6.500 C 141.590 6.500,141.271 6.819,140.909 7.208 M9.211 7.786 C 9.464 7.825,9.839 7.824,10.044 7.784 C 10.249 7.744,10.042 7.713,9.583 7.714 C 9.125 7.716,8.957 7.748,9.211 7.786 M74.375 8.453 C 74.627 8.491,75.040 8.491,75.292 8.453 C 75.544 8.415,75.337 8.383,74.833 8.383 C 74.329 8.383,74.123 8.415,74.375 8.453 M151.375 8.448 C 151.535 8.490,151.798 8.490,151.958 8.448 C 152.119 8.406,151.987 8.372,151.667 8.372 C 151.346 8.372,151.215 8.406,151.375 8.448 M54.214 9.957 C 54.745 9.990,55.570 9.990,56.048 9.956 C 56.526 9.922,56.092 9.895,55.083 9.896 C 54.075 9.896,53.684 9.924,54.214 9.957 M298.294 10.285 C 298.501 10.324,298.801 10.323,298.960 10.281 C 299.120 10.239,298.950 10.207,298.583 10.209 C 298.217 10.211,298.086 10.245,298.294 10.285 M172.128 10.787 C 172.428 10.825,172.878 10.824,173.128 10.786 C 173.378 10.748,173.133 10.717,172.583 10.718 C 172.033 10.719,171.828 10.750,172.128 10.787 M134.875 10.953 C 135.127 10.991,135.540 10.991,135.792 10.953 C 136.044 10.915,135.837 10.883,135.333 10.883 C 134.829 10.883,134.623 10.915,134.875 10.953 M300.667 10.885 C 300.667 10.914,300.910 11.158,301.208 11.427 L 301.750 11.917 301.260 11.375 C 300.804 10.870,300.667 10.757,300.667 10.885 M201.125 11.284 C 201.331 11.324,201.669 11.324,201.875 11.284 C 202.081 11.245,201.912 11.212,201.500 11.212 C 201.088 11.212,200.919 11.245,201.125 11.284 M119.833 12.250 C 120.144 12.571,120.436 12.833,120.482 12.833 C 120.528 12.833,120.311 12.571,120.000 12.250 C 119.689 11.929,119.397 11.667,119.351 11.667 C 119.305 11.667,119.522 11.929,119.833 12.250 M361.628 12.121 C 361.928 12.158,362.378 12.157,362.628 12.119 C 362.878 12.081,362.633 12.051,362.083 12.052 C 361.533 12.053,361.328 12.084,361.628 12.121 M42.250 13.000 C 42.608 13.367,42.938 13.667,42.984 13.667 C 43.030 13.667,42.775 13.367,42.417 13.000 C 42.059 12.633,41.728 12.333,41.682 12.333 C 41.637 12.333,41.892 12.633,42.250 13.000 M66.544 12.786 C 66.797 12.825,67.172 12.824,67.377 12.784 C 67.582 12.744,67.375 12.713,66.917 12.714 C 66.458 12.716,66.291 12.748,66.544 12.786 M127.667 12.885 C 127.667 12.914,127.910 13.158,128.208 13.427 L 128.750 13.917 128.260 13.375 C 127.804 12.870,127.667 12.757,127.667 12.885 M28.294 15.118 C 28.501 15.158,28.801 15.156,28.960 15.115 C 29.120 15.073,28.950 15.040,28.583 15.042 C 28.217 15.044,28.086 15.078,28.294 15.118 M311.917 16.167 C 312.275 16.533,312.605 16.833,312.651 16.833 C 312.697 16.833,312.441 16.533,312.083 16.167 C 311.725 15.800,311.395 15.500,311.349 15.500 C 311.303 15.500,311.559 15.800,311.917 16.167 M209.211 16.786 C 209.464 16.825,209.839 16.824,210.044 16.784 C 210.249 16.744,210.042 16.713,209.583 16.714 C 209.125 16.716,208.957 16.748,209.211 16.786 M214.460 16.951 C 214.668 16.991,214.968 16.990,215.127 16.948 C 215.286 16.906,215.117 16.874,214.750 16.875 C 214.383 16.877,214.253 16.911,214.460 16.951 M274.375 17.453 C 274.627 17.491,275.040 17.491,275.292 17.453 C 275.544 17.415,275.337 17.383,274.833 17.383 C 274.329 17.383,274.123 17.415,274.375 17.453 M254.297 18.956 C 254.782 18.990,255.532 18.990,255.964 18.956 C 256.396 18.921,256.000 18.894,255.083 18.894 C 254.167 18.895,253.813 18.923,254.297 18.956 M389.742 20.208 L 389.083 20.917 389.792 20.258 C 390.450 19.645,390.577 19.500,390.450 19.500 C 390.423 19.500,390.105 19.819,389.742 20.208 M372.128 19.787 C 372.428 19.825,372.878 19.824,373.128 19.786 C 373.378 19.748,373.133 19.717,372.583 19.718 C 372.033 19.719,371.828 19.750,372.128 19.787 M334.875 19.953 C 335.127 19.991,335.540 19.991,335.792 19.953 C 336.044 19.915,335.837 19.883,335.333 19.883 C 334.829 19.883,334.623 19.915,334.875 19.953 M377.167 21.750 C 377.478 22.071,377.770 22.333,377.815 22.333 C 377.861 22.333,377.644 22.071,377.333 21.750 C 377.022 21.429,376.730 21.167,376.685 21.167 C 376.639 21.167,376.856 21.429,377.167 21.750 M242.167 21.917 C 242.478 22.238,242.770 22.500,242.815 22.500 C 242.861 22.500,242.644 22.238,242.333 21.917 C 242.022 21.596,241.730 21.333,241.685 21.333 C 241.639 21.333,241.856 21.596,242.167 21.917 M266.458 21.784 C 266.665 21.824,267.002 21.824,267.208 21.784 C 267.415 21.745,267.246 21.712,266.833 21.712 C 266.421 21.712,266.252 21.745,266.458 21.784 M330.073 22.208 L 329.583 22.750 330.125 22.260 C 330.630 21.804,330.743 21.667,330.615 21.667 C 330.586 21.667,330.342 21.910,330.073 22.208 M387.397 23.288 C 387.711 23.659,388.012 23.656,387.987 23.282 C 387.978 23.149,387.945 23.155,387.886 23.302 C 387.819 23.471,387.717 23.451,387.441 23.219 L 387.083 22.917 387.397 23.288 M228.294 24.118 C 228.501 24.158,228.801 24.156,228.960 24.115 C 229.120 24.073,228.950 24.040,228.583 24.042 C 228.217 24.044,228.086 24.078,228.294 24.118 " stroke="none" fill="#eb6393" fill-rule="evenodd"></path><path id="path1" d="M95.333 0.368 C 94.323 0.754,93.552 1.276,92.667 2.176 L 92.083 2.769 91.333 2.502 C 88.432 1.469,86.224 1.558,83.786 2.807 C 81.535 3.959,80.337 5.110,79.462 6.958 C 79.035 7.860,78.667 8.284,78.667 7.874 C 78.667 7.572,75.954 6.838,74.833 6.836 C 72.705 6.834,70.076 8.085,68.814 9.701 C 68.506 10.095,68.160 10.516,68.044 10.637 C 67.928 10.758,67.833 10.927,67.833 11.012 C 67.833 11.097,67.402 11.168,66.875 11.171 C 66.250 11.173,65.575 11.315,64.934 11.579 L 63.951 11.983 63.017 11.144 C 58.413 7.009,50.269 7.500,47.000 12.111 C 46.794 12.401,46.524 12.479,45.482 12.551 L 44.213 12.637 43.406 11.806 C 42.962 11.348,42.371 10.857,42.091 10.714 C 41.812 10.571,41.546 10.405,41.500 10.346 C 41.015 9.722,39.003 9.250,36.833 9.252 C 34.479 9.255,34.555 9.238,32.544 10.209 C 31.657 10.637,30.268 11.816,29.524 12.770 C 28.597 13.960,27.873 13.855,27.385 12.458 C 25.886 8.169,22.121 5.992,18.768 7.475 C 18.112 7.765,17.993 7.776,17.814 7.560 C 16.939 6.505,14.201 6.020,12.917 6.692 C 12.451 6.936,12.030 6.930,11.833 6.675 C 11.666 6.458,10.357 6.167,9.549 6.167 C 8.815 6.167,8.697 6.116,8.520 5.727 C 8.005 4.598,5.801 2.131,4.883 1.658 C 4.626 1.525,4.379 1.378,4.333 1.329 C 4.105 1.088,2.277 0.667,1.457 0.667 C 0.129 0.667,0.000 0.747,-0.000 1.572 L -0.000 2.275 1.375 2.264 C 3.777 2.245,6.154 4.168,7.505 7.224 L 7.821 7.936 8.815 7.772 C 10.077 7.563,10.929 7.798,11.765 8.587 L 12.378 9.165 13.012 8.592 C 14.390 7.348,17.174 8.058,17.601 9.763 L 17.699 10.150 18.108 9.741 C 19.477 8.372,21.603 8.200,23.362 9.316 C 24.691 10.159,26.329 13.041,26.336 14.549 C 26.337 14.843,26.382 15.246,26.435 15.445 L 26.532 15.807 27.308 15.389 C 27.956 15.041,28.226 14.988,28.951 15.070 L 29.819 15.168 30.245 14.441 C 33.032 9.685,41.091 9.488,43.252 14.122 C 43.413 14.467,43.566 14.775,43.593 14.806 C 43.619 14.837,43.869 14.694,44.148 14.487 C 44.963 13.885,46.292 13.847,46.958 14.407 L 47.483 14.849 47.665 14.173 C 47.917 13.237,49.542 11.535,50.848 10.839 C 55.038 8.606,61.430 10.276,63.488 14.143 L 63.697 14.535 64.337 13.869 C 65.375 12.789,66.703 12.451,68.102 12.911 C 68.399 13.009,68.531 12.888,68.963 12.124 C 71.180 8.195,76.342 7.201,79.277 10.136 L 79.802 10.661 80.007 9.789 C 81.285 4.365,88.066 1.388,91.864 4.584 L 92.406 5.039 92.661 4.679 C 94.211 2.488,94.868 2.009,97.067 1.466 C 99.913 0.764,102.491 2.419,102.498 4.955 L 102.500 5.494 103.237 5.393 C 103.990 5.289,104.639 5.668,104.863 6.340 C 104.925 6.524,105.057 6.481,105.452 6.149 C 108.397 3.671,113.411 6.627,113.795 11.067 L 113.917 12.475 114.840 11.901 C 116.634 10.786,118.825 10.963,120.055 12.324 L 120.631 12.961 121.657 12.452 C 124.135 11.224,127.368 11.888,128.663 13.892 L 129.078 14.535 129.494 13.976 C 131.498 11.281,135.074 10.138,137.685 11.357 L 138.620 11.794 139.018 10.526 C 140.797 4.853,147.854 3.373,149.605 8.304 L 149.898 9.129 150.330 8.810 C 150.982 8.327,151.902 8.231,152.447 8.588 C 152.757 8.791,152.920 8.824,152.964 8.691 C 153.852 6.029,158.630 3.094,162.083 3.090 C 165.704 3.086,169.228 6.418,169.462 10.065 L 169.542 11.299 170.086 11.072 C 173.398 9.688,178.980 12.583,178.998 15.695 C 179.003 16.525,179.191 16.506,180.221 15.574 C 182.698 13.332,185.838 12.741,187.454 14.212 C 187.814 14.541,187.828 14.541,187.935 14.233 C 189.746 9.027,195.607 7.803,197.833 12.166 C 198.184 12.854,198.198 12.862,198.437 12.521 C 200.398 9.722,205.266 11.569,207.296 15.882 L 207.750 16.847 208.924 16.741 C 210.283 16.617,210.933 16.821,211.811 17.644 L 212.372 18.170 213.010 17.595 C 214.368 16.367,216.627 16.858,217.437 18.557 L 217.699 19.104 218.177 18.657 C 221.147 15.883,226.333 19.214,226.333 23.896 C 226.333 24.835,226.372 24.854,227.295 24.379 C 227.942 24.047,228.238 23.991,228.943 24.070 L 229.802 24.166 230.217 23.458 C 233.001 18.710,240.512 18.427,243.114 22.972 C 243.359 23.400,243.578 23.775,243.600 23.806 C 243.622 23.837,243.878 23.687,244.168 23.473 C 244.913 22.922,246.462 22.916,247.043 23.462 L 247.445 23.840 247.646 23.168 C 248.764 19.440,254.984 17.711,259.693 19.821 C 261.154 20.476,263.500 22.612,263.500 23.289 C 263.500 23.647,263.794 23.523,264.159 23.010 C 264.931 21.927,266.608 21.465,268.114 21.923 C 268.425 22.017,268.540 21.910,268.907 21.185 C 270.898 17.257,276.388 16.180,279.241 19.157 L 279.728 19.666 280.084 18.432 C 281.615 13.124,288.238 10.459,291.903 13.677 L 292.445 14.153 292.705 13.618 C 294.988 8.928,302.500 9.376,302.500 14.202 C 302.500 14.621,302.539 14.658,302.822 14.506 C 303.556 14.113,304.596 14.538,304.863 15.340 C 304.924 15.523,305.066 15.474,305.479 15.127 C 308.389 12.678,313.381 15.672,313.791 20.113 L 313.917 21.475 314.833 20.906 C 316.603 19.806,318.624 19.949,319.941 21.265 L 320.685 22.010 321.134 21.705 C 323.548 20.068,327.347 20.781,328.850 23.153 L 329.105 23.555 329.478 22.953 C 331.019 20.459,334.908 19.215,337.610 20.351 L 338.637 20.783 338.921 19.766 C 340.290 14.872,345.140 12.744,348.350 15.630 C 349.086 16.292,349.833 17.487,349.833 18.003 C 349.833 18.106,350.028 18.037,350.267 17.850 C 350.899 17.353,351.688 17.250,352.329 17.581 C 352.623 17.733,352.881 17.834,352.901 17.804 C 352.920 17.774,353.184 17.356,353.487 16.874 C 355.156 14.213,359.047 12.009,362.083 12.005 C 365.678 12.000,369.489 15.869,369.498 19.533 L 369.500 20.316 370.125 20.051 C 373.279 18.712,377.923 20.999,378.835 24.340 C 378.947 24.749,379.068 25.185,379.104 25.308 C 379.146 25.454,379.538 25.192,380.206 24.573 C 382.596 22.361,386.574 21.700,387.591 23.346 C 387.654 23.448,387.955 23.012,388.266 22.370 C 390.484 17.785,395.424 17.140,397.780 21.126 L 398.200 21.836 398.519 21.430 C 398.695 21.207,399.100 20.862,399.419 20.665 C 399.926 20.352,400.356 18.833,399.938 18.833 C 399.903 18.833,399.570 18.941,399.197 19.073 L 398.519 19.312 397.745 18.570 C 396.647 17.518,395.689 17.114,394.100 17.031 C 392.542 16.950,391.794 17.125,390.031 17.982 C 389.400 18.289,388.033 19.664,387.519 20.510 L 387.170 21.082 385.530 21.026 C 383.456 20.955,381.975 21.351,380.449 22.386 C 380.191 22.560,379.960 22.676,379.934 22.643 C 379.908 22.610,379.658 22.244,379.378 21.830 C 377.820 19.521,374.679 17.977,372.043 18.223 C 371.282 18.294,370.971 18.265,370.933 18.119 C 369.779 13.658,366.905 11.140,362.449 10.688 C 358.947 10.333,355.366 12.056,352.554 15.450 C 352.007 16.109,350.756 16.041,350.267 15.325 C 347.340 11.039,339.959 12.591,337.924 17.921 C 337.668 18.591,337.580 18.680,337.272 18.577 C 335.119 17.862,331.369 18.815,329.555 20.537 L 329.028 21.039 328.639 20.665 C 327.386 19.462,324.408 18.997,322.044 19.635 C 320.847 19.958,320.836 19.958,320.461 19.632 C 319.571 18.859,317.970 18.542,316.221 18.793 L 315.193 18.941 315.092 18.406 C 314.587 15.714,311.159 12.818,308.417 12.767 C 307.814 12.755,306.129 13.024,305.766 13.190 C 305.455 13.331,305.224 13.339,304.957 13.215 C 304.751 13.119,304.377 12.959,304.125 12.858 C 303.864 12.753,303.667 12.545,303.667 12.375 C 303.667 12.038,302.627 10.390,302.197 10.046 C 299.739 8.076,295.340 8.506,292.876 10.957 L 292.071 11.758 290.577 11.288 C 286.064 9.868,281.192 12.004,279.259 16.250 C 279.092 16.617,278.941 16.935,278.923 16.957 C 278.906 16.979,278.559 16.837,278.154 16.640 C 274.803 15.016,271.015 15.971,268.470 19.080 C 267.625 20.111,267.549 20.162,266.853 20.164 C 265.953 20.167,264.878 20.466,264.364 20.856 C 263.984 21.144,263.967 21.138,263.279 20.450 C 259.134 16.298,250.786 16.289,247.546 20.432 C 246.634 21.598,246.665 21.582,245.354 21.607 C 244.148 21.631,244.116 21.621,243.617 21.052 C 240.408 17.398,233.226 17.249,230.331 20.776 C 230.192 20.945,229.829 21.395,229.524 21.776 C 228.653 22.863,227.753 22.888,227.500 21.832 C 226.497 17.651,222.154 14.977,218.787 16.467 C 218.114 16.764,217.993 16.776,217.814 16.560 C 216.922 15.485,214.190 15.018,212.882 15.716 C 212.365 15.992,212.322 15.989,211.632 15.629 C 211.166 15.386,210.531 15.234,209.810 15.194 C 208.875 15.141,208.679 15.076,208.540 14.774 C 206.818 11.031,202.543 8.892,199.167 10.083 L 198.542 10.304 197.702 9.503 C 194.830 6.763,189.381 7.961,187.363 11.776 C 187.208 12.068,187.058 12.159,186.863 12.081 C 185.410 11.499,182.250 12.140,180.449 13.381 C 180.191 13.558,179.956 13.676,179.926 13.643 C 179.896 13.610,179.732 13.357,179.561 13.080 C 178.059 10.651,175.565 9.279,172.618 9.260 C 171.015 9.250,170.984 9.243,170.898 8.833 C 170.407 6.499,168.386 3.836,166.237 2.691 C 163.380 1.168,159.167 1.351,156.360 3.121 C 155.116 3.905,155.094 3.923,153.549 5.458 C 151.698 7.298,151.303 7.333,149.781 5.787 C 149.214 5.212,148.487 4.642,148.167 4.521 C 147.846 4.399,147.403 4.214,147.183 4.108 C 145.854 3.472,142.451 4.018,140.971 5.105 C 139.659 6.068,138.757 7.246,137.821 9.219 C 137.648 9.585,137.524 9.663,137.258 9.575 C 135.162 8.884,131.653 9.741,129.713 11.417 L 129.089 11.957 128.586 11.574 C 127.065 10.414,123.619 9.987,121.694 10.720 C 120.988 10.989,120.960 10.986,120.444 10.608 C 119.358 9.809,117.171 9.478,115.646 9.880 C 115.242 9.987,115.201 9.949,115.109 9.373 C 114.504 5.597,109.394 2.755,105.792 4.191 C 105.482 4.314,105.265 4.319,105.125 4.206 C 105.010 4.114,104.685 3.989,104.403 3.929 C 103.976 3.838,103.827 3.669,103.523 2.937 C 103.114 1.949,102.407 1.112,101.420 0.447 C 100.512 -0.165,96.851 -0.212,95.333 0.368 " stroke="none" fill="#fbdbd3" fill-rule="evenodd"></path><path id="path2" d="M96.285 1.737 C 95.663 1.957,95.025 2.233,94.868 2.351 C 94.145 2.896,93.439 3.649,92.976 4.371 L 92.470 5.159 91.860 4.681 C 87.579 1.332,81.461 4.292,79.888 10.475 C 79.849 10.628,79.637 10.528,79.215 10.158 C 75.936 7.279,70.979 8.343,68.904 12.371 C 68.527 13.103,68.469 13.147,68.072 12.996 C 66.790 12.508,65.109 12.989,64.219 14.098 L 63.726 14.713 63.291 13.972 C 60.042 8.427,49.731 8.701,47.670 14.387 L 47.499 14.857 47.066 14.516 C 46.210 13.843,44.760 13.919,44.078 14.673 C 43.678 15.115,43.563 15.087,43.358 14.499 C 43.075 13.686,41.585 12.253,40.348 11.603 C 36.787 9.731,32.563 10.927,30.337 14.438 L 29.824 15.247 28.787 15.194 C 27.905 15.149,27.659 15.203,27.139 15.556 C 26.415 16.048,26.333 16.000,26.333 15.077 C 26.333 10.281,20.818 6.753,18.098 9.811 L 17.780 10.168 17.417 9.567 C 17.014 8.899,15.807 8.010,15.267 7.982 C 14.017 7.919,13.225 8.216,12.764 8.919 L 12.478 9.355 11.749 8.683 C 10.871 7.874,10.504 7.768,8.937 7.868 L 7.732 7.946 7.425 7.205 C 6.678 5.399,4.777 3.325,3.248 2.649 C 2.363 2.257,0.165 2.251,0.036 2.639 C -0.022 2.816,0.151 2.839,0.866 2.749 C 3.142 2.465,6.016 4.705,7.091 7.603 C 7.257 8.051,7.406 8.438,7.423 8.463 C 7.441 8.489,7.990 8.427,8.644 8.326 C 10.135 8.094,10.758 8.275,11.572 9.176 C 12.307 9.990,12.406 9.990,13.153 9.182 C 14.465 7.761,16.768 8.436,17.257 10.385 C 17.408 10.986,17.657 10.950,18.342 10.230 C 21.162 7.268,25.455 10.256,25.922 15.505 C 26.061 17.073,26.207 17.225,26.837 16.462 C 27.476 15.690,28.390 15.371,29.176 15.645 C 29.910 15.901,30.167 15.882,30.167 15.572 C 30.167 14.426,32.959 11.973,34.901 11.412 C 38.151 10.474,43.167 12.894,43.167 15.400 C 43.167 15.892,43.554 15.880,43.984 15.376 C 44.917 14.280,45.984 14.185,47.004 15.107 C 47.787 15.814,47.718 15.844,48.064 14.637 C 49.703 8.927,60.433 9.022,63.177 14.772 C 63.593 15.642,64.235 16.186,63.940 15.417 C 63.484 14.229,66.414 12.802,68.004 13.438 C 68.376 13.587,68.696 13.680,68.715 13.646 C 68.734 13.611,68.938 13.211,69.167 12.756 C 71.262 8.597,76.208 7.666,79.212 10.865 C 80.152 11.866,80.079 11.899,80.405 10.330 C 81.562 4.760,87.957 1.862,91.740 5.193 C 92.504 5.865,92.667 5.947,92.667 5.658 C 92.667 5.561,92.963 5.046,93.324 4.513 C 96.031 0.528,101.987 1.027,102.003 5.241 C 102.006 6.279,102.202 6.483,102.837 6.108 C 103.670 5.615,104.500 6.106,104.500 7.091 C 104.500 7.470,104.902 7.376,105.346 6.895 C 108.319 3.667,113.625 7.388,113.269 12.452 C 113.145 14.212,113.173 14.247,113.956 13.332 C 115.736 11.254,118.649 11.146,119.995 13.110 C 120.361 13.644,120.833 13.859,120.833 13.491 C 120.833 13.394,121.265 13.117,121.792 12.876 C 124.407 11.677,127.381 12.474,128.503 14.674 C 128.918 15.486,129.166 15.504,129.572 14.749 C 131.189 11.747,135.549 10.488,138.185 12.262 C 139.232 12.967,139.167 12.977,139.167 12.109 C 139.167 6.169,147.533 3.450,149.249 8.833 C 149.641 10.064,149.766 10.168,150.213 9.637 C 151.025 8.674,151.714 8.610,152.595 9.417 C 153.371 10.128,153.559 10.149,153.419 9.512 C 153.101 8.062,156.590 4.827,159.394 3.974 C 164.058 2.555,168.726 5.685,168.957 10.386 C 169.048 12.240,169.060 12.265,169.675 11.827 C 172.655 9.705,178.071 12.523,178.595 16.467 C 178.739 17.554,178.938 17.866,179.201 17.417 C 181.041 14.263,186.280 12.884,187.711 15.176 C 188.029 15.685,188.333 15.570,188.333 14.940 C 188.333 13.441,190.304 11.013,192.052 10.359 C 194.431 9.469,196.482 10.404,197.573 12.875 C 198.067 13.994,198.153 14.027,198.568 13.257 C 200.272 10.093,205.327 12.126,207.105 16.691 C 207.260 17.090,207.403 17.438,207.423 17.465 C 207.442 17.491,207.958 17.433,208.570 17.336 C 210.114 17.089,210.793 17.297,211.662 18.284 L 212.346 19.062 213.048 18.301 C 214.387 16.851,216.349 17.235,217.115 19.098 C 217.481 19.989,217.607 20.002,218.342 19.230 C 221.169 16.262,225.425 19.265,225.910 24.570 C 226.049 26.098,226.080 26.122,226.916 25.351 C 227.782 24.554,228.527 24.367,229.397 24.731 C 229.968 24.970,230.021 24.968,230.105 24.703 C 230.660 22.936,232.813 21.010,234.901 20.410 C 238.035 19.511,242.329 21.431,243.025 24.042 C 243.250 24.887,243.541 25.047,243.838 24.491 C 244.422 23.401,246.053 23.187,246.950 24.083 C 247.609 24.743,247.759 24.723,247.924 23.956 C 249.205 18.022,260.383 17.883,263.163 23.768 C 263.584 24.659,264.243 25.206,263.938 24.411 C 263.793 24.035,264.807 22.829,265.552 22.491 C 266.415 22.099,267.029 22.086,267.956 22.441 C 268.351 22.591,268.691 22.685,268.712 22.649 C 268.733 22.613,268.959 22.165,269.214 21.653 C 271.278 17.515,276.806 16.675,279.420 20.103 C 279.967 20.819,280.109 20.712,280.345 19.409 C 281.356 13.836,288.057 10.858,291.860 14.294 C 292.217 14.616,292.526 14.851,292.546 14.815 C 292.567 14.779,292.733 14.453,292.917 14.090 C 295.225 9.516,302.000 9.842,302.000 14.526 C 302.000 15.278,302.346 15.524,302.811 15.104 C 303.436 14.538,304.209 14.888,304.416 15.832 C 304.552 16.449,304.819 16.467,305.346 15.895 C 306.856 14.255,309.739 14.578,311.701 16.606 C 312.974 17.923,313.247 18.718,313.224 21.042 C 313.213 22.119,313.232 23.000,313.265 23.000 C 313.299 23.000,313.643 22.656,314.031 22.236 C 315.818 20.297,318.259 20.167,319.810 21.929 C 320.487 22.699,320.739 22.819,320.884 22.442 C 321.204 21.608,324.409 21.055,325.951 21.567 C 326.969 21.905,328.064 22.811,328.509 23.685 C 328.871 24.394,329.250 24.524,329.418 23.996 C 329.477 23.810,329.951 23.199,330.471 22.636 C 332.695 20.233,336.170 19.692,338.411 21.401 C 339.113 21.936,339.230 21.942,339.102 21.432 C 338.861 20.471,339.931 17.967,341.155 16.627 C 343.728 13.813,348.171 14.499,349.230 17.875 C 349.606 19.074,349.729 19.147,350.313 18.522 C 351.118 17.660,352.335 17.736,352.840 18.679 C 353.086 19.139,353.429 18.993,353.365 18.456 C 353.186 16.969,356.679 13.796,359.394 12.978 C 364.228 11.522,369.000 14.964,369.000 19.906 C 369.000 21.148,369.070 21.248,369.647 20.821 C 372.513 18.702,378.073 21.604,378.590 25.489 C 378.761 26.773,378.772 26.774,379.932 25.521 C 382.322 22.939,385.480 22.220,387.252 23.853 C 388.042 24.582,388.333 24.581,388.333 23.850 C 388.333 23.087,389.271 21.440,390.214 20.549 C 392.855 18.051,396.469 18.772,397.625 22.026 C 397.972 23.003,398.137 23.028,398.624 22.175 C 398.830 21.815,399.224 21.387,399.499 21.224 C 399.964 20.950,400.186 20.500,399.857 20.500 C 399.778 20.500,399.353 20.818,398.912 21.206 C 398.403 21.654,398.084 21.835,398.040 21.702 C 396.427 16.865,389.580 18.004,387.929 23.384 C 387.847 23.652,387.761 23.624,387.151 23.134 C 385.588 21.879,382.330 22.617,380.127 24.726 C 379.601 25.229,379.141 25.591,379.105 25.529 C 379.069 25.467,378.985 25.154,378.919 24.833 C 378.156 21.145,373.405 18.747,369.817 20.239 C 369.593 20.332,369.534 20.176,369.451 19.289 C 369.178 16.368,366.983 13.555,364.132 12.472 C 360.849 11.224,355.432 13.597,353.355 17.192 C 352.924 17.938,352.891 17.959,352.495 17.740 C 351.900 17.410,351.000 17.451,350.370 17.835 C 349.858 18.147,349.817 18.150,349.725 17.876 C 348.305 13.658,343.105 13.174,340.319 17.000 C 339.562 18.040,339.344 18.510,338.921 20.014 L 338.659 20.945 337.788 20.514 C 335.121 19.194,330.788 20.658,329.247 23.400 C 329.096 23.669,329.034 23.634,328.664 23.065 C 327.145 20.733,322.992 20.114,320.995 21.922 C 320.756 22.137,320.635 22.075,319.892 21.359 C 318.332 19.855,316.021 19.882,314.188 21.424 L 313.669 21.861 313.770 21.128 C 314.390 16.606,308.951 12.686,305.512 15.177 L 304.874 15.639 304.695 15.245 C 304.596 15.028,304.324 14.726,304.091 14.573 C 303.689 14.310,303.451 14.310,302.808 14.576 C 302.586 14.668,302.510 14.551,302.415 13.970 C 301.920 10.970,299.576 9.670,296.486 10.684 C 294.650 11.286,293.777 11.961,292.883 13.467 L 292.458 14.185 292.102 13.851 C 288.385 10.359,281.151 13.371,280.006 18.887 L 279.821 19.778 279.202 19.194 C 276.090 16.258,270.915 17.370,268.831 21.422 C 268.538 21.991,268.376 22.149,268.179 22.058 C 266.966 21.496,265.128 21.970,264.212 23.081 L 263.726 23.671 263.188 22.842 C 259.811 17.630,249.771 17.758,247.758 23.038 L 247.458 23.826 246.937 23.455 C 246.189 22.921,245.092 22.951,244.216 23.531 L 243.541 23.978 243.240 23.311 C 241.088 18.539,232.921 18.730,230.175 23.617 L 229.811 24.264 228.780 24.200 C 227.886 24.145,227.667 24.193,227.118 24.568 C 226.309 25.120,226.333 25.129,226.333 24.265 C 226.333 19.397,221.157 15.849,218.215 18.701 L 217.679 19.220 217.522 18.818 C 216.784 16.925,213.788 16.356,212.766 17.915 L 212.483 18.347 211.714 17.670 C 210.784 16.851,210.494 16.768,208.909 16.870 L 207.676 16.949 207.496 16.406 C 206.156 12.345,201.258 9.981,198.889 12.251 L 198.159 12.950 197.891 12.385 C 195.821 8.024,189.558 9.067,188.097 14.016 L 187.895 14.697 187.388 14.270 C 185.607 12.772,182.350 13.521,179.886 15.997 L 179.188 16.698 179.005 15.974 C 178.003 11.997,173.532 9.704,169.792 11.249 C 169.540 11.352,169.500 11.269,169.498 10.643 C 169.491 8.100,167.570 5.194,165.000 3.837 C 161.529 2.004,155.658 4.205,153.347 8.206 C 152.923 8.939,152.868 8.978,152.570 8.753 C 152.095 8.393,150.959 8.437,150.455 8.833 C 149.898 9.271,149.923 9.284,149.586 8.399 C 147.630 3.279,140.473 5.028,138.946 11.000 C 138.817 11.504,138.666 11.894,138.609 11.867 C 135.219 10.230,131.289 11.189,129.495 14.092 L 129.135 14.673 128.676 14.039 C 127.004 11.731,123.632 11.144,121.267 12.749 L 120.661 13.161 120.051 12.486 C 118.638 10.923,116.274 10.822,114.407 12.246 L 113.880 12.648 113.790 11.366 C 113.463 6.674,108.676 3.752,105.404 6.248 L 104.869 6.656 104.670 6.176 C 104.411 5.550,103.643 5.215,103.068 5.477 C 102.839 5.581,102.624 5.667,102.591 5.667 C 102.558 5.667,102.481 5.304,102.420 4.861 C 102.021 1.960,99.411 0.631,96.285 1.737 " stroke="none" fill="#0e0d0d" fill-rule="evenodd"></path></g></svg>