<svg id="svg" version="1.1" xmlns="http://www.w3.org/2000/svg" xmlns:xlink="http://www.w3.org/1999/xlink" width="400" height="278.2782212086659" viewBox="0, 0, 400,278.2782212086659"><g id="svgg"><path id="path0" d="M388.042 1.282 C 388.202 1.323,388.465 1.323,388.625 1.282 C 388.785 1.240,388.654 1.205,388.333 1.205 C 388.012 1.205,387.881 1.240,388.042 1.282 M386.019 2.088 C 382.866 2.968,377.167 7.704,377.167 9.444 C 377.167 9.811,376.923 9.697,376.624 9.190 C 374.838 6.167,370.266 6.704,368.512 10.144 C 368.115 10.922,368.099 10.927,367.276 10.583 C 365.677 9.915,363.451 10.891,363.065 12.430 C 362.909 13.052,362.627 12.916,362.038 11.931 C 358.988 6.832,351.438 8.475,349.278 14.708 C 349.213 14.895,349.005 15.000,348.697 15.000 C 348.432 15.000,347.868 15.185,347.442 15.412 L 346.668 15.823 346.387 15.370 C 345.989 14.726,345.669 14.500,345.155 14.500 C 344.629 14.500,344.413 14.274,344.261 13.565 C 343.375 9.416,337.529 8.629,335.799 12.426 C 335.572 12.924,335.452 12.931,334.845 12.482 C 333.971 11.836,331.798 12.685,331.171 13.917 C 331.031 14.192,330.899 14.447,330.878 14.483 C 330.857 14.520,330.553 14.351,330.202 14.108 C 329.326 13.501,328.715 13.539,327.772 14.259 C 326.992 14.855,326.668 14.886,326.665 14.365 C 326.652 12.102,323.427 10.220,321.533 11.370 C 321.230 11.554,320.964 11.677,320.943 11.644 C 320.921 11.611,320.808 11.210,320.692 10.755 C 320.167 8.688,318.239 7.167,316.145 7.167 C 313.825 7.167,311.389 8.864,311.113 10.674 C 311.059 11.028,310.933 11.100,310.186 11.208 C 308.713 11.420,306.920 12.547,306.437 13.564 C 306.097 14.281,306.100 14.280,305.470 13.750 C 304.536 12.965,303.455 13.281,302.821 14.525 C 302.561 15.035,302.412 15.166,302.198 15.077 C 300.879 14.527,299.750 14.987,299.335 16.244 C 299.182 16.707,299.053 16.809,298.507 16.896 C 298.151 16.953,297.629 17.194,297.347 17.430 L 296.836 17.861 296.684 17.463 C 295.759 15.030,291.802 14.491,289.826 16.528 C 289.025 17.353,289.051 17.371,288.835 15.823 C 288.276 11.799,285.448 9.625,282.208 10.729 C 281.235 11.060,279.833 12.311,279.833 12.846 C 279.833 13.248,279.727 13.247,278.917 12.833 C 278.048 12.391,277.380 12.413,276.433 12.917 C 276.002 13.146,275.627 13.333,275.601 13.333 C 275.574 13.333,275.343 12.798,275.086 12.145 C 271.314 2.530,258.969 6.102,257.581 17.210 C 257.449 18.267,257.379 18.308,256.396 17.897 C 255.056 17.338,252.615 17.933,251.489 19.094 C 250.746 19.861,250.577 19.820,250.241 18.792 C 249.184 15.562,246.634 13.663,243.360 13.668 C 241.668 13.671,239.667 14.830,239.667 15.807 C 239.667 16.251,239.297 15.936,238.670 14.958 C 237.425 13.017,235.391 11.933,233.000 11.937 C 230.135 11.941,228.611 13.262,228.192 16.104 L 228.072 16.917 227.448 16.867 C 226.828 16.818,225.167 17.541,225.167 17.860 C 225.167 18.207,224.830 17.940,224.449 17.292 C 221.536 12.328,213.825 12.048,211.428 16.818 C 210.792 18.082,210.500 19.601,210.500 21.636 C 210.500 23.677,210.461 23.741,209.602 23.087 C 208.307 22.098,206.919 21.980,205.879 22.769 L 205.342 23.177 204.423 22.429 C 202.511 20.872,199.600 20.578,197.795 21.760 C 196.979 22.295,196.895 22.279,196.657 21.542 C 194.953 16.278,189.777 15.476,184.389 19.642 C 182.275 21.277,180.000 23.860,180.000 24.626 C 180.000 24.993,179.753 24.814,179.136 24.000 C 177.201 21.447,173.510 21.956,171.507 25.053 L 170.811 26.130 170.327 25.889 C 168.708 25.081,166.546 25.845,165.973 27.428 C 165.699 28.187,165.452 28.149,164.937 27.269 C 162.033 22.314,154.726 23.417,152.392 29.163 C 152.038 30.034,151.979 30.090,151.302 30.206 C 150.909 30.274,150.383 30.480,150.134 30.665 C 149.525 31.115,149.440 31.094,149.119 30.421 C 148.853 29.863,148.630 29.740,147.683 29.630 C 147.365 29.593,147.237 29.426,147.059 28.812 C 145.817 24.534,140.630 23.741,138.658 27.527 C 138.546 27.741,138.431 27.944,138.403 27.977 C 138.374 28.011,138.023 27.880,137.623 27.686 C 136.454 27.120,133.833 28.268,133.833 29.346 C 133.833 29.771,133.638 29.750,132.901 29.250 C 132.059 28.678,131.528 28.721,130.593 29.435 C 129.707 30.112,129.651 30.089,129.263 28.893 C 128.579 26.783,125.990 25.528,124.378 26.524 C 123.753 26.910,123.512 26.790,123.499 26.083 C 123.479 25.004,121.997 23.275,120.540 22.630 C 118.292 21.636,114.890 23.160,114.038 25.542 C 113.822 26.146,113.672 26.333,113.404 26.333 C 111.857 26.333,109.388 27.938,108.953 29.227 C 108.926 29.306,108.607 29.169,108.244 28.922 C 107.169 28.190,106.098 28.545,105.570 29.807 C 105.357 30.316,105.291 30.357,104.876 30.233 C 103.516 29.828,102.696 30.197,102.151 31.458 C 101.873 32.103,101.791 32.167,101.248 32.167 C 100.834 32.167,100.524 32.294,100.235 32.583 C 99.713 33.105,99.803 33.140,99.215 32.193 C 97.900 30.077,94.324 29.861,92.556 31.791 C 91.904 32.503,91.674 32.377,91.669 31.307 C 91.660 28.988,89.694 26.194,87.704 25.672 C 85.906 25.200,82.993 26.604,82.461 28.200 C 82.434 28.282,82.049 28.189,81.605 27.993 C 80.683 27.585,79.935 27.645,79.029 28.202 C 78.394 28.593,78.330 28.548,77.918 27.417 C 76.619 23.852,73.130 21.414,69.795 21.742 C 64.889 22.226,61.111 26.654,60.293 32.879 C 60.222 33.416,60.184 33.421,59.104 33.062 C 57.560 32.550,55.524 33.088,54.235 34.349 C 53.441 35.127,53.367 35.085,52.909 33.601 C 51.530 29.133,44.245 27.041,42.646 30.653 C 42.333 31.360,42.125 31.300,41.610 30.353 C 39.102 25.744,31.036 26.336,30.998 31.131 C 30.991 31.977,30.818 32.167,30.053 32.167 C 29.252 32.167,28.805 32.342,28.190 32.896 L 27.797 33.250 27.524 32.840 C 25.368 29.606,23.366 28.540,19.747 28.701 C 15.534 28.888,13.294 31.656,13.308 36.657 C 13.315 38.928,13.296 38.972,12.568 38.416 C 11.234 37.399,9.804 37.212,8.762 37.919 L 8.145 38.338 7.448 37.773 C 5.500 36.196,3.030 35.817,0.875 36.764 L 0.000 37.148 0.000 157.657 L 0.000 278.167 200.000 278.167 L 400.000 278.167 400.000 142.102 L 400.000 6.038 399.375 5.735 C 398.077 5.106,395.892 5.482,394.914 6.503 C 394.272 7.173,394.048 7.130,393.822 6.293 C 392.887 2.819,389.650 1.074,386.019 2.088 M392.417 3.000 C 392.775 3.367,393.105 3.667,393.151 3.667 C 393.197 3.667,392.941 3.367,392.583 3.000 C 392.225 2.633,391.895 2.333,391.849 2.333 C 391.803 2.333,392.059 2.633,392.417 3.000 M379.329 5.792 L 378.250 6.917 379.375 5.838 C 380.420 4.836,380.576 4.667,380.454 4.667 C 380.428 4.667,379.922 5.173,379.329 5.792 M375.667 7.385 C 375.667 7.414,375.910 7.658,376.208 7.927 L 376.750 8.417 376.260 7.875 C 375.804 7.370,375.667 7.257,375.667 7.385 M311.991 8.292 L 311.417 8.917 312.042 8.342 C 312.623 7.808,312.743 7.667,312.616 7.667 C 312.588 7.667,312.307 7.948,311.991 8.292 M355.621 8.454 C 355.917 8.490,356.442 8.491,356.788 8.455 C 357.134 8.419,356.892 8.389,356.250 8.388 C 355.608 8.387,355.325 8.417,355.621 8.454 M283.711 9.953 C 283.964 9.991,284.339 9.990,284.544 9.951 C 284.749 9.911,284.542 9.880,284.083 9.881 C 283.625 9.882,283.457 9.915,283.711 9.953 M365.628 9.954 C 365.928 9.991,366.378 9.990,366.628 9.952 C 366.878 9.914,366.633 9.884,366.083 9.885 C 365.533 9.886,365.328 9.917,365.628 9.954 M232.708 11.453 C 232.960 11.491,233.373 11.491,233.625 11.453 C 233.877 11.415,233.671 11.383,233.167 11.383 C 232.662 11.383,232.456 11.415,232.708 11.453 M333.875 11.782 C 334.035 11.823,334.298 11.823,334.458 11.782 C 334.619 11.740,334.487 11.705,334.167 11.705 C 333.846 11.705,333.715 11.740,333.875 11.782 M229.073 12.875 L 228.583 13.417 229.125 12.927 C 229.630 12.471,229.743 12.333,229.615 12.333 C 229.586 12.333,229.342 12.577,229.073 12.875 M217.125 12.954 C 217.423 12.991,217.910 12.991,218.208 12.954 C 218.506 12.917,218.262 12.887,217.667 12.887 C 217.071 12.887,216.827 12.917,217.125 12.954 M304.127 12.951 C 304.334 12.991,304.634 12.990,304.794 12.948 C 304.953 12.906,304.783 12.874,304.417 12.875 C 304.050 12.877,303.920 12.911,304.127 12.951 M238.167 13.583 C 238.478 13.904,238.770 14.167,238.815 14.167 C 238.861 14.167,238.644 13.904,238.333 13.583 C 238.022 13.262,237.730 13.000,237.685 13.000 C 237.639 13.000,237.856 13.262,238.167 13.583 M212.324 14.792 L 211.750 15.417 212.375 14.842 C 212.957 14.308,213.077 14.167,212.949 14.167 C 212.922 14.167,212.640 14.448,212.324 14.792 M300.794 14.451 C 301.001 14.491,301.301 14.490,301.460 14.448 C 301.620 14.406,301.450 14.374,301.083 14.375 C 300.717 14.377,300.586 14.411,300.794 14.451 M182.162 20.958 L 181.083 22.083 182.208 21.005 C 183.253 20.003,183.410 19.833,183.287 19.833 C 183.261 19.833,182.755 20.340,182.162 20.958 M200.042 20.619 C 200.294 20.658,200.706 20.658,200.958 20.619 C 201.210 20.581,201.004 20.550,200.500 20.550 C 199.996 20.550,199.790 20.581,200.042 20.619 M69.875 21.288 C 70.219 21.324,70.781 21.324,71.125 21.288 C 71.469 21.252,71.188 21.223,70.500 21.223 C 69.813 21.223,69.531 21.252,69.875 21.288 M207.042 21.782 C 207.202 21.823,207.465 21.823,207.625 21.782 C 207.785 21.740,207.654 21.705,207.333 21.705 C 207.012 21.705,206.881 21.740,207.042 21.782 M114.740 23.542 L 114.250 24.083 114.792 23.594 C 115.090 23.325,115.333 23.081,115.333 23.052 C 115.333 22.923,115.196 23.037,114.740 23.542 M122.667 23.583 C 122.978 23.904,123.270 24.167,123.315 24.167 C 123.361 24.167,123.144 23.904,122.833 23.583 C 122.522 23.262,122.230 23.000,122.185 23.000 C 122.139 23.000,122.356 23.262,122.667 23.583 M158.708 23.619 C 158.960 23.658,159.373 23.658,159.625 23.619 C 159.877 23.581,159.671 23.550,159.167 23.550 C 158.662 23.550,158.456 23.581,158.708 23.619 M142.458 24.618 C 142.665 24.657,143.002 24.657,143.208 24.618 C 143.415 24.578,143.246 24.545,142.833 24.545 C 142.421 24.545,142.252 24.578,142.458 24.618 M86.708 25.115 C 86.869 25.157,87.131 25.157,87.292 25.115 C 87.452 25.073,87.321 25.039,87.000 25.039 C 86.679 25.039,86.548 25.073,86.708 25.115 M164.250 25.667 C 164.608 26.033,164.938 26.333,164.984 26.333 C 165.030 26.333,164.775 26.033,164.417 25.667 C 164.059 25.300,163.728 25.000,163.682 25.000 C 163.637 25.000,163.892 25.300,164.250 25.667 M168.544 25.120 C 168.797 25.158,169.172 25.157,169.377 25.117 C 169.582 25.078,169.375 25.046,168.917 25.048 C 168.458 25.049,168.291 25.081,168.544 25.120 M145.500 25.552 C 145.500 25.581,145.744 25.825,146.042 26.094 L 146.583 26.583 146.094 26.042 C 145.638 25.537,145.500 25.423,145.500 25.552 M89.833 26.417 C 90.144 26.738,90.436 27.000,90.482 27.000 C 90.528 27.000,90.311 26.738,90.000 26.417 C 89.689 26.096,89.397 25.833,89.351 25.833 C 89.305 25.833,89.522 26.096,89.833 26.417 M80.125 27.284 C 80.331 27.324,80.669 27.324,80.875 27.284 C 81.081 27.245,80.912 27.212,80.500 27.212 C 80.087 27.212,79.919 27.245,80.125 27.284 M31.906 28.042 L 31.417 28.583 31.958 28.094 C 32.463 27.638,32.577 27.500,32.448 27.500 C 32.419 27.500,32.175 27.744,31.906 28.042 M14.991 30.125 L 14.417 30.750 15.042 30.176 C 15.385 29.860,15.667 29.578,15.667 29.551 C 15.667 29.423,15.526 29.543,14.991 30.125 M151.250 29.667 L 150.750 29.794 151.198 29.814 C 151.445 29.824,151.693 29.758,151.750 29.667 C 151.807 29.575,151.830 29.509,151.802 29.520 C 151.773 29.531,151.525 29.597,151.250 29.667 M98.500 30.719 C 98.500 30.748,98.744 30.991,99.042 31.260 L 99.583 31.750 99.094 31.208 C 98.638 30.703,98.500 30.590,98.500 30.719 M57.461 32.454 C 57.761 32.491,58.211 32.490,58.461 32.452 C 58.712 32.414,58.467 32.384,57.917 32.385 C 57.367 32.386,57.162 32.417,57.461 32.454 " stroke="none" fill="#d35b9c" fill-rule="evenodd"></path><path id="path1" d="M384.917 0.208 C 382.369 1.084,379.427 3.218,377.177 5.821 L 376.827 6.225 376.205 5.877 C 373.520 4.378,370.070 5.082,367.872 7.579 L 367.208 8.333 366.062 8.336 C 364.926 8.338,364.199 8.517,363.264 9.025 C 362.791 9.281,362.757 9.273,362.040 8.725 C 357.516 5.272,351.032 6.764,348.326 11.880 C 347.672 13.116,347.534 13.227,347.049 12.910 C 346.845 12.776,346.576 12.667,346.451 12.667 C 346.326 12.667,345.986 12.198,345.696 11.625 C 343.659 7.600,338.531 6.502,335.540 9.451 C 334.950 10.032,334.698 10.167,334.199 10.169 C 333.257 10.172,331.928 10.580,331.133 11.110 C 330.494 11.536,330.279 11.587,329.144 11.575 L 327.872 11.562 327.061 10.729 C 326.033 9.675,324.603 8.983,323.218 8.872 C 322.405 8.807,322.154 8.722,322.080 8.488 C 321.957 8.103,320.567 6.659,319.917 6.243 C 317.848 4.918,316.073 4.736,313.600 5.597 C 311.667 6.270,310.760 6.974,309.909 8.461 C 309.546 9.096,309.491 9.136,308.333 9.601 C 307.587 9.900,305.621 11.103,305.542 11.309 C 305.519 11.368,305.138 11.392,304.695 11.361 C 303.560 11.282,302.588 11.590,301.948 12.230 C 301.499 12.679,301.221 12.801,300.434 12.893 C 299.348 13.021,298.554 13.520,297.994 14.427 L 297.649 14.984 296.916 14.425 C 295.518 13.358,292.060 12.804,290.890 13.460 C 290.566 13.642,290.514 13.614,290.360 13.172 C 289.951 11.997,288.207 9.762,287.226 9.153 C 285.056 7.807,281.403 8.202,279.543 9.983 C 278.847 10.649,276.709 10.780,276.548 10.167 C 276.500 9.983,276.413 9.833,276.355 9.833 C 276.296 9.833,276.156 9.627,276.044 9.375 C 274.308 5.481,268.597 3.420,264.097 5.063 C 260.206 6.483,256.019 11.777,255.998 15.300 C 255.997 15.535,255.805 15.589,254.873 15.618 C 254.256 15.637,253.263 15.809,252.669 15.999 C 251.468 16.383,251.665 16.456,250.875 15.335 C 248.483 11.939,243.371 10.514,240.230 12.367 L 239.668 12.699 238.839 11.953 C 236.948 10.253,233.707 9.455,231.167 10.065 C 228.651 10.669,227.454 11.792,226.492 14.453 C 226.163 15.361,225.808 15.300,224.636 14.131 C 220.981 10.485,214.401 10.382,210.973 13.917 C 209.744 15.185,208.829 17.227,208.573 19.275 L 208.462 20.167 207.606 20.168 C 207.135 20.168,206.458 20.250,206.102 20.348 C 205.548 20.502,205.390 20.483,205.019 20.213 C 203.756 19.300,200.187 18.754,198.474 19.213 C 198.070 19.321,197.987 19.255,197.537 18.458 C 195.062 14.079,188.712 13.749,183.518 17.729 C 181.885 18.980,181.503 19.323,180.360 20.570 L 179.637 21.358 178.777 20.957 C 175.858 19.596,172.131 20.498,170.520 22.957 C 170.177 23.480,170.123 23.500,169.052 23.500 C 167.729 23.500,166.862 23.737,165.820 24.382 C 165.567 24.539,165.412 24.458,164.606 23.750 C 160.683 20.301,153.601 22.181,150.983 27.366 C 150.715 27.898,150.467 28.333,150.432 28.333 C 149.830 28.333,148.903 27.592,148.485 26.776 C 146.417 22.737,141.479 21.709,138.285 24.652 C 137.738 25.157,137.406 25.333,137.007 25.333 C 136.144 25.333,134.736 25.812,133.878 26.396 C 133.158 26.886,133.022 26.922,132.437 26.780 C 132.016 26.678,131.596 26.684,131.229 26.796 C 130.920 26.891,130.666 26.920,130.664 26.859 C 130.644 25.903,127.552 24.082,125.982 24.101 C 125.087 24.113,125.034 24.089,124.745 23.553 C 122.407 19.212,114.998 19.321,112.658 23.732 C 112.327 24.355,112.168 24.479,111.466 24.659 C 110.817 24.826,108.703 26.059,108.333 26.487 C 108.287 26.540,107.725 26.589,107.083 26.596 C 105.892 26.608,104.625 27.148,104.398 27.739 C 104.348 27.870,103.913 28.014,103.364 28.083 C 101.983 28.255,101.279 28.717,100.583 29.908 C 100.431 30.168,100.372 30.155,99.916 29.757 C 99.428 29.330,98.958 29.078,97.887 28.671 C 97.324 28.457,93.973 28.499,93.481 28.727 C 93.276 28.822,93.190 28.741,93.118 28.384 C 92.989 27.746,91.831 25.993,91.018 25.203 C 88.750 23.002,84.671 22.994,82.305 25.184 C 81.722 25.724,81.645 25.748,80.609 25.695 L 79.524 25.639 78.654 24.313 C 77.696 22.855,76.455 21.630,75.320 21.023 C 74.915 20.806,74.317 20.487,73.992 20.315 C 68.522 17.415,59.622 23.284,58.799 30.333 C 58.753 30.728,58.680 30.756,57.432 30.857 C 56.151 30.961,54.909 31.253,54.596 31.525 C 54.510 31.599,54.299 31.424,54.121 31.131 C 51.746 27.227,45.962 25.477,42.798 27.706 C 42.561 27.873,42.433 27.834,42.048 27.478 C 38.117 23.846,31.780 24.344,29.823 28.440 C 29.553 29.004,29.333 29.614,29.333 29.798 C 29.333 29.981,29.215 30.177,29.070 30.232 C 28.680 30.382,28.167 30.355,28.167 30.185 C 28.167 29.396,24.950 27.301,23.000 26.819 C 17.154 25.375,12.510 28.436,11.336 34.508 L 11.157 35.432 10.555 35.362 C 10.224 35.323,9.558 35.386,9.076 35.502 C 8.276 35.694,8.157 35.683,7.724 35.385 C 6.172 34.315,2.945 33.920,0.958 34.557 L -0.000 34.864 0.000 35.756 L 0.000 36.648 0.875 36.265 C 2.982 35.343,5.867 35.761,7.630 37.245 L 8.138 37.672 8.762 37.304 C 9.797 36.694,10.800 36.819,12.708 37.797 C 12.777 37.832,12.833 37.172,12.833 36.330 C 12.833 32.214,14.841 29.138,18.036 28.357 C 21.633 27.477,25.536 28.866,27.332 31.664 C 27.961 32.645,27.834 32.603,28.599 32.083 C 28.981 31.825,29.447 31.667,29.830 31.667 C 30.445 31.667,30.448 31.664,30.660 30.708 C 31.321 27.741,32.967 26.552,36.221 26.695 C 38.618 26.800,40.959 28.067,41.846 29.739 L 42.236 30.475 42.599 29.941 C 44.844 26.637,51.625 28.637,53.254 33.083 C 53.422 33.542,53.578 33.943,53.602 33.975 C 53.626 34.007,53.894 33.844,54.198 33.612 C 55.610 32.534,57.817 32.069,59.231 32.551 L 60.000 32.813 60.000 32.282 C 60.001 31.280,60.843 28.604,61.623 27.125 C 65.663 19.464,74.881 19.220,78.206 26.686 L 78.697 27.789 79.340 27.478 C 80.118 27.102,80.810 27.083,81.606 27.415 L 82.201 27.664 82.957 26.824 C 86.066 23.365,91.103 25.296,92.034 30.303 L 92.226 31.336 92.571 31.012 C 94.250 29.436,97.854 29.688,99.348 31.486 C 99.924 32.180,99.931 32.183,100.422 31.927 C 100.694 31.785,101.077 31.668,101.274 31.668 C 101.514 31.667,101.664 31.532,101.734 31.253 C 102.033 30.065,103.411 29.307,104.636 29.658 C 105.023 29.769,105.167 29.756,105.167 29.610 C 105.167 28.537,107.017 27.726,108.167 28.295 C 108.801 28.609,108.829 28.610,108.922 28.315 C 109.166 27.548,111.411 26.148,112.751 25.928 C 113.345 25.830,113.452 25.737,113.717 25.096 C 115.483 20.827,122.270 20.848,123.772 25.127 C 124.007 25.798,124.139 25.977,124.332 25.887 C 126.130 25.041,129.087 26.501,129.697 28.534 C 129.921 29.284,129.864 29.271,130.631 28.750 C 131.379 28.242,132.216 28.212,132.963 28.668 C 133.419 28.946,133.525 28.961,133.603 28.760 C 134.009 27.700,136.713 26.590,137.676 27.088 C 138.186 27.352,138.227 27.351,138.380 27.078 C 139.992 24.196,144.051 23.699,146.179 26.123 C 146.721 26.740,147.667 28.513,147.667 28.912 C 147.667 29.086,147.831 29.167,148.189 29.167 C 148.560 29.167,148.860 29.323,149.230 29.709 L 149.750 30.252 150.333 29.959 C 150.654 29.799,151.080 29.667,151.279 29.667 C 151.557 29.667,151.741 29.451,152.065 28.744 C 153.368 25.896,155.832 23.882,158.386 23.575 C 160.869 23.277,164.180 24.802,165.299 26.759 C 165.480 27.075,165.492 27.073,165.756 26.702 C 166.769 25.279,168.549 24.665,170.076 25.210 L 170.735 25.445 171.338 24.514 C 173.285 21.505,177.461 20.929,179.331 23.410 L 179.746 23.961 180.291 23.152 C 185.425 15.528,195.476 14.258,197.063 21.032 L 197.168 21.481 198.044 21.080 C 199.994 20.187,202.479 20.439,204.384 21.723 L 205.417 22.418 206.167 22.032 C 207.078 21.562,208.015 21.627,209.208 22.243 L 210.000 22.651 210.002 21.200 C 210.015 13.915,216.800 10.377,222.750 14.555 C 223.455 15.049,224.817 16.615,225.055 17.204 C 225.117 17.356,225.180 17.364,225.279 17.232 C 225.526 16.900,226.537 16.466,227.102 16.450 C 227.623 16.435,227.663 16.390,227.828 15.621 C 228.405 12.927,229.752 11.717,232.524 11.399 C 234.795 11.139,238.096 12.728,239.079 14.554 L 239.396 15.142 239.997 14.523 C 242.850 11.583,248.901 13.577,250.509 17.988 L 250.862 18.957 251.306 18.538 C 252.465 17.446,255.092 16.888,256.708 17.393 C 257.119 17.521,257.167 17.495,257.169 17.143 C 257.170 16.927,257.349 16.032,257.568 15.155 C 260.086 5.038,271.272 2.685,275.356 11.413 C 275.636 12.011,275.886 12.500,275.912 12.500 C 275.938 12.500,276.229 12.387,276.558 12.250 C 277.310 11.936,278.179 11.931,278.911 12.237 C 279.451 12.462,279.491 12.454,279.738 12.078 C 281.005 10.145,283.990 9.299,285.959 10.316 C 287.613 11.171,289.333 13.901,289.333 15.670 L 289.333 16.184 289.884 15.764 C 291.179 14.776,293.514 14.494,295.028 15.143 C 295.701 15.432,297.000 16.572,297.000 16.874 C 297.000 16.948,297.221 16.894,297.492 16.754 C 297.762 16.614,298.169 16.500,298.395 16.500 C 298.715 16.500,298.849 16.375,298.991 15.944 C 299.338 14.893,300.043 14.415,301.222 14.431 C 302.235 14.445,302.261 14.434,302.712 13.801 C 303.399 12.836,304.408 12.570,305.407 13.091 C 305.885 13.341,305.908 13.334,306.312 12.817 C 306.946 12.008,308.579 11.031,309.679 10.804 C 310.601 10.614,310.657 10.572,310.914 9.899 C 312.550 5.617,319.735 5.721,321.008 10.045 C 321.185 10.649,321.303 10.814,321.496 10.731 C 323.595 9.833,327.000 11.696,327.000 13.743 C 327.000 14.087,327.080 14.071,327.798 13.583 C 328.527 13.088,329.477 13.036,330.183 13.453 C 330.653 13.731,330.676 13.728,330.925 13.373 C 331.744 12.203,333.966 11.378,334.865 11.909 C 335.361 12.202,335.384 12.202,335.549 11.907 C 337.692 8.077,342.848 8.662,344.582 12.932 C 344.955 13.850,345.027 13.926,345.654 14.051 C 346.129 14.146,346.405 14.320,346.599 14.648 L 346.872 15.111 347.471 14.805 C 347.801 14.637,348.236 14.500,348.438 14.500 C 348.733 14.500,348.936 14.229,349.474 13.117 C 351.964 7.972,357.837 6.794,361.680 10.668 L 362.777 11.774 363.129 11.237 C 363.892 10.073,365.926 9.551,367.616 10.085 C 367.926 10.183,368.061 10.072,368.502 9.356 C 370.297 6.438,374.543 5.762,376.461 8.089 L 376.954 8.687 377.589 7.803 C 382.837 0.499,391.318 -0.925,393.926 5.062 L 394.393 6.132 395.013 5.721 C 396.292 4.875,397.884 4.631,399.167 5.083 C 399.556 5.221,399.903 5.333,399.938 5.333 C 399.972 5.333,400.000 4.970,400.000 4.526 C 400.000 3.371,398.239 2.956,395.922 3.566 L 395.094 3.784 394.612 3.024 C 393.981 2.029,392.797 0.954,391.750 0.424 C 390.833 -0.040,386.074 -0.191,384.917 0.208 " stroke="none" fill="#fbdbd3" fill-rule="evenodd"></path><path id="path2" d="M386.583 1.494 C 383.679 2.118,379.800 4.870,377.722 7.781 L 376.987 8.811 376.311 8.078 C 374.247 5.839,370.662 6.426,368.615 9.338 C 368.187 9.946,367.881 10.229,367.695 10.187 C 365.468 9.679,363.661 10.258,362.880 11.728 C 362.732 12.006,362.656 11.957,362.153 11.255 C 358.975 6.831,352.050 7.872,349.552 13.149 C 348.968 14.382,348.869 14.500,348.333 14.598 C 348.012 14.656,347.584 14.808,347.381 14.935 C 346.880 15.249,346.708 15.227,346.583 14.832 C 346.466 14.463,345.697 14.000,345.201 14.000 C 344.982 14.000,344.829 13.811,344.698 13.375 C 343.702 10.071,340.160 8.467,337.414 10.076 C 336.724 10.480,335.500 11.845,335.500 12.210 C 335.500 12.299,335.315 12.251,335.089 12.103 C 334.168 11.499,332.220 12.076,331.179 13.262 L 330.676 13.834 330.130 13.501 C 329.267 12.975,328.137 13.150,327.509 13.906 C 327.197 14.281,327.054 14.230,326.949 13.702 C 326.530 11.610,323.627 9.955,321.750 10.739 L 321.178 10.978 321.070 10.407 C 320.241 5.985,313.092 5.519,311.088 9.756 C 310.683 10.612,310.637 10.649,309.732 10.852 C 308.590 11.108,306.699 12.282,306.277 12.998 C 305.983 13.497,305.954 13.508,305.574 13.259 C 304.652 12.655,303.169 13.016,302.685 13.963 L 302.357 14.606 301.347 14.533 C 300.108 14.444,299.686 14.678,299.171 15.741 C 298.904 16.294,298.706 16.500,298.443 16.501 C 298.245 16.501,297.859 16.638,297.584 16.805 L 297.085 17.108 296.548 16.405 C 295.122 14.536,291.285 14.303,289.757 15.992 L 289.431 16.352 289.206 15.237 C 288.188 10.202,283.426 8.285,280.220 11.622 C 279.449 12.424,279.315 12.502,278.999 12.333 C 278.483 12.057,276.945 12.100,276.351 12.408 L 275.839 12.672 275.341 11.573 C 273.699 7.953,270.261 5.703,266.944 6.077 C 262.002 6.634,258.192 10.911,257.248 16.958 C 257.187 17.348,257.116 17.667,257.090 17.667 C 257.063 17.667,256.714 17.549,256.313 17.405 C 255.044 16.949,252.911 17.412,251.573 18.433 C 250.717 19.086,250.667 19.102,250.667 18.708 C 250.666 18.548,250.449 17.967,250.183 17.417 C 248.225 13.363,242.694 11.819,240.074 14.595 L 239.397 15.311 239.081 14.725 C 236.514 9.958,228.577 10.656,227.897 15.708 C 227.793 16.477,227.774 16.500,227.222 16.500 C 226.654 16.500,225.451 17.009,225.250 17.333 C 225.192 17.428,224.881 17.110,224.559 16.627 C 223.709 15.351,222.795 14.580,221.193 13.786 L 219.775 13.083 217.596 13.088 C 212.776 13.099,210.298 15.705,210.040 21.036 L 209.953 22.823 209.518 22.528 C 208.304 21.706,206.909 21.587,205.970 22.225 L 205.393 22.616 204.591 21.973 C 202.945 20.652,199.768 20.251,198.036 21.144 C 197.221 21.565,197.068 21.523,196.918 20.840 C 196.614 19.453,194.539 17.218,193.201 16.835 C 189.275 15.711,183.559 18.501,180.466 23.051 L 179.808 24.019 179.112 23.282 C 176.954 20.995,173.264 21.657,171.325 24.680 C 170.924 25.305,170.719 25.488,170.519 25.400 C 168.883 24.682,166.222 25.569,165.609 27.036 C 165.545 27.188,165.460 27.155,165.312 26.919 C 162.182 21.904,154.930 22.849,152.223 28.625 C 151.724 29.689,151.602 29.833,151.203 29.834 C 150.954 29.835,150.535 29.947,150.273 30.084 C 149.641 30.414,149.595 30.405,149.328 29.907 C 149.178 29.626,148.865 29.418,148.408 29.296 C 147.772 29.126,147.680 29.027,147.259 28.061 C 145.456 23.921,139.597 23.460,138.298 27.355 C 138.247 27.510,138.126 27.491,137.827 27.281 C 136.964 26.676,135.177 27.202,134.011 28.405 L 133.452 28.982 132.788 28.643 C 131.975 28.229,131.232 28.326,130.498 28.944 C 130.216 29.181,129.965 29.347,129.939 29.312 C 129.914 29.278,129.767 28.911,129.613 28.496 C 128.852 26.437,125.695 24.939,124.395 26.018 C 124.111 26.254,124.130 26.276,123.769 25.301 C 122.141 20.904,115.410 20.879,113.736 25.264 C 113.495 25.896,113.388 26.000,112.981 26.000 C 112.097 26.000,109.719 27.228,109.303 27.900 C 108.813 28.691,108.735 28.734,108.321 28.443 C 107.432 27.821,105.910 28.235,105.439 29.227 L 105.166 29.802 104.172 29.712 C 102.954 29.601,102.478 29.860,101.967 30.911 C 101.688 31.486,101.503 31.660,101.086 31.739 C 100.795 31.793,100.422 31.937,100.256 32.058 C 99.988 32.254,99.860 32.182,99.102 31.405 C 97.452 29.713,94.459 29.522,92.775 31.001 L 92.221 31.487 91.940 30.180 C 90.891 25.299,85.646 23.462,82.852 26.996 C 82.256 27.750,82.202 27.780,81.820 27.569 C 81.277 27.268,79.959 27.276,79.219 27.586 C 78.887 27.724,78.603 27.818,78.588 27.794 C 78.573 27.770,78.402 27.358,78.208 26.880 C 77.384 24.844,75.710 23.035,73.756 22.070 L 72.432 21.417 70.341 21.417 C 65.483 21.417,61.449 25.285,60.298 31.048 C 60.001 32.539,59.895 32.827,59.678 32.736 C 58.344 32.178,55.704 32.609,54.411 33.596 C 53.984 33.923,53.614 34.166,53.589 34.136 C 53.565 34.107,53.418 33.695,53.263 33.220 C 51.824 28.815,45.286 26.792,42.684 29.948 L 42.195 30.542 41.853 29.872 C 40.899 28.002,37.883 26.527,35.397 26.715 C 32.689 26.919,31.248 28.218,30.654 30.988 C 30.552 31.463,30.400 31.791,30.308 31.735 C 30.029 31.562,29.060 31.824,28.451 32.238 L 27.868 32.633 27.363 31.855 C 25.476 28.941,21.832 27.562,18.254 28.405 C 14.851 29.207,12.833 32.251,12.833 36.582 L 12.833 37.977 12.042 37.533 C 11.000 36.950,9.435 36.902,8.725 37.432 L 8.258 37.780 7.211 37.062 C 5.876 36.149,5.110 35.929,3.250 35.925 C 1.666 35.922,0.000 36.436,-0.000 36.928 C -0.000 37.090,0.232 37.046,0.875 36.764 C 3.030 35.817,5.500 36.196,7.448 37.773 L 8.145 38.338 8.762 37.919 C 9.804 37.212,11.234 37.399,12.568 38.416 C 13.296 38.972,13.315 38.928,13.308 36.657 C 13.294 31.656,15.534 28.888,19.747 28.701 C 23.366 28.540,25.368 29.606,27.524 32.840 L 27.797 33.250 28.190 32.896 C 28.805 32.342,29.252 32.167,30.053 32.167 C 30.818 32.167,30.991 31.977,30.998 31.131 C 31.036 26.336,39.102 25.744,41.610 30.353 C 42.125 31.300,42.333 31.360,42.646 30.653 C 44.245 27.041,51.530 29.133,52.909 33.601 C 53.367 35.085,53.441 35.127,54.235 34.349 C 55.524 33.088,57.560 32.550,59.104 33.062 C 60.184 33.421,60.222 33.416,60.293 32.879 C 61.111 26.654,64.889 22.226,69.795 21.742 C 73.130 21.414,76.619 23.852,77.918 27.417 C 78.330 28.548,78.394 28.593,79.029 28.202 C 79.935 27.645,80.683 27.585,81.605 27.993 C 82.049 28.189,82.434 28.282,82.461 28.200 C 82.993 26.604,85.906 25.200,87.704 25.672 C 89.694 26.194,91.660 28.988,91.669 31.307 C 91.674 32.377,91.904 32.503,92.556 31.791 C 94.324 29.861,97.900 30.077,99.215 32.193 C 99.803 33.140,99.713 33.105,100.235 32.583 C 100.524 32.294,100.834 32.167,101.248 32.167 C 101.791 32.167,101.873 32.103,102.151 31.458 C 102.696 30.197,103.516 29.828,104.876 30.233 C 105.291 30.357,105.357 30.316,105.570 29.807 C 106.098 28.545,107.169 28.190,108.244 28.922 C 108.607 29.169,108.926 29.306,108.953 29.227 C 109.388 27.938,111.857 26.333,113.404 26.333 C 113.672 26.333,113.822 26.146,114.038 25.542 C 114.890 23.160,118.292 21.636,120.540 22.630 C 121.997 23.275,123.479 25.004,123.499 26.083 C 123.512 26.790,123.753 26.910,124.378 26.524 C 125.990 25.528,128.579 26.783,129.263 28.893 C 129.651 30.089,129.707 30.112,130.593 29.435 C 131.528 28.721,132.059 28.678,132.901 29.250 C 133.638 29.750,133.833 29.771,133.833 29.346 C 133.833 28.268,136.454 27.120,137.623 27.686 C 138.023 27.880,138.374 28.011,138.403 27.977 C 138.431 27.944,138.546 27.741,138.658 27.527 C 140.630 23.741,145.817 24.534,147.059 28.812 C 147.237 29.426,147.365 29.593,147.683 29.630 C 148.630 29.740,148.853 29.863,149.119 30.421 C 149.440 31.094,149.525 31.115,150.134 30.665 C 150.383 30.480,150.909 30.274,151.302 30.206 C 151.979 30.090,152.038 30.034,152.392 29.163 C 154.726 23.417,162.033 22.314,164.937 27.269 C 165.452 28.149,165.699 28.187,165.973 27.428 C 166.546 25.845,168.708 25.081,170.327 25.889 L 170.811 26.130 171.507 25.053 C 173.510 21.956,177.201 21.447,179.136 24.000 C 179.753 24.814,180.000 24.993,180.000 24.626 C 180.000 23.860,182.275 21.277,184.389 19.642 C 189.777 15.476,194.953 16.278,196.657 21.542 C 196.895 22.279,196.979 22.295,197.795 21.760 C 199.600 20.578,202.511 20.872,204.423 22.429 L 205.342 23.177 205.879 22.769 C 206.919 21.980,208.307 22.098,209.602 23.087 C 210.461 23.741,210.500 23.677,210.500 21.636 C 210.500 19.601,210.792 18.082,211.428 16.818 C 213.825 12.048,221.536 12.328,224.449 17.292 C 224.830 17.940,225.167 18.207,225.167 17.860 C 225.167 17.541,226.828 16.818,227.448 16.867 L 228.072 16.917 228.192 16.104 C 228.611 13.262,230.135 11.941,233.000 11.937 C 235.391 11.933,237.425 13.017,238.670 14.958 C 239.297 15.936,239.667 16.251,239.667 15.807 C 239.667 14.830,241.668 13.671,243.360 13.668 C 246.634 13.663,249.184 15.562,250.241 18.792 C 250.577 19.820,250.746 19.861,251.489 19.094 C 252.615 17.933,255.056 17.338,256.396 17.897 C 257.379 18.308,257.449 18.267,257.581 17.210 C 258.969 6.102,271.314 2.530,275.086 12.145 C 275.343 12.798,275.574 13.333,275.601 13.333 C 275.627 13.333,276.002 13.146,276.433 12.917 C 277.380 12.413,278.048 12.391,278.917 12.833 C 279.727 13.247,279.833 13.248,279.833 12.846 C 279.833 12.311,281.235 11.060,282.208 10.729 C 285.448 9.625,288.276 11.799,288.835 15.823 C 289.051 17.371,289.025 17.353,289.826 16.528 C 291.802 14.491,295.759 15.030,296.684 17.463 L 296.836 17.861 297.347 17.430 C 297.629 17.194,298.151 16.953,298.507 16.896 C 299.053 16.809,299.182 16.707,299.335 16.244 C 299.750 14.987,300.879 14.527,302.198 15.077 C 302.412 15.166,302.561 15.035,302.821 14.525 C 303.455 13.281,304.536 12.965,305.470 13.750 C 306.100 14.280,306.097 14.281,306.437 13.564 C 306.920 12.547,308.713 11.420,310.186 11.208 C 310.933 11.100,311.059 11.028,311.113 10.674 C 311.389 8.864,313.825 7.167,316.145 7.167 C 318.239 7.167,320.167 8.688,320.692 10.755 C 320.808 11.210,320.921 11.611,320.943 11.644 C 320.964 11.677,321.230 11.554,321.533 11.370 C 323.427 10.220,326.652 12.102,326.665 14.365 C 326.668 14.886,326.992 14.855,327.772 14.259 C 328.715 13.539,329.326 13.501,330.202 14.108 C 330.553 14.351,330.857 14.520,330.878 14.483 C 330.899 14.447,331.031 14.192,331.171 13.917 C 331.798 12.685,333.971 11.836,334.845 12.482 C 335.452 12.931,335.572 12.924,335.799 12.426 C 337.529 8.629,343.375 9.416,344.261 13.565 C 344.413 14.274,344.629 14.500,345.155 14.500 C 345.669 14.500,345.989 14.726,346.387 15.370 L 346.668 15.823 347.442 15.412 C 347.868 15.185,348.432 15.000,348.697 15.000 C 349.005 15.000,349.213 14.895,349.278 14.708 C 351.438 8.475,358.988 6.832,362.038 11.931 C 362.627 12.916,362.909 13.052,363.065 12.430 C 363.451 10.891,365.677 9.915,367.276 10.583 C 368.099 10.927,368.115 10.922,368.512 10.144 C 370.266 6.704,374.838 6.167,376.624 9.190 C 376.923 9.697,377.167 9.811,377.167 9.444 C 377.167 8.682,379.566 5.985,381.663 4.389 C 387.001 0.328,392.446 1.180,393.822 6.293 C 394.048 7.130,394.272 7.173,394.914 6.503 C 395.877 5.498,398.100 5.099,399.317 5.714 C 400.007 6.062,400.000 6.062,400.000 5.741 C 400.000 4.596,395.822 4.815,394.733 6.018 C 394.452 6.329,394.424 6.299,393.831 5.045 C 392.469 2.162,389.726 0.819,386.583 1.494 " stroke="none" fill="#0e0d0c" fill-rule="evenodd"></path></g></svg>