<?xml version="1.0" encoding="utf-8"?>
<!-- Generator: Adobe Illustrator 19.0.1, SVG Export Plug-In . SVG Version: 6.00 Build 0)  -->
<svg version="1.0" id="Layer_1" xmlns="http://www.w3.org/2000/svg" xmlns:xlink="http://www.w3.org/1999/xlink" x="0px" y="0px"
	 viewBox="-181 305.3 231.6 231.6" style="enable-background:new -181 305.3 231.6 231.6;" xml:space="preserve">
<style type="text/css">
	
		.st0{display:none;fill:#DDD29B;stroke:#00507E;stroke-width:0.3;stroke-linecap:round;stroke-linejoin:round;stroke-miterlimit:10;}
	.st1{fill:#FFFFFF;}
	.st2{fill:#00507E;}
	.st3{fill:none;stroke:#00507E;stroke-width:1.5;stroke-linecap:round;stroke-miterlimit:10;stroke-dasharray:0,6.0061;}
	.st4{fill:none;stroke:#FFFFFF;stroke-width:2;stroke-linecap:round;stroke-miterlimit:10;}
	.st5{clip-path:url(#SVGID_2_);fill:#FFFFFF;}
	.st6{clip-path:url(#SVGID_4_);fill:#00507E;}
	.st7{fill:#00507E;stroke:#FFFFFF;stroke-width:0.4;stroke-miterlimit:10;}
	.st8{fill:none;}
	.st9{fill:#00507E;stroke:#FFFFFF;stroke-width:0.3;stroke-miterlimit:10;}
	
		.st10{display:none;fill:#FFFFFF;stroke:#00507E;stroke-width:0.3;stroke-linecap:round;stroke-linejoin:round;stroke-miterlimit:10;}
	.st11{fill:#00507E;stroke:#FFFFFF;stroke-width:0.3;stroke-linecap:round;stroke-linejoin:round;stroke-miterlimit:10;}
	.st12{fill:none;stroke:#FFFFFF;stroke-width:0.1;stroke-miterlimit:10;}
	.st13{fill:none;stroke:#00507E;stroke-width:1.5;stroke-miterlimit:10;}
</style>
<g id="Space">
</g>
<g id="Central_1_">
</g>
<g id="Trees">
</g>
<g id="Mountains">
</g>
<g id="Underwater">
	<g id="Cacti_Tall_1_">
		<path class="st0" d="M-8.8,441.4c0,0,1.7-17.2,2.5-21.1s0.7-9.9,0.3-12c-0.4-2.2-2.8-4.1-2.8-4.1s1.4,1.9,1.4,4.5
			S-7.8,422-8,424.5s-1.7,17.3-1.7,17.3"/>
		<path class="st0" d="M-11,441.2c0,0-1.1-26.1-0.8-28.3c0.3-2.2,1-5.3,1.8-6.6c0.8-1.3,1.3-2.1,1.3-2.1c-3.8,0.6-4.3,8.6-4.6,9.9
			c-0.3,1.3,1.5,27.1,1.5,27.1"/>
	</g>
</g>
<g id="Badge">
</g>
<g id="Text">
	<g>
		<g>
			<path class="st1" d="M-65.2,526.4c-2.5,0-4.9-0.8-6.8-2.4l-4.7-3.7c-1.5-1.2-3.4-1.8-5.3-1.8c-1,0-2,0.2-2.9,0.5l-5.6,2.1
				c-1.2,0.5-2.5,0.7-3.8,0.7c-3.7,0-7.1-1.8-9.2-4.9l-3.3-5c-1.6-2.4-4.2-3.8-7.1-3.8c-0.1,0-0.2,0-0.3,0l-6,0.2
				c-0.1,0-0.3,0-0.4,0c-4.9,0-9.3-3.3-10.6-8l-1.6-5.7c-0.8-2.8-3.1-5.1-5.9-5.9l-5.7-1.6c-4.9-1.4-8.2-5.9-8-11l0.2-6
				c0.1-2.9-1.3-5.8-3.8-7.4l-5-3.3c-4.3-2.8-6-8.2-4.2-13l2.1-5.6c1-2.8,0.5-5.9-1.3-8.2l-3.7-4.7c-3.2-4-3.2-9.6,0-13.6l3.7-4.7
				c1.8-2.3,2.3-5.5,1.3-8.2l-2.1-5.6c-1.8-4.8,0-10.1,4.2-13l5-3.3c2.4-1.6,3.9-4.5,3.8-7.4l-0.2-6c-0.2-5.1,3.1-9.7,8-11l5.7-1.6
				c2.8-0.8,5.1-3.1,5.9-5.9l1.6-5.7c1.3-4.7,5.7-8,10.6-8c0.1,0,0.3,0,0.4,0l6,0.2c0.1,0,0.2,0,0.3,0c2.8,0,5.5-1.4,7.1-3.8l3.3-5
				c2-3.1,5.5-4.9,9.2-4.9c1.3,0,2.6,0.2,3.8,0.7l5.6,2.1c0.9,0.3,1.9,0.5,2.9,0.5c1.9,0,3.8-0.6,5.3-1.8l4.7-3.7
				c1.9-1.5,4.4-2.4,6.8-2.4s4.9,0.8,6.8,2.4l4.7,3.7c1.5,1.2,3.4,1.8,5.3,1.8c1,0,2-0.2,2.9-0.5l5.6-2.1c1.2-0.5,2.5-0.7,3.8-0.7
				c3.7,0,7.1,1.8,9.2,4.9l3.3,5c1.6,2.4,4.2,3.8,7.1,3.8c0.1,0,0.2,0,0.3,0l6-0.2c0.1,0,0.3,0,0.4,0c4.9,0,9.3,3.3,10.6,8l1.6,5.7
				c0.8,2.8,3.1,5.1,5.9,5.9l5.7,1.6c4.9,1.4,8.2,5.9,8,11l-0.2,6c-0.1,2.9,1.3,5.8,3.8,7.4l5,3.3c4.3,2.8,6,8.2,4.2,13l-2.1,5.6
				c-1,2.8-0.5,5.9,1.3,8.2l3.7,4.7c3.2,4,3.2,9.6,0,13.6l-3.7,4.7c-1.8,2.3-2.3,5.5-1.3,8.2l2.1,5.6c1.8,4.8,0,10.1-4.2,13l-5,3.3
				c-2.4,1.6-3.9,4.5-3.8,7.4l0.2,6c0.2,5.1-3.1,9.7-8,11l-5.7,1.6c-2.8,0.8-5.1,3.1-5.9,5.9l-1.6,5.7c-1.3,4.7-5.7,8-10.6,8
				c-0.1,0-0.3,0-0.4,0l-6-0.2c-0.1,0-0.2,0-0.3,0c-2.8,0-5.5,1.4-7.1,3.8l-3.3,5c-2,3.1-5.5,4.9-9.2,4.9c-1.3,0-2.6-0.2-3.8-0.7
				l-5.6-2.1c-0.9-0.4-1.9-0.5-2.9-0.5c-1.9,0-3.8,0.6-5.3,1.8l-4.7,3.7C-60.3,525.5-62.8,526.4-65.2,526.4z"/>
			<path class="st1" d="M-65.2,317.1c2.1,0,4.3,0.7,6,2.1l4.7,3.7c1.7,1.4,3.9,2.1,6,2.1c1.1,0,2.3-0.2,3.4-0.6l5.6-2.1
				c1.1-0.4,2.3-0.6,3.4-0.6c3.2,0,6.3,1.6,8.1,4.3l3.3,5c1.8,2.7,4.9,4.3,8.1,4.3c0.1,0,0.3,0,0.4,0l6-0.2c0.1,0,0.3,0,0.4,0
				c4.4,0,8.2,2.9,9.4,7.1l1.6,5.7c0.9,3.3,3.5,5.8,6.8,6.8l5.7,1.6c4.3,1.2,7.3,5.3,7.1,9.8l-0.2,6c-0.1,3.4,1.5,6.6,4.3,8.5l5,3.3
				c3.8,2.5,5.3,7.3,3.7,11.5l-2.1,5.6c-1.2,3.2-0.6,6.8,1.5,9.4l3.7,4.7c2.8,3.5,2.8,8.5,0,12.1l-3.7,4.7c-2.1,2.7-2.7,6.2-1.5,9.4
				l2.1,5.6c1.6,4.2,0,9-3.7,11.5l-5,3.3c-2.8,1.9-4.5,5.1-4.3,8.5l0.2,6c0.2,4.5-2.8,8.6-7.1,9.8L8,487.6c-3.3,0.9-5.8,3.5-6.8,6.8
				l-1.6,5.7c-1.2,4.2-5,7.1-9.4,7.1c-0.1,0-0.3,0-0.4,0l-6-0.2c-0.1,0-0.3,0-0.4,0c-3.3,0-6.3,1.6-8.1,4.3l-3.3,5
				c-1.9,2.8-4.9,4.3-8.1,4.3c-1.1,0-2.3-0.2-3.4-0.6l-5.6-2.1c-1.1-0.4-2.2-0.6-3.4-0.6c-2.2,0-4.3,0.7-6,2.1l-4.7,3.7
				c-1.8,1.4-3.9,2.1-6,2.1s-4.3-0.7-6-2.1l-4.7-3.7c-1.7-1.4-3.9-2.1-6-2.1c-1.1,0-2.3,0.2-3.4,0.6l-5.6,2.1
				c-1.1,0.4-2.3,0.6-3.4,0.6c-3.2,0-6.3-1.6-8.1-4.3l-3.3-5c-1.8-2.7-4.9-4.3-8.1-4.3c-0.1,0-0.3,0-0.4,0l-6,0.2
				c-0.1,0-0.3,0-0.4,0c-4.4,0-8.2-2.9-9.4-7.1l-1.6-5.7c-0.9-3.3-3.5-5.8-6.8-6.8l-5.7-1.6c-4.3-1.2-7.3-5.3-7.1-9.8l0.2-6
				c0.1-3.4-1.5-6.6-4.3-8.5l-5-3.3c-3.8-2.5-5.3-7.3-3.7-11.5l2.1-5.6c1.2-3.2,0.6-6.8-1.5-9.4l-3.7-4.7c-2.8-3.5-2.8-8.5,0-12.1
				l3.7-4.7c2.1-2.7,2.7-6.2,1.5-9.4l-2.1-5.7c-1.6-4.2,0-9,3.7-11.5l5-3.3c2.8-1.9,4.5-5.1,4.3-8.5l-0.2-6
				c-0.2-4.5,2.8-8.6,7.1-9.8l5.7-1.6c3.3-0.9,5.8-3.5,6.8-6.8l1.6-5.7c1.2-4.2,5-7.1,9.4-7.1c0.1,0,0.3,0,0.4,0l6,0.2
				c0.1,0,0.3,0,0.4,0c3.3,0,6.3-1.6,8.1-4.3l3.3-5c1.9-2.8,4.9-4.3,8.1-4.3c1.1,0,2.3,0.2,3.4,0.6l5.6,2.1c1.1,0.4,2.2,0.6,3.4,0.6
				c2.2,0,4.3-0.7,6-2.1l4.7-3.7C-69.5,317.8-67.4,317.1-65.2,317.1 M-65.2,314.6c-2.7,0-5.4,0.9-7.6,2.6l-4.7,3.7
				c-1.3,1-2.9,1.6-4.5,1.6c-0.9,0-1.7-0.2-2.5-0.4l-5.6-2.1c-1.4-0.5-2.8-0.8-4.2-0.8c-4.1,0-7.9,2-10.2,5.5l-3.3,5
				c-1.4,2-3.6,3.2-6,3.2c-0.1,0-0.2,0-0.3,0l-6-0.2c-0.2,0-0.3,0-0.5,0c-5.5,0-10.3,3.7-11.8,8.9l-1.6,5.6c-0.7,2.4-2.6,4.3-5,5
				l-5.7,1.6c-5.5,1.5-9.2,6.6-8.9,12.3l0.2,6c0.1,2.5-1.1,4.9-3.2,6.3l-5,3.3c-4.7,3.2-6.7,9.1-4.7,14.4l2.1,5.6
				c0.9,2.4,0.4,5-1.1,7l-3.7,4.7c-3.5,4.5-3.5,10.7,0,15.2l3.7,4.7c1.6,2,2,4.7,1.1,7l-2.1,5.6c-2,5.3,0,11.3,4.7,14.4l5,3.3
				c2.1,1.4,3.3,3.8,3.2,6.3l-0.2,6c-0.2,5.7,3.4,10.7,8.9,12.3l5.7,1.6c2.4,0.7,4.3,2.6,5,5l1.6,5.7c1.5,5.3,6.3,8.9,11.8,8.9
				c0.2,0,0.3,0,0.5,0l6-0.2c0.1,0,0.2,0,0.3,0c2.4,0,4.7,1.2,6,3.2l3.3,5c2.3,3.4,6.1,5.5,10.2,5.5c1.5,0,2.9-0.3,4.2-0.8l5.6-2.1
				c0.8-0.3,1.7-0.4,2.5-0.4c1.6,0,3.2,0.6,4.5,1.6l4.7,3.7c2.2,1.7,4.9,2.6,7.6,2.6s5.4-0.9,7.6-2.6l4.7-3.7c1.3-1,2.9-1.6,4.5-1.6
				c0.9,0,1.7,0.2,2.5,0.4l5.6,2.1c1.4,0.5,2.8,0.8,4.2,0.8c4.1,0,7.9-2,10.2-5.5l3.3-5c1.4-2,3.6-3.2,6-3.2c0.1,0,0.2,0,0.3,0
				l6,0.2c0.2,0,0.3,0,0.5,0c5.5,0,10.3-3.7,11.8-8.9l1.6-5.7c0.7-2.4,2.6-4.3,5-5l5.7-1.6c5.5-1.5,9.2-6.6,8.9-12.3l-0.2-6
				c-0.1-2.5,1.1-4.9,3.2-6.3l5-3.3c4.7-3.2,6.7-9.1,4.7-14.4l-2.1-5.6c-0.9-2.4-0.4-5,1.1-7l3.7-4.7c3.5-4.5,3.5-10.7,0-15.2
				l-3.7-4.7c-1.6-2-2-4.7-1.1-7l2.1-5.6c2-5.3,0-11.3-4.7-14.4l-5-3.3c-2.1-1.4-3.3-3.8-3.2-6.3l0.2-6c0.2-5.7-3.4-10.7-8.9-12.3
				l-5.7-1.6c-2.4-0.7-4.3-2.6-5-5L2,341.5c-1.5-5.3-6.3-8.9-11.8-8.9c-0.2,0-0.3,0-0.5,0l-6,0.2c-0.1,0-0.2,0-0.3,0
				c-2.4,0-4.7-1.2-6-3.2l-3.3-5c-2.3-3.4-6.1-5.5-10.2-5.5c-1.5,0-2.9,0.3-4.2,0.8l-5.6,2.1c-0.8,0.3-1.7,0.4-2.5,0.4
				c-1.6,0-3.2-0.6-4.5-1.6l-4.7-3.7C-59.8,315.5-62.5,314.6-65.2,314.6L-65.2,314.6z"/>
			<path class="st2" d="M-65.2,317.1c2.1,0,4.3,0.7,6,2.1l4.7,3.7c1.7,1.4,3.9,2.1,6,2.1c1.1,0,2.3-0.2,3.4-0.6l5.6-2.1
				c1.1-0.4,2.3-0.6,3.4-0.6c3.2,0,6.3,1.6,8.1,4.3l3.3,5c1.8,2.7,4.9,4.3,8.1,4.3c0.1,0,0.3,0,0.4,0l6-0.2c0.1,0,0.3,0,0.4,0
				c4.4,0,8.2,2.9,9.4,7.1l1.6,5.7c0.9,3.3,3.5,5.8,6.8,6.8l5.7,1.6c4.3,1.2,7.3,5.3,7.1,9.8l-0.2,6c-0.1,3.4,1.5,6.6,4.3,8.5l5,3.3
				c3.8,2.5,5.3,7.3,3.7,11.5l-2.1,5.6c-1.2,3.2-0.6,6.8,1.5,9.4l3.7,4.7c2.8,3.5,2.8,8.5,0,12.1l-3.7,4.7c-2.1,2.7-2.7,6.2-1.5,9.4
				l2.1,5.6c1.6,4.2,0,9-3.7,11.5l-5,3.3c-2.8,1.9-4.5,5.1-4.3,8.5l0.2,6c0.2,4.5-2.8,8.6-7.1,9.8L8,487.6c-3.3,0.9-5.8,3.5-6.8,6.8
				l-1.6,5.7c-1.2,4.2-5,7.1-9.4,7.1c-0.1,0-0.3,0-0.4,0l-6-0.2c-0.1,0-0.3,0-0.4,0c-3.3,0-6.3,1.6-8.1,4.3l-3.3,5
				c-1.9,2.8-4.9,4.3-8.1,4.3c-1.1,0-2.3-0.2-3.4-0.6l-5.6-2.1c-1.1-0.4-2.2-0.6-3.4-0.6c-2.2,0-4.3,0.7-6,2.1l-4.7,3.7
				c-1.8,1.4-3.9,2.1-6,2.1s-4.3-0.7-6-2.1l-4.7-3.7c-1.7-1.4-3.9-2.1-6-2.1c-1.1,0-2.3,0.2-3.4,0.6l-5.6,2.1
				c-1.1,0.4-2.3,0.6-3.4,0.6c-3.2,0-6.3-1.6-8.1-4.3l-3.3-5c-1.8-2.7-4.9-4.3-8.1-4.3c-0.1,0-0.3,0-0.4,0l-6,0.2
				c-0.1,0-0.3,0-0.4,0c-4.4,0-8.2-2.9-9.4-7.1l-1.6-5.7c-0.9-3.3-3.5-5.8-6.8-6.8l-5.7-1.6c-4.3-1.2-7.3-5.3-7.1-9.8l0.2-6
				c0.1-3.4-1.5-6.6-4.3-8.5l-5-3.3c-3.8-2.5-5.3-7.3-3.7-11.5l2.1-5.6c1.2-3.2,0.6-6.8-1.5-9.4l-3.7-4.7c-2.8-3.5-2.8-8.5,0-12.1
				l3.7-4.7c2.1-2.7,2.7-6.2,1.5-9.4l-2.1-5.7c-1.6-4.2,0-9,3.7-11.5l5-3.3c2.8-1.9,4.5-5.1,4.3-8.5l-0.2-6
				c-0.2-4.5,2.8-8.6,7.1-9.8l5.7-1.6c3.3-0.9,5.8-3.5,6.8-6.8l1.6-5.7c1.2-4.2,5-7.1,9.4-7.1c0.1,0,0.3,0,0.4,0l6,0.2
				c0.1,0,0.3,0,0.4,0c3.3,0,6.3-1.6,8.1-4.3l3.3-5c1.9-2.8,4.9-4.3,8.1-4.3c1.1,0,2.3,0.2,3.4,0.6l5.6,2.1c1.1,0.4,2.2,0.6,3.4,0.6
				c2.2,0,4.3-0.7,6-2.1l4.7-3.7C-69.5,317.8-67.4,317.1-65.2,317.1 M-65.2,315.6c-2.5,0-5,0.9-7,2.4l-4.7,3.7
				c-1.5,1.1-3.3,1.8-5.1,1.8c-1,0-1.9-0.2-2.9-0.5l-5.6-2.1c-1.3-0.5-2.6-0.7-3.9-0.7c-3.8,0-7.3,1.9-9.4,5l-3.3,5
				c-1.5,2.3-4.1,3.7-6.9,3.7c-0.1,0-0.2,0-0.3,0l-6-0.2c-0.2,0-0.3,0-0.5,0c-5,0-9.5,3.4-10.8,8.2l-1.6,5.7c-0.8,2.7-3,4.9-5.7,5.7
				l-5.7,1.6c-5,1.4-8.4,6.1-8.2,11.3l0.2,6c0.1,2.9-1.3,5.6-3.7,7.2l-5,3.3c-4.4,2.9-6.1,8.4-4.3,13.3l2.1,5.6c1,2.7,0.5,5.7-1.3,8
				l-3.7,4.7c-3.2,4.1-3.2,9.8,0,14l3.7,4.7c1.8,2.2,2.3,5.3,1.3,8l-2.1,5.6c-1.8,4.9,0,10.4,4.3,13.3l5,3.3
				c2.4,1.6,3.8,4.3,3.7,7.2l-0.2,6c-0.2,5.2,3.2,9.9,8.2,11.3l5.7,1.6c2.7,0.8,4.9,3,5.7,5.7l1.6,5.7c1.4,4.8,5.8,8.2,10.8,8.2
				c0.1,0,0.3,0,0.5,0l6-0.2c0.1,0,0.2,0,0.3,0c2.8,0,5.3,1.4,6.9,3.7l3.3,5c2.1,3.1,5.6,5,9.4,5c1.3,0,2.6-0.2,3.9-0.7l5.6-2.1
				c0.9-0.3,1.9-0.5,2.9-0.5c1.8,0,3.7,0.6,5.1,1.8l4.7,3.7c2,1.6,4.5,2.4,7,2.4s5-0.9,7-2.4l4.7-3.7c1.5-1.1,3.3-1.8,5.1-1.8
				c1,0,1.9,0.2,2.9,0.5l5.6,2.1c1.3,0.5,2.6,0.7,3.9,0.7c3.8,0,7.3-1.9,9.4-5l3.3-5c1.5-2.3,4.1-3.7,6.9-3.7c0.1,0,0.2,0,0.3,0
				l6,0.2c0.2,0,0.3,0,0.5,0c5,0,9.5-3.4,10.8-8.2l1.6-5.7c0.8-2.7,3-4.9,5.7-5.7l5.7-1.6c5-1.4,8.4-6.1,8.2-11.3l-0.2-6
				c-0.1-2.9,1.3-5.6,3.7-7.2l5-3.3c4.4-2.9,6.1-8.4,4.3-13.3l-2.1-5.6c-1-2.7-0.5-5.7,1.3-8l3.7-4.7c3.2-4.1,3.2-9.8,0-14l-3.7-4.7
				c-1.8-2.2-2.3-5.3-1.3-8l2.1-5.6c1.8-4.9,0-10.4-4.3-13.3l-5-3.3c-2.4-1.6-3.8-4.3-3.7-7.2l0.2-6c0.2-5.2-3.2-9.9-8.2-11.3
				l-5.7-1.6c-2.7-0.8-4.9-3-5.7-5.7l-1.6-5.7c-1.4-4.8-5.8-8.2-10.8-8.2c-0.1,0-0.3,0-0.4,0l-6,0.2c-0.1,0-0.2,0-0.3,0
				c-2.8,0-5.3-1.4-6.9-3.7l-3.3-5c-2.1-3.1-5.6-5-9.4-5c-1.3,0-2.6,0.2-3.9,0.7l-5.6,2.1c-0.9,0.3-1.9,0.5-2.9,0.5
				c-1.8,0-3.7-0.6-5.1-1.8l-4.7-3.7C-60.2,316.4-62.7,315.6-65.2,315.6L-65.2,315.6z"/>
		</g>
		<g>
			<path class="st2" d="M-65.2,334c48.1,0,87.1,39,87.1,87.1s-39,87.1-87.1,87.1s-87.1-39-87.1-87.1S-113.3,334-65.2,334 M-65.2,333
				c-48.6,0-88.1,39.5-88.1,88.1s39.5,88.1,88.1,88.1s88.1-39.5,88.1-88.1S-16.6,333-65.2,333L-65.2,333z"/>
		</g>
		<g>
			<circle class="st3" cx="-65.2" cy="421.1" r="91.8"/>
		</g>
		<circle class="st4" cx="-65.2" cy="421.1" r="86.3"/>
		<g id="Moon_1_">
			<path class="st2" d="M-83.5,380.2c20.8-1.9,24,28.8,3.3,30.8C-100.9,412.9-104.4,382.2-83.5,380.2z"/>
			<path class="st1" d="M-95.5,397.5c0.8,11.1,21.2,2.2,17.7-7.8C-82.3,377.2-95.6,388.4-95.5,397.5z"/>
			<path class="st1" d="M-87.1,401.3c5.6-0.5,0.3,2.3,0.5,4.4C-86.6,405.7-92.4,401.8-87.1,401.3z"/>
			<path class="st1" d="M-91.3,401.8c1.5,0.5,1.5,1.2,0.2,2C-92.5,403.3-92.6,402.6-91.3,401.8z"/>
			<path class="st1" d="M-90.6,404.5c1.5,0.5,1.5,1.2,0.2,2C-91.8,406-91.9,405.3-90.6,404.5z"/>
			<path class="st2" d="M-92.1,393.6c-5,0.5-3,7.3,1,7.9c-7.5-2.6,0.8-11.7,4.2-6.1C-88.4,393-89.8,393.3-92.1,393.6z"/>
			<path class="st2" d="M-92,386.9c-0.7,1.4-1.8,3.8,0.6,4.3c-3-1.4-0.4-5.2,2.2-3.9C-89.6,386.9-91.4,385.7-92,386.9z"/>
			<path class="st2" d="M-83.4,388.6c-0.1-1.5,0.5-2.7,2-3.4c-3.3,2-0.7,7.7,0.6,6.4C-82.4,391.1-83.2,390.1-83.4,388.6z"/>
			<path class="st1" d="M-66.8,396.5C-68.5,400.3-65.1,392.7-66.8,396.5C-67,396.9-66.6,396-66.8,396.5z"/>
			<path class="st1" d="M-69.1,391.2c-0.7,1.1-2.3,2.7-0.8,0.6"/>
			<path class="st1" d="M-82,385.1c1.1,0.1,4-1.3,4.7,0.7C-78.1,383.4-83,385.2-82,385.1z"/>
			<path class="st1" d="M-81.5,385.2c5-0.2,6,4.7,3.1,8.6C-77.9,393.2-81.1,386.4-81.5,385.2z"/>
			<path class="st2" d="M-91,406.2c0.1-0.5-0.7-1.6,0.8-1.4C-90.6,404.7-90.8,405.5-91,406.2z"/>
			<path class="st2" d="M-88,405.2c-0.3-1.5,0.6-7.6,2.6-3.5c-0.9-1.9-4,0.7-2.6,3.2"/>
			<path class="st2" d="M-91.7,403.5c0.1-0.4-0.8-1.6,0.8-1.4c0.1,0.2,0.2,0.3,0.2,0.5c-1.2-0.7-0.7,0.1-0.9,0.8"/>
			<path class="st1" d="M-76,398.8c4.6,1.6,7.2-2.4,3.4-5.5C-67.5,396.2-70.8,402-76,398.8z"/>
			<path class="st1" d="M-75.9,404c1.1-0.6,2.5,0,1.1-1.8C-72.9,404.5-74.8,403.4-75.9,404z"/>
			<path class="st1" d="M-69.8,392.7c0.9-0.8,3.2,0.2,1.3-2.2C-66.2,393.4-68.8,392-69.8,392.7z"/>
			<path class="st2" d="M-83.8,400.8c0,0,2.5-0.7,2.3-0.7C-82.5,399.1-83.3,399.3-83.8,400.8z"/>
			<path class="st1" d="M-83.9,400.8c0.6,2.2,2.6,0,2.4-0.5C-82.1,401.5-82.9,401.6-83.9,400.8C-83.7,401.4-83.4,401.2-83.9,400.8z"
				/>
		</g>
		<path class="st1" d="M-31,431.7l-1.7-8.2l-5.4-6l-3.6-9.5l-0.9,1.5l-0.9-0.4l-1.1,0.3l-1.1-0.4l-1.2,0.2l-1.1-1.3l-3,3.2l-4.9,6
			l-0.9,1.5l-0.6-1.8l-1.2-17.7l-2.6-1.4l-5.3-10.9l-1.3,4l-2.6-0.4l-2.3,3.3l-1,7.7l-2.1,5.9l-0.4,10.7l-1,4.4l-1-2.6l-1.3-7
			l-0.8-1.8l-4.4-2.6l-2.7-4.1l-0.8,5.6l-1.4,5.3l-2.7,1l-2,2.5l-2.3-0.1l-0.5,4.6l-1.5,4.8c5.3,12.2,16,2.2,30.2,2.2
			c14,0,25.8,8.1,31.2,0.8L-31,431.7z"/>
		<polygon class="st2" points="-87.3,406.6 -85.5,409.3 -81.3,411.5 -80.7,412.9 -79.5,420.4 -78,423.6 -76.8,424.8 -73.1,425.7 
			-69.1,428 -73.2,429.3 -81.5,428.7 -84.5,426.4 -82.6,423 -83.1,420.9 -85.8,418.8 -81.9,416.7 -83.9,414.4 -86.1,413.5 
			-86.3,411.3 		"/>
		<polygon class="st2" points="-70.7,392 -72.2,394.2 -73,402 -74.2,405.7 -70.4,401 -69.9,394.9 		"/>
		<g>
			<g>
				<defs>
					<path id="SVGID_1_" d="M-106.3,473.5c12.7-5,26.4-7.7,40.9-7.7s28.2,2.7,40.9,7.7C-9,461.3,1,442.4,1,421.1
						c0-36.7-29.7-66.4-66.4-66.4s-66.4,29.7-66.4,66.4C-131.8,442.4-121.8,461.3-106.3,473.5z"/>
				</defs>
				<clipPath id="SVGID_2_">
					<use xlink:href="#SVGID_1_"  style="overflow:visible;"/>
				</clipPath>
				<polygon class="st5" points="-0.9,443.1 -30.7,434.6 -58.2,430.9 -84.2,433.5 -103.1,435.6 -128.9,442.7 -129.4,462.2 -6,462.2 
									"/>
			</g>
			<g>
				<defs>
					<path id="SVGID_3_" d="M-106.3,473.5c12.7-5,26.4-7.7,40.9-7.7s28.2,2.7,40.9,7.7C-9,461.3,1,442.4,1,421.1
						c0-36.7-29.7-66.4-66.4-66.4s-66.4,29.7-66.4,66.4C-131.8,442.4-121.8,461.3-106.3,473.5z"/>
				</defs>
				<clipPath id="SVGID_4_">
					<use xlink:href="#SVGID_3_"  style="overflow:visible;"/>
				</clipPath>
				<path class="st6" d="M-150.8,470.2c0,0,0.6-0.3,1.7-0.9c1.1-0.6,2.8-1.5,4.9-2.5c1.1-0.5,2.2-1.1,3.5-1.7s2.8-1.2,4.3-1.8
					s3.2-1.3,4.9-2.1c1.7-0.7,3.6-1.3,5.6-2c2-0.7,5-1.4,7.1-2.1c2.1-0.6,4.4-1.2,6.6-1.8c1.1-0.3,2.3-0.6,3.5-0.9s2.4-0.5,3.6-0.8
					c2.4-0.5,4.9-1.1,7.5-1.5c5.1-0.8,10.4-1.7,15.8-2c5.4-0.6,10.9-0.6,16.4-0.8c5.5,0.2,11,0.2,16.4,0.8c5.4,0.3,10.7,1.3,15.8,2
					c2.5,0.5,5,1,7.5,1.5c1.2,0.3,2.4,0.5,3.6,0.8c1.2,0.3,2.3,0.6,3.5,0.9c2.3,0.6,4.5,1.2,6.6,1.8c2.1,0.7,4.1,1.4,6.1,2.1
					c1.9,0.7,2.8,1.3,4.6,2c1.7,0.7,3.4,1.4,4.9,2.1c1.5,0.7,3,1.2,4.3,1.8s2.5,1.2,3.6,1.8c2.1,1.1,3.8,1.9,4.9,2.5
					c1.1,0.6,1.7,0.9,1.7,0.9s-0.7-0.2-1.9-0.5c-1.2-0.4-3-0.9-5.3-1.6c-1.1-0.3-2.4-0.8-3.8-1.1c-1.4-0.3-2.9-0.8-4.5-1.2
					s-3.3-0.9-5.1-1.4s-2.7-0.9-4.7-1.3s-2,2.6-4.2,2.1c-2.1-0.4-7.9,37-10.2,36.5c-1.1-0.2-2.3-0.4-3.4-0.7
					c-1.2-0.2-2.4-0.3-3.6-0.5c-2.4-0.3-4.8-0.7-7.3-1.1c-5-0.5-10.1-1.2-15.4-1.4c-5.2-0.4-10.6-0.4-15.9-0.6
					c-5.3,0.1-10.7,0.1-15.9,0.6c-5.3,0.2-10.4,0.9-15.4,1.4c-2.5,0.3-4.9,0.8-7.3,1.1c-1.2,0.2-2.4,0.3-3.6,0.5
					c-1.2,0.2-2.3,0.4-3.4,0.7c-2.3,0.4-4.5,0.9-6.6,1.3s-2.6-40.4-4.6-39.9s-4.9,0.9-6.6,1.3c-1.8,0.5-3.5,0.9-5,1.4
					c-1.6,0.4-3.1,0.8-4.5,1.2s-2.6,0.8-3.8,1.2c-2.3,0.7-4.1,1.2-5.3,1.6C-150.2,470.1-150.8,470.2-150.8,470.2z"/>
			</g>
		</g>
		<path class="st7" d="M-118.1,430c0-0.6,0.6-0.7,0.7-1.1c0.6,0,5.4-1.1,5.4-1.1c-0.9,0.5-0.9,0.5-0.4-0.4c-1.3,0.9-4.1,0.2-5.3-0.5
			c-0.1-0.8,5.5-1.1,4.9-1c0-0.7-1.6,0.3-0.8-0.6c-1.5,0.4-2.4-0.6-2.8-1.1c3.8-0.5-0.6-2-1.5-2.7c0,0,7.7-0.7,7.6-1.5
			c-1.7,0.5-4-1.5-5.3-2.1c0.2-0.2,6.2-0.1,7.6-0.6c-0.2-0.8-5.8-1.2-7-1.5c1.1-0.4,0.9-0.7-0.3-0.9c2.2-0.2,4.3-0.5,6.5-0.7
			c-2.2-0.7-1.6-1.2,2-1.5c-1.8-0.2-5.4,1.4-7.1-1.1c2.1-0.2,4.5-1.8,5.7-2.1c-0.1-0.1-3.7-0.6-4.6-1.1c1-0.3,2.8,0.2,3.6-0.4
			c-1.3-0.1-2.2-0.9-3-1.6c0.8-1,3.4-0.2,4.7-0.6c-1.6-1.3-3.2-2-4.9-2.7c0.1-0.3,4-0.7,4-0.7c0.1-0.9-1.4-0.8-2-1.3
			c0.2-0.2,0.1-0.4-0.2-0.5c2-1,5.4,1,6.9-1.9c0,0-3.2,1-3.7,1c0.2-0.3,0.5-0.6,0.9-0.7c-2.7,0.7-1.2,0-1.6-0.5
			c-0.5,0.2-1,0.6-1.5,0.5c0.5-1.2-0.5-0.1-1.4-1c1.8-0.8,1.8-0.6,3.9,0.2c0.2-0.3-0.6-0.2-0.4-0.6c0.4,0.1,3.7,0.8,3.7,0.3
			c0.1-0.8-2.9,0.2-1.6-0.9c-0.8-0.1-1.5,0.2-2.4-0.2c0.3-0.3,0.6-0.4,1-0.4c-0.4-0.4-0.7-0.7-1.2-0.9c1.4-0.8-0.5,0.5,0-1.2
			c0.9,0.4,1.6,0.8,2.6,0.5c-0.9-1-0.8-1.2,0.3-0.6c0-0.8-1-1-1.2-2.3c0.9,0.4,2.4,0.4,2.3,1.4c-0.3-0.8-0.6-1.6-1-2.4
			c1.5,1.2,1.1,1.2,1.1-1c-0.6,0.1,2,1,1.9,1c-0.8,0.6-1.3,1.3-1.4,2.3c-1.3-0.6,3.2-1.4,2.6-1.2c0.6,1-0.4,0.9-1.6,1.3
			c2.7,0.6-0.1,1.5-0.2,0.7c-0.8,0.4-1,1.1-0.5,2c-0.1-0.6,3-1.9,3.8-2.1c-0.1,1.3-0.5,1.4,0.5,2.2c-0.2,0.2-1.8,0.6-1.8,0.9
			c0,0.3,1.2,0,1.3,0.4c-1.5,0.6-0.2,0.3-1.3,0.8c-0.4-0.7,4,1.6,3.5,1.2c-2.5,1.8-4.7-0.8-5.8-0.6c0.8,2.7,5.3,1.9,8.1,2.4
			c-0.6,1.5-3.5,0.3-2.1,1.5c-1.4,0.2-2.5-0.7-4-0.2c1.5,1.3,5.8,1,6.8,1c-0.7,0.9-1.2,0.7-2.2,0.6c1.4,2.2-4.7,0.7-4.8,1.2
			c3.5,1.6,5.2,1,8.1,1.7c-2.4,1.4-2.8,2.4-6.2,1.7c1.1,1.1,3,1.5,4.3,0.4c0.3,0.7,1,0,0,0.9c1-0.4,2-0.3,2.9,0.4
			c-1.2,0.7-3.7,1.1-2.4,1.7c-0.9,0.2-1.9,0-2.4,0.6c2.9,0.7,5.9,1.6,2.7,1.3c0.6,1.2,2.8,0.3,3.7,0.1c-1.3,1.9-1,2.1-3.9,2
			c4.8,2.4,2.5-0.4,5.8,0.7c-0.7,0.6-2.4,0.8-1.2,1.3c0,0-2.6,0.4-3,0.7c1.4,0.7,4.3,0.8,5.9,0.8c2.1,3.2-8.9,1.6-9.2,2.3
			c1.5,1.5,6.7,1.5,8.5,1.5c-1.6,1,3.9,0.6-1.4,0.7c2.9,1.2-0.2,0.3-2.1,0.9c1,1.2-3.4,0.4-4.7,0.3c2.5,2.4,8.5,0.6,8.9,1.6
			c-2.5,0.7-2.8,0.5-0.3,0.9c0.2-2.2-0.8,2.4-0.2,0.6c-3.4,0,0.5,0-1.6,0.5c1.3,0.5-1.6,0.8-1.8,1.2c0.5,0.2,3.8,0.7,3.8,0.8
			c-2.2,0.5,0.3,1.1-2.5,0.1c0.1-0.1,0.3,1,0.1,1.2c-1.1-0.4-1.8-0.1-2.7-0.8c-0.8,2.6-7.3-0.6-8.9-0.1c0,2.7,1.4,2-3,2
			c0.3-1.2,1.3-2.6-0.2-3c-0.7,3.3-10.1,2-8.9,0.9c-0.4,0.1-0.8,0.1-1.2,0c0.5-0.4,1.2-0.6,1.8-0.6c-0.7-0.5-3.1-0.1-3.6,0.1
			C-116.1,430-116.8,429.8-118.1,430C-118.1,430-117.5,429.9-118.1,430z M-114.1,423.9c1.1,0,2.1-0.1,3.2-0.1
			C-111,423.2-113.9,423.8-114.1,423.9C-112.9,424-113.8,423.7-114.1,423.9z M-105.3,402.5c-0.8-0.6-1.6,0.3-2.6-0.3
			C-108.1,403.5-105.7,402.7-105.3,402.5C-105.6,402.3-105.5,402.6-105.3,402.5z M-102.8,397.3c0.6-0.3,1.2-0.6,1.8-0.9
			C-101.3,396-103.2,396.7-102.8,397.3C-102.2,397-103,396.9-102.8,397.3z M-104.1,396.3c0-0.5-0.5-0.9-1.1-0.9
			C-105.1,395.8-104.4,395.9-104.1,396.3z M-104.1,395c0.2-0.6-0.1-1.1-0.7-1.3C-104.5,394.1-104.3,394.5-104.1,395z M-102.6,401.3
			C-102.4,401.3-102.6,398.8-102.6,401.3C-102.6,401.3-102.6,401-102.6,401.3z M-101.7,398c-0.3,0-0.6,0-1-0.1
			C-102.3,398.2-102,398.3-101.7,398z"/>
		<g>
			<path class="st7" d="M-127.9,427c0.4-0.6,1.9,1.8,2.9,0.7c-1.1,1.4-0.5-4-0.4-2.5c0-0.5-1.2,0.5-1.3,0c-0.2-1,0.8-0.9-0.2-2.2
				c1.1-0.1,3.8,1.2,4.8,0.3c-0.4,0.3-4.9-2.4-4.6-3c0.3,0.2,1.7,0.3,1.7-0.3c0-0.7-2.1-1.1-1.5-2c0.3-0.4,1.8,1.2,2,1
				c0.6-0.6-1.6-1.8-1.5-1.7c-0.4-1.4,3.8-0.8,3.9-1.6c0,0-2.1-0.6-2-1.4c0.1-0.7,3.1,1.3,3.2,0.1c0-0.1-1,0.2-0.7,0.2
				c0.8,0.1-2-2.4-2-1.9c0-0.4,3.5,0.5,3.9-0.2c0.5-0.8-0.9,0.3-0.5-1c-0.7,0.6-1.6-0.2-1.7-1.1c0,0.5,1-0.6,1.1-1.1
				c-0.7,0.3-1.4-0.3-1.2-1.3c-0.1-0.1,4.1,3.3,4.1,1.7c-0.8-0.5-2.6-0.2-2.5-1.4c0-0.4,2.2,0.3,2.6,0.4c-0.1-0.4-0.4-1.1-0.5-1.3
				c-0.3-1-2.2,0.7-2.6,0.2c-0.3-0.3,2.3-0.9,2.3-1.6c-0.5,0.4-1.8,0.2-2.3,0.1c0.1,0.3,1.2-1,1.3-1.4c3.3,0.9,0.7-0.5,0.9-1.6
				c0,0.2,1.9,0.9,2.3,0.8c-0.7-0.9-2.1-1.6-2.1-3c0.6,0.1,1.3,1.1,1.9,0.4c-0.3-0.4,0.4-3,0.1-2.9c0,0,1.8-0.8,2-0.8
				c0-0.5-1.5,2-1,1.9c0.7-0.2,1.2-0.8,1.9-1c-0.2,0.1-1.5,2.3-1.8,2.8c-0.1,0.2,2.6-1.1,2.6-1.1c0.1,0.8-1.2,1-1.2,1.7
				c0,0.3,1.2-0.3,1.4-0.3c0.1,0.7-2.3,1.7-2.3,2.2c-0.1,0.4,2.3-0.5,2.6-0.6c-0.1,0.2-2.1,2.4-1.9,2.4c0.7-0.1,2.7-1.7,3-1.2
				c0.5,0.7-2.3,3.1-2.9,2.9c0.1,1,3-1.7,3.1-1.8c0.6,0.4-1.3,2,0,2.1c-0.1,0.2-2.2,1.1-2,1.3c1.3,1.1,3.2-1.3,3.5-1.1
				c1,0.8-1.2,2.2-1.1,3.1c0,0.2,1.4,0,1.5,0c-0.3,0.7-2.1,0.1-2.5,0.5c2.2,0.8-1.9,2.3,4.2,0.7c0.3,0.6-3,3.6-2.6,4.1
				c0.1,0.1,3.9-2,4-1.7c0.1,1-2.3,2.8-3.3,3.6c0.5,0.1,3.6-1.1,3.6-1.2c0.7,1-2,2.3-1.8,3.6c0.1,0.6,2.8-2.3,3.2-1.9
				c1.9,2.2-3,4.1-3,4.5c0.2,1.1,2.6-1.3,2.9-1.6c-0.3,2.8-1.3,2-2.2,3.1c-0.5,0.6,2.1,0.3,2.5,0c0.8,2.3-3.8,2.2-3.9,2.8
				c0.6,0.5,3.7,0,4.2-0.2c0,2.7-5.3,3.6-6.9,4c-0.2,0.1,0.9,0.6,1.1,0.6c-0.4,0-1.2-0.2-1.5,0c0.2,0.2,0.4,0.2,0.7,0.2
				c-0.7,0.5-1.2-0.4-1.7-0.6c0,0.1-0.2,0.5-0.2,0.5c0.3,0.2,0.7,0.2,1,0.4c-0.8,1.1-1.5-0.5-1.9-0.9c-0.3,0.4-3.5,5.8-1.2,5.5
				c-0.4,0.1-0.7,0.1-1.1,0c0.1-8.2-3.1-1.6-5.7-5.3c-0.1,0.4-2.1,1.1-2.2,0.4c-0.1-0.4,3.2-0.8,3.1-1.1c-1-0.4-5,0.5-5.9-0.5
				c0.6-0.4,1.1,0.3,1.5-0.6c-0.1,0.4-1.9-0.7-2.9-1C-127.9,428.7-127.9,427.5-127.9,427C-127.8,426.8-127.9,427.1-127.9,427z
				 M-120.9,416.7c-0.8,0.8-3.8-0.8-4-0.3c-0.4,1,3.8,1.5,4.3,1.5c0.1-0.4-0.6-0.3,0.2-0.3C-121.6,416.1-120.3,418.4-120.9,416.7
				C-120.9,416.8-120.8,416.9-120.9,416.7z M-120.7,427.7c-0.1,0-3.9,0.4-3.7,0.6C-122,430.3-120.9,428.4-120.7,427.7
				C-120.7,427.7-120.7,427.8-120.7,427.7z M-125.1,420.6c-1.4,0.3,2.3,1.1,2.7,0.8C-122,421.1-125.1,420.6-125.1,420.6
				C-125.2,420.6-124.8,420.6-125.1,420.6z M-120.6,431.8c0.7,0.3,1.4,0.4,2.2,0.2c-0.2-0.2-0.2-0.3-0.1-0.6
				C-119.6,431.4-119.8,431.6-120.6,431.8C-120.3,432.1-120.6,431.8-120.6,431.8z M-123.7,425.7c-0.2-0.1-2.3,0.3-2.3,0.3
				C-125.7,425.7-124.4,426.5-123.7,425.7C-123.8,425.6-123.7,425.7-123.7,425.7z M-105.6,420.7C-103.1,420.3-108,420.3-105.6,420.7
				C-105.4,420.7-105.8,420.7-105.6,420.7z M-106.4,425.4C-106.8,423.9-109.1,427.4-106.4,425.4L-106.4,425.4z M-119.9,413.1
				C-119.9,414.2-119.9,411.9-119.9,413.1C-119.9,413.3-119.9,412.9-119.9,413.1z M-111.6,409.2
				C-112.8,409.1-113.9,410.7-111.6,409.2C-111.9,409.2-112,409.5-111.6,409.2z M-120.5,410.9C-118.9,410.3-121.3,410.7-120.5,410.9
				C-120.4,410.8-120.6,410.9-120.5,410.9z M-117.4,404.9C-117.4,405.6-115.3,404.6-117.4,404.9
				C-117.4,404.9-117.3,404.9-117.4,404.9z M-123.9,429.2C-124.9,429.5-124.1,430.5-123.9,429.2C-124,429.2-123.9,429.2-123.9,429.2
				z M-109,427.5C-109.9,427.5-108.1,427.5-109,427.5C-109.2,427.5-108.9,427.5-109,427.5z M-121.2,415.4
				C-122.2,415.2-121.9,416-121.2,415.4C-121.4,415.3-121.4,415.5-121.2,415.4z M-119.5,411.1C-118.7,411.2-120.3,411.1-119.5,411.1
				C-119.4,411.1-119.7,411.1-119.5,411.1z M-123.9,426.3C-123,427.2-120.7,425.9-123.9,426.3C-123.8,426.5-123.7,426.3-123.9,426.3
				z M-119,428.6C-118.1,428.4-119.7,428.2-119,428.6C-118.9,428.6-119.1,428.5-119,428.6z M-124.1,427.5
				C-125.2,426.8-124.6,427.8-124.1,427.5C-124.3,427.3-124.3,427.6-124.1,427.5z M-114.4,407.5
				C-115.2,407.5-113.6,407.6-114.4,407.5C-114.5,407.5-114.4,407.5-114.4,407.5z M-110.5,415.7
				C-110.5,415.1-110.5,416.3-110.5,415.7C-110.5,415.6-110.5,415.8-110.5,415.7z M-118.4,411C-119.3,411-118,411-118.4,411
				C-118.5,411-118.3,411-118.4,411z M-116.2,428c-0.1,0-0.4,0.1-0.4,0.2C-116.5,428.3-116.3,428.2-116.2,428z M-124.5,424.7
				c-0.1,0-0.4,0.1-0.4,0.2C-124.8,425-124.6,424.9-124.5,424.7z M-118.5,413.1C-118,412.4-119.3,413.1-118.5,413.1
				C-118.5,413-118.7,413.1-118.5,413.1z M-111.4,411.9C-111.3,411-111.9,412.5-111.4,411.9C-111.4,411.8-111.4,411.9-111.4,411.9z
				 M-123.9,422.2C-123.9,423.1-123.6,421.7-123.9,422.2C-123.9,422.3-123.9,422.2-123.9,422.2z M-108.9,427.1
				C-109,428-108.4,426.6-108.9,427.1C-108.9,427.3-108.9,427.1-108.9,427.1z M-121.8,426.5C-120.9,426.4-122.4,426.2-121.8,426.5
				C-121.7,426.5-121.8,426.5-121.8,426.5z M-121.8,420c0.1,0.1,0.3,0.1,0.4,0C-121.6,419.9-121.7,419.9-121.8,420z"/>
			<path class="st7" d="M-116.3,397.2c1.2,0.3-1.5-0.6,1.2-0.2C-115.5,397.6-116.5,397.6-116.3,397.2
				C-116.2,397.2-116.3,397.2-116.3,397.2z"/>
			<path class="st7" d="M-124.4,432.1c0.1-0.1,0.3-0.1,0.4,0C-124.1,432.2-124.3,432.2-124.4,432.1z"/>
		</g>
		<path class="st7" d="M-123.1,440.4c0-1.3-3-0.3-2.6-2.2c-0.4,0.3-1.1,1.4-1.4,1.8c-0.1-2.1-3.5-0.6-2.3-3.6
			c-1.7,0.3-4.2-4.7-3.9-5.9c1.6,0.2,0.1,0,0.3-1.3c0.7,0.2,1,0.7,0.9,1.3c1.6-2.4,0.4,0.4,1.5-0.2c-0.3-0.8,0.6-2.3,0.6-2.1
			c-1.2-1.8,0-1.7-0.4-2.6c-0.4,0.4-0.7,0.3-0.9-0.3c1.2,0,0.3-1.3,0.6-2.9c0.8,2.7,0,0.9,1.5,0.7c-0.7-0.4-0.7-0.9,0.1-1.5
			c0.3,0.9,1.3,1.2,2,0.2c-0.9-0.5-1.4-1.8-0.3-2.9c0.2,0.7,1,0.6,1.6-0.3c-1.2,0-1.4-0.7-0.1-0.6c-0.1-0.2-1.2-1.9-1.2-1.9
			c1.4,0.9,1.1-1.1,1.2-2.9c0.9-0.2,0.6,2.8,0.9-1.5c0.3-0.1,0.1,0.8,0.8,0.7c-1.1-1.3,0.1-2.9,1.1-4.2c0.9-1.3,3.7,8.8,3.5,8.6
			c0.7-0.7,0.4,0.6,1.1-1.1c0.6,0.9,0.5,1.2-0.1,2.3c1.5-0.5-0.2,0.7,0.1,1.7c2.2-3.5,0.9,0.9,0.6,1.1c2.1,0.8,1.3,1.6,0.9,3.5
			c1,0.7,1.3,0.3,0.9-1.3c0.6,0.3,1.1,3.6,1.9,1.3c0.1,1.2-0.6,2.2,0.6,1.7c-1.3,2.6-0.2,1.2,0.7,2.1c-0.9,3.3-2.4,2.4-3.4,4.9
			c0.8,0.4,2.5,0.2,3.1-0.5c0.1,1.4-2.2,2.3-2.4,1.8c-0.8,1.4,2.8,0.7,3.3,0.1c-0.3,1.7-2.6,1.9-2.2,4.2c-1.7-0.8-7.9-0.4-7.9,2"/>
		<polygon class="st2" points="-31.6,433 -34.1,423.8 -38.6,418.2 -41.6,410 -42.2,413.8 -43.2,413.9 -43.2,418.4 -39.5,422.7 
			-37.2,432 		"/>
		<polygon class="st2" points="-39.1,430.4 -40.8,422.7 -43.9,419 -44.1,418.3 -43.9,413.1 -42.8,412.8 -42.4,410.8 -43.4,409.9 
			-45.5,410 -46.5,413.1 -45.9,414.6 -47.6,421.7 -48.2,428.4 -50.6,427.8 -46.9,414.2 -47.4,412.9 -46.5,409.9 -47.8,409.4 
			-50.2,413.4 -49.5,417.4 -52.6,419 -52.8,425.7 -56,423.6 -53.6,418.8 -50.2,416.9 -51.1,413.6 -49.5,410.4 -52.4,413.5 
			-54.8,416.5 -56.2,418.5 -57.9,421.7 -52.8,425.7 -47.8,429.2 -41.5,430 -41.6,429.7 		"/>
		<path class="st2" d="M-34.4,387.7c-0.5-1.2-1.6-2-2.9-2.2c-1.3-0.1-2.4,0.5-3.1,1.3c-0.4-0.1-0.8-0.1-1.2-0.1
			c-0.1,0-0.2,0.1-0.4,0.1c-0.4-0.5-0.9-0.9-1.5-1.2c-0.7-0.6-1.6-0.9-2.6-0.8c-1.8,0.2-3.2,1.8-3.1,3.6c-0.9,0.7-1.5,1.9-1.4,3.1
			c0,0.1,0,0.2,0.1,0.3c-0.5,0.6-0.7,1.4-0.6,2.3c0.1,0.9,0.5,1.6,1.1,2.1c-0.1,0.2-0.1,0.5-0.1,0.8c0.1,0.6,0.4,1.2,1,1.5
			c-0.2,0.4-0.4,0.8-0.3,1.2c0.1,1,1,1.8,2,1.7c0.1,0.1,0.1,0.2,0.2,0.2c-0.3,0.4-0.4,0.9-0.4,1.4c0.1,0.7,0.5,1.3,1.1,1.5
			c-0.3,0.4-0.5,0.9-0.4,1.4c0.1,1.1,1.1,1.8,2.1,1.7c0.7-0.1,1.3-0.6,1.6-1.2c0.2,0,0.4,0.1,0.6,0c1.1-0.1,1.8-1.1,1.7-2.1
			c-0.1-0.5-0.3-0.9-0.6-1.2c0.4-0.3,0.6-0.8,0.7-1.3c0.3,0.1,0.7,0.2,1,0.2c1.1-0.1,1.8-1.1,1.7-2.1c0-0.2-0.1-0.4-0.2-0.6
			c1.3-0.5,2.2-1.9,2-3.4c0-0.1,0-0.1,0-0.2c1.6-0.5,2.7-2,2.5-3.7c-0.1-0.6-0.3-1.2-0.6-1.6C-34.1,389.8-34,388.8-34.4,387.7z"/>
		<polygon class="st8" points="-49.5,410.4 -47.7,408.7 -47.5,408.7 -47.5,409 -47,409.2 -45.7,409 -44.6,409.3 -43.5,409 
			-42.7,409.4 -42,408.7 -41.7,409.3 -42.3,410 -43.5,409.4 -44.7,409.7 -45.9,409.4 -47,409.5 -47.8,409.4 -50.8,412.4 		"/>
		<polyline class="st2" points="-66.3,390.3 -62.3,398.6 -59.9,399.8 -58.5,417.6 -57.3,420.6 -44.3,431.1 -57.9,429.8 -65.6,429 
			-65,423.8 -68.5,420.6 -65.7,417 -65.3,412.7 -67.8,412.4 -69.4,414.2 -68.3,408.6 -65.8,407.2 -65.4,402.2 -65.5,399.8 
			-68,396.7 -66.6,391.7 		"/>
		<path id="Diver2_1_" class="st2" d="M-77.2,437.7c0.1-0.2,0-0.4-0.1-0.5c-0.3-0.2-0.6-0.2-0.9,0c0,0-0.1,0.1-0.1,0
			c-0.1-0.1-0.2-0.2-0.2-0.3s-0.1-0.1-0.2,0s-0.1,0-0.2,0v-0.1c0-0.1-0.1-0.1-0.2-0.1s-0.1,0.1-0.1,0.1c0,0.1-0.1,0.2-0.2,0.2
			c-0.3,0-0.5,0-0.7,0.2c-0.6,0.4-1.2,0.9-1.8,1.4c-0.2,0.1-0.3,0.2-0.5,0.4c-0.1,0.1-0.2,0.2-0.1,0.3c0.1,0.2,0.3,0.4,0.4,0.6
			c0.1,0.1,0.2,0.1,0.2,0c0.1-0.1,0.3-0.2,0.4-0.3c0.3-0.2,0.5-0.4,0.8-0.5c0,0.1-0.1,0.1-0.1,0.2c-0.1,0.2-0.1,0.2,0,0.3
			c0,0,0,0,0.1,0c0.1,0.1,0,0.1,0,0.1c-0.1,0.1-0.2,0.1-0.3,0.1c-0.2,0-0.3,0.1-0.4,0.2s-0.1,0.1-0.2,0.2c-0.1,0.1-0.2,0.2-0.2,0.3
			s0,0.1-0.1,0.1c-0.3,0.2-0.7,0.5-1,0.7c-0.1,0.1-0.1,0.1-0.2,0c-0.1-0.3-0.4-0.4-0.6-0.5c-0.4-0.2-0.7-0.4-1-0.8
			c-0.1-0.1-0.2-0.2-0.4-0.2c-0.3,0-0.6,0.1-0.9,0.3c-0.1,0.1-0.2,0.1-0.4,0.1c-0.1,0-0.3,0-0.4,0s-0.1,0-0.2,0s-0.2,0.1-0.2,0.2
			c0,0.1,0.1,0.1,0.2,0.2c0.1,0,0.3,0,0.4,0c0.4,0,0.9,0,1.3-0.1c0.2,0,0.3,0,0.4,0.1s0.2,0.1,0.2,0.2c0.4,0.4,0.7,0.9,1.1,1.2
			c0.1,0,0,0.1,0,0.1c-0.1,0.1-0.2,0.1-0.3,0.2c-0.3,0.3-0.7,0.5-1.1,0.4c-0.1,0-0.2,0-0.3,0.2c0,0.1-0.1,0.2-0.1,0.2
			c-0.1,0.3,0,0.6,0,1c0,0.1,0,0.3,0,0.4c-0.1,0.4-0.2,0.7-0.3,1.1c-0.1,0.1,0,0.3,0,0.4c0.1,0,0.1,0,0.2,0.1
			c0.1-0.2,0.2-0.3,0.3-0.5c0.2-0.4,0.3-0.9,0.3-1.4c0.1-0.5,0.2-0.9,0.7-1.2c0.5-0.3,0.9-0.5,1.4-0.6c0.1,0,0.2-0.1,0.3-0.1
			c0.4-0.3,0.8-0.6,1.1-1c0.2-0.3,0.5-0.4,0.7-0.6c0.1,0,0.1-0.1,0.2-0.1c0-0.1,0.1-0.1,0.2-0.1s0.1,0,0.1,0.1h0.1
			c0.1-0.2,0.2-0.2,0.4,0c0.2,0.2,0.4,0.5,0.5,0.8c0.1,0.2,0.2,0.2,0.4,0.2c0.1,0,0.1-0.1,0.2,0c0-0.1,0.1-0.1,0.1-0.2
			c-0.1-0.3-0.3-0.5-0.5-0.7c0.1,0,0.2,0,0.3-0.1c0.1-0.1,0.1-0.2,0-0.4c-0.1-0.1-0.1-0.2,0-0.3c0-0.1,0.1,0,0.2,0
			c0.2,0,0.4-0.1,0.6-0.1c0-0.1,0.1-0.3,0.1-0.4c-0.1-0.2-0.2-0.2-0.3-0.1c-0.1,0-0.2,0.1-0.4,0.2c-0.1,0.1-0.2,0.1-0.2-0.1
			c0-0.1,0-0.1,0-0.1c0-0.1,0.1-0.2,0.1-0.4c0-0.1,0-0.1,0-0.2s0.1-0.1,0.1,0c0,0,0.1,0.1,0,0.2c0,0.1-0.1,0.2,0.1,0.2
			c0.1,0,0.1,0.1,0.3,0.1c0.1,0,0.2-0.1,0.2-0.2c0-0.1,0-0.2-0.1-0.2c-0.1-0.1-0.1-0.1,0-0.2c0.1,0,0.2,0,0.3-0.1
			c0.1,0,0.2-0.1,0.1-0.2C-77.3,437.9-77.2,437.8-77.2,437.7z M-78.8,440.1c0,0.1-0.1,0.2,0,0.3c-0.1-0.1-0.2-0.2-0.3-0.4
			c0-0.1,0-0.1,0.1-0.1C-78.8,439.8-78.7,439.9-78.8,440.1z"/>
		<path id="Diver1_1_" class="st2" d="M-67.5,438.4C-67.6,438.4-67.6,438.3-67.5,438.4c0-0.2-0.1-0.2-0.2-0.2s-0.2,0-0.3,0
			c-0.1,0-0.1,0-0.2,0c-0.2,0.1-0.3,0.3-0.4,0.5c-0.1,0.2-0.2,0.3-0.4,0.4c-0.1,0-0.1,0-0.1-0.1c0-0.2-0.1-0.3-0.2-0.4
			c-0.1,0-0.1-0.1-0.2-0.1c0,0-0.1,0,0,0s0.1-0.1,0.2-0.2c0.1,0,0.2-0.1,0.2-0.3c0-0.1,0-0.1-0.2-0.2c-0.1,0-0.1-0.1-0.1-0.2
			c0.1-0.1,0-0.2-0.1-0.3l-0.1-0.1c-0.2-0.3-0.6-0.3-0.9-0.1c-0.1,0.1-0.2,0.2-0.2,0.3s-0.1,0.3-0.1,0.4c0,0.1,0,0.1-0.1,0.1
			c-0.2,0-0.4,0-0.5,0.1s-0.3,0.1-0.4,0.3c0,0,0,0.1-0.1,0.1c0,0-0.1,0-0.1-0.1c0,0,0,0,0-0.1s-0.1-0.2-0.2-0.2s-0.2,0-0.2,0.1
			s-0.1,0.1-0.1,0.2c0,0,0,0-0.1,0.1c-0.1,0.2-0.2,0.3-0.2,0.5c-0.2,1-0.4,1.9-0.7,2.9c0,0.1,0,0.2,0.1,0.3c0.3,0.2,0.6,0.2,0.9,0.2
			c0.1,0,0.1,0,0.1-0.1s0.1-0.3,0.1-0.4c0.1-0.2,0.1-0.5,0.2-0.8c0,0.1,0,0.1,0,0.2s0.1,0.1,0.1,0.1c0.1,0.1,0.2,0.2,0.1,0.4
			c0,0,0,0,0,0.1c-0.1,0.3-0.1,0.6,0,0.9c0.1,0.2,0.1,0.4,0.1,0.6c0,0.1,0,0.1-0.1,0.1c-0.2,0-0.3-0.1-0.4-0.2s-0.2-0.1-0.3,0
			c-0.1,0-0.2,0.1-0.2,0.2c0,0,0,0.1-0.1,0.1s-0.3-0.2-0.3-0.3c0-0.2-0.1-0.2-0.3-0.2c-0.1,0-0.2,0.1-0.3,0.1
			c-0.3,0.1-0.5,0.2-0.8,0.3c-0.5,0.1-1,0.2-1.5,0.3c-0.1,0-0.3,0.1-0.4,0.2c-0.1,0-0.1,0.1-0.1,0.2s0.1,0.1,0.1,0.2
			c0.1,0.2,0.3,0.3,0.5,0.3s0.4-0.1,0.5-0.1c0.4-0.1,0.8-0.2,1.2-0.5c0.3-0.2,0.6-0.2,0.9-0.1c0.1,0.1,0.1,0.1,0,0.1l-0.1,0.1
			c-0.4,0.3-0.8,0.7-1.1,1.1c-0.1,0.1-0.1,0.1-0.1,0.2c0,0.2,0,0.4,0.2,0.6c0.1,0,0.1,0,0.1,0c0.1-0.2,0.3-0.3,0.4-0.4
			c0.4-0.3,0.7-0.6,0.9-1.1c0-0.1,0.1-0.1,0.1-0.2h0.1c0.1,0.1,0.2,0.2,0.3,0.2c0.1,0.1,0.3,0.2,0.4,0.3s0.2,0.1,0.3,0.2
			c0.1,0,0.2,0.1,0.3,0.1c0.2,0,0.3-0.1,0.4-0.4c0-0.1,0.1-0.3,0.1-0.4s0-0.1,0.1-0.1s0.3,0.1,0.4,0.1c0.2,0.1,0.4,0,0.5,0
			c0,0,0.1,0,0.1-0.1c0.1-0.1,0.2-0.3,0.1-0.5c-0.1-0.4-0.2-0.9-0.5-1.3c-0.1-0.1-0.1-0.2-0.1-0.3s0.1-0.3,0-0.4l0,0l0.1-0.1
			c0,0,0.1,0,0.1,0.1s0.1,0.1,0.2,0.1s0.2-0.1,0.2-0.3v-0.1c0.1-0.1,0.1-0.2,0-0.4c0.2,0.2,0.4,0.3,0.6,0.4c0,0,0.1,0,0.1,0.1
			s0.1,0.1,0.1,0.1c0.1,0,0.1,0.1,0.2,0.1c0.1,0.1,0.2,0,0.4,0l0.1-0.1c0-0.1,0-0.3-0.1-0.4c0,0,0,0,0-0.1s0-0.1-0.1-0.1
			c-0.1-0.1-0.3-0.2-0.5-0.1l0,0c-0.1-0.1-0.3-0.1-0.4-0.2s-0.1-0.1-0.2-0.2v-0.1c0-0.1,0-0.3,0-0.4c0-0.1,0-0.1,0.1-0.1
			s0.1-0.1,0.2-0.1c0-0.1,0.1-0.1,0.1-0.2c0.1-0.1,0.1-0.1,0.2-0.2c0.2-0.1,0.3-0.3,0.4-0.4c0-0.1,0.1-0.1,0.2-0.1s0.2,0,0.3,0
			c0.1,0,0.1,0,0.1-0.1s0-0.1,0.1-0.1c0,0,0,0,0.1,0C-67.5,438.6-67.5,438.5-67.5,438.4L-67.5,438.4z M-71.6,443.8
			c0,0-0.1-0.1-0.2-0.1C-71.7,443.7-71.7,443.7-71.6,443.8C-71.6,443.7-71.5,443.7-71.6,443.8L-71.6,443.8z M-69.6,441.3
			C-69.6,441.3-69.7,441.3-69.6,441.3c-0.1-0.1-0.1-0.2,0-0.2S-69.5,441.2-69.6,441.3C-69.5,441.3-69.5,441.3-69.6,441.3z"/>
		<g id="Tentacles_Left_1_">
			<g>
				<g>
					<g>
						<path class="st2" d="M-112.1,451.1c0,0,0.2-0.1,0.5,0c0.3,0,0.7,0.2,1.1,0.5c0.4,0.3,0.8,0.8,0.8,0.8l-0.1,0.1
							c0,0-0.6-0.4-0.9-0.7c-0.3-0.3-0.6-0.5-0.9-0.6C-111.9,451.2-112.1,451.1-112.1,451.1z"/>
					</g>
				</g>
			</g>
			<g>
				<g>
					<g>
						<path class="st2" d="M-112.6,449.8c0,0,0.3,0,0.6,0.2c0.3,0.2,0.7,0.5,1.2,0.7c0.5,0.2,1.4,0.5,1.4,0.5l-0.1,0.2
							c0,0-0.9-0.1-1.5-0.3c-0.6-0.2-1-0.7-1.2-1C-112.4,450-112.6,449.8-112.6,449.8z"/>
					</g>
				</g>
			</g>
			<g>
				<g>
					<g>
						<path class="st2" d="M-112.3,448.2c0,0,0.3,0,0.8,0.3c0.2,0.2,0.5,0.4,0.7,0.7c0.2,0.3,0.3,0.6,0.6,0.8c0.2,0.2,0.6,0.5,1,0.6
							c0.4,0.2,0.7,0.3,0.7,0.3l-0.1,0.3c0,0-0.3,0-0.7-0.1c-0.4-0.1-1-0.3-1.3-0.6c-0.4-0.3-0.5-0.8-0.6-1.1
							c-0.1-0.3-0.2-0.5-0.4-0.7C-112,448.4-112.3,448.2-112.3,448.2z"/>
					</g>
				</g>
			</g>
			<g>
				<g>
					<g>
						<path class="st2" d="M-108.9,447.7c0,0,0.1,0,0.1,0.1c0.1,0.1,0.1,0.3,0.1,0.5c0,0.4,0,0.8,0.2,1.3c0.1,0.2,0.3,0.5,0.4,0.7
							c0.2,0.2,0.3,0.4,0.3,0.4l-0.2,0.2c0,0-0.2-0.1-0.4-0.3c-0.2-0.2-0.4-0.5-0.6-0.8c-0.3-0.6-0.2-1.2,0-1.5
							C-108.8,447.9-108.9,447.7-108.9,447.7z"/>
					</g>
				</g>
			</g>
			<g>
				<g>
					<g>
						<path class="st2" d="M-107.8,447.9c0,0,0,0.1,0.1,0.2c0.1,0.1,0.1,0.3,0.1,0.5c0,0.2-0.1,0.5-0.3,0.8
							c-0.2,0.3-0.3,0.4-0.3,0.6c0,0.2,0.2,0.6,0.4,0.8c0.2,0.2,0.4,0.4,0.4,0.4l-0.1,0.2c0,0-0.3-0.1-0.6-0.3
							c-0.3-0.2-0.6-0.6-0.6-1c0-0.2,0-0.5,0.2-0.6c0.1-0.2,0.2-0.3,0.3-0.4c0.2-0.2,0.3-0.4,0.4-0.5
							C-107.8,448.2-107.8,447.9-107.8,447.9z"/>
					</g>
				</g>
			</g>
			<g>
				<g>
					<g>
						<path class="st2" d="M-105.9,449.2c0,0-0.1,0.2-0.4,0.4c-0.3,0.2-0.8,0.3-0.9,0.7c0,0.2,0,0.4,0.2,0.5s0.3,0.1,0.3,0.1v0.2
							c0,0-0.2,0.1-0.5,0s-0.5-0.6-0.4-0.9c0.1-0.3,0.4-0.6,0.6-0.6c0.2-0.1,0.4-0.1,0.6-0.1C-106.1,449.4-105.9,449.2-105.9,449.2z
							"/>
					</g>
				</g>
			</g>
			<g>
				<g>
					<g>
						<path class="st2" d="M-107.9,448.4c0,0,0,0.2,0.1,0.5c0.1,0.3,0.3,0.7,0.6,1c0.3,0.4,1,0.6,1,0.6v0.2c0,0-0.2,0-0.5-0.1
							s-0.6-0.2-0.8-0.5c-0.4-0.4-0.6-1-0.5-1.3C-108,448.6-107.9,448.4-107.9,448.4z"/>
					</g>
				</g>
			</g>
			<g>
				<g>
					<g>
						<path class="st2" d="M-106.1,449c0,0-0.1,0.7,0,1.4c0,0.2,0.1,0.4,0.2,0.5s0.2,0.2,0.2,0.2v0.2c0,0-0.2,0-0.4-0.2
							c-0.2-0.2-0.3-0.5-0.3-0.7c0-0.4,0.1-0.8,0.2-1.1C-106.2,449.1-106.1,449-106.1,449z"/>
					</g>
				</g>
			</g>
		</g>
		<g id="Tentacles_Mid_1_">
			<g>
				<g>
					<g>
						<path class="st2" d="M-103.4,448.4c0,0-0.2,0.5-0.2,1.1c0,0.1,0,0.3,0.1,0.5c0,0.1,0.1,0.2,0.1,0.2l-0.1,0.1
							c0,0-0.1-0.1-0.2-0.3c-0.1-0.2-0.1-0.4-0.1-0.6C-103.9,448.7-103.4,448.3-103.4,448.4z"/>
					</g>
				</g>
			</g>
			<g>
				<g>
					<g>
						<path class="st2" d="M-103.4,449c0,0-0.1,0-0.1,0.1s0.1,0.2,0.1,0.4c0,0.2,0.1,0.4,0.1,0.4h-0.1c0,0-0.1-0.2-0.1-0.4
							c0-0.2-0.1-0.3,0-0.4C-103.5,449-103.4,449-103.4,449z"/>
					</g>
				</g>
			</g>
			<g>
				<g>
					<g>
						<path class="st2" d="M-102.9,449c0,0-0.1,0.3-0.2,0.6c0,0.2,0.1,0.4,0.1,0.3v0.1c0,0-0.1,0-0.1-0.1c-0.1-0.1-0.1-0.2-0.1-0.3
							c0-0.2,0.1-0.3,0.2-0.4C-103,449.1-102.9,449-102.9,449z"/>
					</g>
				</g>
			</g>
			<g>
				<g>
					<g>
						<path class="st2" d="M-102.9,448.5c0,0,0.1,0.1,0.2,0.3c0.1,0.2,0.2,0.4,0.3,0.7c0.1,0.3,0.1,0.7,0.1,0.7h-0.1
							c0,0-0.2-0.4-0.2-0.7c-0.1-0.3-0.1-0.5-0.1-0.7C-102.9,448.6-102.9,448.5-102.9,448.5z"/>
					</g>
				</g>
			</g>
			<g>
				<g>
					<g>
						<path class="st2" d="M-101.9,449.3c0,0-0.2,0.2-0.2,0.6c0,0.2,0,0.4,0,0.4h-0.1c0,0-0.1-0.3-0.1-0.4
							C-102.2,449.5-101.9,449.3-101.9,449.3z"/>
					</g>
				</g>
			</g>
			<g>
				<g>
					<g>
						<path class="st2" d="M-101.5,448.5c0,0,0.1,0.2-0.2,0.4c-0.2,0.2-0.7,0.2-0.9,0.5c-0.1,0.1-0.2,0.3-0.3,0.5
							c0,0.2,0.1,0.2,0.1,0.2l-0.1,0.1c0,0-0.2-0.1-0.2-0.4c0-0.3,0.1-0.5,0.3-0.7c0.4-0.3,0.8-0.2,1-0.3
							C-101.5,448.7-101.5,448.5-101.5,448.5z"/>
					</g>
				</g>
			</g>
		</g>
		<g id="Tentacles_Right_1_">
			<g>
				<g>
					<g>
						<path class="st2" d="M-51.3,439.6c0,0,0.2,0.5,0.3,1.3c0.1,0.4,0.1,0.9,0,1.5s-0.2,1.2-0.3,1.8s-0.1,1.3,0.2,1.8
							s0.6,0.9,0.6,0.9l-0.3,0.3c0,0-0.4-0.3-0.8-0.9c-0.2-0.3-0.4-0.7-0.5-1.1c-0.1-0.4-0.1-0.8,0-1.1c0.1-0.7,0.3-1.2,0.4-1.7
							c0.1-0.5,0.2-1,0.2-1.4C-51.3,440.1-51.3,439.6-51.3,439.6z"/>
					</g>
				</g>
			</g>
			<g>
				<g>
					<g>
						<path class="st2" d="M-49.7,443.6c0,0-0.2,0.8-0.2,1.7c0,0.2,0,0.5,0,0.8c0,0.1,0,0.2,0,0.3l0,0l-0.1,0.1c0,0-0.1,0-0.1-0.1
							s0-0.2-0.1-0.3c0-0.2,0-0.6,0-0.8c0-0.5,0.2-0.9,0.3-1.2C-49.8,443.8-49.7,443.6-49.7,443.6z"/>
					</g>
				</g>
			</g>
			<g>
				<g>
					<g>
						<path class="st2" d="M-48.8,439.6c0,0,0.1,0.1,0.2,0.3c0.1,0.2,0.3,0.5,0.4,0.9c0.2,0.9,0,2.1-0.3,3.3c-0.2,0.6-0.4,1.4-0.6,2
							c-0.1,0.3-0.1,0.6-0.1,0.7c0,0.2,0.1,0.2,0.1,0.2l-0.2,0.2c0,0-0.2-0.1-0.2-0.3c-0.1-0.2-0.1-0.6,0-0.9
							c0.1-0.7,0.3-1.5,0.4-2.1c0.3-1.2,0.6-2.3,0.6-3.1c0-0.4-0.1-0.7-0.2-0.9C-48.8,439.7-48.8,439.6-48.8,439.6z"/>
					</g>
				</g>
			</g>
			<g>
				<g>
					<g>
						<path class="st2" d="M-47,443.1c0,0-0.1,0.3-0.3,0.8s-0.6,1.1-0.6,1.9c-0.1,0.7,0,2.1,0.1,1.8l-0.1,0.2c0,0-0.2,0-0.2-0.2
							c-0.1-0.2-0.1-0.3-0.2-0.5c-0.1-0.4-0.1-1-0.1-1.4c0.1-0.9,0.6-1.5,0.9-1.9C-47.2,443.4-47,443.1-47,443.1z"/>
					</g>
				</g>
			</g>
			<g>
				<g>
					<g>
						<path class="st2" d="M-55,439.1c0,0,0.1,0.1,0.3,0.3c0.2,0.2,0.5,0.6,0.7,1.1s0.3,1.2,0.3,1.9c0,0.7-0.1,1.5-0.1,2.2
							c0,0.4,0,0.8,0.2,1.2c0.1,0.4,0.4,0.7,0.6,1.1c0.2,0.3,0.5,0.6,0.6,0.7c0.2,0.1,0.3,0.2,0.3,0.2l-0.1,0.3c0,0-0.2,0-0.5-0.2
							c-0.2-0.2-0.5-0.4-0.8-0.7c-0.3-0.3-0.6-0.7-0.8-1.2c-0.2-0.5-0.2-1-0.2-1.4c0-0.8,0.2-1.6,0.2-2.3c0.1-0.7,0.1-1.3-0.1-1.8
							c-0.1-0.5-0.3-0.9-0.5-1.1C-54.9,439.2-55,439.1-55,439.1z"/>
					</g>
				</g>
			</g>
		</g>
		<g id="Cacti_Tall_3_">
			<path class="st9" d="M-11.5,439.5c0,0-2.2-19.5-1.7-25.6c0.6-6,2.2-10,5.7-9.7c3.5,0.3,5.6,4.6,5.3,7.7
				c-0.3,3.1-4.2,25.4-4.3,27.4S-11.5,439.5-11.5,439.5"/>
			<path class="st10" d="M-7.5,441.4c0,0,1.7-17.2,2.5-21.1s0.7-9.9,0.3-12c-0.4-2.2-2.8-4.1-2.8-4.1s1.4,1.9,1.4,4.5
				s-0.4,13.3-0.6,15.8s-1.7,17.3-1.7,17.3"/>
			<path class="st10" d="M-9.8,441.2c0,0-1.1-26.1-0.8-28.3c0.3-2.2,1-5.3,1.8-6.6c0.8-1.3,1.3-2.1,1.3-2.1
				c-3.8,0.6-4.3,8.6-4.6,9.9c-0.3,1.3,1.5,27.1,1.5,27.1"/>
			<path class="st11" d="M-8.6,440.6c0,0,1.4-29.8,1.3-32.1c-0.1-2.3-0.2-4.3-0.2-4.3c-1.7,3.3-1.3,6-1.6,7.6
				c-0.2,1.4,0,23.8,0,28.3c0,0.5,0,0.8,0,0.8"/>
			<g>
				<path class="st12" d="M-10.6,433.6c0.3-0.3,0.7-0.4,1-0.4"/>
				<g>
					<path class="st12" d="M-12.6,438.5c0.5-0.5,1-1,1.5-1.5"/>
				</g>
				<path class="st12" d="M-13.1,430.9c0.4,0,0.8-0.1,1.2-0.1"/>
				<path class="st12" d="M-13.4,427.8c0.4-0.3,0.8-0.5,1.2-0.8"/>
				<path class="st12" d="M-12,418.4c-0.7-0.3-1.3-0.6-2-0.9"/>
				<path class="st12" d="M-13.6,423.6c0.5,0,1,0,1.4-0.1c-0.1,0-0.1,0-0.2,0"/>
				<path class="st12" d="M-13.4,411.9c0.4,0,0.8,0.4,0.7,0.8"/>
				<path class="st12" d="M-12,407.2c0.2,0.3,0.5,0.5,0.8,0.7"/>
				<path class="st12" d="M-8.5,403.8c-0.1,0.3-0.2,0.7-0.2,1"/>
				<path class="st12" d="M-4,407c0.4-0.2,0.8-0.4,1.2-0.6h-0.1"/>
				<path class="st12" d="M-3,413.2c0.4,0.2,0.7,0.3,1.1,0.5"/>
				<path class="st12" d="M-7.7,408.2c0.4,0.2,0.8,0.4,1.3,0.5"/>
				<path class="st12" d="M-10.9,413.4c0.4-0.2,0.8-0.4,1.2-0.4"/>
				<path class="st12" d="M-3.8,419.7c0.5,0.2,1,0.5,1.5,0.7"/>
				<path class="st12" d="M-6.1,435.5c0.3,0,0.6,0,0.9,0.1"/>
				<path class="st12" d="M-5.9,434.2c0.5,0,0.9,0,1.4,0"/>
				<path class="st12" d="M-5.3,429.2c0.5,0.1,0.9,0.3,1.4,0.5"/>
				<path class="st12" d="M-7.3,426.3c0.5,0.1,1,0.4,1.4,0.7"/>
				<path class="st12" d="M-6.8,417.6c0.3-0.1,0.6-0.2,0.9-0.2"/>
				<path class="st12" d="M-6.2,413.2c0.2-0.1,0.5-0.2,0.7-0.3"/>
				<path class="st12" d="M-9.8,420.8c0.3,0.1,0.5,0.2,0.8,0.3"/>
				<path class="st12" d="M-10.2,428.8c0.3,0,0.6,0,0.8-0.2"/>
			</g>
		</g>
		<g id="Cacti_Round_1_">
			<path class="st7" d="M-30,419.9c0,0-0.5-8.1-1.9-9.3c-1.3-1.1-3.4-1-4.6,0.9c-1.2,1.9-0.1,4.3,0.7,5.7c0.8,1.3,3.8,3.9,3.8,3.9
				L-30,419.9z"/>
			<path class="st7" d="M-22.4,408.7c-0.2-3.8-2.1-7.3-3.6-7.3s-3.8,2.8-3.8,6.9c0,4.1,1.9,11.7,1.9,11.7l5.5-2.1L-22.4,408.7z"/>
			<path class="st7" d="M-30.4,436.5c0,0-4.6-5.3-4-12.2c0.6-6.9,4-8,5.4-7.9c1.4,0,4.9,2.8,5,7c0.1,4.3-0.3,12.6-0.3,12.6
				L-30.4,436.5z"/>
			<path class="st7" d="M-25.6,417c0,0-0.1-6.6,0.5-10.2c0.6-3.6,2.7-12.9,6.9-12.2s6.2,2.3,6.5,6.4c0.4,4.1,0,11.8-2.9,16.7
				C-17.4,422.5-25.6,417-25.6,417z"/>
			<path class="st7" d="M-19.1,421.4c-0.1-5.5,1-11.5,5.6-11.2c4.6,0.3,6,6.9,5.6,10.5s-0.4,9.1-6.8,16.1c-8.1-0.3-8.1-0.3-8.1-0.3
				L-19.1,421.4z"/>
			<path class="st7" d="M-26.5,436.6c0,0-3.1-7-2.7-11.7c0.3-4.7,2-10.1,6.2-9.5c4.2,0.6,5.9,3.7,5.9,7.4c-0.1,3.6-0.5,8.8-3.9,14
				C-26.5,436.6-26.5,436.6-26.5,436.6z"/>
			<g>
				<path class="st1" d="M-22.1,434c-0.1,0,0.9,0.9,0.9,0.9l-1.1-0.2L-22.1,434z"/>
				<path class="st1" d="M-20.9,428.8c-0.1,0,0.9,0.9,0.9,0.9l-1.1-0.2L-20.9,428.8z"/>
				<path class="st1" d="M-20.4,424.5c-0.1,0,1.2,0.4,1.2,0.4l-1.1,0.4L-20.4,424.5z"/>
				<path class="st1" d="M-21.2,420.7c0,0.1,1.1-0.5,1.1-0.5l-0.6,1.1L-21.2,420.7z"/>
				<path class="st1" d="M-15.4,410.3c0,0.1,0.3-1.3,0.3-1.3l0.4,1.2L-15.4,410.3z"/>
				<path class="st1" d="M-17.6,405.3c0,0.1,0.9-0.8,0.9-0.8l-0.3,1.2L-17.6,405.3z"/>
				<path class="st1" d="M-24.3,418.8c0.1,0.1-0.4-1.3-0.4-1.3l0.9,0.9L-24.3,418.8z"/>
				<path class="st1" d="M-25.8,422.3c0.1,0-0.7-1.1-0.7-1.1l1.1,0.5L-25.8,422.3z"/>
				<path class="st1" d="M-31.1,420.8c0.1,0-0.7-1.1-0.7-1.1l1.1,0.5L-31.1,420.8z"/>
				<path class="st1" d="M-31.6,426.2c0.1,0-1.1-0.5-1.1-0.5l1.1-0.3V426.2z"/>
				<path class="st1" d="M-29.8,432.8c0.1,0-1.2-0.2-1.2-0.2l1-0.5L-29.8,432.8z"/>
				<path class="st1" d="M-25.8,428.8c0.1,0-1.2-0.4-1.2-0.4l1.1-0.3L-25.8,428.8z"/>
				<path class="st1" d="M-28.6,430.4c0.1,0-1.5-0.3-1.5-0.3l1.3-0.6L-28.6,430.4z"/>
				<path class="st1" d="M-27.4,435.1c0.1,0-1.5-0.3-1.5-0.3l1.3-0.6L-27.4,435.1z"/>
				<path class="st1" d="M-29.2,423.2c0.1,0-1.3-1.1-1.3-1.1l1.5,0.1L-29.2,423.2z"/>
				<path class="st1" d="M-18.3,418.2c-0.1,0.1,1.5-0.3,1.5-0.3l-1,1.1L-18.3,418.2z"/>
				<path class="st1" d="M-15.3,414c-0.1,0.1,1.5-0.3,1.5-0.3l-1,1.1L-15.3,414z"/>
				<path class="st1" d="M-18.4,414.5c0.1,0-1.2-1.2-1.2-1.2l1.4,0.3L-18.4,414.5z"/>
				<path class="st1" d="M-22.4,409.2c0.1,0-1.4-0.9-1.4-0.9l1.5-0.1L-22.4,409.2z"/>
				<path class="st1" d="M-33.1,416.3c0.1-0.1-1.6-0.1-1.6-0.1l1.3-0.8L-33.1,416.3z"/>
				<path class="st1" d="M-34.2,412.8c0.1,0.1-0.1-1.8-0.1-1.8l0.9,1.4L-34.2,412.8z"/>
				<path class="st1" d="M-27,411.1c0.1,0-1.1-0.4-1.1-0.4l0.9-0.5L-27,411.1z"/>
				<path class="st1" d="M-25,406.3c0.1,0-1.4-0.9-1.4-0.9l1.5-0.1L-25,406.3z"/>
				<path class="st2" d="M-26.9,402.8c0.1,0.1-1.6-2.2-1.6-2.2l2.1,1.4L-26.9,402.8z"/>
				<path class="st2" d="M-33.5,423.5c0.2,0-2.3-1-2.3-1l2.4,0.1L-33.5,423.5z"/>
				<path class="st1" d="M-20.8,403.9c0.1,0-0.9-1.5-0.9-1.5l1.4,0.7L-20.8,403.9z"/>
				<path class="st2" d="M-22.9,401c0.1,0-1.2-1.2-1.2-1.2l1.5,0.2L-22.9,401z"/>
				<path class="st2" d="M-29,408.4c0.1,0-1.4-0.9-1.4-0.9l1.5-0.1L-29,408.4z"/>
				<path class="st2" d="M-33.4,429.8c0.1,0-1.6-0.2-1.6-0.2l1.3-0.7L-33.4,429.8z"/>
				<path class="st2" d="M-31.3,433.7c0.1-0.1-1.5,0.2-1.5,0.2l1.1-1.1L-31.3,433.7z"/>
				<path class="st2" d="M-36.3,413.6c0.1,0-1.9-0.9-1.9-0.9h1.9V413.6z"/>
				<path class="st2" d="M-33.9,411.1c0,0.1,0.5-2.2,0.5-2.2l0.4,2.2H-33.9z"/>
				<path class="st2" d="M-28.2,415.4c0.1-0.1-1.6,0-1.6,0l1.2-0.9L-28.2,415.4z"/>
				<path class="st2" d="M-19.8,395.5c0.1,0.1-0.3-1.7-0.3-1.7l1,1.2L-19.8,395.5z"/>
				<path class="st2" d="M-15.1,396.4c0,0.1,1.1-1.2,1.1-1.2l-0.3,1.6L-15.1,396.4z"/>
				<path class="st2" d="M-12.5,401.1c-0.1,0.1,1.6,0,1.6,0l-1.2,0.9L-12.5,401.1z"/>
				<path class="st2" d="M-12.8,406.3c-0.1,0,1.4,0.7,1.4,0.7l-1.4,0.2V406.3z"/>
				<path class="st1" d="M-18.2,401c0,0.1,0.3-1.7,0.3-1.7l0.5,1.6L-18.2,401z"/>
				<path class="st1" d="M-12.1,415.2c-0.1,0,1.5,0.7,1.5,0.7l-1.4,0.3L-12.1,415.2z"/>
				<path class="st1" d="M-13.3,419.1c-0.1,0,1.4,0.8,1.4,0.8l-1.5,0.2L-13.3,419.1z"/>
				<path class="st1" d="M-13,424.1c-0.1,0,1.1,1.2,1.1,1.2l-1.4-0.4L-13,424.1z"/>
				<path class="st1" d="M-14.8,431.4c-0.1,0,0.8,1.5,0.8,1.5l-1.3-0.7L-14.8,431.4z"/>
				<path class="st2" d="M-10.4,412.8c-0.1,0.1,1.5-0.3,1.5-0.3l-1,1.1L-10.4,412.8z"/>
				<path class="st2" d="M-8.8,421c-0.1,0,1.4,0.7,1.4,0.7l-1.4,0.2V421z"/>
				<path class="st2" d="M-9.8,427.4c-0.1,0,1.2,1.2,1.2,1.2l-1.5-0.3L-9.8,427.4z"/>
				<path class="st2" d="M-13.1,433.7c-0.1,0,1,1.4,1,1.4l-1.4-0.5L-13.1,433.7z"/>
				<path class="st1" d="M-17.5,426.8c-0.1,0,1.3,1,1.3,1h-1.5L-17.5,426.8z"/>
				<path class="st1" d="M-19.1,433.2c-0.1,0,1,1.4,1,1.4l-1.4-0.6L-19.1,433.2z"/>
				<path class="st1" d="M-26.6,416.9c0.1,0.1-0.5-1.7-0.5-1.7l1.2,1.1L-26.6,416.9z"/>
				<path class="st1" d="M-24.9,433.4c0.1,0-1.2-0.1-1.2-0.1l1-0.6L-24.9,433.4z"/>
			</g>
		</g>
		<g id="Large_Arc_1_">
			<path class="st2" d="M-134.6,445c0,0,0.5-0.3,1.4-0.8s2.3-1.3,4-2.1c0.9-0.4,1.8-1,2.9-1.5s2.3-1,3.5-1.6c1.3-0.5,2.6-1.1,4-1.7
				s3-1.1,4.5-1.7c1.6-0.6,3.2-1.2,5-1.7s3.6-1,5.4-1.6c0.9-0.3,1.9-0.5,2.8-0.8c1-0.2,2-0.4,3-0.7c2-0.4,4-0.9,6.1-1.3
				c4.2-0.6,8.5-1.4,13-1.7c4.4-0.5,9-0.5,13.5-0.7c4.5,0.2,9.1,0.2,13.5,0.7c4.5,0.3,8.8,1.1,13,1.7c2.1,0.4,4.1,0.9,6.1,1.3
				c1,0.2,2,0.4,3,0.7s1.9,0.5,2.8,0.8c1.9,0.5,3.7,1.1,5.4,1.6c1.7,0.6,3.4,1.2,5,1.7c1.6,0.6,3.1,1.1,4.5,1.7
				c1.4,0.6,2.8,1.2,4,1.7c1.3,0.6,2.4,1.1,3.5,1.6s2,1,2.9,1.5c1.7,0.9,3.1,1.7,4,2.1c0.9,0.5,1.4,0.8,1.4,0.8s-0.5-0.1-1.6-0.4
				c-1-0.3-2.5-0.7-4.4-1.2c-0.9-0.3-2-0.6-3.1-0.9c-1.1-0.3-2.4-0.6-3.7-0.9c-1.3-0.3-2.7-0.7-4.2-1.1s-3-0.7-4.6-1
				c-1.6-0.3-3.3-0.8-5-1.1c-1.7-0.3-3.6-0.6-5.4-1c-0.9-0.2-1.9-0.3-2.8-0.5c-1-0.1-1.9-0.3-2.9-0.4c-2-0.2-3.9-0.6-6-0.8
				c-4.1-0.4-8.3-0.9-12.6-1.1c-4.3-0.3-8.6-0.3-13-0.4c-4.4,0.1-8.7,0.1-13,0.4c-4.3,0.2-8.5,0.7-12.6,1.1c-2,0.3-4,0.6-6,0.8
				c-1,0.1-1.9,0.3-2.9,0.4c-0.9,0.2-1.9,0.3-2.8,0.5c-1.9,0.3-3.7,0.7-5.4,1c-1.7,0.3-3.4,0.8-5,1.1c-1.6,0.4-3.2,0.7-4.6,1
				c-1.5,0.4-2.8,0.7-4.1,1.1c-1.3,0.3-2.5,0.6-3.7,0.9c-1.1,0.3-2.2,0.6-3.1,0.9c-1.9,0.6-3.4,0.9-4.4,1.2
				C-134.1,444.8-134.6,445-134.6,445z"/>
		</g>
		<path id="Ocean_Floor_1_" class="st2" d="M-108.7,458.2l98.3-0.5l-1.4-2.3l-2.5-1.1l-12.6-3l-1.9-1.2l-1.5-1.3l-0.3-2l-1.9-1.3
			l-2.9,0.1l-2.3,1.7l-1.4,0.7l-1.1-0.3l-2.7,0.2c0,0-3-1.1-3.2-1.1s-2.3,0.1-2.3,0.1l-1.4-1.3l-1.8,1.2l-2,0.9l-1.8,0.3l-4.8-0.6
			l-6.5,0.6h-2.2l0.1-1.1l-1.9-0.4l-1.7,1.1l-2.2,1.1l-5.3,0.1l-4.7,0.8l-9,3l-5.6-2.1l-4.2-0.9l-4.5,0.9l-4.5,2.1l-0.9,1.8
			l-1.4-0.1h-2.1l-0.4,0.8l-0.7,1.9l-1.7,0.5l0.4,0.8h5.6l0.2,1.4L-108.7,458.2z"/>
		<g>
			<path class="st2" d="M-65.2,354.3c36.9,0,66.8,29.9,66.8,66.8s-29.9,66.8-66.8,66.8S-132,458-132,421.1S-102.1,354.3-65.2,354.3
				 M-65.2,335.8c-47,0-85.3,38.3-85.3,85.3s38.3,85.3,85.3,85.3s85.3-38.3,85.3-85.3S-18.2,335.8-65.2,335.8L-65.2,335.8z"/>
			<path class="st1" d="M-65.2,354.3c36.9,0,66.8,29.9,66.8,66.8s-29.9,66.8-66.8,66.8S-132,458-132,421.1S-102.1,354.3-65.2,354.3
				 M-65.2,337.3c-46.2,0-83.8,37.6-83.8,83.8s37.6,83.8,83.8,83.8s83.8-37.6,83.8-83.8S-19,337.3-65.2,337.3L-65.2,337.3z"/>
			<circle class="st13" cx="-65.2" cy="421.1" r="66.8"/>
		</g>
		<line class="st13" x1="0.8" y1="411.1" x2="18.3" y2="408.4"/>
		<line class="st13" x1="-131.2" y1="411.1" x2="-148.8" y2="408.4"/>
		<g>
			<circle class="st8" cx="-65.4" cy="421.1" r="71.7"/>
			<path class="st2" d="M-138.7,395l-0.8,2.1l-1.4-0.5l2.1-5.8l1.4,0.5l-0.8,2.1l5.7,2.1l-0.5,1.6L-138.7,395z"/>
			<path class="st2" d="M-136.1,385.2l0.8-1.5l2.5,1.4l1.6-2.9l-2.5-1.4l0.8-1.5l6.6,3.7l-0.8,1.5l-2.8-1.6l-1.6,2.9l2.8,1.6
				l-0.8,1.5L-136.1,385.2z"/>
			<path class="st2" d="M-128.8,373.5l3.3-4.1l1.2,1l-2.2,2.8l1.1,0.9l2.1-2.6l1.2,1l-2.1,2.6l1.2,1l2.4-2.9l1.2,1l-3.6,4.1
				L-128.8,373.5z"/>
			<path class="st2" d="M-106.6,358.8c0.3,0.4,0.4,0.7,0.6,1.1c0.1,0.4,0.1,0.8,0.1,1.2c-0.1,0.4-0.2,0.8-0.4,1.1
				c-0.2,0.3-0.6,0.7-1,1c-0.4,0.3-0.9,0.5-1.3,0.7c-0.4,0.1-0.8,0.1-1.2,0.1s-0.7-0.2-1.1-0.4c-0.3-0.2-0.6-0.5-0.9-0.9l-2.7-3.8
				l1.4-1l2.7,3.7c0.1,0.2,0.3,0.3,0.5,0.5c0.2,0.1,0.4,0.2,0.6,0.2s0.4,0,0.6,0s0.4-0.1,0.6-0.3c0.2-0.1,0.3-0.3,0.4-0.5
				s0.2-0.4,0.2-0.6c0-0.2,0-0.4,0-0.6c-0.1-0.2-0.2-0.4-0.3-0.6l-2.7-3.7l1.4-1L-106.6,358.8z"/>
			<path class="st2" d="M-103.3,351.4l2.1-1l5.3,3.3l0,0l-2.3-4.7l1.5-0.8l3.3,6.8l-2,1l-5.4-3.4l0,0l2.4,4.8l-1.6,0.8L-103.3,351.4
				z"/>
			<path class="st2" d="M-90.3,345.8l1.6-0.5l2.3,7.2L-88,353L-90.3,345.8z"/>
			<path class="st2" d="M-82.1,343.5l2.3-0.4l4.1,4.6l0,0l-0.9-5.2l1.7-0.3l1.2,7.5l-2.2,0.4l-4.2-4.8l0,0l0.9,5.3l-1.7,0.3
				L-82.1,343.5z"/>
			<path class="st2" d="M-67.8,341.8h1.7v2.8l3.3,0.1v-2.8h1.7l-0.1,7.6h-1.7l0.1-3.3l-3.3-0.1l-0.1,3.3h-1.7L-67.8,341.8z"/>
			<path class="st2" d="M-51.6,343l1.4,0.3l2,8l-1.9-0.4l-0.4-1.7l-3-0.6l-0.9,1.5l-1.9-0.3L-51.6,343z M-51.3,345.3l-1.4,2.1
				l1.9,0.3L-51.3,345.3z"/>
			<path class="st2" d="M-41,345.6l2.7,1c0.3,0.1,0.6,0.3,0.9,0.4c0.3,0.2,0.6,0.4,0.8,0.6s0.3,0.5,0.4,0.8c0.1,0.3,0,0.6-0.1,1
				c-0.1,0.4-0.4,0.7-0.7,0.9c-0.3,0.2-0.7,0.3-1.1,0.2l0,0c0.2,0.1,0.4,0.3,0.6,0.4c0.2,0.1,0.3,0.4,0.4,0.6
				c0.1,0.2,0.1,0.4,0.1,0.6s0,0.5-0.1,0.7c-0.1,0.4-0.3,0.7-0.6,0.8c-0.3,0.2-0.5,0.3-0.9,0.4c-0.3,0.1-0.7,0.1-1,0
				c-0.4-0.1-0.7-0.1-1-0.3l-3-1.1L-41,345.6z M-41.4,352l1.4,0.5c0.1,0,0.3,0.1,0.4,0.1c0.1,0,0.3,0,0.4,0c0.1,0,0.2-0.1,0.3-0.2
				s0.2-0.2,0.2-0.4c0.1-0.2,0.1-0.3,0-0.5c0-0.1-0.1-0.3-0.2-0.4s-0.2-0.2-0.4-0.3c-0.1-0.1-0.3-0.1-0.4-0.2l-1.2-0.4L-41.4,352z
				 M-40.4,349.1l1.2,0.4c0.1,0,0.3,0.1,0.4,0.1c0.1,0,0.3,0,0.4,0c0.1,0,0.2-0.1,0.3-0.2s0.2-0.2,0.2-0.3c0.1-0.1,0.1-0.3,0-0.4
				s-0.1-0.2-0.2-0.3c-0.1-0.1-0.2-0.2-0.3-0.2c-0.1-0.1-0.2-0.1-0.4-0.2l-1.1-0.4L-40.4,349.1z"/>
			<path class="st2" d="M-29.7,350.3l1.5,0.8l-3.5,6.7l-1.5-0.8L-29.7,350.3z"/>
			<path class="st2" d="M-21.9,356.6l-1.8-1.3l0.8-1.2l5.1,3.5l-0.8,1.2l-1.8-1.3l-3.5,5l-1.4-1L-21.9,356.6z"/>
			<path class="st2" d="M-12,362.5l1,1l-2.7,7.8l-1.4-1.3l0.6-1.6l-2.2-2.1l-1.6,0.7l-1.4-1.3L-12,362.5z M-13,364.6l-2.3,1.1
				l1.4,1.3L-13,364.6z"/>
			<path class="st2" d="M-4.4,370.4l1.8,2.3c0.2,0.3,0.4,0.5,0.6,0.8c0.2,0.3,0.3,0.6,0.3,0.9c0,0.3,0,0.6-0.1,0.9
				c-0.1,0.3-0.3,0.6-0.6,0.8c-0.3,0.3-0.7,0.4-1.1,0.4c-0.4,0-0.7-0.2-1.1-0.4l0,0c0.1,0.2,0.2,0.5,0.3,0.7c0.1,0.2,0.1,0.5,0,0.7
				c0,0.2-0.1,0.4-0.2,0.6c-0.1,0.2-0.3,0.4-0.5,0.5c-0.3,0.2-0.6,0.4-1,0.4c-0.3,0-0.6,0-0.9-0.1c-0.3-0.1-0.6-0.3-0.9-0.5
				c-0.3-0.2-0.5-0.5-0.7-0.8l-2-2.5L-4.4,370.4z M-8.2,375.5l0.9,1.2c0.1,0.1,0.2,0.2,0.3,0.3s0.2,0.2,0.3,0.2s0.3,0.1,0.4,0
				c0.1-0.1,0.3-0.1,0.4-0.2c0.1-0.1,0.2-0.2,0.3-0.4s0-0.3,0-0.4c0-0.1-0.1-0.3-0.2-0.4c-0.1-0.1-0.2-0.3-0.3-0.4l-0.8-1
				L-8.2,375.5z M-5.8,373.6l0.8,1c0.1,0.1,0.2,0.2,0.3,0.3c0.1,0.1,0.2,0.1,0.3,0.2c0.1,0,0.2,0.1,0.4,0c0.1,0,0.2-0.1,0.4-0.2
				c0.1-0.1,0.2-0.2,0.2-0.3s0-0.2,0-0.4c0-0.1-0.1-0.2-0.1-0.4c-0.1-0.1-0.1-0.2-0.2-0.3l-0.7-0.9L-5.8,373.6z"/>
			<path class="st2" d="M2.7,380.6l0.8,1.5l-5.3,2.9l1.6,2.8l-1.3,0.8l-2.4-4.3L2.7,380.6z"/>
			<path class="st2" d="M7.8,390.5l1.9,4.9l-1.4,0.5L7,392.6l-1.3,0.5l1.2,3.2l-1.4,0.5l-1.2-3.2l-1.4,0.5l1.3,3.5l-1.4,0.5L0.9,393
				L7.8,390.5z"/>
		</g>
		<g>
			<circle class="st8" cx="-65.2" cy="421.1" r="79.4"/>
			<path class="st2" d="M-142,423.7c-0.3,0-0.7,0-1-0.1s-0.6-0.2-0.9-0.3c-0.3-0.1-0.5-0.4-0.6-0.7c-0.2-0.3-0.2-0.7-0.2-1.3
				s0.1-1.1,0.4-1.6c0.3-0.4,0.7-0.7,1.3-0.8l0.4,1.6c-0.2,0-0.3,0.1-0.5,0.3c-0.2,0.2-0.2,0.3-0.2,0.5c0,0.2,0.1,0.4,0.2,0.5
				c0.1,0.1,0.2,0.2,0.4,0.2c0.1,0,0.3,0.1,0.5,0.1s0.3,0,0.5,0l4.8-0.1v1.7H-142z"/>
			<path class="st2" d="M-136.6,429.1l0.8,5.2l-1.5,0.2l-0.5-3.5l-1.4,0.2l0.5,3.3l-1.5,0.2l-0.5-3.3l-1.5,0.2l0.6,3.7l-1.5,0.2
				l-0.8-5.4L-136.6,429.1z"/>
			<path class="st2" d="M-135.3,443.9c0.1-0.2,0.2-0.4,0.2-0.7c0-0.3,0-0.5-0.1-0.7c0-0.1-0.1-0.2-0.2-0.4c-0.1-0.1-0.1-0.2-0.2-0.3
				c-0.1-0.1-0.2-0.2-0.3-0.2c-0.1,0-0.2,0-0.4,0c-0.2,0.1-0.4,0.2-0.4,0.4c-0.1,0.2-0.1,0.4-0.1,0.7c0,0.3,0,0.6,0,0.9
				c0,0.3,0,0.6-0.1,0.9c-0.1,0.3-0.2,0.6-0.4,0.8c-0.2,0.2-0.5,0.4-0.9,0.6c-0.4,0.1-0.8,0.2-1.1,0.1c-0.3-0.1-0.7-0.2-0.9-0.4
				c-0.2-0.2-0.5-0.5-0.7-0.8c-0.2-0.3-0.4-0.7-0.5-1.1c-0.1-0.5-0.2-1-0.2-1.4c0-0.5,0.1-0.9,0.3-1.4l1.6,0.8
				c-0.2,0.2-0.3,0.5-0.3,0.8c0,0.3,0,0.6,0.1,0.8c0,0.1,0.1,0.3,0.2,0.4c0.1,0.1,0.2,0.2,0.2,0.3c0.1,0.1,0.2,0.2,0.3,0.2
				c0.1,0,0.2,0,0.4,0c0.2-0.1,0.4-0.2,0.4-0.4c0-0.2,0.1-0.5,0.1-0.7c0-0.2,0-0.6,0-0.9s0-0.6,0.1-1c0.1-0.4,0.2-0.6,0.4-0.8
				c0.2-0.2,0.5-0.4,0.9-0.6c0.4-0.1,0.8-0.1,1.1-0.1c0.3,0.1,0.6,0.2,0.9,0.4c0.3,0.2,0.5,0.5,0.7,0.8c0.2,0.3,0.4,0.7,0.5,1
				c0.1,0.4,0.2,0.8,0.2,1.3c0,0.4-0.1,0.8-0.3,1.2L-135.3,443.9z"/>
			<path class="st2" d="M-132.6,457.4c-0.4,0.2-0.8,0.3-1.2,0.4c-0.4,0-0.8,0-1.2-0.1s-0.7-0.3-1-0.6c-0.3-0.3-0.6-0.7-0.8-1.2
				s-0.4-1-0.4-1.4s0-0.8,0.1-1.2c0.1-0.4,0.3-0.7,0.6-1c0.3-0.3,0.6-0.5,1-0.7l4.2-2l0.7,1.5l-4.1,2c-0.2,0.1-0.4,0.2-0.5,0.4
				c-0.1,0.2-0.3,0.3-0.3,0.5c-0.1,0.2-0.1,0.4-0.1,0.6s0.1,0.4,0.2,0.6c0.1,0.2,0.2,0.4,0.4,0.5c0.2,0.1,0.3,0.2,0.5,0.3
				c0.2,0.1,0.4,0.1,0.6,0.1s0.4-0.1,0.6-0.2l4.1-2l0.7,1.5L-132.6,457.4z"/>
			<path class="st2" d="M-124.9,464.3c0.1-0.2,0.1-0.4,0-0.7c-0.1-0.2-0.2-0.5-0.3-0.6c-0.1-0.1-0.2-0.2-0.3-0.3s-0.2-0.2-0.3-0.2
				c-0.1,0-0.2-0.1-0.4-0.1c-0.2,0-0.2,0-0.4,0.1c-0.2,0.1-0.3,0.3-0.3,0.5c0,0.2,0,0.5,0.1,0.7c0.1,0.2,0.2,0.6,0.3,0.9
				c0.1,0.3,0.2,0.6,0.2,0.9s0,0.6-0.1,0.9s-0.4,0.6-0.7,0.8c-0.3,0.2-0.7,0.4-1,0.4c-0.3,0-0.7,0-1-0.1c-0.3-0.1-0.6-0.3-0.9-0.5
				c-0.3-0.2-0.5-0.5-0.8-0.9s-0.5-0.8-0.6-1.3c-0.1-0.4-0.2-0.9-0.1-1.4l1.8,0.3c-0.1,0.3-0.1,0.6-0.1,0.8c0.1,0.3,0.2,0.6,0.3,0.8
				c0.1,0.1,0.2,0.2,0.3,0.3c0.1,0.1,0.2,0.2,0.3,0.2c0.1,0.1,0.2,0.1,0.4,0.1c0.1,0,0.2,0,0.3-0.1c0.2-0.1,0.3-0.3,0.3-0.5
				c0-0.2,0-0.5-0.1-0.7c-0.1-0.3-0.2-0.6-0.3-0.9c-0.1-0.3-0.2-0.6-0.2-0.9c0-0.3,0-0.6,0.1-0.9c0.1-0.3,0.3-0.6,0.7-0.8
				c0.3-0.2,0.7-0.4,1-0.4c0.3,0,0.7,0,1,0.1c0.3,0.1,0.6,0.3,0.9,0.5c0.3,0.2,0.5,0.5,0.8,0.8c0.3,0.4,0.4,0.7,0.6,1.2
				c0.1,0.4,0.2,0.8,0.1,1.3L-124.9,464.3z"/>
			<path class="st2" d="M-111.8,478.4c0-0.3-0.1-0.5-0.2-0.8c-0.1-0.3-0.3-0.5-0.5-0.7c-0.2-0.2-0.5-0.4-0.8-0.4s-0.6-0.1-0.9-0.1
				s-0.6,0.1-0.9,0.3c-0.3,0.2-0.5,0.4-0.8,0.6c-0.2,0.3-0.4,0.6-0.5,0.9c-0.1,0.3-0.2,0.6-0.1,0.9s0.1,0.6,0.2,0.8
				c0.1,0.2,0.3,0.5,0.5,0.7c0.3,0.2,0.5,0.4,0.8,0.4c0.3,0.1,0.6,0.1,0.9,0l0.4,1.7c-0.5,0.1-1.1,0.1-1.6-0.1s-1-0.4-1.4-0.8
				c-0.5-0.4-0.8-0.8-1.1-1.3s-0.4-1-0.5-1.5s0-1,0.2-1.5c0.2-0.5,0.4-1,0.8-1.4c0.4-0.5,0.8-0.8,1.3-1c0.5-0.2,1-0.4,1.5-0.4
				s1,0.1,1.5,0.3c0.5,0.2,1,0.5,1.5,0.9c0.2,0.1,0.3,0.3,0.5,0.5c0.2,0.2,0.3,0.4,0.4,0.6s0.2,0.4,0.3,0.7c0.1,0.2,0.1,0.5,0.1,0.8
				L-111.8,478.4z"/>
			<path class="st2" d="M-107.7,483.7c0.3-0.5,0.7-0.9,1.1-1.2c0.4-0.3,0.9-0.5,1.4-0.6s1-0.1,1.6,0c0.5,0.1,1.1,0.3,1.6,0.6
				c0.5,0.3,1,0.7,1.3,1.1s0.6,0.9,0.7,1.4s0.2,1,0.1,1.5s-0.3,1.1-0.6,1.6c-0.3,0.5-0.7,0.9-1.1,1.2c-0.4,0.3-0.9,0.5-1.4,0.6
				s-1,0.1-1.6,0c-0.5-0.1-1.1-0.3-1.6-0.6c-0.5-0.3-1-0.7-1.3-1.1s-0.6-0.9-0.7-1.4s-0.2-1-0.1-1.5S-108,484.3-107.7,483.7z
				 M-106.2,484.7c-0.2,0.3-0.3,0.6-0.4,0.9s0,0.6,0,0.9c0.1,0.3,0.2,0.6,0.4,0.8c0.2,0.3,0.4,0.5,0.8,0.7c0.3,0.2,0.6,0.3,0.9,0.4
				c0.3,0,0.6,0,0.9,0c0.3-0.1,0.6-0.2,0.8-0.4c0.2-0.2,0.5-0.4,0.6-0.7c0.2-0.3,0.3-0.6,0.4-0.9s0-0.6,0-0.9
				c-0.1-0.3-0.2-0.6-0.4-0.8c-0.2-0.3-0.4-0.5-0.8-0.7c-0.3-0.2-0.6-0.3-0.9-0.4c-0.3,0-0.6,0-0.9,0c-0.3,0.1-0.6,0.2-0.8,0.4
				C-105.8,484.2-106,484.4-106.2,484.7z"/>
			<path class="st2" d="M-93.9,487l1.6,0.6l-2.2,5.6l3,1.2l-0.6,1.4l-4.5-1.8L-93.9,487z"/>
			<path class="st2" d="M-84.6,490.3l1.7,0.4l-1.4,5.8l3.1,0.8l-0.4,1.5l-4.8-1.2L-84.6,490.3z"/>
			<path class="st2" d="M-74.9,492.3l5.3,0.5l-0.1,1.5l-3.6-0.3l-0.1,1.4l3.4,0.3l-0.1,1.5l-3.4-0.3l-0.1,1.5l3.8,0.4l-0.1,1.5
				l-5.5-0.5L-74.9,492.3z"/>
			<path class="st2" d="M-56.7,499.5c-0.5,0.3-1,0.5-1.5,0.7c-0.5,0.1-1.1,0.2-1.7,0.3c-0.6,0-1.2,0-1.7-0.2c-0.5-0.2-1-0.4-1.4-0.7
				c-0.4-0.3-0.7-0.7-1-1.2s-0.4-1-0.4-1.6s0-1.2,0.2-1.7s0.4-0.9,0.8-1.3s0.8-0.7,1.3-0.9c0.5-0.2,1.1-0.3,1.7-0.4
				c0.6,0,1.2,0,1.7,0.1s1,0.3,1.4,0.7l-1.1,1.4c-0.2-0.2-0.5-0.4-0.8-0.5s-0.7-0.1-1.1-0.1s-0.7,0.1-1,0.2s-0.5,0.3-0.7,0.6
				c-0.2,0.2-0.3,0.5-0.4,0.8c-0.1,0.3-0.1,0.6-0.1,1s0.1,0.7,0.2,1c0.1,0.3,0.3,0.5,0.5,0.7c0.2,0.2,0.5,0.4,0.8,0.5s0.6,0.1,1,0.1
				s0.7-0.1,1-0.2c0.3-0.1,0.5-0.2,0.6-0.3l-0.1-1.2l-1.4,0.1l-0.1-1.5l3-0.2L-56.7,499.5z"/>
			<path class="st2" d="M-51.7,491.7l5.2-1.2l0.3,1.5l-3.5,0.8l0.3,1.4l3.3-0.8l0.3,1.5l-3.3,0.8l0.3,1.5l3.7-0.8l0.3,1.5l-5.4,1.2
				L-51.7,491.7z"/>
			<path class="st2" d="M-34.5,486.1l2.3-1.3l3.9,3.5l0,0l-0.8-5.2l2.3-1.2l3.6,6.6l-1.5,0.8l-2.8-5.1l0,0l1,6.1l-1.1,0.6l-4.5-4.1
				l0,0l2.8,5.1l-1.5,0.8L-34.5,486.1z"/>
			<path class="st2" d="M-20.3,477.1l1.1-0.9l7.4,3.7l-1.5,1.2l-1.5-0.8l-2.3,1.9l0.5,1.6l-1.5,1.2L-20.3,477.1z M-18.4,478.4
				l0.8,2.4l1.5-1.2L-18.4,478.4z"/>
			<path class="st2" d="M-9.3,472.8l-5.2-0.7l1.4-1.6l3.2,0.7l-0.9-3.2l1.4-1.5l1.2,5.1l2.4,2.2l-1.2,1.3L-9.3,472.8z"/>
			<path class="st2" d="M-2.8,456.6l1.3-2.6c0.2-0.3,0.3-0.6,0.5-0.9s0.4-0.5,0.7-0.7c0.3-0.2,0.5-0.3,0.8-0.3s0.6,0,1,0.2
				c0.4,0.2,0.6,0.5,0.8,0.8c0.1,0.3,0.2,0.7,0.1,1.1l0,0c0.2-0.2,0.3-0.4,0.5-0.5s0.4-0.2,0.6-0.3c0.2-0.1,0.4-0.1,0.7,0
				c0.2,0,0.4,0.1,0.7,0.2c0.4,0.2,0.6,0.4,0.8,0.7c0.2,0.3,0.2,0.6,0.3,0.9c0,0.3,0,0.7-0.1,1c-0.1,0.3-0.2,0.7-0.4,1L4,460
				L-2.8,456.6z M0.7,456.5l0.6-1.1c0.1-0.1,0.1-0.2,0.1-0.4c0-0.2,0-0.2,0-0.4c0-0.1,0-0.2-0.1-0.3S1.1,454.1,1,454
				s-0.3-0.1-0.4-0.1c-0.1,0-0.2,0.1-0.3,0.1c-0.1,0.1-0.2,0.2-0.3,0.3s-0.2,0.2-0.2,0.3l-0.5,1L0.7,456.5z M3.5,458l0.7-1.4
				c0.1-0.1,0.1-0.2,0.1-0.4c0-0.1,0-0.3,0-0.4s-0.1-0.3-0.1-0.4c-0.1-0.1-0.2-0.2-0.3-0.3C3.7,455,3.6,455,3.5,455
				c-0.1,0-0.3,0.1-0.4,0.2c-0.1,0.1-0.2,0.2-0.3,0.3s-0.2,0.3-0.2,0.4L2,457.1L3.5,458z"/>
			<path class="st2" d="M2.8,444.2l0.4-1.3l8.2-0.9l-0.6,1.8l-1.7,0.1l-0.9,2.9l1.3,1.1l-0.6,1.8L2.8,444.2z M5.1,444.3l1.9,1.6
				l0.6-1.8L5.1,444.3z"/>
			<path class="st2" d="M5.3,435l0.3-1.7l5.9,1l0.5-3.1l1.5,0.3l-0.8,4.8L5.3,435z"/>
			<path class="st2" d="M6.5,425.1v-1.7l6,0.2l0.1-3.2h1.5l-0.1,4.9L6.5,425.1z"/>
		</g>
	</g>
</g>
</svg>
